<?xml version="1.0" encoding="UTF-8" standalone="no"?>
<!DOCTYPE svg PUBLIC "-//W3C//DTD SVG 1.1//EN" "http://www.w3.org/Graphics/SVG/1.1/DTD/svg11.dtd">
<!-- 由 Microsoft Visio, SVG Export 生成 CP-Src2Exe.svg Page-1 -->
<svg xmlns="http://www.w3.org/2000/svg" xmlns:xlink="http://www.w3.org/1999/xlink" xmlns:ev="http://www.w3.org/2001/xml-events"
		xmlns:v="http://schemas.microsoft.com/visio/2003/SVGExtensions/" width="7.00648in" height="6.98679in"
		viewBox="0 0 504.467 503.049" xml:space="preserve" color-interpolation-filters="sRGB" class="st14">
	<v:documentProperties v:langID="2052" v:metric="true" v:viewMarkup="false">
		<v:userDefs>
			<v:ud v:nameU="msvNoAutoConnect" v:val="VT0(1):26"/>
		</v:userDefs>
	</v:documentProperties>

	<style type="text/css">
	<![CDATA[
		.st1 {fill:#fff2cc;stroke:none;stroke-linecap:round;stroke-linejoin:round;stroke-width:0.75}
		.st2 {fill:#fcebdd;stroke:none;stroke-linecap:round;stroke-linejoin:round;stroke-width:0.75}
		.st3 {fill:#dbeef3;stroke:none;stroke-linecap:round;stroke-linejoin:round;stroke-width:0.75}
		.st4 {visibility:visible}
		.st5 {fill:#000000;fill-opacity:0.4;filter:url(#filter_2.6666667461395);stroke:#000000;stroke-linecap:round;stroke-linejoin:round;stroke-opacity:0.4}
		.st6 {fill:#d8d8d8;stroke:#000000;stroke-linecap:round;stroke-linejoin:round;stroke-width:0.75}
		.st7 {fill:#000000;font-family:Times New Roman;font-size:1.00001em}
		.st8 {font-family:宋体;font-size:1em}
		.st9 {marker-end:url(#mrkr13-69);stroke:#000000;stroke-linecap:round;stroke-linejoin:round;stroke-width:0.75}
		.st10 {fill:#000000;fill-opacity:1;stroke:#000000;stroke-opacity:1;stroke-width:0.22935779816514}
		.st11 {fill:none;stroke:none;stroke-linecap:round;stroke-linejoin:round;stroke-width:0.75}
		.st12 {fill:#000000;font-family:宋体;font-size:1.00001em}
		.st13 {marker-end:url(#mrkr5-125);stroke:#000000;stroke-linecap:round;stroke-linejoin:round;stroke-width:0.75}
		.st14 {fill:none;fill-rule:evenodd;font-size:12px;overflow:visible;stroke-linecap:square;stroke-miterlimit:3}
	]]>
	</style>

	<defs id="Markers">
		<g id="lend13">
			<path d="M 3 1 L 0 0 L 3 -1 L 3 1 " style="stroke:none"/>
		</g>
		<marker id="mrkr13-69" class="st10" v:arrowType="13" v:arrowSize="2" v:setback="13.08" refX="-13.08" orient="auto"
				markerUnits="strokeWidth" overflow="visible">
			<use xlink:href="#lend13" transform="scale(-4.36,-4.36) "/>
		</marker>
		<g id="lend5">
			<path d="M 2 1 L 0 0 L 1.98117 -0.993387 C 1.67173 -0.364515 1.67301 0.372641 1.98465 1.00043 " style="stroke:none"/>
		</g>
		<marker id="mrkr5-125" class="st10" v:arrowType="5" v:arrowSize="2" v:setback="7.15" refX="-7.15" orient="auto"
				markerUnits="strokeWidth" overflow="visible">
			<use xlink:href="#lend5" transform="scale(-4.36,-4.36) "/>
		</marker>
	</defs>
	<defs id="Filters">
		<filter id="filter_2.6666667461395">
			<feGaussianBlur stdDeviation="2.6666667461395"/>
		</filter>
	</defs>
	<g v:mID="0" v:index="1" v:groupContext="foregroundPage">
		<title>页-1</title>
		<v:pageProperties v:drawingScale="0.0393701" v:pageScale="0.0393701" v:drawingUnits="24" v:shadowOffsetX="8.50394"
				v:shadowOffsetY="-8.50394"/>
		<v:layer v:name="连接线" v:index="0"/>
		<g id="group51-1" transform="translate(18.375,-18.375)" v:mID="51" v:groupContext="group">
			<title>工作表.51</title>
			<g id="shape31-2" v:mID="31" v:groupContext="shape" transform="translate(311.811,5.68434E-14)">
				<title>工作表.31</title>
				<rect x="0" y="90.6083" width="155.906" height="412.441" class="st1"/>
			</g>
			<g id="shape29-4" v:mID="29" v:groupContext="shape" transform="translate(155.906,-3.39337E-05)">
				<title>工作表.29</title>
				<rect x="0" y="90.6083" width="155.906" height="412.441" class="st2"/>
			</g>
			<g id="shape27-6" v:mID="27" v:groupContext="shape" transform="translate(0,-3.39337E-05)">
				<title>工作表.27</title>
				<rect x="0" y="90.6083" width="155.906" height="412.441" class="st3"/>
			</g>
			<g id="shape1-8" v:mID="1" v:groupContext="shape" transform="translate(28.3465,-321.732)">
				<title>工作表.1</title>
				<desc>main.c</desc>
				<v:textBlock v:margins="rect(4,4,4,4)" v:tabSpace="42.5197"/>
				<v:textRect cx="43.937" cy="481.789" width="87.88" height="42.5197"/>
				<g id="shadow1-9" v:groupContext="shadow" v:shadowOffsetX="2.12132" v:shadowOffsetY="-2.12132" v:shadowType="1"
						transform="matrix(1,0,0,1,2.12132,2.12132)" class="st4">
					<rect x="0" y="460.53" width="87.874" height="42.5197" class="st5"/>
				</g>
				<rect x="0" y="460.53" width="87.874" height="42.5197" class="st6"/>
				<text x="27.78" y="485.39" class="st7" v:langID="2052"><v:paragraph v:horizAlign="1"/><v:tabList/>main.c</text>			</g>
			<g id="shape2-14" v:mID="2" v:groupContext="shape" transform="translate(28.3465,-243.78)">
				<title>工作表.2</title>
				<desc>builder.c</desc>
				<v:textBlock v:margins="rect(4,4,4,4)" v:tabSpace="42.5197"/>
				<v:textRect cx="43.937" cy="481.789" width="87.88" height="42.5197"/>
				<g id="shadow2-15" v:groupContext="shadow" v:shadowOffsetX="2.12132" v:shadowOffsetY="-2.12132" v:shadowType="1"
						transform="matrix(1,0,0,1,2.12132,2.12132)" class="st4">
					<rect x="0" y="460.53" width="87.874" height="42.5197" class="st5"/>
				</g>
				<rect x="0" y="460.53" width="87.874" height="42.5197" class="st6"/>
				<text x="22.78" y="485.39" class="st7" v:langID="2052"><v:paragraph v:horizAlign="1"/><v:tabList/>builder.c</text>			</g>
			<g id="shape4-20" v:mID="4" v:groupContext="shape" transform="translate(28.3465,-137.48)">
				<title>工作表.4</title>
				<desc>tester.c</desc>
				<v:textBlock v:margins="rect(4,4,4,4)" v:tabSpace="42.5197"/>
				<v:textRect cx="43.937" cy="481.789" width="87.88" height="42.5197"/>
				<g id="shadow4-21" v:groupContext="shadow" v:shadowOffsetX="2.12132" v:shadowOffsetY="-2.12132" v:shadowType="1"
						transform="matrix(1,0,0,1,2.12132,2.12132)" class="st4">
					<rect x="0" y="460.53" width="87.874" height="42.5197" class="st5"/>
				</g>
				<rect x="0" y="460.53" width="87.874" height="42.5197" class="st6"/>
				<text x="26.78" y="485.39" class="st7" v:langID="2052"><v:paragraph v:horizAlign="1"/><v:tabList/>tester.c</text>			</g>
			<g id="shape6-26" v:mID="6" v:groupContext="shape" transform="translate(175.748,-321.732)">
				<title>工作表.6</title>
				<desc>main.o</desc>
				<v:textBlock v:margins="rect(4,4,4,4)" v:tabSpace="42.5197"/>
				<v:textRect cx="43.937" cy="481.789" width="87.88" height="42.5197"/>
				<g id="shadow6-27" v:groupContext="shadow" v:shadowOffsetX="2.12132" v:shadowOffsetY="-2.12132" v:shadowType="1"
						transform="matrix(1,0,0,1,2.12132,2.12132)" class="st4">
					<rect x="0" y="460.53" width="87.874" height="42.5197" class="st5"/>
				</g>
				<rect x="0" y="460.53" width="87.874" height="42.5197" class="st6"/>
				<text x="27.44" y="485.39" class="st7" v:langID="2052"><v:paragraph v:horizAlign="1"/><v:tabList/>main.o</text>			</g>
			<g id="shape7-32" v:mID="7" v:groupContext="shape" transform="translate(175.748,-243.78)">
				<title>工作表.7</title>
				<desc>builder.o</desc>
				<v:textBlock v:margins="rect(4,4,4,4)" v:tabSpace="42.5197"/>
				<v:textRect cx="43.937" cy="481.789" width="87.88" height="42.5197"/>
				<g id="shadow7-33" v:groupContext="shadow" v:shadowOffsetX="2.12132" v:shadowOffsetY="-2.12132" v:shadowType="1"
						transform="matrix(1,0,0,1,2.12132,2.12132)" class="st4">
					<rect x="0" y="460.53" width="87.874" height="42.5197" class="st5"/>
				</g>
				<rect x="0" y="460.53" width="87.874" height="42.5197" class="st6"/>
				<text x="22.44" y="485.39" class="st7" v:langID="2052"><v:paragraph v:horizAlign="1"/><v:tabList/>builder.o</text>			</g>
			<g id="shape8-38" v:mID="8" v:groupContext="shape" transform="translate(175.748,-137.48)">
				<title>工作表.8</title>
				<desc>tester.o</desc>
				<v:textBlock v:margins="rect(4,4,4,4)" v:tabSpace="42.5197"/>
				<v:textRect cx="43.937" cy="481.789" width="87.88" height="42.5197"/>
				<g id="shadow8-39" v:groupContext="shadow" v:shadowOffsetX="2.12132" v:shadowOffsetY="-2.12132" v:shadowType="1"
						transform="matrix(1,0,0,1,2.12132,2.12132)" class="st4">
					<rect x="0" y="460.53" width="87.874" height="42.5197" class="st5"/>
				</g>
				<rect x="0" y="460.53" width="87.874" height="42.5197" class="st6"/>
				<text x="26.44" y="485.39" class="st7" v:langID="2052"><v:paragraph v:horizAlign="1"/><v:tabList/>tester.o</text>			</g>
			<g id="shape9-44" v:mID="9" v:groupContext="shape" transform="translate(175.748,-77.9528)">
				<title>工作表.9</title>
				<desc>stdlib 标准库</desc>
				<v:textBlock v:margins="rect(4,4,4,4)" v:tabSpace="42.5197"/>
				<v:textRect cx="43.937" cy="481.789" width="87.88" height="42.5197"/>
				<g id="shadow9-45" v:groupContext="shadow" v:shadowOffsetX="2.12132" v:shadowOffsetY="-2.12132" v:shadowType="1"
						transform="matrix(1,0,0,1,2.12132,2.12132)" class="st4">
					<rect x="0" y="460.53" width="87.874" height="42.5197" class="st5"/>
				</g>
				<rect x="0" y="460.53" width="87.874" height="42.5197" class="st6"/>
				<text x="30.6" y="477.49" class="st7" v:langID="2052"><v:paragraph v:horizAlign="1"/><v:tabList/>stdlib<v:newlineChar/><tspan
							x="25.94" dy="1.287em" class="st8">标准库</tspan></text>			</g>
			<g id="shape10-51" v:mID="10" v:groupContext="shape" transform="translate(175.748,-18.4252)">
				<title>工作表.10</title>
				<desc>others 其他链接库</desc>
				<v:textBlock v:margins="rect(4,4,4,4)" v:tabSpace="42.5197"/>
				<v:textRect cx="43.937" cy="481.789" width="87.88" height="42.5197"/>
				<g id="shadow10-52" v:groupContext="shadow" v:shadowOffsetX="2.12132" v:shadowOffsetY="-2.12132" v:shadowType="1"
						transform="matrix(1,0,0,1,2.12132,2.12132)" class="st4">
					<rect x="0" y="460.53" width="87.874" height="42.5197" class="st5"/>
				</g>
				<rect x="0" y="460.53" width="87.874" height="42.5197" class="st6"/>
				<text x="29.27" y="477.49" class="st7" v:langID="2052"><v:paragraph v:horizAlign="1"/><v:tabList/>others<v:newlineChar/><tspan
							x="13.94" dy="1.287em" class="st8">其他链接库</tspan></text>			</g>
			<g id="shape11-58" v:mID="11" v:groupContext="shape" transform="translate(351.496,-123.307)">
				<title>工作表.11</title>
				<desc>main</desc>
				<v:textBlock v:margins="rect(4,4,4,4)" v:tabSpace="42.5197"/>
				<v:textRect cx="43.937" cy="430.766" width="87.88" height="144.567"/>
				<g id="shadow11-59" v:groupContext="shadow" v:shadowOffsetX="2.12132" v:shadowOffsetY="-2.12132" v:shadowType="1"
						transform="matrix(1,0,0,1,2.12132,2.12132)" class="st4">
					<rect x="0" y="358.482" width="87.874" height="144.567" class="st5"/>
				</g>
				<rect x="0" y="358.482" width="87.874" height="144.567" class="st6"/>
				<text x="31.94" y="434.37" class="st7" v:langID="2052"><v:paragraph v:horizAlign="1"/><v:tabList/>main</text>			</g>
			<g id="shape19-64" v:mID="19" v:groupContext="shape" transform="translate(116.22,-342.992)">
				<title>工作表.19</title>
				<path d="M0 503.05 L49.72 503.05" class="st9"/>
			</g>
			<g id="shape20-70" v:mID="20" v:groupContext="shape" transform="translate(116.22,-265.039)">
				<title>工作表.20</title>
				<path d="M0 503.05 L49.72 503.05" class="st9"/>
			</g>
			<g id="shape21-75" v:mID="21" v:groupContext="shape" transform="translate(116.22,-158.74)">
				<title>工作表.21</title>
				<path d="M0 503.05 L49.72 503.05" class="st9"/>
			</g>
			<g id="shape22-80" v:mID="22" v:groupContext="shape" transform="translate(263.622,-158.74)">
				<title>工作表.22</title>
				<path d="M0 503.05 L18.43 503.05 L18.43 474.7 L78.06 474.7" class="st9"/>
			</g>
			<g id="shape23-85" v:mID="23" v:groupContext="shape" transform="translate(263.622,-231.024)">
				<title>工作表.23</title>
				<path d="M0 469.03 L19.1 469.03 L19.1 503.05 L78.06 503.05" class="st9"/>
			</g>
			<g id="shape24-90" v:mID="24" v:groupContext="shape" transform="translate(263.622,-254.223)">
				<title>工作表.24</title>
				<path d="M0 412.86 L44.46 412.86 L44.46 503.05 L78.06 503.05" class="st9"/>
			</g>
			<g id="shape25-95" v:mID="25" v:groupContext="shape" transform="translate(263.622,-99.2126)">
				<title>工作表.25</title>
				<path d="M0 503.05 L43.94 503.05 L43.94 436.44 L78.06 436.44" class="st9"/>
			</g>
			<g id="shape26-100" v:mID="26" v:groupContext="shape" transform="translate(263.622,-39.6851)">
				<title>工作表.26</title>
				<path d="M0 503.05 L66.61 503.05 L66.61 402.42 L78.06 402.42" class="st9"/>
			</g>
			<g id="shape32-105" v:mID="32" v:groupContext="shape" transform="translate(66.6142,-189.213)">
				<title>工作表.32</title>
				<desc>...</desc>
				<v:textBlock v:margins="rect(4,4,4,4)" v:tabSpace="42.5197" v:verticalText="true"/>
				<v:textRect cx="11.3386" cy="486.041" width="22.68" height="34.0158"/>
				<rect x="0" y="469.033" width="22.6772" height="34.0158" class="st11"/>
				<text x="13" y="481.54" writing-mode="tb-rl" class="st7" v:langID="2052"><v:paragraph v:horizAlign="1"/><v:tabList/>...</text>			</g>
			<g id="shape33-108" v:mID="33" v:groupContext="shape" transform="translate(208.346,-189.213)">
				<title>工作表.33</title>
				<desc>...</desc>
				<v:textBlock v:margins="rect(4,4,4,4)" v:tabSpace="42.5197" v:verticalText="true"/>
				<v:textRect cx="11.3386" cy="486.041" width="22.68" height="34.0158"/>
				<rect x="0" y="469.033" width="22.6772" height="34.0158" class="st11"/>
				<text x="13" y="481.54" writing-mode="tb-rl" class="st7" v:langID="2052"><v:paragraph v:horizAlign="1"/><v:tabList/>...</text>			</g>
			<g id="shape34-111" v:mID="34" v:groupContext="shape" transform="translate(53.1496,-368.504)">
				<title>工作表.34</title>
				<desc>源文件</desc>
				<v:textBlock v:margins="rect(4,4,4,4)" v:tabSpace="42.5197"/>
				<v:textRect cx="24.8031" cy="486.041" width="49.61" height="34.0158"/>
				<rect x="0" y="469.033" width="49.6063" height="34.0158" class="st11"/>
				<text x="6.8" y="489.99" class="st12" v:langID="2052"><v:paragraph v:horizAlign="1"/><v:tabList/>源文件</text>			</g>
			<g id="shape35-114" v:mID="35" v:groupContext="shape" transform="translate(205.157,-368.504)">
				<title>工作表.35</title>
				<desc>目标文件</desc>
				<v:textBlock v:margins="rect(4,4,4,4)" v:tabSpace="42.5197"/>
				<v:textRect cx="28.7008" cy="486.041" width="57.41" height="34.0158"/>
				<rect x="0" y="469.033" width="57.4016" height="34.0158" class="st11"/>
				<text x="4.7" y="489.99" class="st12" v:langID="2052"><v:paragraph v:horizAlign="1"/><v:tabList/>目标文件</text>			</g>
			<g id="shape38-117" v:mID="38" v:groupContext="shape" transform="translate(354.862,-367.087)">
				<title>工作表.38</title>
				<desc>可执行文件</desc>
				<v:textBlock v:margins="rect(4,4,4,4)" v:tabSpace="42.5197"/>
				<v:textRect cx="34.9016" cy="486.041" width="69.81" height="34.0158"/>
				<rect x="0" y="469.033" width="69.8031" height="34.0158" class="st11"/>
				<text x="4.9" y="489.99" class="st12" v:langID="2052"><v:paragraph v:horizAlign="1"/><v:tabList/>可执行文件</text>			</g>
			<g id="shape46-120" v:mID="46" v:groupContext="shape" transform="translate(96.513,-413.858)">
				<title>工作表.46</title>
				<path d="M0 503.05 A59.3926 22.6771 0 0 1 59.39 480.37 A59.3926 22.6771 0 0 1 117.04 497.6 L117.15 497.94"
						class="st13"/>
			</g>
			<g id="shape47-126" v:mID="47" v:groupContext="shape" transform="translate(252.418,-413.858)">
				<title>工作表.47</title>
				<path d="M0 503.05 A59.3926 22.6771 0 0 1 59.39 480.37 A59.3926 22.6771 0 0 1 117.04 497.6 L117.15 497.94"
						class="st13"/>
			</g>
			<g id="shape48-131" v:mID="48" v:groupContext="shape" transform="translate(113.386,-437.953)">
				<title>工作表.48</title>
				<desc>编译器</desc>
				<v:textBlock v:margins="rect(4,4,4,4)" v:tabSpace="42.5197"/>
				<v:textRect cx="42.5197" cy="488.876" width="85.04" height="28.3465"/>
				<rect x="0" y="474.703" width="85.0394" height="28.3465" class="st11"/>
				<text x="24.52" y="492.48" class="st12" v:langID="2052"><v:paragraph v:horizAlign="1"/><v:tabList/>编译器</text>			</g>
			<g id="shape50-134" v:mID="50" v:groupContext="shape" transform="translate(269.291,-437.953)">
				<title>工作表.50</title>
				<desc>链接器</desc>
				<v:textBlock v:margins="rect(4,4,4,4)" v:tabSpace="42.5197"/>
				<v:textRect cx="42.5197" cy="488.876" width="85.04" height="28.3465"/>
				<rect x="0" y="474.703" width="85.0394" height="28.3465" class="st11"/>
				<text x="24.52" y="492.48" class="st12" v:langID="2052"><v:paragraph v:horizAlign="1"/><v:tabList/>链接器</text>			</g>
		</g>
	</g>
</svg>
