<?xml version="1.0" encoding="UTF-8" standalone="no"?>
<!DOCTYPE svg PUBLIC "-//W3C//DTD SVG 1.1//EN" "http://www.w3.org/Graphics/SVG/1.1/DTD/svg11.dtd">
<!-- 由 Microsoft Visio, SVG Export 生成 DM-Composition-of-Relations.svg Page-1 -->
<svg xmlns="http://www.w3.org/2000/svg" xmlns:xlink="http://www.w3.org/1999/xlink" xmlns:ev="http://www.w3.org/2001/xml-events"
		xmlns:v="http://schemas.microsoft.com/visio/2003/SVGExtensions/" width="4.63809in" height="3.33305in"
		viewBox="0 0 333.942 239.98" xml:space="preserve" color-interpolation-filters="sRGB" class="st14">
	<v:documentProperties v:langID="2052" v:metric="true" v:viewMarkup="false">
		<v:userDefs>
			<v:ud v:nameU="msvNoAutoConnect" v:val="VT0(1):26"/>
		</v:userDefs>
	</v:documentProperties>

	<style type="text/css">
	<![CDATA[
		.st1 {fill:#ffffff;stroke:#000000;stroke-linecap:round;stroke-linejoin:round;stroke-width:0.75}
		.st2 {marker-end:url(#mrkr5-33);stroke:#31859b;stroke-linecap:round;stroke-linejoin:round;stroke-width:0.75}
		.st3 {fill:#31859b;fill-opacity:1;stroke:#31859b;stroke-opacity:1;stroke-width:0.18796992481203}
		.st4 {marker-end:url(#mrkr5-54);stroke:#789440;stroke-linecap:round;stroke-linejoin:round;stroke-width:0.75}
		.st5 {fill:#789440;fill-opacity:1;stroke:#789440;stroke-opacity:1;stroke-width:0.18796992481203}
		.st6 {marker-end:url(#mrkr13-70);stroke:#7e649e;stroke-linecap:round;stroke-linejoin:round;stroke-width:0.75}
		.st7 {fill:#7e649e;fill-opacity:1;stroke:#7e649e;stroke-opacity:1;stroke-width:0.22935779816514}
		.st8 {fill:none;stroke:none;stroke-linecap:round;stroke-linejoin:round;stroke-width:0.75}
		.st9 {fill:#31859b;font-family:Times New Roman;font-size:1.00001em}
		.st10 {baseline-shift:-32.4941%;font-size:0.649882em}
		.st11 {fill:#789440;font-family:Times New Roman;font-size:1.00001em}
		.st12 {fill:#7e649e;font-family:Times New Roman;font-size:1.00001em}
		.st13 {font-size:1em}
		.st14 {fill:none;fill-rule:evenodd;font-size:12px;overflow:visible;stroke-linecap:square;stroke-miterlimit:3}
	]]>
	</style>

	<defs id="Markers">
		<g id="lend5">
			<path d="M 2 1 L 0 0 L 1.98117 -0.993387 C 1.67173 -0.364515 1.67301 0.372641 1.98465 1.00043 " style="stroke:none"/>
		</g>
		<marker id="mrkr5-33" class="st3" v:arrowType="5" v:arrowSize="3" v:setback="9.31" refX="-9.31" orient="auto"
				markerUnits="strokeWidth" overflow="visible">
			<use xlink:href="#lend5" transform="scale(-5.32,-5.32) "/>
		</marker>
		<marker id="mrkr5-54" class="st5" v:arrowType="5" v:arrowSize="3" v:setback="9.31" refX="-9.31" orient="auto"
				markerUnits="strokeWidth" overflow="visible">
			<use xlink:href="#lend5" transform="scale(-5.32,-5.32) "/>
		</marker>
		<g id="lend13">
			<path d="M 3 1 L 0 0 L 3 -1 L 3 1 " style="stroke:none"/>
		</g>
		<marker id="mrkr13-70" class="st7" v:arrowType="13" v:arrowSize="2" v:setback="12.6" refX="-12.6" orient="auto"
				markerUnits="strokeWidth" overflow="visible">
			<use xlink:href="#lend13" transform="scale(-4.36,-4.36) "/>
		</marker>
	</defs>
	<g v:mID="0" v:index="1" v:groupContext="foregroundPage">
		<title>页-1</title>
		<v:pageProperties v:drawingScale="0.0393701" v:pageScale="0.0393701" v:drawingUnits="24" v:shadowOffsetX="8.50394"
				v:shadowOffsetY="-8.50394"/>
		<g id="group34-1" transform="translate(18.375,-28.3406)" v:mID="34" v:groupContext="group">
			<title>工作表.34</title>
			<g id="shape4-2" v:mID="4" v:groupContext="shape" transform="translate(-1.59872E-14,-2.68423)">
				<title>工作表.4</title>
				<path d="M66.22 95.93 C56.2 92.26 47.67 98.52 39.37 104.87 C28.34 113.33 17.73 121.96 11.1 132.61 C0.81 149.12 0.09
							 170.49 0.01 191.66 C-0.03 201.01 0.06 210.31 2.51 218.51 C4.72 225.91 8.87 232.42 15.04 236.4 C18.24
							 238.47 22 239.86 25.42 239.98 C42.5 240.59 51.07 209.56 57.98 188.08 C60.98 178.79 63.66 171.28 66.93
							 163.03 C77.1 137.38 92.94 104.54 66.22 95.93 Z" class="st1"/>
			</g>
			<g id="shape6-4" v:mID="6" v:groupContext="shape" transform="translate(113.157,-11.3927)">
				<title>工作表.6</title>
				<path d="M39.97 113.28 C31.3 110.19 22.09 114.67 15.28 121.34 C-0.99 137.27 -3.53 165.75 4.18 187.55 C9.1 201.43
							 18.18 212.59 24.58 226.02 C26.29 229.61 27.81 233.35 29.95 235.86 C31.98 238.25 34.57 239.53 37.11 239.98
							 C53.89 242.97 68.59 210 74.69 182.72 C77.22 171.41 78.27 161.09 76.12 152.3 C71.61 133.81 52.98 122.11
							 39.97 113.28 Z" class="st1"/>
			</g>
			<g id="shape7-6" v:mID="7" v:groupContext="shape" transform="translate(238.421,-0.865586)">
				<title>工作表.7</title>
				<path d="M10.39 105.77 C15.7 93.9 34.17 88.1 44.39 92.88 C55.69 98.18 56.9 116.44 56.92 132.61 C56.94 151.5 55.35
							 167.54 56.92 185.4 C57.98 197.49 60.5 210.4 56.92 221.19 C53.45 231.67 44.23 240.14 34.37 239.98 C27.77
							 239.87 20.88 235.89 16.48 230.14 C9.69 221.28 8.81 208.23 6.81 196.14 C4.21 180.4 -0.28 166.28 0.01
							 151.4 C0.34 134.56 6.78 116.75 10.39 105.77 Z" class="st1"/>
			</g>
			<g id="shape8-8" v:mID="8" v:groupContext="shape" transform="translate(49.8091,-115.422)">
				<title>工作表.8</title>
				<ellipse cx="3.04212" cy="236.848" rx="3.04212" ry="3.1316" class="st1"/>
			</g>
			<g id="shape9-10" v:mID="9" v:groupContext="shape" transform="translate(37.4309,-83.211)">
				<title>工作表.9</title>
				<ellipse cx="3.04212" cy="236.848" rx="3.04212" ry="3.1316" class="st1"/>
			</g>
			<g id="shape10-12" v:mID="10" v:groupContext="shape" transform="translate(24.7563,-47.4213)">
				<title>工作表.10</title>
				<ellipse cx="3.04212" cy="236.848" rx="3.04212" ry="3.1316" class="st1"/>
			</g>
			<g id="shape13-14" v:mID="13" v:groupContext="shape" transform="translate(148.753,-115.422)">
				<title>工作表.13</title>
				<ellipse cx="3.04212" cy="236.848" rx="3.04212" ry="3.1316" class="st1"/>
			</g>
			<g id="shape14-16" v:mID="14" v:groupContext="shape" transform="translate(148.753,-83.211)">
				<title>工作表.14</title>
				<ellipse cx="3.04212" cy="236.848" rx="3.04212" ry="3.1316" class="st1"/>
			</g>
			<g id="shape15-18" v:mID="15" v:groupContext="shape" transform="translate(156.641,-58.1582)">
				<title>工作表.15</title>
				<ellipse cx="3.04212" cy="236.848" rx="3.04212" ry="3.1316" class="st1"/>
			</g>
			<g id="shape16-20" v:mID="16" v:groupContext="shape" transform="translate(148.753,-28.6317)">
				<title>工作表.16</title>
				<ellipse cx="3.04212" cy="236.848" rx="3.04212" ry="3.1316" class="st1"/>
			</g>
			<g id="shape17-22" v:mID="17" v:groupContext="shape" transform="translate(264.764,-115.422)">
				<title>工作表.17</title>
				<ellipse cx="3.04212" cy="236.848" rx="3.04212" ry="3.1316" class="st1"/>
			</g>
			<g id="shape18-24" v:mID="18" v:groupContext="shape" transform="translate(264.764,-83.211)">
				<title>工作表.18</title>
				<ellipse cx="3.04212" cy="236.848" rx="3.04212" ry="3.1316" class="st1"/>
			</g>
			<g id="shape19-26" v:mID="19" v:groupContext="shape" transform="translate(271.168,-39.3686)">
				<title>工作表.19</title>
				<ellipse cx="3.04212" cy="236.848" rx="3.04212" ry="3.1316" class="st1"/>
			</g>
			<g id="shape20-28" v:mID="20" v:groupContext="shape" transform="translate(55.8917,-118.453)">
				<title>工作表.20</title>
				<path d="M0 239.98 L85.88 239.98" class="st2"/>
			</g>
			<g id="shape21-34" v:mID="21" v:groupContext="shape" transform="translate(128.45,-107.221) rotate(17.599)">
				<title>工作表.21</title>
				<path d="M0 239.98 L91.5 239.98" class="st2"/>
			</g>
			<g id="shape22-39" v:mID="22" v:groupContext="shape" transform="translate(42.9924,-84.5873)">
				<title>工作表.22</title>
				<path d="M0 239.98 L99.3 239.98" class="st2"/>
			</g>
			<g id="shape23-44" v:mID="23" v:groupContext="shape" transform="translate(12.2157,-51.1464) rotate(-4.38587)">
				<title>工作表.23</title>
				<path d="M0 239.98 L119.47 239.98" class="st2"/>
			</g>
			<g id="shape24-49" v:mID="24" v:groupContext="shape" transform="translate(154.782,-119.152)">
				<title>工作表.24</title>
				<path d="M0 239.98 L103.06 239.98" class="st4"/>
			</g>
			<g id="shape25-55" v:mID="25" v:groupContext="shape" transform="translate(199.283,-57.7727) rotate(8.78104)">
				<title>工作表.25</title>
				<path d="M0 239.98 L103.09 239.98" class="st4"/>
			</g>
			<g id="shape26-60" v:mID="26" v:groupContext="shape" transform="translate(51.2825,-8.91545) rotate(-25.5481)">
				<title>工作表.26</title>
				<path d="M0 239.98 L115.21 239.98" class="st4"/>
			</g>
			<g id="shape27-65" v:mID="27" v:groupContext="shape" transform="translate(55.8917,-118.453)">
				<title>工作表.27</title>
				<path d="M-0 239.98 A100.213 60.4957 0 0 1 100.21 179.48 A110.976 57.3541 0 0 1 209.6 227.16 L209.65 227.51"
						class="st6"/>
			</g>
			<g id="shape28-71" v:mID="28" v:groupContext="shape" transform="translate(29.7294,-5.68434E-14)">
				<title>工作表.28</title>
				<path d="M0 191.85 A151.428 48.1331 -180 0 0 151.43 239.98 A93.5235 39.492 -180 0 0 242.08 210 L242.18 209.66"
						class="st6"/>
			</g>
			<g id="shape30-76" v:mID="30" v:groupContext="shape" transform="translate(91.683,-118.453)">
				<title>工作表.30</title>
				<desc>R1</desc>
				<v:textBlock v:margins="rect(4,4,4,4)" v:tabSpace="42.5197"/>
				<v:textRect cx="10.7369" cy="232.995" width="21.48" height="13.9691"/>
				<rect x="0" y="226.011" width="21.4738" height="13.9691" class="st8"/>
				<text x="4.79" y="236.6" class="st9" v:langID="2052"><v:paragraph v:horizAlign="1"/><v:tabList/>R<tspan
							dy="-0.279em" class="st10" v:baseFontSize="12">1</tspan></text>			</g>
			<g id="shape31-80" v:mID="31" v:groupContext="shape" transform="translate(199.052,-118.453)">
				<title>工作表.31</title>
				<desc>R2</desc>
				<v:textBlock v:margins="rect(4,4,4,4)" v:tabSpace="42.5197"/>
				<v:textRect cx="10.7369" cy="232.995" width="21.48" height="13.9691"/>
				<rect x="0" y="226.011" width="21.4738" height="13.9691" class="st8"/>
				<text x="4.79" y="236.6" class="st11" v:langID="2052"><v:paragraph v:horizAlign="1"/><v:tabList/>R<tspan
							dy="-0.279em" class="st10" v:baseFontSize="12">2</tspan></text>			</g>
			<g id="shape32-84" v:mID="32" v:groupContext="shape" transform="translate(136.433,-178.948)">
				<title>工作表.32</title>
				<desc>R1◦ R2</desc>
				<v:textBlock v:margins="rect(4,4,4,4)" v:tabSpace="42.5197"/>
				<v:textRect cx="25.0528" cy="232.822" width="50.11" height="14.3159"/>
				<rect x="0" y="225.664" width="50.1055" height="14.3159" class="st8"/>
				<text x="9.52" y="236.42" class="st12" v:langID="2052"><v:paragraph v:horizAlign="1"/><v:tabList/>R<tspan
							dy="-0.279em" class="st10" v:baseFontSize="12">1</tspan><tspan dy="0.181em" class="st13">◦</tspan> R<tspan
							dy="-0.279em" class="st10" v:baseFontSize="12">2</tspan></text>			</g>
		</g>
	</g>
</svg>
