<?xml version="1.0" encoding="UTF-8" standalone="no"?>
<!DOCTYPE svg PUBLIC "-//W3C//DTD SVG 1.1//EN" "http://www.w3.org/Graphics/SVG/1.1/DTD/svg11.dtd">
<!-- 由 Microsoft Visio, SVG Export 生成 MIPS-CP0-SR-IM.svg Page-1 -->
<svg xmlns="http://www.w3.org/2000/svg" xmlns:xlink="http://www.w3.org/1999/xlink" xmlns:ev="http://www.w3.org/2001/xml-events"
		xmlns:v="http://schemas.microsoft.com/visio/2003/SVGExtensions/" width="6.14821in" height="2.9236in"
		viewBox="0 0 442.671 210.499" xml:space="preserve" color-interpolation-filters="sRGB" class="st7">
	<v:documentProperties v:langID="2052" v:metric="true" v:viewMarkup="false">
		<v:userDefs>
			<v:ud v:nameU="msvNoAutoConnect" v:val="VT0(1):26"/>
		</v:userDefs>
	</v:documentProperties>

	<style type="text/css">
	<![CDATA[
		.st1 {fill:#ffffff;stroke:#000000;stroke-linecap:round;stroke-linejoin:round;stroke-width:0.75}
		.st2 {fill:#000000;font-family:Times New Roman;font-size:1.00001em}
		.st3 {stroke:#000000;stroke-linecap:round;stroke-linejoin:round;stroke-width:0.75}
		.st4 {stroke:#00b050;stroke-linecap:round;stroke-linejoin:round;stroke-width:1.5}
		.st5 {fill:none;stroke:none;stroke-linecap:round;stroke-linejoin:round;stroke-width:0.75}
		.st6 {fill:#000000;font-family:Times New Roman;font-size:0.75em}
		.st7 {fill:none;fill-rule:evenodd;font-size:12px;overflow:visible;stroke-linecap:square;stroke-miterlimit:3}
	]]>
	</style>

	<g v:mID="0" v:index="1" v:groupContext="foregroundPage">
		<title>页-1</title>
		<v:pageProperties v:drawingScale="0.0393701" v:pageScale="0.0393701" v:drawingUnits="24" v:shadowOffsetX="8.50394"
				v:shadowOffsetY="-8.50394"/>
		<g id="group70-1" transform="translate(18.375,-18.375)" v:mID="70" v:groupContext="group">
			<title>工作表.70</title>
			<g id="group63-2" v:mID="63" v:groupContext="group">
				<title>工作表.63</title>
				<g id="shape1-3" v:mID="1" v:groupContext="shape" transform="translate(43.937,-142.568)">
					<title>工作表.1</title>
					<desc>1</desc>
					<v:textBlock v:margins="rect(4,4,4,4)" v:tabSpace="42.5197"/>
					<v:textRect cx="8.50394" cy="201.995" width="17.01" height="17.0079"/>
					<rect x="0" y="193.491" width="17.0079" height="17.0079" class="st1"/>
					<text x="5.5" y="205.6" class="st2" v:langID="2052"><v:paragraph v:horizAlign="1"/><v:tabList/>1</text>				</g>
				<g id="shape2-6" v:mID="2" v:groupContext="shape" transform="translate(60.9449,-142.568)">
					<title>工作表.2</title>
					<desc>0</desc>
					<v:textBlock v:margins="rect(4,4,4,4)" v:tabSpace="42.5197"/>
					<v:textRect cx="8.50394" cy="201.995" width="17.01" height="17.0079"/>
					<rect x="0" y="193.491" width="17.0079" height="17.0079" class="st1"/>
					<text x="5.5" y="205.6" class="st2" v:langID="2052"><v:paragraph v:horizAlign="1"/><v:tabList/>0</text>				</g>
				<g id="shape3-9" v:mID="3" v:groupContext="shape" transform="translate(77.9528,-142.568)">
					<title>工作表.3</title>
					<desc>0</desc>
					<v:textBlock v:margins="rect(4,4,4,4)" v:tabSpace="42.5197"/>
					<v:textRect cx="8.50394" cy="201.995" width="17.01" height="17.0079"/>
					<rect x="0" y="193.491" width="17.0079" height="17.0079" class="st1"/>
					<text x="5.5" y="205.6" class="st2" v:langID="2052"><v:paragraph v:horizAlign="1"/><v:tabList/>0</text>				</g>
				<g id="shape4-12" v:mID="4" v:groupContext="shape" transform="translate(94.9606,-142.568)">
					<title>工作表.4</title>
					<desc>0</desc>
					<v:textBlock v:margins="rect(4,4,4,4)" v:tabSpace="42.5197"/>
					<v:textRect cx="8.50394" cy="201.995" width="17.01" height="17.0079"/>
					<rect x="0" y="193.491" width="17.0079" height="17.0079" class="st1"/>
					<text x="5.5" y="205.6" class="st2" v:langID="2052"><v:paragraph v:horizAlign="1"/><v:tabList/>0</text>				</g>
				<g id="shape5-15" v:mID="5" v:groupContext="shape" transform="translate(111.969,-142.568)">
					<title>工作表.5</title>
					<desc>1</desc>
					<v:textBlock v:margins="rect(4,4,4,4)" v:tabSpace="42.5197"/>
					<v:textRect cx="8.50394" cy="201.995" width="17.01" height="17.0079"/>
					<rect x="0" y="193.491" width="17.0079" height="17.0079" class="st1"/>
					<text x="5.5" y="205.6" class="st2" v:langID="2052"><v:paragraph v:horizAlign="1"/><v:tabList/>1</text>				</g>
				<g id="shape6-18" v:mID="6" v:groupContext="shape" transform="translate(128.976,-142.568)">
					<title>工作表.6</title>
					<desc>1</desc>
					<v:textBlock v:margins="rect(4,4,4,4)" v:tabSpace="42.5197"/>
					<v:textRect cx="8.50394" cy="201.995" width="17.01" height="17.0079"/>
					<rect x="0" y="193.491" width="17.0079" height="17.0079" class="st1"/>
					<text x="5.5" y="205.6" class="st2" v:langID="2052"><v:paragraph v:horizAlign="1"/><v:tabList/>1</text>				</g>
				<g id="shape7-21" v:mID="7" v:groupContext="shape" transform="translate(145.984,-142.568)">
					<title>工作表.7</title>
					<desc>0</desc>
					<v:textBlock v:margins="rect(4,4,4,4)" v:tabSpace="42.5197"/>
					<v:textRect cx="8.50394" cy="201.995" width="17.01" height="17.0079"/>
					<rect x="0" y="193.491" width="17.0079" height="17.0079" class="st1"/>
					<text x="5.5" y="205.6" class="st2" v:langID="2052"><v:paragraph v:horizAlign="1"/><v:tabList/>0</text>				</g>
				<g id="shape8-24" v:mID="8" v:groupContext="shape" transform="translate(162.992,-142.568)">
					<title>工作表.8</title>
					<desc>0</desc>
					<v:textBlock v:margins="rect(4,4,4,4)" v:tabSpace="42.5197"/>
					<v:textRect cx="8.50394" cy="201.995" width="17.01" height="17.0079"/>
					<rect x="0" y="193.491" width="17.0079" height="17.0079" class="st1"/>
					<text x="5.5" y="205.6" class="st2" v:langID="2052"><v:paragraph v:horizAlign="1"/><v:tabList/>0</text>				</g>
				<g id="shape9-27" v:mID="9" v:groupContext="shape" transform="translate(5.84646,-117.623)">
					<title>工作表.9</title>
					<path d="M0 210.5 L38.09 210.5" class="st3"/>
				</g>
				<g id="shape10-30" v:mID="10" v:groupContext="shape" transform="translate(5.96039,-102.316) rotate(0.0310098)">
					<title>工作表.10</title>
					<path d="M0 210.5 L55.1 210.5" class="st4"/>
				</g>
				<g id="shape12-33" v:mID="12" v:groupContext="shape" transform="translate(5.84646,-85.8748)">
					<title>工作表.12</title>
					<path d="M0 210.5 L72.11 210.5" class="st3"/>
				</g>
				<g id="shape13-36" v:mID="13" v:groupContext="shape" transform="translate(5.84646,-70.5379)">
					<title>工作表.13</title>
					<path d="M0 210.5 L89.11 210.5" class="st4"/>
				</g>
				<g id="shape14-39" v:mID="14" v:groupContext="shape" transform="translate(5.84646,-55.559)">
					<title>工作表.14</title>
					<path d="M0 210.5 L106.12 210.5" class="st4"/>
				</g>
				<g id="shape15-42" v:mID="15" v:groupContext="shape" transform="translate(5.84646,-40.2221)">
					<title>工作表.15</title>
					<path d="M0 210.5 L123.04 210.5" class="st3"/>
				</g>
				<g id="shape16-45" v:mID="16" v:groupContext="shape" transform="translate(5.84646,-23.811)">
					<title>工作表.16</title>
					<path d="M0 210.5 L140.09 210.5" class="st4"/>
				</g>
				<g id="shape17-48" v:mID="17" v:groupContext="shape" transform="translate(5.84646,-8.4741)">
					<title>工作表.17</title>
					<path d="M0 210.5 L157.13 210.5" class="st3"/>
				</g>
				<g id="shape18-51" v:mID="18" v:groupContext="shape" transform="translate(43.937,-109.143)">
					<title>工作表.18</title>
					<desc>&#38;</desc>
					<v:textBlock v:margins="rect(4,4,4,4)" v:tabSpace="42.5197"/>
					<v:textRect cx="8.50394" cy="201.995" width="17.01" height="17.0079"/>
					<ellipse cx="8.50394" cy="201.995" rx="8.50394" ry="8.50394" class="st1"/>
					<text x="4" y="205.6" class="st2" v:langID="2052"><v:paragraph v:horizAlign="1"/><v:tabList/>&#38;</text>				</g>
				<g id="shape21-54" v:mID="21" v:groupContext="shape" transform="translate(60.9449,-93.7882)">
					<title>工作表.21</title>
					<desc>&#38;</desc>
					<v:textBlock v:margins="rect(4,4,4,4)" v:tabSpace="42.5197"/>
					<v:textRect cx="8.50394" cy="201.995" width="17.01" height="17.0079"/>
					<ellipse cx="8.50394" cy="201.995" rx="8.50394" ry="8.50394" class="st1"/>
					<text x="4" y="205.6" class="st2" v:langID="2052"><v:paragraph v:horizAlign="1"/><v:tabList/>&#38;</text>				</g>
				<g id="shape22-57" v:mID="22" v:groupContext="shape" transform="translate(77.9528,-77.3709)">
					<title>工作表.22</title>
					<desc>&#38;</desc>
					<v:textBlock v:margins="rect(4,4,4,4)" v:tabSpace="42.5197"/>
					<v:textRect cx="8.50394" cy="201.995" width="17.01" height="17.0079"/>
					<ellipse cx="8.50394" cy="201.995" rx="8.50394" ry="8.50394" class="st1"/>
					<text x="4" y="205.6" class="st2" v:langID="2052"><v:paragraph v:horizAlign="1"/><v:tabList/>&#38;</text>				</g>
				<g id="shape23-60" v:mID="23" v:groupContext="shape" transform="translate(94.9606,-62.1347)">
					<title>工作表.23</title>
					<desc>&#38;</desc>
					<v:textBlock v:margins="rect(4,4,4,4)" v:tabSpace="42.5197"/>
					<v:textRect cx="8.50394" cy="201.995" width="17.01" height="17.0079"/>
					<ellipse cx="8.50394" cy="201.995" rx="8.50394" ry="8.50394" class="st1"/>
					<text x="4" y="205.6" class="st2" v:langID="2052"><v:paragraph v:horizAlign="1"/><v:tabList/>&#38;</text>				</g>
				<g id="shape24-63" v:mID="24" v:groupContext="shape" transform="translate(111.969,-47.062)">
					<title>工作表.24</title>
					<desc>&#38;</desc>
					<v:textBlock v:margins="rect(4,4,4,4)" v:tabSpace="42.5197"/>
					<v:textRect cx="8.50394" cy="201.995" width="17.01" height="17.0079"/>
					<ellipse cx="8.50394" cy="201.995" rx="8.50394" ry="8.50394" class="st1"/>
					<text x="4" y="205.6" class="st2" v:langID="2052"><v:paragraph v:horizAlign="1"/><v:tabList/>&#38;</text>				</g>
				<g id="shape25-66" v:mID="25" v:groupContext="shape" transform="translate(128.976,-31.6764)">
					<title>工作表.25</title>
					<desc>&#38;</desc>
					<v:textBlock v:margins="rect(4,4,4,4)" v:tabSpace="42.5197"/>
					<v:textRect cx="8.50394" cy="201.995" width="17.01" height="17.0079"/>
					<ellipse cx="8.50394" cy="201.995" rx="8.50394" ry="8.50394" class="st1"/>
					<text x="4" y="205.6" class="st2" v:langID="2052"><v:paragraph v:horizAlign="1"/><v:tabList/>&#38;</text>				</g>
				<g id="shape26-69" v:mID="26" v:groupContext="shape" transform="translate(145.984,-15.3071)">
					<title>工作表.26</title>
					<desc>&#38;</desc>
					<v:textBlock v:margins="rect(4,4,4,4)" v:tabSpace="42.5197"/>
					<v:textRect cx="8.50394" cy="201.995" width="17.01" height="17.0079"/>
					<ellipse cx="8.50394" cy="201.995" rx="8.50394" ry="8.50394" class="st1"/>
					<text x="4" y="205.6" class="st2" v:langID="2052"><v:paragraph v:horizAlign="1"/><v:tabList/>&#38;</text>				</g>
				<g id="shape27-72" v:mID="27" v:groupContext="shape" transform="translate(162.992,-2.84217E-14)">
					<title>工作表.27</title>
					<desc>&#38;</desc>
					<v:textBlock v:margins="rect(4,4,4,4)" v:tabSpace="42.5197"/>
					<v:textRect cx="8.50394" cy="201.995" width="17.01" height="17.0079"/>
					<ellipse cx="8.50394" cy="201.995" rx="8.50394" ry="8.50394" class="st1"/>
					<text x="4" y="205.6" class="st2" v:langID="2052"><v:paragraph v:horizAlign="1"/><v:tabList/>&#38;</text>				</g>
				<g id="shape28-75" v:mID="28" v:groupContext="shape" transform="translate(262.94,67.9311) rotate(90)">
					<title>工作表.28</title>
					<path d="M0 210.5 L16.42 210.5" class="st3"/>
				</g>
				<g id="shape29-78" v:mID="29" v:groupContext="shape" transform="translate(279.948,67.9311) rotate(90)">
					<title>工作表.29</title>
					<path d="M0 210.5 L31.77 210.5" class="st3"/>
				</g>
				<g id="shape30-81" v:mID="30" v:groupContext="shape" transform="translate(296.956,67.9311) rotate(90)">
					<title>工作表.30</title>
					<path d="M0 210.5 L48.19 210.5" class="st3"/>
				</g>
				<g id="shape31-84" v:mID="31" v:groupContext="shape" transform="translate(313.963,67.9311) rotate(90)">
					<title>工作表.31</title>
					<path d="M0 210.5 L63.43 210.5" class="st3"/>
				</g>
				<g id="shape32-87" v:mID="32" v:groupContext="shape" transform="translate(330.971,67.9311) rotate(90)">
					<title>工作表.32</title>
					<path d="M0 210.5 L78.5 210.5" class="st3"/>
				</g>
				<g id="shape33-90" v:mID="33" v:groupContext="shape" transform="translate(347.979,67.9311) rotate(90)">
					<title>工作表.33</title>
					<path d="M0 210.5 L93.88 210.5" class="st3"/>
				</g>
				<g id="shape34-93" v:mID="34" v:groupContext="shape" transform="translate(364.987,67.9311) rotate(90)">
					<title>工作表.34</title>
					<path d="M0 210.5 L110.25 210.5" class="st3"/>
				</g>
				<g id="shape35-96" v:mID="35" v:groupContext="shape" transform="translate(381.995,67.9311) rotate(90)">
					<title>工作表.35</title>
					<path d="M0 210.5 L125.56 210.5" class="st3"/>
				</g>
				<g id="shape36-99" v:mID="36" v:groupContext="shape" transform="translate(43.937,-159.576)">
					<title>工作表.36</title>
					<desc>IM (SR[15:8])</desc>
					<v:textBlock v:margins="rect(4,4,4,4)" v:tabSpace="42.5197"/>
					<v:textRect cx="68.0315" cy="203.412" width="136.07" height="14.1732"/>
					<rect x="0" y="196.326" width="136.063" height="14.1732" class="st5"/>
					<text x="31.7" y="207.01" class="st2" v:langID="2052"><v:paragraph v:horizAlign="1"/><v:tabList/>IM  (SR[15:8])</text>				</g>
				<g id="shape38-102" v:mID="38" v:groupContext="shape" transform="translate(60.9449,-117.623)">
					<title>工作表.38</title>
					<path d="M0 210.5 L144.67 210.5" class="st3"/>
				</g>
				<g id="shape39-105" v:mID="39" v:groupContext="shape" transform="translate(78.0667,-102.316) rotate(0.0310098)">
					<title>工作表.39</title>
					<path d="M0 210.5 L127.66 210.5" class="st3"/>
				</g>
				<g id="shape40-108" v:mID="40" v:groupContext="shape" transform="translate(94.9606,-85.8748) rotate(3.24856E-06)">
					<title>工作表.40</title>
					<path d="M0 210.5 L110.65 210.5" class="st3"/>
				</g>
				<g id="shape41-111" v:mID="41" v:groupContext="shape" transform="translate(111.969,-70.5379)">
					<title>工作表.41</title>
					<path d="M0 210.5 L116.21 210.5" class="st3"/>
				</g>
				<g id="shape42-114" v:mID="42" v:groupContext="shape" transform="translate(128.976,-55.559)">
					<title>工作表.42</title>
					<path d="M0 210.5 L99.32 210.5" class="st4"/>
				</g>
				<g id="shape43-117" v:mID="43" v:groupContext="shape" transform="translate(146.256,-40.2221)">
					<title>工作表.43</title>
					<path d="M0 210.5 L59.36 210.5" class="st3"/>
				</g>
				<g id="shape44-120" v:mID="44" v:groupContext="shape" transform="translate(163.214,-23.811)">
					<title>工作表.44</title>
					<path d="M0 210.5 L42.4 210.5" class="st3"/>
				</g>
				<g id="shape45-123" v:mID="45" v:groupContext="shape" transform="translate(180.192,-8.4741)">
					<title>工作表.45</title>
					<path d="M0 210.5 L25.42 210.5" class="st3"/>
				</g>
				<g id="shape48-126" v:mID="48" v:groupContext="shape" transform="translate(226.772,-43.3551)">
					<title>工作表.48</title>
					<desc>OR</desc>
					<v:textBlock v:margins="rect(4,4,4,4)" v:tabSpace="42.5197"/>
					<v:textRect cx="19.8425" cy="190.656" width="39.69" height="39.685"/>
					<ellipse cx="19.8425" cy="190.656" rx="19.8425" ry="19.8425" class="st1"/>
					<text x="11.51" y="194.26" class="st2" v:langID="2052"><v:paragraph v:horizAlign="1"/><v:tabList/>OR</text>				</g>
				<g id="shape53-129" v:mID="53" v:groupContext="shape" transform="translate(281.387,-71.7635) rotate(21.0986)">
					<title>工作表.53</title>
					<path d="M0 210.5 L27.63 210.5" class="st3"/>
				</g>
				<g id="shape54-132" v:mID="54" v:groupContext="shape" transform="translate(129.839,-26.1108) rotate(-21.0986)">
					<title>工作表.54</title>
					<path d="M0 210.5 L27.63 210.5" class="st3"/>
				</g>
				<g id="shape55-135" v:mID="55" v:groupContext="shape" transform="translate(322.6,-66.7442) rotate(33.7632)">
					<title>工作表.55</title>
					<path d="M0 210.5 L38.46 210.5" class="st3"/>
				</g>
				<g id="shape56-138" v:mID="56" v:groupContext="shape" transform="translate(88.6258,11.6914) rotate(-33.7632)">
					<title>工作表.56</title>
					<path d="M0 210.5 L38.46 210.5" class="st3"/>
				</g>
				<g id="shape57-141" v:mID="57" v:groupContext="shape" transform="translate(343.582,-66.1028) rotate(40.953)">
					<title>工作表.57</title>
					<path d="M0 210.5 L52.81 210.5" class="st3"/>
				</g>
				<g id="shape58-144" v:mID="58" v:groupContext="shape" transform="translate(68.9838,41.8929) rotate(-40.4718)">
					<title>工作表.58</title>
					<path d="M0 210.5 L53.74 210.5" class="st3"/>
				</g>
				<g id="shape59-147" v:mID="59" v:groupContext="shape" transform="translate(266.456,-63.3217)">
					<title>工作表.59</title>
					<path d="M0 210.5 L24.48 210.5" class="st4"/>
				</g>
				<g id="shape60-150" v:mID="60" v:groupContext="shape" transform="translate(287.717,-56.1111)">
					<title>工作表.60</title>
					<desc>Interrupt Signal(1-bit)</desc>
					<v:textBlock v:margins="rect(4,4,4,4)" v:tabSpace="42.5197"/>
					<v:textRect cx="59.1024" cy="203.412" width="118.21" height="14.1732"/>
					<rect x="0" y="196.326" width="118.205" height="14.1732" class="st5"/>
					<text x="5.95" y="207.01" class="st2" v:langID="2052"><v:paragraph v:horizAlign="1"/><v:tabList/>Interrupt Signal(1-bit)</text>				</g>
				<g id="shape61-153" v:mID="61" v:groupContext="shape" transform="translate(174.357,237.564) rotate(135)">
					<title>工作表.61</title>
					<path d="M0 210.5 L12.03 210.5" class="st3"/>
				</g>
				<g id="shape62-156" v:mID="62" v:groupContext="shape" transform="translate(7.99361E-15,-117.578)">
					<title>工作表.62</title>
					<desc>1-bit</desc>
					<v:textBlock v:margins="rect(4,4,4,4)" v:tabSpace="42.5197"/>
					<v:textRect cx="13.4646" cy="206.213" width="26.93" height="8.57231"/>
					<rect x="0" y="201.927" width="26.9291" height="8.57231" class="st5"/>
					<text x="4.97" y="208.91" class="st6" v:langID="2052"><v:paragraph v:horizAlign="1"/><v:tabList/>1-bit</text>				</g>
			</g>
			<g id="shape64-159" v:mID="64" v:groupContext="shape" transform="translate(43.937,261.422) rotate(180)">
				<title>工作表.64</title>
				<path d="M0 210.5 L29.76 210.5" class="st3"/>
			</g>
			<g id="shape65-162" v:mID="65" v:groupContext="shape" transform="translate(43.937,278.43) rotate(180)">
				<title>工作表.65</title>
				<path d="M0 210.5 L29.76 210.5" class="st3"/>
			</g>
			<g id="shape66-165" v:mID="66" v:groupContext="shape" transform="translate(209.764,261.422) rotate(180)">
				<title>工作表.66</title>
				<path d="M0 210.5 L29.76 210.5" class="st3"/>
			</g>
			<g id="shape67-168" v:mID="67" v:groupContext="shape" transform="translate(209.764,278.43) rotate(180)">
				<title>工作表.67</title>
				<path d="M0 210.5 L29.76 210.5" class="st3"/>
			</g>
			<g id="shape68-171" v:mID="68" v:groupContext="shape" transform="translate(17.0079,-149.783)">
				<title>工作表.68</title>
				<desc>...</desc>
				<v:textBlock v:margins="rect(4,4,4,4)" v:tabSpace="42.5197"/>
				<v:textRect cx="11.3386" cy="206.376" width="22.68" height="8.24624"/>
				<rect x="0" y="202.253" width="22.6772" height="8.24624" class="st5"/>
				<text x="6.84" y="209.98" class="st2" v:langID="2052"><v:paragraph v:horizAlign="1"/><v:tabList/>...</text>			</g>
			<g id="shape69-174" v:mID="69" v:groupContext="shape" transform="translate(184.252,-149.783)">
				<title>工作表.69</title>
				<desc>...</desc>
				<v:textBlock v:margins="rect(4,4,4,4)" v:tabSpace="42.5197"/>
				<v:textRect cx="11.3386" cy="206.376" width="22.68" height="8.24624"/>
				<rect x="0" y="202.253" width="22.6772" height="8.24624" class="st5"/>
				<text x="6.84" y="209.98" class="st2" v:langID="2052"><v:paragraph v:horizAlign="1"/><v:tabList/>...</text>			</g>
		</g>
	</g>
</svg>
