<?xml version="1.0" encoding="UTF-8" standalone="no"?>
<!DOCTYPE svg PUBLIC "-//W3C//DTD SVG 1.1//EN" "http://www.w3.org/Graphics/SVG/1.1/DTD/svg11.dtd">
<!-- 由 Microsoft Visio, SVG Export 生成 MIPS-MicroSys.svg Page-1 -->
<svg xmlns="http://www.w3.org/2000/svg" xmlns:xlink="http://www.w3.org/1999/xlink" xmlns:ev="http://www.w3.org/2001/xml-events"
		xmlns:v="http://schemas.microsoft.com/visio/2003/SVGExtensions/" width="12.7997in" height="7.00242in"
		viewBox="0 0 921.576 504.174" xml:space="preserve" color-interpolation-filters="sRGB" class="st23">
	<v:documentProperties v:langID="2052" v:metric="true" v:viewMarkup="false">
		<v:userDefs>
			<v:ud v:nameU="msvNoAutoConnect" v:val="VT0(1):26"/>
		</v:userDefs>
	</v:documentProperties>

	<style type="text/css">
	<![CDATA[
		.st1 {fill:#ffffff;stroke:#000000;stroke-linecap:round;stroke-linejoin:round;stroke-width:1.5}
		.st2 {fill:#000000;font-family:Times New Roman;font-size:1.99999em;font-weight:bold}
		.st3 {fill:#ffffff;stroke:#000000;stroke-linecap:round;stroke-linejoin:round;stroke-width:0.75}
		.st4 {fill:#000000;font-family:Times New Roman;font-size:1.5em;font-weight:bold}
		.st5 {fill:#000000;font-family:Times New Roman;font-size:1.00001em;font-weight:bold}
		.st6 {fill:none;stroke:none;stroke-linecap:round;stroke-linejoin:round;stroke-width:0.75}
		.st7 {fill:#000000;font-family:Times New Roman;font-size:0.75em;font-weight:bold}
		.st8 {stroke:#000000;stroke-linecap:round;stroke-linejoin:round;stroke-width:0.75}
		.st9 {fill:#000000;font-family:Times New Roman;font-size:0.833336em;font-weight:bold}
		.st10 {marker-end:url(#mrkr5-99);stroke:#000000;stroke-linecap:round;stroke-linejoin:round;stroke-width:0.75}
		.st11 {fill:#000000;fill-opacity:1;stroke:#000000;stroke-opacity:1;stroke-width:0.34246575342466}
		.st12 {fill:#000000;font-family:Times New Roman;font-size:0.75em}
		.st13 {marker-start:url(#mrkr5-206);stroke:#000000;stroke-linecap:round;stroke-linejoin:round;stroke-width:0.75}
		.st14 {fill:#b7dde8;stroke:#000000;stroke-linecap:round;stroke-linejoin:round;stroke-width:1.5}
		.st15 {fill:#7e649e;fill-opacity:0.4;stroke:#000000;stroke-linecap:round;stroke-linejoin:round;stroke-width:1.5}
		.st16 {fill:#000000;font-family:Times New Roman;font-size:1.16666em;font-weight:bold}
		.st17 {fill:#f59d56;fill-opacity:0.4;stroke:#000000;stroke-linecap:round;stroke-linejoin:round;stroke-width:1.5}
		.st18 {fill:#ffc000;fill-opacity:0.4;stroke:#000000;stroke-linecap:round;stroke-linejoin:round;stroke-width:1.5}
		.st19 {fill:none;stroke:#000000;stroke-linecap:round;stroke-linejoin:round;stroke-width:1.5}
		.st20 {fill:#7f7f7f;fill-opacity:0.4;stroke:#000000;stroke-linecap:round;stroke-linejoin:round;stroke-width:2.25}
		.st21 {fill:#000000;font-family:Times New Roman;font-size:2.50001em;font-weight:bold}
		.st22 {fill:#d9958f;fill-opacity:0.4;stroke:#000000;stroke-linecap:round;stroke-linejoin:round;stroke-width:2.25}
		.st23 {fill:none;fill-rule:evenodd;font-size:12px;overflow:visible;stroke-linecap:square;stroke-miterlimit:3}
	]]>
	</style>

	<defs id="Markers">
		<g id="lend5">
			<path d="M 2 1 L 0 0 L 1.98117 -0.993387 C 1.67173 -0.364515 1.67301 0.372641 1.98465 1.00043 " style="stroke:none"/>
		</g>
		<marker id="mrkr5-99" class="st11" v:arrowType="5" v:arrowSize="0" v:setback="5.11" refX="-5.11" orient="auto"
				markerUnits="strokeWidth" overflow="visible">
			<use xlink:href="#lend5" transform="scale(-2.92,-2.92) "/>
		</marker>
		<marker id="mrkr5-206" class="st11" v:arrowType="5" v:arrowSize="0" v:setback="4.63" refX="4.63" orient="auto"
				markerUnits="strokeWidth" overflow="visible">
			<use xlink:href="#lend5" transform="scale(2.92) "/>
		</marker>
	</defs>
	<g v:mID="0" v:index="1" v:groupContext="foregroundPage">
		<title>页-1</title>
		<v:pageProperties v:drawingScale="0.0393701" v:pageScale="0.0393701" v:drawingUnits="24" v:shadowOffsetX="8.50394"
				v:shadowOffsetY="-8.50394"/>
		<g id="group1145-1" transform="translate(18.75,-18.75)" v:mID="1145" v:groupContext="group">
			<title>工作表.1145</title>
			<g id="shape2-2" v:mID="2" v:groupContext="shape" transform="translate(487.205,-71.0625)">
				<title>工作表.2</title>
				<desc>CP0</desc>
				<v:textBlock v:margins="rect(4,4,4,4)" v:tabSpace="42.5197"/>
				<v:textRect cx="26.0787" cy="477.867" width="52.16" height="52.615"/>
				<rect x="0" y="451.559" width="52.1575" height="52.615" class="st1"/>
				<text x="4.08" y="485.07" class="st2" v:langID="2052"><v:paragraph v:horizAlign="1"/><v:tabList/>CP0</text>			</g>
			<g id="shape3-5" v:mID="3" v:groupContext="shape" transform="translate(591.732,-88.8661)">
				<title>工作表.3</title>
				<rect x="0" y="284.489" width="14.1732" height="219.685" class="st3"/>
			</g>
			<g id="shape4-7" v:mID="4" v:groupContext="shape" transform="translate(438.094,-112.961)">
				<title>工作表.4</title>
				<rect x="0" y="308.584" width="14.1732" height="195.591" class="st3"/>
			</g>
			<g id="shape5-9" v:mID="5" v:groupContext="shape" transform="translate(315.354,-168.236)">
				<title>工作表.5</title>
				<rect x="0" y="363.859" width="14.1732" height="140.315" class="st3"/>
			</g>
			<g id="shape6-11" v:mID="6" v:groupContext="shape" transform="translate(205.512,-168.236)">
				<title>工作表.6</title>
				<rect x="0" y="363.859" width="14.1732" height="140.315" class="st3"/>
			</g>
			<g id="shape1000-13" v:mID="1000" v:groupContext="shape" transform="translate(133.937,-217.134)">
				<title>工作表.1000</title>
				<desc>PC</desc>
				<v:textBlock v:margins="rect(4,4,4,4)" v:tabSpace="42.5197"/>
				<v:textRect cx="18.4252" cy="475.828" width="36.86" height="56.6929"/>
				<rect x="0" y="447.481" width="36.8504" height="56.6929" class="st1"/>
				<text x="6.43" y="481.23" class="st4" v:langID="2052"><v:paragraph v:horizAlign="1"/><v:tabList/>PC</text>			</g>
			<g id="shape1001-16" v:mID="1001" v:groupContext="shape" transform="translate(240.945,-210.756)">
				<title>工作表.1001</title>
				<desc>GRF</desc>
				<v:textBlock v:margins="rect(4,4,4,4)" v:tabSpace="42.5197"/>
				<v:textRect cx="26.0787" cy="468.741" width="52.16" height="70.8662"/>
				<rect x="0" y="433.308" width="52.1575" height="70.8662" class="st1"/>
				<text x="7.08" y="474.14" class="st4" v:langID="2052"><v:paragraph v:horizAlign="1"/><v:tabList/>GRF</text>			</g>
			<g id="shape1002-19" v:mID="1002" v:groupContext="shape" transform="translate(242.532,-117.213)">
				<title>工作表.1002</title>
				<desc>NPC</desc>
				<v:textBlock v:margins="rect(4,4,4,4)" v:tabSpace="42.5197"/>
				<v:textRect cx="17.2772" cy="485.395" width="34.56" height="37.5591"/>
				<rect x="0" y="466.615" width="34.5543" height="37.5591" class="st1"/>
				<text x="4.95" y="488.99" class="st5" v:langID="2052"><v:paragraph v:horizAlign="1"/><v:tabList/>NPC</text>			</g>
			<g id="group1007-22" transform="translate(370.913,-222.094)" v:mID="1007" v:groupContext="group">
				<title>工作表.1007</title>
				<g id="shape1005-23" v:mID="1005" v:groupContext="shape">
					<title>工作表.1005</title>
					<path d="M0 441.81 L0 467.32 L21.26 472.99 L0 478.66 L0 504.17 L41.39 497.37 L41.39 448.82 L0 441.81 Z"
							class="st1"/>
				</g>
				<g id="shape1006-25" v:mID="1006" v:groupContext="shape" transform="translate(-464.773,492.836) rotate(-90)">
					<title>工作表.1006</title>
					<desc>ALU</desc>
					<v:textBlock v:margins="rect(4,4,4,4)" v:tabSpace="42.5197"/>
					<v:textRect cx="18.7795" cy="495.878" width="37.56" height="16.5916"/>
					<rect x="0" y="487.583" width="37.5591" height="16.5916" class="st6"/>
					<text x="6.11" y="499.48" class="st5" v:langID="2052"><v:paragraph v:horizAlign="1"/><v:tabList/>ALU</text>				</g>
			</g>
			<g id="group1008-28" transform="translate(241.087,-183.513)" v:mID="1008" v:groupContext="group">
				<title>工作表.1008</title>
				<g id="shape1003-29" v:mID="1003" v:groupContext="shape">
					<title>工作表.1003</title>
					<path d="M0 492.25 L0 504.17 L52.11 504.17 L52.11 484.41 L0 492.25 Z" class="st1"/>
				</g>
				<g id="shape1004-31" v:mID="1004" v:groupContext="shape" transform="translate(12.3307,0)">
					<title>工作表.1004</title>
					<desc>EXT</desc>
					<v:textBlock v:margins="rect(4,4,4,4)" v:tabSpace="42.5197"/>
					<v:textRect cx="13.6063" cy="497.311" width="27.22" height="13.726"/>
					<rect x="0" y="490.448" width="27.2126" height="13.726" class="st6"/>
					<text x="4.35" y="500.01" class="st7" v:langID="2052"><v:paragraph v:horizAlign="1"/><v:tabList/>EXT</text>				</g>
			</g>
			<g id="shape1009-34" v:mID="1009" v:groupContext="shape" transform="translate(367.228,-118.63)">
				<title>工作表.1009</title>
				<desc>MDU</desc>
				<v:textBlock v:margins="rect(4,4,4,4)" v:tabSpace="42.5197"/>
				<v:textRect cx="26.0787" cy="475.828" width="52.16" height="56.6929"/>
				<rect x="0" y="447.481" width="52.1575" height="56.6929" class="st1"/>
				<text x="4.59" y="481.23" class="st4" v:langID="2052"><v:paragraph v:horizAlign="1"/><v:tabList/>MDU</text>			</g>
			<g id="shape1010-37" v:mID="1010" v:groupContext="shape" transform="translate(474.661,-243.685)">
				<title>工作表.1010</title>
				<desc>BE</desc>
				<v:textBlock v:margins="rect(4,4,4,4)" v:tabSpace="42.5197"/>
				<v:textRect cx="16.7244" cy="494.584" width="33.45" height="19.1811"/>
				<rect x="0" y="484.993" width="33.4488" height="19.1811" class="st1"/>
				<text x="4.72" y="499.98" class="st4" v:langID="2052"><v:paragraph v:horizAlign="1"/><v:tabList/>BE</text>			</g>
			<g id="shape1011-40" v:mID="1011" v:groupContext="shape" transform="translate(537.874,-243.685)">
				<title>工作表.1011</title>
				<desc>DBS</desc>
				<v:textBlock v:margins="rect(4,4,4,4)" v:tabSpace="42.5197"/>
				<v:textRect cx="22.3937" cy="494.584" width="44.79" height="19.1811"/>
				<rect x="0" y="484.993" width="44.7874" height="19.1811" class="st1"/>
				<text x="4.89" y="499.98" class="st4" v:langID="2052"><v:paragraph v:horizAlign="1"/><v:tabList/>DBS</text>			</g>
			<g id="shape1012-43" v:mID="1012" v:groupContext="shape" transform="translate(170.787,-246.189)">
				<title>工作表.1012</title>
				<path d="M0 504.17 L8.86 504.17 L8.86 427.36" class="st8"/>
			</g>
			<g id="shape1013-46" v:mID="1013" v:groupContext="shape" transform="translate(194.882,-246.189)">
				<title>工作表.1013</title>
				<path d="M0 427.36 L0 504.17 L10.63 504.17" class="st8"/>
			</g>
			<g id="shape1015-49" v:mID="1015" v:groupContext="shape" transform="translate(219.685,-246.189)">
				<title>工作表.1015</title>
				<path d="M0 504.17 L6.38 504.17 L6.38 454.57" class="st8"/>
			</g>
			<g id="shape1020-52" v:mID="1020" v:groupContext="shape" transform="translate(293.199,-192.201)">
				<title>工作表.1020</title>
				<path d="M0 504.17 L22.15 504.17" class="st8"/>
			</g>
			<g id="shape1022-55" v:mID="1022" v:groupContext="shape" transform="translate(329.528,-273.118)">
				<title>工作表.1022</title>
				<path d="M0 504.17 L41.39 504.17" class="st8"/>
			</g>
			<g id="shape1023-58" v:mID="1023" v:groupContext="shape" transform="translate(329.528,-233.433)">
				<title>工作表.1023</title>
				<path d="M0 504.17 L41.39 504.17" class="st8"/>
			</g>
			<g id="shape1024-61" v:mID="1024" v:groupContext="shape" transform="translate(315.354,735.23) rotate(180)">
				<title>工作表.1024</title>
				<path d="M0 504.17 L22.25 504.17" class="st8"/>
			</g>
			<g id="shape1025-64" v:mID="1025" v:groupContext="shape" transform="translate(315.354,774.915) rotate(180)">
				<title>工作表.1025</title>
				<path d="M0 504.17 L22.25 504.17" class="st8"/>
			</g>
			<g id="shape1026-67" v:mID="1026" v:groupContext="shape" transform="translate(240.945,735.23) rotate(180)">
				<title>工作表.1026</title>
				<path d="M0 504.17 L14.88 504.17" class="st8"/>
			</g>
			<g id="shape1027-70" v:mID="1027" v:groupContext="shape" transform="translate(240.945,774.915) rotate(180)">
				<title>工作表.1027</title>
				<path d="M0 504.17 L14.88 504.17" class="st8"/>
			</g>
			<g id="shape1028-73" v:mID="1028" v:groupContext="shape" transform="translate(288.425,-126.78)">
				<title>工作表.1028</title>
				<desc>CMP</desc>
				<v:textBlock v:margins="rect(4,4,4,4)" v:tabSpace="42.5197"/>
				<v:textRect cx="15.5906" cy="494.962" width="31.19" height="18.4252"/>
				<ellipse cx="15.5906" cy="494.962" rx="15.5906" ry="9.2126" class="st3"/>
				<text x="4.21" y="497.96" class="st9" v:langID="2052"><v:paragraph v:horizAlign="1"/><v:tabList/>CMP</text>			</g>
			<g id="shape1029-76" v:mID="1029" v:groupContext="shape" transform="translate(801.103,231.056) rotate(90)">
				<title>工作表.1029</title>
				<path d="M0 504.17 L128.92 504.17" class="st8"/>
			</g>
			<g id="shape1030-79" v:mID="1030" v:groupContext="shape" transform="translate(-193.486,359.856) rotate(-90)">
				<title>工作表.1030</title>
				<path d="M0 504.17 L89.11 504.17" class="st8"/>
			</g>
			<g id="shape1031-82" v:mID="1031" v:groupContext="shape" transform="translate(277.087,-135.638)">
				<title>工作表.1031</title>
				<path d="M0 504.17 L11.35 504.17" class="st8"/>
			</g>
			<g id="shape1032-85" v:mID="1032" v:groupContext="shape" transform="translate(350.787,-155.764)">
				<title>工作表.1032</title>
				<path d="M0 386.82 L0 504.17 L16.44 504.17" class="st8"/>
			</g>
			<g id="shape1033-88" v:mID="1033" v:groupContext="shape" transform="translate(343.701,-127.134)">
				<title>工作表.1033</title>
				<path d="M0 397.87 L0 504.17 L23.53 504.17" class="st8"/>
			</g>
			<g id="shape1034-91" v:mID="1034" v:groupContext="shape" transform="translate(350.787,-142.016)">
				<title>工作表.1034</title>
				<path d="M0 466.62 L0 504.17 L16.44 504.17" class="st8"/>
			</g>
			<g id="shape1035-94" v:mID="1035" v:groupContext="shape" transform="translate(737.324,231.056) rotate(90)">
				<title>工作表.1035</title>
				<path d="M0 504.17 L35.85 504.17" class="st10"/>
			</g>
			<g id="shape1036-100" v:mID="1036" v:groupContext="shape" transform="translate(329.528,-192.201)">
				<title>工作表.1036</title>
				<path d="M0 504.17 L27.82 504.17 L27.82 427.09" class="st10"/>
			</g>
			<g id="shape1037-105" v:mID="1037" v:groupContext="shape" transform="translate(357.352,-192.189)">
				<title>工作表.1037</title>
				<path d="M0 504.17 L4.77 504.17 L4.77 466.9" class="st10"/>
			</g>
			<g id="shape1038-110" v:mID="1038" v:groupContext="shape" transform="translate(412.299,-253.276)">
				<title>工作表.1038</title>
				<path d="M0 504.17 L25.8 504.17" class="st8"/>
			</g>
			<g id="shape1039-113" v:mID="1039" v:groupContext="shape" transform="translate(419.386,-148.394)">
				<title>工作表.1039</title>
				<path d="M0 504.17 L18.71 504.17" class="st8"/>
			</g>
			<g id="shape1040-116" v:mID="1040" v:groupContext="shape" transform="translate(329.528,-180.992)">
				<title>工作表.1040</title>
				<path d="M0 504.17 L108.57 504.17" class="st8"/>
			</g>
			<g id="shape1041-119" v:mID="1041" v:groupContext="shape" transform="translate(452.268,-253.276) rotate(8.70672E-05)">
				<title>工作表.1041</title>
				<path d="M0 504.17 L22.39 504.17" class="st8"/>
			</g>
			<g id="shape1042-122" v:mID="1042" v:groupContext="shape" transform="translate(-37.3435,250.899) rotate(-90)">
				<title>工作表.1042</title>
				<path d="M0 504.17 L69.45 504.17" class="st8"/>
			</g>
			<g id="shape1043-125" v:mID="1043" v:groupContext="shape" transform="translate(-11.6545,241.308) rotate(-90)">
				<title>工作表.1043</title>
				<path d="M0 504.17 L59.86 504.17" class="st8"/>
			</g>
			<g id="shape1044-128" v:mID="1044" v:groupContext="shape" transform="translate(1064.73,181.45) rotate(90)">
				<title>工作表.1044</title>
				<path d="M0 504.17 L59.86 504.17" class="st8"/>
			</g>
			<g id="shape1045-131" v:mID="1045" v:groupContext="shape" transform="translate(582.661,-253.276)">
				<title>工作表.1045</title>
				<path d="M0 504.17 L9.07 504.17" class="st8"/>
			</g>
			<g id="shape1046-134" v:mID="1046" v:groupContext="shape" transform="translate(466.866,-221.976)">
				<title>工作表.1046</title>
				<path d="M0 472.87 L0 504.17 L125.01 504.17" class="st8"/>
			</g>
			<g id="shape1047-137" v:mID="1047" v:groupContext="shape" transform="translate(452.268,-180.992)">
				<title>工作表.1047</title>
				<path d="M0 504.17 L139.46 504.17" class="st8"/>
			</g>
			<g id="shape1048-140" v:mID="1048" v:groupContext="shape" transform="translate(452.268,-148.394)">
				<title>工作表.1048</title>
				<path d="M0 504.17 L139.46 504.17" class="st8"/>
			</g>
			<g id="shape1049-143" v:mID="1049" v:groupContext="shape" transform="translate(343.701,-196.583)">
				<title>工作表.1049</title>
				<path d="M0 504.17 L94.39 504.17" class="st8"/>
			</g>
			<g id="shape1050-146" v:mID="1050" v:groupContext="shape" transform="translate(452.268,-124.299)">
				<title>工作表.1050</title>
				<path d="M0 431.89 L44.79 431.89 L44.79 504.17" class="st8"/>
			</g>
			<g id="shape1052-149" v:mID="1052" v:groupContext="shape" transform="translate(605.905,-222.094)">
				<title>工作表.1052</title>
				<path d="M0 504.17 L31.6 504.17" class="st10"/>
			</g>
			<g id="shape1053-154" v:mID="1053" v:groupContext="shape" transform="translate(605.905,-180.992)">
				<title>工作表.1053</title>
				<path d="M0 504.17 L31.6 504.17" class="st10"/>
			</g>
			<g id="shape1054-159" v:mID="1054" v:groupContext="shape" transform="translate(605.905,-148.394)">
				<title>工作表.1054</title>
				<path d="M0 504.17 L31.6 504.17" class="st10"/>
			</g>
			<g id="shape1055-164" v:mID="1055" v:groupContext="shape" transform="translate(539.362,-97.3701)">
				<title>工作表.1055</title>
				<path d="M0 504.17 L52.37 504.17" class="st8"/>
			</g>
			<g id="shape1056-167" v:mID="1056" v:groupContext="shape" transform="translate(605.905,-97.37)">
				<title>工作表.1056</title>
				<path d="M0 504.17 L31.6 504.17" class="st10"/>
			</g>
			<g id="shape1057-172" v:mID="1057" v:groupContext="shape" transform="translate(329.528,-295.795)">
				<title>工作表.1057</title>
				<path d="M0 504.17 L9.45 504.17" class="st8"/>
			</g>
			<g id="shape1058-175" v:mID="1058" v:groupContext="shape" transform="translate(226.063,-295.795)">
				<title>工作表.1058</title>
				<path d="M0 504.17 L89.29 504.17" class="st8"/>
			</g>
			<g id="shape1061-178" v:mID="1061" v:groupContext="shape" transform="translate(458.504,-295.795) rotate(1.58543E-05)">
				<title>工作表.1061</title>
				<path d="M0 504.17 L133.23 504.17" class="st8"/>
			</g>
			<g id="group1064-181" transform="translate(656.77,304.757) rotate(90)" v:mID="1064" v:groupContext="group">
				<title>工作表.1064</title>
				<g id="shape1065-182" v:mID="1065" v:groupContext="shape">
					<title>工作表.1065</title>
					<path d="M0 470.62 L0 484.35 L11.44 487.4 L0 490.45 L0 504.17 L22.26 500.51 L22.26 474.4 L0 470.62 Z"
							class="st1"/>
				</g>
				<g id="shape1066-184" v:mID="1066" v:groupContext="shape" transform="translate(9.45479,-13.5411)">
					<title>工作表.1066</title>
					<desc>+</desc>
					<v:textBlock v:margins="rect(4,4,4,4)" v:tabSpace="42.5197"/>
					<v:textRect cx="7.31984" cy="500.941" width="14.64" height="6.46704"/>
					<rect x="0" y="497.707" width="14.6397" height="6.46704" class="st6"/>
					<text x="4" y="504.54" class="st5" v:langID="2052"><v:paragraph v:horizAlign="1"/><v:tabList/>+</text>				</g>
			</g>
			<g id="shape1067-187" v:mID="1067" v:groupContext="shape" transform="translate(-344.492,304.757) rotate(-90)">
				<title>工作表.1067</title>
				<path d="M0 504.17 L4.25 504.17" class="st8"/>
			</g>
			<g id="shape1068-190" v:mID="1068" v:groupContext="shape" transform="translate(154.013,-202.252)">
				<title>工作表.1068</title>
				<desc>4</desc>
				<v:textBlock v:margins="rect(4,4,4,4)" v:tabSpace="42.5197"/>
				<v:textRect cx="5.66929" cy="498.505" width="11.34" height="11.3386"/>
				<rect x="0" y="492.836" width="11.3386" height="11.3386" class="st6"/>
				<text x="4" y="501.2" class="st12" v:langID="2052"><v:paragraph v:horizAlign="1"/><v:tabList/>4</text>			</g>
			<g id="shape1069-193" v:mID="1069" v:groupContext="shape" transform="translate(683.82,257.985) rotate(90)">
				<title>工作表.1069</title>
				<path d="M0 504.17 L46.77 504.17" class="st8"/>
			</g>
			<g id="shape1071-196" v:mID="1071" v:groupContext="shape" transform="translate(673.544,327.021) rotate(90)">
				<title>工作表.1071</title>
				<path d="M0 504.17 L41.93 504.17" class="st10"/>
			</g>
			<g id="shape1072-201" v:mID="1072" v:groupContext="shape" transform="translate(179.646,-97.37)">
				<title>工作表.1072</title>
				<path d="M3.47 298.66 L3.83 298.66 L11.63 298.66 L11.63 504.17 L307.77 504.17" class="st13"/>
			</g>
			<g id="shape1073-207" v:mID="1073" v:groupContext="shape" transform="translate(190.748,791.923) rotate(180)">
				<title>工作表.1073</title>
				<path d="M0 504.17 L7.27 504.17" class="st10"/>
			</g>
			<g id="shape1074-212" v:mID="1074" v:groupContext="shape" transform="translate(1028.44,181.45) rotate(90)">
				<title>工作表.1074</title>
				<path d="M0 504.17 L198.43 504.17" class="st8"/>
			</g>
			<g id="shape1075-215" v:mID="1075" v:groupContext="shape" transform="translate(219.685,-180.992)">
				<title>工作表.1075</title>
				<path d="M0 504.17 L95.67 504.17" class="st8"/>
			</g>
			<g id="shape1076-218" v:mID="1076" v:groupContext="shape" transform="translate(226.063,-146.976)">
				<title>工作表.1076</title>
				<path d="M0 450.32 L0 504.17 L16.47 504.17" class="st8"/>
			</g>
			<g id="shape1077-221" v:mID="1077" v:groupContext="shape" transform="translate(226.063,-190.913)">
				<title>工作表.1077</title>
				<path d="M0 448.9 L0 504.17 L15.02 504.17" class="st8"/>
			</g>
			<g id="shape1078-224" v:mID="1078" v:groupContext="shape" transform="translate(231.732,-59.177)">
				<title>工作表.1078</title>
				<path d="M374.17 310.08 L409.53 310.08 L409.53 504.17 L0 504.17 L0 345.51 L9.21 345.51" class="st8"/>
			</g>
			<g id="shape1079-227" v:mID="1079" v:groupContext="shape" transform="translate(116.929,-131.386)">
				<title>工作表.1079</title>
				<path d="M125.6 504.17 L0 504.17 L0 389.59 L17.01 389.59" class="st8"/>
			</g>
			<g id="shape1080-230" v:mID="1080" v:groupContext="shape" transform="translate(338.976,-295.795)">
				<title>工作表.1080</title>
				<path d="M0 504.17 L99.12 504.17" class="st8"/>
			</g>
			<g id="shape1081-233" v:mID="1081" v:groupContext="shape" transform="translate(458.504,712.553) rotate(180)">
				<title>工作表.1081</title>
				<path d="M0 504.17 L6.24 504.17" class="st8"/>
			</g>
			<g id="shape1082-236" v:mID="1082" v:groupContext="shape" transform="translate(1019.37,208.379) rotate(90)">
				<title>工作表.1082</title>
				<path d="M0 504.17 L172.12 504.17" class="st8"/>
			</g>
			<g id="shape1083-239" v:mID="1083" v:groupContext="shape" transform="translate(-3.19744E-14,-217.134)">
				<title>工作表.1083</title>
				<desc>IM</desc>
				<v:textBlock v:margins="rect(4,4,4,4)" v:tabSpace="42.5197"/>
				<v:textRect cx="47.4803" cy="451.025" width="94.97" height="106.299"/>
				<rect x="0" y="397.875" width="94.9606" height="106.299" class="st14"/>
				<text x="31.48" y="458.22" class="st2" v:langID="2052"><v:paragraph v:horizAlign="1"/><v:tabList/>IM</text>			</g>
			<g id="shape1084-242" v:mID="1084" v:groupContext="shape" transform="translate(671.102,-145.559)">
				<title>工作表.1084</title>
				<desc>DM</desc>
				<v:textBlock v:margins="rect(4,4,4,4)" v:tabSpace="42.5197"/>
				<v:textRect cx="47.4803" cy="451.025" width="94.97" height="106.299"/>
				<rect x="0" y="397.875" width="94.9606" height="106.299" class="st14"/>
				<text x="27.49" y="458.22" class="st2" v:langID="2052"><v:paragraph v:horizAlign="1"/><v:tabList/>DM</text>			</g>
			<g id="shape1087-245" v:mID="1087" v:groupContext="shape" transform="translate(678.898,-297.638)">
				<title>工作表.1087</title>
				<desc>BRIDGE</desc>
				<v:textBlock v:margins="rect(4,4,4,4)" v:tabSpace="42.5197"/>
				<v:textRect cx="39.685" cy="426.221" width="79.38" height="155.906"/>
				<rect x="0" y="348.269" width="79.3701" height="155.906" rx="8.50394" ry="8.50394" class="st15"/>
				<text x="12.07" y="430.42" class="st16" v:langID="2052"><v:paragraph v:horizAlign="1"/><v:tabList/>BRIDGE</text>			</g>
			<g id="shape1096-248" v:mID="1096" v:groupContext="shape" transform="translate(129.685,0)">
				<title>工作表.1096</title>
				<desc>Hazard Unit</desc>
				<v:textBlock v:margins="rect(4,4,4,4)" v:tabSpace="42.5197"/>
				<v:textRect cx="245.197" cy="484.332" width="490.4" height="39.685"/>
				<rect x="0" y="464.489" width="490.394" height="39.685" rx="5.66929" ry="5.66929" class="st17"/>
				<text x="196.95" y="489.73" class="st4" v:langID="2052"><v:paragraph v:horizAlign="1"/><v:tabList/>Hazard Unit</text>			</g>
			<g id="shape1097-251" v:mID="1097" v:groupContext="shape" transform="translate(716.064,335.938) rotate(90)">
				<title>工作表.1097</title>
				<path d="M0 504.17 L128.55 504.17" class="st8"/>
			</g>
			<g id="shape1098-254" v:mID="1098" v:groupContext="shape" transform="translate(826.615,335.938) rotate(90)">
				<title>工作表.1098</title>
				<path d="M0 504.17 L128.55 504.17" class="st8"/>
			</g>
			<g id="shape1099-257" v:mID="1099" v:groupContext="shape" transform="translate(948.505,391.214) rotate(90)">
				<title>工作表.1099</title>
				<path d="M0 504.17 L73.28 504.17" class="st8"/>
			</g>
			<g id="shape1100-260" v:mID="1100" v:groupContext="shape" transform="translate(1102.99,415.308) rotate(90)">
				<title>工作表.1100</title>
				<path d="M0 504.17 L49.18 504.17" class="st8"/>
			</g>
			<g id="shape1101-263" v:mID="1101" v:groupContext="shape" transform="translate(650.867,287.04) rotate(90)">
				<title>工作表.1101</title>
				<path d="M0 504.17 L177.45 504.17" class="st8"/>
			</g>
			<g id="shape1102-266" v:mID="1102" v:groupContext="shape" transform="translate(128.268,-396.85)">
				<title>工作表.1102</title>
				<desc>Function Signal Controller</desc>
				<v:textBlock v:margins="rect(4,4,4,4)" v:tabSpace="42.5197"/>
				<v:textRect cx="245.197" cy="475.828" width="490.4" height="56.6929"/>
				<rect x="0" y="447.481" width="490.394" height="56.6929" rx="5.66929" ry="5.66929" class="st18"/>
				<text x="141.69" y="481.23" class="st4" v:langID="2052"><v:paragraph v:horizAlign="1"/><v:tabList/>Function Signal Controller</text>			</g>
			<g id="shape1110-269" v:mID="1110" v:groupContext="shape" transform="translate(68.7402,-323.008)">
				<title>工作表.1110</title>
				<path d="M110.91 504.17 L110.91 479.37 L0 479.37 L0 502.72" class="st8"/>
			</g>
			<g id="shape1111-272" v:mID="1111" v:groupContext="shape" transform="translate(27.6378,-323.008)">
				<title>工作表.1111</title>
				<path d="M167.24 504.17 L167.24 454.57 L0 454.57 L0 502.7" class="st8"/>
			</g>
			<g id="shape1112-275" v:mID="1112" v:groupContext="shape" transform="translate(-290.584,195.623) rotate(-90)">
				<title>工作表.1112</title>
				<path d="M0 504.17 L87.63 504.17" class="st8"/>
			</g>
			<g id="shape1113-278" v:mID="1113" v:groupContext="shape" transform="translate(-181.733,195.623) rotate(-90)">
				<title>工作表.1113</title>
				<path d="M0 504.17 L88.3 504.17" class="st8"/>
			</g>
			<g id="shape1114-281" v:mID="1114" v:groupContext="shape" transform="translate(-59.2765,195.623) rotate(-90)">
				<title>工作表.1114</title>
				<path d="M0 504.17 L88.3 504.17" class="st8"/>
			</g>
			<g id="shape1115-284" v:mID="1115" v:groupContext="shape" transform="translate(94.6447,195.623) rotate(-90)">
				<title>工作表.1115</title>
				<path d="M0 504.17 L88.3 504.17" class="st8"/>
			</g>
			<g id="shape1116-287" v:mID="1116" v:groupContext="shape" transform="translate(466.831,-322.724)">
				<title>工作表.1116</title>
				<path d="M0 504.17 L0 444.22 L212.07 444.22" class="st8"/>
			</g>
			<g id="shape1117-290" v:mID="1117" v:groupContext="shape" transform="translate(492.52,-322.724)">
				<title>工作表.1117</title>
				<path d="M0 504.17 L0 461.23 L186.38 461.23" class="st8"/>
			</g>
			<g id="shape1118-293" v:mID="1118" v:groupContext="shape" transform="translate(524.268,-322.724)">
				<title>工作表.1118</title>
				<path d="M0 504.17 L0 478.24 L154.63 478.24" class="st8"/>
			</g>
			<g id="shape1119-296" v:mID="1119" v:groupContext="shape" transform="translate(560.551,-322.724)">
				<title>工作表.1119</title>
				<path d="M0 504.17 L0 493.83 L118.35 493.83" class="st8"/>
			</g>
			<g id="shape1120-299" v:mID="1120" v:groupContext="shape" transform="translate(618.661,-428.031)">
				<title>工作表.1120</title>
				<path d="M0 504.17 L60.24 504.17" class="st8"/>
			</g>
			<g id="shape1121-302" v:mID="1121" v:groupContext="shape" transform="translate(1203.5,206.536) rotate(90)">
				<title>工作表.1121</title>
				<path d="M0 504.17 L45.78 504.17" class="st8"/>
			</g>
			<g id="shape1122-305" v:mID="1122" v:groupContext="shape" transform="translate(1216.26,206.536) rotate(90)">
				<title>工作表.1122</title>
				<path d="M0 504.17 L45.78 504.17" class="st8"/>
			</g>
			<g id="shape1123-308" v:mID="1123" v:groupContext="shape" transform="translate(1229.02,206.536) rotate(90)">
				<title>工作表.1123</title>
				<path d="M0 504.17 L45.78 504.17" class="st8"/>
			</g>
			<g id="shape1124-311" v:mID="1124" v:groupContext="shape" transform="translate(1241.77,206.536) rotate(90)">
				<title>工作表.1124</title>
				<path d="M0 504.17 L45.78 504.17" class="st8"/>
			</g>
			<g id="group1128-314" transform="translate(794.409,-378.425)" v:mID="1128" v:groupContext="group">
				<title>工作表.1128</title>
				<g id="shape1127-315" v:mID="1127" v:groupContext="shape" transform="translate(11.0551,-11.1968)">
					<title>工作表.1127</title>
					<ellipse cx="30.0472" cy="474.269" rx="30.0472" ry="29.9055" class="st3"/>
				</g>
				<g id="shape1125-317" v:mID="1125" v:groupContext="shape">
					<title>工作表.1125</title>
					<desc>TC</desc>
					<v:textBlock v:margins="rect(4,4,4,4)" v:tabSpace="42.5197"/>
					<v:textRect cx="41.1024" cy="463.072" width="82.21" height="82.2047"/>
					<ellipse cx="41.1024" cy="463.072" rx="41.1024" ry="41.1024" class="st19"/>
					<text x="28.6" y="468.47" class="st4" v:langID="2052"><v:paragraph v:horizAlign="1"/><v:tabList/>TC</text>				</g>
			</g>
			<g id="group1129-320" transform="translate(794.409,-290.551)" v:mID="1129" v:groupContext="group">
				<title>工作表.1129</title>
				<g id="shape1130-321" v:mID="1130" v:groupContext="shape" transform="translate(11.0551,-11.1968)">
					<title>工作表.1130</title>
					<ellipse cx="30.0472" cy="474.269" rx="30.0472" ry="29.9055" class="st3"/>
				</g>
				<g id="shape1131-323" v:mID="1131" v:groupContext="shape">
					<title>工作表.1131</title>
					<desc>TC</desc>
					<v:textBlock v:margins="rect(4,4,4,4)" v:tabSpace="42.5197"/>
					<v:textRect cx="41.1024" cy="463.072" width="82.21" height="82.2047"/>
					<ellipse cx="41.1024" cy="463.072" rx="41.1024" ry="41.1024" class="st19"/>
					<text x="28.6" y="468.47" class="st4" v:langID="2052"><v:paragraph v:horizAlign="1"/><v:tabList/>TC</text>				</g>
			</g>
			<g id="shape1132-326" v:mID="1132" v:groupContext="shape" transform="translate(758.268,-440.504)">
				<title>工作表.1132</title>
				<path d="M0 504.17 L41.9 504.17" class="st8"/>
			</g>
			<g id="shape1133-329" v:mID="1133" v:groupContext="shape" transform="translate(758.268,-425.197)">
				<title>工作表.1133</title>
				<path d="M0 504.17 L36.53 504.17" class="st8"/>
			</g>
			<g id="shape1134-332" v:mID="1134" v:groupContext="shape" transform="translate(795.179,596.738) rotate(180)">
				<title>工作表.1134</title>
				<path d="M0 504.17 L36.91 504.17" class="st8"/>
			</g>
			<g id="shape1135-335" v:mID="1135" v:groupContext="shape" transform="translate(801.52,611.929) rotate(180)">
				<title>工作表.1135</title>
				<path d="M0 504.17 L43.25 504.17" class="st8"/>
			</g>
			<g id="shape1136-338" v:mID="1136" v:groupContext="shape" transform="translate(758.209,-352.648)">
				<title>工作表.1136</title>
				<path d="M0 504.17 L41.9 504.17" class="st8"/>
			</g>
			<g id="shape1137-341" v:mID="1137" v:groupContext="shape" transform="translate(758.209,-337.341)">
				<title>工作表.1137</title>
				<path d="M0 504.17 L36.53 504.17" class="st8"/>
			</g>
			<g id="shape1138-344" v:mID="1138" v:groupContext="shape" transform="translate(795.12,684.594) rotate(180)">
				<title>工作表.1138</title>
				<path d="M0 504.17 L36.91 504.17" class="st8"/>
			</g>
			<g id="shape1139-347" v:mID="1139" v:groupContext="shape" transform="translate(801.461,699.785) rotate(180)">
				<title>工作表.1139</title>
				<path d="M0 504.17 L43.25 504.17" class="st8"/>
			</g>
			<g id="shape1-350" v:mID="1" v:groupContext="shape" transform="translate(104.173,-50.5984)">
				<title>工作表.1</title>
				<rect x="0" y="232.048" width="549.921" height="272.126" class="st20"/>
			</g>
			<g id="shape1142-352" v:mID="1142" v:groupContext="shape" transform="translate(311.102,-60.9449)">
				<title>工作表.1142</title>
				<desc>Datapath</desc>
				<v:textBlock v:margins="rect(4,4,4,4)" v:tabSpace="42.5197"/>
				<v:textRect cx="68.0315" cy="478.662" width="136.07" height="51.0236"/>
				<rect x="0" y="453.151" width="136.063" height="51.0236" class="st6"/>
				<text x="8.02" y="487.66" class="st21" v:langID="2052"><v:paragraph v:horizAlign="1"/><v:tabList/>Datapath</text>			</g>
			<g id="shape1140-355" v:mID="1140" v:groupContext="shape" transform="translate(784.488,-246.614)">
				<title>工作表.1140</title>
				<rect x="0" y="284.489" width="99.2126" height="219.685" class="st22"/>
			</g>
			<g id="shape1141-357" v:mID="1141" v:groupContext="shape" transform="translate(791.575,-246.614)">
				<title>工作表.1141</title>
				<desc>Device</desc>
				<v:textBlock v:margins="rect(4,4,4,4)" v:tabSpace="42.5197"/>
				<v:textRect cx="42.5197" cy="487.166" width="85.04" height="34.0157"/>
				<rect x="0" y="470.158" width="85.0394" height="34.0157" class="st6"/>
				<text x="17.04" y="492.57" class="st4" v:langID="2052"><v:paragraph v:horizAlign="1"/><v:tabList/>Device</text>			</g>
			<g id="shape1143-360" v:mID="1143" v:groupContext="shape" transform="translate(-239.46,222.552) rotate(-90)">
				<title>工作表.1143</title>
				<path d="M0 504.17 L115.23 504.17" class="st8"/>
			</g>
			<g id="shape1144-363" v:mID="1144" v:groupContext="shape" transform="translate(-112.332,223.263) rotate(-90)">
				<title>工作表.1144</title>
				<path d="M0 504.17 L115.33 504.17" class="st8"/>
			</g>
		</g>
	</g>
</svg>
