<?xml version="1.0" encoding="UTF-8" standalone="no"?>
<!DOCTYPE svg PUBLIC "-//W3C//DTD SVG 1.1//EN" "http://www.w3.org/Graphics/SVG/1.1/DTD/svg11.dtd">
<!-- 由 Microsoft Visio, SVG Export 生成 OO-DCEE-Construction.svg Page-1 -->
<svg xmlns="http://www.w3.org/2000/svg" xmlns:xlink="http://www.w3.org/1999/xlink" xmlns:ev="http://www.w3.org/2001/xml-events"
		xmlns:v="http://schemas.microsoft.com/visio/2003/SVGExtensions/" width="7.62977in" height="7.28269in"
		viewBox="0 0 549.343 524.353" xml:space="preserve" color-interpolation-filters="sRGB" class="st18">
	<v:documentProperties v:langID="2052" v:metric="true" v:viewMarkup="false">
		<v:userDefs>
			<v:ud v:nameU="msvNoAutoConnect" v:val="VT0(1):26"/>
		</v:userDefs>
	</v:documentProperties>

	<style type="text/css">
	<![CDATA[
		.st1 {fill:#d9958f;stroke:#000000;stroke-linecap:round;stroke-linejoin:round;stroke-width:0.75}
		.st2 {fill:none;stroke:none;stroke-linecap:round;stroke-linejoin:round;stroke-width:0.75}
		.st3 {fill:#000000;font-family:Times New Roman;font-size:0.833336em}
		.st4 {fill:#f9c499;stroke:#000000;stroke-linecap:round;stroke-linejoin:round;stroke-width:0.75}
		.st5 {fill:#c4d6a0;stroke:#000000;stroke-linecap:round;stroke-linejoin:round;stroke-width:0.75}
		.st6 {fill:#eeeaf2;stroke:#000000;stroke-linecap:round;stroke-linejoin:round;stroke-width:0.75}
		.st7 {fill:#000000;font-family:Consolas;font-size:1.00001em}
		.st8 {fill:#dbeef3;stroke:#000000;stroke-linecap:round;stroke-linejoin:round;stroke-width:0.75}
		.st9 {marker-end:url(#mrkr13-40);stroke:#000000;stroke-linecap:round;stroke-linejoin:round;stroke-width:0.75}
		.st10 {fill:#000000;fill-opacity:1;stroke:#000000;stroke-opacity:1;stroke-width:0.22935779816514}
		.st11 {fill:#fff2cc;stroke:#000000;stroke-linecap:round;stroke-linejoin:round;stroke-width:0.75}
		.st12 {font-size:1em}
		.st13 {fill:#ffd965;stroke:#000000;stroke-linecap:round;stroke-linejoin:round;stroke-width:0.75}
		.st14 {fill:#fee599;stroke:#000000;stroke-linecap:round;stroke-linejoin:round;stroke-width:0.75}
		.st15 {stroke:#000000;stroke-dasharray:0.75,1.5;stroke-linecap:round;stroke-linejoin:round;stroke-width:0.75}
		.st16 {marker-end:url(#mrkr5-80);stroke:#000000;stroke-linecap:round;stroke-linejoin:round;stroke-width:0.75}
		.st17 {stroke:#000000;stroke-linecap:round;stroke-linejoin:round;stroke-width:0.75}
		.st18 {fill:none;fill-rule:evenodd;font-size:12px;overflow:visible;stroke-linecap:square;stroke-miterlimit:3}
	]]>
	</style>

	<defs id="Markers">
		<g id="lend13">
			<path d="M 3 1 L 0 0 L 3 -1 L 3 1 " style="stroke:none"/>
		</g>
		<marker id="mrkr13-40" class="st10" v:arrowType="13" v:arrowSize="2" v:setback="13.08" refX="-13.08" orient="auto"
				markerUnits="strokeWidth" overflow="visible">
			<use xlink:href="#lend13" transform="scale(-4.36,-4.36) "/>
		</marker>
		<g id="lend5">
			<path d="M 2 1 L 0 0 L 1.98117 -0.993387 C 1.67173 -0.364515 1.67301 0.372641 1.98465 1.00043 " style="stroke:none"/>
		</g>
		<marker id="mrkr5-80" class="st10" v:arrowType="5" v:arrowSize="2" v:setback="7.63" refX="-7.63" orient="auto"
				markerUnits="strokeWidth" overflow="visible">
			<use xlink:href="#lend5" transform="scale(-4.36,-4.36) "/>
		</marker>
	</defs>
	<g v:mID="0" v:index="1" v:groupContext="foregroundPage">
		<title>页-1</title>
		<v:pageProperties v:drawingScale="0.0393701" v:pageScale="0.0393701" v:drawingUnits="24" v:shadowOffsetX="8.50394"
				v:shadowOffsetY="-8.50394"/>
		<v:layer v:name="连接线" v:index="0"/>
		<g id="group113-1" transform="translate(18.375,-28.3406)" v:mID="113" v:groupContext="group">
			<title>工作表.113</title>
			<g id="group111-2" transform="translate(-2.39808E-14,-364.252)" v:mID="111" v:groupContext="group">
				<title>工作表.111</title>
				<g id="shape80-3" v:mID="80" v:groupContext="shape" transform="translate(1.4988E-14,-39.685)">
					<title>工作表.80</title>
					<path d="M3.4 524.35 L3.4 507.35 L3.4 514.15 L0 514.15 L0 500.54 L1.7 498.84 L15.31 498.84 L17.01 500.54 L17.01
								 514.15 L13.61 514.15 L13.61 507.35 L13.61 524.35 L8.5 524.35 L8.5 510.75 L8.5 524.35 L3.4 524.35
								 ZM11.91 493.74 A3.40157 3.40157 -180 1 0 5.1 493.74 A3.40157 3.40157 -180 1 0 11.91 493.74 Z"
							class="st1"/>
				</g>
				<g id="shape98-5" v:mID="98" v:groupContext="shape" transform="translate(21.2598,-85.0394)">
					<title>工作表.98</title>
					<desc>Waiting to be dispatched</desc>
					<v:textBlock v:margins="rect(4,4,4,4)" v:tabSpace="42.5197"/>
					<v:textRect cx="57.4016" cy="513.015" width="114.81" height="22.6772"/>
					<rect x="0" y="501.676" width="114.803" height="22.6772" class="st2"/>
					<text x="4" y="516.02" class="st3" v:langID="2052"><v:paragraph/><v:tabList/>Waiting to be dispatched</text>				</g>
				<g id="shape100-8" v:mID="100" v:groupContext="shape" transform="translate(3.59712E-14,-79.3701)">
					<title>工作表.100</title>
					<path d="M3.4 524.35 L3.4 507.35 L3.4 514.15 L0 514.15 L0 500.54 L1.7 498.84 L15.31 498.84 L17.01 500.54 L17.01
								 514.15 L13.61 514.15 L13.61 507.35 L13.61 524.35 L8.5 524.35 L8.5 510.75 L8.5 524.35 L3.4 524.35
								 ZM11.91 493.74 A3.40157 3.40157 -180 1 0 5.1 493.74 A3.40157 3.40157 -180 1 0 11.91 493.74 Z"
							class="st4"/>
				</g>
				<g id="shape101-10" v:mID="101" v:groupContext="shape" transform="translate(22.4534,-45.3543)">
					<title>工作表.101</title>
					<desc>Waiting elevator</desc>
					<v:textBlock v:margins="rect(4,4,4,4)" v:tabSpace="42.5197"/>
					<v:textRect cx="57.4016" cy="513.015" width="114.81" height="22.6772"/>
					<rect x="0" y="501.676" width="114.803" height="22.6772" class="st2"/>
					<text x="4" y="516.02" class="st3" v:langID="2052"><v:paragraph/><v:tabList/>Waiting elevator</text>				</g>
				<g id="shape103-13" v:mID="103" v:groupContext="shape">
					<title>工作表.103</title>
					<path d="M3.4 524.35 L3.4 507.35 L3.4 514.15 L0 514.15 L0 500.54 L1.7 498.84 L15.31 498.84 L17.01 500.54 L17.01
								 514.15 L13.61 514.15 L13.61 507.35 L13.61 524.35 L8.5 524.35 L8.5 510.75 L8.5 524.35 L3.4 524.35
								 ZM11.91 493.74 A3.40157 3.40157 -180 1 0 5.1 493.74 A3.40157 3.40157 -180 1 0 11.91 493.74 Z"
							class="st5"/>
				</g>
				<g id="shape104-15" v:mID="104" v:groupContext="shape" transform="translate(22.6772,-5.66927)">
					<title>工作表.104</title>
					<desc>Waiting to be transfered</desc>
					<v:textBlock v:margins="rect(4,4,4,4)" v:tabSpace="42.5197"/>
					<v:textRect cx="57.4016" cy="513.015" width="114.81" height="22.6772"/>
					<rect x="0" y="501.676" width="114.803" height="22.6772" class="st2"/>
					<text x="4" y="516.02" class="st3" v:langID="2052"><v:paragraph/><v:tabList/>Waiting to be transfered</text>				</g>
			</g>
			<g id="group112-18" transform="translate(19.8425,0)" v:mID="112" v:groupContext="group">
				<title>工作表.112</title>
				<g id="shape6-19" v:mID="6" v:groupContext="shape" transform="translate(119.055,-388.346)">
					<title>工作表.6</title>
					<desc>InstructionListener(Thread)</desc>
					<v:textBlock v:margins="rect(4,4,4,4)" v:tabSpace="42.5197"/>
					<v:textRect cx="107.717" cy="507.346" width="215.44" height="34.0157"/>
					<rect x="0" y="490.338" width="215.433" height="34.0157" class="st6"/>
					<text x="18.65" y="510.95" class="st7" v:langID="2052"><v:paragraph v:horizAlign="1"/><v:tabList/>InstructionListener(Thread)</text>				</g>
				<g id="shape7-22" v:mID="7" v:groupContext="shape" transform="translate(119.055,-291.969)">
					<title>工作表.7</title>
					<desc>Dispatcher</desc>
					<v:textBlock v:margins="rect(4,4,4,4)" v:tabSpace="42.5197"/>
					<v:textRect cx="107.717" cy="507.346" width="215.44" height="34.0157"/>
					<rect x="0" y="490.338" width="215.433" height="34.0157" class="st8"/>
					<text x="74.73" y="510.95" class="st7" v:langID="2052"><v:paragraph v:horizAlign="1"/><v:tabList/>Dispatcher</text>				</g>
				<g id="shape24-25" v:mID="24" v:groupContext="shape" transform="translate(177.165,-423.78)">
					<title>工作表.24</title>
					<path d="M3.4 524.35 L3.4 507.35 L3.4 514.15 L0 514.15 L0 500.54 L1.7 498.84 L15.31 498.84 L17.01 500.54 L17.01
								 514.15 L13.61 514.15 L13.61 507.35 L13.61 524.35 L8.5 524.35 L8.5 510.75 L8.5 524.35 L3.4 524.35
								 ZM11.91 493.74 A3.40157 3.40157 -180 1 0 5.1 493.74 A3.40157 3.40157 -180 1 0 11.91 493.74 Z"
							class="st4"/>
				</g>
				<g id="shape27-27" v:mID="27" v:groupContext="shape" transform="translate(194.173,-433.701)">
					<title>工作表.27</title>
					<path d="M3.4 524.35 L3.4 507.35 L3.4 514.15 L0 514.15 L0 500.54 L1.7 498.84 L15.31 498.84 L17.01 500.54 L17.01
								 514.15 L13.61 514.15 L13.61 507.35 L13.61 524.35 L8.5 524.35 L8.5 510.75 L8.5 524.35 L3.4 524.35
								 ZM11.91 493.74 A3.40157 3.40157 -180 1 0 5.1 493.74 A3.40157 3.40157 -180 1 0 11.91 493.74 Z"
							class="st4"/>
				</g>
				<g id="shape28-29" v:mID="28" v:groupContext="shape" transform="translate(211.181,-443.622)">
					<title>工作表.28</title>
					<path d="M3.4 524.35 L3.4 507.35 L3.4 514.15 L0 514.15 L0 500.54 L1.7 498.84 L15.31 498.84 L17.01 500.54 L17.01
								 514.15 L13.61 514.15 L13.61 507.35 L13.61 524.35 L8.5 524.35 L8.5 510.75 L8.5 524.35 L3.4 524.35
								 ZM11.91 493.74 A3.40157 3.40157 -180 1 0 5.1 493.74 A3.40157 3.40157 -180 1 0 11.91 493.74 Z"
							class="st4"/>
				</g>
				<g id="shape29-31" v:mID="29" v:groupContext="shape" transform="translate(236.693,-423.78)">
					<title>工作表.29</title>
					<path d="M3.4 524.35 L3.4 507.35 L3.4 514.15 L0 514.15 L0 500.54 L1.7 498.84 L15.31 498.84 L17.01 500.54 L17.01
								 514.15 L13.61 514.15 L13.61 507.35 L13.61 524.35 L8.5 524.35 L8.5 510.75 L8.5 524.35 L3.4 524.35
								 ZM11.91 493.74 A3.40157 3.40157 -180 1 0 5.1 493.74 A3.40157 3.40157 -180 1 0 11.91 493.74 Z"
							class="st4"/>
				</g>
				<g id="shape30-33" v:mID="30" v:groupContext="shape" transform="translate(253.701,-433.701)">
					<title>工作表.30</title>
					<path d="M3.4 524.35 L3.4 507.35 L3.4 514.15 L0 514.15 L0 500.54 L1.7 498.84 L15.31 498.84 L17.01 500.54 L17.01
								 514.15 L13.61 514.15 L13.61 507.35 L13.61 524.35 L8.5 524.35 L8.5 510.75 L8.5 524.35 L3.4 524.35
								 ZM11.91 493.74 A3.40157 3.40157 -180 1 0 5.1 493.74 A3.40157 3.40157 -180 1 0 11.91 493.74 Z"
							class="st4"/>
				</g>
				<g id="shape40-35" v:mID="40" v:groupContext="shape" transform="translate(751.125,136.007) rotate(90)">
					<title>工作表.40</title>
					<path d="M0 524.35 L52.55 524.35" class="st9"/>
				</g>
				<g id="shape42-41" v:mID="42" v:groupContext="shape" transform="translate(751.125,232.385) rotate(90)">
					<title>工作表.42</title>
					<path d="M0 524.35 L111.65 524.35" class="st9"/>
				</g>
				<g id="shape43-46" v:mID="43" v:groupContext="shape" transform="translate(534.904,-191.881) rotate(35.9898)">
					<title>工作表.43</title>
					<path d="M0 524.35 L196.89 524.35" class="st9"/>
				</g>
				<g id="shape44-51" v:mID="44" v:groupContext="shape" transform="translate(534.904,656.651) rotate(144.01)">
					<title>工作表.44</title>
					<path d="M0 524.35 L196.89 524.35" class="st9"/>
				</g>
				<g id="group49-56" transform="translate(4.79616E-14,-25.5118)" v:mID="49" v:groupContext="group">
					<title>工作表.49</title>
					<g id="shape8-57" v:mID="8" v:groupContext="shape" transform="translate(5.66929,-110.976)">
						<title>工作表.8</title>
						<desc>PersonQueue [Thread-Safe]</desc>
						<v:textBlock v:margins="rect(4,4,4,4)" v:tabSpace="42.5197"/>
						<v:textRect cx="53.8583" cy="507.346" width="107.72" height="34.0157"/>
						<rect x="0" y="490.338" width="107.717" height="34.0157" class="st11"/>
						<text x="17.57" y="503.75" class="st7" v:langID="2052"><v:paragraph v:horizAlign="1"/><v:tabList/>PersonQueue<v:newlineChar/><tspan
									x="10.97" dy="1.2em" class="st12">[Thread</tspan>-Safe]</text>					</g>
					<g id="shape9-61" v:mID="9" v:groupContext="shape" transform="translate(0.566929,0)">
						<title>工作表.9</title>
						<desc>Elevator(Thread)</desc>
						<v:textBlock v:margins="rect(4,4,4,4)" v:tabSpace="42.5197"/>
						<v:textRect cx="59.5276" cy="507.346" width="119.06" height="34.0157"/>
						<rect x="0" y="490.338" width="119.055" height="34.0157" class="st13"/>
						<text x="6.74" y="510.95" class="st7" v:langID="2052"><v:paragraph v:horizAlign="1"/><v:tabList/>Elevator(Thread)</text>					</g>
					<g id="shape25-64" v:mID="25" v:groupContext="shape" transform="translate(-6.99441E-15,-91.2351)">
						<title>工作表.25</title>
					</g>
					<g id="shape45-66" v:mID="45" v:groupContext="shape" transform="translate(17.0079,-59.5276)">
						<title>工作表.45</title>
						<desc>Strategy</desc>
						<v:textBlock v:margins="rect(4,4,4,4)" v:tabSpace="42.5197"/>
						<v:textRect cx="43.0866" cy="508.479" width="86.18" height="31.748"/>
						<ellipse cx="43.0866" cy="508.479" rx="43.0866" ry="15.874" class="st14"/>
						<text x="16.7" y="512.08" class="st7" v:langID="2052"><v:paragraph v:horizAlign="1"/><v:tabList/>Strategy</text>					</g>
					<g id="shape46-69" v:mID="46" v:groupContext="shape" transform="translate(583.881,413.377) rotate(90)">
						<title>工作表.46</title>
						<path d="M0 524.35 L19.7 524.35" class="st15"/>
					</g>
					<g id="shape47-72" v:mID="47" v:groupContext="shape" transform="translate(-464.826,490.338) rotate(-90)">
						<title>工作表.47</title>
						<path d="M0 524.35 L25.51 524.35" class="st15"/>
					</g>
					<g id="shape48-75" v:mID="48" v:groupContext="shape" transform="translate(113.386,-16.4111)">
						<title>工作表.48</title>
						<path d="M0 413.21 L18.43 413.21 L18.43 524.35 L11.96 524.35" class="st16"/>
					</g>
				</g>
				<g id="group50-81" transform="translate(167.244,-25.5118)" v:mID="50" v:groupContext="group">
					<title>工作表.50</title>
					<g id="shape51-82" v:mID="51" v:groupContext="shape" transform="translate(5.66929,-110.976)">
						<title>工作表.51</title>
						<desc>PersonQueue [Thread-Safe]</desc>
						<v:textBlock v:margins="rect(4,4,4,4)" v:tabSpace="42.5197"/>
						<v:textRect cx="53.8583" cy="507.346" width="107.72" height="34.0157"/>
						<rect x="0" y="490.338" width="107.717" height="34.0157" class="st11"/>
						<text x="17.57" y="503.75" class="st7" v:langID="2052"><v:paragraph v:horizAlign="1"/><v:tabList/>PersonQueue<v:newlineChar/><tspan
									x="10.97" dy="1.2em" class="st12">[Thread</tspan>-Safe]</text>					</g>
					<g id="shape52-86" v:mID="52" v:groupContext="shape" transform="translate(0.566929,0)">
						<title>工作表.52</title>
						<desc>Elevator(Thread)</desc>
						<v:textBlock v:margins="rect(4,4,4,4)" v:tabSpace="42.5197"/>
						<v:textRect cx="59.5276" cy="507.346" width="119.06" height="34.0157"/>
						<rect x="0" y="490.338" width="119.055" height="34.0157" class="st13"/>
						<text x="6.74" y="510.95" class="st7" v:langID="2052"><v:paragraph v:horizAlign="1"/><v:tabList/>Elevator(Thread)</text>					</g>
					<g id="shape53-89" v:mID="53" v:groupContext="shape" transform="translate(-6.99441E-15,-91.2351)">
						<title>工作表.53</title>
					</g>
					<g id="shape54-91" v:mID="54" v:groupContext="shape" transform="translate(17.0079,-59.5276)">
						<title>工作表.54</title>
						<desc>Strategy</desc>
						<v:textBlock v:margins="rect(4,4,4,4)" v:tabSpace="42.5197"/>
						<v:textRect cx="43.0866" cy="508.479" width="86.18" height="31.748"/>
						<ellipse cx="43.0866" cy="508.479" rx="43.0866" ry="15.874" class="st14"/>
						<text x="16.7" y="512.08" class="st7" v:langID="2052"><v:paragraph v:horizAlign="1"/><v:tabList/>Strategy</text>					</g>
					<g id="shape55-94" v:mID="55" v:groupContext="shape" transform="translate(583.881,413.377) rotate(90)">
						<title>工作表.55</title>
						<path d="M0 524.35 L19.7 524.35" class="st15"/>
					</g>
					<g id="shape56-97" v:mID="56" v:groupContext="shape" transform="translate(-464.826,490.338) rotate(-90)">
						<title>工作表.56</title>
						<path d="M0 524.35 L25.51 524.35" class="st15"/>
					</g>
					<g id="shape57-100" v:mID="57" v:groupContext="shape" transform="translate(113.386,-16.4111)">
						<title>工作表.57</title>
						<path d="M0 413.21 L18.43 413.21 L18.43 524.35 L11.96 524.35" class="st16"/>
					</g>
				</g>
				<g id="group66-105" transform="translate(334.488,-25.5118)" v:mID="66" v:groupContext="group">
					<title>工作表.66</title>
					<g id="shape67-106" v:mID="67" v:groupContext="shape" transform="translate(5.66929,-110.976)">
						<title>工作表.67</title>
						<desc>PersonQueue [Thread-Safe]</desc>
						<v:textBlock v:margins="rect(4,4,4,4)" v:tabSpace="42.5197"/>
						<v:textRect cx="53.8583" cy="507.346" width="107.72" height="34.0157"/>
						<rect x="0" y="490.338" width="107.717" height="34.0157" class="st11"/>
						<text x="17.57" y="503.75" class="st7" v:langID="2052"><v:paragraph v:horizAlign="1"/><v:tabList/>PersonQueue<v:newlineChar/><tspan
									x="10.97" dy="1.2em" class="st12">[Thread</tspan>-Safe]</text>					</g>
					<g id="shape68-110" v:mID="68" v:groupContext="shape" transform="translate(0.566929,0)">
						<title>工作表.68</title>
						<desc>Elevator(Thread)</desc>
						<v:textBlock v:margins="rect(4,4,4,4)" v:tabSpace="42.5197"/>
						<v:textRect cx="59.5276" cy="507.346" width="119.06" height="34.0157"/>
						<rect x="0" y="490.338" width="119.055" height="34.0157" class="st13"/>
						<text x="6.74" y="510.95" class="st7" v:langID="2052"><v:paragraph v:horizAlign="1"/><v:tabList/>Elevator(Thread)</text>					</g>
					<g id="shape69-113" v:mID="69" v:groupContext="shape" transform="translate(-6.99441E-15,-91.2351)">
						<title>工作表.69</title>
					</g>
					<g id="shape70-115" v:mID="70" v:groupContext="shape" transform="translate(17.0079,-59.5276)">
						<title>工作表.70</title>
						<desc>Strategy</desc>
						<v:textBlock v:margins="rect(4,4,4,4)" v:tabSpace="42.5197"/>
						<v:textRect cx="43.0866" cy="508.479" width="86.18" height="31.748"/>
						<ellipse cx="43.0866" cy="508.479" rx="43.0866" ry="15.874" class="st14"/>
						<text x="16.7" y="512.08" class="st7" v:langID="2052"><v:paragraph v:horizAlign="1"/><v:tabList/>Strategy</text>					</g>
					<g id="shape71-118" v:mID="71" v:groupContext="shape" transform="translate(583.881,413.377) rotate(90)">
						<title>工作表.71</title>
						<path d="M0 524.35 L19.7 524.35" class="st15"/>
					</g>
					<g id="shape72-121" v:mID="72" v:groupContext="shape" transform="translate(-464.826,490.338) rotate(-90)">
						<title>工作表.72</title>
						<path d="M0 524.35 L25.51 524.35" class="st15"/>
					</g>
					<g id="shape73-124" v:mID="73" v:groupContext="shape" transform="translate(113.386,-16.4111)">
						<title>工作表.73</title>
						<path d="M0 413.21 L18.43 413.21 L18.43 524.35 L11.96 524.35" class="st16"/>
					</g>
				</g>
				<g id="shape74-129" v:mID="74" v:groupContext="shape" transform="translate(231.024,-341.575)">
					<title>工作表.74</title>
					<path d="M3.4 524.35 L3.4 507.35 L3.4 514.15 L0 514.15 L0 500.54 L1.7 498.84 L15.31 498.84 L17.01 500.54 L17.01
								 514.15 L13.61 514.15 L13.61 507.35 L13.61 524.35 L8.5 524.35 L8.5 510.75 L8.5 524.35 L3.4 524.35
								 ZM11.91 493.74 A3.40157 3.40157 -180 1 0 5.1 493.74 A3.40157 3.40157 -180 1 0 11.91 493.74 Z"
							class="st4"/>
				</g>
				<g id="shape75-131" v:mID="75" v:groupContext="shape" transform="translate(334.488,-214.016)">
					<title>工作表.75</title>
					<path d="M3.4 524.35 L3.4 507.35 L3.4 514.15 L0 514.15 L0 500.54 L1.7 498.84 L15.31 498.84 L17.01 500.54 L17.01
								 514.15 L13.61 514.15 L13.61 507.35 L13.61 524.35 L8.5 524.35 L8.5 510.75 L8.5 524.35 L3.4 524.35
								 ZM11.91 493.74 A3.40157 3.40157 -180 1 0 5.1 493.74 A3.40157 3.40157 -180 1 0 11.91 493.74 Z"
							class="st1"/>
				</g>
				<g id="shape78-133" v:mID="78" v:groupContext="shape" transform="translate(317.48,-225.354)">
					<title>工作表.78</title>
					<path d="M3.4 524.35 L3.4 507.35 L3.4 514.15 L0 514.15 L0 500.54 L1.7 498.84 L15.31 498.84 L17.01 500.54 L17.01
								 514.15 L13.61 514.15 L13.61 507.35 L13.61 524.35 L8.5 524.35 L8.5 510.75 L8.5 524.35 L3.4 524.35
								 ZM11.91 493.74 A3.40157 3.40157 -180 1 0 5.1 493.74 A3.40157 3.40157 -180 1 0 11.91 493.74 Z"
							class="st1"/>
				</g>
				<g id="shape79-135" v:mID="79" v:groupContext="shape" transform="translate(231.024,-225.354)">
					<title>工作表.79</title>
					<path d="M3.4 524.35 L3.4 507.35 L3.4 514.15 L0 514.15 L0 500.54 L1.7 498.84 L15.31 498.84 L17.01 500.54 L17.01
								 514.15 L13.61 514.15 L13.61 507.35 L13.61 524.35 L8.5 524.35 L8.5 510.75 L8.5 524.35 L3.4 524.35
								 ZM11.91 493.74 A3.40157 3.40157 -180 1 0 5.1 493.74 A3.40157 3.40157 -180 1 0 11.91 493.74 Z"
							class="st1"/>
				</g>
				<g id="shape83-137" v:mID="83" v:groupContext="shape" transform="translate(59.5276,0)">
					<title>工作表.83</title>
					<path d="M0 524.35 L334.49 524.35 L334.49 498.84" class="st17"/>
				</g>
				<g id="shape84-140" v:mID="84" v:groupContext="shape" transform="translate(751.125,498.842) rotate(90)">
					<title>工作表.84</title>
					<path d="M0 524.35 L25.51 524.35" class="st17"/>
				</g>
				<g id="shape85-143" v:mID="85" v:groupContext="shape" transform="translate(583.881,498.842) rotate(90)">
					<title>工作表.85</title>
					<path d="M0 524.35 L25.51 524.35" class="st17"/>
				</g>
				<g id="shape86-146" v:mID="86" v:groupContext="shape" transform="translate(334.488,0)">
					<title>工作表.86</title>
					<path d="M59.53 524.35 L148.3 524.35 L148.3 215.38 L9.81 215.38" class="st9"/>
				</g>
				<g id="shape87-151" v:mID="87" v:groupContext="shape" transform="translate(394.016,-310.394)">
					<title>工作表.87</title>
					<path d="M3.4 524.35 L3.4 507.35 L3.4 514.15 L0 514.15 L0 500.54 L1.7 498.84 L15.31 498.84 L17.01 500.54 L17.01
								 514.15 L13.61 514.15 L13.61 507.35 L13.61 524.35 L8.5 524.35 L8.5 510.75 L8.5 524.35 L3.4 524.35
								 ZM11.91 493.74 A3.40157 3.40157 -180 1 0 5.1 493.74 A3.40157 3.40157 -180 1 0 11.91 493.74 Z"
							class="st5"/>
				</g>
				<g id="shape88-153" v:mID="88" v:groupContext="shape" transform="translate(411.024,-310.394)">
					<title>工作表.88</title>
					<path d="M3.4 524.35 L3.4 507.35 L3.4 514.15 L0 514.15 L0 500.54 L1.7 498.84 L15.31 498.84 L17.01 500.54 L17.01
								 514.15 L13.61 514.15 L13.61 507.35 L13.61 524.35 L8.5 524.35 L8.5 510.75 L8.5 524.35 L3.4 524.35
								 ZM11.91 493.74 A3.40157 3.40157 -180 1 0 5.1 493.74 A3.40157 3.40157 -180 1 0 11.91 493.74 Z"
							class="st5"/>
				</g>
				<g id="shape93-155" v:mID="93" v:groupContext="shape" transform="translate(368.504,-283.465)">
					<title>工作表.93</title>
					<desc>Transfer</desc>
					<v:textBlock v:margins="rect(4,4,4,4)" v:tabSpace="42.5197"/>
					<v:textRect cx="40.1326" cy="511.598" width="80.27" height="25.5118"/>
					<rect x="0" y="498.842" width="80.2652" height="25.5118" class="st2"/>
					<text x="13.74" y="515.2" class="st7" v:langID="2052"><v:paragraph v:horizAlign="1"/><v:tabList/>Transfer</text>				</g>
				<g id="shape102-158" v:mID="102" v:groupContext="shape" transform="translate(114.803,-225.354)">
					<title>工作表.102</title>
					<path d="M3.4 524.35 L3.4 507.35 L3.4 514.15 L0 514.15 L0 500.54 L1.7 498.84 L15.31 498.84 L17.01 500.54 L17.01
								 514.15 L13.61 514.15 L13.61 507.35 L13.61 524.35 L8.5 524.35 L8.5 510.75 L8.5 524.35 L3.4 524.35
								 ZM11.91 493.74 A3.40157 3.40157 -180 1 0 5.1 493.74 A3.40157 3.40157 -180 1 0 11.91 493.74 Z"
							class="st1"/>
				</g>
			</g>
		</g>
	</g>
</svg>
