<?xml version="1.0" encoding="UTF-8" standalone="no"?>
<!DOCTYPE svg PUBLIC "-//W3C//DTD SVG 1.1//EN" "http://www.w3.org/Graphics/SVG/1.1/DTD/svg11.dtd">
<!-- 由 Microsoft Visio, SVG Export 生成 OS-File-Index-Structure.svg Page-1 -->
<svg xmlns="http://www.w3.org/2000/svg" xmlns:xlink="http://www.w3.org/1999/xlink" xmlns:ev="http://www.w3.org/2001/xml-events"
		xmlns:v="http://schemas.microsoft.com/visio/2003/SVGExtensions/" width="9.07931in" height="6.92774in"
		viewBox="0 0 653.711 498.797" xml:space="preserve" color-interpolation-filters="sRGB" class="st15">
	<v:documentProperties v:langID="2052" v:metric="true" v:viewMarkup="false">
		<v:userDefs>
			<v:ud v:nameU="msvNoAutoConnect" v:val="VT0(1):26"/>
		</v:userDefs>
	</v:documentProperties>

	<style type="text/css">
	<![CDATA[
		.st1 {fill:#ffffff;stroke:#000000;stroke-linecap:round;stroke-linejoin:round;stroke-width:0.75}
		.st2 {fill:#dbeef3;stroke:#000000;stroke-linecap:round;stroke-linejoin:round;stroke-width:0.75}
		.st3 {fill:#000000;font-family:Times New Roman;font-size:1.00001em}
		.st4 {fill:#ebf1df;stroke:#000000;stroke-linecap:round;stroke-linejoin:round;stroke-width:0.75}
		.st5 {fill:none;stroke:none;stroke-linecap:round;stroke-linejoin:round;stroke-width:0.75}
		.st6 {fill:#f2dcda;stroke:#000000;stroke-linecap:round;stroke-linejoin:round;stroke-width:0.75}
		.st7 {fill:#fee599;stroke:#000000;stroke-linecap:round;stroke-linejoin:round;stroke-width:0.75}
		.st8 {fill:#fcebdd;stroke:#000000;stroke-linecap:round;stroke-linejoin:round;stroke-width:0.75}
		.st9 {fill:#fff2cc;stroke:#000000;stroke-linecap:round;stroke-linejoin:round;stroke-width:0.75}
		.st10 {fill:#eeeaf2;stroke:#000000;stroke-linecap:round;stroke-linejoin:round;stroke-width:0.75}
		.st11 {stroke:#000000;stroke-linecap:round;stroke-linejoin:round;stroke-width:0.75}
		.st12 {marker-end:url(#mrkr13-193);stroke:#000000;stroke-linecap:round;stroke-linejoin:round;stroke-width:1.5}
		.st13 {fill:#000000;fill-opacity:1;stroke:#000000;stroke-opacity:1;stroke-width:0.37313432835821}
		.st14 {stroke:#000000;stroke-dasharray:0.75,1.5;stroke-linecap:round;stroke-linejoin:round;stroke-width:0.75}
		.st15 {fill:none;fill-rule:evenodd;font-size:12px;overflow:visible;stroke-linecap:square;stroke-miterlimit:3}
	]]>
	</style>

	<defs id="Markers">
		<g id="lend13">
			<path d="M 3 1 L 0 0 L 3 -1 L 3 1 " style="stroke:none"/>
		</g>
		<marker id="mrkr13-193" class="st13" v:arrowType="13" v:arrowSize="2" v:setback="8.04" refX="-8.04" orient="auto"
				markerUnits="strokeWidth" overflow="visible">
			<use xlink:href="#lend13" transform="scale(-2.68,-2.68) "/>
		</marker>
	</defs>
	<g v:mID="0" v:index="1" v:groupContext="foregroundPage">
		<title>页-1</title>
		<v:pageProperties v:drawingScale="0.0393701" v:pageScale="0.0393701" v:drawingUnits="24" v:shadowOffsetX="8.50394"
				v:shadowOffsetY="-8.50394"/>
		<g id="group115-1" transform="translate(18.375,-18.375)" v:mID="115" v:groupContext="group">
			<title>工作表.115</title>
			<g id="group7-2" transform="translate(-3.19744E-14,-155.906)" v:mID="7" v:groupContext="group">
				<title>工作表.7</title>
				<g id="shape1-3" v:mID="1" v:groupContext="shape" transform="translate(-7.99361E-15,-59.5276)">
					<title>工作表.1</title>
					<rect x="0" y="456.278" width="85.0394" height="42.5197" class="st1"/>
				</g>
				<g id="shape2-5" v:mID="2" v:groupContext="shape" transform="translate(0,-42.5197)">
					<title>工作表.2</title>
					<desc>File A</desc>
					<v:textBlock v:margins="rect(4,4,4,4)" v:tabSpace="42.5197"/>
					<v:textRect cx="21.2598" cy="490.293" width="42.52" height="17.0079"/>
					<rect x="0" y="481.789" width="42.5197" height="17.0079" class="st2"/>
					<text x="6.09" y="493.89" class="st3" v:langID="2052"><v:paragraph v:horizAlign="1"/><v:tabList/>File A</text>				</g>
				<g id="shape3-8" v:mID="3" v:groupContext="shape">
					<title>工作表.3</title>
					<rect x="0" y="456.278" width="85.0394" height="42.5197" class="st1"/>
				</g>
				<g id="shape4-10" v:mID="4" v:groupContext="shape" transform="translate(42.5197,-42.5197)">
					<title>工作表.4</title>
					<desc>0x100</desc>
					<v:textBlock v:margins="rect(4,4,4,4)" v:tabSpace="42.5197"/>
					<v:textRect cx="21.2598" cy="490.293" width="42.52" height="17.0079"/>
					<rect x="0" y="481.789" width="42.5197" height="17.0079" class="st4"/>
					<text x="6.26" y="493.89" class="st3" v:langID="2052"><v:paragraph v:horizAlign="1"/><v:tabList/>0x100</text>				</g>
				<g id="shape5-13" v:mID="5" v:groupContext="shape" transform="translate(0,-102.047)">
					<title>工作表.5</title>
					<desc>File Directory</desc>
					<v:textBlock v:margins="rect(4,4,4,4)" v:tabSpace="42.5197"/>
					<v:textRect cx="42.5197" cy="491.711" width="85.04" height="14.1732"/>
					<rect x="0" y="484.624" width="85.0394" height="14.1732" class="st5"/>
					<text x="8.7" y="495.31" class="st3" v:langID="2052"><v:paragraph v:horizAlign="1"/><v:tabList/>File Directory</text>				</g>
			</g>
			<g id="shape8-16" v:mID="8" v:groupContext="shape" transform="translate(177.024,-367.652)">
				<title>工作表.8</title>
				<rect x="0" y="475.742" width="91.8425" height="23.0551" class="st1"/>
			</g>
			<g id="shape9-18" v:mID="9" v:groupContext="shape" transform="translate(177.024,-344.597)">
				<title>工作表.9</title>
				<rect x="0" y="475.742" width="91.8425" height="23.0551" class="st6"/>
			</g>
			<g id="shape10-20" v:mID="10" v:groupContext="shape" transform="translate(177.024,-321.542)">
				<title>工作表.10</title>
				<rect x="0" y="475.742" width="91.8425" height="23.0551" class="st1"/>
			</g>
			<g id="shape11-22" v:mID="11" v:groupContext="shape" transform="translate(177.024,-298.487)">
				<title>工作表.11</title>
				<rect x="0" y="475.742" width="91.8425" height="23.0551" class="st1"/>
			</g>
			<g id="shape12-24" v:mID="12" v:groupContext="shape" transform="translate(177.024,-251.992)">
				<title>工作表.12</title>
				<desc>...</desc>
				<v:textBlock v:margins="rect(4,4,4,4)" v:tabSpace="42.5197"/>
				<v:textRect cx="45.9213" cy="475.704" width="91.85" height="46.1871" transform="rotate(-90)"/>
				<rect x="0" y="452.61" width="91.8425" height="46.1871" class="st1"/>
				<text x="-480.2" y="49.52" transform="rotate(-90)" class="st3" v:langID="2052"><v:paragraph v:horizAlign="1"/><v:tabList/>...</text>			</g>
			<g id="shape15-27" v:mID="15" v:groupContext="shape" transform="translate(177.024,-205.959)">
				<title>工作表.15</title>
				<rect x="0" y="475.742" width="91.8425" height="23.0551" class="st2"/>
			</g>
			<g id="shape16-29" v:mID="16" v:groupContext="shape" transform="translate(177.024,-184.748)">
				<title>工作表.16</title>
				<rect x="0" y="475.742" width="91.8425" height="23.0551" class="st2"/>
			</g>
			<g id="shape17-31" v:mID="17" v:groupContext="shape" transform="translate(177.024,-161.693)">
				<title>工作表.17</title>
				<rect x="0" y="475.742" width="91.8425" height="23.0551" class="st2"/>
			</g>
			<g id="shape19-33" v:mID="19" v:groupContext="shape" transform="translate(177.024,-115.276)">
				<title>工作表.19</title>
				<desc>...</desc>
				<v:textBlock v:margins="rect(4,4,4,4)" v:tabSpace="42.5197"/>
				<v:textRect cx="45.9213" cy="475.55" width="91.85" height="46.4945" transform="rotate(-90)"/>
				<rect x="0" y="452.303" width="91.8425" height="46.4945" class="st1"/>
				<text x="-480.05" y="49.52" transform="rotate(-90)" class="st3" v:langID="2052"><v:paragraph v:horizAlign="1"/><v:tabList/>...</text>			</g>
			<g id="shape20-36" v:mID="20" v:groupContext="shape" transform="translate(177.024,-92.2205)">
				<title>工作表.20</title>
				<rect x="0" y="475.742" width="91.8425" height="23.0551" class="st2"/>
			</g>
			<g id="shape21-38" v:mID="21" v:groupContext="shape" transform="translate(177.024,-69.1654)">
				<title>工作表.21</title>
				<rect x="0" y="475.742" width="91.8425" height="23.0551" class="st2"/>
			</g>
			<g id="shape22-40" v:mID="22" v:groupContext="shape" transform="translate(177.024,-46.1102)">
				<title>工作表.22</title>
				<rect x="0" y="475.742" width="91.8425" height="23.0551" class="st2"/>
			</g>
			<g id="shape23-42" v:mID="23" v:groupContext="shape" transform="translate(177.024,-23.0551)">
				<title>工作表.23</title>
				<rect x="0" y="475.742" width="91.8425" height="23.0551" class="st7"/>
			</g>
			<g id="shape24-44" v:mID="24" v:groupContext="shape" transform="translate(123.732,-356.893)">
				<title>工作表.24</title>
				<desc>0x100</desc>
				<v:textBlock v:margins="rect(4,4,4,4)" v:tabSpace="42.5197"/>
				<v:textRect cx="26.6457" cy="487.27" width="53.3" height="23.0551"/>
				<rect x="0" y="475.742" width="53.2913" height="23.0551" class="st5"/>
				<text x="11.65" y="490.87" class="st3" v:langID="2052"><v:paragraph v:horizAlign="1"/><v:tabList/>0x100</text>			</g>
			<g id="shape25-47" v:mID="25" v:groupContext="shape" transform="translate(123.732,-333.838)">
				<title>工作表.25</title>
				<desc>0x101</desc>
				<v:textBlock v:margins="rect(4,4,4,4)" v:tabSpace="42.5197"/>
				<v:textRect cx="26.6457" cy="487.27" width="53.3" height="23.0551"/>
				<rect x="0" y="475.742" width="53.2913" height="23.0551" class="st5"/>
				<text x="11.65" y="490.87" class="st3" v:langID="2052"><v:paragraph v:horizAlign="1"/><v:tabList/>0x101</text>			</g>
			<g id="shape26-50" v:mID="26" v:groupContext="shape" transform="translate(123.732,-310.783)">
				<title>工作表.26</title>
				<desc>0x102</desc>
				<v:textBlock v:margins="rect(4,4,4,4)" v:tabSpace="42.5197"/>
				<v:textRect cx="26.6457" cy="487.27" width="53.3" height="23.0551"/>
				<rect x="0" y="475.742" width="53.2913" height="23.0551" class="st5"/>
				<text x="11.65" y="490.87" class="st3" v:langID="2052"><v:paragraph v:horizAlign="1"/><v:tabList/>0x102</text>			</g>
			<g id="shape27-53" v:mID="27" v:groupContext="shape" transform="translate(177.024,-390.707)">
				<title>工作表.27</title>
				<desc>Disk (By Block)</desc>
				<v:textBlock v:margins="rect(4,4,4,4)" v:tabSpace="42.5197"/>
				<v:textRect cx="45.9213" cy="486.655" width="91.85" height="24.2847"/>
				<rect x="0" y="474.513" width="91.8425" height="24.2847" class="st5"/>
				<text x="6.26" y="490.26" class="st3" v:langID="2052"><v:paragraph v:horizAlign="1"/><v:tabList/>Disk (By Block)</text>			</g>
			<g id="shape28-56" v:mID="28" v:groupContext="shape" transform="translate(123.732,-217.026)">
				<title>工作表.28</title>
				<desc>0xA00</desc>
				<v:textBlock v:margins="rect(4,4,4,4)" v:tabSpace="42.5197"/>
				<v:textRect cx="26.6457" cy="487.27" width="53.3" height="23.0551"/>
				<rect x="0" y="475.742" width="53.2913" height="23.0551" class="st5"/>
				<text x="10.31" y="490.87" class="st3" v:langID="2052"><v:paragraph v:horizAlign="1"/><v:tabList/>0xA00</text>			</g>
			<g id="shape29-59" v:mID="29" v:groupContext="shape" transform="translate(123.732,-193.97)">
				<title>工作表.29</title>
				<desc>0xA01</desc>
				<v:textBlock v:margins="rect(4,4,4,4)" v:tabSpace="42.5197"/>
				<v:textRect cx="26.6457" cy="487.27" width="53.3" height="23.0551"/>
				<rect x="0" y="475.742" width="53.2913" height="23.0551" class="st5"/>
				<text x="10.31" y="490.87" class="st3" v:langID="2052"><v:paragraph v:horizAlign="1"/><v:tabList/>0xA01</text>			</g>
			<g id="shape30-62" v:mID="30" v:groupContext="shape" transform="translate(123.732,-170.915)">
				<title>工作表.30</title>
				<desc>0xA02</desc>
				<v:textBlock v:margins="rect(4,4,4,4)" v:tabSpace="42.5197"/>
				<v:textRect cx="26.6457" cy="487.27" width="53.3" height="23.0551"/>
				<rect x="0" y="475.742" width="53.2913" height="23.0551" class="st5"/>
				<text x="10.31" y="490.87" class="st3" v:langID="2052"><v:paragraph v:horizAlign="1"/><v:tabList/>0xA02</text>			</g>
			<g id="shape31-65" v:mID="31" v:groupContext="shape" transform="translate(177.024,-228.937)">
				<title>工作表.31</title>
				<rect x="0" y="475.742" width="91.8425" height="23.0551" class="st1"/>
			</g>
			<g id="shape32-67" v:mID="32" v:groupContext="shape" transform="translate(123.732,-80.2318)">
				<title>工作表.32</title>
				<desc>0xD00</desc>
				<v:textBlock v:margins="rect(4,4,4,4)" v:tabSpace="42.5197"/>
				<v:textRect cx="26.6457" cy="487.27" width="53.3" height="23.0551"/>
				<rect x="0" y="475.742" width="53.2913" height="23.0551" class="st5"/>
				<text x="10.31" y="490.87" class="st3" v:langID="2052"><v:paragraph v:horizAlign="1"/><v:tabList/>0xD00</text>			</g>
			<g id="shape33-70" v:mID="33" v:groupContext="shape" transform="translate(123.732,-57.1767)">
				<title>工作表.33</title>
				<desc>0xD01</desc>
				<v:textBlock v:margins="rect(4,4,4,4)" v:tabSpace="42.5197"/>
				<v:textRect cx="26.6457" cy="487.27" width="53.3" height="23.0551"/>
				<rect x="0" y="475.742" width="53.2913" height="23.0551" class="st5"/>
				<text x="10.31" y="490.87" class="st3" v:langID="2052"><v:paragraph v:horizAlign="1"/><v:tabList/>0xD01</text>			</g>
			<g id="shape34-73" v:mID="34" v:groupContext="shape" transform="translate(123.732,-34.1216)">
				<title>工作表.34</title>
				<desc>0xD02</desc>
				<v:textBlock v:margins="rect(4,4,4,4)" v:tabSpace="42.5197"/>
				<v:textRect cx="26.6457" cy="487.27" width="53.3" height="23.0551"/>
				<rect x="0" y="475.742" width="53.2913" height="23.0551" class="st5"/>
				<text x="10.31" y="490.87" class="st3" v:langID="2052"><v:paragraph v:horizAlign="1"/><v:tabList/>0xD02</text>			</g>
			<g id="shape35-76" v:mID="35" v:groupContext="shape" transform="translate(177.024,0)">
				<title>工作表.35</title>
				<rect x="0" y="475.742" width="91.8425" height="23.0551" class="st1"/>
			</g>
			<g id="shape36-78" v:mID="36" v:groupContext="shape" transform="translate(492.236,-428.287)">
				<title>工作表.36</title>
				<desc>0xA02</desc>
				<v:textBlock v:margins="rect(4,4,4,4)" v:tabSpace="42.5197"/>
				<v:textRect cx="42.5197" cy="490.421" width="85.04" height="16.7525"/>
				<rect x="0" y="482.045" width="85.0394" height="16.7525" class="st8"/>
				<text x="26.19" y="494.02" class="st3" v:langID="2052"><v:paragraph v:horizAlign="1"/><v:tabList/>0xA02</text>			</g>
			<g id="shape37-81" v:mID="37" v:groupContext="shape" transform="translate(492.236,-411.534)">
				<title>工作表.37</title>
				<desc>0xD01</desc>
				<v:textBlock v:margins="rect(4,4,4,4)" v:tabSpace="42.5197"/>
				<v:textRect cx="42.5197" cy="490.421" width="85.04" height="16.7525"/>
				<rect x="0" y="482.045" width="85.0394" height="16.7525" class="st8"/>
				<text x="26.19" y="494.02" class="st3" v:langID="2052"><v:paragraph v:horizAlign="1"/><v:tabList/>0xD01</text>			</g>
			<g id="shape38-84" v:mID="38" v:groupContext="shape" transform="translate(492.236,-394.782)">
				<title>工作表.38</title>
				<rect x="0" y="482.045" width="85.0394" height="16.7525" class="st8"/>
			</g>
			<g id="shape39-86" v:mID="39" v:groupContext="shape" transform="translate(492.236,-378.029)">
				<title>工作表.39</title>
				<rect x="0" y="482.045" width="85.0394" height="16.7525" class="st8"/>
			</g>
			<g id="shape40-88" v:mID="40" v:groupContext="shape" transform="translate(492.236,-361.277)">
				<title>工作表.40</title>
				<rect x="0" y="482.045" width="85.0394" height="16.7525" class="st8"/>
			</g>
			<g id="shape41-90" v:mID="41" v:groupContext="shape" transform="translate(492.236,-344.524)">
				<title>工作表.41</title>
				<rect x="0" y="482.045" width="85.0394" height="16.7525" class="st8"/>
			</g>
			<g id="shape42-92" v:mID="42" v:groupContext="shape" transform="translate(492.236,-327.772)">
				<title>工作表.42</title>
				<rect x="0" y="482.045" width="85.0394" height="16.7525" class="st8"/>
			</g>
			<g id="shape43-94" v:mID="43" v:groupContext="shape" transform="translate(492.236,-311.019)">
				<title>工作表.43</title>
				<rect x="0" y="482.045" width="85.0394" height="16.7525" class="st8"/>
			</g>
			<g id="shape44-96" v:mID="44" v:groupContext="shape" transform="translate(492.236,-294.267)">
				<title>工作表.44</title>
				<rect x="0" y="482.045" width="85.0394" height="16.7525" class="st8"/>
			</g>
			<g id="shape45-98" v:mID="45" v:groupContext="shape" transform="translate(492.236,-277.514)">
				<title>工作表.45</title>
				<desc>0xA00</desc>
				<v:textBlock v:margins="rect(4,4,4,4)" v:tabSpace="42.5197"/>
				<v:textRect cx="42.5197" cy="490.421" width="85.04" height="16.7525"/>
				<rect x="0" y="482.045" width="85.0394" height="16.7525" class="st8"/>
				<text x="26.19" y="494.02" class="st3" v:langID="2052"><v:paragraph v:horizAlign="1"/><v:tabList/>0xA00</text>			</g>
			<g id="shape52-101" v:mID="52" v:groupContext="shape" transform="translate(492.236,-260.762)">
				<title>工作表.52</title>
				<desc>0xD02</desc>
				<v:textBlock v:margins="rect(4,4,4,4)" v:tabSpace="42.5197"/>
				<v:textRect cx="42.5197" cy="490.421" width="85.04" height="16.7525"/>
				<rect x="0" y="482.045" width="85.0394" height="16.7525" class="st9"/>
				<text x="26.19" y="494.02" class="st3" v:langID="2052"><v:paragraph v:horizAlign="1"/><v:tabList/>0xD02</text>			</g>
			<g id="shape53-104" v:mID="53" v:groupContext="shape" transform="translate(492.236,-244.009)">
				<title>工作表.53</title>
				<rect x="0" y="482.045" width="85.0394" height="16.7525" class="st10"/>
			</g>
			<g id="shape54-106" v:mID="54" v:groupContext="shape" transform="translate(492.236,-212.598)">
				<title>工作表.54</title>
				<desc>...</desc>
				<v:textBlock v:margins="rect(4,4,4,4)" v:tabSpace="42.5197"/>
				<v:textRect cx="42.5197" cy="483.092" width="85.04" height="31.4109" transform="rotate(-90)"/>
				<rect x="0" y="467.386" width="85.0394" height="31.4109" class="st1"/>
				<text x="-487.59" y="46.12" transform="rotate(-90)" class="st3" v:langID="2052"><v:paragraph v:horizAlign="1"/><v:tabList/>...</text>			</g>
			<g id="shape57-109" v:mID="57" v:groupContext="shape" transform="translate(577.276,-428.265)">
				<title>工作表.57</title>
				<desc>0</desc>
				<v:textBlock v:margins="rect(4,4,4,4)" v:tabSpace="42.5197"/>
				<v:textRect cx="19.8425" cy="490.41" width="39.69" height="16.7741"/>
				<rect x="0" y="482.023" width="39.685" height="16.7741" class="st5"/>
				<text x="16.84" y="494.01" class="st3" v:langID="2052"><v:paragraph v:horizAlign="1"/><v:tabList/>0</text>			</g>
			<g id="shape58-112" v:mID="58" v:groupContext="shape" transform="translate(577.276,-411.491)">
				<title>工作表.58</title>
				<desc>1</desc>
				<v:textBlock v:margins="rect(4,4,4,4)" v:tabSpace="42.5197"/>
				<v:textRect cx="19.8425" cy="490.41" width="39.69" height="16.7741"/>
				<rect x="0" y="482.023" width="39.685" height="16.7741" class="st5"/>
				<text x="16.84" y="494.01" class="st3" v:langID="2052"><v:paragraph v:horizAlign="1"/><v:tabList/>1</text>			</g>
			<g id="shape59-115" v:mID="59" v:groupContext="shape" transform="translate(577.276,-394.717)">
				<title>工作表.59</title>
				<desc>2</desc>
				<v:textBlock v:margins="rect(4,4,4,4)" v:tabSpace="42.5197"/>
				<v:textRect cx="19.8425" cy="490.41" width="39.69" height="16.7741"/>
				<rect x="0" y="482.023" width="39.685" height="16.7741" class="st5"/>
				<text x="16.84" y="494.01" class="st3" v:langID="2052"><v:paragraph v:horizAlign="1"/><v:tabList/>2</text>			</g>
			<g id="shape60-118" v:mID="60" v:groupContext="shape" transform="translate(577.276,-377.943)">
				<title>工作表.60</title>
				<desc>3</desc>
				<v:textBlock v:margins="rect(4,4,4,4)" v:tabSpace="42.5197"/>
				<v:textRect cx="19.8425" cy="490.41" width="39.69" height="16.7741"/>
				<rect x="0" y="482.023" width="39.685" height="16.7741" class="st5"/>
				<text x="16.84" y="494.01" class="st3" v:langID="2052"><v:paragraph v:horizAlign="1"/><v:tabList/>3</text>			</g>
			<g id="shape61-121" v:mID="61" v:groupContext="shape" transform="translate(577.276,-361.169)">
				<title>工作表.61</title>
				<desc>4</desc>
				<v:textBlock v:margins="rect(4,4,4,4)" v:tabSpace="42.5197"/>
				<v:textRect cx="19.8425" cy="490.41" width="39.69" height="16.7741"/>
				<rect x="0" y="482.023" width="39.685" height="16.7741" class="st5"/>
				<text x="16.84" y="494.01" class="st3" v:langID="2052"><v:paragraph v:horizAlign="1"/><v:tabList/>4</text>			</g>
			<g id="shape62-124" v:mID="62" v:groupContext="shape" transform="translate(577.276,-344.395)">
				<title>工作表.62</title>
				<desc>5</desc>
				<v:textBlock v:margins="rect(4,4,4,4)" v:tabSpace="42.5197"/>
				<v:textRect cx="19.8425" cy="490.41" width="39.69" height="16.7741"/>
				<rect x="0" y="482.023" width="39.685" height="16.7741" class="st5"/>
				<text x="16.84" y="494.01" class="st3" v:langID="2052"><v:paragraph v:horizAlign="1"/><v:tabList/>5</text>			</g>
			<g id="shape63-127" v:mID="63" v:groupContext="shape" transform="translate(577.276,-327.621)">
				<title>工作表.63</title>
				<desc>6</desc>
				<v:textBlock v:margins="rect(4,4,4,4)" v:tabSpace="42.5197"/>
				<v:textRect cx="19.8425" cy="490.41" width="39.69" height="16.7741"/>
				<rect x="0" y="482.023" width="39.685" height="16.7741" class="st5"/>
				<text x="16.84" y="494.01" class="st3" v:langID="2052"><v:paragraph v:horizAlign="1"/><v:tabList/>6</text>			</g>
			<g id="shape64-130" v:mID="64" v:groupContext="shape" transform="translate(577.276,-310.847)">
				<title>工作表.64</title>
				<desc>7</desc>
				<v:textBlock v:margins="rect(4,4,4,4)" v:tabSpace="42.5197"/>
				<v:textRect cx="19.8425" cy="490.41" width="39.69" height="16.7741"/>
				<rect x="0" y="482.023" width="39.685" height="16.7741" class="st5"/>
				<text x="16.84" y="494.01" class="st3" v:langID="2052"><v:paragraph v:horizAlign="1"/><v:tabList/>7</text>			</g>
			<g id="shape65-133" v:mID="65" v:groupContext="shape" transform="translate(577.276,-294.073)">
				<title>工作表.65</title>
				<desc>8</desc>
				<v:textBlock v:margins="rect(4,4,4,4)" v:tabSpace="42.5197"/>
				<v:textRect cx="19.8425" cy="490.41" width="39.69" height="16.7741"/>
				<rect x="0" y="482.023" width="39.685" height="16.7741" class="st5"/>
				<text x="16.84" y="494.01" class="st3" v:langID="2052"><v:paragraph v:horizAlign="1"/><v:tabList/>8</text>			</g>
			<g id="shape66-136" v:mID="66" v:groupContext="shape" transform="translate(577.276,-277.298)">
				<title>工作表.66</title>
				<desc>9</desc>
				<v:textBlock v:margins="rect(4,4,4,4)" v:tabSpace="42.5197"/>
				<v:textRect cx="19.8425" cy="490.41" width="39.69" height="16.7741"/>
				<rect x="0" y="482.023" width="39.685" height="16.7741" class="st5"/>
				<text x="16.84" y="494.01" class="st3" v:langID="2052"><v:paragraph v:horizAlign="1"/><v:tabList/>9</text>			</g>
			<g id="shape67-139" v:mID="67" v:groupContext="shape" transform="translate(577.276,-260.524)">
				<title>工作表.67</title>
				<desc>10</desc>
				<v:textBlock v:margins="rect(4,4,4,4)" v:tabSpace="42.5197"/>
				<v:textRect cx="19.8425" cy="490.41" width="39.69" height="16.7741"/>
				<rect x="0" y="482.023" width="39.685" height="16.7741" class="st5"/>
				<text x="13.84" y="494.01" class="st3" v:langID="2052"><v:paragraph v:horizAlign="1"/><v:tabList/>10</text>			</g>
			<g id="shape68-142" v:mID="68" v:groupContext="shape" transform="translate(577.276,-243.75)">
				<title>工作表.68</title>
				<desc>11</desc>
				<v:textBlock v:margins="rect(4,4,4,4)" v:tabSpace="42.5197"/>
				<v:textRect cx="19.8425" cy="490.41" width="39.69" height="16.7741"/>
				<rect x="0" y="482.023" width="39.685" height="16.7741" class="st5"/>
				<text x="13.84" y="494.01" class="st3" v:langID="2052"><v:paragraph v:horizAlign="1"/><v:tabList/>11</text>			</g>
			<g id="shape70-145" v:mID="70" v:groupContext="shape" transform="translate(492.236,-445.039)">
				<title>工作表.70</title>
				<desc>inode</desc>
				<v:textBlock v:margins="rect(4,4,4,4)" v:tabSpace="42.5197"/>
				<v:textRect cx="42.5197" cy="490.293" width="85.04" height="17.0079"/>
				<rect x="0" y="481.789" width="85.0394" height="17.0079" class="st5"/>
				<text x="29.19" y="493.89" class="st3" v:langID="2052"><v:paragraph v:horizAlign="1"/><v:tabList/>inode</text>			</g>
			<g id="shape71-148" v:mID="71" v:groupContext="shape" transform="translate(492.236,-173.169)">
				<title>工作表.71</title>
				<desc>0xA01</desc>
				<v:textBlock v:margins="rect(4,4,4,4)" v:tabSpace="42.5197"/>
				<v:textRect cx="42.5197" cy="490.421" width="85.04" height="16.7525"/>
				<rect x="0" y="482.045" width="85.0394" height="16.7525" class="st8"/>
				<text x="26.19" y="494.02" class="st3" v:langID="2052"><v:paragraph v:horizAlign="1"/><v:tabList/>0xA01</text>			</g>
			<g id="shape72-151" v:mID="72" v:groupContext="shape" transform="translate(492.236,-156.416)">
				<title>工作表.72</title>
				<desc>0xD00</desc>
				<v:textBlock v:margins="rect(4,4,4,4)" v:tabSpace="42.5197"/>
				<v:textRect cx="42.5197" cy="490.421" width="85.04" height="16.7525"/>
				<rect x="0" y="482.045" width="85.0394" height="16.7525" class="st8"/>
				<text x="26.19" y="494.02" class="st3" v:langID="2052"><v:paragraph v:horizAlign="1"/><v:tabList/>0xD00</text>			</g>
			<g id="shape77-154" v:mID="77" v:groupContext="shape" transform="translate(492.236,-122.827)">
				<title>工作表.77</title>
				<desc>...</desc>
				<v:textBlock v:margins="rect(4,4,4,4)" v:tabSpace="42.5197"/>
				<v:textRect cx="42.5197" cy="481.975" width="85.04" height="33.6454" transform="rotate(-90)"/>
				<rect x="0" y="465.152" width="85.0394" height="33.6454" class="st8"/>
				<text x="-486.47" y="46.12" transform="rotate(-90)" class="st3" v:langID="2052"><v:paragraph v:horizAlign="1"/><v:tabList/>...</text>			</g>
			<g id="shape78-157" v:mID="78" v:groupContext="shape" transform="translate(492.236,-106.074)">
				<title>工作表.78</title>
				<rect x="0" y="482.045" width="85.0394" height="16.7525" class="st8"/>
			</g>
			<g id="shape79-159" v:mID="79" v:groupContext="shape" transform="translate(492.236,-89.322)">
				<title>工作表.79</title>
				<rect x="0" y="482.045" width="85.0394" height="16.7525" class="st8"/>
			</g>
			<g id="shape80-161" v:mID="80" v:groupContext="shape" transform="translate(492.236,-72.5695)">
				<title>工作表.80</title>
				<desc>0xCFF</desc>
				<v:textBlock v:margins="rect(4,4,4,4)" v:tabSpace="42.5197"/>
				<v:textRect cx="42.5197" cy="490.421" width="85.04" height="16.7525"/>
				<rect x="0" y="482.045" width="85.0394" height="16.7525" class="st8"/>
				<text x="25.84" y="494.02" class="st3" v:langID="2052"><v:paragraph v:horizAlign="1"/><v:tabList/>0xCFF</text>			</g>
			<g id="shape84-164" v:mID="84" v:groupContext="shape" transform="translate(577.276,-173.147)">
				<title>工作表.84</title>
				<desc>10</desc>
				<v:textBlock v:margins="rect(4,4,4,4)" v:tabSpace="42.5197"/>
				<v:textRect cx="19.8425" cy="490.41" width="39.69" height="16.7741"/>
				<rect x="0" y="482.023" width="39.685" height="16.7741" class="st5"/>
				<text x="13.84" y="494.01" class="st3" v:langID="2052"><v:paragraph v:horizAlign="1"/><v:tabList/>10</text>			</g>
			<g id="shape85-167" v:mID="85" v:groupContext="shape" transform="translate(577.276,-156.373)">
				<title>工作表.85</title>
				<desc>11</desc>
				<v:textBlock v:margins="rect(4,4,4,4)" v:tabSpace="42.5197"/>
				<v:textRect cx="19.8425" cy="490.41" width="39.69" height="16.7741"/>
				<rect x="0" y="482.023" width="39.685" height="16.7741" class="st5"/>
				<text x="13.84" y="494.01" class="st3" v:langID="2052"><v:paragraph v:horizAlign="1"/><v:tabList/>11</text>			</g>
			<g id="shape91-170" v:mID="91" v:groupContext="shape" transform="translate(577.276,-105.902)">
				<title>工作表.91</title>
				<desc>135</desc>
				<v:textBlock v:margins="rect(4,4,4,4)" v:tabSpace="42.5197"/>
				<v:textRect cx="19.8425" cy="490.41" width="39.69" height="16.7741"/>
				<rect x="0" y="482.023" width="39.685" height="16.7741" class="st5"/>
				<text x="10.84" y="494.01" class="st3" v:langID="2052"><v:paragraph v:horizAlign="1"/><v:tabList/>135</text>			</g>
			<g id="shape92-173" v:mID="92" v:groupContext="shape" transform="translate(577.276,-89.1277)">
				<title>工作表.92</title>
				<desc>136</desc>
				<v:textBlock v:margins="rect(4,4,4,4)" v:tabSpace="42.5197"/>
				<v:textRect cx="19.8425" cy="490.41" width="39.69" height="16.7741"/>
				<rect x="0" y="482.023" width="39.685" height="16.7741" class="st5"/>
				<text x="10.84" y="494.01" class="st3" v:langID="2052"><v:paragraph v:horizAlign="1"/><v:tabList/>136</text>			</g>
			<g id="shape93-176" v:mID="93" v:groupContext="shape" transform="translate(577.276,-72.3536)">
				<title>工作表.93</title>
				<desc>137</desc>
				<v:textBlock v:margins="rect(4,4,4,4)" v:tabSpace="42.5197"/>
				<v:textRect cx="19.8425" cy="490.41" width="39.69" height="16.7741"/>
				<rect x="0" y="482.023" width="39.685" height="16.7741" class="st5"/>
				<text x="10.84" y="494.01" class="st3" v:langID="2052"><v:paragraph v:horizAlign="1"/><v:tabList/>137</text>			</g>
			<g id="shape97-179" v:mID="97" v:groupContext="shape" transform="translate(472.394,-190.796)">
				<title>工作表.97</title>
				<desc>Primary Index Block</desc>
				<v:textBlock v:margins="rect(4,4,4,4)" v:tabSpace="42.5197"/>
				<v:textRect cx="62.3622" cy="490.293" width="124.73" height="17.0079"/>
				<rect x="0" y="481.789" width="124.724" height="17.0079" class="st5"/>
				<text x="12.04" y="493.89" class="st3" v:langID="2052"><v:paragraph v:horizAlign="1"/><v:tabList/>Primary Index Block</text>			</g>
			<g id="shape98-182" v:mID="98" v:groupContext="shape" transform="translate(123.732,-103.087)">
				<title>工作表.98</title>
				<desc>0xCFF</desc>
				<v:textBlock v:margins="rect(4,4,4,4)" v:tabSpace="42.5197"/>
				<v:textRect cx="26.6457" cy="487.27" width="53.3" height="23.0551"/>
				<rect x="0" y="475.742" width="53.2913" height="23.0551" class="st5"/>
				<text x="9.97" y="490.87" class="st3" v:langID="2052"><v:paragraph v:horizAlign="1"/><v:tabList/>0xCFF</text>			</g>
			<g id="shape99-185" v:mID="99" v:groupContext="shape" transform="translate(85.0394,-206.929)">
				<title>工作表.99</title>
				<path d="M0 498.8 L30.19 498.8 L30.19 337.22 L47.2 337.22" class="st11"/>
			</g>
			<g id="shape100-188" v:mID="100" v:groupContext="shape" transform="translate(268.866,-184.748)">
				<title>工作表.100</title>
				<path d="M223.37 247.01 L26.08 247.01 L26.08 498.8 L12.06 498.8" class="st12"/>
			</g>
			<g id="shape101-194" v:mID="101" v:groupContext="shape" transform="translate(268.866,-69.1654)">
				<title>工作表.101</title>
				<path d="M223.37 148.44 L53.29 148.44 L53.29 498.8 L12.06 498.8" class="st12"/>
			</g>
			<g id="shape102-199" v:mID="102" v:groupContext="shape" transform="translate(268.866,-229.014)">
				<title>工作表.102</title>
				<path d="M223.37 441.51 L78.8 441.51 L78.8 498.8 L12.06 498.8" class="st12"/>
			</g>
			<g id="shape107-204" v:mID="107" v:groupContext="shape" transform="translate(268.866,-180.895)">
				<title>工作表.107</title>
				<path d="M223.37 498.8 L78.28 498.8 L78.28 471.94 L12.06 471.9" class="st12"/>
			</g>
			<g id="shape108-209" v:mID="108" v:groupContext="shape" transform="translate(268.866,-92.2205)">
				<title>工作表.108</title>
				<path d="M223.37 426.04 L78.65 426.04 L78.65 498.8 L12.06 498.8" class="st12"/>
			</g>
			<g id="shape109-214" v:mID="109" v:groupContext="shape" transform="translate(268.866,-46.2047)">
				<title>工作表.109</title>
				<path d="M223.37 276.84 L104.31 276.84 L104.31 498.8 L12.06 498.8" class="st12"/>
			</g>
			<g id="shape110-219" v:mID="110" v:groupContext="shape" transform="translate(268.866,-80.7874)">
				<title>工作表.110</title>
				<path d="M223.37 498.8 L131.24 498.8 L131.24 464.36 L12.06 464.36" class="st12"/>
			</g>
			<g id="shape111-224" v:mID="111" v:groupContext="shape" transform="translate(115.494,-311.548) rotate(-19.1088)">
				<title>工作表.111</title>
				<path d="M-0 468.51 A223.37 77.3871 -160.89 0 0 236.4 468.51" class="st14"/>
			</g>
			<g id="shape112-227" v:mID="112" v:groupContext="shape" transform="translate(522.629,-275.222) rotate(30.5806)">
				<title>工作表.112</title>
				<path d="M-0 498.8 A223.37 131.999 149.42 0 1 259.46 498.8" class="st14"/>
			</g>
			<g id="shape113-230" v:mID="113" v:groupContext="shape" transform="translate(25.9639,75.4065) rotate(-32.7744)">
				<title>工作表.113</title>
				<path d="M-0 448.71 A223.37 143.811 -147.23 0 0 265.66 448.71" class="st14"/>
			</g>
			<g id="shape114-233" v:mID="114" v:groupContext="shape" transform="translate(165.252,8.31474) rotate(-12.4986)">
				<title>工作表.114</title>
				<path d="M0 478.77 A223.37 49.5144 -167.5 0 0 228.79 478.77" class="st14"/>
			</g>
		</g>
	</g>
</svg>
