<?xml version="1.0" encoding="UTF-8" standalone="no"?>
<!DOCTYPE svg PUBLIC "-//W3C//DTD SVG 1.1//EN" "http://www.w3.org/Graphics/SVG/1.1/DTD/svg11.dtd">
<!-- 由 Microsoft Visio, SVG Export 生成 OS-Page-Directory-Self-Mapping.svg 页-1 -->
<svg xmlns="http://www.w3.org/2000/svg" xmlns:xlink="http://www.w3.org/1999/xlink" xmlns:ev="http://www.w3.org/2001/xml-events"
		xmlns:v="http://schemas.microsoft.com/visio/2003/SVGExtensions/" width="10.0899in" height="7.30693in"
		viewBox="0 0 726.469 526.099" xml:space="preserve" color-interpolation-filters="sRGB" class="st17">
	<v:documentProperties v:langID="2052" v:metric="true" v:viewMarkup="false"/>

	<style type="text/css">
	<![CDATA[
		.st1 {fill:#f2f2f2;stroke:#000000;stroke-linecap:round;stroke-linejoin:round;stroke-width:1}
		.st2 {fill:#000000;font-family:Times New Roman;font-size:1.00001em}
		.st3 {fill:#b7dde8;stroke:#000000;stroke-linecap:round;stroke-linejoin:round;stroke-width:1}
		.st4 {fill:none;stroke:none;stroke-linecap:round;stroke-linejoin:round;stroke-width:0.75}
		.st5 {stroke:#000000;stroke-linecap:round;stroke-linejoin:round;stroke-width:0.75}
		.st6 {marker-start:url(#mrkr5-41);stroke:#000000;stroke-linecap:round;stroke-linejoin:round;stroke-width:0.75}
		.st7 {fill:#000000;fill-opacity:1;stroke:#000000;stroke-opacity:1;stroke-width:0.22935779816514}
		.st8 {fill:#fbd7bb;stroke:#000000;stroke-linecap:round;stroke-linejoin:round;stroke-width:1}
		.st9 {fill:#000000;font-family:Times New Roman;font-size:0.833336em}
		.st10 {marker-end:url(#mrkr13-100);marker-start:url(#mrkr13-98);stroke:#000000;stroke-linecap:round;stroke-linejoin:round;stroke-width:0.75}
		.st11 {marker-end:url(#mrkr5-205);stroke:#ff0000;stroke-linecap:round;stroke-linejoin:round;stroke-width:2.25}
		.st12 {fill:#ff0000;fill-opacity:1;stroke:#ff0000;stroke-opacity:1;stroke-width:0.47169811320755}
		.st13 {marker-end:url(#mrkr5-216);stroke:#ff0000;stroke-linecap:round;stroke-linejoin:round;stroke-width:0.75}
		.st14 {fill:#ff0000;fill-opacity:1;stroke:#ff0000;stroke-opacity:1;stroke-width:0.22935779816514}
		.st15 {font-size:1em;font-style:italic}
		.st16 {font-size:1em}
		.st17 {fill:none;fill-rule:evenodd;font-size:12px;overflow:visible;stroke-linecap:square;stroke-miterlimit:3}
	]]>
	</style>

	<defs id="Markers">
		<g id="lend5">
			<path d="M 2 1 L 0 0 L 1.98117 -0.993387 C 1.67173 -0.364515 1.67301 0.372641 1.98465 1.00043 " style="stroke:none"/>
		</g>
		<marker id="mrkr5-41" class="st7" v:arrowType="5" v:arrowSize="2" v:setback="7.15" refX="7.15" orient="auto"
				markerUnits="strokeWidth" overflow="visible">
			<use xlink:href="#lend5" transform="scale(4.36) "/>
		</marker>
		<g id="lend13">
			<path d="M 3 1 L 0 0 L 3 -1 L 3 1 " style="stroke:none"/>
		</g>
		<marker id="mrkr13-98" class="st7" v:arrowType="13" v:arrowSize="2" v:setback="12.6" refX="12.6" orient="auto"
				markerUnits="strokeWidth" overflow="visible">
			<use xlink:href="#lend13" transform="scale(4.36) "/>
		</marker>
		<marker id="mrkr13-100" class="st7" v:arrowType="13" v:arrowSize="2" v:setback="13.08" refX="-13.08" orient="auto"
				markerUnits="strokeWidth" overflow="visible">
			<use xlink:href="#lend13" transform="scale(-4.36,-4.36) "/>
		</marker>
		<marker id="mrkr5-205" class="st12" v:arrowType="5" v:arrowSize="2" v:setback="3.71" refX="-3.71" orient="auto"
				markerUnits="strokeWidth" overflow="visible">
			<use xlink:href="#lend5" transform="scale(-2.12,-2.12) "/>
		</marker>
		<marker id="mrkr5-216" class="st14" v:arrowType="5" v:arrowSize="2" v:setback="7.63" refX="-7.63" orient="auto"
				markerUnits="strokeWidth" overflow="visible">
			<use xlink:href="#lend5" transform="scale(-4.36,-4.36) "/>
		</marker>
	</defs>
	<g v:mID="0" v:index="1" v:groupContext="foregroundPage">
		<title>页-1</title>
		<v:pageProperties v:drawingScale="0.0393701" v:pageScale="0.0393701" v:drawingUnits="24" v:shadowOffsetX="8.50394"
				v:shadowOffsetY="-8.50394"/>
		<g id="group151-1" transform="translate(0.375,-1.26978)" v:mID="151" v:groupContext="group">
			<title>工作表.151</title>
			<g id="shape1-2" v:mID="1" v:groupContext="shape" transform="translate(146.799,-395.433)">
				<title>工作表.1</title>
				<rect x="0" y="502.004" width="92.126" height="24.0945" class="st1"/>
			</g>
			<g id="shape2-4" v:mID="2" v:groupContext="shape" transform="translate(146.799,-371.339)">
				<title>工作表.2</title>
				<rect x="0" y="502.004" width="92.126" height="24.0945" class="st1"/>
			</g>
			<g id="shape3-6" v:mID="3" v:groupContext="shape" transform="translate(146.799,-347.244)">
				<title>工作表.3</title>
				<rect x="0" y="502.004" width="92.126" height="24.0945" class="st1"/>
			</g>
			<g id="shape7-8" v:mID="7" v:groupContext="shape" transform="translate(146.799,-273.543)">
				<title>工作表.7</title>
				<desc>...</desc>
				<v:textBlock v:margins="rect(4,4,4,4)" v:tabSpace="42.5197"/>
				<v:textRect cx="46.063" cy="489.248" width="92.13" height="73.7008" transform="rotate(-90)"/>
				<rect x="0" y="452.398" width="92.126" height="73.7008" class="st1"/>
				<text x="-493.75" y="49.66" transform="rotate(-90)" class="st2" v:langID="2052"><v:paragraph v:horizAlign="1"/><v:tabList/>...</text>			</g>
			<g id="shape8-11" v:mID="8" v:groupContext="shape" transform="translate(146.799,-249.449)">
				<title>工作表.8</title>
				<rect x="0" y="502.004" width="92.126" height="24.0945" class="st3"/>
			</g>
			<g id="shape9-13" v:mID="9" v:groupContext="shape" transform="translate(146.799,-225.354)">
				<title>工作表.9</title>
				<rect x="0" y="502.004" width="92.126" height="24.0945" class="st3"/>
			</g>
			<g id="shape10-15" v:mID="10" v:groupContext="shape" transform="translate(146.799,-153.337)">
				<title>工作表.10</title>
				<desc>...</desc>
				<v:textBlock v:margins="rect(4,4,4,4)" v:tabSpace="42.5197"/>
				<v:textRect cx="46.063" cy="490.09" width="92.13" height="72.0177" transform="rotate(-90)"/>
				<rect x="0" y="454.081" width="92.126" height="72.0177" class="st3"/>
				<text x="-494.59" y="49.66" transform="rotate(-90)" class="st2" v:langID="2052"><v:paragraph v:horizAlign="1"/><v:tabList/>...</text>			</g>
			<g id="shape13-18" v:mID="13" v:groupContext="shape" transform="translate(146.799,-129.313)">
				<title>工作表.13</title>
				<rect x="0" y="502.004" width="92.126" height="24.0945" class="st3"/>
			</g>
			<g id="shape14-20" v:mID="14" v:groupContext="shape" transform="translate(146.799,-105.219)">
				<title>工作表.14</title>
				<rect x="0" y="502.004" width="92.126" height="24.0945" class="st3"/>
			</g>
			<g id="shape15-22" v:mID="15" v:groupContext="shape" transform="translate(146.799,-9.01773)">
				<title>工作表.15</title>
				<rect x="0" y="502.004" width="92.126" height="24.0945" class="st1"/>
			</g>
			<g id="shape17-24" v:mID="17" v:groupContext="shape" transform="translate(66.6142,-482.598)">
				<title>工作表.17</title>
				<desc>0xFFFFFFFF</desc>
				<v:textBlock v:margins="rect(4,4,4,4)" v:tabSpace="42.5197"/>
				<v:textRect cx="39.7913" cy="518.303" width="79.59" height="15.5906"/>
				<rect x="0" y="510.508" width="79.5827" height="15.5906" class="st4"/>
				<text x="10.19" y="521.9" class="st2" v:langID="2052"><v:paragraph v:horizAlign="2"/><v:tabList/>0xFFFFFFFF</text>			</g>
			<g id="shape19-27" v:mID="19" v:groupContext="shape" transform="translate(115.051,0)">
				<title>工作表.19</title>
				<desc>0</desc>
				<v:textBlock v:margins="rect(4,4,4,4)" v:tabSpace="42.5197"/>
				<v:textRect cx="15.874" cy="518.303" width="31.75" height="15.5906"/>
				<rect x="0" y="510.508" width="31.748" height="15.5906" class="st4"/>
				<text x="21.75" y="521.9" class="st2" v:langID="2052"><v:paragraph v:horizAlign="2"/><v:tabList/>0</text>			</g>
			<g id="shape20-30" v:mID="20" v:groupContext="shape" transform="translate(118.453,656.764) rotate(180)">
				<title>工作表.20</title>
				<path d="M0 526.1 L22.68 526.1" class="st5"/>
			</g>
			<g id="shape21-33" v:mID="21" v:groupContext="shape" transform="translate(118.453,680.874) rotate(180)">
				<title>工作表.21</title>
				<path d="M0 526.1 L22.68 526.1" class="st5"/>
			</g>
			<g id="shape23-36" v:mID="23" v:groupContext="shape" transform="translate(-418.984,130.666) rotate(-90)">
				<title>工作表.23</title>
				<path d="M5.36 526.1 L5.72 526.1 L18.05 526.1" class="st6"/>
			</g>
			<g id="shape24-42" v:mID="24" v:groupContext="shape" transform="translate(633.213,154.775) rotate(90)">
				<title>工作表.24</title>
				<path d="M5.36 526.1 L5.72 526.1 L18.41 526.1" class="st6"/>
			</g>
			<g id="shape25-47" v:mID="25" v:groupContext="shape" transform="translate(91.5236,-374.173)">
				<title>工作表.25</title>
				<desc>4KB</desc>
				<v:textBlock v:margins="rect(4,4,4,4)" v:tabSpace="42.5197"/>
				<v:textRect cx="17.0079" cy="516.886" width="34.02" height="18.4252"/>
				<rect x="0" y="507.673" width="34.0157" height="18.4252" class="st4"/>
				<text x="5.67" y="520.49" class="st2" v:langID="2052"><v:paragraph v:horizAlign="1"/><v:tabList/>4KB</text>			</g>
			<g id="shape28-50" v:mID="28" v:groupContext="shape" transform="translate(146.799,-419.528)">
				<title>工作表.28</title>
				<desc>...</desc>
				<v:textBlock v:margins="rect(4,4,4,4)" v:tabSpace="42.5197"/>
				<v:textRect cx="46.063" cy="490.666" width="92.13" height="70.8661" transform="rotate(-90)"/>
				<rect x="0" y="455.232" width="92.126" height="70.8661" class="st1"/>
				<text x="-495.17" y="49.66" transform="rotate(-90)" class="st2" v:langID="2052"><v:paragraph v:horizAlign="1"/><v:tabList/>...</text>			</g>
			<g id="shape31-53" v:mID="31" v:groupContext="shape" transform="translate(146.799,-33.2008)">
				<title>工作表.31</title>
				<desc>...</desc>
				<v:textBlock v:margins="rect(4,4,4,4)" v:tabSpace="42.5197"/>
				<v:textRect cx="46.063" cy="490.09" width="92.13" height="72.0177" transform="rotate(-90)"/>
				<rect x="0" y="454.081" width="92.126" height="72.0177" class="st1"/>
				<text x="-494.59" y="49.66" transform="rotate(-90)" class="st2" v:langID="2052"><v:paragraph v:horizAlign="1"/><v:tabList/>...</text>			</g>
			<g id="shape32-56" v:mID="32" v:groupContext="shape" transform="translate(146.799,-490.394)">
				<title>工作表.32</title>
				<rect x="0" y="502.004" width="92.126" height="24.0945" class="st1"/>
			</g>
			<g id="shape73-58" v:mID="73" v:groupContext="shape" transform="translate(359.398,-358.587)">
				<title>工作表.73</title>
				<rect x="0" y="491.384" width="92.126" height="34.7151" class="st3"/>
			</g>
			<g id="shape74-60" v:mID="74" v:groupContext="shape" transform="translate(359.398,-291.199)">
				<title>工作表.74</title>
				<desc>...</desc>
				<v:textBlock v:margins="rect(4,4,4,4)" v:tabSpace="42.5197"/>
				<v:textRect cx="46.063" cy="492.405" width="92.13" height="67.3882" transform="rotate(-90)"/>
				<rect x="0" y="458.71" width="92.126" height="67.3882" class="st3"/>
				<text x="-496.9" y="49.66" transform="rotate(-90)" class="st2" v:langID="2052"><v:paragraph v:horizAlign="1"/><v:tabList/>...</text>			</g>
			<g id="shape77-63" v:mID="77" v:groupContext="shape" transform="translate(359.398,-256.372)">
				<title>工作表.77</title>
				<rect x="0" y="491.384" width="92.126" height="34.7151" class="st3"/>
			</g>
			<g id="shape78-65" v:mID="78" v:groupContext="shape" transform="translate(359.398,-221.656)">
				<title>工作表.78</title>
				<rect x="0" y="491.384" width="92.126" height="34.7151" class="st8"/>
			</g>
			<g id="shape79-67" v:mID="79" v:groupContext="shape" transform="translate(359.398,-186.941)">
				<title>工作表.79</title>
				<rect x="0" y="491.384" width="92.126" height="34.7151" class="st3"/>
			</g>
			<g id="shape81-69" v:mID="81" v:groupContext="shape" transform="translate(359.398,-117.493)">
				<title>工作表.81</title>
				<desc>...</desc>
				<v:textBlock v:margins="rect(4,4,4,4)" v:tabSpace="42.5197"/>
				<v:textRect cx="46.063" cy="491.384" width="92.13" height="69.4301" transform="rotate(-90)"/>
				<rect x="0" y="456.669" width="92.126" height="69.4301" class="st3"/>
				<text x="-495.88" y="49.66" transform="rotate(-90)" class="st2" v:langID="2052"><v:paragraph v:horizAlign="1"/><v:tabList/>...</text>			</g>
			<g id="shape83-72" v:mID="83" v:groupContext="shape" transform="translate(359.398,-82.7775)">
				<title>工作表.83</title>
				<rect x="0" y="491.384" width="92.126" height="34.7151" class="st3"/>
			</g>
			<g id="shape84-74" v:mID="84" v:groupContext="shape" transform="translate(-131.975,-120.557) rotate(-44.8297)">
				<title>工作表.84</title>
				<path d="M0 526.1 L169.87 526.1" class="st5"/>
			</g>
			<g id="shape85-77" v:mID="85" v:groupContext="shape" transform="translate(335.267,-96.322) rotate(10.5519)">
				<title>工作表.85</title>
				<path d="M0 526.1 L122.54 526.1" class="st5"/>
			</g>
			<g id="shape86-80" v:mID="86" v:groupContext="shape" transform="translate(100.028,-96.6017)">
				<title>工作表.86</title>
				<desc>PTBase</desc>
				<v:textBlock v:margins="rect(4,4,4,4)" v:tabSpace="42.5197"/>
				<v:textRect cx="23.3858" cy="517.595" width="46.78" height="17.0079"/>
				<rect x="0" y="509.091" width="46.7716" height="17.0079" class="st4"/>
				<text x="11.66" y="520.59" class="st9" v:langID="2052"><v:paragraph v:horizAlign="2"/><v:tabList/>PTBase</text>			</g>
			<g id="shape87-83" v:mID="87" v:groupContext="shape" transform="translate(54.6732,-265.039)">
				<title>工作表.87</title>
				<desc>PTBase+0x400000</desc>
				<v:textBlock v:margins="rect(4,4,4,4)" v:tabSpace="42.5197"/>
				<v:textRect cx="46.063" cy="517.595" width="92.13" height="17.0079"/>
				<rect x="0" y="509.091" width="92.126" height="17.0079" class="st4"/>
				<text x="11.38" y="520.59" class="st9" v:langID="2052"><v:paragraph v:horizAlign="2"/><v:tabList/>PTBase+0x400000</text>			</g>
			<g id="shape88-86" v:mID="88" v:groupContext="shape" transform="translate(45.3543,537.709) rotate(180)">
				<title>工作表.88</title>
				<path d="M0 526.1 L22.68 526.1" class="st5"/>
			</g>
			<g id="shape89-89" v:mID="89" v:groupContext="shape" transform="translate(45.3543,1043.13) rotate(180)">
				<title>工作表.89</title>
				<path d="M0 526.1 L22.68 526.1" class="st5"/>
			</g>
			<g id="shape91-92" v:mID="91" v:groupContext="shape" transform="translate(560.114,11.6104) rotate(90)">
				<title>工作表.91</title>
				<path d="M9.45 526.1 L9.81 526.1 L495.61 526.1" class="st10"/>
			</g>
			<g id="shape92-101" v:mID="92" v:groupContext="shape" transform="translate(-1.39888E-14,-248.031)">
				<title>工作表.92</title>
				<desc>4GB</desc>
				<v:textBlock v:margins="rect(4,4,4,4)" v:tabSpace="42.5197"/>
				<v:textRect cx="17.0079" cy="516.177" width="34.02" height="19.8425"/>
				<rect x="0" y="506.256" width="34.0157" height="19.8425" class="st4"/>
				<text x="5.67" y="519.78" class="st2" v:langID="2052"><v:paragraph v:horizAlign="1"/><v:tabList/>4GB</text>			</g>
			<g id="shape93-104" v:mID="93" v:groupContext="shape" transform="translate(60.8268,778.654) rotate(180)">
				<title>工作表.93</title>
				<path d="M0 526.1 L22.15 526.1" class="st5"/>
			</g>
			<g id="shape94-107" v:mID="94" v:groupContext="shape" transform="translate(60.8268,947.032) rotate(180)">
				<title>工作表.94</title>
				<path d="M0 526.1 L22.15 526.1" class="st5"/>
			</g>
			<g id="shape95-110" v:mID="95" v:groupContext="shape" transform="translate(575.705,252.555) rotate(90)">
				<title>工作表.95</title>
				<path d="M9.45 526.1 L9.81 526.1 L158.57 526.1" class="st10"/>
			</g>
			<g id="shape97-117" v:mID="97" v:groupContext="shape" transform="translate(49.6063,-174.331)">
				<title>工作表.97</title>
				<desc>4MB</desc>
				<v:textBlock v:margins="rect(4,4,4,4)" v:tabSpace="42.5197"/>
				<v:textRect cx="17.0079" cy="516.177" width="34.02" height="19.8425"/>
				<rect x="0" y="506.256" width="34.0157" height="19.8425" class="st4"/>
				<text x="4.67" y="519.78" class="st2" v:langID="2052"><v:paragraph v:horizAlign="1"/><v:tabList/>4MB</text>			</g>
			<g id="shape98-120" v:mID="98" v:groupContext="shape" transform="translate(266.244,-381.833)">
				<title>工作表.98</title>
				<desc>PTBase+0x400000</desc>
				<v:textBlock v:margins="rect(4,4,4,4)" v:tabSpace="42.5197"/>
				<v:textRect cx="44.0433" cy="517.595" width="88.09" height="17.0079"/>
				<rect x="0" y="509.091" width="88.0866" height="17.0079" class="st4"/>
				<text x="7.34" y="520.59" class="st9" v:langID="2052"><v:paragraph v:horizAlign="2"/><v:tabList/>PTBase+0x400000</text>			</g>
			<g id="shape99-123" v:mID="99" v:groupContext="shape" transform="translate(307.559,-71.4389)">
				<title>工作表.99</title>
				<desc>PTBase</desc>
				<v:textBlock v:margins="rect(4,4,4,4)" v:tabSpace="42.5197"/>
				<v:textRect cx="23.3858" cy="517.595" width="46.78" height="17.0079"/>
				<rect x="0" y="509.091" width="46.7716" height="17.0079" class="st4"/>
				<text x="11.66" y="520.59" class="st9" v:langID="2052"><v:paragraph v:horizAlign="2"/><v:tabList/>PTBase</text>			</g>
			<g id="shape100-126" v:mID="100" v:groupContext="shape" transform="translate(480.523,658.653) rotate(180)">
				<title>工作表.100</title>
				<path d="M0 526.1 L22.68 526.1" class="st5"/>
			</g>
			<g id="shape101-129" v:mID="101" v:groupContext="shape" transform="translate(480.523,693.758) rotate(180)">
				<title>工作表.101</title>
				<path d="M0 526.1 L22.68 526.1" class="st5"/>
			</g>
			<g id="shape102-132" v:mID="102" v:groupContext="shape" transform="translate(-56.9146,132.555) rotate(-90)">
				<title>工作表.102</title>
				<path d="M5.36 526.1 L5.72 526.1 L18.05 526.1" class="st6"/>
			</g>
			<g id="shape103-137" v:mID="103" v:groupContext="shape" transform="translate(995.283,167.659) rotate(90)">
				<title>工作表.103</title>
				<path d="M5.36 526.1 L5.72 526.1 L18.41 526.1" class="st6"/>
			</g>
			<g id="shape104-142" v:mID="104" v:groupContext="shape" transform="translate(453.593,-365.533)">
				<title>工作表.104</title>
				<desc>4KB</desc>
				<v:textBlock v:margins="rect(4,4,4,4)" v:tabSpace="42.5197"/>
				<v:textRect cx="17.0079" cy="516.886" width="34.02" height="18.4252"/>
				<rect x="0" y="507.673" width="34.0157" height="18.4252" class="st4"/>
				<text x="5.67" y="520.49" class="st2" v:langID="2052"><v:paragraph v:horizAlign="1"/><v:tabList/>4KB</text>			</g>
			<g id="shape105-145" v:mID="105" v:groupContext="shape" transform="translate(555.286,-317.298)">
				<title>工作表.105</title>
				<rect x="0" y="510.597" width="92.126" height="15.5011" class="st8"/>
			</g>
			<g id="shape106-147" v:mID="106" v:groupContext="shape" transform="translate(555.286,-301.797)">
				<title>工作表.106</title>
				<rect x="0" y="510.597" width="92.126" height="15.5011" class="st8"/>
			</g>
			<g id="shape107-149" v:mID="107" v:groupContext="shape" transform="translate(555.286,-271.562)">
				<title>工作表.107</title>
				<desc>...</desc>
				<v:textBlock v:margins="rect(4,4,4,4)" v:tabSpace="42.5197"/>
				<v:textRect cx="46.063" cy="511.053" width="92.13" height="30.0905" transform="rotate(-90)"/>
				<rect x="0" y="496.008" width="92.126" height="30.0905" class="st8"/>
				<text x="-515.55" y="49.66" transform="rotate(-90)" class="st2" v:langID="2052"><v:paragraph v:horizAlign="1"/><v:tabList/>...</text>			</g>
			<g id="shape108-152" v:mID="108" v:groupContext="shape" transform="translate(555.286,-256.138)">
				<title>工作表.108</title>
				<rect x="0" y="510.597" width="92.126" height="15.5011" class="st8"/>
			</g>
			<g id="shape109-154" v:mID="109" v:groupContext="shape" transform="translate(555.286,-240.704)">
				<title>工作表.109</title>
				<rect x="0" y="510.597" width="92.126" height="15.5011" class="st8"/>
			</g>
			<g id="shape111-156" v:mID="111" v:groupContext="shape" transform="translate(555.286,-209.702)">
				<title>工作表.111</title>
				<desc>...</desc>
				<v:textBlock v:margins="rect(4,4,4,4)" v:tabSpace="42.5197"/>
				<v:textRect cx="46.063" cy="510.598" width="92.13" height="31.0023" transform="rotate(-90)"/>
				<rect x="0" y="495.096" width="92.126" height="31.0023" class="st8"/>
				<text x="-515.1" y="49.66" transform="rotate(-90)" class="st2" v:langID="2052"><v:paragraph v:horizAlign="1"/><v:tabList/>...</text>			</g>
			<g id="shape115-159" v:mID="115" v:groupContext="shape" transform="translate(139.52,-153.869) rotate(-36.3738)">
				<title>工作表.115</title>
				<path d="M0 526.1 L128.87 526.1" class="st5"/>
			</g>
			<g id="shape116-162" v:mID="116" v:groupContext="shape" transform="translate(650.933,-182.4) rotate(22.2739)">
				<title>工作表.116</title>
				<path d="M0 526.1 L112.13 526.1" class="st5"/>
			</g>
			<g id="shape117-165" v:mID="117" v:groupContext="shape" transform="translate(307.559,-213.171)">
				<title>工作表.117</title>
				<desc>PDBase</desc>
				<v:textBlock v:margins="rect(4,4,4,4)" v:tabSpace="42.5197"/>
				<v:textRect cx="23.3858" cy="517.595" width="46.78" height="17.0079"/>
				<rect x="0" y="509.091" width="46.7716" height="17.0079" class="st4"/>
				<text x="10.55" y="520.59" class="st9" v:langID="2052"><v:paragraph v:horizAlign="2"/><v:tabList/>PDBase</text>			</g>
			<g id="shape118-168" v:mID="118" v:groupContext="shape" transform="translate(274.358,-247.187)">
				<title>工作表.118</title>
				<desc>PDBase+0x1000</desc>
				<v:textBlock v:margins="rect(4,4,4,4)" v:tabSpace="42.5197"/>
				<v:textRect cx="39.9862" cy="517.595" width="79.98" height="17.0079"/>
				<rect x="0" y="509.091" width="79.9724" height="17.0079" class="st4"/>
				<text x="8.11" y="520.59" class="st9" v:langID="2052"><v:paragraph v:horizAlign="2"/><v:tabList/>PDBase+0x1000</text>			</g>
			<g id="shape119-171" v:mID="119" v:groupContext="shape" transform="translate(647.767,-170.651)">
				<title>工作表.119</title>
				<desc>PDBase</desc>
				<v:textBlock v:margins="rect(4,4,4,4)" v:tabSpace="42.5197"/>
				<v:textRect cx="23.3858" cy="517.595" width="46.78" height="17.0079"/>
				<rect x="0" y="509.091" width="46.7716" height="17.0079" class="st4"/>
				<text x="4" y="520.59" class="st9" v:langID="2052"><v:paragraph/><v:tabList/>PDBase</text>			</g>
			<g id="shape121-174" v:mID="121" v:groupContext="shape" transform="translate(645.747,-324.431)">
				<title>工作表.121</title>
				<desc>PDBase+0x1000</desc>
				<v:textBlock v:margins="rect(4,4,4,4)" v:tabSpace="42.5197"/>
				<v:textRect cx="39.9862" cy="517.595" width="79.98" height="17.0079"/>
				<rect x="0" y="509.091" width="79.9724" height="17.0079" class="st4"/>
				<text x="4" y="520.59" class="st9" v:langID="2052"><v:paragraph/><v:tabList/>PDBase+0x1000</text>			</g>
			<g id="shape125-177" v:mID="125" v:groupContext="shape" transform="translate(673.279,780.368) rotate(180)">
				<title>工作表.125</title>
				<path d="M0 526.1 L22.68 526.1" class="st5"/>
			</g>
			<g id="shape126-180" v:mID="126" v:groupContext="shape" transform="translate(673.279,795.974) rotate(180)">
				<title>工作表.126</title>
				<path d="M0 526.1 L22.68 526.1" class="st5"/>
			</g>
			<g id="shape127-183" v:mID="127" v:groupContext="shape" transform="translate(135.86,254.269) rotate(-90)">
				<title>工作表.127</title>
				<path d="M5.36 526.1 L5.72 526.1 L13.34 526.1" class="st6"/>
			</g>
			<g id="shape128-188" v:mID="128" v:groupContext="shape" transform="translate(1187.91,269.875) rotate(90)">
				<title>工作表.128</title>
				<path d="M5.36 526.1 L5.72 526.1 L13.57 526.1" class="st6"/>
			</g>
			<g id="shape129-193" v:mID="129" v:groupContext="shape" transform="translate(644.037,-254.699)">
				<title>工作表.129</title>
				<desc>4B</desc>
				<v:textBlock v:margins="rect(4,4,4,4)" v:tabSpace="42.5197"/>
				<v:textRect cx="17.0079" cy="516.886" width="34.02" height="18.4252"/>
				<rect x="0" y="507.673" width="34.0157" height="18.4252" class="st4"/>
				<text x="10.01" y="520.49" class="st2" v:langID="2052"><v:paragraph v:horizAlign="1"/><v:tabList/>4B</text>			</g>
			<g id="shape139-196" v:mID="139" v:groupContext="shape" transform="translate(555.286,-194.657)">
				<title>工作表.139</title>
				<rect x="0" y="510.597" width="92.126" height="15.5011" class="st8"/>
			</g>
			<g id="shape140-198" v:mID="140" v:groupContext="shape" transform="translate(555.286,-179.155)">
				<title>工作表.140</title>
				<rect x="0" y="510.597" width="92.126" height="15.5011" class="st8"/>
			</g>
			<g id="shape145-200" v:mID="145" v:groupContext="shape" transform="translate(690.428,797.691) rotate(170.432)">
				<title>工作表.145</title>
				<path d="M0 526.1 L145.24 526.1" class="st11"/>
			</g>
			<g id="shape146-206" v:mID="146" v:groupContext="shape" transform="translate(899.74,774.267) rotate(145.662)">
				<title>工作表.146</title>
				<path d="M0 526.1 L175.07 526.1" class="st11"/>
			</g>
			<g id="shape147-211" v:mID="147" v:groupContext="shape" transform="translate(488.557,714.59) rotate(-167.502)">
				<title>工作表.147</title>
				<path d="M0 526.1 L148.83 526.1" class="st13"/>
			</g>
			<g id="shape148-217" v:mID="148" v:groupContext="shape" transform="translate(630.118,787.302) rotate(177.043)">
				<title>工作表.148</title>
				<path d="M0 526.1 L145.94 526.1" class="st13"/>
			</g>
			<g id="shape150-222" v:mID="150" v:groupContext="shape" transform="translate(498.184,-480.982)">
				<title>工作表.150</title>
				<desc>PTBase: Base Address of Page Table PDBase: Base Address of Pa...</desc>
				<v:textBlock v:margins="rect(4,4,4,4)" v:tabSpace="42.5197"/>
				<v:textRect cx="110.224" cy="506.933" width="220.45" height="38.3309"/>
				<rect x="0" y="487.768" width="220.449" height="38.3309" class="st4"/>
				<text x="4" y="503.33" class="st2" v:langID="2052"><v:paragraph/><v:tabList/>PTBase:<tspan class="st15"> </tspan><tspan
							class="st15">Base Address of Page Table<v:newlineChar/></tspan><tspan x="4" dy="1.2em" class="st16">PDBase:</tspan><tspan
							class="st15"> </tspan><tspan class="st15">Base Address of Page Directory</tspan></text>			</g>
		</g>
	</g>
</svg>
