<?xml version="1.0" encoding="UTF-8" standalone="no"?>
<!DOCTYPE svg PUBLIC "-//W3C//DTD SVG 1.1//EN" "http://www.w3.org/Graphics/SVG/1.1/DTD/svg11.dtd">
<!-- 由 Microsoft Visio, SVG Export 生成 OS-The-Dinning-Philosophers.svg Page-1 -->
<svg xmlns="http://www.w3.org/2000/svg" xmlns:xlink="http://www.w3.org/1999/xlink" xmlns:ev="http://www.w3.org/2001/xml-events"
		xmlns:v="http://schemas.microsoft.com/visio/2003/SVGExtensions/" width="5.9683in" height="5.70587in"
		viewBox="0 0 429.718 410.823" xml:space="preserve" color-interpolation-filters="sRGB" class="st5">
	<v:documentProperties v:langID="2052" v:metric="true" v:viewMarkup="false">
		<v:userDefs>
			<v:ud v:nameU="msvNoAutoConnect" v:val="VT0(1):26"/>
		</v:userDefs>
	</v:documentProperties>

	<style type="text/css">
	<![CDATA[
		.st1 {fill:#ffffff;stroke:#000000;stroke-linecap:round;stroke-linejoin:round;stroke-width:0.75}
		.st2 {fill:#d8d8d8;stroke:#000000;stroke-linecap:round;stroke-linejoin:round;stroke-width:0.75}
		.st3 {stroke:#000000;stroke-linecap:round;stroke-linejoin:round;stroke-width:0.75}
		.st4 {fill:#000000;stroke:#000000;stroke-linecap:round;stroke-linejoin:round;stroke-width:0.75}
		.st5 {fill:none;fill-rule:evenodd;font-size:12px;overflow:visible;stroke-linecap:square;stroke-miterlimit:3}
	]]>
	</style>

	<g v:mID="0" v:index="1" v:groupContext="foregroundPage">
		<title>页-1</title>
		<v:pageProperties v:drawingScale="0.0393701" v:pageScale="0.0393701" v:drawingUnits="24" v:shadowOffsetX="8.50394"
				v:shadowOffsetY="-8.50394"/>
		<g id="group65-1" transform="translate(19.9159,-19.7646)" v:mID="65" v:groupContext="group">
			<title>工作表.65</title>
			<g id="shape15-2" v:mID="15" v:groupContext="shape" transform="translate(69.6867,-49.1044)">
				<title>工作表.15</title>
				<ellipse cx="125.256" cy="285.566" rx="125.256" ry="125.256" class="st1"/>
			</g>
			<g id="shape14-4" v:mID="14" v:groupContext="shape" transform="translate(92.034,-183.98)">
				<title>工作表.14</title>
				<ellipse cx="17.9766" cy="392.846" rx="17.9766" ry="17.9766" class="st1"/>
			</g>
			<g id="shape12-6" v:mID="12" v:groupContext="shape" transform="translate(124.475,-84.1363)">
				<title>工作表.12</title>
				<ellipse cx="17.9766" cy="392.846" rx="17.9766" ry="17.9766" class="st1"/>
			</g>
			<g id="shape13-8" v:mID="13" v:groupContext="shape" transform="translate(229.457,-84.1363)">
				<title>工作表.13</title>
				<ellipse cx="17.9766" cy="392.846" rx="17.9766" ry="17.9766" class="st1"/>
			</g>
			<g id="shape11-10" v:mID="11" v:groupContext="shape" transform="translate(261.899,-183.98)">
				<title>工作表.11</title>
				<ellipse cx="17.9766" cy="392.846" rx="17.9766" ry="17.9766" class="st1"/>
			</g>
			<g id="shape9-12" v:mID="9" v:groupContext="shape" transform="translate(176.966,-245.687)">
				<title>工作表.9</title>
				<ellipse cx="17.9766" cy="392.846" rx="17.9766" ry="17.9766" class="st1"/>
			</g>
			<g id="group27-14" transform="translate(168.268,-303.096)" v:mID="27" v:groupContext="group">
				<title>工作表.27</title>
				<g id="shape21-15" v:mID="21" v:groupContext="shape" transform="translate(1.59872E-14,-4.63911)">
					<title>工作表.21</title>
					<rect x="0" y="359.792" width="53.3499" height="51.0303" class="st2"/>
				</g>
				<g id="shape22-17" v:mID="22" v:groupContext="shape" transform="translate(1.59872E-14,-55.6694)">
					<title>工作表.22</title>
					<rect x="0" y="399.225" width="53.3499" height="11.5978" class="st2"/>
				</g>
				<g id="shape25-19" v:mID="25" v:groupContext="shape">
					<title>工作表.25</title>
					<path d="M-0 406.18 A26.6749 4.63911 -180 0 0 26.67 410.82 A26.6749 4.63911 -180 0 0 53.35 406.18" class="st3"/>
				</g>
				<g id="shape26-22" v:mID="26" v:groupContext="shape" transform="translate(0,-67.2673)">
					<title>工作表.26</title>
					<path d="M0 410.82 A26.6749 2.31953 0 0 1 26.67 408.5 A26.6749 2.31953 0 0 1 53.35 410.82" class="st3"/>
				</g>
			</g>
			<g id="group28-25" transform="translate(-326.451,95.0987) rotate(-72)" v:mID="28" v:groupContext="group">
				<title>工作表.28</title>
				<g id="shape29-26" v:mID="29" v:groupContext="shape" transform="translate(1.19904E-14,-4.63911)">
					<title>工作表.29</title>
					<rect x="0" y="359.792" width="53.3499" height="51.0303" class="st2"/>
				</g>
				<g id="shape30-28" v:mID="30" v:groupContext="shape" transform="translate(1.19904E-14,-55.6694)">
					<title>工作表.30</title>
					<rect x="0" y="399.225" width="53.3499" height="11.5978" class="st2"/>
				</g>
				<g id="shape31-30" v:mID="31" v:groupContext="shape">
					<title>工作表.31</title>
					<path d="M-0 406.18 A26.6749 4.63911 -180 0 0 26.67 410.82 A26.6749 4.63911 -180 0 0 53.35 406.18" class="st3"/>
				</g>
				<g id="shape32-33" v:mID="32" v:groupContext="shape" transform="translate(0,-67.2673)">
					<title>工作表.32</title>
					<path d="M0 410.82 A26.6749 2.31953 0 0 1 26.67 408.5 A26.6749 2.31953 0 0 1 53.35 410.82" class="st3"/>
				</g>
			</g>
			<g id="group33-36" transform="translate(699.85,44.36) rotate(72)" v:mID="33" v:groupContext="group">
				<title>工作表.33</title>
				<g id="shape34-37" v:mID="34" v:groupContext="shape" transform="translate(1.19904E-14,-4.63911)">
					<title>工作表.34</title>
					<rect x="0" y="359.792" width="53.3499" height="51.0303" class="st2"/>
				</g>
				<g id="shape35-39" v:mID="35" v:groupContext="shape" transform="translate(1.19904E-14,-55.6694)">
					<title>工作表.35</title>
					<rect x="0" y="399.225" width="53.3499" height="11.5978" class="st2"/>
				</g>
				<g id="shape36-41" v:mID="36" v:groupContext="shape">
					<title>工作表.36</title>
					<path d="M-0 406.18 A26.6749 4.63911 -180 0 0 26.67 410.82 A26.6749 4.63911 -180 0 0 53.35 406.18" class="st3"/>
				</g>
				<g id="shape37-44" v:mID="37" v:groupContext="shape" transform="translate(0,-67.2673)">
					<title>工作表.37</title>
					<path d="M0 410.82 A26.6749 2.31953 0 0 1 26.67 408.5 A26.6749 2.31953 0 0 1 53.35 410.82" class="st3"/>
				</g>
			</g>
			<g id="group38-47" transform="translate(533.668,657.295) rotate(144)" v:mID="38" v:groupContext="group">
				<title>工作表.38</title>
				<g id="shape39-48" v:mID="39" v:groupContext="shape" transform="translate(1.19904E-14,-4.63911)">
					<title>工作表.39</title>
					<rect x="0" y="359.792" width="53.3499" height="51.0303" class="st2"/>
				</g>
				<g id="shape40-50" v:mID="40" v:groupContext="shape" transform="translate(1.19904E-14,-55.6694)">
					<title>工作表.40</title>
					<rect x="0" y="399.225" width="53.3499" height="11.5978" class="st2"/>
				</g>
				<g id="shape41-52" v:mID="41" v:groupContext="shape">
					<title>工作表.41</title>
					<path d="M-0 406.18 A26.6749 4.63911 -180 0 0 26.67 410.82 A26.6749 4.63911 -180 0 0 53.35 406.18" class="st3"/>
				</g>
				<g id="shape42-55" v:mID="42" v:groupContext="shape" transform="translate(0,-67.2673)">
					<title>工作表.42</title>
					<path d="M0 410.82 A26.6749 2.31953 0 0 1 26.67 408.5 A26.6749 2.31953 0 0 1 53.35 410.82" class="st3"/>
				</g>
			</g>
			<g id="group43-58" transform="translate(-100.621,688.653) rotate(-144)" v:mID="43" v:groupContext="group">
				<title>工作表.43</title>
				<g id="shape44-59" v:mID="44" v:groupContext="shape" transform="translate(1.19904E-14,-4.63911)">
					<title>工作表.44</title>
					<rect x="0" y="359.792" width="53.3499" height="51.0303" class="st2"/>
				</g>
				<g id="shape45-61" v:mID="45" v:groupContext="shape" transform="translate(1.19904E-14,-55.6694)">
					<title>工作表.45</title>
					<rect x="0" y="399.225" width="53.3499" height="11.5978" class="st2"/>
				</g>
				<g id="shape46-63" v:mID="46" v:groupContext="shape">
					<title>工作表.46</title>
					<path d="M-0 406.18 A26.6749 4.63911 -180 0 0 26.67 410.82 A26.6749 4.63911 -180 0 0 53.35 406.18" class="st3"/>
				</g>
				<g id="shape47-66" v:mID="47" v:groupContext="shape" transform="translate(0,-67.2673)">
					<title>工作表.47</title>
					<path d="M0 410.82 A26.6749 2.31953 0 0 1 26.67 408.5 A26.6749 2.31953 0 0 1 53.35 410.82" class="st3"/>
				</g>
			</g>
			<g id="shape49-69" v:mID="49" v:groupContext="shape" transform="translate(193.472,-56.3693)">
				<title>工作表.49</title>
				<rect x="0" y="384.612" width="0.695868" height="26.211" class="st4"/>
			</g>
			<g id="shape54-71" v:mID="54" v:groupContext="shape" transform="translate(-82.3293,145.647) rotate(-72)">
				<title>工作表.54</title>
				<rect x="0" y="384.612" width="0.695868" height="26.211" class="st4"/>
			</g>
			<g id="shape57-73" v:mID="57" v:groupContext="shape" transform="translate(22.7867,472.073) rotate(-144)">
				<title>工作表.57</title>
				<rect x="0" y="384.612" width="0.695868" height="26.211" class="st4"/>
			</g>
			<g id="shape59-75" v:mID="59" v:groupContext="shape" transform="translate(368.437,472.824) rotate(144)">
				<title>工作表.59</title>
				<rect x="0" y="384.612" width="0.695868" height="26.211" class="st4"/>
			</g>
			<g id="shape62-77" v:mID="62" v:groupContext="shape" transform="translate(475.479,143.826) rotate(72)">
				<title>工作表.62</title>
				<rect x="0" y="384.612" width="0.695868" height="26.211" class="st4"/>
			</g>
		</g>
	</g>
</svg>
