<?xml version="1.0" encoding="UTF-8" standalone="no"?>
<!DOCTYPE svg PUBLIC "-//W3C//DTD SVG 1.1//EN" "http://www.w3.org/Graphics/SVG/1.1/DTD/svg11.dtd">
<!-- 由 Microsoft Visio, SVG Export 生成 P-CPU-ALUSrcA-forwrarding.svg Page-1 -->
<svg xmlns="http://www.w3.org/2000/svg" xmlns:xlink="http://www.w3.org/1999/xlink" xmlns:ev="http://www.w3.org/2001/xml-events"
		xmlns:v="http://schemas.microsoft.com/visio/2003/SVGExtensions/" width="6.66615in" height="5.11672in"
		viewBox="0 0 479.963 368.404" xml:space="preserve" color-interpolation-filters="sRGB" class="st25">
	<v:documentProperties v:langID="2052" v:metric="true" v:viewMarkup="false">
		<v:userDefs>
			<v:ud v:nameU="msvNoAutoConnect" v:val="VT0(1):26"/>
		</v:userDefs>
	</v:documentProperties>

	<style type="text/css">
	<![CDATA[
		.st1 {stroke:#000000;stroke-linecap:round;stroke-linejoin:round;stroke-width:0.75}
		.st2 {fill:none;stroke:none;stroke-linecap:round;stroke-linejoin:round;stroke-width:0.75}
		.st3 {fill:#000000;font-family:Times New Roman;font-size:0.75em;font-weight:bold}
		.st4 {stroke:#000000;stroke-dasharray:5.25,3.75;stroke-linecap:round;stroke-linejoin:round;stroke-width:0.75}
		.st5 {fill:#000000;font-family:Consolas;font-size:0.666664em}
		.st6 {font-size:1em}
		.st7 {fill:#9dbb61;font-family:Consolas;font-size:0.666664em}
		.st8 {fill:#c05046;font-family:Consolas;font-size:0.666664em}
		.st9 {fill:#ab9ac0;font-family:Consolas;font-size:0.666664em}
		.st10 {marker-end:url(#mrkr5-197);stroke:#c05046;stroke-linecap:round;stroke-linejoin:round;stroke-width:0.75}
		.st11 {fill:#c05046;fill-opacity:1;stroke:#c05046;stroke-opacity:1;stroke-width:0.22935779816514}
		.st12 {marker-end:url(#mrkr5-208);stroke:#ab9ac0;stroke-linecap:round;stroke-linejoin:round;stroke-width:0.75}
		.st13 {fill:#ab9ac0;fill-opacity:1;stroke:#ab9ac0;stroke-opacity:1;stroke-width:0.22935779816514}
		.st14 {fill:#595959;fill-opacity:0.45;stroke:#000000;stroke-linecap:round;stroke-linejoin:round;stroke-width:1.5}
		.st15 {fill:#000000;font-family:Times New Roman;font-size:1.5em;font-weight:bold}
		.st16 {fill:#ffffff;stroke:#000000;stroke-linecap:round;stroke-linejoin:round;stroke-width:1.5}
		.st17 {stroke:#9dbb61;stroke-linecap:round;stroke-linejoin:round;stroke-width:0.75}
		.st18 {fill:#3f3f3f;fill-opacity:0.45;stroke:none;stroke-linecap:round;stroke-linejoin:round;stroke-width:0.75}
		.st19 {marker-start:url(#mrkr5-276);stroke:#000000;stroke-linecap:round;stroke-linejoin:round;stroke-width:0.75}
		.st20 {fill:#000000;fill-opacity:1;stroke:#000000;stroke-opacity:1;stroke-width:0.22935779816514}
		.st21 {marker-end:url(#mrkr5-282);stroke:#c05046;stroke-linecap:round;stroke-linejoin:round;stroke-width:0.75}
		.st22 {fill:#c05046;fill-opacity:1;stroke:#c05046;stroke-opacity:1;stroke-width:0.34246575342466}
		.st23 {marker-end:url(#mrkr5-288);stroke:#ab9ac0;stroke-linecap:round;stroke-linejoin:round;stroke-width:0.75}
		.st24 {fill:#ab9ac0;fill-opacity:1;stroke:#ab9ac0;stroke-opacity:1;stroke-width:0.34246575342466}
		.st25 {fill:none;fill-rule:evenodd;font-size:12px;overflow:visible;stroke-linecap:square;stroke-miterlimit:3}
	]]>
	</style>

	<defs id="Markers">
		<g id="lend5">
			<path d="M 2 1 L 0 0 L 1.98117 -0.993387 C 1.67173 -0.364515 1.67301 0.372641 1.98465 1.00043 " style="stroke:none"/>
		</g>
		<marker id="mrkr5-197" class="st11" v:arrowType="5" v:arrowSize="2" v:setback="7.63" refX="-7.63" orient="auto"
				markerUnits="strokeWidth" overflow="visible">
			<use xlink:href="#lend5" transform="scale(-4.36,-4.36) "/>
		</marker>
		<marker id="mrkr5-208" class="st13" v:arrowType="5" v:arrowSize="2" v:setback="7.63" refX="-7.63" orient="auto"
				markerUnits="strokeWidth" overflow="visible">
			<use xlink:href="#lend5" transform="scale(-4.36,-4.36) "/>
		</marker>
		<marker id="mrkr5-276" class="st20" v:arrowType="5" v:arrowSize="2" v:setback="7.15" refX="7.15" orient="auto"
				markerUnits="strokeWidth" overflow="visible">
			<use xlink:href="#lend5" transform="scale(4.36) "/>
		</marker>
		<marker id="mrkr5-282" class="st22" v:arrowType="5" v:arrowSize="0" v:setback="5.11" refX="-5.11" orient="auto"
				markerUnits="strokeWidth" overflow="visible">
			<use xlink:href="#lend5" transform="scale(-2.92,-2.92) "/>
		</marker>
		<marker id="mrkr5-288" class="st24" v:arrowType="5" v:arrowSize="0" v:setback="5.11" refX="-5.11" orient="auto"
				markerUnits="strokeWidth" overflow="visible">
			<use xlink:href="#lend5" transform="scale(-2.92,-2.92) "/>
		</marker>
	</defs>
	<g v:mID="0" v:index="1" v:groupContext="foregroundPage">
		<title>页-1</title>
		<v:pageProperties v:drawingScale="0.0393701" v:pageScale="0.0393701" v:drawingUnits="24" v:shadowOffsetX="8.50394"
				v:shadowOffsetY="-8.50394"/>
		<g id="shape1015-1" v:mID="1015" v:groupContext="shape" transform="translate(61.8928,-330.186)">
			<title>工作表.1015</title>
			<path d="M0 368.4 L1.74 368.4 L14.42 368.4 L24.57 368.4 L24.57 357.06 L49.94 357.06 L49.94 368.4" class="st1"/>
		</g>
		<g id="shape1016-4" v:mID="1016" v:groupContext="shape" transform="translate(111.835,-330.186)">
			<title>工作表.1016</title>
			<path d="M0 368.4 L1.74 368.4 L14.42 368.4 L24.57 368.4 L24.57 357.06 L49.94 357.06 L49.94 368.4" class="st1"/>
		</g>
		<g id="shape1017-7" v:mID="1017" v:groupContext="shape" transform="translate(161.857,-330.186)">
			<title>工作表.1017</title>
			<path d="M0 368.4 L1.74 368.4 L14.42 368.4 L24.57 368.4 L24.57 357.06 L49.94 357.06 L49.94 368.4" class="st1"/>
		</g>
		<g id="shape1018-10" v:mID="1018" v:groupContext="shape" transform="translate(211.799,-330.186)">
			<title>工作表.1018</title>
			<path d="M0 368.4 L1.74 368.4 L14.42 368.4 L24.57 368.4 L24.57 357.06 L49.94 357.06 L49.94 368.4" class="st1"/>
		</g>
		<g id="shape1019-13" v:mID="1019" v:groupContext="shape" transform="translate(261.821,-330.186)">
			<title>工作表.1019</title>
			<path d="M0 368.4 L1.74 368.4 L14.42 368.4 L24.57 368.4 L24.57 357.06 L49.94 357.06 L49.94 368.4" class="st1"/>
		</g>
		<g id="shape1020-16" v:mID="1020" v:groupContext="shape" transform="translate(311.762,-330.186)">
			<title>工作表.1020</title>
			<path d="M0 368.4 L1.74 368.4 L14.42 368.4 L24.57 368.4 L24.57 357.06 L49.94 357.06 L49.94 368.4" class="st1"/>
		</g>
		<g id="shape1021-19" v:mID="1021" v:groupContext="shape" transform="translate(35.72,-330.186)">
			<title>工作表.1021</title>
			<desc>Clk</desc>
			<v:textBlock v:margins="rect(4,4,4,4)" v:tabSpace="42.5197"/>
			<v:textRect cx="13.0864" cy="362.734" width="26.18" height="11.3386"/>
			<rect x="0" y="357.065" width="26.1727" height="11.3386" class="st2"/>
			<text x="6.08" y="365.43" class="st3" v:langID="2052"><v:paragraph v:horizAlign="1"/><v:tabList/>Clk</text>		</g>
		<g id="shape1022-22" v:mID="1022" v:groupContext="shape" transform="translate(454.867,18.375) rotate(90)">
			<title>工作表.1022</title>
			<path d="M0 368.4 L331.65 368.4" class="st4"/>
		</g>
		<g id="shape1023-25" v:mID="1023" v:groupContext="shape" transform="translate(504.809,18.375) rotate(90)">
			<title>工作表.1023</title>
			<path d="M0 368.4 L331.65 368.4" class="st4"/>
		</g>
		<g id="shape1024-28" v:mID="1024" v:groupContext="shape" transform="translate(554.83,18.375) rotate(90)">
			<title>工作表.1024</title>
			<path d="M0 368.4 L331.5 368.4" class="st4"/>
		</g>
		<g id="shape1025-31" v:mID="1025" v:groupContext="shape" transform="translate(604.812,18.375) rotate(90)">
			<title>工作表.1025</title>
			<path d="M0 368.4 L331.65 368.4" class="st4"/>
		</g>
		<g id="shape1026-34" v:mID="1026" v:groupContext="shape" transform="translate(654.773,18.375) rotate(90)">
			<title>工作表.1026</title>
			<path d="M0 368.4 L330.96 368.4" class="st4"/>
		</g>
		<g id="shape1027-37" v:mID="1027" v:groupContext="shape" transform="translate(704.776,18.375) rotate(90)">
			<title>工作表.1027</title>
			<path d="M0 368.4 L331.18 368.4" class="st4"/>
		</g>
		<g id="group1033-40" transform="translate(62.3601,-39.6348)" v:mID="1033" v:groupContext="group">
			<title>工作表.1033</title>
			<g id="shape1028-41" v:mID="1028" v:groupContext="shape" transform="translate(0,-242.362)">
				<title>工作表.1028</title>
				<desc>nop</desc>
				<v:textBlock v:margins="rect(4,4,4,4)" v:tabSpace="42.5197"/>
				<v:textRect cx="12.0515" cy="359.191" width="24.11" height="18.4252"/>
				<rect x="0" y="349.978" width="24.103" height="18.4252" class="st2"/>
				<text x="5.45" y="361.59" class="st5" v:langID="2052"><v:paragraph v:horizAlign="1"/><v:tabList/>nop</text>			</g>
			<g id="shape1029-44" v:mID="1029" v:groupContext="shape" transform="translate(8.03488E-06,-181.417)">
				<title>工作表.1029</title>
				<desc>nop</desc>
				<v:textBlock v:margins="rect(4,4,4,4)" v:tabSpace="42.5197"/>
				<v:textRect cx="12.0515" cy="359.191" width="24.11" height="18.4252"/>
				<rect x="0" y="349.978" width="24.103" height="18.4252" class="st2"/>
				<text x="5.45" y="361.59" class="st5" v:langID="2052"><v:paragraph v:horizAlign="1"/><v:tabList/>nop</text>			</g>
			<g id="shape1030-47" v:mID="1030" v:groupContext="shape" transform="translate(3.18953E-06,-120.472)">
				<title>工作表.1030</title>
				<desc>nop</desc>
				<v:textBlock v:margins="rect(4,4,4,4)" v:tabSpace="42.5197"/>
				<v:textRect cx="12.0515" cy="359.191" width="24.11" height="18.4252"/>
				<rect x="0" y="349.978" width="24.103" height="18.4252" class="st2"/>
				<text x="5.45" y="361.59" class="st5" v:langID="2052"><v:paragraph v:horizAlign="1"/><v:tabList/>nop</text>			</g>
			<g id="shape1031-50" v:mID="1031" v:groupContext="shape" transform="translate(8.03488E-06,-60.2362)">
				<title>工作表.1031</title>
				<desc>nop</desc>
				<v:textBlock v:margins="rect(4,4,4,4)" v:tabSpace="42.5197"/>
				<v:textRect cx="12.0515" cy="359.191" width="24.11" height="18.4252"/>
				<rect x="0" y="349.978" width="24.103" height="18.4252" class="st2"/>
				<text x="5.45" y="361.59" class="st5" v:langID="2052"><v:paragraph v:horizAlign="1"/><v:tabList/>nop</text>			</g>
			<g id="shape1032-53" v:mID="1032" v:groupContext="shape" transform="translate(8.03488E-06,-1.7053E-13)">
				<title>工作表.1032</title>
				<desc>nop</desc>
				<v:textBlock v:margins="rect(4,4,4,4)" v:tabSpace="42.5197"/>
				<v:textRect cx="12.0515" cy="359.191" width="24.11" height="18.4252"/>
				<rect x="0" y="349.978" width="24.103" height="18.4252" class="st2"/>
				<text x="5.45" y="361.59" class="st5" v:langID="2052"><v:paragraph v:horizAlign="1"/><v:tabList/>nop</text>			</g>
		</g>
		<g id="shape1035-56" v:mID="1035" v:groupContext="shape" transform="translate(86.4631,-281.997)">
			<title>工作表.1035</title>
			<desc>addu $1,$2,$3</desc>
			<v:textBlock v:margins="rect(4,4,4,4)" v:tabSpace="42.5197"/>
			<v:textRect cx="25.0544" cy="359.191" width="50.11" height="18.4252"/>
			<rect x="0" y="349.978" width="50.1088" height="18.4252" class="st2"/>
			<text x="16.26" y="356.79" class="st5" v:langID="2052"><v:paragraph v:horizAlign="1"/><v:tabList/>addu <tspan x="7.46"
						dy="1.2em" class="st6">$1,$2,$3</tspan></text>		</g>
		<g id="shape1036-60" v:mID="1036" v:groupContext="shape" transform="translate(112.469,-221.052)">
			<title>工作表.1036</title>
			<desc>nop</desc>
			<v:textBlock v:margins="rect(4,4,4,4)" v:tabSpace="42.5197"/>
			<v:textRect cx="12.0515" cy="359.191" width="24.11" height="18.4252"/>
			<rect x="0" y="349.978" width="24.103" height="18.4252" class="st2"/>
			<text x="5.45" y="361.59" class="st5" v:langID="2052"><v:paragraph v:horizAlign="1"/><v:tabList/>nop</text>		</g>
		<g id="shape1037-63" v:mID="1037" v:groupContext="shape" transform="translate(112.469,-160.107)">
			<title>工作表.1037</title>
			<desc>nop</desc>
			<v:textBlock v:margins="rect(4,4,4,4)" v:tabSpace="42.5197"/>
			<v:textRect cx="12.0515" cy="359.191" width="24.11" height="18.4252"/>
			<rect x="0" y="349.978" width="24.103" height="18.4252" class="st2"/>
			<text x="5.45" y="361.59" class="st5" v:langID="2052"><v:paragraph v:horizAlign="1"/><v:tabList/>nop</text>		</g>
		<g id="shape1038-66" v:mID="1038" v:groupContext="shape" transform="translate(112.469,-99.8711)">
			<title>工作表.1038</title>
			<desc>nop</desc>
			<v:textBlock v:margins="rect(4,4,4,4)" v:tabSpace="42.5197"/>
			<v:textRect cx="12.0515" cy="359.191" width="24.11" height="18.4252"/>
			<rect x="0" y="349.978" width="24.103" height="18.4252" class="st2"/>
			<text x="5.45" y="361.59" class="st5" v:langID="2052"><v:paragraph v:horizAlign="1"/><v:tabList/>nop</text>		</g>
		<g id="shape1039-69" v:mID="1039" v:groupContext="shape" transform="translate(112.469,-39.6348)">
			<title>工作表.1039</title>
			<desc>nop</desc>
			<v:textBlock v:margins="rect(4,4,4,4)" v:tabSpace="42.5197"/>
			<v:textRect cx="12.0515" cy="359.191" width="24.11" height="18.4252"/>
			<rect x="0" y="349.978" width="24.103" height="18.4252" class="st2"/>
			<text x="5.45" y="361.59" class="st5" v:langID="2052"><v:paragraph v:horizAlign="1"/><v:tabList/>nop</text>		</g>
		<g id="shape1040-72" v:mID="1040" v:groupContext="shape" transform="translate(137.054,-281.997)">
			<title>工作表.1040</title>
			<desc>addu $1,$1,$3</desc>
			<v:textBlock v:margins="rect(4,4,4,4)" v:tabSpace="42.5197"/>
			<v:textRect cx="25.0544" cy="359.191" width="50.11" height="18.4252"/>
			<rect x="0" y="349.978" width="50.1088" height="18.4252" class="st2"/>
			<text x="16.26" y="356.79" class="st5" v:langID="2052"><v:paragraph v:horizAlign="1"/><v:tabList/>addu <tspan x="7.46"
						dy="1.2em" class="st6">$1,$1,$3</tspan></text>		</g>
		<g id="shape1042-76" v:mID="1042" v:groupContext="shape" transform="translate(163.06,-160.107)">
			<title>工作表.1042</title>
			<desc>nop</desc>
			<v:textBlock v:margins="rect(4,4,4,4)" v:tabSpace="42.5197"/>
			<v:textRect cx="12.0515" cy="359.191" width="24.11" height="18.4252"/>
			<rect x="0" y="349.978" width="24.103" height="18.4252" class="st2"/>
			<text x="5.45" y="361.59" class="st5" v:langID="2052"><v:paragraph v:horizAlign="1"/><v:tabList/>nop</text>		</g>
		<g id="shape1043-79" v:mID="1043" v:groupContext="shape" transform="translate(163.06,-99.8711)">
			<title>工作表.1043</title>
			<desc>nop</desc>
			<v:textBlock v:margins="rect(4,4,4,4)" v:tabSpace="42.5197"/>
			<v:textRect cx="12.0515" cy="359.191" width="24.11" height="18.4252"/>
			<rect x="0" y="349.978" width="24.103" height="18.4252" class="st2"/>
			<text x="5.45" y="361.59" class="st5" v:langID="2052"><v:paragraph v:horizAlign="1"/><v:tabList/>nop</text>		</g>
		<g id="shape1044-82" v:mID="1044" v:groupContext="shape" transform="translate(163.06,-39.6349)">
			<title>工作表.1044</title>
			<desc>nop</desc>
			<v:textBlock v:margins="rect(4,4,4,4)" v:tabSpace="42.5197"/>
			<v:textRect cx="12.0515" cy="359.191" width="24.11" height="18.4252"/>
			<rect x="0" y="349.978" width="24.103" height="18.4252" class="st2"/>
			<text x="5.45" y="361.59" class="st5" v:langID="2052"><v:paragraph v:horizAlign="1"/><v:tabList/>nop</text>		</g>
		<g id="shape1045-85" v:mID="1045" v:groupContext="shape" transform="translate(137.233,-221.052)">
			<title>工作表.1045</title>
			<desc>addu $1,$2,$3</desc>
			<v:textBlock v:margins="rect(4,4,4,4)" v:tabSpace="42.5197"/>
			<v:textRect cx="25.0544" cy="359.191" width="50.11" height="18.4252"/>
			<rect x="0" y="349.978" width="50.1088" height="18.4252" class="st2"/>
			<text x="16.26" y="356.79" class="st5" v:langID="2052"><v:paragraph v:horizAlign="1"/><v:tabList/>addu <tspan x="7.46"
						dy="1.2em" class="st6">$1,$2,$3</tspan></text>		</g>
		<g id="shape1046-89" v:mID="1046" v:groupContext="shape" transform="translate(187.383,-160.107)">
			<title>工作表.1046</title>
			<desc>addu $1,$2,$3</desc>
			<v:textBlock v:margins="rect(4,4,4,4)" v:tabSpace="42.5197"/>
			<v:textRect cx="25.0544" cy="359.191" width="50.11" height="18.4252"/>
			<rect x="0" y="349.978" width="50.1088" height="18.4252" class="st2"/>
			<text x="16.26" y="356.79" class="st7" v:langID="2052"><v:paragraph v:horizAlign="1"/><v:tabList/>addu <tspan x="7.46"
						dy="1.2em" class="st6">$1,$2,$3</tspan></text>		</g>
		<g id="shape1047-93" v:mID="1047" v:groupContext="shape" transform="translate(187.56,-221.052)">
			<title>工作表.1047</title>
			<desc>addu $1,$1,$3</desc>
			<v:textBlock v:margins="rect(4,4,4,4)" v:tabSpace="42.5197"/>
			<v:textRect cx="25.0544" cy="359.191" width="50.11" height="18.4252"/>
			<rect x="0" y="349.978" width="50.1088" height="18.4252" class="st2"/>
			<text x="16.26" y="356.79" class="st5" v:langID="2052"><v:paragraph v:horizAlign="1"/><v:tabList/>addu <tspan x="7.46"
						dy="1.2em" class="st6">$1,$1,$3</tspan></text>		</g>
		<g id="shape1048-97" v:mID="1048" v:groupContext="shape" transform="translate(187.645,-281.997)">
			<title>工作表.1048</title>
			<desc>subu $2,$1,$2</desc>
			<v:textBlock v:margins="rect(4,4,4,4)" v:tabSpace="42.5197"/>
			<v:textRect cx="25.0544" cy="359.191" width="50.11" height="18.4252"/>
			<rect x="0" y="349.978" width="50.1088" height="18.4252" class="st2"/>
			<text x="16.26" y="356.79" class="st5" v:langID="2052"><v:paragraph v:horizAlign="1"/><v:tabList/>subu <tspan x="7.46"
						dy="1.2em" class="st6">$2,$1,$2</tspan></text>		</g>
		<g id="shape1049-101" v:mID="1049" v:groupContext="shape" transform="translate(213.213,-99.871)">
			<title>工作表.1049</title>
			<desc>nop</desc>
			<v:textBlock v:margins="rect(4,4,4,4)" v:tabSpace="42.5197"/>
			<v:textRect cx="12.0515" cy="359.191" width="24.11" height="18.4252"/>
			<rect x="0" y="349.978" width="24.103" height="18.4252" class="st2"/>
			<text x="5.45" y="361.59" class="st5" v:langID="2052"><v:paragraph v:horizAlign="1"/><v:tabList/>nop</text>		</g>
		<g id="shape1050-104" v:mID="1050" v:groupContext="shape" transform="translate(213.213,-39.6348)">
			<title>工作表.1050</title>
			<desc>nop</desc>
			<v:textBlock v:margins="rect(4,4,4,4)" v:tabSpace="42.5197"/>
			<v:textRect cx="12.0515" cy="359.191" width="24.11" height="18.4252"/>
			<rect x="0" y="349.978" width="24.103" height="18.4252" class="st2"/>
			<text x="5.45" y="361.59" class="st5" v:langID="2052"><v:paragraph v:horizAlign="1"/><v:tabList/>nop</text>		</g>
		<g id="shape1051-107" v:mID="1051" v:groupContext="shape" transform="translate(236.243,-100.225)">
			<title>工作表.1051</title>
			<desc>addu $1,$2,$3</desc>
			<v:textBlock v:margins="rect(4,4,4,4)" v:tabSpace="42.5197"/>
			<v:textRect cx="25.0544" cy="359.191" width="50.11" height="18.4252"/>
			<rect x="0" y="349.978" width="50.1088" height="18.4252" class="st2"/>
			<text x="16.26" y="356.79" class="st5" v:langID="2052"><v:paragraph v:horizAlign="1"/><v:tabList/>addu <tspan x="7.46"
						dy="1.2em" class="st6">$1,$2,$3</tspan></text>		</g>
		<g id="shape1052-111" v:mID="1052" v:groupContext="shape" transform="translate(236.42,-161.17)">
			<title>工作表.1052</title>
			<desc>addu $1,$1,$3</desc>
			<v:textBlock v:margins="rect(4,4,4,4)" v:tabSpace="42.5197"/>
			<v:textRect cx="25.0544" cy="359.191" width="50.11" height="18.4252"/>
			<rect x="0" y="349.978" width="50.1088" height="18.4252" class="st2"/>
			<text x="16.26" y="356.79" class="st8" v:langID="2052"><v:paragraph v:horizAlign="1"/><v:tabList/>addu <tspan x="7.46"
						dy="1.2em" class="st6">$1,$1,$3</tspan></text>		</g>
		<g id="shape1053-115" v:mID="1053" v:groupContext="shape" transform="translate(236.505,-222.115)">
			<title>工作表.1053</title>
			<desc>subu $2,$1,$2</desc>
			<v:textBlock v:margins="rect(4,4,4,4)" v:tabSpace="42.5197"/>
			<v:textRect cx="25.0544" cy="359.191" width="50.11" height="18.4252"/>
			<rect x="0" y="349.978" width="50.1088" height="18.4252" class="st2"/>
			<text x="16.26" y="356.79" class="st5" v:langID="2052"><v:paragraph v:horizAlign="1"/><v:tabList/>subu <tspan x="7.46"
						dy="1.2em" class="st6">$2,$1,$2</tspan></text>		</g>
		<g id="shape1054-119" v:mID="1054" v:groupContext="shape" transform="translate(262.072,-39.9891)">
			<title>工作表.1054</title>
			<desc>nop</desc>
			<v:textBlock v:margins="rect(4,4,4,4)" v:tabSpace="42.5197"/>
			<v:textRect cx="12.0515" cy="359.191" width="24.11" height="18.4252"/>
			<rect x="0" y="349.978" width="24.103" height="18.4252" class="st2"/>
			<text x="5.45" y="361.59" class="st5" v:langID="2052"><v:paragraph v:horizAlign="1"/><v:tabList/>nop</text>		</g>
		<g id="shape1055-122" v:mID="1055" v:groupContext="shape" transform="translate(236.104,-283.06)">
			<title>工作表.1055</title>
			<desc>addu $2,$1,$1</desc>
			<v:textBlock v:margins="rect(4,4,4,4)" v:tabSpace="42.5197"/>
			<v:textRect cx="25.0544" cy="359.191" width="50.11" height="18.4252"/>
			<rect x="0" y="349.978" width="50.1088" height="18.4252" class="st2"/>
			<text x="16.26" y="356.79" class="st5" v:langID="2052"><v:paragraph v:horizAlign="1"/><v:tabList/>addu <tspan x="7.46"
						dy="1.2em" class="st6">$2,$1,$1</tspan></text>		</g>
		<g id="shape1056-126" v:mID="1056" v:groupContext="shape" transform="translate(361.704,-330.186)">
			<title>工作表.1056</title>
			<path d="M0 368.4 L1.74 368.4 L14.42 368.4 L24.57 368.4 L24.57 357.06 L49.94 357.06 L49.94 368.4" class="st1"/>
		</g>
		<g id="shape1057-129" v:mID="1057" v:groupContext="shape" transform="translate(411.646,-330.186)">
			<title>工作表.1057</title>
			<path d="M0 368.4 L1.74 368.4 L14.42 368.4 L24.57 368.4 L24.57 357.06 L49.94 357.06 L49.94 368.4" class="st1"/>
		</g>
		<g id="shape1058-132" v:mID="1058" v:groupContext="shape" transform="translate(754.708,18.375) rotate(90)">
			<title>工作表.1058</title>
			<path d="M0 368.4 L330.61 368.4" class="st4"/>
		</g>
		<g id="shape1059-135" v:mID="1059" v:groupContext="shape" transform="translate(804.568,18.375) rotate(90)">
			<title>工作表.1059</title>
			<path d="M0 368.4 L330.61 368.4" class="st4"/>
		</g>
		<g id="shape1060-138" v:mID="1060" v:groupContext="shape" transform="translate(286.725,-39.6348)">
			<title>工作表.1060</title>
			<desc>addu $1,$2,$3</desc>
			<v:textBlock v:margins="rect(4,4,4,4)" v:tabSpace="42.5197"/>
			<v:textRect cx="25.0544" cy="359.191" width="50.11" height="18.4252"/>
			<rect x="0" y="349.978" width="50.1088" height="18.4252" class="st2"/>
			<text x="16.26" y="356.79" class="st5" v:langID="2052"><v:paragraph v:horizAlign="1"/><v:tabList/>addu <tspan x="7.46"
						dy="1.2em" class="st6">$1,$2,$3</tspan></text>		</g>
		<g id="shape1061-142" v:mID="1061" v:groupContext="shape" transform="translate(286.902,-100.58)">
			<title>工作表.1061</title>
			<desc>addu $1,$1,$3</desc>
			<v:textBlock v:margins="rect(4,4,4,4)" v:tabSpace="42.5197"/>
			<v:textRect cx="25.0544" cy="359.191" width="50.11" height="18.4252"/>
			<rect x="0" y="349.978" width="50.1088" height="18.4252" class="st2"/>
			<text x="16.26" y="356.79" class="st5" v:langID="2052"><v:paragraph v:horizAlign="1"/><v:tabList/>addu <tspan x="7.46"
						dy="1.2em" class="st6">$1,$1,$3</tspan></text>		</g>
		<g id="shape1062-146" v:mID="1062" v:groupContext="shape" transform="translate(286.986,-161.525)">
			<title>工作表.1062</title>
			<desc>subu $2,$1,$2</desc>
			<v:textBlock v:margins="rect(4,4,4,4)" v:tabSpace="42.5197"/>
			<v:textRect cx="25.0544" cy="359.191" width="50.11" height="18.4252"/>
			<rect x="0" y="349.978" width="50.1088" height="18.4252" class="st2"/>
			<text x="16.26" y="356.79" class="st8" v:langID="2052"><v:paragraph v:horizAlign="1"/><v:tabList/>subu <tspan x="7.46"
						dy="1.2em" class="st6">$2,$1,$2</tspan></text>		</g>
		<g id="shape1063-150" v:mID="1063" v:groupContext="shape" transform="translate(286.586,-222.47)">
			<title>工作表.1063</title>
			<desc>addu $2,$1,$1</desc>
			<v:textBlock v:margins="rect(4,4,4,4)" v:tabSpace="42.5197"/>
			<v:textRect cx="25.0544" cy="359.191" width="50.11" height="18.4252"/>
			<rect x="0" y="349.978" width="50.1088" height="18.4252" class="st2"/>
			<text x="16.26" y="356.79" class="st5" v:langID="2052"><v:paragraph v:horizAlign="1"/><v:tabList/>addu <tspan x="7.46"
						dy="1.2em" class="st6">$2,$1,$1</tspan></text>		</g>
		<g id="shape1064-154" v:mID="1064" v:groupContext="shape" transform="translate(312.09,-283.415)">
			<title>工作表.1064</title>
			<desc>nop</desc>
			<v:textBlock v:margins="rect(4,4,4,4)" v:tabSpace="42.5197"/>
			<v:textRect cx="12.0515" cy="359.191" width="24.11" height="18.4252"/>
			<rect x="0" y="349.978" width="24.103" height="18.4252" class="st2"/>
			<text x="5.45" y="361.59" class="st5" v:langID="2052"><v:paragraph v:horizAlign="1"/><v:tabList/>nop</text>		</g>
		<g id="shape1065-157" v:mID="1065" v:groupContext="shape" transform="translate(336.335,-39.6347)">
			<title>工作表.1065</title>
			<desc>addu $1,$1,$3</desc>
			<v:textBlock v:margins="rect(4,4,4,4)" v:tabSpace="42.5197"/>
			<v:textRect cx="25.0544" cy="359.191" width="50.11" height="18.4252"/>
			<rect x="0" y="349.978" width="50.1088" height="18.4252" class="st2"/>
			<text x="16.26" y="356.79" class="st5" v:langID="2052"><v:paragraph v:horizAlign="1"/><v:tabList/>addu <tspan x="7.46"
						dy="1.2em" class="st6">$1,$1,$3</tspan></text>		</g>
		<g id="shape1066-161" v:mID="1066" v:groupContext="shape" transform="translate(336.42,-100.58)">
			<title>工作表.1066</title>
			<desc>subu $2,$1,$2</desc>
			<v:textBlock v:margins="rect(4,4,4,4)" v:tabSpace="42.5197"/>
			<v:textRect cx="25.0544" cy="359.191" width="50.11" height="18.4252"/>
			<rect x="0" y="349.978" width="50.1088" height="18.4252" class="st2"/>
			<text x="16.26" y="356.79" class="st5" v:langID="2052"><v:paragraph v:horizAlign="1"/><v:tabList/>subu <tspan x="7.46"
						dy="1.2em" class="st6">$2,$1,$2</tspan></text>		</g>
		<g id="shape1067-165" v:mID="1067" v:groupContext="shape" transform="translate(336.02,-161.525)">
			<title>工作表.1067</title>
			<desc>addu $2,$1,$1</desc>
			<v:textBlock v:margins="rect(4,4,4,4)" v:tabSpace="42.5197"/>
			<v:textRect cx="25.0544" cy="359.191" width="50.11" height="18.4252"/>
			<rect x="0" y="349.978" width="50.1088" height="18.4252" class="st2"/>
			<text x="16.26" y="356.79" class="st9" v:langID="2052"><v:paragraph v:horizAlign="1"/><v:tabList/>addu <tspan x="7.46"
						dy="1.2em" class="st6">$2,$1,$1</tspan></text>		</g>
		<g id="shape1068-169" v:mID="1068" v:groupContext="shape" transform="translate(361.523,-222.47)">
			<title>工作表.1068</title>
			<desc>nop</desc>
			<v:textBlock v:margins="rect(4,4,4,4)" v:tabSpace="42.5197"/>
			<v:textRect cx="12.0515" cy="359.191" width="24.11" height="18.4252"/>
			<rect x="0" y="349.978" width="24.103" height="18.4252" class="st2"/>
			<text x="5.45" y="361.59" class="st5" v:langID="2052"><v:paragraph v:horizAlign="1"/><v:tabList/>nop</text>		</g>
		<g id="shape1069-172" v:mID="1069" v:groupContext="shape" transform="translate(362.069,-283.414)">
			<title>工作表.1069</title>
			<desc>nop</desc>
			<v:textBlock v:margins="rect(4,4,4,4)" v:tabSpace="42.5197"/>
			<v:textRect cx="12.0515" cy="359.191" width="24.11" height="18.4252"/>
			<rect x="0" y="349.978" width="24.103" height="18.4252" class="st2"/>
			<text x="5.45" y="361.59" class="st5" v:langID="2052"><v:paragraph v:horizAlign="1"/><v:tabList/>nop</text>		</g>
		<g id="shape1070-175" v:mID="1070" v:groupContext="shape" transform="translate(386.199,-39.6348)">
			<title>工作表.1070</title>
			<desc>subu $2,$1,$2</desc>
			<v:textBlock v:margins="rect(4,4,4,4)" v:tabSpace="42.5197"/>
			<v:textRect cx="25.0544" cy="359.191" width="50.11" height="18.4252"/>
			<rect x="0" y="349.978" width="50.1088" height="18.4252" class="st2"/>
			<text x="16.26" y="356.79" class="st5" v:langID="2052"><v:paragraph v:horizAlign="1"/><v:tabList/>subu <tspan x="7.46"
						dy="1.2em" class="st6">$2,$1,$2</tspan></text>		</g>
		<g id="shape1071-179" v:mID="1071" v:groupContext="shape" transform="translate(385.799,-100.58)">
			<title>工作表.1071</title>
			<desc>addu $2,$1,$1</desc>
			<v:textBlock v:margins="rect(4,4,4,4)" v:tabSpace="42.5197"/>
			<v:textRect cx="25.0544" cy="359.191" width="50.11" height="18.4252"/>
			<rect x="0" y="349.978" width="50.1088" height="18.4252" class="st2"/>
			<text x="16.26" y="356.79" class="st5" v:langID="2052"><v:paragraph v:horizAlign="1"/><v:tabList/>addu <tspan x="7.46"
						dy="1.2em" class="st6">$2,$1,$1</tspan></text>		</g>
		<g id="shape1072-183" v:mID="1072" v:groupContext="shape" transform="translate(411.302,-161.525)">
			<title>工作表.1072</title>
			<desc>nop</desc>
			<v:textBlock v:margins="rect(4,4,4,4)" v:tabSpace="42.5197"/>
			<v:textRect cx="12.0515" cy="359.191" width="24.11" height="18.4252"/>
			<rect x="0" y="349.978" width="24.103" height="18.4252" class="st2"/>
			<text x="5.45" y="361.59" class="st5" v:langID="2052"><v:paragraph v:horizAlign="1"/><v:tabList/>nop</text>		</g>
		<g id="shape1073-186" v:mID="1073" v:groupContext="shape" transform="translate(411.848,-222.469)">
			<title>工作表.1073</title>
			<desc>nop</desc>
			<v:textBlock v:margins="rect(4,4,4,4)" v:tabSpace="42.5197"/>
			<v:textRect cx="12.0515" cy="359.191" width="24.11" height="18.4252"/>
			<rect x="0" y="349.978" width="24.103" height="18.4252" class="st2"/>
			<text x="5.45" y="361.59" class="st5" v:langID="2052"><v:paragraph v:horizAlign="1"/><v:tabList/>nop</text>		</g>
		<g id="shape1074-189" v:mID="1074" v:groupContext="shape" transform="translate(412.048,-283.414)">
			<title>工作表.1074</title>
			<desc>nop</desc>
			<v:textBlock v:margins="rect(4,4,4,4)" v:tabSpace="42.5197"/>
			<v:textRect cx="12.0515" cy="359.191" width="24.11" height="18.4252"/>
			<rect x="0" y="349.978" width="24.103" height="18.4252" class="st2"/>
			<text x="5.45" y="361.59" class="st5" v:langID="2052"><v:paragraph v:horizAlign="1"/><v:tabList/>nop</text>		</g>
		<g id="shape1077-192" v:mID="1077" v:groupContext="shape" transform="translate(-110.983,180.958) rotate(-77.719)">
			<title>工作表.1077</title>
			<path d="M0 368.4 L47.58 368.4" class="st10"/>
		</g>
		<g id="shape1078-198" v:mID="1078" v:groupContext="shape" transform="translate(-59.3699,172.247) rotate(-76.3287)">
			<title>工作表.1078</title>
			<path d="M0 368.4 L48.25 368.4" class="st10"/>
		</g>
		<g id="shape1079-203" v:mID="1079" v:groupContext="shape" transform="translate(-17.8919,279.079) rotate(-83.5812)">
			<title>工作表.1079</title>
			<path d="M0 368.4 L108.38 368.4" class="st12"/>
		</g>
		<g id="group1081-209" transform="translate(18.7121,-31.8396)" v:mID="1081" v:groupContext="group">
			<title>工作表.1081</title>
			<g id="group1014-210" transform="translate(368.404,92.0256) rotate(90)" v:mID="1014" v:groupContext="group">
				<title>工作表.1014</title>
				<g id="shape1-211" v:mID="1" v:groupContext="shape" transform="translate(1.39888E-14,-0.037856)">
					<title>工作表.1</title>
					<desc>F</desc>
					<v:textBlock v:margins="rect(4,4,4,4)" v:tabSpace="42.5197"/>
					<v:textRect cx="17.037" cy="351.367" width="34.08" height="34.074"/>
					<rect x="0" y="334.33" width="34.074" height="34.074" class="st14"/>
					<text x="11.54" y="356.77" class="st15" v:langID="2052"><v:paragraph v:horizAlign="1"/><v:tabList/>F</text>				</g>
				<g id="shape2-214" v:mID="2" v:groupContext="shape" transform="translate(60.576,-0.037856)">
					<title>工作表.2</title>
					<desc>D</desc>
					<v:textBlock v:margins="rect(4,4,4,4)" v:tabSpace="42.5197"/>
					<v:textRect cx="17.037" cy="351.367" width="34.08" height="34.074"/>
					<rect x="0" y="334.33" width="34.074" height="34.074" class="st16"/>
					<text x="10.54" y="356.77" class="st15" v:langID="2052"><v:paragraph v:horizAlign="1"/><v:tabList/>D</text>				</g>
				<g id="shape4-217" v:mID="4" v:groupContext="shape" transform="translate(106.25,-0.037856)">
					<title>工作表.4</title>
					<rect x="0" y="334.33" width="3.54369" height="34.074" class="st16"/>
				</g>
				<g id="shape6-219" v:mID="6" v:groupContext="shape" transform="translate(45.432,-0.037856)">
					<title>工作表.6</title>
					<rect x="0" y="334.33" width="3.54369" height="34.074" class="st16"/>
				</g>
				<g id="shape7-221" v:mID="7" v:groupContext="shape" transform="translate(181.728,-0.037856)">
					<title>工作表.7</title>
					<desc>M</desc>
					<v:textBlock v:margins="rect(4,4,4,4)" v:tabSpace="42.5197"/>
					<v:textRect cx="17.037" cy="351.367" width="34.08" height="34.074"/>
					<rect x="0" y="334.33" width="34.074" height="34.074" class="st14"/>
					<text x="8.54" y="356.77" class="st15" v:langID="2052"><v:paragraph v:horizAlign="1"/><v:tabList/>M</text>				</g>
				<g id="shape8-224" v:mID="8" v:groupContext="shape" transform="translate(242.304,-0.037856)">
					<title>工作表.8</title>
					<desc>W</desc>
					<v:textBlock v:margins="rect(4,4,4,4)" v:tabSpace="42.5197"/>
					<v:textRect cx="17.037" cy="351.367" width="34.08" height="34.074"/>
					<rect x="0" y="334.33" width="34.074" height="34.074" class="st16"/>
					<text x="8.04" y="356.77" class="st15" v:langID="2052"><v:paragraph v:horizAlign="1"/><v:tabList/>W</text>				</g>
				<g id="shape9-227" v:mID="9" v:groupContext="shape" transform="translate(166.584,-0.037856)">
					<title>工作表.9</title>
					<rect x="0" y="334.33" width="3.54369" height="34.074" class="st16"/>
				</g>
				<g id="shape10-229" v:mID="10" v:groupContext="shape" transform="translate(227.402,-0.037856)">
					<title>工作表.10</title>
					<rect x="0" y="334.33" width="3.54369" height="34.074" class="st16"/>
				</g>
				<g id="shape1000-231" v:mID="1000" v:groupContext="shape" transform="translate(121.152,-0.037856)">
					<title>工作表.1000</title>
					<desc>E</desc>
					<v:textBlock v:margins="rect(4,4,4,4)" v:tabSpace="42.5197"/>
					<v:textRect cx="17.037" cy="351.367" width="34.08" height="34.074"/>
					<path d="M0 334.33 L0 345.88 L5.08 350.96 L0 356.04 L0 368.4 L34.07 356.48 L34.07 345.88 L0 334.33 Z"
							class="st14"/>
					<text x="11.03" y="356.77" class="st15" v:langID="2052"><v:paragraph v:horizAlign="1"/><v:tabList/>E</text>				</g>
				<g id="shape1001-234" v:mID="1001" v:groupContext="shape" transform="translate(34.074,-16.507)">
					<title>工作表.1001</title>
					<path d="M0 368.4 L11.36 368.4" class="st1"/>
				</g>
				<g id="shape1002-237" v:mID="1002" v:groupContext="shape" transform="translate(48.9757,-16.507)">
					<title>工作表.1002</title>
					<path d="M0 368.4 L11.6 368.4" class="st1"/>
				</g>
				<g id="shape1003-240" v:mID="1003" v:groupContext="shape" transform="translate(55.2756,-16.507)">
					<title>工作表.1003</title>
					<path d="M0 368.4 L0 363.1 L5.3 363.1" class="st1"/>
				</g>
				<g id="shape1004-243" v:mID="1004" v:groupContext="shape" transform="translate(94.65,-28.6222)">
					<title>工作表.1004</title>
					<path d="M0 368.4 L11.6 368.4" class="st1"/>
				</g>
				<g id="shape1005-246" v:mID="1005" v:groupContext="shape" transform="translate(109.794,-28.6222)">
					<title>工作表.1005</title>
					<path d="M0 368.4 L11.36 368.4" class="st17"/>
				</g>
				<g id="shape1006-249" v:mID="1006" v:groupContext="shape" transform="translate(94.65,-4.39176)">
					<title>工作表.1006</title>
					<path d="M0 368.4 L11.6 368.4" class="st1"/>
				</g>
				<g id="shape1007-252" v:mID="1007" v:groupContext="shape" transform="translate(109.794,-4.39176)">
					<title>工作表.1007</title>
					<path d="M0 368.4 L11.36 368.4" class="st1"/>
				</g>
				<g id="shape1008-255" v:mID="1008" v:groupContext="shape" transform="translate(155.226,-17.2642)">
					<title>工作表.1008</title>
					<path d="M0 368.4 L11.36 368.4" class="st1"/>
				</g>
				<g id="shape1009-258" v:mID="1009" v:groupContext="shape" transform="translate(170.128,-17.2642)">
					<title>工作表.1009</title>
					<path d="M0 368.4 L11.6 368.4" class="st1"/>
				</g>
				<g id="shape1010-261" v:mID="1010" v:groupContext="shape" transform="translate(215.802,-18.0214)">
					<title>工作表.1010</title>
					<path d="M0 368.4 L11.6 368.4" class="st1"/>
				</g>
				<g id="shape1011-264" v:mID="1011" v:groupContext="shape" transform="translate(230.946,-18.0214)">
					<title>工作表.1011</title>
					<path d="M0 368.4 L11.36 368.4" class="st1"/>
				</g>
				<g id="shape1012-267" v:mID="1012" v:groupContext="shape" transform="translate(77.2344,0)">
					<title>工作表.1012</title>
					<rect x="0" y="334.33" width="17.4156" height="34.074" class="st18"/>
				</g>
				<g id="shape1013-269" v:mID="1013" v:groupContext="shape" transform="translate(242.546,-0.037856)">
					<title>工作表.1013</title>
					<rect x="0" y="334.33" width="17.4156" height="34.074" class="st18"/>
				</g>
			</g>
			<g id="shape1075-271" v:mID="1075" v:groupContext="shape" transform="translate(28.6222,-160.866)">
				<title>工作表.1075</title>
				<path d="M5.36 368.4 L5.72 368.4 L18.82 368.4" class="st19"/>
			</g>
			<g id="shape1076-277" v:mID="1076" v:groupContext="shape" transform="translate(17.2642,-99.9213)">
				<title>工作表.1076</title>
				<path d="M0 368.4 L21.07 368.4 L21.07 311.29" class="st21"/>
			</g>
			<g id="shape1080-283" v:mID="1080" v:groupContext="shape" transform="translate(18.0214,-38.9764)">
				<title>工作表.1080</title>
				<path d="M0 368.4 L28 368.4 L28 250.35" class="st23"/>
			</g>
		</g>
	</g>
</svg>
