<?xml version="1.0" encoding="UTF-8" standalone="no"?>
<!DOCTYPE svg PUBLIC "-//W3C//DTD SVG 1.1//EN" "http://www.w3.org/Graphics/SVG/1.1/DTD/svg11.dtd">
<!-- 由 Microsoft Visio, SVG Export 生成 P-CPU-ALUSrcA-stall.svg Page-1 -->
<svg xmlns="http://www.w3.org/2000/svg" xmlns:xlink="http://www.w3.org/1999/xlink" xmlns:ev="http://www.w3.org/2001/xml-events"
		xmlns:v="http://schemas.microsoft.com/visio/2003/SVGExtensions/" width="5.97252in" height="5.11672in"
		viewBox="0 0 430.021 368.404" xml:space="preserve" color-interpolation-filters="sRGB" class="st17">
	<v:documentProperties v:langID="2052" v:metric="true" v:viewMarkup="false">
		<v:userDefs>
			<v:ud v:nameU="msvNoAutoConnect" v:val="VT0(1):26"/>
		</v:userDefs>
	</v:documentProperties>

	<style type="text/css">
	<![CDATA[
		.st1 {stroke:#000000;stroke-linecap:round;stroke-linejoin:round;stroke-width:0.75}
		.st2 {fill:none;stroke:none;stroke-linecap:round;stroke-linejoin:round;stroke-width:0.75}
		.st3 {fill:#000000;font-family:Times New Roman;font-size:0.75em;font-weight:bold}
		.st4 {stroke:#000000;stroke-dasharray:5.25,3.75;stroke-linecap:round;stroke-linejoin:round;stroke-width:0.75}
		.st5 {fill:#000000;font-family:Consolas;font-size:0.666664em}
		.st6 {font-size:1em}
		.st7 {fill:#595959;fill-opacity:0.45;stroke:#000000;stroke-linecap:round;stroke-linejoin:round;stroke-width:1.5}
		.st8 {fill:#000000;font-family:Times New Roman;font-size:1.5em;font-weight:bold}
		.st9 {fill:#ffffff;stroke:#000000;stroke-linecap:round;stroke-linejoin:round;stroke-width:1.5}
		.st10 {fill:#3f3f3f;fill-opacity:0.45;stroke:none;stroke-linecap:round;stroke-linejoin:round;stroke-width:0.75}
		.st11 {marker-start:url(#mrkr5-195);stroke:#000000;stroke-linecap:round;stroke-linejoin:round;stroke-width:0.75}
		.st12 {fill:#000000;fill-opacity:1;stroke:#000000;stroke-opacity:1;stroke-width:0.22935779816514}
		.st13 {fill:#ff0000;font-family:Consolas;font-size:0.666664em}
		.st14 {marker-start:url(#mrkr5-234);stroke:#4bacc6;stroke-linecap:round;stroke-linejoin:round;stroke-width:0.75}
		.st15 {fill:#4bacc6;fill-opacity:1;stroke:#4bacc6;stroke-opacity:1;stroke-width:0.34246575342466}
		.st16 {marker-end:url(#mrkr5-240);stroke:#4bacc6;stroke-linecap:round;stroke-linejoin:round;stroke-width:0.75}
		.st17 {fill:none;fill-rule:evenodd;font-size:12px;overflow:visible;stroke-linecap:square;stroke-miterlimit:3}
	]]>
	</style>

	<defs id="Markers">
		<g id="lend5">
			<path d="M 2 1 L 0 0 L 1.98117 -0.993387 C 1.67173 -0.364515 1.67301 0.372641 1.98465 1.00043 " style="stroke:none"/>
		</g>
		<marker id="mrkr5-195" class="st12" v:arrowType="5" v:arrowSize="2" v:setback="7.15" refX="7.15" orient="auto"
				markerUnits="strokeWidth" overflow="visible">
			<use xlink:href="#lend5" transform="scale(4.36) "/>
		</marker>
		<marker id="mrkr5-234" class="st15" v:arrowType="5" v:arrowSize="0" v:setback="4.63" refX="4.63" orient="auto"
				markerUnits="strokeWidth" overflow="visible">
			<use xlink:href="#lend5" transform="scale(2.92) "/>
		</marker>
		<marker id="mrkr5-240" class="st15" v:arrowType="5" v:arrowSize="0" v:setback="5.11" refX="-5.11" orient="auto"
				markerUnits="strokeWidth" overflow="visible">
			<use xlink:href="#lend5" transform="scale(-2.92,-2.92) "/>
		</marker>
	</defs>
	<g v:mID="0" v:index="1" v:groupContext="foregroundPage">
		<title>页-1</title>
		<v:pageProperties v:drawingScale="0.0393701" v:pageScale="0.0393701" v:drawingUnits="24" v:shadowOffsetX="8.50394"
				v:shadowOffsetY="-8.50394"/>
		<g id="shape2-1" v:mID="2" v:groupContext="shape" transform="translate(61.8928,-330.186)">
			<title>工作表.2</title>
			<path d="M0 368.4 L1.74 368.4 L14.42 368.4 L24.57 368.4 L24.57 357.06 L49.94 357.06 L49.94 368.4" class="st1"/>
		</g>
		<g id="shape3-4" v:mID="3" v:groupContext="shape" transform="translate(111.835,-330.186)">
			<title>工作表.3</title>
			<path d="M0 368.4 L1.74 368.4 L14.42 368.4 L24.57 368.4 L24.57 357.06 L49.94 357.06 L49.94 368.4" class="st1"/>
		</g>
		<g id="shape4-7" v:mID="4" v:groupContext="shape" transform="translate(161.857,-330.186)">
			<title>工作表.4</title>
			<path d="M0 368.4 L1.74 368.4 L14.42 368.4 L24.57 368.4 L24.57 357.06 L49.94 357.06 L49.94 368.4" class="st1"/>
		</g>
		<g id="shape5-10" v:mID="5" v:groupContext="shape" transform="translate(211.799,-330.186)">
			<title>工作表.5</title>
			<path d="M0 368.4 L1.74 368.4 L14.42 368.4 L24.57 368.4 L24.57 357.06 L49.94 357.06 L49.94 368.4" class="st1"/>
		</g>
		<g id="shape6-13" v:mID="6" v:groupContext="shape" transform="translate(261.821,-330.186)">
			<title>工作表.6</title>
			<path d="M0 368.4 L1.74 368.4 L14.42 368.4 L24.57 368.4 L24.57 357.06 L49.94 357.06 L49.94 368.4" class="st1"/>
		</g>
		<g id="shape7-16" v:mID="7" v:groupContext="shape" transform="translate(311.762,-330.186)">
			<title>工作表.7</title>
			<path d="M0 368.4 L1.74 368.4 L14.42 368.4 L24.57 368.4 L24.57 357.06 L49.94 357.06 L49.94 368.4" class="st1"/>
		</g>
		<g id="shape8-19" v:mID="8" v:groupContext="shape" transform="translate(35.72,-330.186)">
			<title>工作表.8</title>
			<desc>Clk</desc>
			<v:textBlock v:margins="rect(4,4,4,4)" v:tabSpace="42.5197"/>
			<v:textRect cx="13.0864" cy="362.734" width="26.18" height="11.3386"/>
			<rect x="0" y="357.065" width="26.1727" height="11.3386" class="st2"/>
			<text x="6.08" y="365.43" class="st3" v:langID="2052"><v:paragraph v:horizAlign="1"/><v:tabList/>Clk</text>		</g>
		<g id="shape9-22" v:mID="9" v:groupContext="shape" transform="translate(454.867,18.375) rotate(90)">
			<title>工作表.9</title>
			<path d="M0 368.4 L331.65 368.4" class="st4"/>
		</g>
		<g id="shape10-25" v:mID="10" v:groupContext="shape" transform="translate(504.809,18.375) rotate(90)">
			<title>工作表.10</title>
			<path d="M0 368.4 L331.65 368.4" class="st4"/>
		</g>
		<g id="shape11-28" v:mID="11" v:groupContext="shape" transform="translate(554.83,18.375) rotate(90)">
			<title>工作表.11</title>
			<path d="M0 368.4 L331.5 368.4" class="st4"/>
		</g>
		<g id="shape12-31" v:mID="12" v:groupContext="shape" transform="translate(604.812,18.375) rotate(90)">
			<title>工作表.12</title>
			<path d="M0 368.4 L331.65 368.4" class="st4"/>
		</g>
		<g id="shape13-34" v:mID="13" v:groupContext="shape" transform="translate(654.773,18.375) rotate(90)">
			<title>工作表.13</title>
			<path d="M0 368.4 L330.96 368.4" class="st4"/>
		</g>
		<g id="shape14-37" v:mID="14" v:groupContext="shape" transform="translate(704.776,18.375) rotate(90)">
			<title>工作表.14</title>
			<path d="M0 368.4 L331.18 368.4" class="st4"/>
		</g>
		<g id="group15-40" transform="translate(62.3601,-39.6348)" v:mID="15" v:groupContext="group">
			<title>工作表.15</title>
			<g id="shape16-41" v:mID="16" v:groupContext="shape" transform="translate(0,-242.362)">
				<title>工作表.16</title>
				<desc>nop</desc>
				<v:textBlock v:margins="rect(4,4,4,4)" v:tabSpace="42.5197"/>
				<v:textRect cx="12.0515" cy="359.191" width="24.11" height="18.4252"/>
				<rect x="0" y="349.978" width="24.103" height="18.4252" class="st2"/>
				<text x="5.45" y="361.59" class="st5" v:langID="2052"><v:paragraph v:horizAlign="1"/><v:tabList/>nop</text>			</g>
			<g id="shape17-44" v:mID="17" v:groupContext="shape" transform="translate(8.03488E-06,-181.417)">
				<title>工作表.17</title>
				<desc>nop</desc>
				<v:textBlock v:margins="rect(4,4,4,4)" v:tabSpace="42.5197"/>
				<v:textRect cx="12.0515" cy="359.191" width="24.11" height="18.4252"/>
				<rect x="0" y="349.978" width="24.103" height="18.4252" class="st2"/>
				<text x="5.45" y="361.59" class="st5" v:langID="2052"><v:paragraph v:horizAlign="1"/><v:tabList/>nop</text>			</g>
			<g id="shape18-47" v:mID="18" v:groupContext="shape" transform="translate(3.18953E-06,-120.472)">
				<title>工作表.18</title>
				<desc>nop</desc>
				<v:textBlock v:margins="rect(4,4,4,4)" v:tabSpace="42.5197"/>
				<v:textRect cx="12.0515" cy="359.191" width="24.11" height="18.4252"/>
				<rect x="0" y="349.978" width="24.103" height="18.4252" class="st2"/>
				<text x="5.45" y="361.59" class="st5" v:langID="2052"><v:paragraph v:horizAlign="1"/><v:tabList/>nop</text>			</g>
			<g id="shape19-50" v:mID="19" v:groupContext="shape" transform="translate(8.03488E-06,-60.2362)">
				<title>工作表.19</title>
				<desc>nop</desc>
				<v:textBlock v:margins="rect(4,4,4,4)" v:tabSpace="42.5197"/>
				<v:textRect cx="12.0515" cy="359.191" width="24.11" height="18.4252"/>
				<rect x="0" y="349.978" width="24.103" height="18.4252" class="st2"/>
				<text x="5.45" y="361.59" class="st5" v:langID="2052"><v:paragraph v:horizAlign="1"/><v:tabList/>nop</text>			</g>
			<g id="shape20-53" v:mID="20" v:groupContext="shape" transform="translate(8.03488E-06,-1.7053E-13)">
				<title>工作表.20</title>
				<desc>nop</desc>
				<v:textBlock v:margins="rect(4,4,4,4)" v:tabSpace="42.5197"/>
				<v:textRect cx="12.0515" cy="359.191" width="24.11" height="18.4252"/>
				<rect x="0" y="349.978" width="24.103" height="18.4252" class="st2"/>
				<text x="5.45" y="361.59" class="st5" v:langID="2052"><v:paragraph v:horizAlign="1"/><v:tabList/>nop</text>			</g>
		</g>
		<g id="shape21-56" v:mID="21" v:groupContext="shape" transform="translate(86.4631,-281.997)">
			<title>工作表.21</title>
			<desc>lw $1,0($0)</desc>
			<v:textBlock v:margins="rect(4,4,4,4)" v:tabSpace="42.5197"/>
			<v:textRect cx="25.0544" cy="359.191" width="50.11" height="18.4252"/>
			<rect x="0" y="349.978" width="50.1088" height="18.4252" class="st2"/>
			<text x="20.66" y="356.79" class="st5" v:langID="2052"><v:paragraph v:horizAlign="1"/><v:tabList/>lw <tspan x="7.46"
						dy="1.2em" class="st6">$1,0($0)</tspan></text>		</g>
		<g id="shape22-60" v:mID="22" v:groupContext="shape" transform="translate(112.469,-221.052)">
			<title>工作表.22</title>
			<desc>nop</desc>
			<v:textBlock v:margins="rect(4,4,4,4)" v:tabSpace="42.5197"/>
			<v:textRect cx="12.0515" cy="359.191" width="24.11" height="18.4252"/>
			<rect x="0" y="349.978" width="24.103" height="18.4252" class="st2"/>
			<text x="5.45" y="361.59" class="st5" v:langID="2052"><v:paragraph v:horizAlign="1"/><v:tabList/>nop</text>		</g>
		<g id="shape23-63" v:mID="23" v:groupContext="shape" transform="translate(112.469,-160.107)">
			<title>工作表.23</title>
			<desc>nop</desc>
			<v:textBlock v:margins="rect(4,4,4,4)" v:tabSpace="42.5197"/>
			<v:textRect cx="12.0515" cy="359.191" width="24.11" height="18.4252"/>
			<rect x="0" y="349.978" width="24.103" height="18.4252" class="st2"/>
			<text x="5.45" y="361.59" class="st5" v:langID="2052"><v:paragraph v:horizAlign="1"/><v:tabList/>nop</text>		</g>
		<g id="shape24-66" v:mID="24" v:groupContext="shape" transform="translate(112.469,-99.8711)">
			<title>工作表.24</title>
			<desc>nop</desc>
			<v:textBlock v:margins="rect(4,4,4,4)" v:tabSpace="42.5197"/>
			<v:textRect cx="12.0515" cy="359.191" width="24.11" height="18.4252"/>
			<rect x="0" y="349.978" width="24.103" height="18.4252" class="st2"/>
			<text x="5.45" y="361.59" class="st5" v:langID="2052"><v:paragraph v:horizAlign="1"/><v:tabList/>nop</text>		</g>
		<g id="shape25-69" v:mID="25" v:groupContext="shape" transform="translate(112.469,-39.6348)">
			<title>工作表.25</title>
			<desc>nop</desc>
			<v:textBlock v:margins="rect(4,4,4,4)" v:tabSpace="42.5197"/>
			<v:textRect cx="12.0515" cy="359.191" width="24.11" height="18.4252"/>
			<rect x="0" y="349.978" width="24.103" height="18.4252" class="st2"/>
			<text x="5.45" y="361.59" class="st5" v:langID="2052"><v:paragraph v:horizAlign="1"/><v:tabList/>nop</text>		</g>
		<g id="shape26-72" v:mID="26" v:groupContext="shape" transform="translate(137.054,-281.997)">
			<title>工作表.26</title>
			<desc>addu $2,$1,$3</desc>
			<v:textBlock v:margins="rect(4,4,4,4)" v:tabSpace="42.5197"/>
			<v:textRect cx="25.0544" cy="359.191" width="50.11" height="18.4252"/>
			<rect x="0" y="349.978" width="50.1088" height="18.4252" class="st2"/>
			<text x="16.26" y="356.79" class="st5" v:langID="2052"><v:paragraph v:horizAlign="1"/><v:tabList/>addu <tspan x="7.46"
						dy="1.2em" class="st6">$2,$1,$3</tspan></text>		</g>
		<g id="shape27-76" v:mID="27" v:groupContext="shape" transform="translate(163.06,-160.107)">
			<title>工作表.27</title>
			<desc>nop</desc>
			<v:textBlock v:margins="rect(4,4,4,4)" v:tabSpace="42.5197"/>
			<v:textRect cx="12.0515" cy="359.191" width="24.11" height="18.4252"/>
			<rect x="0" y="349.978" width="24.103" height="18.4252" class="st2"/>
			<text x="5.45" y="361.59" class="st5" v:langID="2052"><v:paragraph v:horizAlign="1"/><v:tabList/>nop</text>		</g>
		<g id="shape28-79" v:mID="28" v:groupContext="shape" transform="translate(163.06,-99.8711)">
			<title>工作表.28</title>
			<desc>nop</desc>
			<v:textBlock v:margins="rect(4,4,4,4)" v:tabSpace="42.5197"/>
			<v:textRect cx="12.0515" cy="359.191" width="24.11" height="18.4252"/>
			<rect x="0" y="349.978" width="24.103" height="18.4252" class="st2"/>
			<text x="5.45" y="361.59" class="st5" v:langID="2052"><v:paragraph v:horizAlign="1"/><v:tabList/>nop</text>		</g>
		<g id="shape29-82" v:mID="29" v:groupContext="shape" transform="translate(163.06,-39.6349)">
			<title>工作表.29</title>
			<desc>nop</desc>
			<v:textBlock v:margins="rect(4,4,4,4)" v:tabSpace="42.5197"/>
			<v:textRect cx="12.0515" cy="359.191" width="24.11" height="18.4252"/>
			<rect x="0" y="349.978" width="24.103" height="18.4252" class="st2"/>
			<text x="5.45" y="361.59" class="st5" v:langID="2052"><v:paragraph v:horizAlign="1"/><v:tabList/>nop</text>		</g>
		<g id="shape30-85" v:mID="30" v:groupContext="shape" transform="translate(137.233,-221.052)">
			<title>工作表.30</title>
			<desc>lw $1,0($0)</desc>
			<v:textBlock v:margins="rect(4,4,4,4)" v:tabSpace="42.5197"/>
			<v:textRect cx="25.0544" cy="359.191" width="50.11" height="18.4252"/>
			<rect x="0" y="349.978" width="50.1088" height="18.4252" class="st2"/>
			<text x="20.66" y="356.79" class="st5" v:langID="2052"><v:paragraph v:horizAlign="1"/><v:tabList/>lw <tspan x="7.46"
						dy="1.2em" class="st6">$1,0($0)</tspan></text>		</g>
		<g id="shape31-89" v:mID="31" v:groupContext="shape" transform="translate(187.383,-160.107)">
			<title>工作表.31</title>
			<desc>lw $1,0($0)</desc>
			<v:textBlock v:margins="rect(4,4,4,4)" v:tabSpace="42.5197"/>
			<v:textRect cx="25.0544" cy="359.191" width="50.11" height="18.4252"/>
			<rect x="0" y="349.978" width="50.1088" height="18.4252" class="st2"/>
			<text x="20.66" y="356.79" class="st5" v:langID="2052"><v:paragraph v:horizAlign="1"/><v:tabList/>lw <tspan x="7.46"
						dy="1.2em" class="st6">$1,0($0)</tspan></text>		</g>
		<g id="shape32-93" v:mID="32" v:groupContext="shape" transform="translate(187.56,-221.052)">
			<title>工作表.32</title>
			<desc>addu $2,$1,$3</desc>
			<v:textBlock v:margins="rect(4,4,4,4)" v:tabSpace="42.5197"/>
			<v:textRect cx="25.0544" cy="359.191" width="50.11" height="18.4252"/>
			<rect x="0" y="349.978" width="50.1088" height="18.4252" class="st2"/>
			<text x="16.26" y="356.79" class="st5" v:langID="2052"><v:paragraph v:horizAlign="1"/><v:tabList/>addu <tspan x="7.46"
						dy="1.2em" class="st6">$2,$1,$3</tspan></text>		</g>
		<g id="shape34-97" v:mID="34" v:groupContext="shape" transform="translate(213.213,-99.871)">
			<title>工作表.34</title>
			<desc>nop</desc>
			<v:textBlock v:margins="rect(4,4,4,4)" v:tabSpace="42.5197"/>
			<v:textRect cx="12.0515" cy="359.191" width="24.11" height="18.4252"/>
			<rect x="0" y="349.978" width="24.103" height="18.4252" class="st2"/>
			<text x="5.45" y="361.59" class="st5" v:langID="2052"><v:paragraph v:horizAlign="1"/><v:tabList/>nop</text>		</g>
		<g id="shape35-100" v:mID="35" v:groupContext="shape" transform="translate(213.213,-39.6348)">
			<title>工作表.35</title>
			<desc>nop</desc>
			<v:textBlock v:margins="rect(4,4,4,4)" v:tabSpace="42.5197"/>
			<v:textRect cx="12.0515" cy="359.191" width="24.11" height="18.4252"/>
			<rect x="0" y="349.978" width="24.103" height="18.4252" class="st2"/>
			<text x="5.45" y="361.59" class="st5" v:langID="2052"><v:paragraph v:horizAlign="1"/><v:tabList/>nop</text>		</g>
		<g id="shape36-103" v:mID="36" v:groupContext="shape" transform="translate(236.243,-100.225)">
			<title>工作表.36</title>
			<desc>lw $1,0($0)</desc>
			<v:textBlock v:margins="rect(4,4,4,4)" v:tabSpace="42.5197"/>
			<v:textRect cx="25.0544" cy="359.191" width="50.11" height="18.4252"/>
			<rect x="0" y="349.978" width="50.1088" height="18.4252" class="st2"/>
			<text x="20.66" y="356.79" class="st5" v:langID="2052"><v:paragraph v:horizAlign="1"/><v:tabList/>lw <tspan x="7.46"
						dy="1.2em" class="st6">$1,0($0)</tspan></text>		</g>
		<g id="shape39-107" v:mID="39" v:groupContext="shape" transform="translate(262.072,-39.9891)">
			<title>工作表.39</title>
			<desc>nop</desc>
			<v:textBlock v:margins="rect(4,4,4,4)" v:tabSpace="42.5197"/>
			<v:textRect cx="12.0515" cy="359.191" width="24.11" height="18.4252"/>
			<rect x="0" y="349.978" width="24.103" height="18.4252" class="st2"/>
			<text x="5.45" y="361.59" class="st5" v:langID="2052"><v:paragraph v:horizAlign="1"/><v:tabList/>nop</text>		</g>
		<g id="shape41-110" v:mID="41" v:groupContext="shape" transform="translate(361.704,-330.186)">
			<title>工作表.41</title>
			<path d="M0 368.4 L1.74 368.4 L14.42 368.4 L24.57 368.4 L24.57 357.06 L49.94 357.06 L49.94 368.4" class="st1"/>
		</g>
		<g id="shape43-113" v:mID="43" v:groupContext="shape" transform="translate(754.708,18.375) rotate(90)">
			<title>工作表.43</title>
			<path d="M0 368.4 L330.61 368.4" class="st4"/>
		</g>
		<g id="shape45-116" v:mID="45" v:groupContext="shape" transform="translate(286.725,-39.6348)">
			<title>工作表.45</title>
			<desc>lw $1,0($0)</desc>
			<v:textBlock v:margins="rect(4,4,4,4)" v:tabSpace="42.5197"/>
			<v:textRect cx="25.0544" cy="359.191" width="50.11" height="18.4252"/>
			<rect x="0" y="349.978" width="50.1088" height="18.4252" class="st2"/>
			<text x="20.66" y="356.79" class="st5" v:langID="2052"><v:paragraph v:horizAlign="1"/><v:tabList/>lw <tspan x="7.46"
						dy="1.2em" class="st6">$1,0($0)</tspan></text>		</g>
		<g id="shape49-120" v:mID="49" v:groupContext="shape" transform="translate(312.09,-283.415)">
			<title>工作表.49</title>
			<desc>nop</desc>
			<v:textBlock v:margins="rect(4,4,4,4)" v:tabSpace="42.5197"/>
			<v:textRect cx="12.0515" cy="359.191" width="24.11" height="18.4252"/>
			<rect x="0" y="349.978" width="24.103" height="18.4252" class="st2"/>
			<text x="5.45" y="361.59" class="st5" v:langID="2052"><v:paragraph v:horizAlign="1"/><v:tabList/>nop</text>		</g>
		<g id="shape53-123" v:mID="53" v:groupContext="shape" transform="translate(361.523,-222.47)">
			<title>工作表.53</title>
			<desc>nop</desc>
			<v:textBlock v:margins="rect(4,4,4,4)" v:tabSpace="42.5197"/>
			<v:textRect cx="12.0515" cy="359.191" width="24.11" height="18.4252"/>
			<rect x="0" y="349.978" width="24.103" height="18.4252" class="st2"/>
			<text x="5.45" y="361.59" class="st5" v:langID="2052"><v:paragraph v:horizAlign="1"/><v:tabList/>nop</text>		</g>
		<g id="shape54-126" v:mID="54" v:groupContext="shape" transform="translate(362.069,-283.414)">
			<title>工作表.54</title>
			<desc>nop</desc>
			<v:textBlock v:margins="rect(4,4,4,4)" v:tabSpace="42.5197"/>
			<v:textRect cx="12.0515" cy="359.191" width="24.11" height="18.4252"/>
			<rect x="0" y="349.978" width="24.103" height="18.4252" class="st2"/>
			<text x="5.45" y="361.59" class="st5" v:langID="2052"><v:paragraph v:horizAlign="1"/><v:tabList/>nop</text>		</g>
		<g id="group64-129" transform="translate(387.116,60.186) rotate(90)" v:mID="64" v:groupContext="group">
			<title>工作表.64</title>
			<g id="shape65-130" v:mID="65" v:groupContext="shape" transform="translate(1.39888E-14,-0.037856)">
				<title>工作表.65</title>
				<desc>F</desc>
				<v:textBlock v:margins="rect(4,4,4,4)" v:tabSpace="42.5197"/>
				<v:textRect cx="17.037" cy="351.367" width="34.08" height="34.074"/>
				<rect x="0" y="334.33" width="34.074" height="34.074" class="st7"/>
				<text x="11.54" y="356.77" class="st8" v:langID="2052"><v:paragraph v:horizAlign="1"/><v:tabList/>F</text>			</g>
			<g id="shape66-133" v:mID="66" v:groupContext="shape" transform="translate(60.576,-0.037856)">
				<title>工作表.66</title>
				<desc>D</desc>
				<v:textBlock v:margins="rect(4,4,4,4)" v:tabSpace="42.5197"/>
				<v:textRect cx="17.037" cy="351.367" width="34.08" height="34.074"/>
				<rect x="0" y="334.33" width="34.074" height="34.074" class="st9"/>
				<text x="10.54" y="356.77" class="st8" v:langID="2052"><v:paragraph v:horizAlign="1"/><v:tabList/>D</text>			</g>
			<g id="shape67-136" v:mID="67" v:groupContext="shape" transform="translate(106.25,-0.037856)">
				<title>工作表.67</title>
				<rect x="0" y="334.33" width="3.54369" height="34.074" class="st9"/>
			</g>
			<g id="shape68-138" v:mID="68" v:groupContext="shape" transform="translate(45.432,-0.037856)">
				<title>工作表.68</title>
				<rect x="0" y="334.33" width="3.54369" height="34.074" class="st9"/>
			</g>
			<g id="shape69-140" v:mID="69" v:groupContext="shape" transform="translate(181.728,-0.037856)">
				<title>工作表.69</title>
				<desc>M</desc>
				<v:textBlock v:margins="rect(4,4,4,4)" v:tabSpace="42.5197"/>
				<v:textRect cx="17.037" cy="351.367" width="34.08" height="34.074"/>
				<rect x="0" y="334.33" width="34.074" height="34.074" class="st7"/>
				<text x="8.54" y="356.77" class="st8" v:langID="2052"><v:paragraph v:horizAlign="1"/><v:tabList/>M</text>			</g>
			<g id="shape70-143" v:mID="70" v:groupContext="shape" transform="translate(242.304,-0.037856)">
				<title>工作表.70</title>
				<desc>W</desc>
				<v:textBlock v:margins="rect(4,4,4,4)" v:tabSpace="42.5197"/>
				<v:textRect cx="17.037" cy="351.367" width="34.08" height="34.074"/>
				<rect x="0" y="334.33" width="34.074" height="34.074" class="st9"/>
				<text x="8.04" y="356.77" class="st8" v:langID="2052"><v:paragraph v:horizAlign="1"/><v:tabList/>W</text>			</g>
			<g id="shape71-146" v:mID="71" v:groupContext="shape" transform="translate(166.584,-0.037856)">
				<title>工作表.71</title>
				<rect x="0" y="334.33" width="3.54369" height="34.074" class="st9"/>
			</g>
			<g id="shape72-148" v:mID="72" v:groupContext="shape" transform="translate(227.402,-0.037856)">
				<title>工作表.72</title>
				<rect x="0" y="334.33" width="3.54369" height="34.074" class="st9"/>
			</g>
			<g id="shape73-150" v:mID="73" v:groupContext="shape" transform="translate(121.152,-0.037856)">
				<title>工作表.73</title>
				<desc>E</desc>
				<v:textBlock v:margins="rect(4,4,4,4)" v:tabSpace="42.5197"/>
				<v:textRect cx="17.037" cy="351.367" width="34.08" height="34.074"/>
				<path d="M0 334.33 L0 345.88 L5.08 350.96 L0 356.04 L0 368.4 L34.07 356.48 L34.07 345.88 L0 334.33 Z" class="st7"/>
				<text x="11.03" y="356.77" class="st8" v:langID="2052"><v:paragraph v:horizAlign="1"/><v:tabList/>E</text>			</g>
			<g id="shape74-153" v:mID="74" v:groupContext="shape" transform="translate(34.074,-16.507)">
				<title>工作表.74</title>
				<path d="M0 368.4 L11.36 368.4" class="st1"/>
			</g>
			<g id="shape75-156" v:mID="75" v:groupContext="shape" transform="translate(48.9757,-16.507)">
				<title>工作表.75</title>
				<path d="M0 368.4 L11.6 368.4" class="st1"/>
			</g>
			<g id="shape76-159" v:mID="76" v:groupContext="shape" transform="translate(55.2756,-16.507)">
				<title>工作表.76</title>
				<path d="M0 368.4 L0 363.1 L5.3 363.1" class="st1"/>
			</g>
			<g id="shape77-162" v:mID="77" v:groupContext="shape" transform="translate(94.65,-28.6222)">
				<title>工作表.77</title>
				<path d="M0 368.4 L11.6 368.4" class="st1"/>
			</g>
			<g id="shape78-165" v:mID="78" v:groupContext="shape" transform="translate(109.794,-28.6222)">
				<title>工作表.78</title>
				<path d="M0 368.4 L11.36 368.4" class="st1"/>
			</g>
			<g id="shape79-168" v:mID="79" v:groupContext="shape" transform="translate(94.65,-4.39176)">
				<title>工作表.79</title>
				<path d="M0 368.4 L11.6 368.4" class="st1"/>
			</g>
			<g id="shape80-171" v:mID="80" v:groupContext="shape" transform="translate(109.794,-4.39176)">
				<title>工作表.80</title>
				<path d="M0 368.4 L11.36 368.4" class="st1"/>
			</g>
			<g id="shape81-174" v:mID="81" v:groupContext="shape" transform="translate(155.226,-17.2642)">
				<title>工作表.81</title>
				<path d="M0 368.4 L11.36 368.4" class="st1"/>
			</g>
			<g id="shape82-177" v:mID="82" v:groupContext="shape" transform="translate(170.128,-17.2642)">
				<title>工作表.82</title>
				<path d="M0 368.4 L11.6 368.4" class="st1"/>
			</g>
			<g id="shape83-180" v:mID="83" v:groupContext="shape" transform="translate(215.802,-18.0214)">
				<title>工作表.83</title>
				<path d="M0 368.4 L11.6 368.4" class="st1"/>
			</g>
			<g id="shape84-183" v:mID="84" v:groupContext="shape" transform="translate(230.946,-18.0214)">
				<title>工作表.84</title>
				<path d="M0 368.4 L11.36 368.4" class="st1"/>
			</g>
			<g id="shape85-186" v:mID="85" v:groupContext="shape" transform="translate(77.2344,0)">
				<title>工作表.85</title>
				<rect x="0" y="334.33" width="17.4156" height="34.074" class="st10"/>
			</g>
			<g id="shape86-188" v:mID="86" v:groupContext="shape" transform="translate(242.546,-0.037856)">
				<title>工作表.86</title>
				<rect x="0" y="334.33" width="17.4156" height="34.074" class="st10"/>
			</g>
		</g>
		<g id="shape87-190" v:mID="87" v:groupContext="shape" transform="translate(47.3343,-192.706)">
			<title>工作表.87</title>
			<path d="M5.36 368.4 L5.72 368.4 L18.82 368.4" class="st11"/>
		</g>
		<g id="shape99-196" v:mID="99" v:groupContext="shape" transform="translate(262.11,-283.06)">
			<title>工作表.99</title>
			<desc>nop</desc>
			<v:textBlock v:margins="rect(4,4,4,4)" v:tabSpace="42.5197"/>
			<v:textRect cx="12.0515" cy="359.191" width="24.11" height="18.4252"/>
			<rect x="0" y="349.978" width="24.103" height="18.4252" class="st2"/>
			<text x="5.45" y="361.59" class="st5" v:langID="2052"><v:paragraph v:horizAlign="1"/><v:tabList/>nop</text>		</g>
		<g id="shape100-199" v:mID="100" v:groupContext="shape" transform="translate(212.131,-282.706)">
			<title>工作表.100</title>
			<desc>nop</desc>
			<v:textBlock v:margins="rect(4,4,4,4)" v:tabSpace="42.5197"/>
			<v:textRect cx="12.0515" cy="359.191" width="24.11" height="18.4252"/>
			<rect x="0" y="349.978" width="24.103" height="18.4252" class="st2"/>
			<text x="5.45" y="361.59" class="st5" v:langID="2052"><v:paragraph v:horizAlign="1"/><v:tabList/>nop</text>		</g>
		<g id="shape102-202" v:mID="102" v:groupContext="shape" transform="translate(312.425,-222.469)">
			<title>工作表.102</title>
			<desc>nop</desc>
			<v:textBlock v:margins="rect(4,4,4,4)" v:tabSpace="42.5197"/>
			<v:textRect cx="12.0515" cy="359.191" width="24.11" height="18.4252"/>
			<rect x="0" y="349.978" width="24.103" height="18.4252" class="st2"/>
			<text x="5.45" y="361.59" class="st5" v:langID="2052"><v:paragraph v:horizAlign="1"/><v:tabList/>nop</text>		</g>
		<g id="shape103-205" v:mID="103" v:groupContext="shape" transform="translate(362.054,-160.107)">
			<title>工作表.103</title>
			<desc>nop</desc>
			<v:textBlock v:margins="rect(4,4,4,4)" v:tabSpace="42.5197"/>
			<v:textRect cx="12.0515" cy="359.191" width="24.11" height="18.4252"/>
			<rect x="0" y="349.978" width="24.103" height="18.4252" class="st2"/>
			<text x="5.45" y="361.59" class="st5" v:langID="2052"><v:paragraph v:horizAlign="1"/><v:tabList/>nop</text>		</g>
		<g id="shape106-208" v:mID="106" v:groupContext="shape" transform="translate(236.356,-221.052)">
			<title>工作表.106</title>
			<desc>addu $2,$1,$3</desc>
			<v:textBlock v:margins="rect(4,4,4,4)" v:tabSpace="42.5197"/>
			<v:textRect cx="25.0544" cy="359.191" width="50.11" height="18.4252"/>
			<rect x="0" y="349.978" width="50.1088" height="18.4252" class="st2"/>
			<text x="16.26" y="356.79" class="st5" v:langID="2052"><v:paragraph v:horizAlign="1"/><v:tabList/>addu <tspan x="7.46"
						dy="1.2em" class="st6">$2,$1,$3</tspan></text>		</g>
		<g id="shape107-212" v:mID="107" v:groupContext="shape" transform="translate(262.797,-160.107)">
			<title>工作表.107</title>
			<desc>nop</desc>
			<v:textBlock v:margins="rect(4,4,4,4)" v:tabSpace="42.5197"/>
			<v:textRect cx="12.0515" cy="359.191" width="24.11" height="18.4252"/>
			<rect x="0" y="349.978" width="24.103" height="18.4252" class="st2"/>
			<text x="5.45" y="361.59" class="st13" v:langID="2052"><v:paragraph v:horizAlign="1"/><v:tabList/>nop</text>		</g>
		<g id="shape108-215" v:mID="108" v:groupContext="shape" transform="translate(286.922,-160.107)">
			<title>工作表.108</title>
			<desc>addu $2,$1,$3</desc>
			<v:textBlock v:margins="rect(4,4,4,4)" v:tabSpace="42.5197"/>
			<v:textRect cx="25.0544" cy="359.191" width="50.11" height="18.4252"/>
			<rect x="0" y="349.978" width="50.1088" height="18.4252" class="st2"/>
			<text x="16.26" y="356.79" class="st5" v:langID="2052"><v:paragraph v:horizAlign="1"/><v:tabList/>addu <tspan x="7.46"
						dy="1.2em" class="st6">$2,$1,$3</tspan></text>		</g>
		<g id="shape109-219" v:mID="109" v:groupContext="shape" transform="translate(313.363,-100.58)">
			<title>工作表.109</title>
			<desc>nop</desc>
			<v:textBlock v:margins="rect(4,4,4,4)" v:tabSpace="42.5197"/>
			<v:textRect cx="12.0515" cy="359.191" width="24.11" height="18.4252"/>
			<rect x="0" y="349.978" width="24.103" height="18.4252" class="st2"/>
			<text x="5.45" y="361.59" class="st5" v:langID="2052"><v:paragraph v:horizAlign="1"/><v:tabList/>nop</text>		</g>
		<g id="shape110-222" v:mID="110" v:groupContext="shape" transform="translate(336.528,-99.8711)">
			<title>工作表.110</title>
			<desc>addu $2,$1,$3</desc>
			<v:textBlock v:margins="rect(4,4,4,4)" v:tabSpace="42.5197"/>
			<v:textRect cx="25.0544" cy="359.191" width="50.11" height="18.4252"/>
			<rect x="0" y="349.978" width="50.1088" height="18.4252" class="st2"/>
			<text x="16.26" y="356.79" class="st5" v:langID="2052"><v:paragraph v:horizAlign="1"/><v:tabList/>addu <tspan x="7.46"
						dy="1.2em" class="st6">$2,$1,$3</tspan></text>		</g>
		<g id="shape111-226" v:mID="111" v:groupContext="shape" transform="translate(362.969,-40.3435)">
			<title>工作表.111</title>
			<desc>nop</desc>
			<v:textBlock v:margins="rect(4,4,4,4)" v:tabSpace="42.5197"/>
			<v:textRect cx="12.0515" cy="359.191" width="24.11" height="18.4252"/>
			<rect x="0" y="349.978" width="24.103" height="18.4252" class="st2"/>
			<text x="5.45" y="361.59" class="st5" v:langID="2052"><v:paragraph v:horizAlign="1"/><v:tabList/>nop</text>		</g>
		<g id="shape1000-229" v:mID="1000" v:groupContext="shape" transform="translate(36.7335,-70.8159)">
			<title>工作表.1000</title>
			<path d="M22.57 249.99 L22.57 250.35 L22.57 368.4 L0 368.4" class="st14"/>
		</g>
		<g id="shape1001-235" v:mID="1001" v:groupContext="shape" transform="translate(-67.7755,278.564) rotate(-83.5007)">
			<title>工作表.1001</title>
			<path d="M0 368.4 L108.86 368.4" class="st16"/>
		</g>
	</g>
</svg>
