
          <svg xmlns="http://www.w3.org/2000/svg" xmlns:cc="http://creativecommons.org/ns#" xmlns:rdf="http://www.w3.org/1999/02/22-rdf-syntax-ns#" version="1.1" width="117.8125" height="84.8125">
            <defs>
              <style type="text/css">svg {
          background-color: #fff; }
        
        .root text,
        .root tspan {
          font: 12px Arial; }
        
        .root path {
          fill-opacity: 0;
          stroke-width: 2px;
          stroke: #000; }
        
        .root circle {
          fill: #6b6659;
          stroke-width: 2px;
          stroke: #000; }
        
        .anchor text, .any-character text {
          fill: #fff; }
        
        .anchor rect, .any-character rect {
          fill: #6b6659; }
        
        .escape text, .charset-escape text, .literal text {
          fill: #000; }
        
        .escape rect, .charset-escape rect {
          fill: #bada55; }
        
        .literal rect {
          fill: #dae9e5; }
        
        .charset .charset-box {
          fill: #cbcbba; }
        
        .subexp .subexp-label tspan,
        .charset .charset-label tspan,
        .match-fragment .repeat-label tspan {
          font-size: 10px; }
        
        .repeat-label {
          cursor: help; }
        
        .subexp .subexp-label tspan,
        .charset .charset-label tspan {
          dominant-baseline: text-after-edge; }
        
        .subexp .subexp-box {
          stroke: #908c83;
          stroke-dasharray: 6,2;
          stroke-width: 2px;
          fill-opacity: 0; }
        
        .quote {
          fill: #908c83; }
        </style>
            </defs>
            <metadata>
              <rdf:rdf>
                <cc:license rdf:about="http://creativecommons.org/licenses/by/3.0/">
                  <cc:permits rdf:resource="http://creativecommons.org/ns#Reproduction"></cc:permits>
                  <cc:permits rdf:resource="http://creativecommons.org/ns#Distribution"></cc:permits>
                  <cc:requires rdf:resource="http://creativecommons.org/ns#Notice"></cc:requires>
                  <cc:requires rdf:resource="http://creativecommons.org/ns#Attribution"></cc:requires>
                  <cc:permits rdf:resource="http://creativecommons.org/ns#DerivativeWorks"></cc:permits>
                </cc:license>
              </rdf:rdf>
            </metadata>
          <desc>Created with Snap</desc><g class="root" transform="matrix(1,0,0,1,15,10)"><g class="regexp match match-fragment" transform="matrix(1,0,0,1,10,0)"><path d="M0,38.0077875q10,0 10,-10v-18.007812295532226q0,-10 10,-10h27.8125q10,0 10,10v18.007812295532226q0,10 10,10M15,38.0077875q-10,0 -10,10v6.804687704467774q0,10 10,10h37.8125q10,0 10,-10v-6.804687704467774q0,-10 -10,-10M62.8125,53.0077875l5,-5m-5,5l-5,-5"></path><g class="charset" transform="matrix(1,0,0,1,15,10)"><rect rx="3" ry="3" class="charset-box" transform="matrix(1,0,0,1,0,11.2031)" width="37.8125" height="33.609375"></rect><text x="0" y="0" class="charset-label" transform="matrix(1,0,0,1,0,11.2031)"><tspan>None of:</tspan></text><g transform="matrix(1,0,0,1,7.9063,16.2031)"><g class="literal" transform="matrix(1,0,0,1,0,0)"><g class="label"><rect width="22" height="23.609375" rx="3" ry="3"></rect><text x="0" y="0" transform="matrix(1,0,0,1,5,16.8047)"><tspan class="quote">“</tspan><tspan>(</tspan><tspan class="quote">”</tspan></text></g></g></g></g></g><path d="M25,38.0077875H0M62.8125,38.0077875H87.8125"></path><circle cx="0" cy="38.0077875" r="5"></circle><circle cx="87.8125" cy="38.0077875" r="5"></circle></g></svg>
        