
          <svg xmlns="http://www.w3.org/2000/svg" xmlns:cc="http://creativecommons.org/ns#" xmlns:rdf="http://www.w3.org/1999/02/22-rdf-syntax-ns#" version="1.1" width="184.51559448242188" height="77.23434829711914">
            <defs>
              <style type="text/css">svg {
          background-color: #fff; }
        
        .root text,
        .root tspan {
          font: 12px Arial; }
        
        .root path {
          fill-opacity: 0;
          stroke-width: 2px;
          stroke: #000; }
        
        .root circle {
          fill: #6b6659;
          stroke-width: 2px;
          stroke: #000; }
        
        .anchor text, .any-character text {
          fill: #fff; }
        
        .anchor rect, .any-character rect {
          fill: #6b6659; }
        
        .escape text, .charset-escape text, .literal text {
          fill: #000; }
        
        .escape rect, .charset-escape rect {
          fill: #bada55; }
        
        .literal rect {
          fill: #dae9e5; }
        
        .charset .charset-box {
          fill: #cbcbba; }
        
        .subexp .subexp-label tspan,
        .charset .charset-label tspan,
        .match-fragment .repeat-label tspan {
          font-size: 10px; }
        
        .repeat-label {
          cursor: help; }
        
        .subexp .subexp-label tspan,
        .charset .charset-label tspan {
          dominant-baseline: text-after-edge; }
        
        .subexp .subexp-box {
          stroke: #908c83;
          stroke-dasharray: 6,2;
          stroke-width: 2px;
          fill-opacity: 0; }
        
        .quote {
          fill: #908c83; }
        </style>
            </defs>
            <metadata>
              <rdf:rdf>
                <cc:license rdf:about="http://creativecommons.org/licenses/by/3.0/">
                  <cc:permits rdf:resource="http://creativecommons.org/ns#Reproduction"></cc:permits>
                  <cc:permits rdf:resource="http://creativecommons.org/ns#Distribution"></cc:permits>
                  <cc:requires rdf:resource="http://creativecommons.org/ns#Notice"></cc:requires>
                  <cc:requires rdf:resource="http://creativecommons.org/ns#Attribution"></cc:requires>
                  <cc:permits rdf:resource="http://creativecommons.org/ns#DerivativeWorks"></cc:permits>
                </cc:license>
              </rdf:rdf>
            </metadata>
          <desc>Created with Snap</desc><g class="root" transform="matrix(1,0,0,1,15,10)"><g class="regexp match" transform="matrix(1,0,0,1,10,0)"><path d="M46.828125,21.8046875H86.8281"></path><g class="match-fragment" transform="matrix(1,0,0,1,0,10)"><path d="M10,11.8046875q-10,0 -10,10v1.8046875q0,10 10,10h36.828125q10,0 10,-10v-1.8046875q0,-10 -10,-10M56.828125,26.8046875l5,-5m-5,5l-5,-5"></path><g class="escape" transform="matrix(1,0,0,1,10,0)"><g class="label"><rect width="36.828125" height="23.609375" rx="3" ry="3"></rect><text x="0" y="0" transform="matrix(1,0,0,1,5,16.8047)"><tspan>word</tspan></text></g></g><text x="0" y="0" class="repeat-label" transform="matrix(1,0,0,1,28.9844,44.8281)"><tspan>2 times</tspan><title><text x="0" y="0">repeats 3 times in total</text></title></text></g><g class="match-fragment" transform="matrix(1,0,0,1,71.8281,0)"><path d="M0,21.8046875q10,0 10,-10v-1.8046875q0,-10 10,-10h22.6875q10,0 10,10v1.8046875q0,10 10,10"></path><g class="escape" transform="matrix(1,0,0,1,15,10)"><g class="label"><rect width="32.6875" height="23.609375" rx="3" ry="3"></rect><text x="0" y="0" transform="matrix(1,0,0,1,5,16.8047)"><tspan>digit</tspan></text></g></g></g></g><path d="M20,21.8046875H0M129.5156,21.8046875H154.51559448242188"></path><circle cx="0" cy="21.8046875" r="5"></circle><circle cx="154.51559448242188" cy="21.8046875" r="5"></circle></g></svg>
        