
          <svg xmlns="http://www.w3.org/2000/svg" xmlns:cc="http://creativecommons.org/ns#" xmlns:rdf="http://www.w3.org/1999/02/22-rdf-syntax-ns#" version="1.1" width="309.4531555175781" height="53.609375">
            <defs>
              <style type="text/css">svg {
          background-color: #fff; }
        
        .root text,
        .root tspan {
          font: 12px Arial; }
        
        .root path {
          fill-opacity: 0;
          stroke-width: 2px;
          stroke: #000; }
        
        .root circle {
          fill: #6b6659;
          stroke-width: 2px;
          stroke: #000; }
        
        .anchor text, .any-character text {
          fill: #fff; }
        
        .anchor rect, .any-character rect {
          fill: #6b6659; }
        
        .escape text, .charset-escape text, .literal text {
          fill: #000; }
        
        .escape rect, .charset-escape rect {
          fill: #bada55; }
        
        .literal rect {
          fill: #dae9e5; }
        
        .charset .charset-box {
          fill: #cbcbba; }
        
        .subexp .subexp-label tspan,
        .charset .charset-label tspan,
        .match-fragment .repeat-label tspan {
          font-size: 10px; }
        
        .repeat-label {
          cursor: help; }
        
        .subexp .subexp-label tspan,
        .charset .charset-label tspan {
          dominant-baseline: text-after-edge; }
        
        .subexp .subexp-box {
          stroke: #908c83;
          stroke-dasharray: 6,2;
          stroke-width: 2px;
          fill-opacity: 0; }
        
        .quote {
          fill: #908c83; }
        </style>
            </defs>
            <metadata>
              <rdf:rdf>
                <cc:license rdf:about="http://creativecommons.org/licenses/by/3.0/">
                  <cc:permits rdf:resource="http://creativecommons.org/ns#Reproduction"></cc:permits>
                  <cc:permits rdf:resource="http://creativecommons.org/ns#Distribution"></cc:permits>
                  <cc:requires rdf:resource="http://creativecommons.org/ns#Notice"></cc:requires>
                  <cc:requires rdf:resource="http://creativecommons.org/ns#Attribution"></cc:requires>
                  <cc:permits rdf:resource="http://creativecommons.org/ns#DerivativeWorks"></cc:permits>
                </cc:license>
              </rdf:rdf>
            </metadata>
          <desc>Created with Snap</desc><g class="root" transform="matrix(1,0,0,1,15,10)"><g class="regexp match" transform="matrix(1,0,0,1,10,0)"><path d="M84.71875,11.8046875H109.7188M149.734425,11.8046875H169.7344"></path><g class="match-fragment" transform="matrix(1,0,0,1,0,0)"><path d="M10,11.8046875q-10,0 -10,10v1.8046875q0,10 10,10h74.71875q10,0 10,-10v-1.8046875q0,-10 -10,-10M94.71875,26.8046875l5,-5m-5,5l-5,-5"></path><g class="escape" transform="matrix(1,0,0,1,10,0)"><g class="label"><rect width="74.71875" height="23.609375" rx="3" ry="3"></rect><text x="0" y="0" transform="matrix(1,0,0,1,5,16.8047)"><tspan>white space</tspan></text></g></g></g><g class="match-fragment literal" transform="matrix(1,0,0,1,109.7188,0)"><g class="label"><rect width="40.015625" height="23.609375" rx="3" ry="3"></rect><text x="0" y="0" transform="matrix(1,0,0,1,5,16.8047)"><tspan class="quote">“</tspan><tspan>java</tspan><tspan class="quote">”</tspan></text></g></g><g class="match-fragment" transform="matrix(1,0,0,1,159.7344,0)"><path d="M10,11.8046875q-10,0 -10,10v1.8046875q0,10 10,10h74.71875q10,0 10,-10v-1.8046875q0,-10 -10,-10M94.71875,26.8046875l5,-5m-5,5l-5,-5"></path><g class="escape" transform="matrix(1,0,0,1,10,0)"><g class="label"><rect width="74.71875" height="23.609375" rx="3" ry="3"></rect><text x="0" y="0" transform="matrix(1,0,0,1,5,16.8047)"><tspan>white space</tspan></text></g></g></g></g><path d="M20,11.8046875H0M254.45315,11.8046875H279.4531555175781"></path><circle cx="0" cy="11.8046875" r="5"></circle><circle cx="279.4531555175781" cy="11.8046875" r="5"></circle></g></svg>
        