<?xml version="1.0" encoding="UTF-8" standalone="no"?>
<!DOCTYPE svg PUBLIC "-//W3C//DTD SVG 1.1//EN" "http://www.w3.org/Graphics/SVG/1.1/DTD/svg11.dtd">
<!-- 由 Microsoft Visio, SVG Export 生成 S-CPU-DP.svg Page-1 -->
<svg xmlns="http://www.w3.org/2000/svg" xmlns:xlink="http://www.w3.org/1999/xlink" xmlns:ev="http://www.w3.org/2001/xml-events"
		xmlns:v="http://schemas.microsoft.com/visio/2003/SVGExtensions/" width="10.3634in" height="9.11809in"
		viewBox="0 0 746.161 656.502" xml:space="preserve" color-interpolation-filters="sRGB" class="st13">
	<v:documentProperties v:langID="2052" v:metric="true" v:viewMarkup="false">
		<v:userDefs>
			<v:ud v:nameU="msvNoAutoConnect" v:val="VT0(1):26"/>
		</v:userDefs>
	</v:documentProperties>

	<style type="text/css">
	<![CDATA[
		.st1 {fill:#ffffff;stroke:#000000;stroke-linecap:round;stroke-linejoin:round;stroke-width:1.5}
		.st2 {stroke:#000000;stroke-linecap:round;stroke-linejoin:round;stroke-width:0.75}
		.st3 {fill:#000000;stroke:#000000;stroke-linecap:round;stroke-linejoin:round;stroke-width:0.75}
		.st4 {fill:none;stroke:none;stroke-linecap:round;stroke-linejoin:round;stroke-width:0.75}
		.st5 {fill:#000000;font-family:Times New Roman;font-size:1.16666em;font-weight:bold}
		.st6 {fill:#000000;font-family:Times New Roman;font-size:0.666664em;font-weight:bold}
		.st7 {fill:#000000;font-family:Times New Roman;font-size:0.499992em;font-weight:bold}
		.st8 {fill:#000000;font-family:Times New Roman;font-size:1.5em;font-weight:bold}
		.st9 {fill:none;stroke:#000000;stroke-dasharray:3.75,2.25;stroke-linecap:round;stroke-linejoin:round;stroke-width:0.25}
		.st10 {fill:#000000;font-family:Times New Roman;font-size:0.666664em}
		.st11 {fill:none;stroke:#000000;stroke-dasharray:10.5,7.5,0,7.5,0,7.5;stroke-linecap:round;stroke-linejoin:round;stroke-width:1.5}
		.st12 {fill:#000000;font-family:Times New Roman;font-size:2.50001em}
		.st13 {fill:none;fill-rule:evenodd;font-size:12px;overflow:visible;stroke-linecap:square;stroke-miterlimit:3}
	]]>
	</style>

	<g v:mID="0" v:index="1" v:groupContext="foregroundPage">
		<title>页-1</title>
		<v:pageProperties v:drawingScale="0.0393701" v:pageScale="0.0393701" v:drawingUnits="24" v:shadowOffsetX="8.50394"
				v:shadowOffsetY="-8.50394"/>
		<v:layer v:name="连接线" v:index="0"/>
		<g id="group1067-1" transform="translate(18.75,-17.0079)" v:mID="1067" v:groupContext="group">
			<title>工作表.1067</title>
			<g id="group1065-2" transform="translate(0,-1.74213)" v:mID="1065" v:groupContext="group">
				<title>工作表.1065</title>
				<g id="group32-3" transform="translate(63.9213,-236.111)" v:mID="32" v:groupContext="group">
					<title>PC</title>
					<g id="shape33-4" v:mID="33" v:groupContext="shape" transform="translate(5.38584,-8.75703)">
						<title>工作表.33</title>
						<rect x="0" y="554.455" width="48.189" height="102.047" class="st1"/>
					</g>
					<g id="group34-6" transform="translate(17.2914,-98.6153)" v:mID="34" v:groupContext="group">
						<title>工作表.34</title>
						<g id="shape35-7" v:mID="35" v:groupContext="shape" transform="translate(464.217,180.096) rotate(45)">
							<title>工作表.35</title>
							<path d="M0 656.5 L17.24 656.5" class="st2"/>
						</g>
						<g id="shape36-10" v:mID="36" v:groupContext="shape" transform="translate(488.595,1108.53) rotate(135)">
							<title>工作表.36</title>
							<path d="M0 656.5 L17.24 656.5" class="st2"/>
						</g>
						<g id="shape37-13" v:mID="37" v:groupContext="shape" transform="translate(2.9976E-14,-12.189)">
							<title>工作表.37</title>
							<path d="M0 656.5 L24.38 656.5" class="st2"/>
						</g>
					</g>
					<g id="shape38-16" v:mID="38" v:groupContext="shape" transform="translate(3.96851,-58.3633)">
						<title>工作表.38</title>
						<ellipse cx="1.41732" cy="655.085" rx="1.41732" ry="1.41732" class="st3"/>
					</g>
					<g id="shape39-18" v:mID="39" v:groupContext="shape" transform="translate(52.1575,-58.3633)">
						<title>工作表.39</title>
						<ellipse cx="1.41732" cy="655.085" rx="1.41732" ry="1.41732" class="st3"/>
					</g>
					<g id="shape40-20" v:mID="40" v:groupContext="shape" transform="translate(18.1417,-7.33969)">
						<title>工作表.40</title>
						<ellipse cx="1.41732" cy="655.085" rx="1.41732" ry="1.41732" class="st3"/>
					</g>
					<g id="shape41-22" v:mID="41" v:groupContext="shape" transform="translate(37.0984,-7.33969)">
						<title>工作表.41</title>
						<ellipse cx="1.41732" cy="655.085" rx="1.41732" ry="1.41732" class="st3"/>
					</g>
					<g id="shape42-24" v:mID="42" v:groupContext="shape" transform="translate(13.3228,-65.4499)">
						<title>工作表.42</title>
						<desc>PC</desc>
						<v:textBlock v:margins="rect(4,4,4,4)" v:tabSpace="42.5197"/>
						<v:textRect cx="16.1575" cy="642.076" width="32.32" height="28.8526"/>
						<rect x="0" y="627.65" width="32.315" height="28.8526" class="st4"/>
						<text x="6.83" y="646.28" class="st5" v:langID="2052"><v:paragraph v:horizAlign="1"/><v:tabList/>PC</text>					</g>
					<g id="shape43-27" v:mID="43" v:groupContext="shape" transform="translate(0,-45.3543)">
						<title>工作表.43</title>
						<desc>Next</desc>
						<v:textBlock v:margins="rect(4,4,4,4)" v:tabSpace="42.5197"/>
						<v:textRect cx="16.1575" cy="642.076" width="32.32" height="28.8526"/>
						<rect x="0" y="627.65" width="32.315" height="28.8526" class="st4"/>
						<text x="8.16" y="644.48" class="st6" v:langID="2052"><v:paragraph v:horizAlign="1"/><v:tabList/>Next</text>					</g>
					<g id="shape44-30" v:mID="44" v:groupContext="shape" transform="translate(26.9291,-45.3543)">
						<title>工作表.44</title>
						<desc>PC</desc>
						<v:textBlock v:margins="rect(4,4,4,4)" v:tabSpace="42.5197"/>
						<v:textRect cx="16.1575" cy="642.076" width="32.32" height="28.8526"/>
						<rect x="0" y="627.65" width="32.315" height="28.8526" class="st4"/>
						<text x="10.83" y="644.48" class="st6" v:langID="2052"><v:paragraph v:horizAlign="1"/><v:tabList/>PC</text>					</g>
					<g id="shape45-33" v:mID="45" v:groupContext="shape" transform="translate(3.40159,-0.253092)">
						<title>工作表.45</title>
						<desc>Rst</desc>
						<v:textBlock v:margins="rect(4,4,4,4)" v:tabSpace="42.5197"/>
						<v:textRect cx="16.1575" cy="642.076" width="32.32" height="28.8526"/>
						<rect x="0" y="627.65" width="32.315" height="28.8526" class="st4"/>
						<text x="11.82" y="643.88" class="st7" v:langID="2052"><v:paragraph v:horizAlign="1"/><v:tabList/>Rst</text>					</g>
					<g id="shape46-36" v:mID="46" v:groupContext="shape" transform="translate(22.3583,0)">
						<title>工作表.46</title>
						<desc>En</desc>
						<v:textBlock v:margins="rect(4,4,4,4)" v:tabSpace="42.5197"/>
						<v:textRect cx="16.1575" cy="642.076" width="32.32" height="28.8526"/>
						<rect x="0" y="627.65" width="32.315" height="28.8526" class="st4"/>
						<text x="12.49" y="643.88" class="st7" v:langID="2052"><v:paragraph v:horizAlign="1"/><v:tabList/>En</text>					</g>
					<g id="shape47-39" v:mID="47" v:groupContext="shape" transform="translate(28.063,-109.387)">
						<title>工作表.47</title>
						<ellipse cx="1.41732" cy="655.085" rx="1.41732" ry="1.41732" class="st3"/>
					</g>
					<g id="shape48-41" v:mID="48" v:groupContext="shape" transform="translate(13.3228,-91.5287)">
						<title>工作表.48</title>
						<desc>Clk</desc>
						<v:textBlock v:margins="rect(4,4,4,4)" v:tabSpace="42.5197"/>
						<v:textRect cx="16.1575" cy="642.076" width="32.32" height="28.8526"/>
						<rect x="0" y="627.65" width="32.315" height="28.8526" class="st4"/>
						<text x="11.49" y="643.88" class="st7" v:langID="2052"><v:paragraph v:horizAlign="1"/><v:tabList/>Clk</text>					</g>
				</g>
				<g id="group49-44" transform="translate(60.3779,-470.566)" v:mID="49" v:groupContext="group">
					<title>IM</title>
					<g id="shape50-45" v:mID="50" v:groupContext="shape" transform="translate(3.63779,0)">
						<title>工作表.50</title>
						<rect x="0" y="509.115" width="216.614" height="147.387" class="st1"/>
					</g>
					<g id="shape51-47" v:mID="51" v:groupContext="shape" transform="translate(2.26772,-72.2762)">
						<title>PC.1008</title>
						<ellipse cx="1.41732" cy="655.085" rx="1.41732" ry="1.41732" class="st3"/>
					</g>
					<g id="shape52-49" v:mID="52" v:groupContext="shape" transform="translate(218.835,-72.2762)">
						<title>PC.1019</title>
						<ellipse cx="1.41732" cy="655.085" rx="1.41732" ry="1.41732" class="st3"/>
					</g>
					<g id="shape53-51" v:mID="53" v:groupContext="shape" transform="translate(68.1496,-54.5596)">
						<title>工作表.53</title>
						<desc>IM</desc>
						<v:textBlock v:margins="rect(4,4,4,4)" v:tabSpace="42.5197"/>
						<v:textRect cx="43.7953" cy="637.369" width="87.6" height="38.2677"/>
						<rect x="0" y="618.235" width="87.5906" height="38.2677" class="st4"/>
						<text x="31.8" y="642.77" class="st8" v:langID="2052"><v:paragraph v:horizAlign="1"/><v:tabList/>IM</text>					</g>
					<g id="shape54-54" v:mID="54" v:groupContext="shape" transform="translate(-5.9952E-15,-59.2672)">
						<title>PC.1032</title>
						<desc>Addr</desc>
						<v:textBlock v:margins="rect(4,4,4,4)" v:tabSpace="42.5197"/>
						<v:textRect cx="16.1575" cy="642.076" width="32.32" height="28.8526"/>
						<rect x="0" y="627.65" width="32.315" height="28.8526" class="st4"/>
						<text x="7.04" y="644.48" class="st6" v:langID="2052"><v:paragraph v:horizAlign="1"/><v:tabList/>Addr</text>					</g>
					<g id="shape55-57" v:mID="55" v:groupContext="shape" transform="translate(190.772,-59.2672)">
						<title>PC.1039</title>
						<desc>Instr</desc>
						<v:textBlock v:margins="rect(4,4,4,4)" v:tabSpace="42.5197"/>
						<v:textRect cx="16.1575" cy="642.076" width="32.32" height="28.8526"/>
						<rect x="0" y="627.65" width="32.315" height="28.8526" class="st4"/>
						<text x="7.71" y="644.48" class="st6" v:langID="2052"><v:paragraph v:horizAlign="1"/><v:tabList/>Instr</text>					</g>
				</g>
				<g id="group56-60" transform="translate(287.717,-220.9)" v:mID="56" v:groupContext="group">
					<title>GRF</title>
					<g id="shape57-61" v:mID="57" v:groupContext="shape" transform="translate(1.41732,-1.41732)">
						<title>工作表.57</title>
						<rect x="0" y="506.266" width="123.307" height="150.236" class="st1"/>
					</g>
					<g id="shape58-63" v:mID="58" v:groupContext="shape" transform="translate(52.5827,-140.234)">
						<title>PC.17</title>
						<desc>Clk</desc>
						<v:textBlock v:margins="rect(4,4,4,4)" v:tabSpace="42.5197"/>
						<v:textRect cx="10.4882" cy="650.084" width="20.98" height="12.8369"/>
						<rect x="0" y="643.666" width="20.9764" height="12.8369" class="st4"/>
						<text x="5.82" y="651.88" class="st7" v:langID="2052"><v:paragraph v:horizAlign="1"/><v:tabList/>Clk</text>					</g>
					<g id="group59-66" transform="translate(51.0236,-139.465)" v:mID="59" v:groupContext="group">
						<title>PC.3</title>
						<g id="shape60-67" v:mID="60" v:groupContext="shape" transform="translate(464.217,180.096) rotate(45)">
							<title>工作表.60</title>
							<path d="M0 656.5 L17.24 656.5" class="st2"/>
						</g>
						<g id="shape61-70" v:mID="61" v:groupContext="shape" transform="translate(488.595,1108.53) rotate(135)">
							<title>工作表.61</title>
							<path d="M0 656.5 L17.24 656.5" class="st2"/>
						</g>
						<g id="shape62-73" v:mID="62" v:groupContext="shape" transform="translate(3.59712E-14,-12.189)">
							<title>工作表.62</title>
							<path d="M0 656.5 L24.38 656.5" class="st2"/>
						</g>
					</g>
					<g id="shape63-76" v:mID="63" v:groupContext="shape" transform="translate(61.7953,-150.236)">
						<title>PC.16</title>
						<ellipse cx="1.41732" cy="655.085" rx="1.41732" ry="1.41732" class="st3"/>
					</g>
					<g id="shape64-78" v:mID="64" v:groupContext="shape" transform="translate(43.2283,-63.3543)">
						<title>工作表.64</title>
						<desc>GRF</desc>
						<v:textBlock v:margins="rect(4,4,4,4)" v:tabSpace="42.5197"/>
						<v:textRect cx="19.8425" cy="643.321" width="39.69" height="26.3622"/>
						<rect x="0" y="630.14" width="39.685" height="26.3622" class="st4"/>
						<text x="5.07" y="647.52" class="st5" v:langID="2052"><v:paragraph v:horizAlign="1"/><v:tabList/>GRF</text>					</g>
					<g id="shape65-81" v:mID="65" v:groupContext="shape" transform="translate(9.90282E-06,-119.055)">
						<title>PC.27</title>
						<ellipse cx="1.41732" cy="655.085" rx="1.41732" ry="1.41732" class="st3"/>
					</g>
					<g id="shape66-83" v:mID="66" v:groupContext="shape" transform="translate(9.90282E-06,-94.9606)">
						<title>PC.28</title>
						<ellipse cx="1.41732" cy="655.085" rx="1.41732" ry="1.41732" class="st3"/>
					</g>
					<g id="shape67-85" v:mID="67" v:groupContext="shape" transform="translate(5.2458E-14,-58.1102)">
						<title>PC.31</title>
						<ellipse cx="1.41732" cy="655.085" rx="1.41732" ry="1.41732" class="st3"/>
					</g>
					<g id="shape68-87" v:mID="68" v:groupContext="shape" transform="translate(2.07334E-14,-34.0157)">
						<title>PC.32</title>
						<ellipse cx="1.41732" cy="655.085" rx="1.41732" ry="1.41732" class="st3"/>
					</g>
					<g id="shape69-89" v:mID="69" v:groupContext="shape" transform="translate(123.307,-119.055)">
						<title>PC.33</title>
						<ellipse cx="1.41732" cy="655.085" rx="1.41732" ry="1.41732" class="st3"/>
					</g>
					<g id="shape70-91" v:mID="70" v:groupContext="shape" transform="translate(123.307,-94.9606)">
						<title>PC.34</title>
						<ellipse cx="1.41732" cy="655.085" rx="1.41732" ry="1.41732" class="st3"/>
					</g>
					<g id="shape71-93" v:mID="71" v:groupContext="shape" transform="translate(39.685,0)">
						<title>PC.35</title>
						<ellipse cx="1.41732" cy="655.085" rx="1.41732" ry="1.41732" class="st3"/>
					</g>
					<g id="shape72-95" v:mID="72" v:groupContext="shape" transform="translate(81.3948,0)">
						<title>PC.36</title>
						<ellipse cx="1.41732" cy="655.085" rx="1.41732" ry="1.41732" class="st3"/>
					</g>
					<g id="shape73-97" v:mID="73" v:groupContext="shape" transform="translate(1.41732,-106.046)">
						<title>PC.12</title>
						<desc>Addr1</desc>
						<v:textBlock v:margins="rect(4,4,4,4)" v:tabSpace="42.5197"/>
						<v:textRect cx="16.1575" cy="642.076" width="32.32" height="28.8526"/>
						<rect x="0" y="627.65" width="32.315" height="28.8526" class="st4"/>
						<text x="5.04" y="644.48" class="st6" v:langID="2052"><v:paragraph v:horizAlign="1"/><v:tabList/>Addr1</text>					</g>
					<g id="shape74-100" v:mID="74" v:groupContext="shape" transform="translate(1.41732,-81.9516)">
						<title>PC.38</title>
						<desc>Addr2</desc>
						<v:textBlock v:margins="rect(4,4,4,4)" v:tabSpace="42.5197"/>
						<v:textRect cx="16.1575" cy="642.076" width="32.32" height="28.8526"/>
						<rect x="0" y="627.65" width="32.315" height="28.8526" class="st4"/>
						<text x="5.04" y="644.48" class="st6" v:langID="2052"><v:paragraph v:horizAlign="1"/><v:tabList/>Addr2</text>					</g>
					<g id="shape75-103" v:mID="75" v:groupContext="shape" transform="translate(1.41732,-45.1012)">
						<title>PC.39</title>
						<desc>Addr3</desc>
						<v:textBlock v:margins="rect(4,4,4,4)" v:tabSpace="42.5197"/>
						<v:textRect cx="16.1575" cy="642.076" width="32.32" height="28.8526"/>
						<rect x="0" y="627.65" width="32.315" height="28.8526" class="st4"/>
						<text x="5.04" y="644.48" class="st6" v:langID="2052"><v:paragraph v:horizAlign="1"/><v:tabList/>Addr3</text>					</g>
					<g id="shape76-106" v:mID="76" v:groupContext="shape" transform="translate(-1.59872E-14,-21.0067)">
						<title>PC.40</title>
						<desc>WData</desc>
						<v:textBlock v:margins="rect(4,4,4,4)" v:tabSpace="42.5197"/>
						<v:textRect cx="18.4252" cy="642.076" width="36.86" height="28.8526"/>
						<rect x="0" y="627.65" width="36.8504" height="28.8526" class="st4"/>
						<text x="6.2" y="644.48" class="st6" v:langID="2052"><v:paragraph v:horizAlign="1"/><v:tabList/>WData</text>					</g>
					<g id="shape77-109" v:mID="77" v:groupContext="shape" transform="translate(89.2914,-106.046)">
						<title>PC.41</title>
						<desc>RData1</desc>
						<v:textBlock v:margins="rect(4,4,4,4)" v:tabSpace="42.5197"/>
						<v:textRect cx="18.4252" cy="642.076" width="36.86" height="28.8526"/>
						<rect x="0" y="627.65" width="36.8504" height="28.8526" class="st4"/>
						<text x="5.32" y="644.48" class="st6" v:langID="2052"><v:paragraph v:horizAlign="1"/><v:tabList/>RData1</text>					</g>
					<g id="shape78-112" v:mID="78" v:groupContext="shape" transform="translate(89.2914,-81.9516)">
						<title>PC.42</title>
						<desc>RData2</desc>
						<v:textBlock v:margins="rect(4,4,4,4)" v:tabSpace="42.5197"/>
						<v:textRect cx="18.4252" cy="642.076" width="36.86" height="28.8526"/>
						<rect x="0" y="627.65" width="36.8504" height="28.8526" class="st4"/>
						<text x="5.32" y="644.48" class="st6" v:langID="2052"><v:paragraph v:horizAlign="1"/><v:tabList/>RData2</text>					</g>
					<g id="shape79-115" v:mID="79" v:groupContext="shape" transform="translate(27.5102,0)">
						<title>PC.43</title>
						<desc>WEn</desc>
						<v:textBlock v:margins="rect(4,4,4,4)" v:tabSpace="42.5197"/>
						<v:textRect cx="13.5921" cy="646.894" width="27.19" height="19.2168"/>
						<rect x="0" y="637.286" width="27.1843" height="19.2168" class="st4"/>
						<text x="4.7" y="649.29" class="st6" v:langID="2052"><v:paragraph v:horizAlign="1"/><v:tabList/>WEn</text>					</g>
					<g id="shape80-118" v:mID="80" v:groupContext="shape" transform="translate(69.22,0)">
						<title>PC.45</title>
						<desc>Rst</desc>
						<v:textBlock v:margins="rect(4,4,4,4)" v:tabSpace="42.5197"/>
						<v:textRect cx="13.5921" cy="646.894" width="27.19" height="19.2168"/>
						<rect x="0" y="637.286" width="27.1843" height="19.2168" class="st4"/>
						<text x="7.81" y="649.29" class="st6" v:langID="2052"><v:paragraph v:horizAlign="1"/><v:tabList/>Rst</text>					</g>
					<g id="shape81-121" v:mID="81" v:groupContext="shape" transform="translate(5.66929,-89.2913)">
						<title>工作表.81</title>
						<path d="M0 656.5 L116.22 656.5 L116.22 619.65 L0 619.65 L0 656.5 Z" class="st9"/>
					</g>
					<g id="shape82-123" v:mID="82" v:groupContext="shape" transform="translate(5.10237,-5.10238)">
						<title>工作表.82</title>
						<path d="M0 656.5 L49.61 656.5 L49.61 596.69 L0 596.69 L0 656.5 Z" class="st9"/>
					</g>
				</g>
				<g id="shape94-125" v:mID="94" v:groupContext="shape" transform="translate(221.349,-296.773)">
					<title>工作表.94</title>
					<path d="M0 656.5 L13.89 656.5 L13.89 612.19 L67.79 612.19" class="st2"/>
				</g>
				<g id="group95-128" transform="translate(287.717,-137.278)" v:mID="95" v:groupContext="group">
					<title>EXT</title>
					<g id="shape96-129" v:mID="96" v:groupContext="shape" transform="translate(1.41731,0)">
						<title>工作表.96</title>
						<path d="M0 623.9 L0 656.5 L137.48 656.5 L137.48 606.9 L0 623.9 Z" class="st1"/>
					</g>
					<g id="shape97-131" v:mID="97" v:groupContext="shape" transform="translate(-1.14908E-14,-15.0684)">
						<title>PC.8</title>
						<ellipse cx="1.41732" cy="655.085" rx="1.41732" ry="1.41732" class="st3"/>
					</g>
					<g id="shape98-133" v:mID="98" v:groupContext="shape" transform="translate(137.48,-23.3858)">
						<title>PC.22</title>
						<ellipse cx="1.41732" cy="655.085" rx="1.41732" ry="1.41732" class="st3"/>
					</g>
					<g id="shape99-135" v:mID="99" v:groupContext="shape" transform="translate(68.7401,-39.6851)">
						<title>PC.25</title>
						<ellipse cx="1.41732" cy="655.085" rx="1.41732" ry="1.41732" class="st3"/>
					</g>
					<g id="shape100-137" v:mID="100" v:groupContext="shape" transform="translate(50.3858,0)">
						<title>PC.11</title>
						<desc>EXT</desc>
						<v:textBlock v:margins="rect(4,4,4,4)" v:tabSpace="42.5197"/>
						<v:textRect cx="19.7717" cy="642.076" width="39.55" height="28.8526"/>
						<rect x="0" y="627.65" width="39.5433" height="28.8526" class="st4"/>
						<text x="5.38" y="646.28" class="st5" v:langID="2052"><v:paragraph v:horizAlign="1"/><v:tabList/>EXT</text>					</g>
					<g id="shape101-140" v:mID="101" v:groupContext="shape" transform="translate(1.41731,-5.22308)">
						<title>PC.12</title>
						<desc>In16</desc>
						<v:textBlock v:margins="rect(4,4,4,4)" v:tabSpace="42.5197"/>
						<v:textRect cx="12.6142" cy="645.24" width="25.23" height="22.5253"/>
						<rect x="0" y="633.977" width="25.2284" height="22.5253" class="st4"/>
						<text x="4.83" y="647.64" class="st6" v:langID="2052"><v:paragraph v:horizAlign="1"/><v:tabList/>In16</text>					</g>
					<g id="shape102-143" v:mID="102" v:groupContext="shape" transform="translate(108.879,-13.5405)">
						<title>PC.1002</title>
						<desc>Out32</desc>
						<v:textBlock v:margins="rect(4,4,4,4)" v:tabSpace="42.5197"/>
						<v:textRect cx="15.0095" cy="645.24" width="30.02" height="22.5253"/>
						<rect x="0" y="633.977" width="30.0189" height="22.5253" class="st4"/>
						<text x="4.34" y="647.64" class="st6" v:langID="2052"><v:paragraph v:horizAlign="1"/><v:tabList/>Out32</text>					</g>
					<g id="shape103-146" v:mID="103" v:groupContext="shape" transform="translate(54,-26.9291)">
						<title>PC.14</title>
						<desc>Ctrl</desc>
						<v:textBlock v:margins="rect(4,4,4,4)" v:tabSpace="42.5197"/>
						<v:textRect cx="16.1575" cy="650.833" width="32.32" height="11.3386"/>
						<rect x="0" y="645.164" width="32.315" height="11.3386" class="st4"/>
						<text x="10.83" y="652.63" class="st7" v:langID="2052"><v:paragraph v:horizAlign="1"/><v:tabList/>Ctrl</text>					</g>
				</g>
				<g id="group104-149" transform="translate(492.165,-270.859)" v:mID="104" v:groupContext="group">
					<title>ALU</title>
					<g id="shape105-150" v:mID="105" v:groupContext="shape" transform="translate(1.46457,0)">
						<title>工作表.105</title>
						<path d="M0 553.39 L0 583.59 L21.36 604.95 L0 626.3 L0 656.5 L91.72 626.31 L91.72 583.59 L0 553.39 Z"
								class="st1"/>
					</g>
					<g id="shape106-152" v:mID="106" v:groupContext="shape" transform="translate(4.2466E-15,-85.7262)">
						<title>PC.1008</title>
						<ellipse cx="1.41732" cy="655.085" rx="1.41732" ry="1.41732" class="st3"/>
					</g>
					<g id="shape107-154" v:mID="107" v:groupContext="shape" transform="translate(4.2466E-15,-14.3876)">
						<title>PC.1009</title>
						<ellipse cx="1.41732" cy="655.085" rx="1.41732" ry="1.41732" class="st3"/>
					</g>
					<g id="shape108-156" v:mID="108" v:groupContext="shape" transform="translate(91.7716,-50.1387)">
						<title>PC.1010</title>
						<ellipse cx="1.41732" cy="655.085" rx="1.41732" ry="1.41732" class="st3"/>
					</g>
					<g id="shape109-158" v:mID="109" v:groupContext="shape" transform="translate(47.8346,-85.7262)">
						<title>PC.1011</title>
						<ellipse cx="1.41732" cy="655.085" rx="1.41732" ry="1.41732" class="st3"/>
					</g>
					<g id="shape110-160" v:mID="110" v:groupContext="shape" transform="translate(28.8425,-37.1297)">
						<title>PC.1012</title>
						<desc>ALU</desc>
						<v:textBlock v:margins="rect(4,4,4,4)" v:tabSpace="42.5197"/>
						<v:textRect cx="20.8346" cy="642.076" width="41.67" height="28.8526"/>
						<rect x="0" y="627.65" width="41.6693" height="28.8526" class="st4"/>
						<text x="6.06" y="646.28" class="st5" v:langID="2052"><v:paragraph v:horizAlign="1"/><v:tabList/>ALU</text>					</g>
					<g id="shape111-163" v:mID="111" v:groupContext="shape" transform="translate(3.59712E-14,-72.7172)">
						<title>PC.1013</title>
						<desc>SrcA</desc>
						<v:textBlock v:margins="rect(4,4,4,4)" v:tabSpace="42.5197"/>
						<v:textRect cx="16.1575" cy="642.076" width="32.32" height="28.8526"/>
						<rect x="0" y="627.65" width="32.315" height="28.8526" class="st4"/>
						<text x="7.49" y="644.48" class="st6" v:langID="2052"><v:paragraph v:horizAlign="1"/><v:tabList/>SrcA</text>					</g>
					<g id="shape112-166" v:mID="112" v:groupContext="shape" transform="translate(7.99361E-15,-1.54222)">
						<title>PC.1014</title>
						<desc>SrcB</desc>
						<v:textBlock v:margins="rect(4,4,4,4)" v:tabSpace="42.5197"/>
						<v:textRect cx="16.1575" cy="642.076" width="32.32" height="28.8526"/>
						<rect x="0" y="627.65" width="32.315" height="28.8526" class="st4"/>
						<text x="7.71" y="644.48" class="st6" v:langID="2052"><v:paragraph v:horizAlign="1"/><v:tabList/>SrcB</text>					</g>
					<g id="shape113-169" v:mID="113" v:groupContext="shape" transform="translate(71.9291,-41.4323)">
						<title>PC.1015</title>
						<desc>Out</desc>
						<v:textBlock v:margins="rect(4,4,4,4)" v:tabSpace="42.5197"/>
						<v:textRect cx="11.3386" cy="646.379" width="22.68" height="20.2475"/>
						<rect x="0" y="636.255" width="22.6772" height="20.2475" class="st4"/>
						<text x="4.67" y="648.78" class="st6" v:langID="2052"><v:paragraph v:horizAlign="1"/><v:tabList/>Out</text>					</g>
					<g id="shape114-172" v:mID="114" v:groupContext="shape" transform="translate(36.9528,-72.7172)">
						<title>PC.1016</title>
						<desc>Ctrl</desc>
						<v:textBlock v:margins="rect(4,4,4,4)" v:tabSpace="42.5197"/>
						<v:textRect cx="12.2991" cy="649.505" width="24.6" height="13.9943"/>
						<rect x="0" y="642.508" width="24.5983" height="13.9943" class="st4"/>
						<text x="6.97" y="651.31" class="st7" v:langID="2052"><v:paragraph v:horizAlign="1"/><v:tabList/>Ctrl</text>					</g>
				</g>
				<g id="group116-175" transform="translate(364.961,-469.141)" v:mID="116" v:groupContext="group">
					<title>DM</title>
					<g id="shape117-176" v:mID="117" v:groupContext="shape" transform="translate(3.77954,-1.42464)">
						<title>工作表.117</title>
						<rect x="0" y="509.115" width="216.614" height="147.387" class="st1"/>
					</g>
					<g id="shape118-178" v:mID="118" v:groupContext="shape" transform="translate(2.40946,-104.426)">
						<title>PC.1008</title>
						<ellipse cx="1.41732" cy="655.085" rx="1.41732" ry="1.41732" class="st3"/>
					</g>
					<g id="shape119-180" v:mID="119" v:groupContext="shape" transform="translate(218.976,-104.426)">
						<title>PC.1019</title>
						<ellipse cx="1.41732" cy="655.085" rx="1.41732" ry="1.41732" class="st3"/>
					</g>
					<g id="shape120-182" v:mID="120" v:groupContext="shape" transform="translate(68.2913,-55.9843)">
						<title>工作表.120</title>
						<desc>DM</desc>
						<v:textBlock v:margins="rect(4,4,4,4)" v:tabSpace="42.5197"/>
						<v:textRect cx="43.7953" cy="637.369" width="87.6" height="38.2677"/>
						<rect x="0" y="618.235" width="87.5906" height="38.2677" class="st4"/>
						<text x="28.8" y="642.77" class="st8" v:langID="2052"><v:paragraph v:horizAlign="1"/><v:tabList/>DM</text>					</g>
					<g id="shape121-185" v:mID="121" v:groupContext="shape" transform="translate(-7.99361E-15,-100.63)">
						<title>PC.1032</title>
						<desc>Addr</desc>
						<v:textBlock v:margins="rect(4,4,4,4)" v:tabSpace="42.5197"/>
						<v:textRect cx="16.1575" cy="651.289" width="32.32" height="10.4274"/>
						<rect x="0" y="646.075" width="32.315" height="10.4274" class="st4"/>
						<text x="7.04" y="653.69" class="st6" v:langID="2052"><v:paragraph v:horizAlign="1"/><v:tabList/>Addr</text>					</g>
					<g id="shape122-188" v:mID="122" v:groupContext="shape" transform="translate(188.079,-100.63)">
						<title>PC.1039</title>
						<desc>RData</desc>
						<v:textBlock v:margins="rect(4,4,4,4)" v:tabSpace="42.5197"/>
						<v:textRect cx="16.1575" cy="651.289" width="32.32" height="10.4274"/>
						<rect x="0" y="646.075" width="32.315" height="10.4274" class="st4"/>
						<text x="5.05" y="653.69" class="st6" v:langID="2052"><v:paragraph v:horizAlign="1"/><v:tabList/>RData</text>					</g>
					<g id="group123-191" transform="translate(99.8976,-136.623)" v:mID="123" v:groupContext="group">
						<title>工作表.123</title>
						<g id="shape124-192" v:mID="124" v:groupContext="shape" transform="translate(464.217,180.096) rotate(45)">
							<title>工作表.124</title>
							<path d="M0 656.5 L17.24 656.5" class="st2"/>
						</g>
						<g id="shape125-195" v:mID="125" v:groupContext="shape" transform="translate(488.595,1108.53) rotate(135)">
							<title>工作表.125</title>
							<path d="M0 656.5 L17.24 656.5" class="st2"/>
						</g>
						<g id="shape126-198" v:mID="126" v:groupContext="shape" transform="translate(3.59712E-14,-12.189)">
							<title>工作表.126</title>
							<path d="M0 656.5 L24.38 656.5" class="st2"/>
						</g>
					</g>
					<g id="shape127-201" v:mID="127" v:groupContext="shape" transform="translate(2.55119,-47.7334)">
						<title>工作表.127</title>
						<ellipse cx="1.41732" cy="655.085" rx="1.41732" ry="1.41732" class="st3"/>
					</g>
					<g id="shape128-203" v:mID="128" v:groupContext="shape" transform="translate(159.874,-3.26661E-06)">
						<title>工作表.128</title>
						<ellipse cx="1.41732" cy="655.085" rx="1.41732" ry="1.41732" class="st3"/>
					</g>
					<g id="shape129-205" v:mID="129" v:groupContext="shape" transform="translate(55.802,0)">
						<title>工作表.129</title>
						<ellipse cx="1.41732" cy="655.085" rx="1.41732" ry="1.41732" class="st3"/>
					</g>
					<g id="shape130-207" v:mID="130" v:groupContext="shape" transform="translate(2.55119,-43.937)">
						<title>工作表.130</title>
						<desc>WData</desc>
						<v:textBlock v:margins="rect(4,4,4,4)" v:tabSpace="42.5197"/>
						<v:textRect cx="17.0079" cy="651.289" width="34.02" height="10.4274"/>
						<rect x="0" y="646.075" width="34.0157" height="10.4274" class="st4"/>
						<text x="4.79" y="653.69" class="st6" v:langID="2052"><v:paragraph v:horizAlign="1"/><v:tabList/>WData</text>					</g>
					<g id="shape131-210" v:mID="131" v:groupContext="shape" transform="translate(152.504,-3.26661E-06)">
						<title>工作表.131</title>
						<desc>Rst</desc>
						<v:textBlock v:margins="rect(4,4,4,4)" v:tabSpace="42.5197"/>
						<v:textRect cx="8.7874" cy="648.657" width="17.58" height="15.6918"/>
						<rect x="0" y="640.811" width="17.5748" height="15.6918" class="st4"/>
						<text x="4.45" y="650.46" class="st7" v:langID="2052"><v:paragraph v:horizAlign="1"/><v:tabList/>Rst</text>					</g>
					<g id="shape132-213" v:mID="132" v:groupContext="shape" transform="translate(45.7897,-2.83467)">
						<title>工作表.132</title>
						<desc>WEn</desc>
						<v:textBlock v:margins="rect(4,4,4,4)" v:tabSpace="42.5197"/>
						<v:textRect cx="11.4297" cy="652.833" width="22.86" height="7.33969"/>
						<rect x="0" y="649.163" width="22.8594" height="7.33969" class="st4"/>
						<text x="4.76" y="654.63" class="st7" v:langID="2052"><v:paragraph v:horizAlign="1"/><v:tabList/>WEn</text>					</g>
					<g id="shape133-216" v:mID="133" v:groupContext="shape" transform="translate(110.669,-147.402)">
						<title>工作表.133</title>
						<ellipse cx="1.41732" cy="655.085" rx="1.41732" ry="1.41732" class="st3"/>
					</g>
					<g id="shape134-218" v:mID="134" v:groupContext="shape" transform="translate(95.9291,-138.047)">
						<title>工作表.134</title>
						<desc>Clk</desc>
						<v:textBlock v:margins="rect(4,4,4,4)" v:tabSpace="42.5197"/>
						<v:textRect cx="16.1575" cy="650.408" width="32.32" height="12.189"/>
						<rect x="0" y="644.313" width="32.315" height="12.189" class="st4"/>
						<text x="11.49" y="652.21" class="st7" v:langID="2052"><v:paragraph v:horizAlign="1"/><v:tabList/>Clk</text>					</g>
					<g id="shape135-221" v:mID="135" v:groupContext="shape" transform="translate(5.71949,-95.0108)">
						<title>工作表.135</title>
						<path d="M0 656.5 L211.75 656.5 L211.75 633.26 L0 633.26 L0 656.5 Z" class="st9"/>
					</g>
					<g id="shape136-223" v:mID="136" v:groupContext="shape" transform="translate(7.13681,-4.30217)">
						<title>工作表.136</title>
						<path d="M0 656.5 L61.51 656.5 L61.51 540.28 L0 540.28 L0 656.5 Z" class="st9"/>
					</g>
				</g>
				<g id="group137-225" transform="translate(58.5354,-42.5197)" v:mID="137" v:groupContext="group">
					<title>NPC</title>
					<g id="shape138-226" v:mID="138" v:groupContext="shape" transform="translate(1.41732,0)">
						<title>工作表.138</title>
						<rect x="0" y="551.054" width="105.449" height="105.449" class="st1"/>
					</g>
					<g id="shape139-228" v:mID="139" v:groupContext="shape" transform="translate(34.4409,-38.2981)">
						<title>PC.11</title>
						<desc>NPC</desc>
						<v:textBlock v:margins="rect(4,4,4,4)" v:tabSpace="42.5197"/>
						<v:textRect cx="19.7008" cy="642.076" width="39.41" height="28.8526"/>
						<rect x="0" y="627.65" width="39.4016" height="28.8526" class="st4"/>
						<text x="5.31" y="646.28" class="st5" v:langID="2052"><v:paragraph v:horizAlign="1"/><v:tabList/>NPC</text>					</g>
					<g id="shape140-231" v:mID="140" v:groupContext="shape" transform="translate(0.921259,-45.7011)">
						<title>PC.12</title>
						<desc>NextPC</desc>
						<v:textBlock v:margins="rect(4,4,4,4)" v:tabSpace="42.5197"/>
						<v:textRect cx="17.7165" cy="649.479" width="35.44" height="14.0467"/>
						<rect x="0" y="642.456" width="35.4331" height="14.0467" class="st4"/>
						<text x="4.39" y="651.88" class="st6" v:langID="2052"><v:paragraph v:horizAlign="1"/><v:tabList/>NextPC</text>					</g>
					<g id="shape141-234" v:mID="141" v:groupContext="shape" transform="translate(-4.32154E-14,-51.3071)">
						<title>PC.7</title>
						<ellipse cx="1.41732" cy="655.085" rx="1.41732" ry="1.41732" class="st3"/>
					</g>
					<g id="shape142-236" v:mID="142" v:groupContext="shape" transform="translate(86.7756,-73.9395)">
						<title>PC.22</title>
						<desc>PC</desc>
						<v:textBlock v:margins="rect(4,4,4,4)" v:tabSpace="42.5197"/>
						<v:textRect cx="10.0453" cy="649.479" width="20.1" height="14.0467"/>
						<rect x="0" y="642.456" width="20.0906" height="14.0467" class="st4"/>
						<text x="4.71" y="651.88" class="st6" v:langID="2052"><v:paragraph v:horizAlign="1"/><v:tabList/>PC</text>					</g>
					<g id="shape143-239" v:mID="143" v:groupContext="shape" transform="translate(105.449,-79.5455)">
						<title>PC.23</title>
						<ellipse cx="1.41732" cy="655.085" rx="1.41732" ry="1.41732" class="st3"/>
					</g>
					<g id="shape144-241" v:mID="144" v:groupContext="shape" transform="translate(105.449,-46.7717)">
						<title>PC.1000</title>
						<ellipse cx="1.41732" cy="655.085" rx="1.41732" ry="1.41732" class="st3"/>
					</g>
					<g id="shape145-243" v:mID="145" v:groupContext="shape" transform="translate(105.449,-62.034)">
						<title>PC.1001</title>
						<ellipse cx="1.41732" cy="655.085" rx="1.41732" ry="1.41732" class="st3"/>
					</g>
					<g id="shape146-245" v:mID="146" v:groupContext="shape" transform="translate(105.449,-23.2441)">
						<title>PC.1002</title>
						<ellipse cx="1.41732" cy="655.085" rx="1.41732" ry="1.41732" class="st3"/>
					</g>
					<g id="shape147-247" v:mID="147" v:groupContext="shape" transform="translate(68.8819,-56.428)">
						<title>PC.1003</title>
						<desc>BrCond</desc>
						<v:textBlock v:margins="rect(4,4,4,4)" v:tabSpace="42.5197"/>
						<v:textRect cx="19.7008" cy="649.479" width="39.41" height="14.0467"/>
						<rect x="0" y="642.456" width="39.4016" height="14.0467" class="st4"/>
						<text x="5.92" y="651.88" class="st6" v:langID="2052"><v:paragraph v:horizAlign="1"/><v:tabList/>BrCond</text>					</g>
					<g id="shape148-250" v:mID="148" v:groupContext="shape" transform="translate(52.7244,-104.032)">
						<title>PC.1004</title>
						<ellipse cx="1.41732" cy="655.085" rx="1.41732" ry="1.41732" class="st3"/>
					</g>
					<g id="shape149-252" v:mID="149" v:groupContext="shape" transform="translate(41.8426,-92.8718)">
						<title>PC.1016</title>
						<desc>Ctrl</desc>
						<v:textBlock v:margins="rect(4,4,4,4)" v:tabSpace="42.5197"/>
						<v:textRect cx="12.2991" cy="649.505" width="24.6" height="13.9943"/>
						<rect x="0" y="642.508" width="24.5983" height="13.9943" class="st4"/>
						<text x="6.97" y="651.31" class="st7" v:langID="2052"><v:paragraph v:horizAlign="1"/><v:tabList/>Ctrl</text>					</g>
					<g id="shape150-255" v:mID="150" v:groupContext="shape" transform="translate(75.1181,-41.1656)">
						<title>PC.1017</title>
						<desc>Ofst16</desc>
						<v:textBlock v:margins="rect(4,4,4,4)" v:tabSpace="42.5197"/>
						<v:textRect cx="15.874" cy="649.479" width="31.75" height="14.0467"/>
						<rect x="0" y="642.456" width="31.748" height="14.0467" class="st4"/>
						<text x="4.54" y="651.88" class="st6" v:langID="2052"><v:paragraph v:horizAlign="1"/><v:tabList/>Ofst16</text>					</g>
					<g id="shape151-258" v:mID="151" v:groupContext="shape" transform="translate(71.4331,-17.6381)">
						<title>PC.1018</title>
						<desc>Indx26</desc>
						<v:textBlock v:margins="rect(4,4,4,4)" v:tabSpace="42.5197"/>
						<v:textRect cx="17.7165" cy="649.479" width="35.44" height="14.0467"/>
						<rect x="0" y="642.456" width="35.4331" height="14.0467" class="st4"/>
						<text x="5.71" y="651.88" class="st6" v:langID="2052"><v:paragraph v:horizAlign="1"/><v:tabList/>Indx26</text>					</g>
					<g id="shape152-261" v:mID="152" v:groupContext="shape" transform="translate(73.7008,-43.6535)">
						<title>工作表.152</title>
						<path d="M0 656.5 L29.76 656.5 L29.76 631.56 L0 631.56 L0 656.5 Z" class="st9"/>
					</g>
				</g>
				<g id="shape153-263" v:mID="153" v:groupContext="shape" transform="translate(289.134,995.726) rotate(180)">
					<title>工作表.153</title>
					<path d="M0 656.5 L53.9 656.5" class="st2"/>
				</g>
				<g id="group1004-266" transform="translate(263.622,-261.294)" v:mID="1004" v:groupContext="group">
					<title>工作表.1004</title>
					<g id="group1000-267" v:mID="1000" v:groupContext="group">
						<title>MUX.1000</title>
						<g id="shape1001-268" v:mID="1001" v:groupContext="shape">
							<title>工作表.1001</title>
							<path d="M0 618.23 L13.89 625.56 L13.89 649.17 L0 656.5 L0 618.23 Z" class="st1"/>
						</g>
						<g id="shape1002-270" v:mID="1002" v:groupContext="shape" transform="translate(658.954,618.235) rotate(90)">
							<title>PC.13</title>
							<desc>MUX</desc>
							<v:textBlock v:margins="rect(4,4,4,4)" v:tabSpace="42.5197"/>
							<v:textRect cx="19.1339" cy="652.121" width="38.27" height="8.76353"/>
							<rect x="0" y="647.739" width="38.2677" height="8.76353" class="st4"/>
							<text x="9.58" y="654.52" class="st6" v:langID="2052"><v:paragraph v:horizAlign="1"/><v:tabList/>MUX</text>						</g>
					</g>
					<g id="shape1003-273" v:mID="1003" v:groupContext="shape" transform="translate(12.6623,-17.7165)">
						<title>PC.31</title>
						<ellipse cx="1.41732" cy="655.085" rx="1.41732" ry="1.41732" class="st3"/>
					</g>
				</g>
				<g id="shape1005-275" v:mID="1005" v:groupContext="shape" transform="translate(277.511,-280.428)">
					<title>工作表.1005</title>
					<path d="M0 656.5 L11.62 656.5" class="st2"/>
				</g>
				<g id="shape1006-278" v:mID="1006" v:groupContext="shape" transform="translate(252.283,-290.424)">
					<title>工作表.1006</title>
					<path d="M0 629.65 L0 656.5 L11.34 656.5" class="st2"/>
				</g>
				<g id="shape1007-281" v:mID="1007" v:groupContext="shape" transform="translate(235.238,-271.114)">
					<title>工作表.1007</title>
					<path d="M0 630.84 L0 656.5 L28.38 656.5" class="st2"/>
				</g>
				<g id="shape1009-284" v:mID="1009" v:groupContext="shape" transform="translate(235.238,-153.436)">
					<title>工作表.1009</title>
					<path d="M53.9 656.5 L0 656.5 L0 513.17" class="st2"/>
				</g>
				<g id="shape1014-287" v:mID="1014" v:groupContext="shape" transform="translate(165.402,-90.5068)">
					<title>工作表.1014</title>
					<path d="M0 656.5 L69.84 656.5 L69.84 593.57" class="st2"/>
				</g>
				<g id="shape1015-290" v:mID="1015" v:groupContext="shape" transform="translate(165.402,-67.1209)">
					<title>工作表.1015</title>
					<path d="M0 656.5 L69.84 656.5 L69.84 633.12" class="st2"/>
				</g>
				<g id="shape1016-293" v:mID="1016" v:groupContext="shape" transform="translate(235.153,-341.089)">
					<title>工作表.1016</title>
					<desc>rs</desc>
					<v:textBlock v:margins="rect(4,4,4,4)" v:tabSpace="42.5197"/>
					<v:textRect cx="7.14816" cy="652.25" width="14.3" height="8.50394"/>
					<rect x="0" y="647.998" width="14.2963" height="8.50394" class="st4"/>
					<text x="4.26" y="654.65" class="st10" v:langID="2052"><v:paragraph v:horizAlign="1"/><v:tabList/>rs</text>				</g>
				<g id="shape1017-296" v:mID="1017" v:groupContext="shape" transform="translate(235.276,-317.278)">
					<title>工作表.1017</title>
					<desc>rt</desc>
					<v:textBlock v:margins="rect(4,4,4,4)" v:tabSpace="42.5197"/>
					<v:textRect cx="7.14816" cy="652.25" width="14.3" height="8.50394"/>
					<rect x="0" y="647.998" width="14.2963" height="8.50394" class="st4"/>
					<text x="4.7" y="654.65" class="st10" v:langID="2052"><v:paragraph v:horizAlign="1"/><v:tabList/>rt</text>				</g>
				<g id="shape1018-299" v:mID="1018" v:groupContext="shape" transform="translate(235.238,-271.114)">
					<title>工作表.1018</title>
					<desc>rd</desc>
					<v:textBlock v:margins="rect(4,4,4,4)" v:tabSpace="42.5197"/>
					<v:textRect cx="7.74849" cy="652.25" width="15.5" height="8.50394"/>
					<rect x="0" y="647.998" width="15.497" height="8.50394" class="st4"/>
					<text x="4.42" y="654.65" class="st10" v:langID="2052"><v:paragraph v:horizAlign="1"/><v:tabList/>rd</text>				</g>
				<g id="shape1019-302" v:mID="1019" v:groupContext="shape" transform="translate(235.238,-153.436)">
					<title>工作表.1019</title>
					<desc>imm16</desc>
					<v:textBlock v:margins="rect(4,4,4,4)" v:tabSpace="42.5197"/>
					<v:textRect cx="15.6092" cy="652.25" width="31.22" height="8.50394"/>
					<rect x="0" y="647.998" width="31.2184" height="8.50394" class="st4"/>
					<text x="4.28" y="654.65" class="st10" v:langID="2052"><v:paragraph v:horizAlign="1"/><v:tabList/>imm16</text>				</g>
				<g id="shape1020-305" v:mID="1020" v:groupContext="shape" transform="translate(204.02,-90.5068)">
					<title>工作表.1020</title>
					<desc>imm16</desc>
					<v:textBlock v:margins="rect(4,4,4,4)" v:tabSpace="42.5197"/>
					<v:textRect cx="15.6092" cy="652.25" width="31.22" height="8.50394"/>
					<rect x="0" y="647.998" width="31.2184" height="8.50394" class="st4"/>
					<text x="4.28" y="654.65" class="st10" v:langID="2052"><v:paragraph v:horizAlign="1"/><v:tabList/>imm16</text>				</g>
				<g id="shape1021-308" v:mID="1021" v:groupContext="shape" transform="translate(204.02,-67.1209)">
					<title>工作表.1021</title>
					<desc>imm26</desc>
					<v:textBlock v:margins="rect(4,4,4,4)" v:tabSpace="42.5197"/>
					<v:textRect cx="15.6092" cy="652.25" width="31.22" height="8.50394"/>
					<rect x="0" y="647.998" width="31.2184" height="8.50394" class="st4"/>
					<text x="4.28" y="654.65" class="st10" v:langID="2052"><v:paragraph v:horizAlign="1"/><v:tabList/>imm26</text>				</g>
				<g id="shape1023-311" v:mID="1023" v:groupContext="shape" transform="translate(412.441,-341.373)">
					<title>工作表.1023</title>
					<path d="M81.19 639.49 L17.01 639.49 L17.01 656.5 L0 656.5" class="st2"/>
				</g>
				<g id="group1024-314" transform="translate(463.558,-267.672)" v:mID="1024" v:groupContext="group">
					<title>工作表.1024</title>
					<g id="group1025-315" v:mID="1025" v:groupContext="group">
						<title>MUX.1000</title>
						<g id="shape1026-316" v:mID="1026" v:groupContext="shape">
							<title>工作表.1026</title>
							<path d="M0 618.23 L13.89 625.56 L13.89 649.17 L0 656.5 L0 618.23 Z" class="st1"/>
						</g>
						<g id="shape1027-318" v:mID="1027" v:groupContext="shape" transform="translate(658.954,618.235) rotate(90)">
							<title>PC.13</title>
							<desc>MUX</desc>
							<v:textBlock v:margins="rect(4,4,4,4)" v:tabSpace="42.5197"/>
							<v:textRect cx="19.1339" cy="652.121" width="38.27" height="8.76353"/>
							<rect x="0" y="647.739" width="38.2677" height="8.76353" class="st4"/>
							<text x="9.58" y="654.52" class="st6" v:langID="2052"><v:paragraph v:horizAlign="1"/><v:tabList/>MUX</text>						</g>
					</g>
					<g id="shape1028-321" v:mID="1028" v:groupContext="shape" transform="translate(12.6623,-17.7165)">
						<title>PC.31</title>
						<ellipse cx="1.41732" cy="655.085" rx="1.41732" ry="1.41732" class="st3"/>
					</g>
				</g>
				<g id="shape1029-323" v:mID="1029" v:groupContext="shape" transform="translate(477.448,-286.664)">
					<title>工作表.1029</title>
					<path d="M0 656.5 L16.18 656.5" class="st2"/>
				</g>
				<g id="shape1031-326" v:mID="1031" v:groupContext="shape" transform="translate(412.441,-298.182)">
					<title>工作表.1031</title>
					<path d="M0 637.41 L17.01 637.41 L17.01 656.5 L51.12 656.5" class="st2"/>
				</g>
				<g id="shape1032-329" v:mID="1032" v:groupContext="shape" transform="translate(426.614,-161.94)">
					<title>工作表.1032</title>
					<path d="M0 656.5 L21.26 656.5 L21.26 540.85 L36.94 540.85" class="st2"/>
				</g>
				<g id="shape1033-332" v:mID="1033" v:groupContext="shape" transform="translate(585.354,-322.239)">
					<title>工作表.1033</title>
					<path d="M0 656.5 L42.05 656.5" class="st2"/>
				</g>
				<g id="shape1037-335" v:mID="1037" v:groupContext="shape" transform="translate(250.866,-315.861)">
					<title>PC.1037</title>
					<ellipse cx="1.41732" cy="655.085" rx="1.41732" ry="1.41732" class="st3"/>
				</g>
				<g id="group1039-337" transform="translate(627.968,-312.52)" v:mID="1039" v:groupContext="group">
					<title>工作表.1039</title>
					<g id="group1040-338" v:mID="1040" v:groupContext="group">
						<title>MUX.1000</title>
						<g id="shape1041-339" v:mID="1041" v:groupContext="shape">
							<title>工作表.1041</title>
							<path d="M0 618.23 L13.89 625.56 L13.89 649.17 L0 656.5 L0 618.23 Z" class="st1"/>
						</g>
						<g id="shape1042-341" v:mID="1042" v:groupContext="shape" transform="translate(658.954,618.235) rotate(90)">
							<title>PC.13</title>
							<desc>MUX</desc>
							<v:textBlock v:margins="rect(4,4,4,4)" v:tabSpace="42.5197"/>
							<v:textRect cx="19.1339" cy="652.121" width="38.27" height="8.76353"/>
							<rect x="0" y="647.739" width="38.2677" height="8.76353" class="st4"/>
							<text x="9.58" y="654.52" class="st6" v:langID="2052"><v:paragraph v:horizAlign="1"/><v:tabList/>MUX</text>						</g>
					</g>
					<g id="shape1043-344" v:mID="1043" v:groupContext="shape" transform="translate(12.6623,-17.7165)">
						<title>PC.31</title>
						<ellipse cx="1.41732" cy="655.085" rx="1.41732" ry="1.41732" class="st3"/>
					</g>
				</g>
				<g id="shape1046-346" v:mID="1046" v:groupContext="shape" transform="translate(602.362,-320.998)">
					<title>PC.1046</title>
					<ellipse cx="1.41732" cy="655.085" rx="1.41732" ry="1.41732" class="st3"/>
				</g>
				<g id="shape1049-348" v:mID="1049" v:groupContext="shape" transform="translate(165.402,-105.974)">
					<title>工作表.1049</title>
					<path d="M438.38 440.24 L438.38 656.5 L0 656.5" class="st2"/>
				</g>
				<g id="shape1051-351" v:mID="1051" v:groupContext="shape" transform="translate(117.496,-123.307)">
					<title>工作表.1051</title>
					<path d="M47.91 656.5 L62.5 656.5 L62.5 483.59 L0 483.59" class="st2"/>
				</g>
				<g id="shape1052-354" v:mID="1052" v:groupContext="shape" transform="translate(48.4725,-95.2441)">
					<title>工作表.1052</title>
					<path d="M11.48 656.5 L0 656.5 L0 455.81 L20.83 455.81" class="st2"/>
				</g>
				<g id="shape1053-357" v:mID="1053" v:groupContext="shape" transform="translate(445.89,-296.504)">
					<title>PC.1053</title>
					<ellipse cx="1.41732" cy="655.085" rx="1.41732" ry="1.41732" class="st3"/>
				</g>
				<g id="shape1054-359" v:mID="1054" v:groupContext="shape" transform="translate(44.0116,-296.22)">
					<title>工作表.1054</title>
					<path d="M97.72 656.5 L97.72 547.37 L97.72 536.03 L22.98 536.03 L0 536.03 L0 408.47 L20 408.47" class="st2"/>
				</g>
				<g id="shape1056-362" v:mID="1056" v:groupContext="shape" transform="translate(221.349,1016.23) rotate(180)">
					<title>工作表.1056</title>
					<path d="M0 656.5 L6.48 656.5" class="st2"/>
				</g>
				<g id="shape1057-365" v:mID="1057" v:groupContext="shape" transform="translate(214.866,-296.773)">
					<title>工作表.1057</title>
					<path d="M0 656.5 L0 536.58 L85.61 536.58 L85.61 408.8 L65.76 408.8" class="st2"/>
				</g>
				<g id="shape1059-368" v:mID="1059" v:groupContext="shape" transform="translate(327.402,-322.239)">
					<title>工作表.1059</title>
					<path d="M276.38 656.5 L276.38 560.99 L0 560.99 L0 403.96 L41.34 403.96" class="st2"/>
				</g>
				<g id="shape1060-371" v:mID="1060" v:groupContext="shape" transform="translate(347.244,-298.182)">
					<title>工作表.1060</title>
					<path d="M100.06 656.5 L100.06 503.98 L0 503.98 L0 436.51 L21.5 436.51" class="st2"/>
				</g>
				<g id="shape1061-374" v:mID="1061" v:groupContext="shape" transform="translate(585.354,-342.992)">
					<title>工作表.1061</title>
					<path d="M0 424.63 L32.32 424.63 L32.32 656.5 L42.61 656.5" class="st2"/>
				</g>
				<g id="shape1062-377" v:mID="1062" v:groupContext="shape" transform="translate(273.425,-43.937)">
					<title>工作表.1062</title>
					<path d="M15.71 443.9 L0 443.9 L0 656.5 L406.89 656.5 L406.89 368.49 L368.43 368.49" class="st2"/>
				</g>
				<g id="shape1063-380" v:mID="1063" v:groupContext="shape" transform="translate(140.315,-294.885)">
					<title>PC.1063</title>
					<ellipse cx="1.41732" cy="655.085" rx="1.41732" ry="1.41732" class="st3"/>
				</g>
				<g id="shape1064-382" v:mID="1064" v:groupContext="shape">
					<title>工作表.1064</title>
					<path d="M0 656.5 L708.66 656.5 L708.66 259.65 L0 259.65 L0 656.5 Z" class="st11"/>
				</g>
			</g>
			<g id="shape1066-384" v:mID="1066" v:groupContext="shape" transform="translate(590.699,0)">
				<title>工作表.1066</title>
				<desc>Datapath</desc>
				<v:textBlock v:margins="rect(4,4,4,4)" v:tabSpace="42.5197"/>
				<v:textRect cx="58.9813" cy="642.329" width="117.97" height="28.3465"/>
				<rect x="0" y="628.156" width="117.963" height="28.3465" class="st4"/>
				<text x="4.84" y="651.33" class="st12" v:langID="2052"><v:paragraph v:horizAlign="1"/><v:tabList/>Datapath</text>			</g>
		</g>
	</g>
</svg>
