<?xml version="1.0" encoding="UTF-8"?>
<svg xmlns="http://www.w3.org/2000/svg" xmlns:xlink="http://www.w3.org/1999/xlink" width="870pt" height="54pt" viewBox="0 0 870 54" version="1.1">
<g id="surface24">
<path style="fill:none;stroke-width:2.72;stroke-linecap:square;stroke-linejoin:miter;stroke:rgb(36.84082%,50.67749%,70.979309%);stroke-opacity:1;stroke-miterlimit:3.25;" d="M 129.386719 35.039063 L 129.644531 35.058594 L 129.898438 35.085938 L 130.15625 35.117188 L 130.410156 35.15625 L 130.667969 35.203125 L 130.925781 35.253906 L 131.179688 35.308594 L 131.4375 35.371094 L 131.691406 35.433594 L 131.949219 35.5 L 133.484375 35.910156 L 133.738281 35.976563 L 133.996094 36.039063 L 134.25 36.097656 L 134.507813 36.152344 L 134.761719 36.203125 L 135.019531 36.25 L 135.277344 36.285156 L 135.53125 36.320313 L 135.789063 36.34375 L 136.042969 36.363281 L 136.300781 36.371094 L 136.554688 36.371094 L 136.8125 36.367188 L 137.066406 36.347656 L 137.324219 36.324219 L 137.578125 36.289063 L 137.835938 36.246094 L 138.089844 36.195313 L 138.347656 36.132813 L 138.601563 36.058594 L 138.859375 35.980469 L 139.113281 35.890625 L 139.371094 35.789063 L 139.628906 35.683594 L 139.882813 35.570313 L 140.140625 35.445313 L 140.652344 35.179688 L 140.90625 35.039063 L 141.164063 34.890625 L 141.675781 34.578125 L 141.929688 34.417969 L 142.1875 34.253906 L 142.699219 33.925781 L 142.953125 33.757813 L 143.210938 33.59375 L 143.722656 33.269531 L 143.980469 33.109375 L 144.234375 32.957031 L 144.746094 32.667969 L 145.003906 32.535156 L 145.257813 32.40625 L 145.515625 32.289063 L 145.769531 32.183594 L 146.046875 32.078125 L 146.324219 31.988281 L 146.601563 31.910156 L 146.878906 31.851563 L 147.15625 31.804688 L 147.4375 31.777344 L 147.714844 31.765625 L 147.992188 31.773438 L 148.269531 31.800781 L 148.546875 31.847656 L 148.824219 31.914063 L 149.101563 32 L 149.378906 32.105469 L 149.65625 32.230469 L 149.933594 32.378906 L 150.210938 32.542969 L 150.488281 32.730469 L 150.765625 32.933594 L 151.042969 33.160156 L 151.320313 33.402344 L 151.597656 33.660156 L 151.875 33.9375 L 152.429688 34.535156 L 152.707031 34.855469 L 152.984375 35.191406 L 153.539063 35.890625 L 154.652344 37.378906 L 154.929688 37.761719 L 155.207031 38.140625 L 155.761719 38.902344 L 156.039063 39.273438 L 156.316406 39.640625 L 156.871094 40.347656 L 157.148438 40.683594 L 157.425781 41.003906 L 157.703125 41.308594 L 157.980469 41.597656 L 158.257813 41.867188 L 158.535156 42.117188 L 158.8125 42.34375 L 159.089844 42.546875 L 159.367188 42.726563 L 159.644531 42.878906 L 159.921875 43.003906 L 160.199219 43.097656 L 160.476563 43.167969 L 160.757813 43.203125 L 161.035156 43.210938 L 161.3125 43.183594 L 161.589844 43.125 L 161.867188 43.035156 L 162.144531 42.914063 L 162.421875 42.757813 L 162.699219 42.570313 L 162.976563 42.351563 L 163.253906 42.097656 L 163.53125 41.816406 L 163.789063 41.523438 L 164.050781 41.207031 L 164.566406 40.5 L 164.828125 40.109375 L 165.085938 39.695313 L 165.605469 38.8125 L 165.863281 38.339844 L 166.121094 37.851563 L 166.640625 36.835938 L 167.675781 34.675781 L 167.9375 34.117188 L 168.195313 33.5625 L 168.714844 32.449219 L 168.972656 31.898438 L 169.230469 31.351563 L 169.75 30.289063 L 170.007813 29.777344 L 170.269531 29.277344 L 170.785156 28.332031 L 171.046875 27.886719 L 171.304688 27.464844 L 171.824219 26.699219 L 172.082031 26.355469 L 172.339844 26.039063 L 172.601563 25.757813 L 172.859375 25.507813 L 173.117188 25.289063 L 173.378906 25.105469 L 173.636719 24.957031 L 173.894531 24.847656 L 174.15625 24.773438 L 174.414063 24.738281 L 174.671875 24.742188 L 174.933594 24.785156 L 175.191406 24.871094 L 175.449219 24.992188 L 175.710938 25.152344 L 175.96875 25.355469 L 176.226563 25.59375 L 176.488281 25.875 L 176.746094 26.191406 L 177.003906 26.546875 L 177.265625 26.9375 L 177.523438 27.363281 L 178.042969 28.316406 L 178.300781 28.839844 L 178.558594 29.394531 L 179.078125 30.585938 L 180.113281 33.246094 L 180.367188 33.941406 L 180.621094 34.648438 L 181.128906 36.09375 L 182.148438 39.027344 L 182.402344 39.757813 L 182.65625 40.480469 L 183.164063 41.890625 L 184.179688 44.515625 L 184.433594 45.117188 L 184.6875 45.691406 L 184.941406 46.234375 L 185.195313 46.75 L 185.449219 47.230469 L 185.703125 47.675781 L 185.957031 48.085938 L 186.210938 48.453125 L 186.464844 48.785156 L 186.71875 49.070313 L 186.972656 49.316406 L 187.226563 49.515625 L 187.480469 49.671875 L 187.734375 49.78125 L 187.988281 49.84375 L 188.242188 49.855469 L 188.496094 49.824219 L 188.75 49.742188 L 189.007813 49.609375 L 189.261719 49.433594 L 189.515625 49.207031 L 189.769531 48.933594 L 190.023438 48.609375 L 190.277344 48.242188 L 190.53125 47.832031 L 190.785156 47.375 L 191.039063 46.875 L 191.292969 46.332031 L 191.546875 45.75 L 191.800781 45.132813 L 192.308594 43.785156 L 192.5625 43.0625 L 192.816406 42.308594 L 193.324219 40.71875 L 194.339844 37.296875 L 196.371094 30.09375 L 196.648438 29.144531 L 196.925781 28.21875 L 197.476563 26.4375 L 197.75 25.589844 L 198.027344 24.777344 L 198.578125 23.269531 L 198.851563 22.582031 L 199.128906 21.941406 L 199.402344 21.351563 L 199.679688 20.8125 L 199.957031 20.332031 L 200.230469 19.910156 L 200.507813 19.546875 L 200.78125 19.242188 L 201.058594 19.007813 L 201.332031 18.832031 L 201.609375 18.726563 L 201.882813 18.683594 L 202.160156 18.710938 L 202.433594 18.808594 L 202.710938 18.96875 L 202.988281 19.199219 L 203.261719 19.496094 L 203.539063 19.859375 L 203.8125 20.289063 L 204.089844 20.78125 L 204.363281 21.332031 L 204.640625 21.949219 L 204.914063 22.621094 L 205.191406 23.351563 L 205.464844 24.132813 L 205.742188 24.964844 L 206.292969 26.769531 L 207.394531 30.835938 L 207.671875 31.921875 L 207.945313 33.035156 L 208.496094 35.300781 L 209.601563 39.890625 L 209.875 41.023438 L 210.152344 42.136719 L 210.703125 44.308594 L 210.976563 45.351563 L 211.253906 46.363281 L 211.804688 48.269531 L 212.082031 49.160156 L 212.355469 49.996094 L 212.632813 50.78125 L 212.90625 51.511719 L 213.183594 52.183594 L 213.457031 52.792969 L 213.734375 53.335938 L 214.007813 53.8125 L 214.265625 54.195313 L 214.523438 54.515625 L 214.78125 54.773438 L 215.039063 54.964844 L 215.296875 55.089844 L 215.550781 55.148438 L 215.808594 55.140625 L 216.066406 55.066406 L 216.324219 54.925781 L 216.582031 54.714844 L 216.839844 54.441406 L 217.09375 54.101563 L 217.351563 53.695313 L 217.609375 53.226563 L 217.867188 52.691406 L 218.125 52.101563 L 218.382813 51.449219 L 218.636719 50.742188 L 219.152344 49.160156 L 219.410156 48.296875 L 219.667969 47.382813 L 220.179688 45.433594 L 220.4375 44.398438 L 220.695313 43.332031 L 221.210938 41.109375 L 222.238281 36.421875 L 222.496094 35.222656 L 222.753906 34.019531 L 223.269531 31.625 L 224.296875 26.988281 L 224.554688 25.882813 L 224.8125 24.808594 L 225.324219 22.765625 L 225.582031 21.804688 L 225.839844 20.890625 L 226.355469 19.203125 L 226.609375 18.441406 L 226.867188 17.734375 L 227.125 17.085938 L 227.382813 16.503906 L 227.640625 15.980469 L 227.898438 15.527344 L 228.152344 15.140625 L 228.410156 14.828125 L 228.667969 14.582031 L 228.925781 14.40625 L 229.183594 14.308594 L 229.441406 14.28125 L 229.695313 14.328125 L 229.953125 14.449219 L 230.210938 14.640625 L 230.46875 14.910156 L 230.746094 15.28125 L 231.027344 15.734375 L 231.304688 16.273438 L 231.582031 16.890625 L 231.863281 17.585938 L 232.140625 18.355469 L 232.417969 19.199219 L 232.699219 20.109375 L 232.976563 21.089844 L 233.253906 22.128906 L 233.8125 24.378906 L 234.929688 29.425781 L 235.207031 30.773438 L 235.484375 32.144531 L 236.042969 34.933594 L 237.15625 40.550781 L 237.4375 41.929688 L 237.714844 43.285156 L 238.273438 45.910156 L 238.550781 47.171875 L 238.828125 48.386719 L 239.386719 50.664063 L 239.664063 51.722656 L 239.945313 52.714844 L 240.222656 53.640625 L 240.503906 54.5 L 240.78125 55.28125 L 241.058594 55.984375 L 241.339844 56.609375 L 241.617188 57.152344 L 241.894531 57.609375 L 242.175781 57.976563 L 242.453125 58.257813 L 242.730469 58.445313 L 243.011719 58.542969 L 243.289063 58.546875 L 243.566406 58.460938 L 243.847656 58.28125 L 244.125 58.011719 L 244.402344 57.648438 L 244.683594 57.199219 L 244.960938 56.660156 L 245.238281 56.035156 L 245.519531 55.328125 L 245.796875 54.539063 L 246.078125 53.671875 L 246.355469 52.734375 L 246.632813 51.722656 L 247.191406 49.507813 L 247.46875 48.308594 L 247.75 47.058594 L 248.304688 44.417969 L 248.578125 43.066406 L 248.851563 41.683594 L 249.402344 38.84375 L 250.496094 33.039063 L 250.769531 31.59375 L 251.042969 30.164063 L 251.589844 27.363281 L 252.683594 22.175781 L 252.957031 20.996094 L 253.230469 19.871094 L 253.503906 18.804688 L 253.777344 17.800781 L 254.050781 16.867188 L 254.324219 16.007813 L 254.597656 15.222656 L 254.871094 14.515625 L 255.148438 13.890625 L 255.421875 13.351563 L 255.695313 12.894531 L 255.96875 12.53125 L 256.242188 12.253906 L 256.515625 12.070313 L 256.789063 11.976563 L 257.0625 11.972656 L 257.335938 12.0625 L 257.609375 12.246094 L 257.882813 12.523438 L 258.15625 12.886719 L 258.429688 13.339844 L 258.703125 13.882813 L 258.976563 14.507813 L 259.25 15.21875 L 259.523438 16.007813 L 259.796875 16.875 L 260.070313 17.816406 L 260.34375 18.828125 L 260.617188 19.90625 L 260.894531 21.042969 L 261.441406 23.492188 L 261.714844 24.792969 L 261.988281 26.132813 L 262.535156 28.925781 L 263.628906 34.796875 L 263.902344 36.285156 L 264.175781 37.777344 L 264.722656 40.730469 L 265.816406 46.363281 L 266.074219 47.597656 L 266.328125 48.789063 L 266.839844 51.035156 L 267.09375 52.085938 L 267.347656 53.078125 L 267.859375 54.886719 L 268.113281 55.695313 L 268.371094 56.4375 L 268.625 57.105469 L 268.878906 57.707031 L 269.136719 58.230469 L 269.390625 58.675781 L 269.648438 59.046875 L 269.902344 59.339844 L 270.15625 59.550781 L 270.414063 59.679688 L 270.667969 59.730469 L 270.921875 59.699219 L 271.179688 59.585938 L 271.433594 59.390625 L 271.6875 59.117188 L 271.945313 58.765625 L 272.199219 58.332031 L 272.453125 57.824219 L 272.710938 57.242188 L 272.964844 56.585938 L 273.21875 55.859375 L 273.476563 55.066406 L 273.984375 53.285156 L 274.242188 52.304688 L 274.496094 51.265625 L 275.007813 49.039063 L 276.027344 44.078125 L 276.28125 42.757813 L 276.539063 41.414063 L 277.046875 38.675781 L 278.070313 33.117188 L 278.324219 31.742188 L 278.578125 30.378906 L 279.089844 27.710938 L 279.34375 26.417969 L 279.601563 25.160156 L 280.109375 22.75 L 280.367188 21.609375 L 280.621094 20.519531 L 280.875 19.480469 L 281.132813 18.496094 L 281.386719 17.570313 L 281.640625 16.707031 L 281.898438 15.910156 L 282.152344 15.179688 L 282.429688 14.464844 L 282.707031 13.839844 L 282.984375 13.296875 L 283.261719 12.847656 L 283.535156 12.488281 L 283.8125 12.21875 L 284.089844 12.046875 L 284.367188 11.96875 L 284.644531 11.984375 L 284.921875 12.09375 L 285.199219 12.296875 L 285.472656 12.59375 L 285.75 12.980469 L 286.027344 13.457031 L 286.304688 14.023438 L 286.582031 14.675781 L 286.859375 15.410156 L 287.136719 16.222656 L 287.410156 17.113281 L 287.6875 18.078125 L 287.964844 19.109375 L 288.242188 20.207031 L 288.796875 22.574219 L 289.070313 23.839844 L 289.347656 25.148438 L 289.902344 27.878906 L 291.007813 33.648438 L 291.285156 35.121094 L 291.5625 36.589844 L 292.117188 39.511719 L 292.394531 40.949219 L 292.671875 42.363281 L 293.222656 45.097656 L 293.5 46.410156 L 293.777344 47.675781 L 294.332031 50.054688 L 294.609375 51.15625 L 294.882813 52.195313 L 295.4375 54.070313 L 295.714844 54.894531 L 295.992188 55.644531 L 296.269531 56.3125 L 296.542969 56.894531 L 296.820313 57.394531 L 297.097656 57.804688 L 297.375 58.128906 L 297.652344 58.363281 L 297.929688 58.503906 L 298.207031 58.558594 L 298.480469 58.519531 L 298.757813 58.386719 L 299.035156 58.167969 L 299.3125 57.859375 L 299.589844 57.460938 L 299.867188 56.980469 L 300.125 56.457031 L 300.382813 55.859375 L 300.640625 55.195313 L 300.898438 54.464844 L 301.15625 53.667969 L 301.417969 52.8125 L 301.933594 50.933594 L 302.191406 49.917969 L 302.449219 48.851563 L 302.964844 46.597656 L 304 41.699219 L 304.257813 40.417969 L 304.515625 39.125 L 305.035156 36.515625 L 306.066406 31.339844 L 306.324219 30.082031 L 306.582031 28.84375 L 307.101563 26.453125 L 307.359375 25.3125 L 307.617188 24.207031 L 308.132813 22.128906 L 308.390625 21.160156 L 308.652344 20.25 L 308.910156 19.390625 L 309.167969 18.59375 L 309.425781 17.855469 L 309.683594 17.183594 L 309.941406 16.578125 L 310.203125 16.039063 L 310.460938 15.570313 L 310.71875 15.171875 L 310.976563 14.84375 L 311.234375 14.59375 L 311.492188 14.414063 L 311.75 14.308594 L 312.011719 14.28125 L 312.269531 14.324219 L 312.527344 14.441406 L 312.785156 14.636719 L 313.042969 14.898438 L 313.300781 15.234375 L 313.558594 15.640625 L 313.820313 16.113281 L 314.078125 16.652344 L 314.335938 17.257813 L 314.59375 17.925781 L 314.851563 18.652344 L 315.367188 20.269531 L 315.628906 21.15625 L 315.886719 22.09375 L 316.402344 24.089844 L 316.65625 25.125 L 316.910156 26.191406 L 317.414063 28.40625 L 318.429688 33.050781 L 318.683594 34.234375 L 318.933594 35.417969 L 319.441406 37.769531 L 320.453125 42.3125 L 320.707031 43.390625 L 320.960938 44.441406 L 321.46875 46.4375 L 321.722656 47.378906 L 321.976563 48.277344 L 322.480469 49.9375 L 322.734375 50.691406 L 322.988281 51.394531 L 323.242188 52.042969 L 323.496094 52.632813 L 323.746094 53.160156 L 324 53.632813 L 324.253906 54.042969 L 324.507813 54.386719 L 324.761719 54.671875 L 325.015625 54.886719 L 325.265625 55.042969 L 325.519531 55.128906 L 325.773438 55.152344 L 326.027344 55.109375 L 326.28125 55.003906 L 326.535156 54.835938 L 326.789063 54.601563 L 327.039063 54.304688 L 327.292969 53.949219 L 327.546875 53.53125 L 327.800781 53.058594 L 328.054688 52.53125 L 328.308594 51.949219 L 328.558594 51.3125 L 328.8125 50.628906 L 329.066406 49.898438 L 329.574219 48.308594 L 329.828125 47.453125 L 330.082031 46.566406 L 330.585938 44.695313 L 330.839844 43.71875 L 331.09375 42.71875 L 331.601563 40.671875 L 332.613281 36.460938 L 332.886719 35.316406 L 333.164063 34.179688 L 333.710938 31.949219 L 333.988281 30.863281 L 334.261719 29.800781 L 334.8125 27.765625 L 335.085938 26.800781 L 335.359375 25.878906 L 335.636719 25 L 335.910156 24.167969 L 336.1875 23.386719 L 336.460938 22.65625 L 336.734375 21.980469 L 337.011719 21.367188 L 337.285156 20.808594 L 337.558594 20.316406 L 337.835938 19.882813 L 338.109375 19.519531 L 338.382813 19.21875 L 338.660156 18.984375 L 338.933594 18.816406 L 339.207031 18.71875 L 339.484375 18.683594 L 339.757813 18.71875 L 340.035156 18.820313 L 340.308594 18.988281 L 340.582031 19.21875 L 340.859375 19.515625 L 341.132813 19.871094 L 341.40625 20.289063 L 341.683594 20.761719 L 341.957031 21.292969 L 342.230469 21.875 L 342.507813 22.511719 L 342.78125 23.191406 L 343.054688 23.917969 L 343.605469 25.492188 L 343.882813 26.332031 L 344.15625 27.203125 L 344.707031 29.023438 L 345.804688 32.871094 L 346.078125 33.855469 L 346.355469 34.835938 L 346.902344 36.785156 L 347.179688 37.746094 L 347.453125 38.691406 L 348.003906 40.519531 L 348.277344 41.398438 L 348.554688 42.246094 L 349.101563 43.84375 L 349.378906 44.585938 L 349.652344 45.289063 L 350.203125 46.558594 L 350.457031 47.089844 L 350.714844 47.574219 L 350.972656 48.019531 L 351.226563 48.414063 L 351.484375 48.765625 L 351.742188 49.066406 L 351.996094 49.320313 L 352.253906 49.523438 L 352.511719 49.679688 L 352.765625 49.789063 L 353.023438 49.847656 L 353.277344 49.855469 L 353.535156 49.816406 L 353.792969 49.726563 L 354.046875 49.589844 L 354.304688 49.410156 L 354.5625 49.179688 L 354.816406 48.910156 L 355.074219 48.59375 L 355.332031 48.238281 L 355.585938 47.839844 L 355.84375 47.40625 L 356.355469 46.425781 L 356.613281 45.886719 L 356.871094 45.316406 L 357.382813 44.097656 L 358.40625 41.394531 L 358.664063 40.675781 L 358.921875 39.953125 L 359.433594 38.476563 L 360.460938 35.519531 L 360.714844 34.792969 L 360.972656 34.074219 L 361.484375 32.683594 L 362.511719 30.117188 L 362.765625 29.53125 L 363.023438 28.976563 L 363.28125 28.449219 L 363.535156 27.953125 L 363.792969 27.488281 L 364.050781 27.058594 L 364.304688 26.660156 L 364.5625 26.296875 L 364.820313 25.972656 L 365.074219 25.683594 L 365.332031 25.433594 L 365.589844 25.21875 L 365.84375 25.046875 L 366.101563 24.910156 L 366.355469 24.8125 L 366.613281 24.757813 L 366.890625 24.738281 L 367.167969 24.761719 L 367.449219 24.832031 L 367.726563 24.945313 L 368.003906 25.101563 L 368.28125 25.296875 L 368.558594 25.53125 L 368.835938 25.808594 L 369.117188 26.117188 L 369.394531 26.464844 L 369.671875 26.84375 L 369.949219 27.253906 L 370.226563 27.695313 L 370.503906 28.160156 L 371.0625 29.164063 L 371.339844 29.695313 L 371.617188 30.246094 L 372.171875 31.382813 L 373.285156 33.757813 L 373.5625 34.351563 L 373.839844 34.949219 L 374.398438 36.117188 L 375.507813 38.308594 L 375.785156 38.8125 L 376.066406 39.296875 L 376.34375 39.757813 L 376.621094 40.195313 L 376.898438 40.609375 L 377.175781 40.992188 L 377.453125 41.351563 L 377.730469 41.679688 L 378.011719 41.976563 L 378.289063 42.242188 L 378.566406 42.476563 L 378.84375 42.679688 L 379.121094 42.847656 L 379.398438 42.984375 L 379.679688 43.089844 L 379.957031 43.164063 L 380.234375 43.203125 L 380.511719 43.210938 L 380.789063 43.1875 L 381.066406 43.132813 L 381.347656 43.046875 L 381.625 42.933594 L 381.902344 42.792969 L 382.179688 42.625 L 382.457031 42.433594 L 382.734375 42.214844 L 383.015625 41.976563 L 383.292969 41.714844 L 383.570313 41.433594 L 383.847656 41.132813 L 384.402344 40.488281 L 384.675781 40.148438 L 384.949219 39.800781 L 385.496094 39.082031 L 386.585938 37.585938 L 386.859375 37.210938 L 387.132813 36.839844 L 387.679688 36.113281 L 388.769531 34.753906 L 389.042969 34.441406 L 389.316406 34.144531 L 389.589844 33.859375 L 389.859375 33.59375 L 390.132813 33.34375 L 390.40625 33.109375 L 390.679688 32.890625 L 390.953125 32.695313 L 391.226563 32.515625 L 391.5 32.355469 L 391.773438 32.214844 L 392.042969 32.09375 L 392.316406 31.992188 L 392.589844 31.90625 L 392.863281 31.84375 L 393.136719 31.800781 L 393.410156 31.773438 L 393.683594 31.765625 L 393.953125 31.777344 L 394.226563 31.804688 L 394.5 31.847656 L 394.773438 31.90625 L 395.046875 31.980469 L 395.320313 32.070313 L 395.59375 32.171875 L 395.863281 32.285156 L 396.136719 32.410156 L 396.410156 32.546875 L 396.683594 32.691406 L 396.957031 32.84375 L 397.503906 33.167969 L 397.773438 33.335938 L 398.046875 33.507813 L 398.59375 33.863281 L 399.140625 34.214844 L 399.683594 34.5625 L 399.957031 34.730469 L 400.230469 34.890625 L 400.777344 35.199219 L 401.050781 35.34375 L 401.324219 35.480469 L 401.867188 35.730469 L 402.121094 35.832031 L 402.378906 35.925781 L 402.632813 36.011719 L 402.886719 36.089844 L 403.140625 36.15625 L 403.394531 36.214844 L 403.648438 36.265625 L 403.902344 36.304688 L 404.160156 36.335938 L 404.414063 36.355469 L 404.667969 36.367188 L 404.921875 36.371094 L 405.175781 36.367188 L 405.429688 36.355469 L 405.6875 36.335938 L 405.941406 36.308594 L 406.195313 36.273438 L 406.449219 36.234375 L 406.703125 36.1875 L 406.957031 36.136719 L 407.210938 36.082031 L 407.46875 36.023438 L 407.976563 35.894531 L 408.230469 35.824219 L 408.484375 35.757813 L 408.992188 35.617188 L 409.25 35.550781 L 409.503906 35.480469 L 410.011719 35.355469 L 410.265625 35.296875 L 410.519531 35.242188 L 410.777344 35.191406 L 411.03125 35.148438 L 411.285156 35.109375 L 411.539063 35.078125 L 411.792969 35.054688 L 412.046875 35.035156 L 412.300781 35.027344 L 412.558594 35.023438 L 412.8125 35.03125 L 413.066406 35.046875 L 413.320313 35.074219 L 413.574219 35.105469 L 413.828125 35.148438 L 414.082031 35.203125 L 414.339844 35.261719 L 414.59375 35.332031 L 414.847656 35.414063 L 415.101563 35.5 L 415.355469 35.597656 L 415.609375 35.703125 L 416.121094 35.941406 L 416.375 36.066406 L 416.628906 36.203125 L 417.136719 36.492188 L 418.15625 37.121094 L 418.433594 37.296875 L 418.707031 37.476563 L 419.261719 37.832031 L 419.535156 38.007813 L 419.8125 38.183594 L 420.363281 38.511719 L 420.640625 38.667969 L 420.917969 38.816406 L 421.191406 38.957031 L 421.46875 39.085938 L 421.742188 39.203125 L 422.019531 39.308594 L 422.296875 39.398438 L 422.570313 39.476563 L 422.847656 39.539063 L 423.125 39.585938 L 423.398438 39.617188 L 423.675781 39.628906 L 423.953125 39.625 L 424.226563 39.601563 L 424.503906 39.558594 L 424.78125 39.496094 L 425.054688 39.414063 L 425.332031 39.3125 L 425.609375 39.191406 L 425.882813 39.050781 L 426.160156 38.886719 L 426.4375 38.707031 L 426.710938 38.507813 L 426.988281 38.289063 L 427.265625 38.050781 L 427.539063 37.796875 L 428.09375 37.238281 L 428.367188 36.9375 L 428.644531 36.621094 L 429.195313 35.953125 L 429.472656 35.601563 L 429.75 35.242188 L 430.300781 34.503906 L 431.40625 32.988281 L 431.679688 32.613281 L 431.957031 32.238281 L 432.507813 31.511719 L 432.785156 31.164063 L 433.0625 30.828125 L 433.613281 30.191406 L 433.890625 29.898438 L 434.164063 29.625 L 434.441406 29.367188 L 434.71875 29.132813 L 434.992188 28.921875 L 435.269531 28.734375 L 435.546875 28.574219 L 435.820313 28.441406 L 436.078125 28.339844 L 436.335938 28.261719 L 436.59375 28.210938 L 436.851563 28.1875 L 437.109375 28.191406 L 437.367188 28.222656 L 437.625 28.28125 L 437.882813 28.367188 L 438.140625 28.480469 L 438.398438 28.621094 L 438.65625 28.792969 L 438.914063 28.988281 L 439.171875 29.214844 L 439.429688 29.46875 L 439.6875 29.746094 L 439.945313 30.050781 L 440.203125 30.382813 L 440.457031 30.734375 L 440.972656 31.511719 L 441.230469 31.933594 L 441.488281 32.375 L 442.003906 33.3125 L 442.261719 33.804688 L 442.519531 34.3125 L 443.035156 35.359375 L 444.066406 37.546875 L 444.582031 38.65625 L 445.097656 39.75 L 445.355469 40.289063 L 445.613281 40.816406 L 446.125 41.839844 L 446.382813 42.332031 L 446.640625 42.800781 L 446.898438 43.253906 L 447.15625 43.6875 L 447.414063 44.097656 L 447.671875 44.480469 L 447.929688 44.839844 L 448.1875 45.167969 L 448.445313 45.46875 L 448.703125 45.738281 L 448.960938 45.976563 L 449.21875 46.179688 L 449.476563 46.347656 L 449.734375 46.484375 L 449.992188 46.578125 L 450.25 46.640625 L 450.507813 46.660156 L 450.765625 46.644531 L 451.023438 46.589844 L 451.28125 46.492188 L 451.539063 46.359375 L 451.792969 46.1875 L 452.050781 45.972656 L 452.308594 45.722656 L 452.589844 45.410156 L 452.867188 45.050781 L 453.148438 44.648438 L 453.425781 44.207031 L 453.707031 43.722656 L 453.984375 43.203125 L 454.542969 42.050781 L 454.824219 41.425781 L 455.101563 40.765625 L 455.660156 39.371094 L 456.777344 36.328125 L 457.054688 35.535156 L 457.335938 34.730469 L 457.894531 33.117188 L 459.011719 29.941406 L 459.289063 29.179688 L 459.570313 28.4375 L 460.125 27.023438 L 460.40625 26.355469 L 460.683594 25.722656 L 461.242188 24.566406 L 461.523438 24.042969 L 461.800781 23.566406 L 462.082031 23.136719 L 462.359375 22.753906 L 462.640625 22.417969 L 462.917969 22.136719 L 463.199219 21.90625 L 463.476563 21.730469 L 463.757813 21.613281 L 464.035156 21.550781 L 464.3125 21.546875 L 464.59375 21.597656 L 464.871094 21.710938 L 465.152344 21.878906 L 465.429688 22.109375 L 465.710938 22.394531 L 465.988281 22.734375 L 466.269531 23.132813 L 466.546875 23.585938 L 466.828125 24.09375 L 467.105469 24.652344 L 467.386719 25.261719 L 467.945313 26.617188 L 468.222656 27.363281 L 468.5 28.144531 L 469.058594 29.824219 L 470.175781 33.515625 L 470.449219 34.46875 L 470.726563 35.4375 L 471.273438 37.390625 L 472.371094 41.273438 L 472.644531 42.21875 L 472.917969 43.140625 L 473.464844 44.917969 L 473.738281 45.757813 L 474.015625 46.570313 L 474.5625 48.074219 L 474.835938 48.761719 L 475.109375 49.402344 L 475.382813 49.996094 L 475.660156 50.535156 L 475.933594 51.019531 L 476.207031 51.445313 L 476.480469 51.816406 L 476.753906 52.121094 L 477.027344 52.367188 L 477.304688 52.546875 L 477.578125 52.660156 L 477.851563 52.710938 L 478.125 52.695313 L 478.398438 52.609375 L 478.671875 52.457031 L 478.949219 52.238281 L 479.222656 51.957031 L 479.496094 51.605469 L 479.769531 51.191406 L 480.042969 50.710938 L 480.316406 50.171875 L 480.59375 49.574219 L 480.867188 48.914063 L 481.140625 48.199219 L 481.414063 47.433594 L 481.6875 46.617188 L 482.238281 44.839844 L 482.511719 43.890625 L 482.785156 42.902344 L 483.332031 40.828125 L 483.605469 39.75 L 483.882813 38.652344 L 484.429688 36.402344 L 485.527344 31.839844 L 485.800781 30.707031 L 486.074219 29.59375 L 486.621094 27.421875 L 486.894531 26.371094 L 487.171875 25.355469 L 487.71875 23.433594 L 487.972656 22.59375 L 488.230469 21.792969 L 488.484375 21.039063 L 488.742188 20.332031 L 488.996094 19.671875 L 489.253906 19.066406 L 489.507813 18.511719 L 489.765625 18.015625 L 490.019531 17.578125 L 490.273438 17.199219 L 490.53125 16.878906 L 490.785156 16.625 L 491.042969 16.433594 L 491.296875 16.308594 L 491.554688 16.25 L 491.808594 16.257813 L 492.066406 16.328125 L 492.320313 16.46875 L 492.578125 16.671875 L 492.832031 16.941406 L 493.085938 17.277344 L 493.34375 17.679688 L 493.597656 18.140625 L 493.855469 18.667969 L 494.109375 19.253906 L 494.367188 19.894531 L 494.621094 20.59375 L 494.878906 21.351563 L 495.132813 22.15625 L 495.390625 23.011719 L 495.898438 24.859375 L 496.15625 25.84375 L 496.410156 26.867188 L 496.921875 29.011719 L 497.945313 33.59375 L 498.203125 34.777344 L 498.457031 35.96875 L 498.96875 38.359375 L 499.992188 43.042969 L 500.246094 44.171875 L 500.503906 45.277344 L 501.015625 47.394531 L 501.269531 48.398438 L 501.527344 49.367188 L 502.035156 51.164063 L 502.292969 51.988281 L 502.546875 52.761719 L 502.804688 53.480469 L 503.058594 54.140625 L 503.316406 54.738281 L 503.570313 55.273438 L 503.828125 55.742188 L 504.082031 56.148438 L 504.359375 56.507813 L 504.636719 56.785156 L 504.914063 56.980469 L 505.191406 57.089844 L 505.46875 57.117188 L 505.746094 57.054688 L 506.023438 56.910156 L 506.300781 56.675781 L 506.578125 56.359375 L 506.855469 55.960938 L 507.132813 55.476563 L 507.410156 54.914063 L 507.6875 54.273438 L 507.964844 53.554688 L 508.242188 52.765625 L 508.519531 51.902344 L 508.796875 50.972656 L 509.074219 49.976563 L 509.628906 47.816406 L 509.902344 46.65625 L 510.179688 45.445313 L 510.734375 42.910156 L 511.011719 41.589844 L 511.289063 40.242188 L 511.84375 37.484375 L 512.953125 31.890625 L 513.230469 30.507813 L 513.507813 29.140625 L 514.0625 26.484375 L 514.339844 25.203125 L 514.617188 23.957031 L 515.171875 21.609375 L 515.449219 20.515625 L 515.726563 19.476563 L 516.003906 18.5 L 516.28125 17.589844 L 516.558594 16.753906 L 516.835938 15.988281 L 517.113281 15.300781 L 517.390625 14.691406 L 517.667969 14.167969 L 517.945313 13.726563 L 518.222656 13.371094 L 518.5 13.109375 L 518.777344 12.933594 L 519.050781 12.847656 L 519.328125 12.855469 L 519.605469 12.953125 L 519.882813 13.144531 L 520.160156 13.421875 L 520.4375 13.792969 L 520.714844 14.25 L 520.992188 14.792969 L 521.269531 15.421875 L 521.546875 16.132813 L 521.824219 16.925781 L 522.082031 17.730469 L 522.34375 18.601563 L 522.859375 20.527344 L 523.117188 21.570313 L 523.378906 22.667969 L 523.894531 24.996094 L 524.15625 26.21875 L 524.414063 27.480469 L 524.929688 30.085938 L 525.964844 35.523438 L 526.226563 36.898438 L 526.484375 38.273438 L 527 40.996094 L 527.261719 42.335938 L 527.519531 43.65625 L 528.035156 46.207031 L 528.296875 47.433594 L 528.554688 48.621094 L 529.074219 50.859375 L 529.332031 51.90625 L 529.589844 52.894531 L 530.109375 54.695313 L 530.367188 55.496094 L 530.625 56.230469 L 530.882813 56.898438 L 531.144531 57.488281 L 531.402344 58.003906 L 531.660156 58.445313 L 531.917969 58.804688 L 532.179688 59.085938 L 532.4375 59.28125 L 532.695313 59.398438 L 532.953125 59.433594 L 533.214844 59.386719 L 533.472656 59.257813 L 533.730469 59.042969 L 533.988281 58.75 L 534.25 58.375 L 534.507813 57.921875 L 534.765625 57.390625 L 535.027344 56.785156 L 535.285156 56.101563 L 535.542969 55.347656 L 535.800781 54.527344 L 536.320313 52.6875 L 536.578125 51.675781 L 536.835938 50.609375 L 537.355469 48.320313 L 538.390625 43.246094 L 538.644531 41.921875 L 538.898438 40.578125 L 539.40625 37.847656 L 540.421875 32.324219 L 540.675781 30.957031 L 540.929688 29.609375 L 541.433594 26.972656 L 542.449219 22.078125 L 542.703125 20.957031 L 542.957031 19.886719 L 543.210938 18.867188 L 543.464844 17.90625 L 543.71875 17 L 543.972656 16.160156 L 544.226563 15.386719 L 544.480469 14.675781 L 544.734375 14.039063 L 544.988281 13.472656 L 545.242188 12.984375 L 545.496094 12.566406 L 545.75 12.230469 L 546.003906 11.96875 L 546.257813 11.789063 L 546.511719 11.691406 L 546.765625 11.671875 L 547.019531 11.730469 L 547.273438 11.871094 L 547.527344 12.089844 L 547.777344 12.390625 L 548.03125 12.769531 L 548.285156 13.222656 L 548.539063 13.75 L 548.792969 14.351563 L 549.046875 15.027344 L 549.300781 15.769531 L 549.554688 16.578125 L 549.808594 17.453125 L 550.0625 18.386719 L 550.570313 20.421875 L 550.824219 21.519531 L 551.078125 22.664063 L 551.585938 25.078125 L 552.601563 30.289063 L 554.628906 41.261719 L 554.90625 42.707031 L 555.179688 44.125 L 555.730469 46.847656 L 556.007813 48.148438 L 556.28125 49.394531 L 556.832031 51.722656 L 557.109375 52.792969 L 557.382813 53.796875 L 557.660156 54.726563 L 557.933594 55.582031 L 558.210938 56.355469 L 558.484375 57.050781 L 558.761719 57.660156 L 559.035156 58.183594 L 559.308594 58.617188 L 559.585938 58.960938 L 559.859375 59.210938 L 560.136719 59.367188 L 560.410156 59.433594 L 560.6875 59.40625 L 560.960938 59.285156 L 561.238281 59.070313 L 561.511719 58.761719 L 561.789063 58.367188 L 562.0625 57.882813 L 562.339844 57.308594 L 562.613281 56.652344 L 562.890625 55.914063 L 563.164063 55.097656 L 563.441406 54.207031 L 563.714844 53.242188 L 563.988281 52.210938 L 564.539063 49.960938 L 564.816406 48.753906 L 565.089844 47.492188 L 565.640625 44.847656 L 565.917969 43.46875 L 566.191406 42.0625 L 566.742188 39.1875 L 567.84375 33.34375 L 568.121094 31.898438 L 568.394531 30.46875 L 568.945313 27.683594 L 569.21875 26.339844 L 569.496094 25.035156 L 570.046875 22.5625 L 570.320313 21.402344 L 570.597656 20.300781 L 570.871094 19.265625 L 571.148438 18.292969 L 571.421875 17.390625 L 571.699219 16.5625 L 571.972656 15.8125 L 572.25 15.140625 L 572.503906 14.589844 L 572.761719 14.113281 L 573.019531 13.707031 L 573.277344 13.378906 L 573.53125 13.128906 L 573.789063 12.957031 L 574.046875 12.859375 L 574.304688 12.84375 L 574.5625 12.90625 L 574.816406 13.046875 L 575.074219 13.261719 L 575.332031 13.554688 L 575.589844 13.925781 L 575.84375 14.367188 L 576.101563 14.882813 L 576.359375 15.46875 L 576.617188 16.121094 L 576.871094 16.839844 L 577.128906 17.621094 L 577.386719 18.464844 L 577.644531 19.363281 L 577.898438 20.320313 L 578.414063 22.375 L 578.671875 23.46875 L 578.929688 24.605469 L 579.441406 26.976563 L 580.46875 32.007813 L 580.726563 33.300781 L 580.984375 34.597656 L 581.496094 37.191406 L 582.523438 42.246094 L 582.78125 43.457031 L 583.039063 44.636719 L 583.550781 46.894531 L 583.808594 47.960938 L 584.066406 48.984375 L 584.578125 50.886719 L 584.835938 51.753906 L 585.09375 52.566406 L 585.351563 53.316406 L 585.605469 54.007813 L 585.863281 54.632813 L 586.121094 55.191406 L 586.378906 55.679688 L 586.636719 56.097656 L 586.890625 56.449219 L 587.148438 56.722656 L 587.40625 56.929688 L 587.664063 57.058594 L 587.917969 57.117188 L 588.175781 57.097656 L 588.433594 57.007813 L 588.691406 56.847656 L 588.96875 56.589844 L 589.246094 56.246094 L 589.523438 55.824219 L 589.804688 55.324219 L 590.082031 54.742188 L 590.359375 54.089844 L 590.640625 53.363281 L 590.917969 52.570313 L 591.195313 51.710938 L 591.472656 50.789063 L 592.03125 48.777344 L 592.308594 47.699219 L 592.585938 46.574219 L 593.144531 44.207031 L 593.421875 42.980469 L 593.703125 41.726563 L 594.257813 39.164063 L 595.371094 33.972656 L 595.652344 32.695313 L 595.929688 31.429688 L 596.484375 28.976563 L 596.765625 27.792969 L 597.042969 26.648438 L 597.597656 24.484375 L 597.878906 23.476563 L 598.15625 22.519531 L 598.433594 21.621094 L 598.714844 20.78125 L 598.992188 20.007813 L 599.269531 19.300781 L 599.546875 18.660156 L 599.828125 18.09375 L 600.105469 17.597656 L 600.382813 17.179688 L 600.664063 16.835938 L 600.941406 16.570313 L 601.21875 16.382813 L 601.496094 16.273438 L 601.777344 16.246094 L 602.054688 16.292969 L 602.332031 16.421875 L 602.609375 16.625 L 602.890625 16.902344 L 603.167969 17.257813 L 603.445313 17.683594 L 603.726563 18.179688 L 604.003906 18.746094 L 604.28125 19.378906 L 604.558594 20.070313 L 604.839844 20.824219 L 605.394531 22.496094 L 605.675781 23.40625 L 605.953125 24.363281 L 606.507813 26.390625 L 606.78125 27.4375 L 607.054688 28.507813 L 607.601563 30.71875 L 608.695313 35.261719 L 608.96875 36.398438 L 609.242188 37.523438 L 609.789063 39.734375 L 610.882813 43.867188 L 611.15625 44.816406 L 611.429688 45.722656 L 611.703125 46.589844 L 611.976563 47.40625 L 612.25 48.171875 L 612.523438 48.886719 L 612.796875 49.542969 L 613.070313 50.144531 L 613.34375 50.6875 L 613.617188 51.167969 L 613.890625 51.585938 L 614.164063 51.9375 L 614.4375 52.226563 L 614.710938 52.445313 L 614.984375 52.601563 L 615.257813 52.691406 L 615.53125 52.710938 L 615.804688 52.667969 L 616.074219 52.558594 L 616.347656 52.382813 L 616.621094 52.144531 L 616.894531 51.84375 L 617.167969 51.480469 L 617.441406 51.058594 L 617.714844 50.582031 L 617.988281 50.050781 L 618.261719 49.464844 L 618.535156 48.828125 L 618.808594 48.148438 L 619.082031 47.421875 L 619.628906 45.851563 L 619.902344 45.015625 L 620.175781 44.144531 L 620.722656 42.332031 L 621.816406 38.503906 L 622.089844 37.527344 L 622.363281 36.546875 L 622.910156 34.609375 L 624.003906 30.894531 L 624.257813 30.078125 L 624.511719 29.289063 L 625.023438 27.792969 L 625.277344 27.089844 L 625.53125 26.421875 L 626.042969 25.199219 L 626.296875 24.644531 L 626.550781 24.132813 L 626.808594 23.664063 L 627.0625 23.242188 L 627.316406 22.863281 L 627.574219 22.53125 L 627.828125 22.246094 L 628.082031 22.007813 L 628.335938 21.820313 L 628.59375 21.679688 L 628.847656 21.585938 L 629.101563 21.542969 L 629.355469 21.550781 L 629.613281 21.601563 L 629.867188 21.703125 L 630.121094 21.851563 L 630.375 22.042969 L 630.632813 22.28125 L 630.886719 22.5625 L 631.140625 22.886719 L 631.398438 23.25 L 631.652344 23.65625 L 631.90625 24.097656 L 632.160156 24.574219 L 632.417969 25.085938 L 632.671875 25.628906 L 633.179688 26.800781 L 634.199219 29.425781 L 634.457031 30.125 L 634.710938 30.835938 L 635.222656 32.292969 L 636.242188 35.238281 L 636.496094 35.96875 L 636.75 36.6875 L 637.261719 38.097656 L 637.515625 38.785156 L 637.769531 39.449219 L 638.28125 40.722656 L 638.535156 41.328125 L 638.789063 41.90625 L 639.046875 42.457031 L 639.300781 42.976563 L 639.554688 43.46875 L 639.808594 43.929688 L 640.066406 44.359375 L 640.320313 44.75 L 640.597656 45.136719 L 640.871094 45.484375 L 641.148438 45.785156 L 641.425781 46.042969 L 641.703125 46.257813 L 641.980469 46.425781 L 642.253906 46.546875 L 642.53125 46.625 L 642.808594 46.660156 L 643.085938 46.648438 L 643.359375 46.59375 L 643.636719 46.496094 L 643.914063 46.355469 L 644.191406 46.171875 L 644.46875 45.953125 L 644.742188 45.691406 L 645.019531 45.394531 L 645.296875 45.0625 L 645.574219 44.699219 L 645.851563 44.300781 L 646.125 43.875 L 646.402344 43.421875 L 646.957031 42.441406 L 647.230469 41.917969 L 647.507813 41.378906 L 648.0625 40.257813 L 649.167969 37.90625 L 649.445313 37.3125 L 649.71875 36.71875 L 650.273438 35.550781 L 650.550781 34.976563 L 650.828125 34.417969 L 651.378906 33.34375 L 651.65625 32.832031 L 651.933594 32.335938 L 652.207031 31.867188 L 652.484375 31.417969 L 652.761719 30.996094 L 653.039063 30.597656 L 653.316406 30.230469 L 653.589844 29.886719 L 653.867188 29.578125 L 654.144531 29.296875 L 654.421875 29.046875 L 654.695313 28.828125 L 654.972656 28.640625 L 655.25 28.484375 L 655.527344 28.363281 L 655.804688 28.273438 L 656.078125 28.214844 L 656.355469 28.1875 L 656.632813 28.195313 L 656.910156 28.230469 L 657.183594 28.296875 L 657.460938 28.390625 L 657.738281 28.515625 L 658.015625 28.664063 L 658.273438 28.828125 L 658.53125 29.015625 L 658.789063 29.222656 L 659.046875 29.449219 L 659.304688 29.691406 L 659.5625 29.953125 L 660.078125 30.519531 L 660.335938 30.824219 L 660.597656 31.140625 L 661.113281 31.800781 L 662.144531 33.195313 L 662.660156 33.90625 L 663.175781 34.609375 L 663.433594 34.957031 L 663.691406 35.296875 L 664.210938 35.960938 L 664.46875 36.277344 L 664.726563 36.585938 L 665.242188 37.167969 L 665.5 37.441406 L 665.757813 37.699219 L 666.273438 38.171875 L 666.53125 38.386719 L 666.789063 38.582031 L 667.046875 38.765625 L 667.304688 38.929688 L 667.5625 39.074219 L 667.824219 39.207031 L 668.082031 39.316406 L 668.339844 39.414063 L 668.597656 39.488281 L 668.855469 39.550781 L 669.113281 39.59375 L 669.371094 39.621094 L 669.628906 39.628906 L 669.886719 39.625 L 670.144531 39.605469 L 670.402344 39.566406 L 670.660156 39.519531 L 670.917969 39.453125 L 671.175781 39.375 L 671.4375 39.289063 L 671.695313 39.1875 L 671.953125 39.074219 L 672.46875 38.824219 L 672.726563 38.6875 L 672.984375 38.542969 L 673.5 38.234375 L 674.53125 37.578125 L 675.039063 37.25 L 675.546875 36.929688 L 675.796875 36.769531 L 676.050781 36.617188 L 676.558594 36.320313 L 676.808594 36.183594 L 677.0625 36.046875 L 677.316406 35.921875 L 677.570313 35.800781 L 677.820313 35.691406 L 678.074219 35.585938 L 678.328125 35.492188 L 678.582031 35.402344 L 678.835938 35.324219 L 679.085938 35.257813 L 679.339844 35.195313 L 679.59375 35.144531 L 679.847656 35.101563 L 680.097656 35.070313 L 680.351563 35.046875 L 680.605469 35.03125 L 680.859375 35.023438 L 681.109375 35.027344 L 681.363281 35.039063 L 681.617188 35.054688 L 681.871094 35.078125 L 682.125 35.113281 L 682.375 35.148438 L 682.882813 35.242188 L 683.136719 35.296875 L 683.640625 35.417969 L 683.894531 35.480469 L 684.148438 35.546875 L 684.652344 35.683594 L 685.160156 35.824219 L 685.664063 35.957031 L 685.917969 36.019531 L 686.171875 36.078125 L 686.425781 36.132813 L 686.675781 36.183594 L 686.929688 36.230469 L 687.183594 36.273438 L 687.691406 36.335938 L 687.941406 36.355469 L 688.195313 36.367188 L 688.449219 36.371094 L 688.703125 36.371094 L 688.953125 36.359375 L 689.207031 36.335938 L 689.460938 36.308594 L 689.714844 36.269531 L 689.964844 36.222656 L 690.21875 36.164063 L 690.472656 36.101563 L 690.726563 36.027344 L 691 35.933594 L 691.273438 35.832031 L 691.550781 35.722656 L 691.824219 35.601563 L 692.097656 35.472656 L 692.371094 35.332031 L 692.921875 35.035156 L 693.195313 34.875 L 693.472656 34.710938 L 694.019531 34.367188 L 695.117188 33.660156 L 695.394531 33.484375 L 695.667969 33.308594 L 696.214844 32.972656 L 696.492188 32.816406 L 696.765625 32.664063 L 697.316406 32.386719 L 697.589844 32.261719 L 697.863281 32.148438 L 698.136719 32.050781 L 698.414063 31.964844 L 698.6875 31.894531 L 698.960938 31.835938 L 699.238281 31.796875 L 699.511719 31.773438 L 699.785156 31.765625 L 700.058594 31.78125 L 700.335938 31.808594 L 700.609375 31.859375 L 700.882813 31.929688 L 701.160156 32.015625 L 701.433594 32.125 L 701.707031 32.253906 L 701.980469 32.398438 L 702.257813 32.566406 L 702.53125 32.753906 L 702.804688 32.957031 L 703.078125 33.179688 L 703.355469 33.421875 L 703.902344 33.953125 L 704.179688 34.246094 L 704.453125 34.550781 L 705 35.195313 L 706.101563 36.613281 L 706.375 36.984375 L 706.648438 37.363281 L 707.199219 38.117188 L 708.296875 39.601563 L 708.550781 39.933594 L 708.808594 40.257813 L 709.320313 40.871094 L 709.578125 41.160156 L 709.832031 41.4375 L 710.34375 41.9375 L 710.601563 42.164063 L 710.859375 42.371094 L 711.113281 42.554688 L 711.371094 42.71875 L 711.625 42.863281 L 711.882813 42.980469 L 712.136719 43.078125 L 712.394531 43.148438 L 712.652344 43.191406 L 712.90625 43.210938 L 713.164063 43.203125 L 713.417969 43.167969 L 713.675781 43.105469 L 713.933594 43.015625 L 714.1875 42.894531 L 714.445313 42.75 L 714.699219 42.578125 L 714.957031 42.375 L 715.210938 42.148438 L 715.46875 41.894531 L 715.726563 41.613281 L 715.980469 41.308594 L 716.492188 40.621094 L 716.75 40.242188 L 717.003906 39.84375 L 717.519531 38.980469 L 718.542969 37.050781 L 718.796875 36.535156 L 719.054688 36.007813 L 719.566406 34.929688 L 720.589844 32.730469 L 720.847656 32.183594 L 721.105469 31.640625 L 721.617188 30.582031 L 721.871094 30.066406 L 722.128906 29.5625 L 722.640625 28.605469 L 722.898438 28.15625 L 723.152344 27.726563 L 723.410156 27.316406 L 723.664063 26.933594 L 723.921875 26.578125 L 724.179688 26.246094 L 724.433594 25.945313 L 724.691406 25.675781 L 724.96875 25.417969 L 725.246094 25.203125 L 725.523438 25.023438 L 725.800781 24.886719 L 726.078125 24.796875 L 726.355469 24.746094 L 726.632813 24.738281 L 726.910156 24.78125 L 727.1875 24.863281 L 727.46875 24.996094 L 727.746094 25.171875 L 728.023438 25.390625 L 728.300781 25.65625 L 728.578125 25.96875 L 728.855469 26.320313 L 729.132813 26.71875 L 729.410156 27.15625 L 729.6875 27.632813 L 730.242188 28.699219 L 730.519531 29.289063 L 730.800781 29.910156 L 731.355469 31.238281 L 731.632813 31.941406 L 731.910156 32.667969 L 732.464844 34.179688 L 733.574219 37.347656 L 733.855469 38.152344 L 734.132813 38.953125 L 734.6875 40.539063 L 734.964844 41.316406 L 735.242188 42.078125 L 735.796875 43.539063 L 736.074219 44.238281 L 736.351563 44.90625 L 736.628906 45.542969 L 736.90625 46.144531 L 737.1875 46.710938 L 737.464844 47.238281 L 737.742188 47.722656 L 738.019531 48.160156 L 738.296875 48.554688 L 738.574219 48.898438 L 738.851563 49.195313 L 739.128906 49.4375 L 739.40625 49.625 L 739.683594 49.757813 L 739.960938 49.835938 L 740.242188 49.855469 L 740.519531 49.820313 L 740.796875 49.726563 L 741.074219 49.574219 L 741.351563 49.367188 L 741.628906 49.097656 L 741.90625 48.777344 L 742.183594 48.398438 L 742.460938 47.964844 L 742.722656 47.511719 L 742.980469 47.011719 L 743.238281 46.472656 L 743.5 45.886719 L 743.757813 45.261719 L 744.015625 44.597656 L 744.535156 43.167969 L 744.796875 42.402344 L 745.054688 41.609375 L 745.574219 39.941406 L 746.609375 36.382813 L 746.871094 35.464844 L 747.128906 34.539063 L 747.648438 32.683594 L 748.683594 29.058594 L 748.945313 28.183594 L 749.203125 27.335938 L 749.722656 25.707031 L 749.980469 24.9375 L 750.242188 24.199219 L 750.757813 22.835938 L 751.019531 22.214844 L 751.277344 21.636719 L 751.535156 21.105469 L 751.796875 20.621094 L 752.054688 20.1875 L 752.316406 19.804688 L 752.574219 19.476563 L 752.832031 19.203125 L 753.09375 18.988281 L 753.351563 18.828125 L 753.613281 18.726563 L 753.871094 18.6875 L 754.128906 18.703125 L 754.390625 18.78125 L 754.648438 18.921875 L 754.90625 19.117188 L 755.167969 19.375 L 755.425781 19.691406 L 755.6875 20.066406 L 755.945313 20.496094 L 756.203125 20.984375 L 756.464844 21.527344 L 756.722656 22.121094 L 756.980469 22.765625 L 757.242188 23.460938 L 757.5 24.203125 L 758.019531 25.816406 L 758.277344 26.683594 L 758.539063 27.585938 L 759.054688 29.488281 L 759.3125 30.464844 L 759.566406 31.460938 L 760.074219 33.507813 L 761.089844 37.726563 L 761.34375 38.785156 L 761.597656 39.839844 L 762.105469 41.917969 L 763.125 45.855469 L 763.378906 46.773438 L 763.632813 47.65625 L 764.140625 49.316406 L 764.394531 50.082031 L 764.648438 50.804688 L 765.15625 52.101563 L 765.410156 52.671875 L 765.667969 53.191406 L 765.921875 53.648438 L 766.175781 54.050781 L 766.429688 54.390625 L 766.683594 54.671875 L 766.9375 54.886719 L 767.191406 55.042969 L 767.445313 55.128906 L 767.699219 55.152344 L 767.953125 55.109375 L 768.207031 55.003906 L 768.460938 54.828125 L 768.714844 54.589844 L 768.972656 54.289063 L 769.226563 53.921875 L 769.480469 53.488281 L 769.734375 53 L 769.988281 52.445313 L 770.242188 51.835938 L 770.496094 51.167969 L 770.75 50.445313 L 771.257813 48.84375 L 771.511719 47.972656 L 771.765625 47.054688 L 772.277344 45.101563 L 773.292969 40.789063 L 775.324219 31.402344 L 775.601563 30.136719 L 775.878906 28.886719 L 776.429688 26.457031 L 776.703125 25.289063 L 776.980469 24.160156 L 777.53125 22.027344 L 777.808594 21.035156 L 778.082031 20.097656 L 778.359375 19.21875 L 778.636719 18.398438 L 778.910156 17.648438 L 779.1875 16.964844 L 779.460938 16.355469 L 779.738281 15.820313 L 780.015625 15.359375 L 780.289063 14.980469 L 780.566406 14.679688 L 780.839844 14.464844 L 781.117188 14.328125 L 781.390625 14.28125 L 781.667969 14.316406 L 781.945313 14.433594 L 782.21875 14.640625 L 782.496094 14.929688 L 782.769531 15.300781 L 783.046875 15.753906 L 783.324219 16.289063 L 783.597656 16.898438 L 783.875 17.589844 L 784.148438 18.351563 L 784.425781 19.183594 L 784.703125 20.085938 L 785.253906 22.078125 L 785.527344 23.160156 L 785.804688 24.296875 L 786.355469 26.710938 L 786.632813 27.976563 L 786.90625 29.277344 L 787.457031 31.960938 L 788.5625 37.503906 L 788.835938 38.898438 L 789.113281 40.277344 L 789.664063 42.992188 L 789.941406 44.316406 L 790.214844 45.605469 L 790.769531 48.074219 L 791.042969 49.242188 L 791.320313 50.359375 L 791.59375 51.417969 L 791.871094 52.421875 L 792.144531 53.359375 L 792.421875 54.230469 L 792.699219 55.027344 L 792.972656 55.75 L 793.230469 56.359375 L 793.488281 56.894531 L 793.746094 57.355469 L 794.003906 57.746094 L 794.261719 58.0625 L 794.519531 58.300781 L 794.773438 58.460938 L 795.03125 58.546875 L 795.289063 58.550781 L 795.546875 58.476563 L 795.804688 58.324219 L 796.0625 58.089844 L 796.320313 57.78125 L 796.578125 57.398438 L 796.832031 56.9375 L 797.089844 56.402344 L 797.347656 55.796875 L 797.605469 55.117188 L 797.863281 54.375 L 798.121094 53.5625 L 798.378906 52.6875 L 798.636719 51.753906 L 799.148438 49.71875 L 799.40625 48.625 L 799.664063 47.484375 L 800.179688 45.082031 L 801.207031 39.898438 L 801.464844 38.550781 L 801.722656 37.191406 L 802.238281 34.457031 L 803.269531 29.050781 L 803.523438 27.742188 L 803.78125 26.457031 L 804.296875 23.980469 L 804.554688 22.800781 L 804.8125 21.664063 L 805.328125 19.53125 L 805.582031 18.546875 L 805.839844 17.617188 L 806.097656 16.75 L 806.355469 15.949219 L 806.613281 15.210938 L 806.871094 14.546875 L 807.128906 13.953125 L 807.386719 13.433594 L 807.644531 12.992188 L 807.898438 12.625 L 808.15625 12.339844 L 808.414063 12.132813 L 808.671875 12.007813 L 808.929688 11.960938 L 809.1875 12 L 809.445313 12.121094 L 809.722656 12.339844 L 810 12.65625 L 810.28125 13.066406 L 810.558594 13.566406 L 810.839844 14.15625 L 811.117188 14.835938 L 811.394531 15.597656 L 811.675781 16.441406 L 811.953125 17.367188 L 812.234375 18.363281 L 812.789063 20.570313 L 813.070313 21.765625 L 813.347656 23.023438 L 813.90625 25.683594 L 814.183594 27.078125 L 814.464844 28.507813 L 815.023438 31.453125 L 816.136719 37.511719 L 816.417969 39.023438 L 816.695313 40.523438 L 817.253906 43.460938 L 818.367188 48.925781 L 818.648438 50.171875 L 818.925781 51.359375 L 819.203125 52.484375 L 819.484375 53.542969 L 819.761719 54.527344 L 820.042969 55.4375 L 820.320313 56.269531 L 820.597656 57.015625 L 820.878906 57.675781 L 821.15625 58.25 L 821.4375 58.730469 L 821.714844 59.121094 L 821.992188 59.414063 L 822.273438 59.613281 L 822.550781 59.714844 L 822.832031 59.71875 L 823.109375 59.628906 L 823.386719 59.441406 L 823.667969 59.15625 L 823.945313 58.777344 L 824.226563 58.304688 L 824.503906 57.738281 L 824.78125 57.085938 L 825.0625 56.347656 L 825.339844 55.523438 L 825.621094 54.621094 L 826.175781 52.59375 L 826.457031 51.476563 L 826.734375 50.292969 L 827.292969 47.757813 L 827.566406 46.441406 L 827.839844 45.082031 L 828.386719 42.261719 L 829.484375 36.367188 L 829.757813 34.871094 L 830.03125 33.382813 L 830.578125 30.441406 L 831.671875 24.855469 L 831.945313 23.550781 L 832.222656 22.296875 L 832.496094 21.097656 L 832.769531 19.953125 L 833.042969 18.871094 L 833.316406 17.859375 L 833.589844 16.914063 L 833.863281 16.042969 L 834.136719 15.25 L 834.410156 14.535156 L 834.683594 13.90625 L 834.960938 13.359375 L 835.234375 12.902344 L 835.507813 12.535156 L 835.78125 12.257813 L 836.054688 12.070313 L 836.328125 11.976563 L 836.601563 11.972656 L 836.875 12.0625 L 837.148438 12.246094 L 837.421875 12.519531 L 837.695313 12.882813 L 837.972656 13.335938 L 838.246094 13.871094 L 838.519531 14.496094 L 838.792969 15.199219 L 839.066406 15.984375 L 839.339844 16.84375 L 839.613281 17.773438 L 839.886719 18.773438 L 840.433594 20.964844 L 840.707031 22.144531 L 840.984375 23.378906 L 841.53125 25.976563 L 842.625 31.5625 L 844.816406 43.042969 L 845.070313 44.308594 L 845.328125 45.542969 L 845.835938 47.898438 L 846.09375 49.015625 L 846.347656 50.082031 L 846.859375 52.066406 L 847.113281 52.976563 L 847.371094 53.824219 L 847.625 54.605469 L 847.878906 55.328125 L 848.136719 55.980469 L 848.390625 56.5625 L 848.648438 57.070313 L 848.902344 57.507813 L 849.15625 57.871094 L 849.414063 58.15625 L 849.667969 58.367188 L 849.925781 58.5 L 850.179688 58.554688 L 850.433594 58.535156 L 850.691406 58.433594 L 850.945313 58.257813 L 851.199219 58.003906 L 851.457031 57.679688 L 851.710938 57.277344 L 851.96875 56.804688 L 852.222656 56.261719 L 852.476563 55.648438 L 852.734375 54.96875 L 852.988281 54.226563 L 853.246094 53.421875 L 853.5 52.558594 L 854.011719 50.671875 L 854.265625 49.65625 L 854.523438 48.59375 L 855.03125 46.347656 L 855.289063 45.171875 L 855.542969 43.964844 L 856.054688 41.484375 L 857.074219 36.355469 L 857.332031 35.066406 L 857.585938 33.78125 L 858.097656 31.242188 L 858.351563 30 L 858.609375 28.777344 L 859.117188 26.417969 L 859.375 25.289063 L 859.628906 24.199219 L 860.140625 22.144531 L 860.394531 21.1875 L 860.652344 20.28125 L 861.164063 18.640625 L 861.4375 17.847656 L 861.714844 17.132813 L 861.992188 16.488281 L 862.269531 15.925781 L 862.546875 15.441406 L 862.824219 15.042969 L 863.101563 14.722656 L 863.378906 14.492188 L 863.65625 14.34375 L 863.929688 14.28125 L 864.207031 14.304688 L 864.484375 14.414063 L 864.761719 14.605469 L 865.039063 14.882813 L 865.316406 15.242188 L 865.59375 15.679688 L 865.871094 16.195313 L 866.148438 16.789063 L 866.425781 17.453125 L 866.699219 18.191406 L 866.976563 18.996094 L 867.253906 19.863281 L 867.808594 21.773438 L 868.085938 22.808594 L 868.363281 23.890625 L 868.917969 26.183594 L 870.023438 31.125 L 870.300781 32.410156 L 870.578125 33.699219 L 871.132813 36.285156 L 872.238281 41.328125 L 872.515625 42.535156 L 872.792969 43.707031 L 873.347656 45.9375 L 873.625 46.988281 L 873.902344 47.988281 L 874.457031 49.824219 L 874.730469 50.65625 L 875.007813 51.425781 L 875.285156 52.125 L 875.5625 52.757813 L 875.839844 53.320313 L 876.117188 53.8125 L 876.394531 54.226563 L 876.671875 54.566406 L 876.949219 54.828125 L 877.226563 55.015625 L 877.5 55.125 L 877.777344 55.152344 L 878.054688 55.105469 L 878.332031 54.980469 L 878.609375 54.78125 L 878.886719 54.503906 L 879.144531 54.179688 L 879.402344 53.792969 L 879.664063 53.34375 L 879.921875 52.835938 L 880.179688 52.273438 L 880.4375 51.652344 L 880.953125 50.257813 L 881.214844 49.488281 L 881.472656 48.675781 L 881.988281 46.925781 L 883.023438 43.039063 L 883.28125 42.003906 L 883.539063 40.957031 L 884.058594 38.820313 L 885.089844 34.515625 L 885.351563 33.453125 L 885.609375 32.40625 L 886.125 30.363281 L 887.160156 26.585938 L 887.417969 25.726563 L 887.675781 24.902344 L 887.9375 24.125 L 888.195313 23.390625 L 888.453125 22.703125 L 888.710938 22.0625 L 888.96875 21.476563 L 889.230469 20.9375 L 889.488281 20.457031 L 889.746094 20.03125 L 890.003906 19.664063 L 890.261719 19.351563 L 890.519531 19.101563 L 890.78125 18.910156 L 891.039063 18.773438 L 891.296875 18.703125 L 891.554688 18.6875 L 891.8125 18.730469 L 892.074219 18.835938 L 892.332031 18.996094 L 892.589844 19.214844 L 892.847656 19.492188 L 893.105469 19.820313 L 893.367188 20.203125 L 893.625 20.640625 L 893.882813 21.125 L 894.140625 21.65625 L 894.398438 22.234375 L 894.65625 22.855469 L 894.917969 23.515625 L 895.433594 24.953125 L 895.6875 25.703125 L 895.941406 26.484375 L 896.449219 28.125 L 897.460938 31.617188 L 897.714844 32.515625 L 897.96875 33.421875 L 898.476563 35.230469 L 899.488281 38.777344 L 899.742188 39.628906 L 899.996094 40.464844 L 900.503906 42.0625 L 900.757813 42.824219 L 901.011719 43.554688 L 901.515625 44.921875 L 901.769531 45.550781 L 902.023438 46.144531 L 902.277344 46.699219 L 902.53125 47.210938 L 902.785156 47.683594 L 903.039063 48.109375 L 903.292969 48.492188 L 903.542969 48.828125 L 903.796875 49.117188 L 904.050781 49.359375 L 904.304688 49.554688 L 904.558594 49.699219 L 904.8125 49.800781 L 905.066406 49.851563 L 905.320313 49.851563 L 905.574219 49.808594 L 905.824219 49.714844 L 906.078125 49.578125 L 906.332031 49.394531 L 906.585938 49.167969 L 906.839844 48.894531 L 907.09375 48.582031 L 907.347656 48.226563 L 907.601563 47.835938 L 907.855469 47.402344 L 908.105469 46.9375 L 908.613281 45.90625 L 908.867188 45.34375 L 909.121094 44.753906 L 909.628906 43.5 L 909.882813 42.84375 L 910.136719 42.167969 L 910.640625 40.769531 L 911.65625 37.863281 L 911.929688 37.070313 L 912.207031 36.273438 L 912.753906 34.707031 L 913.03125 33.941406 L 913.304688 33.191406 L 913.855469 31.742188 L 914.128906 31.050781 L 914.40625 30.386719 L 914.679688 29.75 L 914.957031 29.144531 L 915.230469 28.570313 L 915.503906 28.03125 L 915.78125 27.527344 L 916.054688 27.0625 L 916.332031 26.636719 L 916.605469 26.253906 L 916.878906 25.910156 L 917.15625 25.609375 L 917.429688 25.355469 L 917.707031 25.144531 L 917.980469 24.976563 L 918.253906 24.851563 L 918.53125 24.773438 L 918.804688 24.738281 L 919.082031 24.75 L 919.355469 24.800781 L 919.628906 24.898438 L 919.90625 25.035156 L 920.179688 25.214844 L 920.457031 25.429688 L 920.730469 25.6875 L 921.003906 25.980469 L 921.28125 26.308594 L 921.554688 26.667969 L 921.832031 27.0625 L 922.105469 27.480469 L 922.65625 28.40625 L 922.929688 28.902344 L 923.207031 29.417969 L 923.753906 30.503906 L 924.855469 32.8125 L 925.128906 33.402344 L 925.40625 33.996094 L 925.957031 35.167969 L 926.230469 35.75 L 926.503906 36.320313 L 927.054688 37.421875 L 927.332031 37.953125 L 927.605469 38.46875 L 928.15625 39.433594 L 928.429688 39.882813 L 928.707031 40.3125 L 929.253906 41.085938 L 929.511719 41.410156 L 929.769531 41.707031 L 930.027344 41.980469 L 930.28125 42.226563 L 930.539063 42.445313 L 930.796875 42.636719 L 931.050781 42.800781 L 931.308594 42.9375 L 931.566406 43.046875 L 931.820313 43.128906 L 932.078125 43.183594 L 932.335938 43.207031 L 932.589844 43.207031 L 932.847656 43.179688 L 933.105469 43.125 L 933.363281 43.046875 L 933.617188 42.941406 L 933.875 42.816406 L 934.132813 42.664063 L 934.386719 42.492188 L 934.644531 42.296875 L 934.902344 42.085938 L 935.414063 41.601563 L 935.671875 41.335938 L 935.925781 41.054688 L 936.441406 40.453125 L 937.46875 39.132813 L 937.722656 38.785156 L 937.980469 38.4375 L 938.492188 37.730469 L 939.519531 36.335938 L 939.777344 35.996094 L 940.035156 35.664063 L 940.546875 35.03125 L 940.804688 34.726563 L 941.058594 34.433594 L 941.574219 33.886719 L 941.828125 33.632813 L 942.085938 33.394531 L 942.34375 33.171875 L 942.597656 32.960938 L 942.855469 32.769531 L 943.113281 32.59375 L 943.371094 32.433594 L 943.625 32.292969 L 943.882813 32.167969 L 944.140625 32.058594 L 944.394531 31.96875 L 944.652344 31.894531 L 944.910156 31.835938 L 945.164063 31.796875 L 945.421875 31.773438 L 945.679688 31.765625 L 945.964844 31.777344 L 946.25 31.804688 L 946.539063 31.851563 L 946.824219 31.917969 L 947.109375 32 L 947.398438 32.09375 L 947.683594 32.203125 L 947.96875 32.328125 L 948.257813 32.464844 L 948.542969 32.609375 L 949.117188 32.929688 L 950.261719 33.640625 L 950.546875 33.824219 L 950.835938 34.011719 L 951.40625 34.378906 L 951.695313 34.558594 L 951.980469 34.734375 L 952.554688 35.070313 L 952.839844 35.230469 L 953.125 35.378906 L 953.414063 35.519531 L 953.699219 35.652344 L 953.984375 35.773438 L 954.273438 35.882813 L 954.558594 35.984375 L 954.84375 36.074219 L 955.132813 36.152344 L 955.417969 36.21875 L 955.703125 36.269531 L 955.992188 36.3125 L 956.277344 36.34375 L 956.5625 36.363281 L 956.851563 36.371094 L 957.136719 36.371094 L 957.421875 36.359375 L 957.710938 36.335938 L 957.996094 36.304688 L 958.28125 36.261719 L 958.570313 36.214844 L 958.855469 36.160156 L 959.140625 36.101563 L 959.429688 36.035156 L 959.714844 35.964844 L 960 35.890625 L 960.574219 35.734375 L 960.859375 35.65625 L 961.148438 35.578125 L 961.71875 35.429688 L 962.007813 35.359375 L 962.292969 35.292969 L 962.578125 35.234375 L 962.867188 35.179688 L 963.152344 35.132813 L 963.4375 35.089844 L 963.726563 35.0625 L 964.011719 35.039063 " transform="matrix(1,0,0,1,-112,-9)"/>
</g>
</svg>
