<?xml version="1.0" encoding="UTF-8"?>
<svg xmlns="http://www.w3.org/2000/svg" xmlns:xlink="http://www.w3.org/1999/xlink" width="870pt" height="54pt" viewBox="0 0 870 54" version="1.1">
<g id="surface16">
<path style="fill:none;stroke-width:2.72;stroke-linecap:square;stroke-linejoin:miter;stroke:rgb(36.84082%,50.67749%,70.979309%);stroke-opacity:1;stroke-miterlimit:3.25;" d="M 129.386719 59.203125 L 129.644531 59.414063 L 129.898438 59.574219 L 130.15625 59.679688 L 130.410156 59.726563 L 130.667969 59.71875 L 130.925781 59.652344 L 131.179688 59.535156 L 131.4375 59.359375 L 131.691406 59.125 L 131.949219 58.839844 L 132.203125 58.5 L 132.460938 58.109375 L 132.714844 57.664063 L 132.972656 57.167969 L 133.226563 56.621094 L 133.484375 56.023438 L 133.738281 55.382813 L 133.996094 54.695313 L 134.507813 53.183594 L 134.761719 52.367188 L 135.019531 51.515625 L 135.53125 49.695313 L 135.789063 48.734375 L 136.042969 47.746094 L 136.554688 45.683594 L 137.578125 41.300781 L 137.835938 40.164063 L 138.089844 39.019531 L 138.601563 36.710938 L 139.628906 32.078125 L 139.882813 30.9375 L 140.140625 29.804688 L 140.652344 27.585938 L 141.675781 23.394531 L 141.929688 22.410156 L 142.1875 21.460938 L 142.699219 19.660156 L 142.953125 18.8125 L 143.210938 18.007813 L 143.722656 16.523438 L 143.980469 15.84375 L 144.234375 15.214844 L 144.492188 14.632813 L 144.746094 14.097656 L 145.003906 13.617188 L 145.257813 13.183594 L 145.515625 12.804688 L 145.769531 12.480469 L 146.046875 12.1875 L 146.324219 11.960938 L 146.601563 11.796875 L 146.878906 11.699219 L 147.15625 11.671875 L 147.4375 11.703125 L 147.714844 11.804688 L 147.992188 11.972656 L 148.269531 12.203125 L 148.546875 12.5 L 148.824219 12.859375 L 149.101563 13.28125 L 149.378906 13.761719 L 149.65625 14.308594 L 149.933594 14.910156 L 150.210938 15.570313 L 150.488281 16.28125 L 150.765625 17.050781 L 151.320313 18.738281 L 151.597656 19.652344 L 151.875 20.609375 L 152.429688 22.648438 L 152.707031 23.722656 L 152.984375 24.828125 L 153.539063 27.128906 L 154.652344 31.984375 L 154.929688 33.230469 L 155.207031 34.484375 L 155.761719 37 L 156.871094 41.960938 L 157.148438 43.167969 L 157.425781 44.355469 L 157.980469 46.648438 L 159.089844 50.859375 L 159.367188 51.8125 L 159.644531 52.726563 L 159.921875 53.589844 L 160.199219 54.40625 L 160.476563 55.167969 L 160.757813 55.878906 L 161.035156 56.535156 L 161.3125 57.132813 L 161.589844 57.671875 L 161.867188 58.152344 L 162.144531 58.570313 L 162.421875 58.921875 L 162.699219 59.214844 L 162.976563 59.441406 L 163.253906 59.601563 L 163.53125 59.699219 L 163.789063 59.730469 L 164.050781 59.703125 L 164.308594 59.617188 L 164.566406 59.476563 L 164.828125 59.277344 L 165.085938 59.023438 L 165.34375 58.714844 L 165.605469 58.347656 L 165.863281 57.925781 L 166.121094 57.453125 L 166.382813 56.929688 L 166.640625 56.355469 L 166.898438 55.730469 L 167.160156 55.054688 L 167.675781 53.574219 L 167.9375 52.765625 L 168.195313 51.917969 L 168.714844 50.109375 L 169.75 46.097656 L 170.007813 45.027344 L 170.269531 43.933594 L 170.785156 41.691406 L 171.824219 37.054688 L 172.339844 34.703125 L 172.859375 32.367188 L 173.894531 27.804688 L 174.15625 26.703125 L 174.414063 25.625 L 174.933594 23.542969 L 175.96875 19.746094 L 176.226563 18.886719 L 176.488281 18.070313 L 176.746094 17.292969 L 177.003906 16.558594 L 177.265625 15.871094 L 177.523438 15.230469 L 177.78125 14.640625 L 178.042969 14.101563 L 178.300781 13.613281 L 178.558594 13.175781 L 178.820313 12.792969 L 179.078125 12.464844 L 179.335938 12.195313 L 179.597656 11.976563 L 179.855469 11.820313 L 180.113281 11.71875 L 180.367188 11.671875 L 180.621094 11.683594 L 180.875 11.75 L 181.128906 11.871094 L 181.386719 12.046875 L 181.640625 12.277344 L 181.894531 12.5625 L 182.148438 12.898438 L 182.402344 13.289063 L 182.65625 13.730469 L 182.910156 14.21875 L 183.164063 14.761719 L 183.417969 15.351563 L 183.671875 15.984375 L 184.179688 17.390625 L 184.433594 18.160156 L 184.6875 18.964844 L 185.195313 20.695313 L 186.210938 24.546875 L 186.464844 25.578125 L 186.71875 26.632813 L 187.226563 28.804688 L 188.242188 33.320313 L 188.496094 34.46875 L 188.75 35.621094 L 189.261719 37.921875 L 190.277344 42.441406 L 190.53125 43.539063 L 190.785156 44.617188 L 191.292969 46.710938 L 192.308594 50.582031 L 192.5625 51.46875 L 192.816406 52.320313 L 193.070313 53.132813 L 193.324219 53.902344 L 193.578125 54.636719 L 193.832031 55.320313 L 194.339844 56.558594 L 194.59375 57.109375 L 194.847656 57.605469 L 195.101563 58.054688 L 195.355469 58.449219 L 195.609375 58.796875 L 195.863281 59.085938 L 196.117188 59.324219 L 196.371094 59.507813 L 196.648438 59.644531 L 196.925781 59.71875 L 197.199219 59.726563 L 197.476563 59.667969 L 197.75 59.546875 L 198.027344 59.359375 L 198.300781 59.109375 L 198.578125 58.792969 L 198.851563 58.417969 L 199.128906 57.980469 L 199.402344 57.480469 L 199.679688 56.925781 L 199.957031 56.308594 L 200.230469 55.640625 L 200.78125 54.140625 L 201.058594 53.3125 L 201.332031 52.441406 L 201.882813 50.5625 L 202.988281 46.339844 L 203.261719 45.207031 L 203.539063 44.046875 L 204.089844 41.660156 L 205.191406 36.726563 L 205.464844 35.476563 L 205.742188 34.226563 L 206.292969 31.746094 L 207.394531 26.9375 L 207.671875 25.785156 L 207.945313 24.660156 L 208.496094 22.503906 L 208.773438 21.480469 L 209.050781 20.492188 L 209.601563 18.640625 L 209.875 17.785156 L 210.152344 16.976563 L 210.425781 16.21875 L 210.703125 15.515625 L 210.976563 14.863281 L 211.253906 14.269531 L 211.527344 13.734375 L 211.804688 13.257813 L 212.082031 12.839844 L 212.355469 12.488281 L 212.632813 12.195313 L 212.90625 11.96875 L 213.183594 11.804688 L 213.457031 11.703125 L 213.734375 11.671875 L 214.007813 11.699219 L 214.265625 11.789063 L 214.523438 11.929688 L 214.78125 12.128906 L 215.039063 12.386719 L 215.296875 12.695313 L 215.550781 13.058594 L 215.808594 13.476563 L 216.066406 13.945313 L 216.324219 14.46875 L 216.582031 15.039063 L 216.839844 15.65625 L 217.09375 16.324219 L 217.351563 17.035156 L 217.609375 17.792969 L 218.125 19.429688 L 218.382813 20.308594 L 218.636719 21.21875 L 219.152344 23.148438 L 220.179688 27.335938 L 222.238281 36.488281 L 222.496094 37.652344 L 222.753906 38.808594 L 223.269531 41.105469 L 224.296875 45.519531 L 224.554688 46.574219 L 224.8125 47.597656 L 225.324219 49.566406 L 225.582031 50.503906 L 225.839844 51.402344 L 226.355469 53.09375 L 226.609375 53.875 L 226.867188 54.617188 L 227.125 55.3125 L 227.382813 55.964844 L 227.640625 56.566406 L 227.898438 57.121094 L 228.152344 57.625 L 228.410156 58.074219 L 228.667969 58.472656 L 228.925781 58.820313 L 229.183594 59.109375 L 229.441406 59.34375 L 229.695313 59.523438 L 229.953125 59.648438 L 230.210938 59.714844 L 230.46875 59.726563 L 230.746094 59.675781 L 231.027344 59.558594 L 231.304688 59.371094 L 231.582031 59.121094 L 231.863281 58.808594 L 232.140625 58.429688 L 232.417969 57.988281 L 232.699219 57.484375 L 232.976563 56.921875 L 233.253906 56.300781 L 233.535156 55.621094 L 233.8125 54.886719 L 234.089844 54.101563 L 234.371094 53.261719 L 234.929688 51.441406 L 235.207031 50.464844 L 235.484375 49.449219 L 236.042969 47.304688 L 237.15625 42.652344 L 239.386719 32.652344 L 239.664063 31.402344 L 239.945313 30.167969 L 240.503906 27.742188 L 240.78125 26.5625 L 241.058594 25.40625 L 241.617188 23.183594 L 241.894531 22.121094 L 242.175781 21.097656 L 242.730469 19.175781 L 243.011719 18.28125 L 243.289063 17.433594 L 243.847656 15.894531 L 244.125 15.207031 L 244.402344 14.578125 L 244.683594 14.003906 L 244.960938 13.492188 L 245.238281 13.039063 L 245.519531 12.648438 L 245.796875 12.324219 L 246.078125 12.0625 L 246.355469 11.867188 L 246.632813 11.738281 L 246.914063 11.675781 L 247.191406 11.679688 L 247.46875 11.75 L 247.75 11.886719 L 248.027344 12.089844 L 248.304688 12.355469 L 248.578125 12.679688 L 248.851563 13.066406 L 249.125 13.515625 L 249.402344 14.019531 L 249.675781 14.582031 L 249.949219 15.203125 L 250.496094 16.605469 L 250.769531 17.382813 L 251.042969 18.210938 L 251.589844 20.003906 L 251.863281 20.964844 L 252.136719 21.964844 L 252.683594 24.070313 L 252.957031 25.171875 L 253.230469 26.300781 L 253.777344 28.628906 L 254.871094 33.488281 L 257.0625 43.28125 L 257.335938 44.445313 L 257.609375 45.589844 L 258.15625 47.796875 L 258.429688 48.851563 L 258.703125 49.871094 L 259.25 51.796875 L 259.523438 52.695313 L 259.796875 53.550781 L 260.070313 54.355469 L 260.34375 55.113281 L 260.617188 55.820313 L 260.894531 56.46875 L 261.167969 57.066406 L 261.441406 57.605469 L 261.714844 58.085938 L 261.988281 58.507813 L 262.261719 58.867188 L 262.535156 59.164063 L 262.808594 59.402344 L 263.082031 59.574219 L 263.355469 59.683594 L 263.628906 59.730469 L 263.902344 59.710938 L 264.175781 59.625 L 264.449219 59.480469 L 264.722656 59.269531 L 264.996094 58.996094 L 265.269531 58.664063 L 265.542969 58.265625 L 265.816406 57.808594 L 266.074219 57.332031 L 266.328125 56.800781 L 266.582031 56.222656 L 266.839844 55.597656 L 267.09375 54.925781 L 267.347656 54.210938 L 267.859375 52.652344 L 268.113281 51.8125 L 268.371094 50.933594 L 268.878906 49.078125 L 269.902344 45.007813 L 270.15625 43.929688 L 270.414063 42.832031 L 270.921875 40.59375 L 271.945313 35.996094 L 273.984375 26.945313 L 274.242188 25.878906 L 274.496094 24.832031 L 275.007813 22.820313 L 275.261719 21.859375 L 275.515625 20.929688 L 276.027344 19.175781 L 276.28125 18.355469 L 276.539063 17.574219 L 276.792969 16.835938 L 277.046875 16.140625 L 277.304688 15.492188 L 277.558594 14.890625 L 277.8125 14.335938 L 278.070313 13.828125 L 278.324219 13.375 L 278.578125 12.972656 L 278.835938 12.625 L 279.089844 12.328125 L 279.34375 12.085938 L 279.601563 11.898438 L 279.855469 11.765625 L 280.109375 11.691406 L 280.367188 11.671875 L 280.621094 11.707031 L 280.875 11.796875 L 281.132813 11.941406 L 281.386719 12.144531 L 281.640625 12.398438 L 281.898438 12.710938 L 282.152344 13.074219 L 282.429688 13.527344 L 282.707031 14.039063 L 282.984375 14.613281 L 283.261719 15.242188 L 283.535156 15.929688 L 283.8125 16.667969 L 284.367188 18.304688 L 284.644531 19.191406 L 284.921875 20.125 L 285.472656 22.117188 L 286.582031 26.527344 L 286.859375 27.699219 L 287.136719 28.890625 L 287.6875 31.332031 L 288.796875 36.328125 L 289.070313 37.582031 L 289.347656 38.828125 L 289.902344 41.296875 L 291.007813 46.019531 L 291.285156 47.140625 L 291.5625 48.226563 L 292.117188 50.296875 L 292.394531 51.273438 L 292.671875 52.207031 L 293.222656 53.9375 L 293.5 54.730469 L 293.777344 55.46875 L 294.054688 56.15625 L 294.332031 56.785156 L 294.609375 57.359375 L 294.882813 57.875 L 295.160156 58.328125 L 295.4375 58.71875 L 295.714844 59.046875 L 295.992188 59.3125 L 296.269531 59.511719 L 296.542969 59.648438 L 296.820313 59.71875 L 297.097656 59.722656 L 297.375 59.664063 L 297.652344 59.539063 L 297.929688 59.347656 L 298.207031 59.089844 L 298.480469 58.773438 L 298.757813 58.390625 L 299.035156 57.945313 L 299.3125 57.441406 L 299.589844 56.878906 L 299.867188 56.253906 L 300.125 55.625 L 300.382813 54.945313 L 300.898438 53.453125 L 301.15625 52.644531 L 301.417969 51.792969 L 301.933594 49.980469 L 302.191406 49.019531 L 302.449219 48.03125 L 302.964844 45.964844 L 304 41.558594 L 304.257813 40.414063 L 304.515625 39.261719 L 305.035156 36.929688 L 306.066406 32.257813 L 306.324219 31.101563 L 306.582031 29.957031 L 307.101563 27.710938 L 308.132813 23.472656 L 308.390625 22.476563 L 308.652344 21.515625 L 309.167969 19.695313 L 309.425781 18.839844 L 309.683594 18.027344 L 310.203125 16.523438 L 310.460938 15.839844 L 310.71875 15.207031 L 310.976563 14.617188 L 311.234375 14.082031 L 311.492188 13.597656 L 311.75 13.164063 L 312.011719 12.78125 L 312.269531 12.457031 L 312.527344 12.1875 L 312.785156 11.972656 L 313.042969 11.816406 L 313.300781 11.714844 L 313.558594 11.671875 L 313.820313 11.683594 L 314.078125 11.753906 L 314.335938 11.882813 L 314.59375 12.066406 L 314.851563 12.308594 L 315.109375 12.601563 L 315.367188 12.953125 L 315.628906 13.359375 L 315.886719 13.816406 L 316.144531 14.324219 L 316.402344 14.886719 L 316.65625 15.484375 L 316.910156 16.128906 L 317.414063 17.546875 L 317.667969 18.320313 L 317.921875 19.132813 L 318.429688 20.871094 L 318.683594 21.789063 L 318.933594 22.742188 L 319.441406 24.734375 L 320.453125 28.996094 L 320.707031 30.105469 L 320.960938 31.230469 L 321.46875 33.503906 L 322.480469 38.089844 L 322.734375 39.230469 L 322.988281 40.363281 L 323.496094 42.59375 L 324.507813 46.839844 L 324.761719 47.84375 L 325.015625 48.824219 L 325.519531 50.683594 L 325.773438 51.566406 L 326.027344 52.410156 L 326.535156 53.980469 L 326.789063 54.707031 L 327.039063 55.386719 L 327.292969 56.023438 L 327.546875 56.613281 L 327.800781 57.152344 L 328.054688 57.644531 L 328.308594 58.089844 L 328.558594 58.480469 L 328.8125 58.820313 L 329.066406 59.105469 L 329.320313 59.339844 L 329.574219 59.519531 L 329.828125 59.644531 L 330.082031 59.714844 L 330.332031 59.730469 L 330.585938 59.6875 L 330.839844 59.59375 L 331.09375 59.445313 L 331.347656 59.242188 L 331.601563 58.984375 L 331.851563 58.675781 L 332.105469 58.3125 L 332.359375 57.898438 L 332.613281 57.433594 L 332.886719 56.871094 L 333.164063 56.253906 L 333.4375 55.582031 L 333.710938 54.855469 L 333.988281 54.078125 L 334.261719 53.25 L 334.8125 51.457031 L 335.085938 50.492188 L 335.359375 49.492188 L 335.910156 47.378906 L 337.011719 42.804688 L 337.285156 41.605469 L 337.558594 40.390625 L 338.109375 37.925781 L 339.207031 32.949219 L 339.484375 31.714844 L 339.757813 30.492188 L 340.308594 28.089844 L 341.40625 23.558594 L 341.683594 22.5 L 341.957031 21.476563 L 342.507813 19.550781 L 342.78125 18.648438 L 343.054688 17.792969 L 343.605469 16.230469 L 343.882813 15.527344 L 344.15625 14.875 L 344.429688 14.285156 L 344.707031 13.746094 L 344.980469 13.269531 L 345.253906 12.851563 L 345.53125 12.496094 L 345.804688 12.203125 L 346.078125 11.976563 L 346.355469 11.808594 L 346.628906 11.707031 L 346.902344 11.671875 L 347.179688 11.699219 L 347.453125 11.789063 L 347.726563 11.945313 L 348.003906 12.164063 L 348.277344 12.449219 L 348.554688 12.796875 L 348.828125 13.203125 L 349.101563 13.671875 L 349.378906 14.199219 L 349.652344 14.78125 L 349.925781 15.425781 L 350.203125 16.121094 L 350.457031 16.816406 L 350.714844 17.558594 L 351.226563 19.164063 L 351.484375 20.027344 L 351.742188 20.929688 L 352.253906 22.828125 L 352.511719 23.824219 L 352.765625 24.847656 L 353.277344 26.972656 L 354.304688 31.441406 L 354.5625 32.589844 L 354.816406 33.746094 L 355.332031 36.070313 L 356.355469 40.6875 L 356.613281 41.816406 L 356.871094 42.933594 L 357.382813 45.113281 L 358.40625 49.191406 L 358.664063 50.136719 L 358.921875 51.050781 L 359.433594 52.765625 L 359.691406 53.5625 L 359.945313 54.320313 L 360.460938 55.699219 L 360.714844 56.320313 L 360.972656 56.894531 L 361.230469 57.417969 L 361.484375 57.890625 L 361.742188 58.308594 L 361.996094 58.675781 L 362.253906 58.988281 L 362.511719 59.25 L 362.765625 59.453125 L 363.023438 59.601563 L 363.28125 59.691406 L 363.535156 59.730469 L 363.792969 59.710938 L 364.050781 59.632813 L 364.304688 59.5 L 364.5625 59.3125 L 364.820313 59.070313 L 365.074219 58.769531 L 365.332031 58.417969 L 365.589844 58.011719 L 365.84375 57.554688 L 366.101563 57.046875 L 366.355469 56.488281 L 366.613281 55.878906 L 366.890625 55.167969 L 367.167969 54.402344 L 367.726563 52.722656 L 368.003906 51.808594 L 368.28125 50.851563 L 368.835938 48.816406 L 369.117188 47.742188 L 369.394531 46.632813 L 369.949219 44.332031 L 371.0625 39.472656 L 371.339844 38.222656 L 371.617188 36.96875 L 372.171875 34.449219 L 373.285156 29.476563 L 373.5625 28.269531 L 373.839844 27.082031 L 374.398438 24.777344 L 375.507813 20.558594 L 375.785156 19.601563 L 376.066406 18.6875 L 376.34375 17.824219 L 376.621094 17.003906 L 376.898438 16.238281 L 377.175781 15.527344 L 377.453125 14.871094 L 377.730469 14.269531 L 378.011719 13.730469 L 378.289063 13.25 L 378.566406 12.832031 L 378.84375 12.476563 L 379.121094 12.183594 L 379.398438 11.957031 L 379.679688 11.796875 L 379.957031 11.699219 L 380.234375 11.671875 L 380.511719 11.707031 L 380.789063 11.808594 L 381.066406 11.976563 L 381.347656 12.210938 L 381.625 12.507813 L 381.902344 12.871094 L 382.179688 13.292969 L 382.457031 13.78125 L 382.734375 14.324219 L 383.015625 14.929688 L 383.292969 15.59375 L 383.570313 16.3125 L 383.847656 17.082031 L 384.402344 18.777344 L 384.675781 19.675781 L 384.949219 20.617188 L 385.496094 22.621094 L 386.585938 27.023438 L 388.769531 36.71875 L 389.042969 37.953125 L 389.316406 39.183594 L 389.859375 41.609375 L 390.132813 42.800781 L 390.40625 43.972656 L 390.953125 46.25 L 391.226563 47.34375 L 391.5 48.410156 L 392.042969 50.441406 L 392.316406 51.398438 L 392.589844 52.3125 L 393.136719 54.011719 L 393.410156 54.789063 L 393.683594 55.515625 L 393.953125 56.1875 L 394.226563 56.804688 L 394.5 57.371094 L 394.773438 57.875 L 395.046875 58.324219 L 395.320313 58.710938 L 395.59375 59.035156 L 395.863281 59.300781 L 396.136719 59.5 L 396.410156 59.640625 L 396.683594 59.714844 L 396.957031 59.726563 L 397.230469 59.675781 L 397.503906 59.558594 L 397.773438 59.378906 L 398.046875 59.136719 L 398.320313 58.832031 L 398.59375 58.46875 L 398.867188 58.042969 L 399.140625 57.558594 L 399.414063 57.015625 L 399.683594 56.414063 L 399.957031 55.761719 L 400.230469 55.054688 L 400.777344 53.484375 L 401.050781 52.632813 L 401.324219 51.730469 L 401.867188 49.804688 L 402.121094 48.855469 L 402.378906 47.875 L 402.886719 45.832031 L 403.902344 41.484375 L 405.941406 32.320313 L 406.195313 31.183594 L 406.449219 30.054688 L 406.957031 27.839844 L 407.210938 26.761719 L 407.46875 25.699219 L 407.976563 23.652344 L 408.230469 22.667969 L 408.484375 21.710938 L 408.992188 19.902344 L 409.25 19.050781 L 409.503906 18.238281 L 410.011719 16.734375 L 410.265625 16.050781 L 410.519531 15.410156 L 410.777344 14.8125 L 411.03125 14.265625 L 411.285156 13.769531 L 411.539063 13.324219 L 411.792969 12.929688 L 412.046875 12.585938 L 412.300781 12.296875 L 412.558594 12.0625 L 412.8125 11.882813 L 413.066406 11.757813 L 413.320313 11.6875 L 413.574219 11.671875 L 413.828125 11.710938 L 414.082031 11.808594 L 414.339844 11.957031 L 414.59375 12.164063 L 414.847656 12.421875 L 415.101563 12.738281 L 415.355469 13.105469 L 415.609375 13.523438 L 415.867188 13.992188 L 416.121094 14.511719 L 416.375 15.082031 L 416.628906 15.695313 L 417.136719 17.066406 L 417.390625 17.816406 L 417.648438 18.605469 L 418.15625 20.304688 L 418.433594 21.285156 L 418.707031 22.308594 L 419.261719 24.453125 L 420.363281 29.089844 L 420.640625 30.300781 L 420.917969 31.527344 L 421.46875 34.011719 L 422.570313 39.007813 L 422.847656 40.242188 L 423.125 41.464844 L 423.675781 43.859375 L 423.953125 45.023438 L 424.226563 46.164063 L 424.78125 48.359375 L 425.054688 49.402344 L 425.332031 50.414063 L 425.882813 52.308594 L 426.160156 53.191406 L 426.4375 54.023438 L 426.988281 55.542969 L 427.265625 56.222656 L 427.539063 56.84375 L 427.816406 57.410156 L 428.09375 57.917969 L 428.367188 58.363281 L 428.644531 58.75 L 428.921875 59.070313 L 429.195313 59.332031 L 429.472656 59.527344 L 429.75 59.65625 L 430.023438 59.722656 L 430.300781 59.722656 L 430.578125 59.65625 L 430.851563 59.527344 L 431.128906 59.332031 L 431.40625 59.074219 L 431.679688 58.753906 L 431.957031 58.367188 L 432.234375 57.921875 L 432.507813 57.417969 L 432.785156 56.851563 L 433.0625 56.226563 L 433.613281 54.816406 L 433.890625 54.035156 L 434.164063 53.199219 L 434.71875 51.394531 L 434.992188 50.425781 L 435.269531 49.417969 L 435.820313 47.289063 L 436.078125 46.253906 L 436.335938 45.191406 L 436.851563 43.003906 L 437.882813 38.441406 L 438.140625 37.277344 L 438.398438 36.109375 L 438.914063 33.777344 L 439.945313 29.183594 L 440.203125 28.066406 L 440.457031 26.96875 L 440.972656 24.835938 L 441.230469 23.808594 L 441.488281 22.808594 L 442.003906 20.898438 L 442.261719 19.996094 L 442.519531 19.132813 L 442.777344 18.304688 L 443.035156 17.519531 L 443.292969 16.777344 L 443.550781 16.082031 L 444.066406 14.828125 L 444.324219 14.273438 L 444.582031 13.769531 L 444.839844 13.316406 L 445.097656 12.917969 L 445.355469 12.574219 L 445.613281 12.285156 L 445.871094 12.050781 L 446.125 11.871094 L 446.382813 11.75 L 446.640625 11.683594 L 446.898438 11.671875 L 447.15625 11.722656 L 447.414063 11.824219 L 447.671875 11.984375 L 447.929688 12.203125 L 448.1875 12.476563 L 448.445313 12.800781 L 448.703125 13.183594 L 448.960938 13.617188 L 449.21875 14.105469 L 449.476563 14.640625 L 449.734375 15.230469 L 450.25 16.546875 L 450.507813 17.277344 L 450.765625 18.046875 L 451.28125 19.714844 L 452.308594 23.484375 L 452.589844 24.589844 L 452.867188 25.726563 L 453.425781 28.082031 L 454.542969 33.015625 L 454.824219 34.277344 L 455.101563 35.542969 L 455.660156 38.070313 L 456.777344 43.019531 L 457.054688 44.214844 L 457.335938 45.386719 L 457.894531 47.644531 L 458.171875 48.726563 L 458.453125 49.773438 L 459.011719 51.742188 L 459.289063 52.664063 L 459.570313 53.535156 L 459.847656 54.359375 L 460.125 55.128906 L 460.40625 55.847656 L 460.683594 56.507813 L 460.964844 57.113281 L 461.242188 57.65625 L 461.523438 58.140625 L 461.800781 58.5625 L 462.082031 58.921875 L 462.359375 59.214844 L 462.640625 59.441406 L 462.917969 59.605469 L 463.199219 59.699219 L 463.476563 59.730469 L 463.757813 59.691406 L 464.035156 59.589844 L 464.3125 59.417969 L 464.59375 59.183594 L 464.871094 58.882813 L 465.152344 58.515625 L 465.429688 58.085938 L 465.710938 57.597656 L 465.988281 57.046875 L 466.269531 56.433594 L 466.546875 55.765625 L 466.828125 55.042969 L 467.105469 54.265625 L 467.386719 53.433594 L 467.945313 51.632813 L 468.222656 50.664063 L 468.5 49.652344 L 469.058594 47.515625 L 470.175781 42.878906 L 470.449219 41.683594 L 470.726563 40.472656 L 471.273438 38.015625 L 472.371094 33.050781 L 472.644531 31.820313 L 472.917969 30.601563 L 473.464844 28.203125 L 474.5625 23.671875 L 474.835938 22.613281 L 475.109375 21.589844 L 475.660156 19.65625 L 475.933594 18.753906 L 476.207031 17.894531 L 476.753906 16.324219 L 477.027344 15.613281 L 477.304688 14.960938 L 477.578125 14.359375 L 477.851563 13.816406 L 478.125 13.332031 L 478.398438 12.910156 L 478.671875 12.546875 L 478.949219 12.246094 L 479.222656 12.003906 L 479.496094 11.832031 L 479.769531 11.71875 L 480.042969 11.671875 L 480.316406 11.6875 L 480.59375 11.769531 L 480.867188 11.914063 L 481.140625 12.125 L 481.414063 12.394531 L 481.6875 12.730469 L 481.960938 13.125 L 482.238281 13.582031 L 482.511719 14.097656 L 482.785156 14.671875 L 483.058594 15.300781 L 483.332031 15.984375 L 483.605469 16.71875 L 483.882813 17.507813 L 484.429688 19.226563 L 484.703125 20.152344 L 484.976563 21.121094 L 485.527344 23.167969 L 485.800781 24.246094 L 486.074219 25.355469 L 486.621094 27.648438 L 487.71875 32.472656 L 487.972656 33.625 L 488.230469 34.78125 L 488.742188 37.097656 L 489.765625 41.675781 L 490.019531 42.789063 L 490.273438 43.890625 L 490.785156 46.027344 L 491.808594 49.996094 L 492.066406 50.914063 L 492.320313 51.792969 L 492.832031 53.4375 L 493.085938 54.199219 L 493.34375 54.917969 L 493.855469 56.21875 L 494.109375 56.796875 L 494.367188 57.328125 L 494.621094 57.808594 L 494.878906 58.234375 L 495.132813 58.613281 L 495.390625 58.933594 L 495.644531 59.203125 L 495.898438 59.417969 L 496.15625 59.574219 L 496.410156 59.679688 L 496.667969 59.726563 L 496.921875 59.71875 L 497.179688 59.652344 L 497.433594 59.535156 L 497.691406 59.359375 L 497.945313 59.128906 L 498.203125 58.839844 L 498.457031 58.503906 L 498.714844 58.109375 L 498.96875 57.664063 L 499.222656 57.171875 L 499.480469 56.625 L 499.992188 55.390625 L 500.246094 54.703125 L 500.503906 53.96875 L 501.015625 52.382813 L 501.269531 51.527344 L 501.527344 50.636719 L 502.035156 48.753906 L 502.292969 47.765625 L 502.546875 46.75 L 503.058594 44.640625 L 504.082031 40.199219 L 504.359375 38.957031 L 504.636719 37.707031 L 505.191406 35.195313 L 506.300781 30.214844 L 506.578125 29 L 506.855469 27.800781 L 507.410156 25.476563 L 508.519531 21.179688 L 508.796875 20.199219 L 509.074219 19.261719 L 509.351563 18.367188 L 509.628906 17.519531 L 509.902344 16.722656 L 510.179688 15.976563 L 510.457031 15.289063 L 510.734375 14.652344 L 511.011719 14.074219 L 511.289063 13.554688 L 511.566406 13.097656 L 511.84375 12.703125 L 512.121094 12.371094 L 512.398438 12.101563 L 512.675781 11.894531 L 512.953125 11.757813 L 513.230469 11.683594 L 513.507813 11.675781 L 513.785156 11.730469 L 514.0625 11.855469 L 514.339844 12.042969 L 514.617188 12.296875 L 514.894531 12.613281 L 515.171875 12.996094 L 515.449219 13.4375 L 515.726563 13.941406 L 516.003906 14.503906 L 516.28125 15.125 L 516.558594 15.800781 L 516.835938 16.53125 L 517.390625 18.152344 L 517.667969 19.035156 L 517.945313 19.960938 L 518.5 21.945313 L 519.605469 26.335938 L 519.882813 27.507813 L 520.160156 28.699219 L 520.714844 31.136719 L 521.824219 36.140625 L 522.082031 37.3125 L 522.34375 38.480469 L 522.859375 40.796875 L 523.894531 45.257813 L 524.15625 46.320313 L 524.414063 47.363281 L 524.929688 49.355469 L 525.191406 50.304688 L 525.449219 51.21875 L 525.964844 52.933594 L 526.226563 53.730469 L 526.484375 54.484375 L 526.742188 55.195313 L 527 55.859375 L 527.261719 56.472656 L 527.519531 57.039063 L 527.777344 57.550781 L 528.035156 58.011719 L 528.296875 58.421875 L 528.554688 58.777344 L 528.8125 59.078125 L 529.074219 59.320313 L 529.332031 59.507813 L 529.589844 59.640625 L 529.847656 59.710938 L 530.109375 59.730469 L 530.367188 59.6875 L 530.625 59.589844 L 530.882813 59.433594 L 531.144531 59.222656 L 531.402344 58.953125 L 531.660156 58.632813 L 531.917969 58.253906 L 532.179688 57.820313 L 532.4375 57.335938 L 532.695313 56.800781 L 532.953125 56.214844 L 533.214844 55.578125 L 533.472656 54.894531 L 533.730469 54.167969 L 534.25 52.578125 L 534.507813 51.722656 L 534.765625 50.832031 L 535.285156 48.9375 L 536.320313 44.792969 L 538.390625 35.636719 L 538.644531 34.484375 L 538.898438 33.335938 L 539.40625 31.0625 L 540.421875 26.65625 L 540.675781 25.601563 L 540.929688 24.570313 L 541.433594 22.585938 L 541.6875 21.636719 L 541.941406 20.71875 L 542.449219 18.992188 L 542.703125 18.183594 L 542.957031 17.417969 L 543.210938 16.691406 L 543.464844 16.007813 L 543.71875 15.371094 L 543.972656 14.78125 L 544.226563 14.238281 L 544.480469 13.746094 L 544.734375 13.304688 L 544.988281 12.914063 L 545.242188 12.574219 L 545.496094 12.289063 L 545.75 12.054688 L 546.003906 11.878906 L 546.257813 11.753906 L 546.511719 11.683594 L 546.765625 11.671875 L 547.019531 11.714844 L 547.273438 11.808594 L 547.527344 11.960938 L 547.777344 12.167969 L 548.03125 12.425781 L 548.285156 12.738281 L 548.539063 13.105469 L 548.792969 13.523438 L 549.046875 13.992188 L 549.300781 14.507813 L 549.554688 15.074219 L 549.808594 15.6875 L 550.0625 16.347656 L 550.570313 17.800781 L 550.824219 18.585938 L 551.078125 19.414063 L 551.585938 21.179688 L 552.601563 25.089844 L 552.855469 26.132813 L 553.109375 27.199219 L 553.617188 29.386719 L 554.628906 33.917969 L 554.90625 35.164063 L 555.179688 36.414063 L 555.730469 38.898438 L 556.832031 43.746094 L 557.109375 44.910156 L 557.382813 46.050781 L 557.933594 48.242188 L 558.210938 49.289063 L 558.484375 50.300781 L 559.035156 52.203125 L 559.308594 53.085938 L 559.585938 53.925781 L 559.859375 54.710938 L 560.136719 55.449219 L 560.410156 56.132813 L 560.6875 56.761719 L 560.960938 57.335938 L 561.238281 57.847656 L 561.511719 58.304688 L 561.789063 58.695313 L 562.0625 59.027344 L 562.339844 59.296875 L 562.613281 59.5 L 562.890625 59.640625 L 563.164063 59.714844 L 563.441406 59.726563 L 563.714844 59.671875 L 563.988281 59.554688 L 564.265625 59.371094 L 564.539063 59.125 L 564.816406 58.8125 L 565.089844 58.441406 L 565.367188 58.007813 L 565.640625 57.511719 L 565.917969 56.960938 L 566.191406 56.351563 L 566.46875 55.683594 L 566.742188 54.964844 L 567.019531 54.191406 L 567.292969 53.371094 L 567.84375 51.585938 L 568.121094 50.628906 L 568.394531 49.632813 L 568.945313 47.527344 L 570.046875 42.957031 L 572.25 33.089844 L 572.503906 31.933594 L 572.761719 30.789063 L 573.277344 28.535156 L 573.53125 27.433594 L 573.789063 26.347656 L 574.304688 24.25 L 574.5625 23.238281 L 574.816406 22.257813 L 575.332031 20.394531 L 575.589844 19.511719 L 575.84375 18.671875 L 576.359375 17.109375 L 576.617188 16.394531 L 576.871094 15.722656 L 577.128906 15.101563 L 577.386719 14.523438 L 577.644531 14 L 577.898438 13.523438 L 578.15625 13.101563 L 578.414063 12.734375 L 578.671875 12.417969 L 578.929688 12.15625 L 579.183594 11.949219 L 579.441406 11.800781 L 579.699219 11.707031 L 579.957031 11.671875 L 580.210938 11.691406 L 580.46875 11.765625 L 580.726563 11.898438 L 580.984375 12.085938 L 581.238281 12.328125 L 581.496094 12.628906 L 581.753906 12.980469 L 582.011719 13.386719 L 582.265625 13.84375 L 582.523438 14.355469 L 582.78125 14.914063 L 583.039063 15.523438 L 583.550781 16.882813 L 583.808594 17.628906 L 584.066406 18.414063 L 584.578125 20.113281 L 584.835938 21.019531 L 585.09375 21.957031 L 585.605469 23.929688 L 586.636719 28.1875 L 588.691406 37.375 L 588.96875 38.632813 L 589.246094 39.882813 L 589.804688 42.339844 L 590.082031 43.542969 L 590.359375 44.726563 L 590.917969 47.011719 L 591.195313 48.109375 L 591.472656 49.175781 L 592.03125 51.1875 L 592.308594 52.128906 L 592.585938 53.027344 L 593.144531 54.679688 L 593.421875 55.425781 L 593.703125 56.121094 L 593.980469 56.757813 L 594.257813 57.335938 L 594.535156 57.855469 L 594.816406 58.3125 L 595.09375 58.710938 L 595.371094 59.042969 L 595.652344 59.308594 L 595.929688 59.511719 L 596.207031 59.648438 L 596.484375 59.71875 L 596.765625 59.722656 L 597.042969 59.660156 L 597.320313 59.535156 L 597.597656 59.339844 L 597.878906 59.082031 L 598.15625 58.757813 L 598.433594 58.371094 L 598.714844 57.921875 L 598.992188 57.410156 L 599.269531 56.839844 L 599.546875 56.210938 L 599.828125 55.523438 L 600.105469 54.78125 L 600.382813 53.988281 L 600.941406 52.253906 L 601.21875 51.316406 L 601.496094 50.335938 L 602.054688 48.253906 L 602.332031 47.164063 L 602.609375 46.039063 L 603.167969 43.707031 L 604.28125 38.800781 L 606.507813 28.808594 L 606.78125 27.628906 L 607.054688 26.472656 L 607.601563 24.238281 L 607.875 23.164063 L 608.148438 22.125 L 608.695313 20.15625 L 608.96875 19.230469 L 609.242188 18.351563 L 609.515625 17.515625 L 609.789063 16.730469 L 610.0625 15.996094 L 610.335938 15.3125 L 610.609375 14.683594 L 610.882813 14.109375 L 611.15625 13.59375 L 611.429688 13.140625 L 611.703125 12.742188 L 611.976563 12.40625 L 612.25 12.132813 L 612.523438 11.921875 L 612.796875 11.773438 L 613.070313 11.691406 L 613.34375 11.671875 L 613.617188 11.714844 L 613.890625 11.824219 L 614.164063 11.992188 L 614.4375 12.226563 L 614.710938 12.523438 L 614.984375 12.882813 L 615.257813 13.300781 L 615.53125 13.78125 L 615.804688 14.316406 L 616.074219 14.910156 L 616.347656 15.5625 L 616.621094 16.261719 L 616.894531 17.019531 L 617.441406 18.671875 L 617.714844 19.570313 L 617.988281 20.511719 L 618.535156 22.507813 L 619.628906 26.902344 L 619.902344 28.066406 L 620.175781 29.253906 L 620.722656 31.671875 L 621.816406 36.609375 L 622.089844 37.847656 L 622.363281 39.078125 L 622.910156 41.507813 L 624.003906 46.164063 L 624.257813 47.191406 L 624.511719 48.191406 L 625.023438 50.109375 L 625.277344 51.015625 L 625.53125 51.886719 L 626.042969 53.519531 L 626.296875 54.273438 L 626.550781 54.984375 L 626.808594 55.652344 L 627.0625 56.273438 L 627.316406 56.847656 L 627.574219 57.371094 L 627.828125 57.847656 L 628.082031 58.269531 L 628.335938 58.640625 L 628.59375 58.957031 L 628.847656 59.222656 L 629.101563 59.429688 L 629.355469 59.585938 L 629.613281 59.683594 L 629.867188 59.726563 L 630.121094 59.714844 L 630.375 59.648438 L 630.632813 59.523438 L 630.886719 59.347656 L 631.140625 59.113281 L 631.398438 58.828125 L 631.652344 58.488281 L 631.90625 58.09375 L 632.160156 57.648438 L 632.417969 57.152344 L 632.671875 56.605469 L 632.925781 56.011719 L 633.179688 55.371094 L 633.4375 54.6875 L 633.691406 53.957031 L 634.199219 52.371094 L 634.457031 51.519531 L 634.710938 50.628906 L 635.222656 48.75 L 636.242188 44.652344 L 636.496094 43.570313 L 636.75 42.46875 L 637.261719 40.222656 L 638.28125 35.625 L 640.320313 26.605469 L 640.597656 25.460938 L 640.871094 24.339844 L 641.425781 22.195313 L 641.703125 21.179688 L 641.980469 20.199219 L 642.53125 18.371094 L 642.808594 17.527344 L 643.085938 16.730469 L 643.359375 15.988281 L 643.636719 15.296875 L 643.914063 14.664063 L 644.191406 14.085938 L 644.46875 13.566406 L 644.742188 13.109375 L 645.019531 12.714844 L 645.296875 12.378906 L 645.574219 12.109375 L 645.851563 11.902344 L 646.125 11.761719 L 646.402344 11.683594 L 646.679688 11.671875 L 646.957031 11.726563 L 647.230469 11.847656 L 647.507813 12.03125 L 647.785156 12.28125 L 648.0625 12.59375 L 648.339844 12.96875 L 648.613281 13.40625 L 648.890625 13.90625 L 649.167969 14.460938 L 649.445313 15.078125 L 649.71875 15.75 L 649.996094 16.472656 L 650.273438 17.253906 L 650.550781 18.082031 L 650.828125 18.957031 L 651.378906 20.84375 L 651.65625 21.847656 L 651.933594 22.890625 L 652.484375 25.078125 L 653.589844 29.773438 L 653.867188 30.996094 L 654.144531 32.230469 L 654.695313 34.726563 L 655.804688 39.722656 L 656.078125 40.953125 L 656.355469 42.167969 L 656.910156 44.542969 L 658.015625 48.980469 L 658.273438 49.941406 L 658.53125 50.867188 L 659.046875 52.609375 L 659.304688 53.417969 L 659.5625 54.1875 L 660.078125 55.59375 L 660.335938 56.226563 L 660.597656 56.808594 L 660.855469 57.34375 L 661.113281 57.828125 L 661.371094 58.257813 L 661.628906 58.632813 L 661.886719 58.957031 L 662.144531 59.222656 L 662.402344 59.433594 L 662.660156 59.589844 L 662.917969 59.6875 L 663.175781 59.730469 L 663.433594 59.714844 L 663.691406 59.640625 L 663.949219 59.511719 L 664.210938 59.324219 L 664.46875 59.082031 L 664.726563 58.785156 L 664.984375 58.433594 L 665.242188 58.027344 L 665.5 57.570313 L 665.757813 57.058594 L 666.015625 56.496094 L 666.273438 55.886719 L 666.53125 55.226563 L 666.789063 54.523438 L 667.304688 52.980469 L 667.5625 52.148438 L 667.824219 51.277344 L 668.339844 49.421875 L 668.597656 48.445313 L 668.855469 47.4375 L 669.371094 45.34375 L 670.402344 40.902344 L 670.660156 39.753906 L 670.917969 38.59375 L 671.4375 36.261719 L 672.46875 31.597656 L 672.726563 30.453125 L 672.984375 29.316406 L 673.5 27.09375 L 674.53125 22.914063 L 674.785156 21.957031 L 675.039063 21.03125 L 675.546875 19.285156 L 675.796875 18.464844 L 676.050781 17.683594 L 676.558594 16.25 L 676.808594 15.597656 L 677.0625 14.992188 L 677.316406 14.433594 L 677.570313 13.925781 L 677.820313 13.464844 L 678.074219 13.054688 L 678.328125 12.699219 L 678.582031 12.390625 L 678.835938 12.140625 L 679.085938 11.941406 L 679.339844 11.796875 L 679.59375 11.707031 L 679.847656 11.671875 L 680.097656 11.691406 L 680.351563 11.765625 L 680.605469 11.890625 L 680.859375 12.074219 L 681.109375 12.3125 L 681.363281 12.601563 L 681.617188 12.945313 L 681.871094 13.339844 L 682.125 13.785156 L 682.375 14.28125 L 682.628906 14.824219 L 682.882813 15.417969 L 683.136719 16.054688 L 683.640625 17.464844 L 683.894531 18.230469 L 684.148438 19.039063 L 684.652344 20.765625 L 684.90625 21.679688 L 685.160156 22.628906 L 685.664063 24.609375 L 686.675781 28.859375 L 686.929688 29.964844 L 687.183594 31.085938 L 687.691406 33.355469 L 688.703125 37.9375 L 688.953125 39.078125 L 689.207031 40.207031 L 689.714844 42.4375 L 690.726563 46.695313 L 691 47.785156 L 691.273438 48.84375 L 691.824219 50.855469 L 692.097656 51.800781 L 692.371094 52.703125 L 692.921875 54.367188 L 693.195313 55.125 L 693.472656 55.832031 L 693.746094 56.484375 L 694.019531 57.082031 L 694.292969 57.621094 L 694.570313 58.101563 L 694.84375 58.523438 L 695.117188 58.878906 L 695.394531 59.175781 L 695.667969 59.410156 L 695.941406 59.582031 L 696.214844 59.6875 L 696.492188 59.730469 L 696.765625 59.707031 L 697.039063 59.621094 L 697.316406 59.46875 L 697.589844 59.253906 L 697.863281 58.972656 L 698.136719 58.632813 L 698.414063 58.230469 L 698.6875 57.769531 L 698.960938 57.246094 L 699.238281 56.667969 L 699.511719 56.03125 L 699.785156 55.339844 L 700.058594 54.597656 L 700.609375 52.960938 L 700.882813 52.070313 L 701.160156 51.136719 L 701.707031 49.148438 L 701.980469 48.101563 L 702.257813 47.019531 L 702.804688 44.765625 L 703.902344 39.992188 L 704.179688 38.761719 L 704.453125 37.523438 L 705 35.035156 L 706.101563 30.109375 L 706.375 28.90625 L 706.648438 27.71875 L 707.199219 25.417969 L 708.296875 21.167969 L 708.550781 20.261719 L 708.808594 19.390625 L 709.320313 17.761719 L 709.578125 17.011719 L 709.832031 16.304688 L 710.34375 15.023438 L 710.601563 14.457031 L 710.859375 13.9375 L 711.113281 13.472656 L 711.371094 13.058594 L 711.625 12.695313 L 711.882813 12.386719 L 712.136719 12.132813 L 712.394531 11.933594 L 712.652344 11.789063 L 712.90625 11.703125 L 713.164063 11.671875 L 713.417969 11.695313 L 713.675781 11.773438 L 713.933594 11.910156 L 714.1875 12.105469 L 714.445313 12.351563 L 714.699219 12.652344 L 714.957031 13.007813 L 715.210938 13.417969 L 715.46875 13.878906 L 715.726563 14.390625 L 715.980469 14.949219 L 716.492188 16.21875 L 716.75 16.921875 L 717.003906 17.667969 L 717.519531 19.285156 L 717.773438 20.152344 L 718.03125 21.054688 L 718.542969 22.960938 L 718.796875 23.960938 L 719.054688 24.988281 L 719.566406 27.113281 L 720.589844 31.585938 L 720.847656 32.734375 L 721.105469 33.890625 L 721.617188 36.210938 L 722.640625 40.820313 L 722.898438 41.949219 L 723.152344 43.0625 L 723.664063 45.234375 L 724.691406 49.296875 L 724.96875 50.316406 L 725.246094 51.292969 L 725.523438 52.230469 L 725.800781 53.121094 L 726.078125 53.964844 L 726.355469 54.757813 L 726.910156 56.183594 L 727.1875 56.8125 L 727.46875 57.386719 L 727.746094 57.898438 L 728.023438 58.347656 L 728.300781 58.738281 L 728.578125 59.066406 L 728.855469 59.328125 L 729.132813 59.523438 L 729.410156 59.65625 L 729.6875 59.722656 L 729.964844 59.722656 L 730.242188 59.65625 L 730.519531 59.523438 L 730.800781 59.328125 L 731.078125 59.066406 L 731.355469 58.738281 L 731.632813 58.347656 L 731.910156 57.898438 L 732.1875 57.386719 L 732.464844 56.8125 L 732.742188 56.183594 L 733.019531 55.496094 L 733.574219 53.964844 L 733.855469 53.121094 L 734.132813 52.230469 L 734.6875 50.316406 L 735.796875 46.027344 L 736.074219 44.875 L 736.351563 43.699219 L 736.90625 41.285156 L 738.019531 36.300781 L 738.296875 35.039063 L 738.574219 33.785156 L 739.128906 31.289063 L 740.242188 26.46875 L 740.519531 25.320313 L 740.796875 24.199219 L 741.351563 22.054688 L 741.628906 21.039063 L 741.90625 20.0625 L 742.460938 18.238281 L 742.722656 17.453125 L 742.980469 16.707031 L 743.238281 16.011719 L 743.5 15.359375 L 743.757813 14.757813 L 744.015625 14.207031 L 744.277344 13.707031 L 744.535156 13.261719 L 744.796875 12.867188 L 745.054688 12.527344 L 745.3125 12.246094 L 745.574219 12.015625 L 745.832031 11.847656 L 746.09375 11.734375 L 746.351563 11.675781 L 746.609375 11.679688 L 746.871094 11.738281 L 747.128906 11.851563 L 747.386719 12.027344 L 747.648438 12.253906 L 747.90625 12.542969 L 748.167969 12.882813 L 748.425781 13.28125 L 748.683594 13.730469 L 748.945313 14.230469 L 749.203125 14.785156 L 749.460938 15.390625 L 749.722656 16.042969 L 749.980469 16.742188 L 750.242188 17.484375 L 750.757813 19.105469 L 751.019531 19.972656 L 751.277344 20.882813 L 751.796875 22.800781 L 752.832031 26.988281 L 754.90625 36.191406 L 755.167969 37.367188 L 755.425781 38.539063 L 755.945313 40.855469 L 756.980469 45.320313 L 757.242188 46.386719 L 757.5 47.425781 L 758.019531 49.421875 L 758.277344 50.371094 L 758.539063 51.28125 L 759.054688 52.996094 L 759.3125 53.773438 L 759.566406 54.515625 L 759.820313 55.210938 L 760.074219 55.859375 L 760.328125 56.464844 L 760.582031 57.019531 L 760.835938 57.527344 L 761.089844 57.984375 L 761.34375 58.390625 L 761.597656 58.742188 L 761.851563 59.042969 L 762.105469 59.289063 L 762.363281 59.480469 L 762.617188 59.621094 L 762.871094 59.703125 L 763.125 59.730469 L 763.378906 59.703125 L 763.632813 59.617188 L 763.886719 59.480469 L 764.140625 59.289063 L 764.394531 59.042969 L 764.648438 58.742188 L 764.902344 58.386719 L 765.15625 57.980469 L 765.410156 57.523438 L 765.667969 57.015625 L 765.921875 56.460938 L 766.175781 55.855469 L 766.429688 55.203125 L 766.683594 54.507813 L 767.191406 52.988281 L 767.445313 52.167969 L 767.699219 51.3125 L 768.207031 49.488281 L 769.226563 45.484375 L 771.257813 36.554688 L 771.765625 34.25 L 772.277344 31.957031 L 773.292969 27.5 L 773.546875 26.425781 L 773.800781 25.375 L 774.308594 23.34375 L 774.5625 22.367188 L 774.816406 21.425781 L 775.324219 19.640625 L 775.601563 18.730469 L 775.878906 17.871094 L 776.152344 17.054688 L 776.429688 16.292969 L 776.703125 15.582031 L 776.980469 14.925781 L 777.257813 14.324219 L 777.53125 13.78125 L 777.808594 13.300781 L 778.082031 12.878906 L 778.359375 12.519531 L 778.636719 12.21875 L 778.910156 11.984375 L 779.1875 11.816406 L 779.460938 11.710938 L 779.738281 11.671875 L 780.015625 11.695313 L 780.289063 11.785156 L 780.566406 11.9375 L 780.839844 12.15625 L 781.117188 12.441406 L 781.390625 12.785156 L 781.667969 13.195313 L 781.945313 13.660156 L 782.21875 14.191406 L 782.496094 14.777344 L 782.769531 15.417969 L 783.046875 16.117188 L 783.324219 16.867188 L 783.597656 17.667969 L 784.148438 19.417969 L 784.425781 20.359375 L 784.703125 21.339844 L 785.253906 23.421875 L 786.355469 27.953125 L 788.5625 37.8125 L 788.835938 39.054688 L 789.113281 40.289063 L 789.664063 42.714844 L 789.941406 43.898438 L 790.214844 45.0625 L 790.769531 47.3125 L 791.042969 48.390625 L 791.320313 49.433594 L 791.871094 51.410156 L 792.144531 52.332031 L 792.421875 53.214844 L 792.972656 54.828125 L 793.230469 55.511719 L 793.488281 56.148438 L 793.746094 56.738281 L 794.003906 57.277344 L 794.261719 57.765625 L 794.519531 58.199219 L 794.773438 58.582031 L 795.03125 58.914063 L 795.289063 59.1875 L 795.546875 59.40625 L 795.804688 59.570313 L 796.0625 59.675781 L 796.320313 59.726563 L 796.578125 59.71875 L 796.832031 59.65625 L 797.089844 59.535156 L 797.347656 59.359375 L 797.605469 59.128906 L 797.863281 58.84375 L 798.121094 58.5 L 798.378906 58.105469 L 798.636719 57.660156 L 798.894531 57.160156 L 799.148438 56.609375 L 799.40625 56.007813 L 799.664063 55.363281 L 800.179688 53.929688 L 800.4375 53.148438 L 800.695313 52.324219 L 801.207031 50.5625 L 801.464844 49.628906 L 801.722656 48.664063 L 802.238281 46.640625 L 803.269531 42.304688 L 805.328125 33.058594 L 805.582031 31.902344 L 805.839844 30.753906 L 806.355469 28.496094 L 806.613281 27.394531 L 806.871094 26.308594 L 807.386719 24.207031 L 807.644531 23.195313 L 807.898438 22.214844 L 808.414063 20.351563 L 808.671875 19.472656 L 808.929688 18.628906 L 809.445313 17.070313 L 809.722656 16.296875 L 810 15.578125 L 810.28125 14.914063 L 810.558594 14.308594 L 810.839844 13.761719 L 811.117188 13.277344 L 811.394531 12.855469 L 811.675781 12.492188 L 811.953125 12.199219 L 812.234375 11.96875 L 812.511719 11.800781 L 812.789063 11.703125 L 813.070313 11.671875 L 813.347656 11.703125 L 813.628906 11.804688 L 813.90625 11.972656 L 814.183594 12.203125 L 814.464844 12.5 L 814.742188 12.863281 L 815.023438 13.285156 L 815.300781 13.773438 L 815.578125 14.320313 L 815.859375 14.929688 L 816.136719 15.59375 L 816.417969 16.3125 L 816.695313 17.085938 L 817.253906 18.785156 L 817.53125 19.707031 L 817.8125 20.671875 L 818.367188 22.726563 L 818.648438 23.808594 L 818.925781 24.921875 L 819.484375 27.238281 L 820.597656 32.125 L 820.878906 33.378906 L 821.15625 34.640625 L 821.714844 37.167969 L 822.832031 42.148438 L 823.109375 43.355469 L 823.386719 44.542969 L 823.945313 46.84375 L 824.226563 47.949219 L 824.503906 49.019531 L 825.0625 51.046875 L 825.339844 51.996094 L 825.621094 52.902344 L 825.898438 53.761719 L 826.175781 54.570313 L 826.457031 55.328125 L 826.734375 56.03125 L 827.015625 56.675781 L 827.292969 57.261719 L 827.566406 57.78125 L 827.839844 58.242188 L 828.113281 58.640625 L 828.386719 58.980469 L 828.660156 59.257813 L 828.933594 59.46875 L 829.210938 59.621094 L 829.484375 59.707031 L 829.757813 59.730469 L 830.03125 59.6875 L 830.304688 59.582031 L 830.578125 59.410156 L 830.851563 59.179688 L 831.125 58.882813 L 831.398438 58.527344 L 831.671875 58.105469 L 831.945313 57.628906 L 832.222656 57.09375 L 832.496094 56.5 L 832.769531 55.847656 L 833.042969 55.144531 L 833.316406 54.390625 L 833.863281 52.734375 L 834.136719 51.835938 L 834.410156 50.894531 L 834.960938 48.890625 L 836.054688 44.488281 L 836.328125 43.324219 L 836.601563 42.136719 L 837.148438 39.714844 L 838.246094 34.765625 L 838.519531 33.527344 L 838.792969 32.292969 L 839.339844 29.859375 L 840.433594 25.199219 L 840.707031 24.097656 L 840.984375 23.027344 L 841.53125 20.988281 L 841.804688 20.027344 L 842.078125 19.105469 L 842.625 17.402344 L 842.898438 16.621094 L 843.171875 15.894531 L 843.445313 15.21875 L 843.71875 14.59375 L 843.996094 14.03125 L 844.269531 13.523438 L 844.542969 13.074219 L 844.816406 12.6875 L 845.070313 12.378906 L 845.328125 12.128906 L 845.582031 11.929688 L 845.835938 11.789063 L 846.09375 11.699219 L 846.347656 11.671875 L 846.605469 11.695313 L 846.859375 11.773438 L 847.113281 11.910156 L 847.371094 12.101563 L 847.625 12.347656 L 847.878906 12.648438 L 848.136719 13.003906 L 848.390625 13.410156 L 848.648438 13.867188 L 848.902344 14.378906 L 849.15625 14.9375 L 849.414063 15.542969 L 849.925781 16.894531 L 850.179688 17.636719 L 850.433594 18.421875 L 850.945313 20.109375 L 851.199219 21.007813 L 851.457031 21.941406 L 851.96875 23.902344 L 852.988281 28.132813 L 853.246094 29.242188 L 853.5 30.363281 L 854.011719 32.644531 L 855.03125 37.265625 L 855.289063 38.417969 L 855.542969 39.566406 L 856.054688 41.832031 L 857.074219 46.167969 L 857.332031 47.199219 L 857.585938 48.203125 L 858.097656 50.121094 L 858.351563 51.03125 L 858.609375 51.902344 L 859.117188 53.535156 L 859.375 54.289063 L 859.628906 55.003906 L 859.886719 55.671875 L 860.140625 56.289063 L 860.394531 56.863281 L 860.652344 57.386719 L 860.90625 57.859375 L 861.164063 58.28125 L 861.4375 58.679688 L 861.714844 59.015625 L 861.992188 59.289063 L 862.269531 59.496094 L 862.546875 59.636719 L 862.824219 59.714844 L 863.101563 59.726563 L 863.378906 59.671875 L 863.65625 59.554688 L 863.929688 59.367188 L 864.207031 59.117188 L 864.484375 58.804688 L 864.761719 58.429688 L 865.039063 57.992188 L 865.316406 57.492188 L 865.59375 56.933594 L 865.871094 56.316406 L 866.148438 55.640625 L 866.425781 54.914063 L 866.699219 54.132813 L 866.976563 53.304688 L 867.253906 52.425781 L 867.808594 50.535156 L 868.085938 49.527344 L 868.363281 48.480469 L 868.917969 46.289063 L 870.023438 41.582031 L 870.300781 40.355469 L 870.578125 39.117188 L 871.132813 36.617188 L 872.238281 31.613281 L 872.515625 30.382813 L 872.792969 29.167969 L 873.347656 26.789063 L 874.457031 22.351563 L 874.730469 21.328125 L 875.007813 20.339844 L 875.5625 18.496094 L 875.839844 17.644531 L 876.117188 16.839844 L 876.671875 15.390625 L 876.949219 14.746094 L 877.226563 14.160156 L 877.5 13.632813 L 877.777344 13.167969 L 878.054688 12.761719 L 878.332031 12.417969 L 878.609375 12.140625 L 878.886719 11.925781 L 879.144531 11.78125 L 879.402344 11.699219 L 879.664063 11.671875 L 879.921875 11.699219 L 880.179688 11.785156 L 880.4375 11.929688 L 880.695313 12.128906 L 880.953125 12.386719 L 881.214844 12.695313 L 881.472656 13.0625 L 881.730469 13.484375 L 881.988281 13.957031 L 882.246094 14.480469 L 882.507813 15.058594 L 883.023438 16.351563 L 883.28125 17.070313 L 883.539063 17.835938 L 884.058594 19.484375 L 884.316406 20.367188 L 884.574219 21.289063 L 885.089844 23.230469 L 885.351563 24.25 L 885.609375 25.292969 L 886.125 27.453125 L 887.160156 31.984375 L 887.417969 33.148438 L 887.675781 34.316406 L 888.195313 36.660156 L 889.230469 41.296875 L 889.488281 42.429688 L 889.746094 43.546875 L 890.261719 45.722656 L 891.296875 49.769531 L 891.554688 50.703125 L 891.8125 51.601563 L 892.332031 53.28125 L 892.589844 54.058594 L 892.847656 54.792969 L 893.367188 56.121094 L 893.625 56.714844 L 893.882813 57.257813 L 894.140625 57.75 L 894.398438 58.191406 L 894.65625 58.578125 L 894.917969 58.910156 L 895.175781 59.183594 L 895.433594 59.40625 L 895.6875 59.566406 L 895.941406 59.671875 L 896.195313 59.722656 L 896.449219 59.722656 L 896.699219 59.664063 L 896.953125 59.550781 L 897.207031 59.382813 L 897.460938 59.160156 L 897.714844 58.886719 L 897.96875 58.558594 L 898.222656 58.175781 L 898.476563 57.746094 L 898.730469 57.261719 L 898.980469 56.730469 L 899.488281 55.523438 L 899.742188 54.851563 L 899.996094 54.136719 L 900.503906 52.582031 L 900.757813 51.742188 L 901.011719 50.871094 L 901.515625 49.019531 L 901.769531 48.046875 L 902.023438 47.046875 L 902.53125 44.972656 L 903.542969 40.589844 L 903.796875 39.457031 L 904.050781 38.320313 L 904.558594 36.027344 L 905.574219 31.449219 L 905.824219 30.324219 L 906.078125 29.210938 L 906.585938 27.03125 L 907.601563 22.925781 L 907.855469 21.96875 L 908.105469 21.039063 L 908.613281 19.289063 L 908.867188 18.46875 L 909.121094 17.6875 L 909.628906 16.25 L 909.882813 15.597656 L 910.136719 14.992188 L 910.386719 14.433594 L 910.640625 13.921875 L 910.894531 13.460938 L 911.148438 13.050781 L 911.402344 12.691406 L 911.65625 12.386719 L 911.929688 12.117188 L 912.207031 11.910156 L 912.480469 11.765625 L 912.753906 11.6875 L 913.03125 11.671875 L 913.304688 11.722656 L 913.582031 11.835938 L 913.855469 12.015625 L 914.128906 12.257813 L 914.40625 12.566406 L 914.679688 12.933594 L 914.957031 13.363281 L 915.230469 13.851563 L 915.503906 14.402344 L 915.78125 15.007813 L 916.054688 15.667969 L 916.332031 16.386719 L 916.605469 17.152344 L 917.15625 18.835938 L 917.429688 19.746094 L 917.707031 20.699219 L 918.253906 22.726563 L 918.53125 23.792969 L 918.804688 24.890625 L 919.355469 27.171875 L 920.457031 31.984375 L 920.730469 33.222656 L 921.003906 34.464844 L 921.554688 36.957031 L 922.65625 41.875 L 922.929688 43.074219 L 923.207031 44.25 L 923.753906 46.53125 L 924.855469 50.71875 L 925.128906 51.671875 L 925.40625 52.582031 L 925.679688 53.445313 L 925.957031 54.261719 L 926.230469 55.027344 L 926.503906 55.742188 L 926.78125 56.402344 L 927.054688 57.007813 L 927.332031 57.554688 L 927.605469 58.042969 L 927.878906 58.472656 L 928.15625 58.839844 L 928.429688 59.144531 L 928.707031 59.386719 L 928.980469 59.566406 L 929.253906 59.679688 L 929.511719 59.726563 L 929.769531 59.71875 L 930.027344 59.652344 L 930.28125 59.53125 L 930.539063 59.355469 L 930.796875 59.125 L 931.050781 58.835938 L 931.308594 58.496094 L 931.566406 58.101563 L 931.820313 57.652344 L 932.078125 57.152344 L 932.335938 56.605469 L 932.589844 56.007813 L 932.847656 55.359375 L 933.363281 53.933594 L 933.617188 53.152344 L 933.875 52.332031 L 934.386719 50.578125 L 935.414063 46.667969 L 935.671875 45.621094 L 935.925781 44.550781 L 936.441406 42.347656 L 937.46875 37.777344 L 937.722656 36.617188 L 937.980469 35.453125 L 938.492188 33.132813 L 939.519531 28.582031 L 939.777344 27.476563 L 940.035156 26.394531 L 940.546875 24.296875 L 941.574219 20.4375 L 941.828125 19.558594 L 942.085938 18.714844 L 942.34375 17.910156 L 942.597656 17.148438 L 942.855469 16.433594 L 943.113281 15.761719 L 943.371094 15.132813 L 943.625 14.558594 L 943.882813 14.027344 L 944.140625 13.550781 L 944.394531 13.125 L 944.652344 12.753906 L 944.910156 12.433594 L 945.164063 12.171875 L 945.421875 11.960938 L 945.679688 11.808594 L 945.964844 11.703125 L 946.25 11.671875 L 946.539063 11.707031 L 946.824219 11.8125 L 947.109375 11.988281 L 947.398438 12.230469 L 947.683594 12.542969 L 947.96875 12.925781 L 948.257813 13.371094 L 948.542969 13.886719 L 948.828125 14.460938 L 949.117188 15.101563 L 949.402344 15.796875 L 949.6875 16.554688 L 950.261719 18.234375 L 950.546875 19.152344 L 950.835938 20.117188 L 951.40625 22.179688 L 952.554688 26.757813 L 952.839844 27.976563 L 953.125 29.21875 L 953.699219 31.753906 L 954.84375 36.929688 L 955.132813 38.222656 L 955.417969 39.511719 L 955.992188 42.050781 L 956.277344 43.292969 L 956.5625 44.511719 L 957.136719 46.875 L 957.421875 48.007813 L 957.710938 49.105469 L 958.28125 51.179688 L 958.570313 52.148438 L 958.855469 53.070313 L 959.429688 54.761719 L 959.714844 55.523438 L 960 56.230469 L 960.289063 56.875 L 960.574219 57.457031 L 960.859375 57.976563 L 961.148438 58.429688 L 961.433594 58.820313 L 961.71875 59.140625 L 962.007813 59.390625 L 962.292969 59.574219 L 962.578125 59.6875 L 962.867188 59.730469 L 963.152344 59.703125 L 963.4375 59.605469 L 963.726563 59.4375 L 964.011719 59.203125 " transform="matrix(1,0,0,1,-112,-9)"/>
</g>
</svg>
