<?xml version="1.0" encoding="UTF-8"?>
<svg xmlns="http://www.w3.org/2000/svg" xmlns:xlink="http://www.w3.org/1999/xlink" width="870pt" height="109pt" viewBox="0 0 870 109" version="1.1">
<defs>
<clipPath id="clip1">
  <path d="M 4 0 L 865 0 L 865 108 L 4 108 Z M 4 0 "/>
</clipPath>
</defs>
<g id="surface28">
<g clip-path="url(#clip1)" clip-rule="nonzero">
<path style="fill:none;stroke-width:2.72;stroke-linecap:square;stroke-linejoin:miter;stroke:rgb(36.84082%,50.67749%,70.979309%);stroke-opacity:1;stroke-miterlimit:3.25;" d="M 129.386719 110.34375 L 129.644531 110.777344 L 129.898438 111.097656 L 130.15625 111.308594 L 130.410156 111.402344 L 130.667969 111.386719 L 130.925781 111.257813 L 131.179688 111.011719 L 131.4375 110.660156 L 131.691406 110.191406 L 131.949219 109.613281 L 132.203125 108.929688 L 132.460938 108.136719 L 132.714844 107.238281 L 132.972656 106.234375 L 133.226563 105.132813 L 133.484375 103.929688 L 133.738281 102.632813 L 133.996094 101.242188 L 134.507813 98.199219 L 134.761719 96.550781 L 135.019531 94.824219 L 135.53125 91.152344 L 135.789063 89.214844 L 136.042969 87.214844 L 136.554688 83.054688 L 137.578125 74.207031 L 137.835938 71.914063 L 138.089844 69.601563 L 138.601563 64.9375 L 139.628906 55.59375 L 139.882813 53.285156 L 140.140625 51 L 140.652344 46.519531 L 141.675781 38.058594 L 141.929688 36.074219 L 142.1875 34.152344 L 142.699219 30.519531 L 142.953125 28.8125 L 143.210938 27.183594 L 143.722656 24.183594 L 143.980469 22.820313 L 144.234375 21.546875 L 144.492188 20.371094 L 144.746094 19.292969 L 145.003906 18.316406 L 145.257813 17.445313 L 145.515625 16.679688 L 145.769531 16.023438 L 146.046875 15.433594 L 146.324219 14.976563 L 146.601563 14.648438 L 146.878906 14.453125 L 147.15625 14.390625 L 147.4375 14.460938 L 147.714844 14.664063 L 147.992188 15 L 148.269531 15.464844 L 148.546875 16.0625 L 148.824219 16.789063 L 149.101563 17.640625 L 149.378906 18.617188 L 149.65625 19.714844 L 149.933594 20.929688 L 150.210938 22.261719 L 150.488281 23.703125 L 150.765625 25.253906 L 151.320313 28.65625 L 151.597656 30.503906 L 151.875 32.4375 L 152.429688 36.550781 L 152.707031 38.71875 L 152.984375 40.953125 L 153.539063 45.59375 L 154.652344 55.398438 L 154.929688 57.917969 L 155.207031 60.449219 L 155.761719 65.527344 L 156.871094 75.542969 L 157.148438 77.976563 L 157.425781 80.371094 L 157.980469 85.003906 L 159.089844 93.5 L 159.367188 95.429688 L 159.644531 97.269531 L 159.921875 99.011719 L 160.199219 100.660156 L 160.476563 102.203125 L 160.757813 103.636719 L 161.035156 104.957031 L 161.3125 106.167969 L 161.589844 107.253906 L 161.867188 108.222656 L 162.144531 109.066406 L 162.421875 109.78125 L 162.699219 110.371094 L 162.976563 110.828125 L 163.253906 111.15625 L 163.53125 111.347656 L 163.789063 111.410156 L 164.050781 111.355469 L 164.308594 111.183594 L 164.566406 110.898438 L 164.828125 110.5 L 165.085938 109.984375 L 165.34375 109.355469 L 165.605469 108.617188 L 165.863281 107.769531 L 166.121094 106.816406 L 166.382813 105.757813 L 166.640625 104.59375 L 166.898438 103.332031 L 167.160156 101.976563 L 167.675781 98.980469 L 167.9375 97.355469 L 168.195313 95.644531 L 168.714844 91.992188 L 169.75 83.894531 L 170.007813 81.730469 L 170.269531 79.523438 L 170.785156 74.992188 L 171.824219 65.632813 L 172.339844 60.890625 L 172.859375 56.167969 L 173.894531 46.960938 L 174.15625 44.738281 L 174.414063 42.5625 L 174.933594 38.359375 L 175.96875 30.695313 L 176.226563 28.960938 L 176.488281 27.308594 L 176.746094 25.738281 L 177.003906 24.257813 L 177.265625 22.871094 L 177.523438 21.582031 L 177.78125 20.386719 L 178.042969 19.296875 L 178.300781 18.308594 L 178.558594 17.429688 L 178.820313 16.65625 L 179.078125 15.996094 L 179.335938 15.445313 L 179.597656 15.011719 L 179.855469 14.691406 L 180.113281 14.484375 L 180.367188 14.394531 L 180.621094 14.417969 L 180.875 14.550781 L 181.128906 14.796875 L 181.386719 15.148438 L 181.640625 15.613281 L 181.894531 16.1875 L 182.148438 16.867188 L 182.402344 17.65625 L 182.65625 18.546875 L 182.910156 19.539063 L 183.164063 20.628906 L 183.417969 21.820313 L 183.671875 23.101563 L 184.179688 25.941406 L 184.433594 27.488281 L 184.6875 29.117188 L 185.195313 32.605469 L 186.210938 40.382813 L 186.464844 42.46875 L 186.71875 44.597656 L 187.226563 48.984375 L 188.242188 58.09375 L 188.496094 60.414063 L 188.75 62.738281 L 189.261719 67.382813 L 190.277344 76.507813 L 190.53125 78.722656 L 190.785156 80.902344 L 191.292969 85.132813 L 192.308594 92.941406 L 192.5625 94.730469 L 192.816406 96.449219 L 193.070313 98.089844 L 193.324219 99.648438 L 193.578125 101.125 L 193.832031 102.511719 L 194.339844 105.011719 L 194.59375 106.117188 L 194.847656 107.121094 L 195.101563 108.027344 L 195.355469 108.828125 L 195.609375 109.523438 L 195.863281 110.113281 L 196.117188 110.59375 L 196.371094 110.960938 L 196.648438 111.238281 L 196.925781 111.386719 L 197.199219 111.398438 L 197.476563 111.285156 L 197.75 111.039063 L 198.027344 110.660156 L 198.300781 110.152344 L 198.578125 109.519531 L 198.851563 108.761719 L 199.128906 107.875 L 199.402344 106.871094 L 199.679688 105.746094 L 199.957031 104.507813 L 200.230469 103.152344 L 200.78125 100.125 L 201.058594 98.457031 L 201.332031 96.695313 L 201.882813 92.898438 L 202.988281 84.378906 L 203.261719 82.089844 L 203.539063 79.75 L 204.089844 74.9375 L 205.191406 64.972656 L 205.464844 62.449219 L 205.742188 59.929688 L 206.292969 54.917969 L 207.394531 45.210938 L 207.671875 42.886719 L 207.945313 40.617188 L 208.496094 36.261719 L 208.773438 34.191406 L 209.050781 32.199219 L 209.601563 28.464844 L 209.875 26.734375 L 210.152344 25.101563 L 210.425781 23.574219 L 210.703125 22.152344 L 210.976563 20.835938 L 211.253906 19.636719 L 211.527344 18.554688 L 211.804688 17.59375 L 212.082031 16.753906 L 212.355469 16.039063 L 212.632813 15.449219 L 212.90625 14.988281 L 213.183594 14.660156 L 213.457031 14.460938 L 213.734375 14.390625 L 214.007813 14.453125 L 214.265625 14.628906 L 214.523438 14.917969 L 214.78125 15.320313 L 215.039063 15.835938 L 215.296875 16.460938 L 215.550781 17.195313 L 215.808594 18.039063 L 216.066406 18.984375 L 216.324219 20.035156 L 216.582031 21.1875 L 216.839844 22.441406 L 217.09375 23.785156 L 217.351563 25.222656 L 217.609375 26.75 L 218.125 30.054688 L 218.382813 31.828125 L 218.636719 33.671875 L 219.152344 37.558594 L 220.179688 46.015625 L 222.238281 64.488281 L 222.496094 66.839844 L 222.753906 69.179688 L 223.269531 73.8125 L 224.296875 82.722656 L 224.554688 84.847656 L 224.8125 86.921875 L 225.324219 90.894531 L 225.582031 92.78125 L 225.839844 94.601563 L 226.355469 98.011719 L 226.609375 99.59375 L 226.867188 101.089844 L 227.125 102.496094 L 227.382813 103.808594 L 227.640625 105.023438 L 227.898438 106.140625 L 228.152344 107.15625 L 228.410156 108.070313 L 228.667969 108.875 L 228.925781 109.570313 L 229.183594 110.15625 L 229.441406 110.632813 L 229.695313 110.996094 L 229.953125 111.246094 L 230.210938 111.382813 L 230.46875 111.40625 L 230.746094 111.300781 L 231.027344 111.058594 L 231.304688 110.6875 L 231.582031 110.183594 L 231.863281 109.546875 L 232.140625 108.785156 L 232.417969 107.894531 L 232.699219 106.878906 L 232.976563 105.742188 L 233.253906 104.484375 L 233.535156 103.113281 L 233.8125 101.632813 L 234.089844 100.042969 L 234.371094 98.351563 L 234.929688 94.679688 L 235.207031 92.710938 L 235.484375 90.65625 L 236.042969 86.324219 L 237.15625 76.9375 L 239.386719 56.746094 L 239.664063 54.226563 L 239.945313 51.730469 L 240.503906 46.835938 L 240.78125 44.449219 L 241.058594 42.117188 L 241.617188 37.628906 L 241.894531 35.488281 L 242.175781 33.421875 L 242.730469 29.539063 L 243.011719 27.734375 L 243.289063 26.027344 L 243.847656 22.921875 L 244.125 21.53125 L 244.402344 20.257813 L 244.683594 19.101563 L 244.960938 18.066406 L 245.238281 17.152344 L 245.519531 16.367188 L 245.796875 15.710938 L 246.078125 15.1875 L 246.355469 14.792969 L 246.632813 14.53125 L 246.914063 14.402344 L 247.191406 14.410156 L 247.46875 14.550781 L 247.75 14.828125 L 248.027344 15.234375 L 248.304688 15.773438 L 248.578125 16.429688 L 248.851563 17.210938 L 249.125 18.113281 L 249.402344 19.132813 L 249.675781 20.273438 L 249.949219 21.523438 L 250.496094 24.355469 L 250.769531 25.925781 L 251.042969 27.597656 L 251.589844 31.214844 L 251.863281 33.152344 L 252.136719 35.167969 L 252.683594 39.421875 L 252.957031 41.644531 L 253.230469 43.921875 L 253.777344 48.625 L 254.871094 58.4375 L 257.0625 78.203125 L 257.335938 80.558594 L 257.609375 82.867188 L 258.15625 87.316406 L 258.429688 89.449219 L 258.703125 91.507813 L 259.25 95.394531 L 259.523438 97.210938 L 259.796875 98.933594 L 260.070313 100.5625 L 260.34375 102.089844 L 260.617188 103.515625 L 260.894531 104.828125 L 261.167969 106.03125 L 261.441406 107.121094 L 261.714844 108.089844 L 261.988281 108.941406 L 262.261719 109.667969 L 262.535156 110.269531 L 262.808594 110.746094 L 263.082031 111.097656 L 263.355469 111.316406 L 263.628906 111.40625 L 263.902344 111.371094 L 264.175781 111.203125 L 264.449219 110.90625 L 264.722656 110.480469 L 264.996094 109.929688 L 265.269531 109.253906 L 265.542969 108.457031 L 265.816406 107.535156 L 266.074219 106.566406 L 266.328125 105.5 L 266.582031 104.332031 L 266.839844 103.070313 L 267.09375 101.714844 L 267.347656 100.269531 L 267.859375 97.121094 L 268.113281 95.425781 L 268.371094 93.652344 L 268.878906 89.902344 L 269.902344 81.6875 L 270.15625 79.511719 L 270.414063 77.300781 L 270.921875 72.777344 L 271.945313 63.5 L 273.984375 45.226563 L 274.242188 43.070313 L 274.496094 40.960938 L 275.007813 36.902344 L 275.261719 34.960938 L 275.515625 33.082031 L 276.027344 29.542969 L 276.28125 27.882813 L 276.539063 26.308594 L 276.792969 24.816406 L 277.046875 23.414063 L 277.304688 22.105469 L 277.558594 20.886719 L 277.8125 19.769531 L 278.070313 18.75 L 278.324219 17.832031 L 278.578125 17.019531 L 278.835938 16.316406 L 279.089844 15.71875 L 279.34375 15.230469 L 279.601563 14.851563 L 279.855469 14.585938 L 280.109375 14.433594 L 280.367188 14.390625 L 280.621094 14.460938 L 280.875 14.644531 L 281.132813 14.941406 L 281.386719 15.347656 L 281.640625 15.863281 L 281.898438 16.488281 L 282.152344 17.222656 L 282.429688 18.136719 L 282.707031 19.175781 L 282.984375 20.332031 L 283.261719 21.601563 L 283.535156 22.988281 L 283.8125 24.480469 L 284.367188 27.78125 L 284.644531 29.574219 L 284.921875 31.460938 L 285.472656 35.484375 L 286.582031 44.378906 L 286.859375 46.746094 L 287.136719 49.15625 L 287.6875 54.082031 L 288.796875 64.164063 L 289.070313 66.695313 L 289.347656 69.214844 L 289.902344 74.195313 L 291.007813 83.734375 L 291.285156 85.992188 L 291.5625 88.1875 L 292.117188 92.367188 L 292.394531 94.339844 L 292.671875 96.222656 L 293.222656 99.71875 L 293.5 101.316406 L 293.777344 102.8125 L 294.054688 104.195313 L 294.332031 105.46875 L 294.609375 106.625 L 294.882813 107.660156 L 295.160156 108.578125 L 295.4375 109.367188 L 295.714844 110.03125 L 295.992188 110.566406 L 296.269531 110.972656 L 296.542969 111.246094 L 296.820313 111.386719 L 297.097656 111.398438 L 297.375 111.277344 L 297.652344 111.023438 L 297.929688 110.636719 L 298.207031 110.121094 L 298.480469 109.476563 L 298.757813 108.707031 L 299.035156 107.808594 L 299.3125 106.789063 L 299.589844 105.652344 L 299.867188 104.398438 L 300.125 103.121094 L 300.382813 101.753906 L 300.898438 98.742188 L 301.15625 97.105469 L 301.417969 95.386719 L 301.933594 91.726563 L 302.191406 89.789063 L 302.449219 87.789063 L 302.964844 83.617188 L 304 74.726563 L 304.257813 72.417969 L 304.515625 70.089844 L 305.035156 65.382813 L 306.066406 55.949219 L 306.324219 53.617188 L 306.582031 51.304688 L 307.101563 46.773438 L 308.132813 38.214844 L 308.390625 36.207031 L 308.652344 34.265625 L 309.167969 30.589844 L 309.425781 28.863281 L 309.683594 27.21875 L 310.203125 24.191406 L 310.460938 22.8125 L 310.71875 21.527344 L 310.976563 20.34375 L 311.234375 19.257813 L 311.492188 18.277344 L 311.75 17.402344 L 312.011719 16.636719 L 312.269531 15.980469 L 312.527344 15.4375 L 312.785156 15.003906 L 313.042969 14.6875 L 313.300781 14.484375 L 313.558594 14.394531 L 313.820313 14.421875 L 314.078125 14.5625 L 314.335938 14.820313 L 314.59375 15.191406 L 314.851563 15.675781 L 315.109375 16.273438 L 315.367188 16.980469 L 315.628906 17.796875 L 315.886719 18.722656 L 316.144531 19.75 L 316.402344 20.882813 L 316.65625 22.089844 L 316.910156 23.386719 L 317.414063 26.253906 L 317.667969 27.816406 L 317.921875 29.457031 L 318.429688 32.964844 L 318.683594 34.820313 L 318.933594 36.742188 L 319.441406 40.761719 L 320.453125 49.367188 L 320.707031 51.609375 L 320.960938 53.875 L 321.46875 58.46875 L 322.480469 67.726563 L 322.734375 70.027344 L 322.988281 72.3125 L 323.496094 76.8125 L 324.507813 85.390625 L 324.761719 87.417969 L 325.015625 89.390625 L 325.519531 93.148438 L 325.773438 94.925781 L 326.027344 96.628906 L 326.535156 99.804688 L 326.789063 101.265625 L 327.039063 102.640625 L 327.292969 103.925781 L 327.546875 105.113281 L 327.800781 106.207031 L 328.054688 107.203125 L 328.308594 108.097656 L 328.558594 108.886719 L 328.8125 109.570313 L 329.066406 110.152344 L 329.320313 110.621094 L 329.574219 110.984375 L 329.828125 111.234375 L 330.082031 111.375 L 330.332031 111.40625 L 330.585938 111.328125 L 330.839844 111.136719 L 331.09375 110.835938 L 331.347656 110.425781 L 331.601563 109.90625 L 331.851563 109.28125 L 332.105469 108.546875 L 332.359375 107.710938 L 332.613281 106.773438 L 332.886719 105.640625 L 333.164063 104.394531 L 333.4375 103.035156 L 333.710938 101.566406 L 333.988281 99.996094 L 334.261719 98.328125 L 334.8125 94.707031 L 335.085938 92.765625 L 335.359375 90.742188 L 335.910156 86.480469 L 337.011719 77.242188 L 337.285156 74.820313 L 337.558594 72.367188 L 338.109375 67.390625 L 339.207031 57.347656 L 339.484375 54.855469 L 339.757813 52.386719 L 340.308594 47.539063 L 341.40625 38.390625 L 341.683594 36.253906 L 341.957031 34.191406 L 342.507813 30.296875 L 342.78125 28.476563 L 343.054688 26.75 L 343.605469 23.597656 L 343.882813 22.175781 L 344.15625 20.863281 L 344.429688 19.664063 L 344.707031 18.582031 L 344.980469 17.621094 L 345.253906 16.777344 L 345.53125 16.0625 L 345.804688 15.46875 L 346.078125 15.007813 L 346.355469 14.671875 L 346.628906 14.464844 L 346.902344 14.390625 L 347.179688 14.445313 L 347.453125 14.632813 L 347.726563 14.945313 L 348.003906 15.390625 L 348.277344 15.964844 L 348.554688 16.660156 L 348.828125 17.484375 L 349.101563 18.429688 L 349.378906 19.492188 L 349.652344 20.675781 L 349.925781 21.96875 L 350.203125 23.375 L 350.457031 24.78125 L 350.714844 26.277344 L 351.226563 29.519531 L 351.484375 31.261719 L 351.742188 33.078125 L 352.253906 36.914063 L 352.511719 38.929688 L 352.765625 40.996094 L 353.277344 45.28125 L 354.304688 54.304688 L 354.5625 56.625 L 354.816406 58.957031 L 355.332031 63.648438 L 356.355469 72.964844 L 356.613281 75.25 L 356.871094 77.503906 L 357.382813 81.90625 L 358.40625 90.136719 L 358.664063 92.046875 L 358.921875 93.886719 L 359.433594 97.347656 L 359.691406 98.960938 L 359.945313 100.488281 L 360.460938 103.273438 L 360.714844 104.527344 L 360.972656 105.683594 L 361.230469 106.742188 L 361.484375 107.695313 L 361.742188 108.542969 L 361.996094 109.285156 L 362.253906 109.917969 L 362.511719 110.4375 L 362.765625 110.851563 L 363.023438 111.148438 L 363.28125 111.335938 L 363.535156 111.410156 L 363.792969 111.367188 L 364.050781 111.214844 L 364.304688 110.945313 L 364.5625 110.566406 L 364.820313 110.074219 L 365.074219 109.472656 L 365.332031 108.761719 L 365.589844 107.945313 L 365.84375 107.019531 L 366.101563 105.992188 L 366.355469 104.867188 L 366.613281 103.640625 L 366.890625 102.203125 L 367.167969 100.65625 L 367.726563 97.261719 L 368.003906 95.417969 L 368.28125 93.488281 L 368.835938 89.375 L 369.117188 87.207031 L 369.394531 84.972656 L 369.949219 80.328125 L 371.0625 70.515625 L 371.339844 67.996094 L 371.617188 65.457031 L 372.171875 60.371094 L 373.285156 50.335938 L 373.5625 47.898438 L 373.839844 45.5 L 374.398438 40.855469 L 375.507813 32.335938 L 375.785156 30.402344 L 376.066406 28.558594 L 376.34375 26.8125 L 376.621094 25.160156 L 376.898438 23.613281 L 377.175781 22.175781 L 377.453125 20.851563 L 377.730469 19.640625 L 378.011719 18.550781 L 378.289063 17.578125 L 378.566406 16.734375 L 378.84375 16.015625 L 379.121094 15.429688 L 379.398438 14.96875 L 379.679688 14.644531 L 379.957031 14.449219 L 380.234375 14.390625 L 380.511719 14.464844 L 380.789063 14.667969 L 381.066406 15.007813 L 381.347656 15.480469 L 381.625 16.082031 L 381.902344 16.8125 L 382.179688 17.667969 L 382.457031 18.648438 L 382.734375 19.753906 L 383.015625 20.972656 L 383.292969 22.3125 L 383.570313 23.757813 L 383.847656 25.316406 L 384.402344 28.734375 L 384.675781 30.550781 L 384.949219 32.457031 L 385.496094 36.5 L 386.585938 45.382813 L 388.769531 64.960938 L 389.042969 67.453125 L 389.316406 69.933594 L 389.859375 74.828125 L 390.132813 77.234375 L 390.40625 79.601563 L 390.953125 84.195313 L 391.226563 86.410156 L 391.5 88.5625 L 392.042969 92.660156 L 392.316406 94.589844 L 392.589844 96.4375 L 393.136719 99.863281 L 393.410156 101.433594 L 393.683594 102.898438 L 393.953125 104.257813 L 394.226563 105.507813 L 394.5 106.644531 L 394.773438 107.667969 L 395.046875 108.570313 L 395.320313 109.351563 L 395.59375 110.007813 L 395.863281 110.542969 L 396.136719 110.949219 L 396.410156 111.230469 L 396.683594 111.378906 L 396.957031 111.402344 L 397.230469 111.296875 L 397.503906 111.0625 L 397.773438 110.703125 L 398.046875 110.214844 L 398.320313 109.601563 L 398.59375 108.863281 L 398.867188 108.003906 L 399.140625 107.023438 L 399.414063 105.929688 L 399.683594 104.71875 L 399.957031 103.398438 L 400.230469 101.96875 L 400.777344 98.804688 L 401.050781 97.078125 L 401.324219 95.261719 L 401.867188 91.375 L 402.121094 89.457031 L 402.378906 87.476563 L 402.886719 83.351563 L 403.902344 74.578125 L 405.941406 56.078125 L 406.195313 53.78125 L 406.449219 51.503906 L 406.957031 47.035156 L 407.210938 44.851563 L 407.46875 42.710938 L 407.976563 38.574219 L 408.230469 36.589844 L 408.484375 34.664063 L 408.992188 31.011719 L 409.25 29.292969 L 409.503906 27.652344 L 410.011719 24.617188 L 410.265625 23.230469 L 410.519531 21.9375 L 410.777344 20.738281 L 411.03125 19.632813 L 411.285156 18.628906 L 411.539063 17.730469 L 411.792969 16.933594 L 412.046875 16.242188 L 412.300781 15.65625 L 412.558594 15.183594 L 412.8125 14.820313 L 413.066406 14.566406 L 413.320313 14.421875 L 413.574219 14.394531 L 413.828125 14.472656 L 414.082031 14.667969 L 414.339844 14.972656 L 414.59375 15.386719 L 414.847656 15.910156 L 415.101563 16.542969 L 415.355469 17.285156 L 415.609375 18.128906 L 415.867188 19.078125 L 416.121094 20.125 L 416.375 21.273438 L 416.628906 22.519531 L 417.136719 25.28125 L 417.390625 26.796875 L 417.648438 28.394531 L 418.15625 31.824219 L 418.433594 33.804688 L 418.707031 35.863281 L 419.261719 40.199219 L 420.363281 49.558594 L 420.640625 52.003906 L 420.917969 54.480469 L 421.46875 59.492188 L 422.570313 69.578125 L 422.847656 72.070313 L 423.125 74.535156 L 423.675781 79.371094 L 423.953125 81.722656 L 424.226563 84.027344 L 424.78125 88.453125 L 425.054688 90.566406 L 425.332031 92.601563 L 425.882813 96.429688 L 426.160156 98.210938 L 426.4375 99.894531 L 426.988281 102.957031 L 427.265625 104.324219 L 427.539063 105.585938 L 427.816406 106.726563 L 428.09375 107.75 L 428.367188 108.652344 L 428.644531 109.429688 L 428.921875 110.082031 L 429.195313 110.601563 L 429.472656 110.996094 L 429.75 111.261719 L 430.023438 111.394531 L 430.300781 111.394531 L 430.578125 111.261719 L 430.851563 111 L 431.128906 110.609375 L 431.40625 110.085938 L 431.679688 109.4375 L 431.957031 108.660156 L 432.234375 107.761719 L 432.507813 106.738281 L 432.785156 105.597656 L 433.0625 104.339844 L 433.613281 101.496094 L 433.890625 99.910156 L 434.164063 98.230469 L 434.71875 94.582031 L 434.992188 92.625 L 435.269531 90.589844 L 435.820313 86.296875 L 436.078125 84.203125 L 436.335938 82.0625 L 436.851563 77.644531 L 437.882813 68.433594 L 438.140625 66.085938 L 438.398438 63.730469 L 438.914063 59.015625 L 439.945313 49.746094 L 440.203125 47.492188 L 440.457031 45.273438 L 440.972656 40.972656 L 441.230469 38.894531 L 441.488281 36.875 L 442.003906 33.023438 L 442.261719 31.199219 L 442.519531 29.453125 L 442.777344 27.785156 L 443.035156 26.199219 L 443.292969 24.703125 L 443.550781 23.292969 L 444.066406 20.761719 L 444.324219 19.644531 L 444.582031 18.628906 L 444.839844 17.714844 L 445.097656 16.910156 L 445.355469 16.214844 L 445.613281 15.628906 L 445.871094 15.15625 L 446.125 14.796875 L 446.382813 14.546875 L 446.640625 14.414063 L 446.898438 14.398438 L 447.15625 14.492188 L 447.414063 14.703125 L 447.671875 15.027344 L 447.929688 15.464844 L 448.1875 16.015625 L 448.445313 16.675781 L 448.703125 17.445313 L 448.960938 18.324219 L 449.21875 19.304688 L 449.476563 20.390625 L 449.734375 21.578125 L 450.25 24.238281 L 450.507813 25.707031 L 450.765625 27.265625 L 451.28125 30.628906 L 452.308594 38.238281 L 452.589844 40.46875 L 452.867188 42.765625 L 453.425781 47.519531 L 454.542969 57.484375 L 454.824219 60.027344 L 455.101563 62.582031 L 455.660156 67.6875 L 456.777344 77.675781 L 457.054688 80.089844 L 457.335938 82.453125 L 457.894531 87.015625 L 458.171875 89.199219 L 458.453125 91.308594 L 459.011719 95.285156 L 459.289063 97.144531 L 459.570313 98.90625 L 459.847656 100.566406 L 460.125 102.125 L 460.40625 103.574219 L 460.683594 104.90625 L 460.964844 106.128906 L 461.242188 107.226563 L 461.523438 108.203125 L 461.800781 109.054688 L 462.082031 109.777344 L 462.359375 110.367188 L 462.640625 110.828125 L 462.917969 111.15625 L 463.199219 111.351563 L 463.476563 111.410156 L 463.757813 111.335938 L 464.035156 111.125 L 464.3125 110.78125 L 464.59375 110.304688 L 464.871094 109.699219 L 465.152344 108.960938 L 465.429688 108.09375 L 465.710938 107.105469 L 465.988281 105.988281 L 466.269531 104.757813 L 466.546875 103.40625 L 466.828125 101.945313 L 467.105469 100.375 L 467.386719 98.703125 L 467.945313 95.0625 L 468.222656 93.105469 L 468.5 91.0625 L 469.058594 86.753906 L 470.175781 77.390625 L 470.449219 74.976563 L 470.726563 72.535156 L 471.273438 67.574219 L 472.371094 57.554688 L 472.644531 55.070313 L 472.917969 52.605469 L 473.464844 47.765625 L 474.5625 38.621094 L 474.835938 36.480469 L 475.109375 34.414063 L 475.660156 30.511719 L 475.933594 28.6875 L 476.207031 26.957031 L 476.753906 23.785156 L 477.027344 22.351563 L 477.304688 21.03125 L 477.578125 19.820313 L 477.851563 18.722656 L 478.125 17.746094 L 478.398438 16.890625 L 478.671875 16.15625 L 478.949219 15.550781 L 479.222656 15.066406 L 479.496094 14.714844 L 479.769531 14.488281 L 480.042969 14.394531 L 480.316406 14.429688 L 480.59375 14.59375 L 480.867188 14.886719 L 481.140625 15.308594 L 481.414063 15.855469 L 481.6875 16.53125 L 481.960938 17.328125 L 482.238281 18.25 L 482.511719 19.289063 L 482.785156 20.445313 L 483.058594 21.714844 L 483.332031 23.097656 L 483.605469 24.582031 L 483.882813 26.171875 L 484.429688 29.640625 L 484.703125 31.511719 L 484.976563 33.464844 L 485.527344 37.605469 L 485.800781 39.777344 L 486.074219 42.015625 L 486.621094 46.648438 L 487.71875 56.382813 L 487.972656 58.707031 L 488.230469 61.042969 L 488.742188 65.722656 L 489.765625 74.960938 L 490.019531 77.210938 L 490.273438 79.429688 L 490.785156 83.75 L 491.808594 91.761719 L 492.066406 93.609375 L 492.320313 95.386719 L 492.832031 98.707031 L 493.085938 100.242188 L 493.34375 101.691406 L 493.855469 104.320313 L 494.109375 105.488281 L 494.367188 106.558594 L 494.621094 107.527344 L 494.878906 108.394531 L 495.132813 109.152344 L 495.390625 109.804688 L 495.644531 110.347656 L 495.898438 110.777344 L 496.15625 111.097656 L 496.410156 111.308594 L 496.667969 111.402344 L 496.921875 111.386719 L 497.179688 111.253906 L 497.433594 111.011719 L 497.691406 110.660156 L 497.945313 110.191406 L 498.203125 109.617188 L 498.457031 108.933594 L 498.714844 108.140625 L 498.96875 107.242188 L 499.222656 106.242188 L 499.480469 105.140625 L 499.992188 102.648438 L 500.246094 101.257813 L 500.503906 99.78125 L 501.015625 96.574219 L 501.269531 94.851563 L 501.527344 93.054688 L 502.035156 89.25 L 502.292969 87.257813 L 502.546875 85.203125 L 503.058594 80.949219 L 504.082031 71.980469 L 504.359375 69.472656 L 504.636719 66.953125 L 505.191406 61.882813 L 506.300781 51.828125 L 506.578125 49.375 L 506.855469 46.957031 L 507.410156 42.257813 L 508.519531 33.589844 L 508.796875 31.609375 L 509.074219 29.714844 L 509.351563 27.910156 L 509.628906 26.199219 L 509.902344 24.589844 L 510.179688 23.085938 L 510.457031 21.691406 L 510.734375 20.410156 L 511.011719 19.246094 L 511.289063 18.199219 L 511.566406 17.273438 L 511.84375 16.476563 L 512.121094 15.804688 L 512.398438 15.257813 L 512.675781 14.847656 L 512.953125 14.566406 L 513.230469 14.414063 L 513.507813 14.398438 L 513.785156 14.515625 L 514.0625 14.765625 L 514.339844 15.144531 L 514.617188 15.65625 L 514.894531 16.296875 L 515.171875 17.0625 L 515.449219 17.957031 L 515.726563 18.972656 L 516.003906 20.109375 L 516.28125 21.363281 L 516.558594 22.730469 L 516.835938 24.207031 L 517.390625 27.472656 L 517.667969 29.253906 L 517.945313 31.128906 L 518.5 35.128906 L 519.605469 44 L 519.882813 46.359375 L 520.160156 48.769531 L 520.714844 53.691406 L 521.824219 63.785156 L 522.082031 66.152344 L 522.34375 68.511719 L 522.859375 73.1875 L 523.894531 82.191406 L 524.15625 84.34375 L 524.414063 86.441406 L 524.929688 90.46875 L 525.191406 92.382813 L 525.449219 94.230469 L 525.964844 97.691406 L 526.226563 99.300781 L 526.484375 100.824219 L 526.742188 102.253906 L 527 103.59375 L 527.261719 104.832031 L 527.519531 105.972656 L 527.777344 107.011719 L 528.035156 107.945313 L 528.296875 108.769531 L 528.554688 109.484375 L 528.8125 110.089844 L 529.074219 110.582031 L 529.332031 110.960938 L 529.589844 111.226563 L 529.847656 111.375 L 530.109375 111.40625 L 530.367188 111.324219 L 530.625 111.125 L 530.882813 110.8125 L 531.144531 110.386719 L 531.402344 109.84375 L 531.660156 109.191406 L 531.917969 108.429688 L 532.179688 107.558594 L 532.4375 106.578125 L 532.695313 105.496094 L 532.953125 104.3125 L 533.214844 103.027344 L 533.472656 101.652344 L 533.730469 100.179688 L 534.25 96.972656 L 534.507813 95.25 L 534.765625 93.445313 L 535.285156 89.625 L 536.320313 81.253906 L 538.390625 62.769531 L 538.644531 60.445313 L 538.898438 58.128906 L 539.40625 53.535156 L 540.421875 44.644531 L 540.675781 42.515625 L 540.929688 40.433594 L 541.433594 36.421875 L 541.6875 34.507813 L 541.941406 32.65625 L 542.449219 29.167969 L 542.703125 27.539063 L 542.957031 25.992188 L 543.210938 24.527344 L 543.464844 23.148438 L 543.71875 21.863281 L 543.972656 20.671875 L 544.226563 19.578125 L 544.480469 18.582031 L 544.734375 17.691406 L 544.988281 16.898438 L 545.242188 16.214844 L 545.496094 15.636719 L 545.75 15.167969 L 546.003906 14.808594 L 546.257813 14.558594 L 546.511719 14.421875 L 546.765625 14.394531 L 547.019531 14.476563 L 547.273438 14.671875 L 547.527344 14.976563 L 547.777344 15.394531 L 548.03125 15.917969 L 548.285156 16.546875 L 548.539063 17.285156 L 548.792969 18.128906 L 549.046875 19.074219 L 549.300781 20.121094 L 549.554688 21.265625 L 549.808594 22.503906 L 550.0625 23.835938 L 550.570313 26.765625 L 550.824219 28.355469 L 551.078125 30.023438 L 551.585938 33.585938 L 552.601563 41.480469 L 552.855469 43.589844 L 553.109375 45.742188 L 553.617188 50.160156 L 554.628906 59.300781 L 554.90625 61.820313 L 555.179688 64.339844 L 555.730469 69.359375 L 556.832031 79.140625 L 557.109375 81.492188 L 557.382813 83.792969 L 557.933594 88.21875 L 558.210938 90.335938 L 558.484375 92.375 L 559.035156 96.210938 L 559.308594 97.996094 L 559.585938 99.6875 L 559.859375 101.28125 L 560.136719 102.769531 L 560.410156 104.152344 L 560.6875 105.421875 L 560.960938 106.574219 L 561.238281 107.613281 L 561.511719 108.53125 L 561.789063 109.324219 L 562.0625 109.992188 L 562.339844 110.53125 L 562.613281 110.945313 L 562.890625 111.226563 L 563.164063 111.382813 L 563.441406 111.402344 L 563.714844 111.292969 L 563.988281 111.054688 L 564.265625 110.683594 L 564.539063 110.1875 L 564.816406 109.558594 L 565.089844 108.808594 L 565.367188 107.933594 L 565.640625 106.933594 L 565.917969 105.820313 L 566.191406 104.585938 L 566.46875 103.242188 L 566.742188 101.789063 L 567.019531 100.230469 L 567.292969 98.574219 L 567.84375 94.972656 L 568.121094 93.039063 L 568.394531 91.023438 L 568.945313 86.773438 L 570.046875 77.546875 L 572.25 57.628906 L 572.503906 55.300781 L 572.761719 52.988281 L 573.277344 48.4375 L 573.53125 46.210938 L 573.789063 44.023438 L 574.304688 39.785156 L 574.5625 37.746094 L 574.816406 35.765625 L 575.332031 32 L 575.589844 30.222656 L 575.84375 28.523438 L 576.359375 25.371094 L 576.617188 23.925781 L 576.871094 22.574219 L 577.128906 21.3125 L 577.386719 20.152344 L 577.644531 19.089844 L 577.898438 18.132813 L 578.15625 17.28125 L 578.414063 16.535156 L 578.671875 15.898438 L 578.929688 15.371094 L 579.183594 14.957031 L 579.441406 14.65625 L 579.699219 14.464844 L 579.957031 14.390625 L 580.210938 14.429688 L 580.46875 14.582031 L 580.726563 14.851563 L 580.984375 15.230469 L 581.238281 15.722656 L 581.496094 16.324219 L 581.753906 17.035156 L 582.011719 17.855469 L 582.265625 18.78125 L 582.523438 19.808594 L 582.78125 20.9375 L 583.039063 22.167969 L 583.550781 24.910156 L 583.808594 26.414063 L 584.066406 28.007813 L 584.578125 31.433594 L 584.835938 33.261719 L 585.09375 35.15625 L 585.605469 39.136719 L 586.636719 47.734375 L 588.691406 66.285156 L 588.96875 68.820313 L 589.246094 71.34375 L 589.804688 76.304688 L 590.082031 78.734375 L 590.359375 81.121094 L 590.917969 85.738281 L 591.195313 87.953125 L 591.472656 90.101563 L 592.03125 94.164063 L 592.308594 96.066406 L 592.585938 97.882813 L 593.144531 101.214844 L 593.421875 102.722656 L 593.703125 104.125 L 593.980469 105.410156 L 594.257813 106.578125 L 594.535156 107.625 L 594.816406 108.550781 L 595.09375 109.347656 L 595.371094 110.019531 L 595.652344 110.558594 L 595.929688 110.96875 L 596.207031 111.246094 L 596.484375 111.386719 L 596.765625 111.398438 L 597.042969 111.273438 L 597.320313 111.015625 L 597.597656 110.625 L 597.878906 110.101563 L 598.15625 109.445313 L 598.433594 108.664063 L 598.714844 107.757813 L 598.992188 106.726563 L 599.269531 105.574219 L 599.546875 104.304688 L 599.828125 102.917969 L 600.105469 101.421875 L 600.382813 99.820313 L 600.941406 96.316406 L 601.21875 94.425781 L 601.496094 92.445313 L 602.054688 88.246094 L 602.332031 86.039063 L 602.609375 83.769531 L 603.167969 79.058594 L 604.28125 69.164063 L 606.507813 48.988281 L 606.78125 46.609375 L 607.054688 44.277344 L 607.601563 39.761719 L 607.875 37.59375 L 608.148438 35.496094 L 608.695313 31.519531 L 608.96875 29.652344 L 609.242188 27.875 L 609.515625 26.191406 L 609.789063 24.605469 L 610.0625 23.121094 L 610.335938 21.742188 L 610.609375 20.472656 L 610.882813 19.316406 L 611.15625 18.277344 L 611.429688 17.355469 L 611.703125 16.554688 L 611.976563 15.878906 L 612.25 15.324219 L 612.523438 14.898438 L 612.796875 14.601563 L 613.070313 14.433594 L 613.34375 14.390625 L 613.617188 14.480469 L 613.890625 14.699219 L 614.164063 15.042969 L 614.4375 15.515625 L 614.710938 16.117188 L 614.984375 16.839844 L 615.257813 17.683594 L 615.53125 18.652344 L 615.804688 19.734375 L 616.074219 20.933594 L 616.347656 22.246094 L 616.621094 23.664063 L 616.894531 25.183594 L 617.441406 28.527344 L 617.714844 30.339844 L 617.988281 32.234375 L 618.535156 36.269531 L 619.628906 45.140625 L 619.902344 47.492188 L 620.175781 49.882813 L 620.722656 54.765625 L 621.816406 64.734375 L 622.089844 67.234375 L 622.363281 69.71875 L 622.910156 74.628906 L 624.003906 84.023438 L 624.257813 86.097656 L 624.511719 88.121094 L 625.023438 91.984375 L 625.277344 93.820313 L 625.53125 95.582031 L 626.042969 98.875 L 626.296875 100.398438 L 626.550781 101.832031 L 626.808594 103.179688 L 627.0625 104.433594 L 627.316406 105.589844 L 627.574219 106.648438 L 627.828125 107.605469 L 628.082031 108.460938 L 628.335938 109.210938 L 628.59375 109.851563 L 628.847656 110.382813 L 629.101563 110.804688 L 629.355469 111.117188 L 629.613281 111.316406 L 629.867188 111.40625 L 630.121094 111.382813 L 630.375 111.246094 L 630.632813 110.996094 L 630.886719 110.636719 L 631.140625 110.167969 L 631.398438 109.589844 L 631.652344 108.902344 L 631.90625 108.105469 L 632.160156 107.207031 L 632.417969 106.207031 L 632.671875 105.105469 L 632.925781 103.90625 L 633.179688 102.613281 L 633.4375 101.226563 L 633.691406 99.753906 L 634.199219 96.550781 L 634.457031 94.832031 L 634.710938 93.039063 L 635.222656 89.246094 L 636.242188 80.972656 L 636.496094 78.785156 L 636.75 76.5625 L 637.261719 72.027344 L 638.28125 62.746094 L 640.320313 44.542969 L 640.597656 42.226563 L 640.871094 39.96875 L 641.425781 35.640625 L 641.703125 33.582031 L 641.980469 31.609375 L 642.53125 27.917969 L 642.808594 26.210938 L 643.085938 24.605469 L 643.359375 23.105469 L 643.636719 21.714844 L 643.914063 20.433594 L 644.191406 19.269531 L 644.46875 18.222656 L 644.742188 17.296875 L 645.019531 16.496094 L 645.296875 15.820313 L 645.574219 15.277344 L 645.851563 14.859375 L 646.125 14.574219 L 646.402344 14.417969 L 646.679688 14.398438 L 646.957031 14.507813 L 647.230469 14.75 L 647.507813 15.121094 L 647.785156 15.625 L 648.0625 16.253906 L 648.339844 17.011719 L 648.613281 17.894531 L 648.890625 18.902344 L 649.167969 20.027344 L 649.445313 21.269531 L 649.71875 22.625 L 649.996094 24.089844 L 650.273438 25.660156 L 650.550781 27.332031 L 650.828125 29.097656 L 651.378906 32.90625 L 651.65625 34.9375 L 651.933594 37.042969 L 652.484375 41.457031 L 653.589844 50.9375 L 653.867188 53.40625 L 654.144531 55.898438 L 654.695313 60.9375 L 655.804688 71.023438 L 656.078125 73.507813 L 656.355469 75.960938 L 656.910156 80.753906 L 658.015625 89.714844 L 658.273438 91.648438 L 658.53125 93.515625 L 659.046875 97.03125 L 659.304688 98.667969 L 659.5625 100.222656 L 660.078125 103.058594 L 660.335938 104.335938 L 660.597656 105.515625 L 660.855469 106.59375 L 661.113281 107.566406 L 661.371094 108.433594 L 661.628906 109.195313 L 661.886719 109.847656 L 662.144531 110.386719 L 662.402344 110.8125 L 662.660156 111.125 L 662.917969 111.324219 L 663.175781 111.40625 L 663.433594 111.375 L 663.691406 111.230469 L 663.949219 110.96875 L 664.210938 110.59375 L 664.46875 110.105469 L 664.726563 109.503906 L 664.984375 108.792969 L 665.242188 107.976563 L 665.5 107.050781 L 665.757813 106.019531 L 666.015625 104.886719 L 666.273438 103.652344 L 666.53125 102.324219 L 666.789063 100.898438 L 667.304688 97.785156 L 667.5625 96.105469 L 667.824219 94.34375 L 668.339844 90.601563 L 668.597656 88.628906 L 668.855469 86.597656 L 669.371094 82.367188 L 670.402344 73.398438 L 670.660156 71.082031 L 670.917969 68.742188 L 671.4375 64.03125 L 672.46875 54.621094 L 672.726563 52.304688 L 672.984375 50.011719 L 673.5 45.527344 L 674.53125 37.085938 L 674.785156 35.15625 L 675.039063 33.289063 L 675.546875 29.757813 L 675.796875 28.105469 L 676.050781 26.53125 L 676.558594 23.636719 L 676.808594 22.324219 L 677.0625 21.101563 L 677.316406 19.972656 L 677.570313 18.941406 L 677.820313 18.015625 L 678.074219 17.1875 L 678.328125 16.464844 L 678.582031 15.847656 L 678.835938 15.339844 L 679.085938 14.9375 L 679.339844 14.644531 L 679.59375 14.460938 L 679.847656 14.390625 L 680.097656 14.429688 L 680.351563 14.578125 L 680.605469 14.839844 L 680.859375 15.207031 L 681.109375 15.6875 L 681.363281 16.273438 L 681.617188 16.964844 L 681.871094 17.761719 L 682.125 18.660156 L 682.375 19.660156 L 682.628906 20.757813 L 682.882813 21.953125 L 683.136719 23.242188 L 683.640625 26.085938 L 683.894531 27.632813 L 684.148438 29.265625 L 684.652344 32.75 L 684.90625 34.597656 L 685.160156 36.511719 L 685.664063 40.511719 L 686.675781 49.089844 L 686.929688 51.324219 L 687.183594 53.585938 L 687.691406 58.167969 L 688.703125 67.417969 L 688.953125 69.71875 L 689.207031 72 L 689.714844 76.503906 L 690.726563 85.09375 L 691 87.296875 L 691.273438 89.4375 L 691.824219 93.496094 L 692.097656 95.402344 L 692.371094 97.222656 L 692.921875 100.585938 L 693.195313 102.117188 L 693.472656 103.542969 L 693.746094 104.859375 L 694.019531 106.0625 L 694.292969 107.152344 L 694.570313 108.121094 L 694.84375 108.972656 L 695.117188 109.695313 L 695.394531 110.292969 L 695.667969 110.765625 L 695.941406 111.109375 L 696.214844 111.324219 L 696.492188 111.410156 L 696.765625 111.363281 L 697.039063 111.1875 L 697.316406 110.882813 L 697.589844 110.445313 L 697.863281 109.882813 L 698.136719 109.195313 L 698.414063 108.382813 L 698.6875 107.449219 L 698.960938 106.394531 L 699.238281 105.226563 L 699.511719 103.941406 L 699.785156 102.546875 L 700.058594 101.046875 L 700.609375 97.742188 L 700.882813 95.949219 L 701.160156 94.0625 L 701.707031 90.050781 L 701.980469 87.933594 L 702.257813 85.75 L 702.804688 81.199219 L 703.902344 71.566406 L 704.179688 69.082031 L 704.453125 66.582031 L 705 61.558594 L 706.101563 51.609375 L 706.375 49.183594 L 706.648438 46.792969 L 707.199219 42.144531 L 708.296875 33.566406 L 708.550781 31.734375 L 708.808594 29.976563 L 709.320313 26.691406 L 709.578125 25.171875 L 709.832031 23.742188 L 710.34375 21.164063 L 710.601563 20.015625 L 710.859375 18.972656 L 711.113281 18.027344 L 711.371094 17.191406 L 711.625 16.457031 L 711.882813 15.835938 L 712.136719 15.324219 L 712.394531 14.921875 L 712.652344 14.632813 L 712.90625 14.453125 L 713.164063 14.390625 L 713.417969 14.441406 L 713.675781 14.601563 L 713.933594 14.878906 L 714.1875 15.265625 L 714.445313 15.765625 L 714.699219 16.375 L 714.957031 17.09375 L 715.210938 17.917969 L 715.46875 18.847656 L 715.726563 19.878906 L 715.980469 21.011719 L 716.492188 23.570313 L 716.75 24.988281 L 717.003906 26.496094 L 717.519531 29.761719 L 717.773438 31.511719 L 718.03125 33.335938 L 718.542969 37.183594 L 718.796875 39.203125 L 719.054688 41.273438 L 719.566406 45.566406 L 720.589844 54.597656 L 720.847656 56.914063 L 721.105469 59.25 L 721.617188 63.933594 L 722.640625 73.234375 L 722.898438 75.511719 L 723.152344 77.761719 L 723.664063 82.148438 L 724.691406 90.347656 L 724.96875 92.402344 L 725.246094 94.378906 L 725.523438 96.269531 L 725.800781 98.066406 L 726.078125 99.769531 L 726.355469 101.371094 L 726.910156 104.25 L 727.1875 105.523438 L 727.46875 106.675781 L 727.746094 107.710938 L 728.023438 108.625 L 728.300781 109.410156 L 728.578125 110.066406 L 728.855469 110.597656 L 729.132813 110.996094 L 729.410156 111.261719 L 729.6875 111.394531 L 729.964844 111.394531 L 730.242188 111.261719 L 730.519531 110.996094 L 730.800781 110.597656 L 731.078125 110.066406 L 731.355469 109.410156 L 731.632813 108.625 L 731.910156 107.710938 L 732.1875 106.675781 L 732.464844 105.523438 L 732.742188 104.25 L 733.019531 102.867188 L 733.574219 99.769531 L 733.855469 98.066406 L 734.132813 96.269531 L 734.6875 92.402344 L 735.796875 83.746094 L 736.074219 81.421875 L 736.351563 79.046875 L 736.90625 74.175781 L 738.019531 64.109375 L 738.574219 59.03125 L 739.128906 53.992188 L 740.242188 44.265625 L 740.519531 41.945313 L 740.796875 39.683594 L 741.351563 35.355469 L 741.628906 33.300781 L 741.90625 31.328125 L 742.460938 27.648438 L 742.722656 26.0625 L 742.980469 24.5625 L 743.238281 23.152344 L 743.5 21.839844 L 743.757813 20.628906 L 744.015625 19.515625 L 744.277344 18.503906 L 744.535156 17.601563 L 744.796875 16.804688 L 745.054688 16.121094 L 745.3125 15.550781 L 745.574219 15.089844 L 745.832031 14.746094 L 746.09375 14.515625 L 746.351563 14.402344 L 746.609375 14.40625 L 746.871094 14.523438 L 747.128906 14.757813 L 747.386719 15.109375 L 747.648438 15.574219 L 747.90625 16.148438 L 748.167969 16.839844 L 748.425781 17.640625 L 748.683594 18.546875 L 748.945313 19.5625 L 749.203125 20.679688 L 749.460938 21.898438 L 749.722656 23.214844 L 749.980469 24.625 L 750.242188 26.128906 L 750.757813 29.398438 L 751.019531 31.152344 L 751.277344 32.984375 L 751.796875 36.859375 L 752.832031 45.316406 L 754.90625 63.894531 L 755.167969 66.265625 L 755.425781 68.628906 L 755.945313 73.308594 L 756.980469 82.324219 L 757.242188 84.476563 L 757.5 86.574219 L 758.019531 90.597656 L 758.277344 92.511719 L 758.539063 94.355469 L 759.054688 97.8125 L 759.3125 99.390625 L 759.566406 100.878906 L 759.820313 102.285156 L 760.074219 103.597656 L 760.328125 104.816406 L 760.582031 105.9375 L 760.835938 106.960938 L 761.089844 107.882813 L 761.34375 108.703125 L 761.597656 109.417969 L 761.851563 110.023438 L 762.105469 110.519531 L 762.363281 110.910156 L 762.617188 111.1875 L 762.871094 111.355469 L 763.125 111.410156 L 763.378906 111.355469 L 763.632813 111.1875 L 763.886719 110.90625 L 764.140625 110.519531 L 764.394531 110.019531 L 764.648438 109.410156 L 764.902344 108.699219 L 765.15625 107.878906 L 765.410156 106.957031 L 765.667969 105.929688 L 765.921875 104.808594 L 766.175781 103.585938 L 766.429688 102.273438 L 766.683594 100.871094 L 767.191406 97.804688 L 767.445313 96.148438 L 767.699219 94.414063 L 768.207031 90.738281 L 769.226563 82.648438 L 771.257813 64.625 L 771.511719 62.296875 L 771.765625 59.972656 L 772.277344 55.347656 L 773.292969 46.347656 L 773.546875 44.179688 L 773.800781 42.054688 L 774.308594 37.953125 L 774.5625 35.988281 L 774.816406 34.082031 L 775.324219 30.476563 L 775.601563 28.644531 L 775.878906 26.90625 L 776.152344 25.261719 L 776.429688 23.722656 L 776.703125 22.285156 L 776.980469 20.960938 L 777.257813 19.75 L 777.53125 18.65625 L 777.808594 17.679688 L 778.082031 16.828125 L 778.359375 16.101563 L 778.636719 15.5 L 778.910156 15.027344 L 779.1875 14.683594 L 779.460938 14.472656 L 779.738281 14.390625 L 780.015625 14.441406 L 780.289063 14.621094 L 780.566406 14.933594 L 780.839844 15.375 L 781.117188 15.945313 L 781.390625 16.644531 L 781.667969 17.464844 L 781.945313 18.410156 L 782.21875 19.476563 L 782.496094 20.660156 L 782.769531 21.957031 L 783.046875 23.367188 L 783.324219 24.882813 L 783.597656 26.503906 L 784.148438 30.03125 L 784.425781 31.929688 L 784.703125 33.914063 L 785.253906 38.113281 L 786.355469 47.261719 L 788.5625 67.167969 L 788.835938 69.675781 L 789.113281 72.164063 L 789.664063 77.058594 L 789.941406 79.453125 L 790.214844 81.804688 L 790.769531 86.34375 L 791.042969 88.519531 L 791.320313 90.628906 L 791.871094 94.613281 L 792.144531 96.476563 L 792.421875 98.253906 L 792.972656 101.511719 L 793.230469 102.894531 L 793.488281 104.179688 L 793.746094 105.367188 L 794.003906 106.457031 L 794.261719 107.441406 L 794.519531 108.320313 L 794.773438 109.09375 L 795.03125 109.757813 L 795.289063 110.3125 L 795.546875 110.753906 L 795.804688 111.085938 L 796.0625 111.300781 L 796.320313 111.402344 L 796.578125 111.386719 L 796.832031 111.261719 L 797.089844 111.019531 L 797.347656 110.664063 L 797.605469 110.199219 L 797.863281 109.621094 L 798.121094 108.929688 L 798.378906 108.132813 L 798.636719 107.226563 L 798.894531 106.21875 L 799.148438 105.109375 L 799.40625 103.898438 L 799.664063 102.589844 L 800.179688 99.699219 L 800.4375 98.121094 L 800.695313 96.460938 L 801.207031 92.90625 L 801.464844 91.019531 L 801.722656 89.066406 L 802.238281 84.984375 L 803.269531 76.230469 L 805.328125 57.570313 L 805.582031 55.234375 L 805.839844 52.917969 L 806.355469 48.359375 L 806.613281 46.132813 L 806.871094 43.941406 L 807.386719 39.699219 L 807.644531 37.660156 L 807.898438 35.679688 L 808.414063 31.914063 L 808.671875 30.136719 L 808.929688 28.441406 L 809.445313 25.292969 L 809.722656 23.730469 L 810 22.28125 L 810.28125 20.941406 L 810.558594 19.71875 L 810.839844 18.617188 L 811.117188 17.636719 L 811.394531 16.78125 L 811.675781 16.054688 L 811.953125 15.457031 L 812.234375 14.988281 L 812.511719 14.65625 L 812.789063 14.457031 L 813.070313 14.390625 L 813.347656 14.457031 L 813.628906 14.660156 L 813.90625 14.996094 L 814.183594 15.464844 L 814.464844 16.066406 L 814.742188 16.796875 L 815.023438 17.652344 L 815.300781 18.636719 L 815.578125 19.742188 L 815.859375 20.96875 L 816.136719 22.308594 L 816.417969 23.761719 L 816.695313 25.324219 L 817.253906 28.753906 L 817.53125 30.613281 L 817.8125 32.5625 L 818.367188 36.707031 L 818.648438 38.890625 L 818.925781 41.144531 L 819.484375 45.816406 L 820.597656 55.683594 L 820.878906 58.214844 L 821.15625 60.761719 L 821.714844 65.867188 L 822.832031 75.917969 L 823.109375 78.359375 L 823.386719 80.753906 L 823.945313 85.394531 L 824.226563 87.625 L 824.503906 89.785156 L 825.0625 93.878906 L 825.339844 95.800781 L 825.621094 97.628906 L 825.898438 99.363281 L 826.175781 100.996094 L 826.457031 102.523438 L 826.734375 103.941406 L 827.015625 105.242188 L 827.292969 106.429688 L 827.566406 107.476563 L 827.839844 108.40625 L 828.113281 109.214844 L 828.386719 109.898438 L 828.660156 110.457031 L 828.933594 110.886719 L 829.210938 111.1875 L 829.484375 111.363281 L 829.757813 111.410156 L 830.03125 111.324219 L 830.304688 111.109375 L 830.578125 110.765625 L 830.851563 110.296875 L 831.125 109.699219 L 831.398438 108.980469 L 831.671875 108.132813 L 831.945313 107.167969 L 832.222656 106.085938 L 832.496094 104.886719 L 832.769531 103.574219 L 833.042969 102.15625 L 833.316406 100.632813 L 833.863281 97.285156 L 834.136719 95.472656 L 834.410156 93.570313 L 834.960938 89.53125 L 836.054688 80.644531 L 836.328125 78.289063 L 836.601563 75.894531 L 837.148438 71.003906 L 838.246094 61.015625 L 838.519531 58.515625 L 838.792969 56.023438 L 839.339844 51.109375 L 840.433594 41.703125 L 840.707031 39.476563 L 840.984375 37.316406 L 841.53125 33.199219 L 841.804688 31.257813 L 842.078125 29.402344 L 842.625 25.960938 L 842.898438 24.386719 L 843.171875 22.914063 L 843.445313 21.550781 L 843.71875 20.296875 L 843.996094 19.152344 L 844.269531 18.128906 L 844.542969 17.226563 L 844.816406 16.441406 L 845.070313 15.824219 L 845.328125 15.3125 L 845.582031 14.914063 L 845.835938 14.628906 L 846.09375 14.453125 L 846.347656 14.390625 L 846.605469 14.441406 L 846.859375 14.601563 L 847.113281 14.878906 L 847.371094 15.265625 L 847.625 15.761719 L 847.878906 16.367188 L 848.136719 17.082031 L 848.390625 17.902344 L 848.648438 18.828125 L 848.902344 19.855469 L 849.15625 20.984375 L 849.414063 22.207031 L 849.925781 24.9375 L 850.179688 26.4375 L 850.433594 28.023438 L 850.945313 31.429688 L 851.199219 33.246094 L 851.457031 35.128906 L 851.96875 39.085938 L 852.988281 47.625 L 853.246094 49.859375 L 853.5 52.125 L 854.011719 56.730469 L 855.03125 66.0625 L 855.289063 68.390625 L 855.542969 70.707031 L 856.054688 75.277344 L 857.074219 84.035156 L 857.332031 86.113281 L 857.585938 88.140625 L 858.097656 92.011719 L 858.351563 93.847656 L 858.609375 95.609375 L 859.117188 98.90625 L 859.375 100.429688 L 859.628906 101.867188 L 859.886719 103.214844 L 860.140625 104.46875 L 860.394531 105.625 L 860.652344 106.679688 L 860.90625 107.636719 L 861.164063 108.488281 L 861.4375 109.292969 L 861.714844 109.96875 L 861.992188 110.519531 L 862.269531 110.9375 L 862.546875 111.222656 L 862.824219 111.378906 L 863.101563 111.402344 L 863.378906 111.292969 L 863.65625 111.050781 L 863.929688 110.679688 L 864.207031 110.175781 L 864.484375 109.542969 L 864.761719 108.785156 L 865.039063 107.898438 L 865.316406 106.890625 L 865.59375 105.761719 L 865.871094 104.515625 L 866.148438 103.15625 L 866.425781 101.6875 L 866.699219 100.113281 L 866.976563 98.4375 L 867.253906 96.664063 L 867.808594 92.847656 L 868.085938 90.8125 L 868.363281 88.703125 L 868.917969 84.273438 L 870.023438 74.773438 L 870.300781 72.300781 L 870.578125 69.800781 L 871.132813 64.753906 L 872.238281 54.652344 L 872.515625 52.167969 L 872.792969 49.710938 L 873.347656 44.914063 L 874.457031 35.953125 L 874.730469 33.882813 L 875.007813 31.894531 L 875.5625 28.171875 L 875.839844 26.449219 L 876.117188 24.824219 L 876.671875 21.898438 L 876.949219 20.597656 L 877.226563 19.417969 L 877.5 18.351563 L 877.777344 17.410156 L 878.054688 16.59375 L 878.332031 15.902344 L 878.609375 15.335938 L 878.886719 14.902344 L 879.144531 14.617188 L 879.402344 14.445313 L 879.664063 14.390625 L 879.921875 14.449219 L 880.179688 14.625 L 880.4375 14.914063 L 880.695313 15.316406 L 880.953125 15.835938 L 881.214844 16.464844 L 881.472656 17.203125 L 881.730469 18.050781 L 881.988281 19.007813 L 882.246094 20.066406 L 882.507813 21.226563 L 883.023438 23.84375 L 883.28125 25.292969 L 883.539063 26.832031 L 884.058594 30.164063 L 884.316406 31.949219 L 884.574219 33.808594 L 885.089844 37.730469 L 885.351563 39.78125 L 885.609375 41.890625 L 886.125 46.25 L 887.160156 55.402344 L 887.417969 57.75 L 887.675781 60.105469 L 888.195313 64.839844 L 889.230469 74.203125 L 889.488281 76.488281 L 889.746094 78.742188 L 890.261719 83.136719 L 891.296875 91.300781 L 891.554688 93.183594 L 891.8125 94.996094 L 892.332031 98.386719 L 892.589844 99.960938 L 892.847656 101.441406 L 893.367188 104.128906 L 893.625 105.324219 L 893.882813 106.421875 L 894.140625 107.414063 L 894.398438 108.304688 L 894.65625 109.082031 L 894.917969 109.75 L 895.175781 110.308594 L 895.433594 110.753906 L 895.6875 111.078125 L 895.941406 111.292969 L 896.195313 111.398438 L 896.449219 111.394531 L 896.699219 111.277344 L 896.953125 111.046875 L 897.207031 110.710938 L 897.460938 110.261719 L 897.714844 109.707031 L 897.96875 109.042969 L 898.222656 108.273438 L 898.476563 107.402344 L 898.730469 106.429688 L 898.980469 105.355469 L 899.488281 102.921875 L 899.742188 101.5625 L 899.996094 100.117188 L 900.503906 96.976563 L 900.757813 95.285156 L 901.011719 93.523438 L 901.515625 89.789063 L 901.769531 87.828125 L 902.023438 85.808594 L 902.53125 81.621094 L 903.542969 72.769531 L 903.796875 70.488281 L 904.050781 68.1875 L 904.558594 63.558594 L 905.574219 54.320313 L 905.824219 52.046875 L 906.078125 49.800781 L 906.585938 45.398438 L 907.601563 37.113281 L 907.855469 35.179688 L 908.105469 33.308594 L 908.613281 29.769531 L 908.867188 28.113281 L 909.121094 26.539063 L 909.628906 23.636719 L 909.882813 22.320313 L 910.136719 21.09375 L 910.386719 19.964844 L 910.640625 18.9375 L 910.894531 18.007813 L 911.148438 17.179688 L 911.402344 16.457031 L 911.65625 15.839844 L 911.929688 15.292969 L 912.207031 14.875 L 912.480469 14.582031 L 912.753906 14.425781 L 913.03125 14.394531 L 913.304688 14.496094 L 913.582031 14.726563 L 913.855469 15.089844 L 914.128906 15.582031 L 914.40625 16.199219 L 914.679688 16.941406 L 914.957031 17.808594 L 915.230469 18.796875 L 915.503906 19.90625 L 915.78125 21.128906 L 916.054688 22.464844 L 916.332031 23.90625 L 916.605469 25.457031 L 917.15625 28.855469 L 917.429688 30.691406 L 917.707031 32.617188 L 918.253906 36.707031 L 918.53125 38.859375 L 918.804688 41.078125 L 919.355469 45.683594 L 920.457031 55.398438 L 920.730469 57.894531 L 921.003906 60.40625 L 921.554688 65.4375 L 922.65625 75.367188 L 922.929688 77.78125 L 923.207031 80.15625 L 923.753906 84.761719 L 924.855469 93.21875 L 925.128906 95.140625 L 925.40625 96.976563 L 925.679688 98.722656 L 925.957031 100.371094 L 926.230469 101.917969 L 926.503906 103.359375 L 926.78125 104.695313 L 927.054688 105.914063 L 927.332031 107.019531 L 927.605469 108.007813 L 927.878906 108.871094 L 928.15625 109.613281 L 928.429688 110.230469 L 928.707031 110.71875 L 928.980469 111.078125 L 929.253906 111.304688 L 929.511719 111.402344 L 929.769531 111.386719 L 930.027344 111.253906 L 930.28125 111.011719 L 930.539063 110.65625 L 930.796875 110.1875 L 931.050781 109.605469 L 931.308594 108.917969 L 931.566406 108.121094 L 931.820313 107.214844 L 932.078125 106.210938 L 932.335938 105.101563 L 932.589844 103.894531 L 932.847656 102.589844 L 933.363281 99.707031 L 933.617188 98.132813 L 933.875 96.480469 L 934.386719 92.9375 L 935.414063 85.042969 L 935.671875 82.925781 L 935.925781 80.765625 L 936.441406 76.320313 L 937.46875 67.097656 L 937.722656 64.75 L 937.980469 62.402344 L 938.492188 57.714844 L 939.519531 48.527344 L 939.777344 46.300781 L 940.035156 44.113281 L 940.546875 39.878906 L 941.574219 32.089844 L 941.828125 30.3125 L 942.085938 28.609375 L 942.34375 26.988281 L 942.597656 25.453125 L 942.855469 24.003906 L 943.113281 22.648438 L 943.371094 21.382813 L 943.625 20.21875 L 943.882813 19.152344 L 944.140625 18.1875 L 944.394531 17.328125 L 944.652344 16.578125 L 944.910156 15.933594 L 945.164063 15.402344 L 945.421875 14.980469 L 945.679688 14.671875 L 945.964844 14.460938 L 946.25 14.390625 L 946.539063 14.460938 L 946.824219 14.675781 L 947.109375 15.027344 L 947.398438 15.523438 L 947.683594 16.15625 L 947.96875 16.921875 L 948.257813 17.828125 L 948.542969 18.863281 L 948.828125 20.023438 L 949.117188 21.3125 L 949.402344 22.722656 L 949.6875 24.25 L 950.261719 27.640625 L 950.546875 29.492188 L 950.835938 31.441406 L 951.40625 35.609375 L 952.554688 44.847656 L 952.839844 47.308594 L 953.125 49.8125 L 953.699219 54.929688 L 954.84375 65.382813 L 955.132813 67.996094 L 955.417969 70.59375 L 955.992188 75.71875 L 956.277344 78.226563 L 956.5625 80.691406 L 957.136719 85.457031 L 957.421875 87.746094 L 957.710938 89.960938 L 958.28125 94.144531 L 958.570313 96.105469 L 958.855469 97.96875 L 959.429688 101.378906 L 959.714844 102.917969 L 960 104.339844 L 960.289063 105.644531 L 960.574219 106.820313 L 960.859375 107.871094 L 961.148438 108.785156 L 961.433594 109.570313 L 961.71875 110.214844 L 962.007813 110.726563 L 962.292969 111.09375 L 962.578125 111.324219 L 962.867188 111.410156 L 963.152344 111.355469 L 963.4375 111.15625 L 963.726563 110.820313 L 964.011719 110.34375 " transform="matrix(1,0,0,1,-112,-9)"/>
</g>
</g>
</svg>
