<?xml version="1.0" encoding="UTF-8"?>
<svg xmlns="http://www.w3.org/2000/svg" xmlns:xlink="http://www.w3.org/1999/xlink" width="870pt" height="109pt" viewBox="0 0 870 109" version="1.1">
<defs>
<clipPath id="clip1">
  <path d="M 4 0 L 865 0 L 865 108 L 4 108 Z M 4 0 "/>
</clipPath>
</defs>
<g id="surface36">
<g clip-path="url(#clip1)" clip-rule="nonzero">
<path style="fill:none;stroke-width:2.72;stroke-linecap:square;stroke-linejoin:miter;stroke:rgb(36.84082%,50.67749%,70.979309%);stroke-opacity:1;stroke-miterlimit:3.25;" d="M 129.386719 61.566406 L 129.644531 61.605469 L 129.898438 61.65625 L 130.15625 61.722656 L 130.410156 61.804688 L 130.667969 61.898438 L 130.925781 62 L 131.179688 62.113281 L 131.4375 62.230469 L 131.691406 62.359375 L 131.949219 62.492188 L 132.460938 62.769531 L 133.484375 63.328125 L 133.738281 63.460938 L 133.996094 63.585938 L 134.25 63.707031 L 134.507813 63.816406 L 134.761719 63.917969 L 135.019531 64.007813 L 135.277344 64.085938 L 135.53125 64.148438 L 135.789063 64.199219 L 136.042969 64.234375 L 136.300781 64.253906 L 136.554688 64.257813 L 136.8125 64.242188 L 137.066406 64.210938 L 137.324219 64.160156 L 137.578125 64.089844 L 137.835938 64.003906 L 138.089844 63.894531 L 138.347656 63.769531 L 138.601563 63.625 L 138.859375 63.464844 L 139.113281 63.28125 L 139.371094 63.082031 L 139.628906 62.867188 L 139.882813 62.636719 L 140.140625 62.386719 L 140.652344 61.851563 L 140.90625 61.5625 L 141.164063 61.261719 L 141.675781 60.636719 L 141.929688 60.3125 L 142.1875 59.984375 L 142.699219 59.316406 L 142.953125 58.980469 L 143.210938 58.648438 L 143.722656 57.992188 L 143.980469 57.671875 L 144.234375 57.363281 L 144.746094 56.78125 L 145.003906 56.507813 L 145.257813 56.253906 L 145.515625 56.015625 L 145.769531 55.800781 L 146.046875 55.589844 L 146.324219 55.40625 L 146.601563 55.25 L 146.878906 55.128906 L 147.15625 55.035156 L 147.4375 54.980469 L 147.714844 54.960938 L 147.992188 54.976563 L 148.269531 55.03125 L 148.546875 55.125 L 148.824219 55.257813 L 149.101563 55.429688 L 149.378906 55.644531 L 149.65625 55.898438 L 149.933594 56.195313 L 150.210938 56.53125 L 150.488281 56.90625 L 150.765625 57.320313 L 151.042969 57.769531 L 151.320313 58.257813 L 151.597656 58.78125 L 151.875 59.339844 L 152.429688 60.550781 L 152.707031 61.199219 L 152.984375 61.871094 L 153.539063 63.28125 L 154.652344 66.289063 L 154.929688 67.058594 L 155.207031 67.832031 L 155.761719 69.363281 L 156.039063 70.117188 L 156.316406 70.855469 L 156.871094 72.28125 L 157.148438 72.957031 L 157.425781 73.605469 L 157.703125 74.222656 L 157.980469 74.804688 L 158.257813 75.351563 L 158.535156 75.855469 L 158.8125 76.3125 L 159.089844 76.722656 L 159.367188 77.082031 L 159.644531 77.390625 L 159.921875 77.644531 L 160.199219 77.835938 L 160.476563 77.972656 L 160.757813 78.046875 L 161.035156 78.058594 L 161.3125 78.007813 L 161.589844 77.890625 L 161.867188 77.710938 L 162.144531 77.460938 L 162.421875 77.148438 L 162.699219 76.769531 L 162.976563 76.328125 L 163.253906 75.820313 L 163.53125 75.25 L 163.789063 74.660156 L 164.050781 74.019531 L 164.566406 72.585938 L 164.828125 71.800781 L 165.085938 70.96875 L 165.605469 69.179688 L 165.863281 68.230469 L 166.121094 67.246094 L 166.640625 65.191406 L 167.675781 60.828125 L 167.9375 59.707031 L 168.195313 58.582031 L 168.714844 56.335938 L 168.972656 55.222656 L 169.230469 54.125 L 169.75 51.980469 L 170.007813 50.941406 L 170.269531 49.933594 L 170.785156 48.023438 L 171.046875 47.128906 L 171.304688 46.277344 L 171.824219 44.726563 L 172.082031 44.035156 L 172.339844 43.398438 L 172.601563 42.828125 L 172.859375 42.320313 L 173.117188 41.882813 L 173.378906 41.511719 L 173.636719 41.214844 L 173.894531 40.992188 L 174.15625 40.84375 L 174.414063 40.773438 L 174.671875 40.78125 L 174.933594 40.871094 L 175.191406 41.035156 L 175.449219 41.28125 L 175.710938 41.609375 L 175.96875 42.015625 L 176.226563 42.5 L 176.488281 43.0625 L 176.746094 43.703125 L 177.003906 44.417969 L 177.265625 45.207031 L 177.523438 46.066406 L 178.042969 47.992188 L 178.300781 49.050781 L 178.558594 50.171875 L 179.078125 52.578125 L 180.113281 57.945313 L 180.367188 59.347656 L 180.621094 60.777344 L 181.128906 63.695313 L 182.148438 69.621094 L 182.402344 71.089844 L 182.65625 72.546875 L 183.164063 75.398438 L 184.179688 80.695313 L 184.433594 81.910156 L 184.6875 83.070313 L 184.941406 84.167969 L 185.195313 85.207031 L 185.449219 86.175781 L 185.703125 87.074219 L 185.957031 87.898438 L 186.210938 88.648438 L 186.464844 89.3125 L 186.71875 89.894531 L 186.972656 90.386719 L 187.226563 90.792969 L 187.480469 91.105469 L 187.734375 91.324219 L 187.988281 91.449219 L 188.242188 91.476563 L 188.496094 91.410156 L 188.75 91.246094 L 189.007813 90.980469 L 189.261719 90.621094 L 189.515625 90.164063 L 189.769531 89.613281 L 190.023438 88.964844 L 190.277344 88.222656 L 190.53125 87.390625 L 190.785156 86.46875 L 191.039063 85.457031 L 191.292969 84.367188 L 191.546875 83.191406 L 191.800781 81.941406 L 192.308594 79.21875 L 192.5625 77.761719 L 192.816406 76.238281 L 193.324219 73.035156 L 194.339844 66.121094 L 196.371094 51.582031 L 196.648438 49.667969 L 196.925781 47.796875 L 197.476563 44.199219 L 197.75 42.488281 L 198.027344 40.851563 L 198.578125 37.808594 L 198.851563 36.417969 L 199.128906 35.125 L 199.402344 33.933594 L 199.679688 32.847656 L 199.957031 31.878906 L 200.230469 31.023438 L 200.507813 30.289063 L 200.78125 29.679688 L 201.058594 29.199219 L 201.332031 28.851563 L 201.609375 28.632813 L 201.882813 28.550781 L 202.160156 28.605469 L 202.433594 28.796875 L 202.710938 29.125 L 202.988281 29.589844 L 203.261719 30.1875 L 203.539063 30.921875 L 203.8125 31.785156 L 204.089844 32.78125 L 204.363281 33.898438 L 204.640625 35.140625 L 204.914063 36.496094 L 205.191406 37.96875 L 205.464844 39.546875 L 205.742188 41.226563 L 206.292969 44.871094 L 207.394531 53.078125 L 207.671875 55.277344 L 207.945313 57.519531 L 208.496094 62.09375 L 209.601563 71.359375 L 209.875 73.644531 L 210.152344 75.898438 L 210.703125 80.277344 L 210.976563 82.386719 L 211.253906 84.429688 L 211.804688 88.277344 L 212.082031 90.070313 L 212.355469 91.761719 L 212.632813 93.347656 L 212.90625 94.824219 L 213.183594 96.175781 L 213.457031 97.40625 L 213.734375 98.503906 L 214.007813 99.464844 L 214.265625 100.238281 L 214.523438 100.882813 L 214.78125 101.398438 L 215.039063 101.785156 L 215.296875 102.042969 L 215.550781 102.160156 L 215.808594 102.144531 L 216.066406 101.996094 L 216.324219 101.710938 L 216.582031 101.289063 L 216.839844 100.734375 L 217.09375 100.046875 L 217.351563 99.226563 L 217.609375 98.277344 L 217.867188 97.203125 L 218.125 96.007813 L 218.382813 94.691406 L 218.636719 93.261719 L 219.152344 90.074219 L 219.410156 88.328125 L 219.667969 86.488281 L 220.179688 82.546875 L 220.4375 80.460938 L 220.695313 78.304688 L 221.210938 73.820313 L 222.238281 64.355469 L 222.496094 61.9375 L 222.753906 59.511719 L 223.269531 54.675781 L 224.296875 45.3125 L 224.554688 43.082031 L 224.8125 40.914063 L 225.324219 36.792969 L 225.582031 34.851563 L 225.839844 33 L 226.355469 29.597656 L 226.609375 28.054688 L 226.867188 26.628906 L 227.125 25.324219 L 227.382813 24.144531 L 227.640625 23.09375 L 227.898438 22.179688 L 228.152344 21.398438 L 228.410156 20.761719 L 228.667969 20.265625 L 228.925781 19.917969 L 229.183594 19.714844 L 229.441406 19.660156 L 229.695313 19.753906 L 229.953125 19.996094 L 230.210938 20.390625 L 230.46875 20.929688 L 230.746094 21.675781 L 231.027344 22.59375 L 231.304688 23.679688 L 231.582031 24.925781 L 231.863281 26.328125 L 232.140625 27.886719 L 232.417969 29.585938 L 232.699219 31.429688 L 232.976563 33.402344 L 233.253906 35.503906 L 233.8125 40.042969 L 234.929688 50.234375 L 235.207031 52.953125 L 235.484375 55.71875 L 236.042969 61.355469 L 237.15625 72.691406 L 237.4375 75.472656 L 237.714844 78.214844 L 238.273438 83.515625 L 238.550781 86.054688 L 238.828125 88.507813 L 239.386719 93.113281 L 239.664063 95.242188 L 239.945313 97.25 L 240.222656 99.121094 L 240.503906 100.847656 L 240.78125 102.429688 L 241.058594 103.851563 L 241.339844 105.113281 L 241.617188 106.207031 L 241.894531 107.128906 L 242.175781 107.871094 L 242.453125 108.4375 L 242.730469 108.816406 L 243.011719 109.015625 L 243.289063 109.023438 L 243.566406 108.847656 L 243.847656 108.488281 L 244.125 107.941406 L 244.402344 107.210938 L 244.683594 106.300781 L 244.960938 105.210938 L 245.238281 103.953125 L 245.519531 102.523438 L 245.796875 100.929688 L 246.078125 99.183594 L 246.355469 97.285156 L 246.632813 95.246094 L 247.191406 90.769531 L 247.46875 88.355469 L 247.75 85.832031 L 248.304688 80.503906 L 248.578125 77.773438 L 248.851563 74.976563 L 249.402344 69.246094 L 250.496094 57.527344 L 250.769531 54.613281 L 251.042969 51.722656 L 251.589844 46.074219 L 252.683594 35.601563 L 252.957031 33.214844 L 253.230469 30.941406 L 253.503906 28.789063 L 253.777344 26.769531 L 254.050781 24.886719 L 254.324219 23.148438 L 254.597656 21.5625 L 254.871094 20.136719 L 255.148438 18.875 L 255.421875 17.78125 L 255.695313 16.867188 L 255.96875 16.125 L 256.242188 15.570313 L 256.515625 15.195313 L 256.789063 15.003906 L 257.0625 15.003906 L 257.335938 15.1875 L 257.609375 15.554688 L 257.882813 16.109375 L 258.15625 16.84375 L 258.429688 17.761719 L 258.703125 18.855469 L 258.976563 20.121094 L 259.25 21.550781 L 259.523438 23.144531 L 259.796875 24.898438 L 260.070313 26.796875 L 260.34375 28.835938 L 260.617188 31.011719 L 260.894531 33.3125 L 261.441406 38.257813 L 261.714844 40.878906 L 261.988281 43.589844 L 262.535156 49.230469 L 263.628906 61.074219 L 263.902344 64.085938 L 264.175781 67.09375 L 264.722656 73.054688 L 265.816406 84.425781 L 266.074219 86.914063 L 266.328125 89.320313 L 266.839844 93.859375 L 267.09375 95.976563 L 267.347656 97.984375 L 267.859375 101.632813 L 268.113281 103.265625 L 268.371094 104.761719 L 268.625 106.113281 L 268.878906 107.324219 L 269.136719 108.382813 L 269.390625 109.285156 L 269.648438 110.03125 L 269.902344 110.621094 L 270.15625 111.046875 L 270.414063 111.308594 L 270.667969 111.410156 L 270.921875 111.34375 L 271.179688 111.117188 L 271.433594 110.726563 L 271.6875 110.171875 L 271.945313 109.460938 L 272.199219 108.589844 L 272.453125 107.5625 L 272.710938 106.386719 L 272.964844 105.0625 L 273.21875 103.597656 L 273.476563 101.996094 L 273.984375 98.398438 L 274.242188 96.417969 L 274.496094 94.324219 L 275.007813 89.828125 L 276.027344 79.8125 L 276.28125 77.148438 L 276.539063 74.433594 L 277.046875 68.902344 L 278.070313 57.6875 L 278.324219 54.910156 L 278.578125 52.15625 L 279.089844 46.777344 L 279.34375 44.164063 L 279.601563 41.617188 L 280.109375 36.753906 L 280.367188 34.453125 L 280.621094 32.25 L 280.875 30.152344 L 281.132813 28.167969 L 281.386719 26.300781 L 281.640625 24.558594 L 281.898438 22.949219 L 282.152344 21.472656 L 282.429688 20.035156 L 282.707031 18.765625 L 282.984375 17.675781 L 283.261719 16.765625 L 283.535156 16.039063 L 283.8125 15.5 L 284.089844 15.152344 L 284.367188 14.992188 L 284.644531 15.023438 L 284.921875 15.242188 L 285.199219 15.65625 L 285.472656 16.253906 L 285.75 17.035156 L 286.027344 18 L 286.304688 19.140625 L 286.582031 20.457031 L 286.859375 21.9375 L 287.136719 23.582031 L 287.410156 25.378906 L 287.6875 27.324219 L 287.964844 29.40625 L 288.242188 31.621094 L 288.796875 36.40625 L 289.070313 38.953125 L 289.347656 41.597656 L 289.902344 47.113281 L 291.007813 58.757813 L 291.285156 61.726563 L 291.5625 64.699219 L 292.117188 70.59375 L 292.394531 73.496094 L 292.671875 76.347656 L 293.222656 81.871094 L 293.5 84.519531 L 293.777344 87.074219 L 294.332031 91.875 L 294.609375 94.101563 L 294.882813 96.203125 L 295.4375 99.980469 L 295.714844 101.648438 L 295.992188 103.160156 L 296.269531 104.507813 L 296.542969 105.6875 L 296.820313 106.695313 L 297.097656 107.527344 L 297.375 108.179688 L 297.652344 108.648438 L 297.929688 108.9375 L 298.207031 109.042969 L 298.480469 108.960938 L 298.757813 108.699219 L 299.035156 108.257813 L 299.3125 107.632813 L 299.589844 106.832031 L 299.867188 105.859375 L 300.125 104.800781 L 300.382813 103.597656 L 300.640625 102.253906 L 300.898438 100.777344 L 301.15625 99.175781 L 301.417969 97.449219 L 301.933594 93.652344 L 302.191406 91.597656 L 302.449219 89.449219 L 302.964844 84.898438 L 304 75.011719 L 304.257813 72.425781 L 304.515625 69.816406 L 305.035156 64.550781 L 306.066406 54.097656 L 306.324219 51.554688 L 306.582031 49.058594 L 307.101563 44.238281 L 307.359375 41.925781 L 307.617188 39.695313 L 308.132813 35.5 L 308.390625 33.550781 L 308.652344 31.707031 L 308.910156 29.976563 L 309.167969 28.367188 L 309.425781 26.878906 L 309.683594 25.519531 L 309.941406 24.296875 L 310.203125 23.207031 L 310.460938 22.261719 L 310.71875 21.457031 L 310.976563 20.800781 L 311.234375 20.289063 L 311.492188 19.929688 L 311.75 19.71875 L 312.011719 19.660156 L 312.269531 19.75 L 312.527344 19.988281 L 312.785156 20.375 L 313.042969 20.910156 L 313.300781 21.585938 L 313.558594 22.40625 L 313.820313 23.359375 L 314.078125 24.453125 L 314.335938 25.671875 L 314.59375 27.015625 L 314.851563 28.484375 L 315.367188 31.75 L 315.628906 33.542969 L 315.886719 35.429688 L 316.402344 39.464844 L 316.65625 41.554688 L 316.910156 43.707031 L 317.414063 48.175781 L 318.429688 57.550781 L 318.683594 59.9375 L 318.933594 62.328125 L 319.441406 67.078125 L 320.453125 76.246094 L 320.707031 78.425781 L 320.960938 80.546875 L 321.46875 84.578125 L 321.722656 86.480469 L 321.976563 88.292969 L 322.480469 91.640625 L 322.734375 93.164063 L 322.988281 94.582031 L 323.242188 95.886719 L 323.496094 97.078125 L 323.746094 98.152344 L 324 99.101563 L 324.253906 99.925781 L 324.507813 100.625 L 324.761719 101.195313 L 325.015625 101.636719 L 325.265625 101.945313 L 325.519531 102.125 L 325.773438 102.171875 L 326.027344 102.085938 L 326.28125 101.871094 L 326.535156 101.527344 L 326.789063 101.054688 L 327.039063 100.457031 L 327.292969 99.738281 L 327.546875 98.898438 L 327.800781 97.945313 L 328.054688 96.875 L 328.308594 95.699219 L 328.558594 94.417969 L 328.8125 93.039063 L 329.066406 91.566406 L 329.574219 88.355469 L 329.828125 86.628906 L 330.082031 84.835938 L 330.585938 81.054688 L 330.839844 79.085938 L 331.09375 77.070313 L 331.601563 72.933594 L 332.613281 64.4375 L 332.886719 62.128906 L 333.164063 59.832031 L 333.710938 55.328125 L 333.988281 53.132813 L 334.261719 50.988281 L 334.8125 46.882813 L 335.085938 44.9375 L 335.359375 43.074219 L 335.636719 41.300781 L 335.910156 39.621094 L 336.1875 38.039063 L 336.460938 36.566406 L 336.734375 35.207031 L 337.011719 33.964844 L 337.285156 32.839844 L 337.558594 31.84375 L 337.835938 30.972656 L 338.109375 30.234375 L 338.382813 29.625 L 338.660156 29.152344 L 338.933594 28.816406 L 339.207031 28.617188 L 339.484375 28.550781 L 339.757813 28.621094 L 340.035156 28.828125 L 340.308594 29.164063 L 340.582031 29.632813 L 340.859375 30.226563 L 341.132813 30.949219 L 341.40625 31.789063 L 341.683594 32.746094 L 341.957031 33.816406 L 342.230469 34.992188 L 342.507813 36.273438 L 342.78125 37.648438 L 343.054688 39.113281 L 343.605469 42.289063 L 343.882813 43.988281 L 344.15625 45.746094 L 344.707031 49.421875 L 345.804688 57.191406 L 346.078125 59.175781 L 346.355469 61.15625 L 346.902344 65.09375 L 347.179688 67.03125 L 347.453125 68.9375 L 348.003906 72.628906 L 348.277344 74.402344 L 348.554688 76.113281 L 349.101563 79.339844 L 349.378906 80.839844 L 349.652344 82.257813 L 350.203125 84.824219 L 350.457031 85.894531 L 350.714844 86.875 L 350.972656 87.765625 L 351.226563 88.566406 L 351.484375 89.273438 L 351.742188 89.882813 L 351.996094 90.394531 L 352.253906 90.808594 L 352.511719 91.125 L 352.765625 91.339844 L 353.023438 91.457031 L 353.277344 91.476563 L 353.535156 91.394531 L 353.792969 91.214844 L 354.046875 90.941406 L 354.304688 90.574219 L 354.5625 90.117188 L 354.816406 89.566406 L 355.074219 88.929688 L 355.332031 88.207031 L 355.585938 87.40625 L 355.84375 86.527344 L 356.355469 84.550781 L 356.613281 83.464844 L 356.871094 82.3125 L 357.382813 79.847656 L 358.40625 74.390625 L 358.664063 72.949219 L 358.921875 71.484375 L 359.433594 68.507813 L 360.460938 62.535156 L 360.714844 61.070313 L 360.972656 59.621094 L 361.484375 56.808594 L 362.511719 51.628906 L 362.765625 50.449219 L 363.023438 49.328125 L 363.28125 48.265625 L 363.535156 47.261719 L 363.792969 46.324219 L 364.050781 45.453125 L 364.304688 44.652344 L 364.5625 43.921875 L 364.820313 43.261719 L 365.074219 42.679688 L 365.332031 42.175781 L 365.589844 41.746094 L 365.84375 41.394531 L 366.101563 41.121094 L 366.355469 40.925781 L 366.613281 40.808594 L 366.890625 40.769531 L 367.167969 40.820313 L 367.449219 40.960938 L 367.726563 41.1875 L 368.003906 41.503906 L 368.28125 41.898438 L 368.558594 42.375 L 368.835938 42.929688 L 369.117188 43.558594 L 369.394531 44.257813 L 369.671875 45.023438 L 369.949219 45.851563 L 370.226563 46.738281 L 370.503906 47.679688 L 371.0625 49.703125 L 371.339844 50.777344 L 371.617188 51.886719 L 372.171875 54.1875 L 373.285156 58.976563 L 373.5625 60.183594 L 373.839844 61.378906 L 374.398438 63.738281 L 375.507813 68.164063 L 375.785156 69.183594 L 376.066406 70.160156 L 376.34375 71.09375 L 376.621094 71.976563 L 376.898438 72.808594 L 377.175781 73.585938 L 377.453125 74.308594 L 377.730469 74.96875 L 378.011719 75.566406 L 378.289063 76.105469 L 378.566406 76.578125 L 378.84375 76.988281 L 379.121094 77.332031 L 379.398438 77.609375 L 379.679688 77.820313 L 379.957031 77.964844 L 380.234375 78.042969 L 380.511719 78.0625 L 380.789063 78.011719 L 381.066406 77.902344 L 381.347656 77.734375 L 381.625 77.507813 L 381.902344 77.222656 L 382.179688 76.882813 L 382.457031 76.492188 L 382.734375 76.054688 L 383.015625 75.570313 L 383.292969 75.039063 L 383.570313 74.472656 L 383.847656 73.867188 L 384.402344 72.5625 L 384.675781 71.882813 L 384.949219 71.183594 L 385.496094 69.726563 L 386.585938 66.710938 L 386.859375 65.953125 L 387.132813 65.203125 L 387.679688 63.730469 L 388.769531 60.988281 L 389.042969 60.359375 L 389.316406 59.757813 L 389.589844 59.1875 L 389.859375 58.648438 L 390.132813 58.140625 L 390.40625 57.667969 L 390.679688 57.230469 L 390.953125 56.832031 L 391.226563 56.472656 L 391.5 56.148438 L 391.773438 55.863281 L 392.042969 55.617188 L 392.316406 55.410156 L 392.589844 55.246094 L 392.863281 55.117188 L 393.136719 55.027344 L 393.410156 54.976563 L 393.683594 54.960938 L 393.953125 54.980469 L 394.226563 55.035156 L 394.5 55.125 L 394.773438 55.246094 L 395.046875 55.394531 L 395.320313 55.574219 L 395.59375 55.777344 L 395.863281 56.007813 L 396.136719 56.261719 L 396.410156 56.53125 L 396.683594 56.824219 L 396.957031 57.132813 L 397.503906 57.785156 L 397.773438 58.128906 L 398.046875 58.476563 L 398.59375 59.1875 L 398.867188 59.546875 L 399.140625 59.902344 L 399.683594 60.601563 L 399.957031 60.9375 L 400.230469 61.269531 L 400.777344 61.890625 L 401.050781 62.183594 L 401.324219 62.460938 L 401.867188 62.957031 L 402.121094 63.167969 L 402.378906 63.355469 L 402.632813 63.53125 L 402.886719 63.683594 L 403.140625 63.820313 L 403.394531 63.9375 L 403.648438 64.039063 L 403.902344 64.117188 L 404.160156 64.179688 L 404.414063 64.222656 L 404.667969 64.25 L 404.921875 64.257813 L 405.175781 64.25 L 405.429688 64.226563 L 405.6875 64.183594 L 405.941406 64.128906 L 406.195313 64.0625 L 406.449219 63.980469 L 406.703125 63.886719 L 406.957031 63.785156 L 407.210938 63.671875 L 407.46875 63.550781 L 407.976563 63.289063 L 408.484375 63.015625 L 408.992188 62.734375 L 409.25 62.597656 L 409.503906 62.460938 L 410.011719 62.203125 L 410.265625 62.085938 L 410.519531 61.976563 L 410.777344 61.875 L 411.03125 61.789063 L 411.285156 61.710938 L 411.539063 61.644531 L 411.792969 61.597656 L 412.046875 61.5625 L 412.300781 61.542969 L 412.558594 61.539063 L 412.8125 61.550781 L 413.066406 61.582031 L 413.320313 61.632813 L 413.574219 61.703125 L 413.828125 61.789063 L 414.082031 61.894531 L 414.339844 62.019531 L 414.59375 62.160156 L 414.847656 62.320313 L 415.101563 62.5 L 415.355469 62.695313 L 415.609375 62.910156 L 416.121094 63.382813 L 416.375 63.644531 L 416.628906 63.914063 L 417.136719 64.496094 L 418.15625 65.765625 L 418.433594 66.125 L 418.707031 66.484375 L 419.261719 67.207031 L 419.535156 67.5625 L 419.8125 67.910156 L 420.363281 68.578125 L 420.640625 68.894531 L 420.917969 69.191406 L 421.191406 69.472656 L 421.46875 69.734375 L 421.742188 69.96875 L 422.019531 70.183594 L 422.296875 70.371094 L 422.570313 70.527344 L 422.847656 70.652344 L 423.125 70.746094 L 423.398438 70.808594 L 423.675781 70.835938 L 423.953125 70.824219 L 424.226563 70.777344 L 424.503906 70.6875 L 424.78125 70.5625 L 425.054688 70.398438 L 425.332031 70.191406 L 425.609375 69.945313 L 425.882813 69.660156 L 426.160156 69.335938 L 426.4375 68.972656 L 426.710938 68.566406 L 426.988281 68.125 L 427.265625 67.648438 L 427.539063 67.132813 L 428.09375 66.007813 L 428.367188 65.398438 L 428.644531 64.761719 L 429.195313 63.410156 L 429.472656 62.703125 L 429.75 61.980469 L 430.300781 60.488281 L 431.40625 57.425781 L 431.679688 56.664063 L 431.957031 55.914063 L 432.507813 54.449219 L 432.785156 53.742188 L 433.0625 53.0625 L 433.613281 51.78125 L 433.890625 51.1875 L 434.164063 50.632813 L 434.441406 50.117188 L 434.71875 49.644531 L 434.992188 49.21875 L 435.269531 48.84375 L 435.546875 48.515625 L 435.820313 48.242188 L 436.078125 48.039063 L 436.335938 47.886719 L 436.59375 47.785156 L 436.851563 47.738281 L 437.109375 47.742188 L 437.367188 47.804688 L 437.625 47.921875 L 437.882813 48.09375 L 438.140625 48.324219 L 438.398438 48.613281 L 438.65625 48.953125 L 438.914063 49.355469 L 439.171875 49.808594 L 439.429688 50.316406 L 439.6875 50.882813 L 439.945313 51.496094 L 440.203125 52.164063 L 440.457031 52.878906 L 440.972656 54.449219 L 441.230469 55.296875 L 441.488281 56.1875 L 442.003906 58.078125 L 442.261719 59.074219 L 442.519531 60.097656 L 443.035156 62.210938 L 444.066406 66.628906 L 444.582031 68.863281 L 445.097656 71.078125 L 445.355469 72.164063 L 445.613281 73.230469 L 446.125 75.296875 L 446.382813 76.285156 L 446.640625 77.238281 L 446.898438 78.152344 L 447.15625 79.023438 L 447.414063 79.851563 L 447.671875 80.625 L 447.929688 81.347656 L 448.1875 82.015625 L 448.445313 82.621094 L 448.703125 83.167969 L 448.960938 83.644531 L 449.21875 84.058594 L 449.476563 84.398438 L 449.734375 84.667969 L 449.992188 84.863281 L 450.25 84.984375 L 450.507813 85.027344 L 450.765625 84.992188 L 451.023438 84.878906 L 451.28125 84.6875 L 451.539063 84.417969 L 451.792969 84.070313 L 452.050781 83.640625 L 452.308594 83.136719 L 452.589844 82.5 L 452.867188 81.777344 L 453.148438 80.96875 L 453.425781 80.074219 L 453.707031 79.097656 L 453.984375 78.046875 L 454.542969 75.71875 L 454.824219 74.457031 L 455.101563 73.128906 L 455.660156 70.3125 L 456.777344 64.171875 L 457.054688 62.566406 L 457.335938 60.945313 L 457.894531 57.683594 L 459.011719 51.273438 L 459.289063 49.738281 L 459.570313 48.238281 L 460.125 45.382813 L 460.40625 44.039063 L 460.683594 42.761719 L 461.242188 40.421875 L 461.523438 39.371094 L 461.800781 38.410156 L 462.082031 37.539063 L 462.359375 36.761719 L 462.640625 36.089844 L 462.917969 35.519531 L 463.199219 35.054688 L 463.476563 34.703125 L 463.757813 34.460938 L 464.035156 34.335938 L 464.3125 34.324219 L 464.59375 34.433594 L 464.871094 34.65625 L 465.152344 35 L 465.429688 35.460938 L 465.710938 36.039063 L 465.988281 36.730469 L 466.269531 37.535156 L 466.546875 38.449219 L 466.828125 39.472656 L 467.105469 40.597656 L 467.386719 41.828125 L 467.945313 44.566406 L 468.222656 46.070313 L 468.5 47.652344 L 469.058594 51.035156 L 470.175781 58.488281 L 470.449219 60.417969 L 470.726563 62.371094 L 471.273438 66.316406 L 472.371094 74.15625 L 472.644531 76.058594 L 472.917969 77.921875 L 473.464844 81.503906 L 473.738281 83.207031 L 474.015625 84.84375 L 474.5625 87.878906 L 474.835938 89.269531 L 475.109375 90.5625 L 475.382813 91.757813 L 475.660156 92.847656 L 475.933594 93.824219 L 476.207031 94.6875 L 476.480469 95.429688 L 476.753906 96.050781 L 477.027344 96.542969 L 477.304688 96.910156 L 477.578125 97.140625 L 477.851563 97.242188 L 478.125 97.207031 L 478.398438 97.035156 L 478.671875 96.730469 L 478.949219 96.289063 L 479.222656 95.714844 L 479.496094 95.007813 L 479.769531 94.171875 L 480.042969 93.207031 L 480.316406 92.117188 L 480.59375 90.90625 L 480.867188 89.578125 L 481.140625 88.136719 L 481.414063 86.585938 L 481.6875 84.9375 L 482.238281 81.355469 L 482.511719 79.433594 L 482.785156 77.441406 L 483.332031 73.253906 L 483.605469 71.078125 L 483.882813 68.859375 L 484.429688 64.320313 L 485.527344 55.105469 L 485.800781 52.824219 L 486.074219 50.570313 L 486.621094 46.1875 L 486.894531 44.070313 L 487.171875 42.015625 L 487.71875 38.136719 L 487.972656 36.441406 L 488.230469 34.828125 L 488.484375 33.304688 L 488.742188 31.875 L 488.996094 30.546875 L 489.253906 29.320313 L 489.507813 28.203125 L 489.765625 27.199219 L 490.019531 26.3125 L 490.273438 25.550781 L 490.53125 24.910156 L 490.785156 24.394531 L 491.042969 24.011719 L 491.296875 23.757813 L 491.554688 23.636719 L 491.808594 23.648438 L 492.066406 23.792969 L 492.320313 24.074219 L 492.578125 24.488281 L 492.832031 25.035156 L 493.085938 25.710938 L 493.34375 26.519531 L 493.597656 27.457031 L 493.855469 28.515625 L 494.109375 29.695313 L 494.367188 30.996094 L 494.621094 32.40625 L 494.878906 33.929688 L 495.132813 35.558594 L 495.390625 37.285156 L 495.898438 41.015625 L 496.15625 43.003906 L 496.410156 45.070313 L 496.921875 49.402344 L 497.945313 58.652344 L 498.203125 61.042969 L 498.457031 63.445313 L 498.96875 68.265625 L 499.992188 77.726563 L 500.246094 80.003906 L 500.503906 82.234375 L 501.015625 86.507813 L 501.269531 88.535156 L 501.527344 90.488281 L 502.035156 94.117188 L 502.292969 95.785156 L 502.546875 97.34375 L 502.804688 98.792969 L 503.058594 100.125 L 503.316406 101.332031 L 503.570313 102.414063 L 503.828125 103.363281 L 504.082031 104.179688 L 504.359375 104.90625 L 504.636719 105.46875 L 504.914063 105.859375 L 505.191406 106.082031 L 505.46875 106.132813 L 505.746094 106.011719 L 506.023438 105.714844 L 506.300781 105.246094 L 506.578125 104.609375 L 506.855469 103.800781 L 507.132813 102.828125 L 507.410156 101.691406 L 507.6875 100.394531 L 507.964844 98.945313 L 508.242188 97.347656 L 508.519531 95.605469 L 508.796875 93.730469 L 509.074219 91.722656 L 509.628906 87.359375 L 509.902344 85.015625 L 510.179688 82.574219 L 510.734375 77.453125 L 511.011719 74.785156 L 511.289063 72.066406 L 511.84375 66.503906 L 512.953125 55.210938 L 513.230469 52.417969 L 513.507813 49.660156 L 514.0625 44.292969 L 514.339844 41.707031 L 514.617188 39.199219 L 515.171875 34.457031 L 515.449219 32.242188 L 515.726563 30.148438 L 516.003906 28.179688 L 516.28125 26.34375 L 516.558594 24.648438 L 516.835938 23.105469 L 517.113281 21.714844 L 517.390625 20.488281 L 517.667969 19.429688 L 517.945313 18.542969 L 518.222656 17.828125 L 518.5 17.292969 L 518.777344 16.941406 L 519.050781 16.769531 L 519.328125 16.785156 L 519.605469 16.980469 L 519.882813 17.363281 L 520.160156 17.929688 L 520.4375 18.675781 L 520.714844 19.597656 L 520.992188 20.695313 L 521.269531 21.964844 L 521.546875 23.402344 L 521.824219 25 L 522.082031 26.628906 L 522.34375 28.386719 L 522.859375 32.269531 L 523.117188 34.375 L 523.378906 36.589844 L 523.894531 41.289063 L 524.15625 43.761719 L 524.414063 46.304688 L 524.929688 51.570313 L 525.964844 62.539063 L 526.226563 65.320313 L 526.484375 68.09375 L 527 73.59375 L 527.261719 76.296875 L 527.519531 78.957031 L 528.035156 84.113281 L 528.296875 86.589844 L 528.554688 88.984375 L 529.074219 93.503906 L 529.332031 95.613281 L 529.589844 97.609375 L 530.109375 101.242188 L 530.367188 102.863281 L 530.625 104.347656 L 530.882813 105.691406 L 531.144531 106.882813 L 531.402344 107.925781 L 531.660156 108.8125 L 531.917969 109.539063 L 532.179688 110.105469 L 532.4375 110.507813 L 532.695313 110.746094 L 532.953125 110.816406 L 533.214844 110.71875 L 533.472656 110.453125 L 533.730469 110.027344 L 533.988281 109.433594 L 534.25 108.675781 L 534.507813 107.761719 L 534.765625 106.6875 L 535.027344 105.460938 L 535.285156 104.085938 L 535.542969 102.566406 L 535.800781 100.90625 L 536.320313 97.195313 L 536.578125 95.15625 L 536.835938 93 L 537.355469 88.378906 L 538.390625 78.128906 L 538.644531 75.460938 L 538.898438 72.75 L 539.40625 67.234375 L 540.421875 56.085938 L 540.675781 53.328125 L 540.929688 50.601563 L 541.433594 45.28125 L 542.449219 35.402344 L 542.703125 33.140625 L 542.957031 30.976563 L 543.210938 28.921875 L 543.464844 26.976563 L 543.71875 25.152344 L 543.972656 23.457031 L 544.226563 21.890625 L 544.480469 20.460938 L 544.734375 19.171875 L 544.988281 18.03125 L 545.242188 17.039063 L 545.496094 16.203125 L 545.75 15.519531 L 546.003906 14.996094 L 546.257813 14.632813 L 546.511719 14.429688 L 546.765625 14.390625 L 547.019531 14.511719 L 547.273438 14.796875 L 547.527344 15.242188 L 547.777344 15.84375 L 548.03125 16.605469 L 548.285156 17.523438 L 548.539063 18.589844 L 548.792969 19.808594 L 549.046875 21.167969 L 549.300781 22.664063 L 549.554688 24.300781 L 549.808594 26.0625 L 550.0625 27.945313 L 550.570313 32.058594 L 550.824219 34.273438 L 551.078125 36.582031 L 551.585938 41.453125 L 552.601563 51.976563 L 554.628906 74.128906 L 554.90625 77.042969 L 555.179688 79.902344 L 555.730469 85.40625 L 556.007813 88.027344 L 556.28125 90.546875 L 556.832031 95.246094 L 557.109375 97.40625 L 557.382813 99.429688 L 557.660156 101.308594 L 557.933594 103.035156 L 558.210938 104.601563 L 558.484375 106 L 558.761719 107.230469 L 559.035156 108.285156 L 559.308594 109.160156 L 559.585938 109.855469 L 559.859375 110.359375 L 560.136719 110.679688 L 560.410156 110.8125 L 560.6875 110.753906 L 560.960938 110.507813 L 561.238281 110.078125 L 561.511719 109.457031 L 561.789063 108.660156 L 562.0625 107.679688 L 562.339844 106.523438 L 562.613281 105.199219 L 562.890625 103.710938 L 563.164063 102.0625 L 563.441406 100.261719 L 563.714844 98.316406 L 563.988281 96.234375 L 564.539063 91.691406 L 564.816406 89.25 L 565.089844 86.710938 L 565.640625 81.367188 L 565.917969 78.585938 L 566.191406 75.746094 L 566.742188 69.941406 L 567.84375 58.144531 L 568.121094 55.226563 L 568.394531 52.339844 L 568.945313 46.71875 L 569.21875 44.003906 L 569.496094 41.367188 L 570.046875 36.375 L 570.320313 34.035156 L 570.597656 31.816406 L 570.871094 29.71875 L 571.148438 27.757813 L 571.421875 25.941406 L 571.699219 24.269531 L 571.972656 22.753906 L 572.25 21.398438 L 572.503906 20.285156 L 572.761719 19.320313 L 573.019531 18.503906 L 573.277344 17.839844 L 573.53125 17.335938 L 573.789063 16.984375 L 574.046875 16.792969 L 574.304688 16.761719 L 574.5625 16.882813 L 574.816406 17.167969 L 575.074219 17.605469 L 575.332031 18.199219 L 575.589844 18.941406 L 575.84375 19.835938 L 576.101563 20.875 L 576.359375 22.058594 L 576.617188 23.375 L 576.871094 24.828125 L 577.128906 26.40625 L 577.386719 28.109375 L 577.644531 29.925781 L 577.898438 31.851563 L 578.414063 36 L 578.671875 38.210938 L 578.929688 40.5 L 579.441406 45.285156 L 580.46875 55.445313 L 580.726563 58.054688 L 580.984375 60.675781 L 581.496094 65.914063 L 582.523438 76.117188 L 582.78125 78.558594 L 583.039063 80.945313 L 583.550781 85.5 L 583.808594 87.65625 L 584.066406 89.722656 L 584.578125 93.554688 L 584.835938 95.308594 L 585.09375 96.945313 L 585.351563 98.464844 L 585.605469 99.855469 L 585.863281 101.117188 L 586.121094 102.242188 L 586.378906 103.234375 L 586.636719 104.078125 L 586.890625 104.785156 L 587.148438 105.34375 L 587.40625 105.753906 L 587.664063 106.015625 L 587.917969 106.132813 L 588.175781 106.097656 L 588.433594 105.917969 L 588.691406 105.585938 L 588.96875 105.066406 L 589.246094 104.378906 L 589.523438 103.527344 L 589.804688 102.511719 L 590.082031 101.34375 L 590.359375 100.023438 L 590.640625 98.558594 L 590.917969 96.953125 L 591.195313 95.21875 L 591.472656 93.359375 L 592.03125 89.300781 L 592.308594 87.121094 L 592.585938 84.851563 L 593.144531 80.078125 L 593.421875 77.59375 L 593.703125 75.0625 L 594.257813 69.890625 L 595.371094 59.414063 L 595.652344 56.832031 L 595.929688 54.28125 L 596.484375 49.324219 L 596.765625 46.9375 L 597.042969 44.625 L 597.597656 40.257813 L 597.878906 38.222656 L 598.15625 36.292969 L 598.433594 34.476563 L 598.714844 32.785156 L 598.992188 31.21875 L 599.269531 29.789063 L 599.546875 28.5 L 599.828125 27.355469 L 600.105469 26.355469 L 600.382813 25.511719 L 600.664063 24.816406 L 600.941406 24.28125 L 601.21875 23.90625 L 601.496094 23.683594 L 601.777344 23.625 L 602.054688 23.722656 L 602.332031 23.980469 L 602.609375 24.390625 L 602.890625 24.953125 L 603.167969 25.667969 L 603.445313 26.53125 L 603.726563 27.535156 L 604.003906 28.675781 L 604.28125 29.949219 L 604.558594 31.347656 L 604.839844 32.867188 L 605.394531 36.242188 L 605.675781 38.082031 L 605.953125 40.011719 L 606.507813 44.109375 L 606.78125 46.21875 L 607.054688 48.382813 L 607.601563 52.839844 L 608.96875 64.304688 L 609.242188 66.582031 L 609.789063 71.046875 L 610.882813 79.386719 L 611.15625 81.300781 L 611.429688 83.136719 L 611.703125 84.878906 L 611.976563 86.53125 L 612.25 88.078125 L 612.523438 89.519531 L 612.796875 90.847656 L 613.070313 92.0625 L 613.34375 93.15625 L 613.617188 94.125 L 613.890625 94.964844 L 614.164063 95.679688 L 614.4375 96.257813 L 614.710938 96.707031 L 614.984375 97.019531 L 615.257813 97.199219 L 615.53125 97.242188 L 615.804688 97.152344 L 616.074219 96.929688 L 616.347656 96.578125 L 616.621094 96.097656 L 616.894531 95.488281 L 617.167969 94.757813 L 617.441406 93.90625 L 617.714844 92.941406 L 617.988281 91.867188 L 618.261719 90.6875 L 618.535156 89.402344 L 618.808594 88.027344 L 619.082031 86.5625 L 619.628906 83.394531 L 619.902344 81.703125 L 620.175781 79.949219 L 620.722656 76.289063 L 621.816406 68.558594 L 622.363281 64.613281 L 622.910156 60.699219 L 624.003906 53.199219 L 624.257813 51.554688 L 624.511719 49.957031 L 625.023438 46.933594 L 625.277344 45.519531 L 625.53125 44.171875 L 626.042969 41.699219 L 626.296875 40.585938 L 626.550781 39.550781 L 626.808594 38.605469 L 627.0625 37.75 L 627.316406 36.984375 L 627.574219 36.316406 L 627.828125 35.738281 L 628.082031 35.261719 L 628.335938 34.878906 L 628.59375 34.59375 L 628.847656 34.410156 L 629.101563 34.324219 L 629.355469 34.332031 L 629.613281 34.441406 L 629.867188 34.644531 L 630.121094 34.941406 L 630.375 35.332031 L 630.632813 35.8125 L 630.886719 36.378906 L 631.140625 37.035156 L 631.398438 37.769531 L 631.652344 38.585938 L 631.90625 39.476563 L 632.160156 40.441406 L 632.417969 41.472656 L 632.671875 42.566406 L 633.179688 44.933594 L 634.199219 50.230469 L 634.457031 51.644531 L 634.710938 53.085938 L 635.222656 56.019531 L 636.242188 61.964844 L 636.496094 63.441406 L 636.75 64.898438 L 637.261719 67.742188 L 637.515625 69.125 L 637.769531 70.46875 L 638.28125 73.042969 L 638.535156 74.257813 L 638.789063 75.425781 L 639.046875 76.535156 L 639.300781 77.589844 L 639.554688 78.585938 L 639.808594 79.515625 L 640.066406 80.378906 L 640.320313 81.171875 L 640.597656 81.953125 L 640.871094 82.648438 L 641.148438 83.257813 L 641.425781 83.78125 L 641.703125 84.210938 L 641.980469 84.550781 L 642.253906 84.800781 L 642.53125 84.957031 L 642.808594 85.023438 L 643.085938 85.003906 L 643.359375 84.890625 L 643.636719 84.691406 L 643.914063 84.410156 L 644.191406 84.042969 L 644.46875 83.597656 L 644.742188 83.070313 L 645.019531 82.472656 L 645.296875 81.804688 L 645.574219 81.066406 L 645.851563 80.265625 L 646.125 79.402344 L 646.402344 78.488281 L 646.957031 76.507813 L 647.230469 75.457031 L 647.507813 74.367188 L 648.0625 72.097656 L 649.167969 67.351563 L 649.445313 66.152344 L 649.71875 64.957031 L 650.273438 62.597656 L 650.550781 61.441406 L 650.828125 60.3125 L 651.378906 58.140625 L 651.65625 57.105469 L 651.933594 56.113281 L 652.207031 55.160156 L 652.484375 54.257813 L 652.761719 53.402344 L 653.039063 52.601563 L 653.316406 51.855469 L 653.589844 51.167969 L 653.867188 50.539063 L 654.144531 49.972656 L 654.421875 49.464844 L 654.695313 49.023438 L 654.972656 48.648438 L 655.25 48.335938 L 655.527344 48.089844 L 655.804688 47.90625 L 656.078125 47.789063 L 656.355469 47.738281 L 656.632813 47.746094 L 656.910156 47.820313 L 657.183594 47.953125 L 657.460938 48.144531 L 657.738281 48.394531 L 658.015625 48.699219 L 658.273438 49.03125 L 658.53125 49.40625 L 658.789063 49.824219 L 659.046875 50.277344 L 659.304688 50.773438 L 659.5625 51.300781 L 660.078125 52.445313 L 660.335938 53.058594 L 660.597656 53.695313 L 661.113281 55.027344 L 662.144531 57.839844 L 662.660156 59.277344 L 663.175781 60.699219 L 663.433594 61.398438 L 663.691406 62.089844 L 664.210938 63.425781 L 664.46875 64.066406 L 664.726563 64.691406 L 665.242188 65.867188 L 665.5 66.414063 L 665.757813 66.9375 L 666.273438 67.890625 L 666.53125 68.324219 L 666.789063 68.722656 L 667.046875 69.085938 L 667.304688 69.417969 L 667.5625 69.714844 L 667.824219 69.976563 L 668.082031 70.203125 L 668.339844 70.394531 L 668.597656 70.550781 L 668.855469 70.671875 L 669.113281 70.761719 L 669.371094 70.8125 L 669.628906 70.835938 L 669.886719 70.824219 L 670.144531 70.78125 L 670.402344 70.707031 L 670.660156 70.605469 L 670.917969 70.476563 L 671.175781 70.320313 L 671.4375 70.140625 L 671.695313 69.9375 L 671.953125 69.714844 L 672.46875 69.207031 L 672.726563 68.929688 L 672.984375 68.636719 L 673.5 68.019531 L 674.53125 66.695313 L 675.039063 66.03125 L 675.546875 65.378906 L 675.796875 65.0625 L 676.050781 64.75 L 676.558594 64.152344 L 676.808594 63.871094 L 677.0625 63.605469 L 677.316406 63.347656 L 677.570313 63.105469 L 677.820313 62.882813 L 678.074219 62.671875 L 678.328125 62.476563 L 678.582031 62.300781 L 678.835938 62.144531 L 679.085938 62.003906 L 679.339844 61.882813 L 679.59375 61.78125 L 679.847656 61.695313 L 680.097656 61.628906 L 680.351563 61.582031 L 680.605469 61.550781 L 680.859375 61.539063 L 681.109375 61.542969 L 681.363281 61.5625 L 681.617188 61.597656 L 681.871094 61.648438 L 682.125 61.710938 L 682.375 61.789063 L 682.628906 61.878906 L 682.882813 61.976563 L 683.136719 62.085938 L 683.640625 62.328125 L 684.148438 62.59375 L 684.652344 62.871094 L 684.90625 63.011719 L 685.160156 63.148438 L 685.664063 63.417969 L 685.917969 63.542969 L 686.171875 63.664063 L 686.425781 63.777344 L 686.675781 63.878906 L 686.929688 63.972656 L 687.183594 64.054688 L 687.4375 64.125 L 687.691406 64.179688 L 687.941406 64.222656 L 688.195313 64.246094 L 688.449219 64.257813 L 688.703125 64.253906 L 688.953125 64.230469 L 689.207031 64.1875 L 689.460938 64.128906 L 689.714844 64.050781 L 689.964844 63.953125 L 690.21875 63.839844 L 690.472656 63.707031 L 690.726563 63.558594 L 691 63.371094 L 691.273438 63.167969 L 691.550781 62.945313 L 691.824219 62.699219 L 692.097656 62.4375 L 692.371094 62.160156 L 692.921875 61.558594 L 693.195313 61.234375 L 693.472656 60.902344 L 694.019531 60.210938 L 695.117188 58.78125 L 695.394531 58.425781 L 695.667969 58.074219 L 696.214844 57.398438 L 696.492188 57.078125 L 696.765625 56.769531 L 697.316406 56.210938 L 697.589844 55.960938 L 697.863281 55.734375 L 698.136719 55.53125 L 698.414063 55.359375 L 698.6875 55.214844 L 698.960938 55.101563 L 699.238281 55.019531 L 699.511719 54.972656 L 699.785156 54.960938 L 700.058594 54.984375 L 700.335938 55.046875 L 700.609375 55.148438 L 700.882813 55.285156 L 701.160156 55.464844 L 701.433594 55.683594 L 701.707031 55.941406 L 701.980469 56.238281 L 702.257813 56.574219 L 702.53125 56.953125 L 702.804688 57.363281 L 703.078125 57.816406 L 703.355469 58.300781 L 703.902344 59.378906 L 704.179688 59.960938 L 704.453125 60.578125 L 705 61.886719 L 706.101563 64.746094 L 706.375 65.496094 L 706.648438 66.253906 L 707.199219 67.78125 L 708.296875 70.777344 L 708.550781 71.445313 L 708.808594 72.097656 L 709.320313 73.339844 L 709.578125 73.921875 L 709.832031 74.480469 L 710.34375 75.496094 L 710.601563 75.949219 L 710.859375 76.363281 L 711.113281 76.742188 L 711.371094 77.074219 L 711.625 77.359375 L 711.882813 77.601563 L 712.136719 77.792969 L 712.394531 77.933594 L 712.652344 78.023438 L 712.90625 78.0625 L 713.164063 78.046875 L 713.417969 77.972656 L 713.675781 77.847656 L 713.933594 77.664063 L 714.1875 77.425781 L 714.445313 77.132813 L 714.699219 76.785156 L 714.957031 76.378906 L 715.210938 75.917969 L 715.46875 75.402344 L 715.726563 74.835938 L 715.980469 74.21875 L 716.492188 72.832031 L 716.75 72.070313 L 717.003906 71.261719 L 717.519531 69.523438 L 718.542969 65.628906 L 718.796875 64.585938 L 719.054688 63.523438 L 719.566406 61.347656 L 720.589844 56.90625 L 720.847656 55.804688 L 721.105469 54.707031 L 721.617188 52.566406 L 721.871094 51.527344 L 722.128906 50.511719 L 722.640625 48.582031 L 722.898438 47.671875 L 723.152344 46.800781 L 723.410156 45.980469 L 723.664063 45.207031 L 723.921875 44.484375 L 724.179688 43.816406 L 724.433594 43.210938 L 724.691406 42.664063 L 724.96875 42.148438 L 725.246094 41.707031 L 725.523438 41.347656 L 725.800781 41.074219 L 726.078125 40.886719 L 726.355469 40.785156 L 726.632813 40.773438 L 726.910156 40.855469 L 727.1875 41.027344 L 727.46875 41.289063 L 727.746094 41.644531 L 728.023438 42.089844 L 728.300781 42.628906 L 728.578125 43.253906 L 728.855469 43.96875 L 729.132813 44.769531 L 729.410156 45.652344 L 729.6875 46.613281 L 730.242188 48.769531 L 730.519531 49.957031 L 730.800781 51.207031 L 731.355469 53.890625 L 731.632813 55.3125 L 731.910156 56.78125 L 732.464844 59.832031 L 733.574219 66.226563 L 733.855469 67.851563 L 734.132813 69.46875 L 734.6875 72.667969 L 734.964844 74.238281 L 735.242188 75.773438 L 735.796875 78.726563 L 736.074219 80.132813 L 736.351563 81.480469 L 736.628906 82.769531 L 736.90625 83.984375 L 737.1875 85.128906 L 737.464844 86.191406 L 737.742188 87.167969 L 738.019531 88.058594 L 738.296875 88.851563 L 738.574219 89.546875 L 738.851563 90.140625 L 739.128906 90.628906 L 739.40625 91.011719 L 739.683594 91.28125 L 739.960938 91.4375 L 740.242188 91.480469 L 740.519531 91.40625 L 740.796875 91.214844 L 741.074219 90.910156 L 741.351563 90.488281 L 741.628906 89.949219 L 741.90625 89.296875 L 742.183594 88.53125 L 742.460938 87.65625 L 742.722656 86.742188 L 742.980469 85.738281 L 743.238281 84.644531 L 743.5 83.464844 L 743.757813 82.203125 L 744.015625 80.867188 L 744.535156 77.972656 L 744.796875 76.429688 L 745.054688 74.828125 L 745.574219 71.464844 L 746.609375 64.28125 L 746.871094 62.421875 L 747.128906 60.554688 L 747.648438 56.8125 L 748.683594 49.488281 L 748.945313 47.730469 L 749.203125 46.011719 L 749.722656 42.726563 L 749.980469 41.171875 L 750.242188 39.6875 L 750.757813 36.933594 L 751.019531 35.679688 L 751.277344 34.511719 L 751.535156 33.4375 L 751.796875 32.460938 L 752.054688 31.585938 L 752.316406 30.8125 L 752.574219 30.152344 L 752.832031 29.601563 L 753.09375 29.164063 L 753.351563 28.839844 L 753.613281 28.636719 L 753.871094 28.554688 L 754.128906 28.589844 L 754.390625 28.746094 L 754.648438 29.027344 L 754.90625 29.425781 L 755.167969 29.945313 L 755.425781 30.582031 L 755.6875 31.339844 L 755.945313 32.210938 L 756.203125 33.191406 L 756.464844 34.285156 L 756.722656 35.488281 L 756.980469 36.789063 L 757.242188 38.191406 L 757.5 39.6875 L 758.019531 42.949219 L 758.277344 44.699219 L 758.539063 46.519531 L 759.054688 50.363281 L 759.3125 52.328125 L 759.566406 54.34375 L 760.074219 58.476563 L 761.089844 66.992188 L 761.34375 69.132813 L 761.597656 71.261719 L 762.105469 75.457031 L 763.125 83.402344 L 763.378906 85.253906 L 763.632813 87.039063 L 764.140625 90.386719 L 764.394531 91.933594 L 764.648438 93.390625 L 765.15625 96.011719 L 765.410156 97.164063 L 765.667969 98.207031 L 765.921875 99.136719 L 766.175781 99.945313 L 766.429688 100.632813 L 766.683594 101.199219 L 766.9375 101.636719 L 767.191406 101.945313 L 767.445313 102.125 L 767.699219 102.171875 L 767.953125 102.085938 L 768.207031 101.867188 L 768.460938 101.515625 L 768.714844 101.035156 L 768.972656 100.421875 L 769.226563 99.679688 L 769.480469 98.8125 L 769.734375 97.820313 L 769.988281 96.707031 L 770.242188 95.472656 L 770.496094 94.125 L 770.75 92.667969 L 771.257813 89.4375 L 771.511719 87.675781 L 771.765625 85.824219 L 772.277344 81.875 L 773.292969 73.175781 L 775.324219 54.226563 L 775.601563 51.667969 L 775.878906 49.144531 L 776.429688 44.246094 L 776.703125 41.886719 L 776.980469 39.605469 L 777.53125 35.300781 L 777.808594 33.296875 L 778.082031 31.402344 L 778.359375 29.625 L 778.636719 27.976563 L 778.910156 26.460938 L 779.1875 25.082031 L 779.460938 23.847656 L 779.738281 22.765625 L 780.015625 21.839844 L 780.289063 21.070313 L 780.566406 20.46875 L 780.839844 20.027344 L 781.117188 19.757813 L 781.390625 19.660156 L 781.667969 19.730469 L 781.945313 19.972656 L 782.21875 20.386719 L 782.496094 20.96875 L 782.769531 21.71875 L 783.046875 22.632813 L 783.324219 23.710938 L 783.597656 24.949219 L 783.875 26.339844 L 784.148438 27.878906 L 784.425781 29.558594 L 784.703125 31.378906 L 785.253906 35.402344 L 785.527344 37.585938 L 785.804688 39.878906 L 786.355469 44.75 L 786.632813 47.308594 L 786.90625 49.933594 L 787.457031 55.351563 L 788.5625 66.542969 L 788.835938 69.351563 L 789.113281 72.140625 L 789.664063 77.621094 L 789.941406 80.289063 L 790.214844 82.894531 L 790.769531 87.878906 L 791.042969 90.234375 L 791.320313 92.492188 L 791.59375 94.632813 L 791.871094 96.65625 L 792.144531 98.546875 L 792.421875 100.304688 L 792.699219 101.917969 L 792.972656 103.378906 L 793.230469 104.601563 L 793.488281 105.683594 L 793.746094 106.621094 L 794.003906 107.40625 L 794.261719 108.042969 L 794.519531 108.523438 L 794.773438 108.851563 L 795.03125 109.019531 L 795.289063 109.027344 L 795.546875 108.878906 L 795.804688 108.570313 L 796.0625 108.101563 L 796.320313 107.480469 L 796.578125 106.703125 L 796.832031 105.773438 L 797.089844 104.691406 L 797.347656 103.46875 L 797.605469 102.101563 L 797.863281 100.597656 L 798.121094 98.960938 L 798.378906 97.195313 L 798.636719 95.3125 L 799.148438 91.203125 L 799.40625 88.996094 L 799.664063 86.691406 L 800.179688 81.839844 L 801.207031 71.378906 L 801.464844 68.65625 L 801.722656 65.914063 L 802.238281 60.390625 L 803.269531 49.476563 L 803.523438 46.832031 L 803.78125 44.238281 L 804.296875 39.242188 L 804.554688 36.859375 L 804.8125 34.5625 L 805.328125 30.257813 L 805.582031 28.269531 L 805.839844 26.394531 L 806.097656 24.644531 L 806.355469 23.027344 L 806.613281 21.542969 L 806.871094 20.199219 L 807.128906 19 L 807.386719 17.949219 L 807.644531 17.054688 L 807.898438 16.316406 L 808.15625 15.738281 L 808.414063 15.324219 L 808.671875 15.070313 L 808.929688 14.980469 L 809.1875 15.058594 L 809.445313 15.296875 L 809.722656 15.742188 L 810 16.378906 L 810.28125 17.207031 L 810.558594 18.21875 L 810.839844 19.410156 L 811.117188 20.777344 L 811.394531 22.320313 L 811.675781 24.023438 L 811.953125 25.890625 L 812.234375 27.90625 L 812.789063 32.355469 L 813.070313 34.773438 L 813.347656 37.304688 L 813.90625 42.675781 L 814.183594 45.492188 L 814.464844 48.382813 L 815.023438 54.328125 L 816.136719 66.554688 L 816.417969 69.609375 L 816.695313 72.636719 L 817.253906 78.570313 L 818.367188 89.59375 L 818.648438 92.113281 L 818.925781 94.511719 L 819.203125 96.78125 L 819.484375 98.917969 L 819.761719 100.90625 L 820.042969 102.746094 L 820.320313 104.421875 L 820.597656 105.929688 L 820.878906 107.265625 L 821.15625 108.421875 L 821.4375 109.394531 L 821.714844 110.179688 L 821.992188 110.773438 L 822.273438 111.175781 L 822.550781 111.382813 L 822.832031 111.390625 L 823.109375 111.207031 L 823.386719 110.824219 L 823.667969 110.25 L 823.945313 109.484375 L 824.226563 108.53125 L 824.503906 107.390625 L 824.78125 106.074219 L 825.0625 104.582031 L 825.339844 102.921875 L 825.621094 101.101563 L 826.175781 97.003906 L 826.457031 94.746094 L 826.734375 92.359375 L 827.292969 87.242188 L 827.566406 84.582031 L 827.839844 81.835938 L 828.386719 76.144531 L 829.484375 64.242188 L 829.757813 61.230469 L 830.03125 58.222656 L 830.578125 52.28125 L 831.671875 41.007813 L 831.945313 38.378906 L 832.222656 35.847656 L 832.496094 33.421875 L 832.769531 31.113281 L 833.042969 28.929688 L 833.316406 26.882813 L 833.589844 24.976563 L 833.863281 23.21875 L 834.136719 21.613281 L 834.410156 20.175781 L 834.683594 18.902344 L 834.960938 17.800781 L 835.234375 16.878906 L 835.507813 16.132813 L 835.78125 15.574219 L 836.054688 15.195313 L 836.328125 15.007813 L 836.601563 15.003906 L 836.875 15.183594 L 837.148438 15.550781 L 837.421875 16.105469 L 837.695313 16.839844 L 837.972656 17.75 L 838.246094 18.835938 L 838.519531 20.09375 L 838.792969 21.515625 L 839.066406 23.097656 L 839.339844 24.832031 L 839.613281 26.710938 L 839.886719 28.730469 L 840.433594 33.152344 L 840.707031 35.535156 L 840.984375 38.023438 L 841.53125 43.269531 L 842.625 54.546875 L 844.816406 77.726563 L 845.070313 80.277344 L 845.328125 82.769531 L 845.835938 87.527344 L 846.09375 89.777344 L 846.347656 91.9375 L 846.859375 95.941406 L 847.113281 97.773438 L 847.371094 99.484375 L 847.625 101.070313 L 847.878906 102.519531 L 848.136719 103.835938 L 848.390625 105.011719 L 848.648438 106.042969 L 848.902344 106.925781 L 849.15625 107.65625 L 849.414063 108.234375 L 849.667969 108.660156 L 849.925781 108.925781 L 850.179688 109.039063 L 850.433594 108.996094 L 850.691406 108.792969 L 850.945313 108.4375 L 851.199219 107.929688 L 851.457031 107.269531 L 851.710938 106.457031 L 851.96875 105.503906 L 852.222656 104.40625 L 852.476563 103.167969 L 852.734375 101.796875 L 852.988281 100.300781 L 853.246094 98.675781 L 853.5 96.9375 L 854.011719 93.128906 L 854.265625 91.074219 L 854.523438 88.925781 L 855.03125 84.390625 L 855.289063 82.019531 L 855.542969 79.585938 L 856.054688 74.578125 L 857.074219 64.226563 L 857.332031 61.621094 L 857.585938 59.027344 L 858.097656 53.902344 L 858.351563 51.390625 L 858.609375 48.925781 L 859.117188 44.164063 L 859.375 41.882813 L 859.628906 39.679688 L 860.140625 35.53125 L 860.394531 33.601563 L 860.652344 31.777344 L 861.164063 28.460938 L 861.4375 26.863281 L 861.714844 25.414063 L 861.992188 24.117188 L 862.269531 22.980469 L 862.546875 22.007813 L 862.824219 21.195313 L 863.101563 20.554688 L 863.378906 20.085938 L 863.65625 19.789063 L 863.929688 19.664063 L 864.207031 19.710938 L 864.484375 19.929688 L 864.761719 20.316406 L 865.039063 20.875 L 865.316406 21.597656 L 865.59375 22.484375 L 865.871094 23.527344 L 866.148438 24.722656 L 866.425781 26.066406 L 866.699219 27.554688 L 866.976563 29.175781 L 867.253906 30.925781 L 867.808594 34.785156 L 868.085938 36.875 L 868.363281 39.0625 L 868.917969 43.683594 L 870.023438 53.667969 L 870.300781 56.257813 L 870.578125 58.863281 L 871.132813 64.082031 L 872.238281 74.265625 L 872.515625 76.695313 L 872.792969 79.0625 L 873.347656 83.566406 L 873.625 85.6875 L 873.902344 87.707031 L 874.457031 91.417969 L 874.730469 93.09375 L 875.007813 94.640625 L 875.285156 96.058594 L 875.5625 97.335938 L 875.839844 98.472656 L 876.117188 99.460938 L 876.394531 100.300781 L 876.671875 100.984375 L 876.949219 101.515625 L 877.226563 101.890625 L 877.5 102.109375 L 877.777344 102.171875 L 878.054688 102.074219 L 878.332031 101.824219 L 878.609375 101.417969 L 878.886719 100.859375 L 879.144531 100.207031 L 879.402344 99.425781 L 879.664063 98.519531 L 879.921875 97.496094 L 880.179688 96.355469 L 880.4375 95.105469 L 880.953125 92.289063 L 881.214844 90.734375 L 881.472656 89.089844 L 881.988281 85.558594 L 883.023438 77.710938 L 883.28125 75.628906 L 883.539063 73.511719 L 884.058594 69.199219 L 885.089844 60.507813 L 885.351563 58.367188 L 885.609375 56.25 L 886.125 52.121094 L 887.160156 44.5 L 887.417969 42.765625 L 887.675781 41.105469 L 887.9375 39.53125 L 888.195313 38.050781 L 888.453125 36.660156 L 888.710938 35.371094 L 888.96875 34.183594 L 889.230469 33.101563 L 889.488281 32.132813 L 889.746094 31.273438 L 890.003906 30.527344 L 890.261719 29.902344 L 890.519531 29.390625 L 890.78125 29.003906 L 891.039063 28.734375 L 891.296875 28.585938 L 891.554688 28.554688 L 891.8125 28.644531 L 892.074219 28.855469 L 892.332031 29.183594 L 892.589844 29.625 L 892.847656 30.179688 L 893.105469 30.847656 L 893.367188 31.617188 L 893.625 32.496094 L 893.882813 33.472656 L 894.140625 34.546875 L 894.398438 35.714844 L 894.65625 36.96875 L 894.917969 38.304688 L 895.433594 41.203125 L 895.6875 42.722656 L 895.941406 44.300781 L 896.449219 47.605469 L 897.460938 54.65625 L 897.714844 56.472656 L 898.476563 61.957031 L 899.488281 69.113281 L 899.742188 70.835938 L 899.996094 72.515625 L 900.503906 75.746094 L 900.757813 77.28125 L 901.011719 78.757813 L 901.515625 81.515625 L 901.769531 82.789063 L 902.023438 83.988281 L 902.277344 85.105469 L 902.53125 86.140625 L 902.785156 87.089844 L 903.039063 87.949219 L 903.292969 88.722656 L 903.542969 89.398438 L 903.796875 89.984375 L 904.050781 90.472656 L 904.304688 90.867188 L 904.558594 91.164063 L 904.8125 91.363281 L 905.066406 91.464844 L 905.320313 91.472656 L 905.574219 91.378906 L 905.824219 91.195313 L 906.078125 90.917969 L 906.332031 90.546875 L 906.585938 90.085938 L 906.839844 89.539063 L 907.09375 88.90625 L 907.347656 88.191406 L 907.601563 87.398438 L 907.855469 86.527344 L 908.105469 85.585938 L 908.613281 83.503906 L 908.867188 82.367188 L 909.121094 81.179688 L 909.628906 78.648438 L 909.882813 77.320313 L 910.136719 75.953125 L 910.640625 73.132813 L 911.65625 67.269531 L 911.929688 65.664063 L 912.207031 64.0625 L 912.753906 60.898438 L 913.03125 59.351563 L 913.304688 57.832031 L 913.855469 54.910156 L 914.128906 53.515625 L 914.40625 52.171875 L 914.679688 50.886719 L 914.957031 49.664063 L 915.230469 48.507813 L 915.503906 47.417969 L 915.78125 46.402344 L 916.054688 45.464844 L 916.332031 44.605469 L 916.605469 43.832031 L 916.878906 43.140625 L 917.15625 42.535156 L 917.429688 42.015625 L 917.707031 41.585938 L 917.980469 41.25 L 918.253906 41 L 918.53125 40.839844 L 918.804688 40.773438 L 919.082031 40.792969 L 919.355469 40.898438 L 919.628906 41.09375 L 919.90625 41.371094 L 920.179688 41.730469 L 920.457031 42.171875 L 920.730469 42.6875 L 921.003906 43.277344 L 921.28125 43.941406 L 921.554688 44.667969 L 921.832031 45.460938 L 922.105469 46.3125 L 922.65625 48.171875 L 922.929688 49.175781 L 923.207031 50.21875 L 923.753906 52.410156 L 924.855469 57.070313 L 925.128906 58.261719 L 925.40625 59.457031 L 925.957031 61.828125 L 926.230469 63 L 926.503906 64.148438 L 927.054688 66.378906 L 927.332031 67.449219 L 927.605469 68.484375 L 928.15625 70.4375 L 928.429688 71.347656 L 928.707031 72.207031 L 929.253906 73.769531 L 929.511719 74.425781 L 929.769531 75.027344 L 930.027344 75.578125 L 930.28125 76.074219 L 930.539063 76.519531 L 930.796875 76.90625 L 931.050781 77.238281 L 931.308594 77.515625 L 931.566406 77.734375 L 931.820313 77.898438 L 932.078125 78.003906 L 932.335938 78.058594 L 932.589844 78.054688 L 932.847656 78 L 933.105469 77.890625 L 933.363281 77.730469 L 933.617188 77.519531 L 933.875 77.261719 L 934.132813 76.960938 L 934.386719 76.609375 L 934.644531 76.21875 L 934.902344 75.789063 L 935.414063 74.816406 L 935.671875 74.277344 L 935.925781 73.710938 L 936.441406 72.496094 L 937.46875 69.828125 L 937.722656 69.128906 L 937.980469 68.421875 L 938.492188 66.996094 L 939.519531 64.179688 L 939.777344 63.5 L 940.035156 62.832031 L 940.546875 61.546875 L 940.804688 60.933594 L 941.058594 60.34375 L 941.574219 59.238281 L 941.828125 58.726563 L 942.085938 58.246094 L 942.34375 57.792969 L 942.597656 57.371094 L 942.855469 56.984375 L 943.113281 56.628906 L 943.371094 56.308594 L 943.625 56.019531 L 943.882813 55.769531 L 944.140625 55.550781 L 944.394531 55.367188 L 944.652344 55.21875 L 944.910156 55.101563 L 945.164063 55.023438 L 945.421875 54.976563 L 945.679688 54.960938 L 945.964844 54.980469 L 946.25 55.039063 L 946.539063 55.136719 L 946.824219 55.265625 L 947.109375 55.429688 L 947.398438 55.621094 L 947.683594 55.84375 L 947.96875 56.09375 L 948.257813 56.367188 L 948.542969 56.660156 L 949.117188 57.304688 L 950.261719 58.742188 L 950.546875 59.117188 L 950.835938 59.492188 L 951.40625 60.234375 L 951.695313 60.597656 L 951.980469 60.953125 L 952.554688 61.632813 L 952.839844 61.949219 L 953.125 62.253906 L 953.414063 62.539063 L 953.699219 62.804688 L 953.984375 63.046875 L 954.273438 63.273438 L 954.558594 63.476563 L 954.84375 63.65625 L 955.132813 63.8125 L 955.417969 63.945313 L 955.703125 64.054688 L 955.992188 64.140625 L 956.277344 64.203125 L 956.5625 64.242188 L 956.851563 64.257813 L 957.136719 64.253906 L 957.421875 64.226563 L 957.710938 64.183594 L 957.996094 64.117188 L 958.28125 64.039063 L 958.570313 63.941406 L 958.855469 63.832031 L 959.140625 63.707031 L 959.429688 63.574219 L 959.714844 63.433594 L 960 63.28125 L 960.574219 62.972656 L 960.859375 62.8125 L 961.148438 62.65625 L 961.71875 62.351563 L 962.007813 62.210938 L 962.292969 62.078125 L 962.578125 61.957031 L 962.867188 61.847656 L 963.152344 61.75 L 963.4375 61.671875 L 963.726563 61.609375 L 964.011719 61.566406 " transform="matrix(1,0,0,1,-112,-9)"/>
</g>
</g>
</svg>
