<?xml version="1.0" encoding="UTF-8"?>
<svg xmlns="http://www.w3.org/2000/svg" xmlns:xlink="http://www.w3.org/1999/xlink" width="870pt" height="54pt" viewBox="0 0 870 54" version="1.1">
<g id="surface20">
<path style="fill:none;stroke-width:2.72;stroke-linecap:square;stroke-linejoin:miter;stroke:rgb(36.84082%,50.67749%,70.979309%);stroke-opacity:1;stroke-miterlimit:3.25;" d="M 129.386719 51.449219 L 129.644531 50.417969 L 129.898438 49.34375 L 130.410156 47.078125 L 131.4375 42.148438 L 131.691406 40.859375 L 131.949219 39.550781 L 132.460938 36.90625 L 133.484375 31.609375 L 133.738281 30.304688 L 133.996094 29.015625 L 134.507813 26.507813 L 134.761719 25.292969 L 135.019531 24.109375 L 135.53125 21.855469 L 135.789063 20.789063 L 136.042969 19.769531 L 136.300781 18.796875 L 136.554688 17.878906 L 136.8125 17.015625 L 137.066406 16.207031 L 137.324219 15.460938 L 137.578125 14.773438 L 137.835938 14.152344 L 138.089844 13.597656 L 138.347656 13.109375 L 138.601563 12.691406 L 138.859375 12.34375 L 139.113281 12.066406 L 139.371094 11.863281 L 139.628906 11.730469 L 139.882813 11.671875 L 140.140625 11.6875 L 140.394531 11.777344 L 140.652344 11.941406 L 140.90625 12.175781 L 141.164063 12.484375 L 141.417969 12.863281 L 141.675781 13.3125 L 141.929688 13.828125 L 142.1875 14.414063 L 142.441406 15.0625 L 142.699219 15.777344 L 142.953125 16.550781 L 143.210938 17.382813 L 143.722656 19.214844 L 143.980469 20.207031 L 144.234375 21.246094 L 144.746094 23.457031 L 145.769531 28.296875 L 146.046875 29.679688 L 146.324219 31.085938 L 146.878906 33.945313 L 147.992188 39.691406 L 148.269531 41.105469 L 148.546875 42.5 L 149.101563 45.210938 L 149.378906 46.519531 L 149.65625 47.785156 L 150.210938 50.183594 L 150.488281 51.308594 L 150.765625 52.378906 L 151.042969 53.386719 L 151.320313 54.328125 L 151.597656 55.207031 L 151.875 56.011719 L 152.152344 56.746094 L 152.429688 57.402344 L 152.707031 57.984375 L 152.984375 58.484375 L 153.261719 58.898438 L 153.539063 59.234375 L 153.816406 59.484375 L 154.097656 59.644531 L 154.375 59.722656 L 154.652344 59.714844 L 154.929688 59.617188 L 155.207031 59.4375 L 155.484375 59.167969 L 155.761719 58.816406 L 156.039063 58.382813 L 156.316406 57.863281 L 156.59375 57.269531 L 156.871094 56.59375 L 157.148438 55.84375 L 157.425781 55.023438 L 157.703125 54.132813 L 157.980469 53.171875 L 158.257813 52.152344 L 158.535156 51.070313 L 159.089844 48.75 L 159.367188 47.515625 L 159.644531 46.238281 L 160.199219 43.578125 L 161.3125 37.953125 L 161.589844 36.515625 L 161.867188 35.074219 L 162.421875 32.203125 L 163.53125 26.648438 L 163.789063 25.417969 L 164.050781 24.214844 L 164.566406 21.929688 L 164.828125 20.847656 L 165.085938 19.8125 L 165.605469 17.894531 L 165.863281 17.019531 L 166.121094 16.203125 L 166.382813 15.445313 L 166.640625 14.753906 L 166.898438 14.125 L 167.160156 13.566406 L 167.417969 13.078125 L 167.675781 12.660156 L 167.9375 12.3125 L 168.195313 12.039063 L 168.453125 11.84375 L 168.714844 11.71875 L 168.972656 11.671875 L 169.230469 11.699219 L 169.492188 11.800781 L 169.75 11.976563 L 170.007813 12.230469 L 170.269531 12.554688 L 170.527344 12.953125 L 170.785156 13.425781 L 171.046875 13.964844 L 171.304688 14.570313 L 171.5625 15.246094 L 171.824219 15.984375 L 172.082031 16.785156 L 172.339844 17.644531 L 172.859375 19.53125 L 173.117188 20.550781 L 173.378906 21.621094 L 173.894531 23.886719 L 174.15625 25.078125 L 174.414063 26.300781 L 174.933594 28.835938 L 175.96875 34.125 L 176.226563 35.46875 L 176.488281 36.816406 L 177.003906 39.496094 L 178.042969 44.671875 L 178.300781 45.910156 L 178.558594 47.109375 L 179.078125 49.402344 L 179.335938 50.488281 L 179.597656 51.527344 L 180.113281 53.449219 L 180.367188 54.3125 L 180.621094 55.117188 L 180.875 55.867188 L 181.128906 56.554688 L 181.386719 57.175781 L 181.640625 57.738281 L 181.894531 58.230469 L 182.148438 58.65625 L 182.402344 59.011719 L 182.65625 59.296875 L 182.910156 59.511719 L 183.164063 59.652344 L 183.417969 59.722656 L 183.671875 59.71875 L 183.925781 59.644531 L 184.179688 59.496094 L 184.433594 59.277344 L 184.6875 58.988281 L 184.941406 58.628906 L 185.195313 58.199219 L 185.449219 57.699219 L 185.703125 57.136719 L 185.957031 56.507813 L 186.210938 55.816406 L 186.464844 55.0625 L 186.71875 54.253906 L 187.226563 52.46875 L 187.480469 51.496094 L 187.734375 50.480469 L 188.242188 48.3125 L 188.496094 47.167969 L 188.75 45.992188 L 189.261719 43.550781 L 190.277344 38.410156 L 190.53125 37.09375 L 190.785156 35.773438 L 191.292969 33.140625 L 192.308594 27.992188 L 192.5625 26.753906 L 192.816406 25.542969 L 193.324219 23.214844 L 193.578125 22.109375 L 193.832031 21.039063 L 194.339844 19.039063 L 194.59375 18.113281 L 194.847656 17.242188 L 195.101563 16.425781 L 195.355469 15.667969 L 195.609375 14.96875 L 195.863281 14.332031 L 196.117188 13.761719 L 196.371094 13.253906 L 196.648438 12.785156 L 196.925781 12.394531 L 197.199219 12.085938 L 197.476563 11.863281 L 197.75 11.722656 L 198.027344 11.671875 L 198.300781 11.703125 L 198.578125 11.820313 L 198.851563 12.019531 L 199.128906 12.304688 L 199.402344 12.675781 L 199.679688 13.125 L 199.957031 13.65625 L 200.230469 14.265625 L 200.507813 14.949219 L 200.78125 15.710938 L 201.058594 16.539063 L 201.332031 17.4375 L 201.882813 19.421875 L 202.160156 20.503906 L 202.433594 21.640625 L 202.988281 24.058594 L 203.261719 25.332031 L 203.539063 26.640625 L 204.089844 29.351563 L 205.191406 35.003906 L 205.464844 36.433594 L 205.742188 37.863281 L 206.292969 40.695313 L 206.570313 42.085938 L 206.84375 43.453125 L 207.394531 46.105469 L 207.671875 47.375 L 207.945313 48.605469 L 208.496094 50.925781 L 208.773438 52.003906 L 209.050781 53.027344 L 209.601563 54.882813 L 209.875 55.710938 L 210.152344 56.46875 L 210.425781 57.152344 L 210.703125 57.757813 L 210.976563 58.285156 L 211.253906 58.734375 L 211.527344 59.101563 L 211.804688 59.386719 L 212.082031 59.585938 L 212.355469 59.699219 L 212.632813 59.730469 L 212.90625 59.671875 L 213.183594 59.53125 L 213.457031 59.304688 L 213.734375 58.996094 L 214.007813 58.605469 L 214.265625 58.164063 L 214.523438 57.65625 L 214.78125 57.078125 L 215.039063 56.4375 L 215.296875 55.730469 L 215.550781 54.960938 L 216.066406 53.246094 L 216.324219 52.308594 L 216.582031 51.316406 L 217.09375 49.191406 L 218.125 44.472656 L 218.382813 43.214844 L 218.636719 41.933594 L 219.152344 39.320313 L 220.179688 33.988281 L 220.4375 32.660156 L 220.695313 31.339844 L 221.210938 28.742188 L 222.238281 23.839844 L 222.496094 22.695313 L 222.753906 21.59375 L 223.269531 19.519531 L 223.523438 18.558594 L 223.78125 17.648438 L 224.296875 16 L 224.554688 15.265625 L 224.8125 14.59375 L 225.066406 13.988281 L 225.324219 13.449219 L 225.582031 12.976563 L 225.839844 12.578125 L 226.097656 12.25 L 226.355469 11.996094 L 226.609375 11.8125 L 226.867188 11.703125 L 227.125 11.671875 L 227.382813 11.710938 L 227.640625 11.824219 L 227.898438 12.011719 L 228.152344 12.273438 L 228.410156 12.609375 L 228.667969 13.011719 L 228.925781 13.488281 L 229.183594 14.03125 L 229.441406 14.644531 L 229.695313 15.320313 L 229.953125 16.058594 L 230.46875 17.71875 L 230.746094 18.710938 L 231.027344 19.765625 L 231.582031 22.042969 L 232.699219 27.160156 L 232.976563 28.527344 L 233.253906 29.921875 L 233.8125 32.769531 L 234.929688 38.550781 L 235.207031 39.980469 L 235.484375 41.398438 L 236.042969 44.164063 L 236.320313 45.503906 L 236.601563 46.808594 L 237.15625 49.289063 L 237.4375 50.457031 L 237.714844 51.574219 L 237.992188 52.632813 L 238.273438 53.628906 L 238.550781 54.558594 L 238.828125 55.421875 L 239.109375 56.214844 L 239.386719 56.929688 L 239.664063 57.570313 L 239.945313 58.128906 L 240.222656 58.609375 L 240.503906 59.003906 L 240.78125 59.316406 L 241.058594 59.539063 L 241.339844 59.679688 L 241.617188 59.730469 L 241.894531 59.695313 L 242.175781 59.570313 L 242.453125 59.359375 L 242.730469 59.066406 L 243.011719 58.683594 L 243.289063 58.222656 L 243.566406 57.675781 L 243.847656 57.050781 L 244.125 56.347656 L 244.402344 55.566406 L 244.683594 54.71875 L 244.960938 53.796875 L 245.238281 52.8125 L 245.519531 51.765625 L 246.078125 49.5 L 246.355469 48.289063 L 246.632813 47.035156 L 247.191406 44.40625 L 248.304688 38.804688 L 248.578125 37.390625 L 248.851563 35.96875 L 249.402344 33.128906 L 250.496094 27.597656 L 250.769531 26.277344 L 251.042969 24.984375 L 251.589844 22.519531 L 251.863281 21.355469 L 252.136719 20.238281 L 252.683594 18.175781 L 252.957031 17.234375 L 253.230469 16.355469 L 253.503906 15.546875 L 253.777344 14.808594 L 254.050781 14.144531 L 254.324219 13.554688 L 254.597656 13.039063 L 254.871094 12.605469 L 255.148438 12.253906 L 255.421875 11.984375 L 255.695313 11.796875 L 255.96875 11.691406 L 256.242188 11.671875 L 256.515625 11.738281 L 256.789063 11.886719 L 257.0625 12.117188 L 257.335938 12.429688 L 257.609375 12.828125 L 257.882813 13.304688 L 258.15625 13.855469 L 258.429688 14.488281 L 258.703125 15.191406 L 258.976563 15.96875 L 259.25 16.816406 L 259.523438 17.726563 L 259.796875 18.703125 L 260.34375 20.828125 L 260.617188 21.96875 L 260.894531 23.160156 L 261.441406 25.667969 L 261.714844 26.976563 L 261.988281 28.316406 L 262.535156 31.066406 L 263.628906 36.726563 L 263.902344 38.144531 L 264.175781 39.554688 L 264.722656 42.328125 L 265.816406 47.558594 L 266.074219 48.695313 L 266.328125 49.789063 L 266.839844 51.847656 L 267.09375 52.804688 L 267.347656 53.710938 L 267.859375 55.351563 L 268.113281 56.085938 L 268.371094 56.757813 L 268.625 57.363281 L 268.878906 57.902344 L 269.136719 58.378906 L 269.390625 58.78125 L 269.648438 59.113281 L 269.902344 59.378906 L 270.15625 59.566406 L 270.414063 59.683594 L 270.667969 59.730469 L 270.921875 59.699219 L 271.179688 59.597656 L 271.433594 59.425781 L 271.6875 59.175781 L 271.945313 58.859375 L 272.199219 58.46875 L 272.453125 58.011719 L 272.710938 57.484375 L 272.964844 56.894531 L 273.21875 56.234375 L 273.476563 55.515625 L 273.984375 53.898438 L 274.242188 53.003906 L 274.496094 52.058594 L 275.007813 50.019531 L 276.027344 45.445313 L 276.28125 44.21875 L 276.539063 42.964844 L 277.046875 40.398438 L 278.070313 35.121094 L 278.324219 33.796875 L 278.578125 32.480469 L 279.089844 29.875 L 279.34375 28.597656 L 279.601563 27.34375 L 280.109375 24.910156 L 280.367188 23.742188 L 280.621094 22.609375 L 281.132813 20.472656 L 281.386719 19.46875 L 281.640625 18.515625 L 282.152344 16.769531 L 282.429688 15.917969 L 282.707031 15.136719 L 282.984375 14.429688 L 283.261719 13.800781 L 283.535156 13.246094 L 283.8125 12.773438 L 284.089844 12.386719 L 284.367188 12.078125 L 284.644531 11.855469 L 284.921875 11.722656 L 285.199219 11.671875 L 285.472656 11.707031 L 285.75 11.828125 L 286.027344 12.035156 L 286.304688 12.324219 L 286.582031 12.703125 L 286.859375 13.160156 L 287.136719 13.699219 L 287.410156 14.316406 L 287.6875 15.007813 L 287.964844 15.777344 L 288.242188 16.617188 L 288.796875 18.496094 L 289.070313 19.53125 L 289.347656 20.625 L 289.902344 22.96875 L 291.007813 28.164063 L 291.285156 29.542969 L 291.5625 30.941406 L 292.117188 33.789063 L 293.222656 39.523438 L 293.5 40.9375 L 293.777344 42.328125 L 294.332031 45.039063 L 294.609375 46.347656 L 294.882813 47.617188 L 295.4375 50.023438 L 295.714844 51.152344 L 295.992188 52.226563 L 296.269531 53.238281 L 296.542969 54.191406 L 296.820313 55.074219 L 297.097656 55.890625 L 297.375 56.636719 L 297.652344 57.304688 L 297.929688 57.894531 L 298.207031 58.40625 L 298.480469 58.835938 L 298.757813 59.183594 L 299.035156 59.445313 L 299.3125 59.625 L 299.589844 59.714844 L 299.867188 59.722656 L 300.125 59.652344 L 300.382813 59.503906 L 300.640625 59.28125 L 300.898438 58.988281 L 301.15625 58.621094 L 301.417969 58.183594 L 301.675781 57.675781 L 301.933594 57.097656 L 302.191406 56.453125 L 302.449219 55.742188 L 302.707031 54.972656 L 302.964844 54.140625 L 303.226563 53.25 L 303.484375 52.304688 L 304 50.265625 L 304.257813 49.175781 L 304.515625 48.042969 L 305.035156 45.667969 L 306.066406 40.574219 L 308.132813 29.921875 L 308.390625 28.628906 L 308.652344 27.355469 L 309.167969 24.894531 L 309.425781 23.714844 L 309.683594 22.570313 L 310.203125 20.40625 L 310.460938 19.394531 L 310.71875 18.433594 L 310.976563 17.527344 L 311.234375 16.679688 L 311.492188 15.886719 L 311.75 15.160156 L 312.011719 14.496094 L 312.269531 13.898438 L 312.527344 13.367188 L 312.785156 12.90625 L 313.042969 12.515625 L 313.300781 12.199219 L 313.558594 11.957031 L 313.820313 11.785156 L 314.078125 11.691406 L 314.335938 11.671875 L 314.59375 11.726563 L 314.851563 11.855469 L 315.109375 12.0625 L 315.367188 12.339844 L 315.628906 12.691406 L 315.886719 13.113281 L 316.144531 13.605469 L 316.402344 14.167969 L 316.65625 14.785156 L 316.910156 15.464844 L 317.164063 16.203125 L 317.414063 17.003906 L 317.667969 17.859375 L 317.921875 18.765625 L 318.429688 20.730469 L 318.683594 21.785156 L 318.933594 22.875 L 319.441406 25.175781 L 320.453125 30.125 L 320.707031 31.410156 L 320.960938 32.710938 L 321.46875 35.335938 L 322.480469 40.570313 L 322.734375 41.851563 L 322.988281 43.113281 L 323.496094 45.566406 L 324.507813 50.09375 L 324.761719 51.125 L 325.015625 52.113281 L 325.265625 53.046875 L 325.519531 53.933594 L 325.773438 54.761719 L 326.027344 55.535156 L 326.28125 56.246094 L 326.535156 56.898438 L 326.789063 57.488281 L 327.039063 58.007813 L 327.292969 58.464844 L 327.546875 58.851563 L 327.800781 59.167969 L 328.054688 59.417969 L 328.308594 59.59375 L 328.558594 59.699219 L 328.8125 59.730469 L 329.066406 59.691406 L 329.320313 59.578125 L 329.574219 59.394531 L 329.828125 59.140625 L 330.082031 58.816406 L 330.332031 58.421875 L 330.585938 57.960938 L 330.839844 57.433594 L 331.09375 56.835938 L 331.347656 56.179688 L 331.601563 55.460938 L 331.851563 54.683594 L 332.105469 53.847656 L 332.613281 52.015625 L 332.886719 50.941406 L 333.164063 49.808594 L 333.710938 47.402344 L 334.8125 42.132813 L 335.085938 40.746094 L 335.359375 39.339844 L 335.910156 36.496094 L 337.011719 30.820313 L 337.285156 29.429688 L 337.558594 28.0625 L 338.109375 25.414063 L 338.382813 24.144531 L 338.660156 22.914063 L 339.207031 20.589844 L 339.484375 19.507813 L 339.757813 18.480469 L 340.035156 17.515625 L 340.308594 16.613281 L 340.582031 15.78125 L 340.859375 15.019531 L 341.132813 14.328125 L 341.40625 13.710938 L 341.683594 13.175781 L 341.957031 12.71875 L 342.230469 12.339844 L 342.507813 12.046875 L 342.78125 11.835938 L 343.054688 11.710938 L 343.332031 11.671875 L 343.605469 11.714844 L 343.882813 11.839844 L 344.15625 12.054688 L 344.429688 12.351563 L 344.707031 12.730469 L 344.980469 13.1875 L 345.253906 13.726563 L 345.53125 14.34375 L 345.804688 15.035156 L 346.078125 15.800781 L 346.355469 16.636719 L 346.902344 18.503906 L 347.179688 19.53125 L 347.453125 20.617188 L 348.003906 22.941406 L 348.277344 24.175781 L 348.554688 25.449219 L 349.101563 28.097656 L 350.203125 33.679688 L 350.457031 35.011719 L 350.714844 36.34375 L 351.226563 38.996094 L 352.253906 44.152344 L 352.511719 45.386719 L 352.765625 46.589844 L 353.277344 48.894531 L 353.535156 49.988281 L 353.792969 51.039063 L 354.304688 52.992188 L 354.5625 53.890625 L 354.816406 54.730469 L 355.074219 55.515625 L 355.332031 56.238281 L 355.585938 56.898438 L 355.84375 57.492188 L 356.101563 58.019531 L 356.355469 58.480469 L 356.613281 58.867188 L 356.871094 59.1875 L 357.125 59.433594 L 357.382813 59.605469 L 357.636719 59.703125 L 357.894531 59.730469 L 358.152344 59.679688 L 358.40625 59.558594 L 358.664063 59.363281 L 358.921875 59.09375 L 359.175781 58.753906 L 359.433594 58.34375 L 359.691406 57.859375 L 359.945313 57.3125 L 360.203125 56.695313 L 360.460938 56.015625 L 360.714844 55.273438 L 360.972656 54.472656 L 361.484375 52.695313 L 361.742188 51.726563 L 361.996094 50.710938 L 362.511719 48.542969 L 362.765625 47.394531 L 363.023438 46.214844 L 363.535156 43.757813 L 364.5625 38.578125 L 366.613281 28.058594 L 366.890625 26.707031 L 367.167969 25.382813 L 367.726563 22.855469 L 368.003906 21.65625 L 368.28125 20.511719 L 368.835938 18.386719 L 369.117188 17.417969 L 369.394531 16.511719 L 369.671875 15.679688 L 369.949219 14.917969 L 370.226563 14.230469 L 370.503906 13.621094 L 370.785156 13.089844 L 371.0625 12.640625 L 371.339844 12.277344 L 371.617188 11.996094 L 371.894531 11.800781 L 372.171875 11.695313 L 372.449219 11.671875 L 372.730469 11.738281 L 373.007813 11.890625 L 373.285156 12.128906 L 373.5625 12.449219 L 373.839844 12.859375 L 374.117188 13.347656 L 374.398438 13.917969 L 374.675781 14.566406 L 374.953125 15.292969 L 375.230469 16.089844 L 375.507813 16.960938 L 375.785156 17.898438 L 376.066406 18.898438 L 376.621094 21.082031 L 376.898438 22.253906 L 377.175781 23.476563 L 377.730469 26.046875 L 378.011719 27.382813 L 378.289063 28.753906 L 378.84375 31.5625 L 379.957031 37.320313 L 380.234375 38.757813 L 380.511719 40.183594 L 381.066406 42.984375 L 381.347656 44.34375 L 381.625 45.675781 L 382.179688 48.226563 L 382.457031 49.4375 L 382.734375 50.597656 L 383.015625 51.703125 L 383.292969 52.75 L 383.570313 53.738281 L 383.847656 54.65625 L 384.125 55.511719 L 384.402344 56.292969 L 384.675781 56.988281 L 384.949219 57.605469 L 385.222656 58.152344 L 385.496094 58.617188 L 385.769531 59.003906 L 386.039063 59.308594 L 386.3125 59.53125 L 386.585938 59.671875 L 386.859375 59.730469 L 387.132813 59.703125 L 387.40625 59.589844 L 387.679688 59.398438 L 387.949219 59.121094 L 388.222656 58.761719 L 388.496094 58.324219 L 388.769531 57.808594 L 389.042969 57.214844 L 389.316406 56.542969 L 389.589844 55.804688 L 389.859375 54.992188 L 390.132813 54.113281 L 390.40625 53.171875 L 390.953125 51.105469 L 391.226563 49.992188 L 391.5 48.828125 L 392.042969 46.367188 L 393.136719 41.035156 L 393.410156 39.640625 L 393.683594 38.238281 L 394.226563 35.40625 L 395.320313 29.792969 L 395.59375 28.429688 L 395.863281 27.09375 L 396.410156 24.511719 L 396.683594 23.277344 L 396.957031 22.085938 L 397.503906 19.847656 L 397.773438 18.808594 L 398.046875 17.832031 L 398.320313 16.914063 L 398.59375 16.0625 L 398.867188 15.28125 L 399.140625 14.570313 L 399.414063 13.929688 L 399.683594 13.367188 L 399.957031 12.882813 L 400.230469 12.480469 L 400.503906 12.15625 L 400.777344 11.914063 L 401.050781 11.753906 L 401.324219 11.675781 L 401.59375 11.683594 L 401.867188 11.777344 L 402.121094 11.9375 L 402.378906 12.167969 L 402.632813 12.472656 L 402.886719 12.84375 L 403.140625 13.289063 L 403.394531 13.796875 L 403.648438 14.375 L 403.902344 15.019531 L 404.160156 15.722656 L 404.414063 16.488281 L 404.921875 18.1875 L 405.175781 19.121094 L 405.429688 20.101563 L 405.941406 22.203125 L 406.195313 23.320313 L 406.449219 24.46875 L 406.957031 26.871094 L 407.976563 31.964844 L 410.011719 42.441406 L 410.265625 43.699219 L 410.519531 44.933594 L 411.03125 47.3125 L 411.285156 48.453125 L 411.539063 49.554688 L 412.046875 51.628906 L 412.300781 52.59375 L 412.558594 53.507813 L 412.8125 54.367188 L 413.066406 55.171875 L 413.320313 55.917969 L 413.574219 56.601563 L 413.828125 57.222656 L 414.082031 57.777344 L 414.339844 58.265625 L 414.59375 58.6875 L 414.847656 59.035156 L 415.101563 59.316406 L 415.355469 59.523438 L 415.609375 59.660156 L 415.867188 59.726563 L 416.121094 59.714844 L 416.375 59.632813 L 416.628906 59.480469 L 416.882813 59.253906 L 417.136719 58.957031 L 417.390625 58.585938 L 417.648438 58.148438 L 417.902344 57.644531 L 418.15625 57.074219 L 418.433594 56.378906 L 418.707031 55.613281 L 418.984375 54.773438 L 419.261719 53.867188 L 419.535156 52.898438 L 419.8125 51.867188 L 420.363281 49.632813 L 420.640625 48.441406 L 420.917969 47.203125 L 421.46875 44.609375 L 422.570313 39.074219 L 422.847656 37.652344 L 423.125 36.21875 L 423.675781 33.351563 L 424.78125 27.761719 L 425.054688 26.425781 L 425.332031 25.117188 L 425.882813 22.625 L 426.160156 21.445313 L 426.4375 20.316406 L 426.988281 18.226563 L 427.265625 17.273438 L 427.539063 16.386719 L 427.816406 15.566406 L 428.09375 14.820313 L 428.367188 14.148438 L 428.644531 13.550781 L 428.921875 13.035156 L 429.195313 12.601563 L 429.472656 12.246094 L 429.75 11.976563 L 430.023438 11.789063 L 430.300781 11.691406 L 430.578125 11.675781 L 430.851563 11.746094 L 431.128906 11.902344 L 431.40625 12.140625 L 431.679688 12.464844 L 431.957031 12.875 L 432.234375 13.363281 L 432.507813 13.929688 L 432.785156 14.578125 L 433.0625 15.296875 L 433.335938 16.089844 L 433.613281 16.953125 L 433.890625 17.886719 L 434.164063 18.878906 L 434.71875 21.042969 L 434.992188 22.207031 L 435.269531 23.414063 L 435.820313 25.960938 L 436.078125 27.203125 L 436.335938 28.464844 L 436.851563 31.058594 L 437.882813 36.386719 L 438.140625 37.722656 L 438.398438 39.050781 L 438.914063 41.675781 L 439.945313 46.675781 L 440.203125 47.847656 L 440.457031 48.984375 L 440.972656 51.128906 L 441.230469 52.128906 L 441.488281 53.082031 L 442.003906 54.820313 L 442.261719 55.597656 L 442.519531 56.320313 L 442.777344 56.972656 L 443.035156 57.5625 L 443.292969 58.085938 L 443.550781 58.535156 L 443.808594 58.917969 L 444.066406 59.226563 L 444.324219 59.460938 L 444.582031 59.625 L 444.839844 59.710938 L 445.097656 59.726563 L 445.355469 59.664063 L 445.613281 59.53125 L 445.871094 59.320313 L 446.125 59.039063 L 446.382813 58.683594 L 446.640625 58.253906 L 446.898438 57.757813 L 447.15625 57.195313 L 447.414063 56.5625 L 447.671875 55.867188 L 448.1875 54.289063 L 448.445313 53.410156 L 448.703125 52.480469 L 449.21875 50.460938 L 450.25 45.90625 L 450.507813 44.679688 L 450.765625 43.421875 L 451.28125 40.84375 L 452.308594 35.527344 L 452.589844 34.078125 L 452.867188 32.636719 L 453.425781 29.789063 L 453.707031 28.394531 L 453.984375 27.023438 L 454.542969 24.386719 L 454.824219 23.128906 L 455.101563 21.917969 L 455.660156 19.644531 L 455.9375 18.597656 L 456.21875 17.609375 L 456.496094 16.6875 L 456.777344 15.835938 L 457.054688 15.054688 L 457.335938 14.351563 L 457.613281 13.726563 L 457.894531 13.179688 L 458.171875 12.714844 L 458.453125 12.332031 L 458.730469 12.039063 L 459.011719 11.828125 L 459.289063 11.707031 L 459.570313 11.671875 L 459.847656 11.722656 L 460.125 11.863281 L 460.40625 12.089844 L 460.683594 12.402344 L 460.964844 12.800781 L 461.242188 13.28125 L 461.523438 13.84375 L 461.800781 14.488281 L 462.082031 15.207031 L 462.359375 16 L 462.640625 16.867188 L 462.917969 17.800781 L 463.476563 19.863281 L 463.757813 20.984375 L 464.035156 22.15625 L 464.59375 24.644531 L 465.710938 30.070313 L 465.988281 31.488281 L 466.269531 32.925781 L 466.828125 35.820313 L 467.945313 41.5625 L 468.222656 42.957031 L 468.5 44.328125 L 469.058594 46.964844 L 469.339844 48.226563 L 469.617188 49.441406 L 470.175781 51.714844 L 470.449219 52.75 L 470.726563 53.722656 L 471 54.632813 L 471.273438 55.476563 L 471.546875 56.25 L 471.820313 56.949219 L 472.09375 57.578125 L 472.371094 58.128906 L 472.644531 58.601563 L 472.917969 58.992188 L 473.191406 59.300781 L 473.464844 59.527344 L 473.738281 59.667969 L 474.015625 59.726563 L 474.289063 59.703125 L 474.5625 59.59375 L 474.835938 59.398438 L 475.109375 59.121094 L 475.382813 58.761719 L 475.660156 58.320313 L 475.933594 57.800781 L 476.207031 57.203125 L 476.480469 56.53125 L 476.753906 55.785156 L 477.027344 54.964844 L 477.304688 54.082031 L 477.851563 52.121094 L 478.125 51.054688 L 478.398438 49.933594 L 478.949219 47.542969 L 479.222656 46.285156 L 479.496094 44.988281 L 480.042969 42.300781 L 481.140625 36.6875 L 481.6875 33.84375 L 482.238281 31.019531 L 483.332031 25.617188 L 483.605469 24.339844 L 483.882813 23.105469 L 484.429688 20.773438 L 484.703125 19.683594 L 484.976563 18.652344 L 485.527344 16.769531 L 485.800781 15.925781 L 486.074219 15.152344 L 486.347656 14.449219 L 486.621094 13.820313 L 486.894531 13.273438 L 487.171875 12.800781 L 487.445313 12.410156 L 487.71875 12.097656 L 487.972656 11.886719 L 488.230469 11.746094 L 488.484375 11.675781 L 488.742188 11.683594 L 488.996094 11.761719 L 489.253906 11.914063 L 489.507813 12.136719 L 489.765625 12.433594 L 490.019531 12.804688 L 490.273438 13.242188 L 490.53125 13.746094 L 490.785156 14.320313 L 491.042969 14.960938 L 491.296875 15.664063 L 491.808594 17.25 L 492.066406 18.128906 L 492.320313 19.0625 L 492.832031 21.078125 L 493.855469 25.617188 L 494.109375 26.839844 L 494.367188 28.085938 L 494.878906 30.648438 L 495.898438 35.925781 L 496.15625 37.253906 L 496.410156 38.574219 L 496.921875 41.191406 L 497.179688 42.476563 L 497.433594 43.738281 L 497.945313 46.191406 L 498.203125 47.371094 L 498.457031 48.511719 L 498.96875 50.679688 L 499.222656 51.695313 L 499.480469 52.660156 L 499.992188 54.4375 L 500.246094 55.238281 L 500.503906 55.980469 L 500.757813 56.664063 L 501.015625 57.28125 L 501.269531 57.832031 L 501.527344 58.316406 L 501.78125 58.730469 L 502.035156 59.074219 L 502.292969 59.347656 L 502.546875 59.546875 L 502.804688 59.675781 L 503.058594 59.726563 L 503.316406 59.707031 L 503.570313 59.617188 L 503.828125 59.449219 L 504.082031 59.210938 L 504.359375 58.871094 L 504.636719 58.449219 L 504.914063 57.945313 L 505.191406 57.359375 L 505.46875 56.695313 L 505.746094 55.957031 L 506.023438 55.148438 L 506.300781 54.265625 L 506.578125 53.320313 L 506.855469 52.308594 L 507.410156 50.113281 L 507.6875 48.933594 L 507.964844 47.710938 L 508.519531 45.132813 L 508.796875 43.792969 L 509.074219 42.421875 L 509.628906 39.613281 L 510.734375 33.871094 L 511.011719 32.4375 L 511.289063 31.015625 L 511.84375 28.230469 L 512.953125 23.019531 L 513.230469 21.820313 L 513.507813 20.667969 L 513.785156 19.574219 L 514.0625 18.535156 L 514.339844 17.558594 L 514.617188 16.644531 L 514.894531 15.804688 L 515.171875 15.03125 L 515.449219 14.335938 L 515.726563 13.714844 L 516.003906 13.171875 L 516.28125 12.710938 L 516.558594 12.332031 L 516.835938 12.039063 L 517.113281 11.832031 L 517.390625 11.707031 L 517.667969 11.671875 L 517.945313 11.71875 L 518.222656 11.855469 L 518.5 12.078125 L 518.777344 12.382813 L 519.050781 12.773438 L 519.328125 13.246094 L 519.605469 13.796875 L 519.882813 14.429688 L 520.160156 15.136719 L 520.4375 15.917969 L 520.714844 16.773438 L 520.992188 17.691406 L 521.269531 18.679688 L 521.824219 20.832031 L 522.082031 21.910156 L 522.34375 23.03125 L 522.859375 25.394531 L 523.894531 30.46875 L 524.15625 31.789063 L 524.414063 33.125 L 524.929688 35.808594 L 525.964844 41.140625 L 526.226563 42.441406 L 526.484375 43.722656 L 527 46.203125 L 527.261719 47.394531 L 527.519531 48.550781 L 528.035156 50.738281 L 528.296875 51.765625 L 528.554688 52.738281 L 528.8125 53.660156 L 529.074219 54.527344 L 529.332031 55.332031 L 529.589844 56.074219 L 529.847656 56.757813 L 530.109375 57.371094 L 530.367188 57.917969 L 530.625 58.394531 L 530.882813 58.800781 L 531.144531 59.136719 L 531.402344 59.394531 L 531.660156 59.582031 L 531.917969 59.695313 L 532.179688 59.730469 L 532.4375 59.691406 L 532.695313 59.578125 L 532.953125 59.386719 L 533.214844 59.125 L 533.472656 58.789063 L 533.730469 58.378906 L 533.988281 57.898438 L 534.25 57.347656 L 534.507813 56.730469 L 534.765625 56.046875 L 535.027344 55.300781 L 535.285156 54.492188 L 535.542969 53.625 L 535.800781 52.703125 L 536.320313 50.699219 L 536.578125 49.625 L 536.835938 48.507813 L 537.355469 46.15625 L 538.390625 41.089844 L 538.644531 39.796875 L 538.898438 38.492188 L 539.40625 35.863281 L 540.421875 30.625 L 540.675781 29.34375 L 540.929688 28.082031 L 541.433594 25.632813 L 542.449219 21.125 L 542.703125 20.097656 L 542.957031 19.117188 L 543.210938 18.191406 L 543.464844 17.3125 L 543.71875 16.492188 L 543.972656 15.730469 L 544.226563 15.027344 L 544.480469 14.386719 L 544.734375 13.808594 L 544.988281 13.296875 L 545.242188 12.855469 L 545.496094 12.480469 L 545.75 12.175781 L 546.003906 11.941406 L 546.257813 11.78125 L 546.511719 11.691406 L 546.765625 11.671875 L 547.019531 11.726563 L 547.273438 11.851563 L 547.527344 12.050781 L 547.777344 12.320313 L 548.03125 12.660156 L 548.285156 13.070313 L 548.539063 13.546875 L 548.792969 14.09375 L 549.046875 14.703125 L 549.300781 15.375 L 549.554688 16.109375 L 549.808594 16.902344 L 550.0625 17.75 L 550.570313 19.609375 L 550.824219 20.613281 L 551.078125 21.660156 L 551.585938 23.878906 L 552.601563 28.71875 L 554.628906 39.15625 L 554.90625 40.5625 L 555.179688 41.957031 L 555.730469 44.667969 L 556.007813 45.976563 L 556.28125 47.253906 L 556.832031 49.671875 L 557.109375 50.8125 L 557.382813 51.898438 L 557.660156 52.925781 L 557.933594 53.890625 L 558.210938 54.792969 L 558.484375 55.628906 L 558.761719 56.390625 L 559.035156 57.082031 L 559.308594 57.695313 L 559.585938 58.234375 L 559.859375 58.691406 L 560.136719 59.066406 L 560.410156 59.359375 L 560.6875 59.566406 L 560.960938 59.691406 L 561.238281 59.730469 L 561.511719 59.683594 L 561.789063 59.554688 L 562.0625 59.335938 L 562.339844 59.039063 L 562.613281 58.65625 L 562.890625 58.195313 L 563.164063 57.652344 L 563.441406 57.03125 L 563.714844 56.332031 L 563.988281 55.5625 L 564.265625 54.722656 L 564.539063 53.816406 L 564.816406 52.847656 L 565.089844 51.8125 L 565.640625 49.582031 L 565.917969 48.390625 L 566.191406 47.152344 L 566.742188 44.5625 L 567.84375 39.042969 L 568.121094 37.621094 L 568.394531 36.195313 L 568.945313 33.335938 L 570.046875 27.761719 L 570.320313 26.425781 L 570.597656 25.125 L 571.148438 22.636719 L 571.421875 21.460938 L 571.699219 20.332031 L 572.25 18.246094 L 572.503906 17.355469 L 572.761719 16.523438 L 573.019531 15.75 L 573.277344 15.035156 L 573.53125 14.386719 L 573.789063 13.804688 L 574.046875 13.289063 L 574.304688 12.839844 L 574.5625 12.464844 L 574.816406 12.160156 L 575.074219 11.929688 L 575.332031 11.769531 L 575.589844 11.683594 L 575.84375 11.675781 L 576.101563 11.738281 L 576.359375 11.875 L 576.617188 12.085938 L 576.871094 12.371094 L 577.128906 12.726563 L 577.386719 13.152344 L 577.644531 13.648438 L 577.898438 14.214844 L 578.15625 14.84375 L 578.414063 15.539063 L 578.671875 16.296875 L 578.929688 17.113281 L 579.441406 18.917969 L 579.699219 19.898438 L 579.957031 20.929688 L 580.46875 23.121094 L 580.726563 24.277344 L 580.984375 25.46875 L 581.496094 27.945313 L 582.523438 33.148438 L 583.039063 35.8125 L 583.550781 38.476563 L 584.578125 43.667969 L 584.835938 44.917969 L 585.09375 46.132813 L 585.605469 48.46875 L 585.863281 49.582031 L 586.121094 50.648438 L 586.636719 52.644531 L 586.890625 53.5625 L 587.148438 54.429688 L 587.40625 55.234375 L 587.664063 55.980469 L 587.917969 56.667969 L 588.175781 57.285156 L 588.433594 57.839844 L 588.691406 58.324219 L 588.96875 58.769531 L 589.246094 59.132813 L 589.523438 59.410156 L 589.804688 59.601563 L 590.082031 59.707031 L 590.359375 59.726563 L 590.640625 59.65625 L 590.917969 59.5 L 591.195313 59.261719 L 591.472656 58.933594 L 591.753906 58.519531 L 592.03125 58.027344 L 592.308594 57.453125 L 592.585938 56.796875 L 592.867188 56.066406 L 593.144531 55.261719 L 593.421875 54.386719 L 593.703125 53.445313 L 594.257813 51.371094 L 594.535156 50.246094 L 594.816406 49.066406 L 595.371094 46.570313 L 595.652344 45.261719 L 595.929688 43.917969 L 596.484375 41.148438 L 597.597656 35.40625 L 597.878906 33.960938 L 598.15625 32.523438 L 598.714844 29.683594 L 598.992188 28.292969 L 599.269531 26.933594 L 599.828125 24.308594 L 600.105469 23.054688 L 600.382813 21.847656 L 600.941406 19.589844 L 601.21875 18.546875 L 601.496094 17.5625 L 601.777344 16.648438 L 602.054688 15.800781 L 602.332031 15.027344 L 602.609375 14.328125 L 602.890625 13.707031 L 603.167969 13.164063 L 603.445313 12.703125 L 603.726563 12.324219 L 604.003906 12.03125 L 604.28125 11.824219 L 604.558594 11.703125 L 604.839844 11.671875 L 605.117188 11.722656 L 605.394531 11.863281 L 605.675781 12.089844 L 605.953125 12.402344 L 606.230469 12.800781 L 606.507813 13.28125 L 606.78125 13.832031 L 607.054688 14.457031 L 607.328125 15.160156 L 607.601563 15.929688 L 607.875 16.773438 L 608.148438 17.679688 L 608.695313 19.683594 L 608.96875 20.769531 L 609.242188 21.90625 L 609.789063 24.324219 L 610.882813 29.597656 L 611.15625 30.984375 L 611.429688 32.382813 L 611.976563 35.214844 L 613.070313 40.855469 L 613.34375 42.234375 L 613.617188 43.585938 L 614.164063 46.210938 L 614.4375 47.46875 L 614.710938 48.683594 L 615.257813 50.980469 L 615.53125 52.046875 L 615.804688 53.0625 L 616.074219 54.011719 L 616.347656 54.898438 L 616.621094 55.71875 L 616.894531 56.46875 L 617.167969 57.148438 L 617.441406 57.75 L 617.714844 58.277344 L 617.988281 58.722656 L 618.261719 59.089844 L 618.535156 59.375 L 618.808594 59.578125 L 619.082031 59.695313 L 619.355469 59.730469 L 619.628906 59.679688 L 619.902344 59.546875 L 620.175781 59.332031 L 620.449219 59.03125 L 620.722656 58.652344 L 620.996094 58.191406 L 621.269531 57.652344 L 621.542969 57.039063 L 621.816406 56.347656 L 622.089844 55.585938 L 622.363281 54.753906 L 622.910156 52.890625 L 623.183594 51.871094 L 623.457031 50.792969 L 624.003906 48.480469 L 624.257813 47.339844 L 624.511719 46.164063 L 625.023438 43.71875 L 626.042969 38.570313 L 626.296875 37.25 L 626.550781 35.925781 L 627.0625 33.28125 L 628.082031 28.109375 L 628.335938 26.863281 L 628.59375 25.644531 L 629.101563 23.304688 L 629.355469 22.191406 L 629.613281 21.113281 L 630.121094 19.101563 L 630.375 18.167969 L 630.632813 17.289063 L 630.886719 16.46875 L 631.140625 15.703125 L 631.398438 15 L 631.652344 14.359375 L 631.90625 13.78125 L 632.160156 13.273438 L 632.417969 12.832031 L 632.671875 12.457031 L 632.925781 12.15625 L 633.179688 11.929688 L 633.4375 11.769531 L 633.691406 11.6875 L 633.945313 11.675781 L 634.199219 11.734375 L 634.457031 11.871094 L 634.710938 12.078125 L 634.964844 12.355469 L 635.222656 12.703125 L 635.476563 13.125 L 635.730469 13.609375 L 635.984375 14.167969 L 636.242188 14.785156 L 636.496094 15.46875 L 636.75 16.214844 L 637.261719 17.882813 L 637.515625 18.796875 L 637.769531 19.765625 L 638.28125 21.839844 L 638.535156 22.945313 L 638.789063 24.085938 L 639.300781 26.472656 L 640.320313 31.546875 L 640.597656 32.96875 L 640.871094 34.402344 L 641.425781 37.273438 L 642.53125 42.910156 L 642.808594 44.265625 L 643.085938 45.59375 L 643.636719 48.136719 L 643.914063 49.339844 L 644.191406 50.5 L 644.742188 52.652344 L 645.019531 53.640625 L 645.296875 54.5625 L 645.574219 55.417969 L 645.851563 56.203125 L 646.125 56.917969 L 646.402344 57.554688 L 646.679688 58.109375 L 646.957031 58.589844 L 647.230469 58.984375 L 647.507813 59.296875 L 647.785156 59.527344 L 648.0625 59.671875 L 648.339844 59.730469 L 648.613281 59.699219 L 648.890625 59.585938 L 649.167969 59.386719 L 649.445313 59.105469 L 649.71875 58.738281 L 649.996094 58.285156 L 650.273438 57.757813 L 650.550781 57.148438 L 650.828125 56.460938 L 651.101563 55.699219 L 651.378906 54.867188 L 651.65625 53.96875 L 651.933594 53.003906 L 652.484375 50.890625 L 652.761719 49.75 L 653.039063 48.558594 L 653.589844 46.046875 L 653.867188 44.730469 L 654.144531 43.386719 L 654.695313 40.613281 L 655.804688 34.902344 L 656.078125 33.46875 L 656.355469 32.042969 L 656.910156 29.234375 L 658.015625 23.9375 L 658.273438 22.785156 L 658.53125 21.675781 L 659.046875 19.589844 L 659.304688 18.617188 L 659.5625 17.703125 L 660.078125 16.039063 L 660.335938 15.300781 L 660.597656 14.625 L 660.855469 14.011719 L 661.113281 13.46875 L 661.371094 12.996094 L 661.628906 12.589844 L 661.886719 12.257813 L 662.144531 12 L 662.402344 11.816406 L 662.660156 11.707031 L 662.917969 11.671875 L 663.175781 11.710938 L 663.433594 11.824219 L 663.691406 12.011719 L 663.949219 12.273438 L 664.210938 12.609375 L 664.46875 13.015625 L 664.726563 13.492188 L 664.984375 14.039063 L 665.242188 14.652344 L 665.5 15.332031 L 665.757813 16.078125 L 666.273438 17.746094 L 666.53125 18.664063 L 666.789063 19.636719 L 667.304688 21.726563 L 668.339844 26.402344 L 668.597656 27.652344 L 668.855469 28.925781 L 669.371094 31.539063 L 670.660156 38.21875 L 670.917969 39.546875 L 671.4375 42.167969 L 671.695313 43.449219 L 671.953125 44.703125 L 672.46875 47.128906 L 672.726563 48.292969 L 672.984375 49.414063 L 673.5 51.527344 L 673.757813 52.511719 L 674.015625 53.441406 L 674.53125 55.136719 L 674.785156 55.882813 L 675.039063 56.5625 L 675.292969 57.183594 L 675.546875 57.742188 L 675.796875 58.230469 L 676.050781 58.65625 L 676.304688 59.007813 L 676.558594 59.292969 L 676.808594 59.507813 L 677.0625 59.652344 L 677.316406 59.722656 L 677.570313 59.71875 L 677.820313 59.648438 L 678.074219 59.503906 L 678.328125 59.289063 L 678.582031 59 L 678.835938 58.644531 L 679.085938 58.21875 L 679.339844 57.726563 L 679.59375 57.167969 L 679.847656 56.546875 L 680.097656 55.863281 L 680.605469 54.3125 L 680.859375 53.457031 L 681.109375 52.542969 L 681.617188 50.570313 L 682.628906 46.117188 L 682.882813 44.917969 L 683.136719 43.691406 L 683.640625 41.167969 L 684.652344 35.957031 L 684.90625 34.640625 L 685.160156 33.328125 L 685.664063 30.730469 L 686.675781 25.746094 L 686.929688 24.566406 L 687.183594 23.417969 L 687.691406 21.234375 L 687.941406 20.207031 L 688.195313 19.226563 L 688.703125 17.414063 L 688.953125 16.589844 L 689.207031 15.820313 L 689.460938 15.113281 L 689.714844 14.464844 L 689.964844 13.882813 L 690.21875 13.363281 L 690.472656 12.914063 L 690.726563 12.527344 L 691 12.191406 L 691.273438 11.9375 L 691.550781 11.765625 L 691.824219 11.679688 L 692.097656 11.679688 L 692.371094 11.761719 L 692.648438 11.929688 L 692.921875 12.183594 L 693.195313 12.515625 L 693.472656 12.933594 L 693.746094 13.429688 L 694.019531 14.003906 L 694.292969 14.652344 L 694.570313 15.378906 L 694.84375 16.175781 L 695.117188 17.042969 L 695.394531 17.972656 L 695.667969 18.96875 L 696.214844 21.128906 L 696.492188 22.289063 L 696.765625 23.496094 L 697.316406 26.03125 L 697.589844 27.355469 L 697.863281 28.707031 L 698.414063 31.480469 L 699.511719 37.164063 L 699.785156 38.585938 L 700.058594 39.996094 L 700.609375 42.765625 L 700.882813 44.117188 L 701.160156 45.4375 L 701.707031 47.972656 L 701.980469 49.175781 L 702.257813 50.332031 L 702.53125 51.4375 L 702.804688 52.488281 L 703.078125 53.476563 L 703.355469 54.40625 L 703.628906 55.269531 L 703.902344 56.0625 L 704.179688 56.78125 L 704.453125 57.429688 L 704.726563 58 L 705 58.492188 L 705.277344 58.902344 L 705.550781 59.234375 L 705.824219 59.480469 L 706.101563 59.644531 L 706.375 59.722656 L 706.648438 59.714844 L 706.921875 59.625 L 707.199219 59.449219 L 707.472656 59.191406 L 707.746094 58.851563 L 708.023438 58.425781 L 708.296875 57.925781 L 708.550781 57.382813 L 708.808594 56.777344 L 709.066406 56.105469 L 709.320313 55.371094 L 709.578125 54.578125 L 709.832031 53.726563 L 710.34375 51.859375 L 710.601563 50.847656 L 710.859375 49.792969 L 711.371094 47.554688 L 712.394531 42.671875 L 712.652344 41.386719 L 712.90625 40.085938 L 713.417969 37.445313 L 714.445313 32.136719 L 714.699219 30.824219 L 714.957031 29.53125 L 715.46875 27 L 716.492188 22.289063 L 716.75 21.207031 L 717.003906 20.167969 L 717.261719 19.175781 L 717.519531 18.234375 L 717.773438 17.347656 L 718.03125 16.519531 L 718.285156 15.746094 L 718.542969 15.035156 L 718.796875 14.386719 L 719.054688 13.804688 L 719.3125 13.292969 L 719.566406 12.84375 L 719.824219 12.46875 L 720.078125 12.164063 L 720.335938 11.933594 L 720.589844 11.773438 L 720.847656 11.6875 L 721.105469 11.675781 L 721.359375 11.734375 L 721.617188 11.871094 L 721.871094 12.078125 L 722.128906 12.359375 L 722.382813 12.710938 L 722.640625 13.132813 L 722.898438 13.625 L 723.152344 14.183594 L 723.410156 14.808594 L 723.664063 15.5 L 723.921875 16.25 L 724.179688 17.0625 L 724.691406 18.855469 L 724.96875 19.914063 L 725.246094 21.027344 L 725.800781 23.414063 L 726.910156 28.679688 L 727.1875 30.070313 L 727.46875 31.484375 L 728.023438 34.347656 L 729.132813 40.097656 L 729.410156 41.507813 L 729.6875 42.894531 L 730.242188 45.589844 L 730.519531 46.886719 L 730.800781 48.144531 L 731.355469 50.515625 L 731.632813 51.625 L 731.910156 52.675781 L 732.1875 53.667969 L 732.464844 54.59375 L 732.742188 55.449219 L 733.019531 56.234375 L 733.296875 56.945313 L 733.574219 57.582031 L 733.855469 58.140625 L 734.132813 58.613281 L 734.410156 59.007813 L 734.6875 59.316406 L 734.964844 59.539063 L 735.242188 59.679688 L 735.519531 59.730469 L 735.796875 59.695313 L 736.074219 59.574219 L 736.351563 59.363281 L 736.628906 59.070313 L 736.90625 58.695313 L 737.1875 58.234375 L 737.464844 57.691406 L 737.742188 57.070313 L 738.019531 56.375 L 738.296875 55.601563 L 738.574219 54.757813 L 739.128906 52.867188 L 739.40625 51.824219 L 739.683594 50.726563 L 740.242188 48.371094 L 740.519531 47.125 L 740.796875 45.835938 L 741.351563 43.152344 L 742.460938 37.503906 L 742.722656 36.15625 L 742.980469 34.808594 L 743.5 32.128906 L 744.535156 26.929688 L 744.796875 25.691406 L 745.054688 24.480469 L 745.574219 22.175781 L 745.832031 21.082031 L 746.09375 20.035156 L 746.609375 18.09375 L 746.871094 17.207031 L 747.128906 16.375 L 747.386719 15.605469 L 747.648438 14.898438 L 747.90625 14.257813 L 748.167969 13.683594 L 748.425781 13.175781 L 748.683594 12.742188 L 748.945313 12.382813 L 749.203125 12.09375 L 749.460938 11.878906 L 749.722656 11.738281 L 749.980469 11.675781 L 750.242188 11.6875 L 750.5 11.773438 L 750.757813 11.933594 L 751.019531 12.171875 L 751.277344 12.480469 L 751.535156 12.867188 L 751.796875 13.320313 L 752.054688 13.847656 L 752.316406 14.441406 L 752.574219 15.101563 L 752.832031 15.828125 L 753.09375 16.617188 L 753.351563 17.464844 L 753.871094 19.332031 L 754.128906 20.34375 L 754.390625 21.40625 L 754.90625 23.65625 L 755.167969 24.839844 L 755.425781 26.058594 L 755.945313 28.582031 L 756.980469 33.867188 L 757.242188 35.210938 L 757.5 36.558594 L 758.019531 39.242188 L 759.054688 44.4375 L 759.3125 45.65625 L 759.566406 46.84375 L 760.074219 49.113281 L 760.328125 50.1875 L 760.582031 51.21875 L 761.089844 53.136719 L 761.34375 54.019531 L 761.597656 54.847656 L 761.851563 55.617188 L 762.105469 56.324219 L 762.363281 56.972656 L 762.617188 57.554688 L 762.871094 58.070313 L 763.125 58.519531 L 763.378906 58.898438 L 763.632813 59.207031 L 763.886719 59.445313 L 764.140625 59.613281 L 764.394531 59.707031 L 764.648438 59.730469 L 764.902344 59.679688 L 765.15625 59.554688 L 765.410156 59.359375 L 765.667969 59.09375 L 765.921875 58.753906 L 766.175781 58.347656 L 766.429688 57.871094 L 766.683594 57.332031 L 766.9375 56.722656 L 767.191406 56.050781 L 767.445313 55.316406 L 767.699219 54.527344 L 768.207031 52.773438 L 768.460938 51.816406 L 768.714844 50.816406 L 769.226563 48.671875 L 769.480469 47.542969 L 769.734375 46.375 L 770.242188 43.949219 L 771.257813 38.828125 L 771.511719 37.511719 L 771.765625 36.191406 L 772.277344 33.554688 L 773.292969 28.386719 L 773.546875 27.136719 L 773.800781 25.917969 L 774.308594 23.566406 L 774.5625 22.445313 L 774.816406 21.363281 L 775.324219 19.335938 L 775.601563 18.316406 L 775.878906 17.359375 L 776.152344 16.464844 L 776.429688 15.640625 L 776.703125 14.886719 L 776.980469 14.210938 L 777.257813 13.605469 L 777.53125 13.082031 L 777.808594 12.640625 L 778.082031 12.277344 L 778.359375 12 L 778.636719 11.804688 L 778.910156 11.695313 L 779.1875 11.671875 L 779.460938 11.734375 L 779.738281 11.878906 L 780.015625 12.113281 L 780.289063 12.425781 L 780.566406 12.824219 L 780.839844 13.304688 L 781.117188 13.863281 L 781.390625 14.5 L 781.667969 15.210938 L 781.945313 15.996094 L 782.21875 16.851563 L 782.496094 17.773438 L 783.046875 19.804688 L 783.324219 20.910156 L 783.597656 22.0625 L 784.148438 24.515625 L 784.425781 25.800781 L 784.703125 27.125 L 785.253906 29.855469 L 786.355469 35.527344 L 786.632813 36.960938 L 786.90625 38.390625 L 787.457031 41.210938 L 788.5625 46.582031 L 788.835938 47.839844 L 789.113281 49.054688 L 789.664063 51.335938 L 789.941406 52.394531 L 790.214844 53.394531 L 790.769531 55.203125 L 791.042969 56.007813 L 791.320313 56.734375 L 791.59375 57.390625 L 791.871094 57.96875 L 792.144531 58.46875 L 792.421875 58.886719 L 792.699219 59.21875 L 792.972656 59.472656 L 793.230469 59.628906 L 793.488281 59.714844 L 793.746094 59.726563 L 794.003906 59.660156 L 794.261719 59.523438 L 794.519531 59.308594 L 794.773438 59.023438 L 795.03125 58.667969 L 795.289063 58.238281 L 795.546875 57.738281 L 795.804688 57.171875 L 796.0625 56.539063 L 796.320313 55.84375 L 796.578125 55.082031 L 797.089844 53.382813 L 797.347656 52.453125 L 797.605469 51.46875 L 798.121094 49.355469 L 799.148438 44.652344 L 799.40625 43.398438 L 799.664063 42.121094 L 800.179688 39.507813 L 801.207031 34.175781 L 801.464844 32.84375 L 801.722656 31.519531 L 802.238281 28.917969 L 802.496094 27.644531 L 802.753906 26.398438 L 803.269531 23.996094 L 803.523438 22.847656 L 803.78125 21.738281 L 804.296875 19.652344 L 804.554688 18.679688 L 804.8125 17.761719 L 805.328125 16.097656 L 805.582031 15.355469 L 805.839844 14.675781 L 806.097656 14.058594 L 806.355469 13.511719 L 806.613281 13.035156 L 806.871094 12.625 L 807.128906 12.289063 L 807.386719 12.023438 L 807.644531 11.832031 L 807.898438 11.714844 L 808.15625 11.671875 L 808.414063 11.703125 L 808.671875 11.808594 L 808.929688 11.984375 L 809.1875 12.238281 L 809.445313 12.5625 L 809.722656 12.996094 L 810 13.515625 L 810.28125 14.109375 L 810.558594 14.785156 L 810.839844 15.539063 L 811.117188 16.363281 L 811.675781 18.21875 L 811.953125 19.246094 L 812.234375 20.332031 L 812.789063 22.664063 L 813.90625 27.867188 L 814.183594 29.25 L 814.464844 30.65625 L 815.023438 33.519531 L 816.136719 39.300781 L 816.417969 40.726563 L 816.695313 42.132813 L 817.253906 44.871094 L 817.53125 46.195313 L 817.8125 47.480469 L 818.367188 49.914063 L 818.648438 51.054688 L 818.925781 52.140625 L 819.203125 53.167969 L 819.484375 54.132813 L 819.761719 55.027344 L 820.042969 55.851563 L 820.320313 56.605469 L 820.597656 57.28125 L 820.878906 57.878906 L 821.15625 58.394531 L 821.4375 58.832031 L 821.714844 59.179688 L 821.992188 59.445313 L 822.273438 59.625 L 822.550781 59.714844 L 822.832031 59.722656 L 823.109375 59.636719 L 823.386719 59.46875 L 823.667969 59.210938 L 823.945313 58.871094 L 824.226563 58.445313 L 824.503906 57.933594 L 824.78125 57.34375 L 825.0625 56.675781 L 825.339844 55.933594 L 825.621094 55.113281 L 825.898438 54.222656 L 826.175781 53.269531 L 826.457031 52.246094 L 826.734375 51.167969 L 827.292969 48.84375 L 827.566406 47.628906 L 827.839844 46.375 L 828.386719 43.753906 L 829.484375 38.21875 L 829.757813 36.800781 L 830.03125 35.375 L 830.578125 32.539063 L 831.671875 27.039063 L 831.945313 25.726563 L 832.222656 24.449219 L 832.769531 22.019531 L 833.042969 20.875 L 833.316406 19.78125 L 833.863281 17.765625 L 834.136719 16.851563 L 834.410156 16.003906 L 834.683594 15.222656 L 834.960938 14.515625 L 835.234375 13.878906 L 835.507813 13.324219 L 835.78125 12.84375 L 836.054688 12.445313 L 836.328125 12.128906 L 836.601563 11.890625 L 836.875 11.742188 L 837.148438 11.671875 L 837.421875 11.691406 L 837.695313 11.792969 L 837.972656 11.976563 L 838.246094 12.246094 L 838.519531 12.59375 L 838.792969 13.027344 L 839.066406 13.535156 L 839.339844 14.125 L 839.613281 14.789063 L 839.886719 15.527344 L 840.160156 16.332031 L 840.433594 17.210938 L 840.707031 18.148438 L 840.984375 19.152344 L 841.53125 21.328125 L 841.804688 22.492188 L 842.078125 23.703125 L 842.625 26.246094 L 842.898438 27.570313 L 843.171875 28.921875 L 843.71875 31.695313 L 844.816406 37.367188 L 845.070313 38.6875 L 845.328125 40 L 845.835938 42.578125 L 846.09375 43.839844 L 846.347656 45.074219 L 846.859375 47.457031 L 847.113281 48.597656 L 847.371094 49.695313 L 847.878906 51.765625 L 848.136719 52.726563 L 848.390625 53.636719 L 848.902344 55.289063 L 849.15625 56.027344 L 849.414063 56.707031 L 849.667969 57.316406 L 849.925781 57.863281 L 850.179688 58.34375 L 850.433594 58.753906 L 850.691406 59.09375 L 850.945313 59.359375 L 851.199219 59.554688 L 851.457031 59.679688 L 851.710938 59.730469 L 851.96875 59.707031 L 852.222656 59.609375 L 852.476563 59.4375 L 852.734375 59.199219 L 852.988281 58.882813 L 853.246094 58.5 L 853.5 58.046875 L 853.753906 57.523438 L 854.011719 56.933594 L 854.265625 56.28125 L 854.523438 55.566406 L 855.03125 53.953125 L 855.289063 53.0625 L 855.542969 52.121094 L 856.054688 50.085938 L 857.074219 45.515625 L 857.332031 44.292969 L 857.585938 43.039063 L 858.097656 40.472656 L 859.117188 35.195313 L 859.375 33.867188 L 859.628906 32.546875 L 860.140625 29.941406 L 861.164063 24.96875 L 861.4375 23.699219 L 861.714844 22.476563 L 862.269531 20.171875 L 862.546875 19.101563 L 862.824219 18.09375 L 863.378906 16.265625 L 863.65625 15.453125 L 863.929688 14.714844 L 864.207031 14.050781 L 864.484375 13.464844 L 864.761719 12.960938 L 865.039063 12.535156 L 865.316406 12.195313 L 865.59375 11.9375 L 865.871094 11.765625 L 866.148438 11.679688 L 866.425781 11.679688 L 866.699219 11.765625 L 866.976563 11.9375 L 867.253906 12.195313 L 867.53125 12.539063 L 867.808594 12.964844 L 868.085938 13.46875 L 868.363281 14.054688 L 868.640625 14.71875 L 868.917969 15.457031 L 869.195313 16.269531 L 869.46875 17.152344 L 870.023438 19.109375 L 870.300781 20.179688 L 870.578125 21.304688 L 871.132813 23.707031 L 872.238281 28.992188 L 872.515625 30.382813 L 872.792969 31.796875 L 873.347656 34.65625 L 874.457031 40.382813 L 874.730469 41.785156 L 875.007813 43.167969 L 875.5625 45.84375 L 875.839844 47.128906 L 876.117188 48.375 L 876.671875 50.722656 L 876.949219 51.820313 L 877.226563 52.855469 L 877.5 53.832031 L 877.777344 54.742188 L 878.054688 55.585938 L 878.332031 56.359375 L 878.609375 57.054688 L 878.886719 57.675781 L 879.144531 58.1875 L 879.402344 58.625 L 879.664063 58.992188 L 879.921875 59.285156 L 880.179688 59.503906 L 880.4375 59.652344 L 880.695313 59.722656 L 880.953125 59.71875 L 881.214844 59.640625 L 881.472656 59.484375 L 881.730469 59.257813 L 881.988281 58.953125 L 882.246094 58.582031 L 882.507813 58.132813 L 882.765625 57.617188 L 883.023438 57.03125 L 883.28125 56.382813 L 883.539063 55.664063 L 883.800781 54.886719 L 884.058594 54.046875 L 884.316406 53.152344 L 884.574219 52.203125 L 885.089844 50.148438 L 885.351563 49.054688 L 885.609375 47.917969 L 886.125 45.53125 L 887.160156 40.421875 L 887.417969 39.097656 L 887.675781 37.761719 L 888.195313 35.078125 L 889.230469 29.765625 L 889.488281 28.472656 L 889.746094 27.203125 L 890.261719 24.75 L 890.519531 23.570313 L 890.78125 22.429688 L 891.296875 20.277344 L 891.554688 19.273438 L 891.8125 18.316406 L 892.074219 17.417969 L 892.332031 16.574219 L 892.589844 15.792969 L 892.847656 15.070313 L 893.105469 14.414063 L 893.367188 13.824219 L 893.625 13.300781 L 893.882813 12.851563 L 894.140625 12.472656 L 894.398438 12.164063 L 894.65625 11.929688 L 894.917969 11.769531 L 895.175781 11.683594 L 895.433594 11.675781 L 895.6875 11.738281 L 895.941406 11.875 L 896.195313 12.082031 L 896.449219 12.359375 L 896.699219 12.707031 L 896.953125 13.125 L 897.207031 13.609375 L 897.460938 14.160156 L 897.714844 14.777344 L 897.96875 15.453125 L 898.222656 16.195313 L 898.476563 16.992188 L 898.730469 17.847656 L 898.980469 18.753906 L 899.488281 20.722656 L 899.742188 21.773438 L 899.996094 22.867188 L 900.503906 25.167969 L 901.515625 30.117188 L 903.542969 40.570313 L 903.796875 41.851563 L 904.050781 43.113281 L 904.558594 45.570313 L 904.8125 46.757813 L 905.066406 47.910156 L 905.574219 50.101563 L 905.824219 51.132813 L 906.078125 52.117188 L 906.332031 53.054688 L 906.585938 53.941406 L 906.839844 54.769531 L 907.09375 55.542969 L 907.347656 56.253906 L 907.601563 56.90625 L 907.855469 57.492188 L 908.105469 58.015625 L 908.359375 58.46875 L 908.613281 58.855469 L 908.867188 59.171875 L 909.121094 59.421875 L 909.375 59.59375 L 909.628906 59.699219 L 909.882813 59.730469 L 910.136719 59.6875 L 910.386719 59.574219 L 910.640625 59.390625 L 910.894531 59.136719 L 911.148438 58.808594 L 911.402344 58.414063 L 911.65625 57.949219 L 911.929688 57.371094 L 912.207031 56.714844 L 912.480469 55.984375 L 912.753906 55.183594 L 913.03125 54.3125 L 913.304688 53.378906 L 913.855469 51.320313 L 914.128906 50.207031 L 914.40625 49.042969 L 914.957031 46.578125 L 916.054688 41.222656 L 916.332031 39.820313 L 916.605469 38.40625 L 917.15625 35.554688 L 918.253906 29.894531 L 918.53125 28.519531 L 918.804688 27.171875 L 919.355469 24.566406 L 919.628906 23.320313 L 919.90625 22.117188 L 920.457031 19.859375 L 920.730469 18.8125 L 921.003906 17.828125 L 921.28125 16.90625 L 921.554688 16.046875 L 921.832031 15.261719 L 922.105469 14.546875 L 922.378906 13.90625 L 922.65625 13.34375 L 922.929688 12.859375 L 923.207031 12.457031 L 923.480469 12.132813 L 923.753906 11.898438 L 924.03125 11.742188 L 924.304688 11.675781 L 924.582031 11.691406 L 924.855469 11.792969 L 925.128906 11.976563 L 925.40625 12.246094 L 925.679688 12.597656 L 925.957031 13.03125 L 926.230469 13.546875 L 926.503906 14.140625 L 926.78125 14.808594 L 927.054688 15.550781 L 927.332031 16.363281 L 927.605469 17.246094 L 928.15625 19.203125 L 928.429688 20.273438 L 928.707031 21.394531 L 929.253906 23.785156 L 929.511719 24.960938 L 929.769531 26.171875 L 930.28125 28.671875 L 931.308594 33.90625 L 931.566406 35.238281 L 931.820313 36.570313 L 932.335938 39.222656 L 933.363281 44.371094 L 933.617188 45.601563 L 933.875 46.800781 L 934.386719 49.09375 L 934.644531 50.179688 L 934.902344 51.21875 L 935.414063 53.15625 L 935.671875 54.046875 L 935.925781 54.878906 L 936.183594 55.652344 L 936.441406 56.363281 L 936.699219 57.011719 L 936.953125 57.59375 L 937.210938 58.109375 L 937.46875 58.558594 L 937.722656 58.933594 L 937.980469 59.238281 L 938.238281 59.46875 L 938.492188 59.628906 L 938.75 59.714844 L 939.007813 59.726563 L 939.261719 59.664063 L 939.519531 59.527344 L 939.777344 59.316406 L 940.035156 59.035156 L 940.289063 58.679688 L 940.546875 58.253906 L 940.804688 57.757813 L 941.058594 57.195313 L 941.316406 56.570313 L 941.574219 55.875 L 941.828125 55.121094 L 942.085938 54.304688 L 942.597656 52.507813 L 942.855469 51.527344 L 943.113281 50.5 L 943.625 48.3125 L 943.882813 47.160156 L 944.140625 45.96875 L 944.652344 43.5 L 945.679688 38.304688 L 945.964844 36.820313 L 946.25 35.332031 L 946.824219 32.367188 L 947.109375 30.898438 L 947.398438 29.449219 L 947.96875 26.632813 L 948.257813 25.269531 L 948.542969 23.949219 L 949.117188 21.449219 L 949.402344 20.28125 L 949.6875 19.167969 L 950.261719 17.140625 L 950.546875 16.230469 L 950.835938 15.394531 L 951.121094 14.640625 L 951.40625 13.964844 L 951.695313 13.371094 L 951.980469 12.863281 L 952.265625 12.445313 L 952.554688 12.113281 L 952.839844 11.875 L 953.125 11.726563 L 953.414063 11.671875 L 953.699219 11.707031 L 953.984375 11.835938 L 954.273438 12.054688 L 954.558594 12.363281 L 954.84375 12.765625 L 955.132813 13.253906 L 955.417969 13.828125 L 955.703125 14.484375 L 955.992188 15.222656 L 956.277344 16.042969 L 956.5625 16.933594 L 957.136719 18.933594 L 957.421875 20.03125 L 957.710938 21.191406 L 958.28125 23.667969 L 959.429688 29.136719 L 959.714844 30.582031 L 960 32.046875 L 960.574219 35.007813 L 961.71875 40.921875 L 962.007813 42.363281 L 962.292969 43.78125 L 962.867188 46.515625 L 963.152344 47.820313 L 963.4375 49.082031 L 963.726563 50.292969 L 964.011719 51.449219 " transform="matrix(1,0,0,1,-112,-9)"/>
</g>
</svg>
