<?xml version="1.0" encoding="UTF-8"?>
<svg xmlns="http://www.w3.org/2000/svg" xmlns:xlink="http://www.w3.org/1999/xlink" width="870pt" height="109pt" viewBox="0 0 870 109" version="1.1">
<defs>
<clipPath id="clip1">
  <path d="M 4 0 L 865 0 L 865 108 L 4 108 Z M 4 0 "/>
</clipPath>
</defs>
<g id="surface32">
<g clip-path="url(#clip1)" clip-rule="nonzero">
<path style="fill:none;stroke-width:2.72;stroke-linecap:square;stroke-linejoin:miter;stroke:rgb(36.84082%,50.67749%,70.979309%);stroke-opacity:1;stroke-miterlimit:3.25;" d="M 129.386719 94.691406 L 129.644531 92.613281 L 129.898438 90.445313 L 130.410156 85.867188 L 131.4375 75.921875 L 131.691406 73.316406 L 131.949219 70.675781 L 132.460938 65.339844 L 133.484375 54.636719 L 133.738281 52.007813 L 133.996094 49.40625 L 134.507813 44.339844 L 134.761719 41.890625 L 135.019531 39.503906 L 135.53125 34.949219 L 135.789063 32.800781 L 136.042969 30.742188 L 136.300781 28.78125 L 136.554688 26.925781 L 136.8125 25.179688 L 137.066406 23.550781 L 137.324219 22.039063 L 137.578125 20.65625 L 137.835938 19.402344 L 138.089844 18.28125 L 138.347656 17.296875 L 138.601563 16.449219 L 138.859375 15.746094 L 139.113281 15.1875 L 139.371094 14.777344 L 139.628906 14.511719 L 139.882813 14.394531 L 140.140625 14.429688 L 140.394531 14.609375 L 140.652344 14.9375 L 140.90625 15.414063 L 141.164063 16.035156 L 141.417969 16.800781 L 141.675781 17.703125 L 141.929688 18.75 L 142.1875 19.929688 L 142.441406 21.242188 L 142.699219 22.679688 L 142.953125 24.242188 L 143.210938 25.921875 L 143.722656 29.617188 L 143.980469 31.621094 L 144.234375 33.722656 L 144.746094 38.179688 L 145.769531 47.953125 L 146.046875 50.746094 L 146.324219 53.585938 L 146.878906 59.355469 L 147.992188 70.957031 L 148.269531 73.8125 L 148.546875 76.628906 L 149.101563 82.101563 L 149.378906 84.738281 L 149.65625 87.296875 L 150.210938 92.140625 L 150.488281 94.410156 L 150.765625 96.566406 L 151.042969 98.601563 L 151.320313 100.507813 L 151.597656 102.277344 L 151.875 103.90625 L 152.152344 105.386719 L 152.429688 106.714844 L 152.707031 107.882813 L 152.984375 108.890625 L 153.261719 109.734375 L 153.539063 110.40625 L 153.816406 110.910156 L 154.097656 111.242188 L 154.375 111.398438 L 154.652344 111.378906 L 154.929688 111.183594 L 155.207031 110.816406 L 155.484375 110.277344 L 155.761719 109.566406 L 156.039063 108.6875 L 156.316406 107.644531 L 156.59375 106.441406 L 156.871094 105.078125 L 157.148438 103.566406 L 157.425781 101.90625 L 157.703125 100.105469 L 157.980469 98.171875 L 158.257813 96.113281 L 158.535156 93.933594 L 159.089844 89.242188 L 159.367188 86.753906 L 159.644531 84.175781 L 160.199219 78.804688 L 161.3125 67.453125 L 161.589844 64.546875 L 161.867188 61.636719 L 162.421875 55.835938 L 163.53125 44.628906 L 163.789063 42.140625 L 164.050781 39.71875 L 164.566406 35.097656 L 164.828125 32.914063 L 165.085938 30.824219 L 165.605469 26.957031 L 165.863281 25.1875 L 166.121094 23.539063 L 166.382813 22.011719 L 166.640625 20.613281 L 166.898438 19.347656 L 167.160156 18.222656 L 167.417969 17.234375 L 167.675781 16.386719 L 167.9375 15.6875 L 168.195313 15.140625 L 168.453125 14.738281 L 168.714844 14.488281 L 168.972656 14.390625 L 169.230469 14.445313 L 169.492188 14.652344 L 169.75 15.011719 L 170.007813 15.519531 L 170.269531 16.179688 L 170.527344 16.980469 L 170.785156 17.929688 L 171.046875 19.019531 L 171.304688 20.246094 L 171.5625 21.609375 L 171.824219 23.101563 L 172.082031 24.714844 L 172.339844 26.453125 L 172.859375 30.261719 L 173.117188 32.320313 L 173.378906 34.480469 L 173.894531 39.054688 L 174.15625 41.457031 L 174.414063 43.929688 L 174.933594 49.039063 L 175.96875 59.71875 L 176.226563 62.4375 L 176.488281 65.152344 L 177.003906 70.558594 L 178.042969 81.015625 L 178.300781 83.507813 L 178.558594 85.933594 L 179.078125 90.566406 L 179.335938 92.753906 L 179.597656 94.847656 L 180.113281 98.730469 L 180.367188 100.472656 L 180.621094 102.101563 L 180.875 103.609375 L 181.128906 104.996094 L 181.386719 106.257813 L 181.640625 107.386719 L 181.894531 108.382813 L 182.148438 109.238281 L 182.402344 109.957031 L 182.65625 110.535156 L 182.910156 110.964844 L 183.164063 111.253906 L 183.417969 111.394531 L 183.671875 111.390625 L 183.925781 111.238281 L 184.179688 110.941406 L 184.433594 110.5 L 184.6875 109.914063 L 184.941406 109.183594 L 185.195313 108.316406 L 185.449219 107.3125 L 185.703125 106.175781 L 185.957031 104.90625 L 186.210938 103.507813 L 186.464844 101.992188 L 186.71875 100.355469 L 187.226563 96.75 L 187.480469 94.789063 L 187.734375 92.734375 L 188.242188 88.359375 L 188.496094 86.054688 L 188.75 83.679688 L 189.261719 78.746094 L 190.277344 68.371094 L 190.53125 65.714844 L 190.785156 63.050781 L 191.292969 57.730469 L 192.308594 47.339844 L 192.5625 44.839844 L 192.816406 42.398438 L 193.324219 37.699219 L 193.578125 35.460938 L 193.832031 33.304688 L 194.339844 29.269531 L 194.59375 27.402344 L 194.847656 25.640625 L 195.101563 23.988281 L 195.355469 22.457031 L 195.609375 21.046875 L 195.863281 19.765625 L 196.117188 18.609375 L 196.371094 17.589844 L 196.648438 16.640625 L 196.925781 15.851563 L 197.199219 15.230469 L 197.476563 14.78125 L 197.75 14.5 L 198.027344 14.390625 L 198.300781 14.457031 L 198.578125 14.691406 L 198.851563 15.097656 L 199.128906 15.675781 L 199.402344 16.417969 L 199.679688 17.328125 L 199.957031 18.398438 L 200.230469 19.628906 L 200.507813 21.011719 L 200.78125 22.542969 L 201.058594 24.21875 L 201.332031 26.03125 L 201.882813 30.042969 L 202.160156 32.226563 L 202.433594 34.519531 L 202.988281 39.398438 L 203.261719 41.96875 L 203.539063 44.609375 L 204.089844 50.082031 L 205.191406 61.492188 L 205.464844 64.382813 L 205.742188 67.269531 L 206.292969 72.984375 L 206.570313 75.789063 L 206.84375 78.554688 L 207.394531 83.902344 L 207.671875 86.46875 L 207.945313 88.953125 L 208.496094 93.632813 L 208.773438 95.816406 L 209.050781 97.878906 L 209.601563 101.628906 L 209.875 103.296875 L 210.152344 104.824219 L 210.425781 106.203125 L 210.703125 107.429688 L 210.976563 108.496094 L 211.253906 109.402344 L 211.527344 110.140625 L 211.804688 110.714844 L 212.082031 111.117188 L 212.355469 111.347656 L 212.632813 111.40625 L 212.90625 111.296875 L 213.183594 111.011719 L 213.457031 110.554688 L 213.734375 109.929688 L 214.007813 109.136719 L 214.265625 108.25 L 214.523438 107.222656 L 214.78125 106.058594 L 215.039063 104.761719 L 215.296875 103.335938 L 215.550781 101.78125 L 216.066406 98.320313 L 216.324219 96.425781 L 216.582031 94.421875 L 217.09375 90.136719 L 218.125 80.605469 L 218.382813 78.070313 L 218.636719 75.484375 L 219.152344 70.207031 L 220.179688 59.445313 L 220.4375 56.761719 L 220.695313 54.09375 L 221.210938 48.851563 L 222.238281 38.953125 L 222.496094 36.648438 L 222.753906 34.417969 L 223.269531 30.234375 L 223.523438 28.292969 L 223.78125 26.457031 L 224.296875 23.128906 L 224.554688 21.644531 L 224.8125 20.289063 L 225.066406 19.066406 L 225.324219 17.980469 L 225.582031 17.03125 L 225.839844 16.222656 L 226.097656 15.5625 L 226.355469 15.046875 L 226.609375 14.679688 L 226.867188 14.460938 L 227.125 14.390625 L 227.382813 14.472656 L 227.640625 14.703125 L 227.898438 15.082031 L 228.152344 15.609375 L 228.410156 16.28125 L 228.667969 17.101563 L 228.925781 18.0625 L 229.183594 19.160156 L 229.441406 20.394531 L 229.695313 21.757813 L 229.953125 23.25 L 230.46875 26.597656 L 230.746094 28.601563 L 231.027344 30.730469 L 231.582031 35.332031 L 232.699219 45.660156 L 232.976563 48.421875 L 233.253906 51.238281 L 233.8125 56.984375 L 234.929688 68.652344 L 235.207031 71.542969 L 235.484375 74.402344 L 236.042969 79.984375 L 236.320313 82.691406 L 236.601563 85.320313 L 237.15625 90.332031 L 237.4375 92.691406 L 237.714844 94.945313 L 237.992188 97.082031 L 238.273438 99.089844 L 238.550781 100.972656 L 238.828125 102.714844 L 239.109375 104.3125 L 239.386719 105.757813 L 239.664063 107.046875 L 239.945313 108.179688 L 240.222656 109.144531 L 240.503906 109.945313 L 240.78125 110.570313 L 241.058594 111.027344 L 241.339844 111.304688 L 241.617188 111.410156 L 241.894531 111.335938 L 242.175781 111.089844 L 242.453125 110.664063 L 242.730469 110.070313 L 243.011719 109.300781 L 243.289063 108.363281 L 243.566406 107.261719 L 243.847656 106 L 244.125 104.578125 L 244.402344 103.007813 L 244.683594 101.292969 L 244.960938 99.4375 L 245.238281 97.449219 L 245.519531 95.332031 L 246.078125 90.761719 L 246.355469 88.316406 L 246.632813 85.78125 L 247.191406 80.472656 L 248.304688 69.167969 L 248.578125 66.3125 L 248.851563 63.445313 L 249.402344 57.710938 L 250.496094 46.546875 L 250.769531 43.875 L 251.042969 41.269531 L 251.589844 36.292969 L 251.863281 33.941406 L 252.136719 31.691406 L 252.683594 27.523438 L 252.957031 25.621094 L 253.230469 23.851563 L 253.503906 22.21875 L 253.777344 20.726563 L 254.050781 19.382813 L 254.324219 18.191406 L 254.597656 17.15625 L 254.871094 16.28125 L 255.148438 15.570313 L 255.421875 15.023438 L 255.695313 14.644531 L 255.96875 14.4375 L 256.242188 14.394531 L 256.515625 14.527344 L 256.789063 14.824219 L 257.0625 15.292969 L 257.335938 15.925781 L 257.609375 16.726563 L 257.882813 17.6875 L 258.15625 18.804688 L 258.429688 20.078125 L 258.703125 21.5 L 258.976563 23.070313 L 259.25 24.777344 L 259.523438 26.617188 L 259.796875 28.585938 L 260.34375 32.875 L 260.617188 35.179688 L 260.894531 37.582031 L 261.441406 42.644531 L 261.714844 45.289063 L 261.988281 47.992188 L 262.535156 53.546875 L 263.628906 64.96875 L 263.902344 67.832031 L 264.175781 70.679688 L 264.722656 76.277344 L 265.816406 86.839844 L 266.074219 89.128906 L 266.328125 91.339844 L 266.839844 95.496094 L 267.09375 97.429688 L 267.347656 99.257813 L 267.859375 102.574219 L 268.113281 104.054688 L 268.371094 105.40625 L 268.625 106.632813 L 268.878906 107.722656 L 269.136719 108.679688 L 269.390625 109.496094 L 269.648438 110.167969 L 269.902344 110.699219 L 270.15625 111.082031 L 270.414063 111.320313 L 270.667969 111.410156 L 270.921875 111.351563 L 271.179688 111.144531 L 271.433594 110.792969 L 271.6875 110.292969 L 271.945313 109.652344 L 272.199219 108.867188 L 272.453125 107.941406 L 272.710938 106.878906 L 272.964844 105.683594 L 273.21875 104.355469 L 273.476563 102.902344 L 273.984375 99.636719 L 274.242188 97.832031 L 274.496094 95.921875 L 275.007813 91.804688 L 276.027344 82.574219 L 276.28125 80.097656 L 276.539063 77.566406 L 277.046875 72.382813 L 278.070313 61.734375 L 278.324219 59.0625 L 278.578125 56.398438 L 279.089844 51.140625 L 279.34375 48.5625 L 279.601563 46.027344 L 280.109375 41.121094 L 280.367188 38.761719 L 280.621094 36.476563 L 281.132813 32.15625 L 281.386719 30.132813 L 281.640625 28.210938 L 282.152344 24.683594 L 282.429688 22.964844 L 282.707031 21.390625 L 282.984375 19.960938 L 283.261719 18.6875 L 283.535156 17.574219 L 283.8125 16.621094 L 284.089844 15.835938 L 284.367188 15.214844 L 284.644531 14.769531 L 284.921875 14.492188 L 285.199219 14.390625 L 285.472656 14.460938 L 285.75 14.707031 L 286.027344 15.125 L 286.304688 15.714844 L 286.582031 16.472656 L 286.859375 17.398438 L 287.136719 18.484375 L 287.410156 19.730469 L 287.6875 21.132813 L 287.964844 22.683594 L 288.242188 24.375 L 288.796875 28.171875 L 289.070313 30.261719 L 289.347656 32.464844 L 289.902344 37.195313 L 291.007813 47.683594 L 291.285156 50.46875 L 291.5625 53.292969 L 292.117188 59.042969 L 293.222656 70.621094 L 293.5 73.46875 L 293.777344 76.285156 L 294.332031 81.757813 L 294.609375 84.394531 L 294.882813 86.957031 L 295.4375 91.816406 L 295.714844 94.09375 L 295.992188 96.261719 L 296.269531 98.308594 L 296.542969 100.230469 L 296.820313 102.015625 L 297.097656 103.660156 L 297.375 105.160156 L 297.652344 106.511719 L 297.929688 107.703125 L 298.207031 108.734375 L 298.480469 109.605469 L 298.757813 110.304688 L 299.035156 110.835938 L 299.3125 111.195313 L 299.589844 111.382813 L 299.867188 111.394531 L 300.125 111.25 L 300.382813 110.953125 L 300.640625 110.507813 L 300.898438 109.914063 L 301.15625 109.171875 L 301.417969 108.285156 L 301.675781 107.257813 L 301.933594 106.09375 L 302.191406 104.792969 L 302.449219 103.363281 L 302.707031 101.804688 L 302.964844 100.125 L 303.226563 98.328125 L 303.484375 96.425781 L 304 92.304688 L 304.257813 90.105469 L 304.515625 87.820313 L 305.035156 83.019531 L 306.066406 72.738281 L 308.132813 51.234375 L 308.390625 48.625 L 308.652344 46.058594 L 309.167969 41.089844 L 309.425781 38.703125 L 309.683594 36.394531 L 310.203125 32.027344 L 310.460938 29.984375 L 310.71875 28.046875 L 310.976563 26.214844 L 311.234375 24.5 L 311.492188 22.90625 L 311.75 21.433594 L 312.011719 20.09375 L 312.269531 18.886719 L 312.527344 17.816406 L 312.785156 16.886719 L 313.042969 16.101563 L 313.300781 15.460938 L 313.558594 14.96875 L 313.820313 14.625 L 314.078125 14.433594 L 314.335938 14.394531 L 314.59375 14.503906 L 314.851563 14.769531 L 315.109375 15.179688 L 315.367188 15.742188 L 315.628906 16.449219 L 315.886719 17.304688 L 316.144531 18.300781 L 316.402344 19.433594 L 316.65625 20.679688 L 316.910156 22.050781 L 317.164063 23.542969 L 317.414063 25.15625 L 317.667969 26.882813 L 317.921875 28.714844 L 318.429688 32.683594 L 318.683594 34.804688 L 318.933594 37.011719 L 319.441406 41.65625 L 320.453125 51.640625 L 320.707031 54.242188 L 320.960938 56.867188 L 321.46875 62.167969 L 322.480469 72.726563 L 322.734375 75.3125 L 322.988281 77.863281 L 323.496094 82.820313 L 324.507813 91.957031 L 324.761719 94.039063 L 325.015625 96.03125 L 325.265625 97.921875 L 325.519531 99.707031 L 325.773438 101.382813 L 326.027344 102.941406 L 326.28125 104.378906 L 326.535156 105.695313 L 326.789063 106.882813 L 327.039063 107.9375 L 327.292969 108.855469 L 327.546875 109.636719 L 327.800781 110.277344 L 328.054688 110.777344 L 328.308594 111.132813 L 328.558594 111.34375 L 328.8125 111.410156 L 329.066406 111.328125 L 329.320313 111.105469 L 329.574219 110.734375 L 329.828125 110.222656 L 330.082031 109.566406 L 330.332031 108.769531 L 330.585938 107.839844 L 330.839844 106.769531 L 331.09375 105.570313 L 331.347656 104.242188 L 331.601563 102.792969 L 331.851563 101.222656 L 332.105469 99.535156 L 332.613281 95.839844 L 332.886719 93.664063 L 333.164063 91.382813 L 333.710938 86.527344 L 334.8125 75.882813 L 335.085938 73.085938 L 335.359375 70.25 L 335.910156 64.511719 L 337.011719 53.046875 L 337.285156 50.242188 L 337.558594 47.484375 L 338.109375 42.136719 L 338.382813 39.570313 L 338.660156 37.085938 L 339.207031 32.398438 L 339.484375 30.210938 L 339.757813 28.140625 L 340.035156 26.191406 L 340.308594 24.371094 L 340.582031 22.6875 L 340.859375 21.148438 L 341.132813 19.753906 L 341.40625 18.511719 L 341.683594 17.429688 L 341.957031 16.503906 L 342.230469 15.746094 L 342.507813 15.152344 L 342.78125 14.726563 L 343.054688 14.472656 L 343.332031 14.390625 L 343.605469 14.476563 L 343.882813 14.738281 L 344.15625 15.164063 L 344.429688 15.761719 L 344.707031 16.527344 L 344.980469 17.453125 L 345.253906 18.542969 L 345.53125 19.789063 L 345.804688 21.183594 L 346.078125 22.730469 L 346.355469 24.414063 L 346.902344 28.1875 L 347.179688 30.261719 L 347.453125 32.453125 L 348.003906 37.144531 L 348.277344 39.632813 L 348.554688 42.203125 L 349.101563 47.550781 L 350.203125 58.820313 L 350.457031 61.507813 L 350.714844 64.195313 L 351.226563 69.558594 L 352.253906 79.964844 L 352.511719 82.457031 L 352.765625 84.886719 L 353.277344 89.539063 L 353.535156 91.746094 L 353.792969 93.863281 L 354.304688 97.804688 L 354.5625 99.617188 L 354.816406 101.320313 L 355.074219 102.902344 L 355.332031 104.363281 L 355.585938 105.695313 L 355.84375 106.894531 L 356.101563 107.960938 L 356.355469 108.886719 L 356.613281 109.671875 L 356.871094 110.3125 L 357.125 110.808594 L 357.382813 111.15625 L 357.636719 111.355469 L 357.894531 111.40625 L 358.152344 111.308594 L 358.40625 111.0625 L 358.664063 110.667969 L 358.921875 110.125 L 359.175781 109.4375 L 359.433594 108.609375 L 359.691406 107.636719 L 359.945313 106.527344 L 360.203125 105.285156 L 360.460938 103.914063 L 360.714844 102.414063 L 360.972656 100.792969 L 361.484375 97.210938 L 361.742188 95.253906 L 361.996094 93.203125 L 362.511719 88.824219 L 362.765625 86.511719 L 363.023438 84.125 L 363.535156 79.167969 L 364.5625 68.714844 L 366.613281 47.476563 L 366.890625 44.742188 L 367.167969 42.070313 L 367.726563 36.96875 L 368.003906 34.550781 L 368.28125 32.238281 L 368.835938 27.949219 L 369.117188 25.992188 L 369.394531 24.167969 L 369.671875 22.484375 L 369.949219 20.945313 L 370.226563 19.558594 L 370.503906 18.328125 L 370.785156 17.257813 L 371.0625 16.351563 L 371.339844 15.617188 L 371.617188 15.050781 L 371.894531 14.65625 L 372.171875 14.4375 L 372.449219 14.394531 L 372.730469 14.527344 L 373.007813 14.832031 L 373.285156 15.3125 L 373.5625 15.964844 L 373.839844 16.789063 L 374.117188 17.777344 L 374.398438 18.925781 L 374.675781 20.238281 L 374.953125 21.703125 L 375.230469 23.316406 L 375.507813 25.070313 L 375.785156 26.964844 L 376.066406 28.984375 L 376.621094 33.390625 L 376.898438 35.757813 L 377.175781 38.222656 L 377.730469 43.410156 L 378.011719 46.113281 L 378.289063 48.878906 L 378.84375 54.550781 L 379.957031 66.167969 L 380.234375 69.070313 L 380.511719 71.949219 L 381.066406 77.601563 L 381.347656 80.351563 L 381.625 83.039063 L 382.179688 88.1875 L 382.457031 90.628906 L 382.734375 92.96875 L 383.015625 95.203125 L 383.292969 97.320313 L 383.570313 99.3125 L 383.847656 101.171875 L 384.125 102.890625 L 384.402344 104.46875 L 384.675781 105.871094 L 384.949219 107.125 L 385.222656 108.222656 L 385.496094 109.164063 L 385.769531 109.945313 L 386.039063 110.558594 L 386.3125 111.011719 L 386.585938 111.292969 L 386.859375 111.40625 L 387.132813 111.351563 L 387.40625 111.128906 L 387.679688 110.738281 L 387.949219 110.179688 L 388.222656 109.457031 L 388.496094 108.574219 L 388.769531 107.527344 L 389.042969 106.328125 L 389.316406 104.980469 L 389.589844 103.484375 L 389.859375 101.84375 L 390.132813 100.070313 L 390.40625 98.167969 L 390.953125 94 L 391.226563 91.75 L 391.5 89.398438 L 392.042969 84.429688 L 393.136719 73.667969 L 393.410156 70.859375 L 393.683594 68.023438 L 394.226563 62.304688 L 395.320313 50.976563 L 395.59375 48.226563 L 395.863281 45.523438 L 396.410156 40.3125 L 396.683594 37.820313 L 396.957031 35.414063 L 397.503906 30.898438 L 397.773438 28.804688 L 398.046875 26.828125 L 398.320313 24.976563 L 398.59375 23.257813 L 398.867188 21.679688 L 399.140625 20.242188 L 399.414063 18.953125 L 399.683594 17.820313 L 399.957031 16.839844 L 400.230469 16.023438 L 400.503906 15.367188 L 400.777344 14.878906 L 401.050781 14.558594 L 401.324219 14.402344 L 401.59375 14.417969 L 401.867188 14.605469 L 402.121094 14.925781 L 402.378906 15.394531 L 402.632813 16.007813 L 402.886719 16.761719 L 403.140625 17.65625 L 403.394531 18.6875 L 403.648438 19.851563 L 403.902344 21.148438 L 404.160156 22.570313 L 404.414063 24.113281 L 404.921875 27.550781 L 405.175781 29.429688 L 405.429688 31.414063 L 405.941406 35.65625 L 406.195313 37.90625 L 406.449219 40.230469 L 406.957031 45.078125 L 407.976563 55.363281 L 410.011719 76.507813 L 410.265625 79.046875 L 410.519531 81.539063 L 411.03125 86.347656 L 411.285156 88.648438 L 411.539063 90.871094 L 412.046875 95.054688 L 412.300781 97.003906 L 412.558594 98.851563 L 412.8125 100.585938 L 413.066406 102.210938 L 413.320313 103.714844 L 413.574219 105.09375 L 413.828125 106.347656 L 414.082031 107.46875 L 414.339844 108.453125 L 414.59375 109.304688 L 414.847656 110.011719 L 415.101563 110.574219 L 415.355469 110.996094 L 415.609375 111.269531 L 415.867188 111.398438 L 416.121094 111.382813 L 416.375 111.214844 L 416.628906 110.90625 L 416.882813 110.449219 L 417.136719 109.847656 L 417.390625 109.105469 L 417.648438 108.21875 L 417.902344 107.199219 L 418.15625 106.046875 L 418.433594 104.644531 L 418.707031 103.097656 L 418.984375 101.40625 L 419.261719 99.578125 L 419.535156 97.617188 L 419.8125 95.535156 L 420.363281 91.027344 L 420.640625 88.621094 L 420.917969 86.121094 L 421.46875 80.882813 L 422.570313 69.714844 L 422.847656 66.839844 L 423.125 63.945313 L 423.675781 58.164063 L 424.78125 46.878906 L 425.054688 44.175781 L 425.332031 41.539063 L 425.882813 36.503906 L 426.160156 34.121094 L 426.4375 31.84375 L 426.988281 27.625 L 427.265625 25.703125 L 427.539063 23.910156 L 427.816406 22.257813 L 428.09375 20.75 L 428.367188 19.394531 L 428.644531 18.191406 L 428.921875 17.148438 L 429.195313 16.265625 L 429.472656 15.554688 L 429.75 15.007813 L 430.023438 14.632813 L 430.300781 14.429688 L 430.578125 14.398438 L 430.851563 14.542969 L 431.128906 14.855469 L 431.40625 15.34375 L 431.679688 15.996094 L 431.957031 16.820313 L 432.234375 17.804688 L 432.507813 18.953125 L 432.785156 20.257813 L 433.0625 21.714844 L 433.335938 23.316406 L 433.613281 25.058594 L 433.890625 26.9375 L 434.164063 28.945313 L 434.71875 33.3125 L 434.992188 35.65625 L 435.269531 38.101563 L 435.820313 43.242188 L 436.078125 45.742188 L 436.335938 48.296875 L 436.851563 53.53125 L 437.882813 64.285156 L 438.140625 66.980469 L 438.398438 69.667969 L 438.914063 74.96875 L 439.945313 85.054688 L 440.203125 87.421875 L 440.457031 89.714844 L 440.972656 94.042969 L 441.230469 96.066406 L 441.488281 97.988281 L 442.003906 101.496094 L 442.261719 103.070313 L 442.519531 104.523438 L 442.777344 105.847656 L 443.035156 107.035156 L 443.292969 108.089844 L 443.550781 109 L 443.808594 109.769531 L 444.066406 110.394531 L 444.324219 110.871094 L 444.582031 111.199219 L 444.839844 111.375 L 445.097656 111.402344 L 445.355469 111.277344 L 445.613281 111.003906 L 445.871094 110.582031 L 446.125 110.011719 L 446.382813 109.292969 L 446.640625 108.433594 L 446.898438 107.429688 L 447.15625 106.289063 L 447.414063 105.015625 L 447.671875 103.609375 L 448.1875 100.421875 L 448.445313 98.652344 L 448.703125 96.769531 L 449.21875 92.699219 L 450.25 83.503906 L 450.507813 81.023438 L 450.765625 78.492188 L 451.28125 73.285156 L 452.308594 62.554688 L 452.589844 59.628906 L 452.867188 56.714844 L 453.425781 50.964844 L 453.707031 48.148438 L 453.984375 45.386719 L 454.542969 40.066406 L 454.824219 37.523438 L 455.101563 35.078125 L 455.660156 30.492188 L 455.9375 28.375 L 456.21875 26.378906 L 456.496094 24.519531 L 456.777344 22.800781 L 457.054688 21.226563 L 457.335938 19.804688 L 457.613281 18.539063 L 457.894531 17.433594 L 458.171875 16.496094 L 458.453125 15.726563 L 458.730469 15.132813 L 459.011719 14.707031 L 459.289063 14.460938 L 459.570313 14.390625 L 459.847656 14.496094 L 460.125 14.78125 L 460.40625 15.238281 L 460.683594 15.867188 L 460.964844 16.671875 L 461.242188 17.644531 L 461.523438 18.777344 L 461.800781 20.074219 L 462.082031 21.527344 L 462.359375 23.132813 L 462.640625 24.882813 L 462.917969 26.769531 L 463.476563 30.929688 L 463.757813 33.191406 L 464.035156 35.558594 L 464.59375 40.585938 L 465.710938 51.53125 L 465.988281 54.398438 L 466.269531 57.296875 L 466.828125 63.140625 L 467.945313 74.734375 L 468.222656 77.550781 L 468.5 80.316406 L 469.058594 85.644531 L 469.339844 88.1875 L 469.617188 90.636719 L 470.175781 95.230469 L 470.449219 97.316406 L 470.726563 99.28125 L 471 101.117188 L 471.273438 102.820313 L 471.546875 104.382813 L 471.820313 105.800781 L 472.09375 107.066406 L 472.371094 108.175781 L 472.644531 109.128906 L 472.917969 109.917969 L 473.191406 110.542969 L 473.464844 111 L 473.738281 111.289063 L 474.015625 111.40625 L 474.289063 111.355469 L 474.5625 111.132813 L 474.835938 110.742188 L 475.109375 110.179688 L 475.382813 109.453125 L 475.660156 108.566406 L 475.933594 107.515625 L 476.207031 106.308594 L 476.480469 104.949219 L 476.753906 103.445313 L 477.027344 101.792969 L 477.304688 100.007813 L 477.851563 96.054688 L 478.125 93.898438 L 478.398438 91.632813 L 478.949219 86.808594 L 479.222656 84.265625 L 479.496094 81.648438 L 480.042969 76.222656 L 481.140625 64.894531 L 481.414063 62.019531 L 481.6875 59.148438 L 482.238281 53.453125 L 483.332031 42.542969 L 483.605469 39.96875 L 483.882813 37.476563 L 484.429688 32.769531 L 484.703125 30.570313 L 484.976563 28.484375 L 485.527344 24.683594 L 485.800781 22.980469 L 486.074219 21.417969 L 486.347656 20 L 486.621094 18.734375 L 486.894531 17.625 L 487.171875 16.671875 L 487.445313 15.882813 L 487.71875 15.257813 L 487.972656 14.824219 L 488.230469 14.539063 L 488.484375 14.402344 L 488.742188 14.414063 L 488.996094 14.574219 L 489.253906 14.882813 L 489.507813 15.335938 L 489.765625 15.933594 L 490.019531 16.675781 L 490.273438 17.5625 L 490.53125 18.585938 L 490.785156 19.742188 L 491.042969 21.035156 L 491.296875 22.453125 L 491.808594 25.65625 L 492.066406 27.429688 L 492.320313 29.3125 L 492.832031 33.382813 L 493.855469 42.546875 L 494.109375 45.011719 L 494.367188 47.53125 L 494.878906 52.703125 L 495.898438 63.355469 L 496.15625 66.035156 L 496.410156 68.707031 L 496.921875 73.984375 L 497.179688 76.578125 L 497.433594 79.132813 L 497.945313 84.078125 L 498.203125 86.457031 L 498.457031 88.765625 L 498.96875 93.136719 L 499.222656 95.1875 L 499.480469 97.136719 L 499.992188 100.722656 L 500.246094 102.34375 L 500.503906 103.84375 L 500.757813 105.21875 L 501.015625 106.464844 L 501.269531 107.578125 L 501.527344 108.554688 L 501.78125 109.390625 L 502.035156 110.085938 L 502.292969 110.636719 L 502.546875 111.039063 L 502.804688 111.296875 L 503.058594 111.40625 L 503.316406 111.367188 L 503.570313 111.179688 L 503.828125 110.84375 L 504.082031 110.363281 L 504.359375 109.675781 L 504.636719 108.824219 L 504.914063 107.804688 L 505.191406 106.625 L 505.46875 105.285156 L 505.746094 103.796875 L 506.023438 102.160156 L 506.300781 100.382813 L 506.578125 98.46875 L 506.855469 96.429688 L 507.410156 91.996094 L 507.6875 89.617188 L 507.964844 87.144531 L 508.519531 81.945313 L 508.796875 79.234375 L 509.074219 76.46875 L 509.628906 70.800781 L 510.734375 59.207031 L 511.011719 56.316406 L 511.289063 53.445313 L 511.84375 47.824219 L 512.953125 37.304688 L 513.230469 34.878906 L 513.507813 32.558594 L 513.785156 30.34375 L 514.0625 28.246094 L 514.339844 26.277344 L 514.617188 24.4375 L 514.894531 22.734375 L 515.171875 21.175781 L 515.449219 19.769531 L 515.726563 18.515625 L 516.003906 17.421875 L 516.28125 16.492188 L 516.558594 15.730469 L 516.835938 15.136719 L 517.113281 14.714844 L 517.390625 14.464844 L 517.667969 14.390625 L 517.945313 14.488281 L 518.222656 14.761719 L 518.5 15.210938 L 518.777344 15.828125 L 519.050781 16.613281 L 519.328125 17.566406 L 519.605469 18.683594 L 519.882813 19.960938 L 520.160156 21.390625 L 520.4375 22.96875 L 520.714844 24.691406 L 520.992188 26.550781 L 521.269531 28.539063 L 521.824219 32.882813 L 522.082031 35.0625 L 522.34375 37.328125 L 522.859375 42.09375 L 523.894531 52.34375 L 524.15625 55.007813 L 524.414063 57.699219 L 524.929688 63.117188 L 525.964844 73.882813 L 526.226563 76.511719 L 526.484375 79.09375 L 527 84.101563 L 527.261719 86.507813 L 527.519531 88.84375 L 528.035156 93.261719 L 528.296875 95.328125 L 528.554688 97.296875 L 528.8125 99.15625 L 529.074219 100.902344 L 529.332031 102.53125 L 529.589844 104.035156 L 529.847656 105.40625 L 530.109375 106.648438 L 530.367188 107.753906 L 530.625 108.714844 L 530.882813 109.535156 L 531.144531 110.210938 L 531.402344 110.734375 L 531.660156 111.113281 L 531.917969 111.335938 L 532.179688 111.410156 L 532.4375 111.332031 L 532.695313 111.101563 L 532.953125 110.71875 L 533.214844 110.1875 L 533.472656 109.507813 L 533.730469 108.683594 L 533.988281 107.714844 L 534.25 106.605469 L 534.507813 105.359375 L 534.765625 103.980469 L 535.027344 102.472656 L 535.285156 100.839844 L 535.542969 99.089844 L 535.800781 97.222656 L 536.320313 93.179688 L 536.578125 91.011719 L 536.835938 88.753906 L 537.355469 84.007813 L 538.390625 73.785156 L 538.644531 71.175781 L 538.898438 68.539063 L 539.40625 63.226563 L 540.421875 52.65625 L 540.675781 50.070313 L 540.929688 47.523438 L 541.433594 42.578125 L 542.449219 33.472656 L 542.703125 31.402344 L 542.957031 29.425781 L 543.210938 27.550781 L 543.464844 25.78125 L 543.71875 24.125 L 543.972656 22.585938 L 544.226563 21.164063 L 544.480469 19.871094 L 544.734375 18.707031 L 544.988281 17.675781 L 545.242188 16.78125 L 545.496094 16.027344 L 545.75 15.410156 L 546.003906 14.941406 L 546.257813 14.613281 L 546.511719 14.429688 L 546.765625 14.394531 L 547.019531 14.503906 L 547.273438 14.761719 L 547.527344 15.160156 L 547.777344 15.707031 L 548.03125 16.390625 L 548.285156 17.21875 L 548.539063 18.183594 L 548.792969 19.28125 L 549.046875 20.511719 L 549.300781 21.867188 L 549.554688 23.351563 L 549.808594 24.949219 L 550.0625 26.664063 L 550.570313 30.414063 L 550.824219 32.441406 L 551.078125 34.558594 L 551.585938 39.039063 L 552.601563 48.808594 L 554.628906 69.875 L 554.90625 72.71875 L 555.179688 75.527344 L 555.730469 81.003906 L 556.007813 83.648438 L 556.28125 86.222656 L 556.832031 91.109375 L 557.109375 93.40625 L 557.382813 95.597656 L 557.660156 97.671875 L 557.933594 99.621094 L 558.210938 101.441406 L 558.484375 103.128906 L 558.761719 104.667969 L 559.035156 106.0625 L 559.308594 107.304688 L 559.585938 108.386719 L 559.859375 109.308594 L 560.136719 110.066406 L 560.410156 110.660156 L 560.6875 111.078125 L 560.960938 111.332031 L 561.238281 111.410156 L 561.511719 111.316406 L 561.789063 111.054688 L 562.0625 110.617188 L 562.339844 110.015625 L 562.613281 109.242188 L 562.890625 108.308594 L 563.164063 107.210938 L 563.441406 105.960938 L 563.714844 104.554688 L 563.988281 103 L 564.265625 101.304688 L 564.539063 99.472656 L 564.816406 97.511719 L 565.089844 95.429688 L 565.640625 90.925781 L 565.917969 88.519531 L 566.191406 86.023438 L 566.742188 80.792969 L 567.84375 69.652344 L 568.121094 66.78125 L 568.394531 63.898438 L 568.945313 58.128906 L 570.046875 46.875 L 570.320313 44.179688 L 570.597656 41.550781 L 571.148438 36.527344 L 571.421875 34.152344 L 571.699219 31.878906 L 572.25 27.667969 L 572.503906 25.871094 L 572.761719 24.1875 L 573.019531 22.625 L 573.277344 21.183594 L 573.53125 19.875 L 573.789063 18.695313 L 574.046875 17.65625 L 574.304688 16.753906 L 574.5625 15.992188 L 574.816406 15.378906 L 575.074219 14.910156 L 575.332031 14.589844 L 575.589844 14.421875 L 575.84375 14.398438 L 576.101563 14.527344 L 576.359375 14.804688 L 576.617188 15.230469 L 576.871094 15.804688 L 577.128906 16.523438 L 577.386719 17.386719 L 577.644531 18.386719 L 577.898438 19.527344 L 578.15625 20.800781 L 578.414063 22.203125 L 578.671875 23.730469 L 578.929688 25.382813 L 579.441406 29.023438 L 579.699219 31.003906 L 579.957031 33.082031 L 580.46875 37.507813 L 580.726563 39.84375 L 580.984375 42.25 L 581.496094 47.242188 L 582.523438 57.75 L 582.78125 60.433594 L 583.039063 63.128906 L 583.550781 68.507813 L 584.578125 78.988281 L 584.835938 81.503906 L 585.09375 83.964844 L 585.605469 88.679688 L 585.863281 90.921875 L 586.121094 93.078125 L 586.636719 97.101563 L 586.890625 98.960938 L 587.148438 100.707031 L 587.40625 102.335938 L 587.664063 103.84375 L 587.917969 105.226563 L 588.175781 106.476563 L 588.433594 107.59375 L 588.691406 108.570313 L 588.96875 109.472656 L 589.246094 110.203125 L 589.523438 110.765625 L 589.804688 111.152344 L 590.082031 111.367188 L 590.359375 111.402344 L 590.640625 111.265625 L 590.917969 110.949219 L 591.195313 110.460938 L 591.472656 109.800781 L 591.753906 108.96875 L 592.03125 107.972656 L 592.308594 106.8125 L 592.585938 105.492188 L 592.867188 104.015625 L 593.144531 102.394531 L 593.421875 100.625 L 593.703125 98.722656 L 594.257813 94.535156 L 594.535156 92.261719 L 594.816406 89.886719 L 595.371094 84.847656 L 595.652344 82.203125 L 595.929688 79.492188 L 596.484375 73.894531 L 597.597656 62.308594 L 597.878906 59.390625 L 598.15625 56.484375 L 598.714844 50.753906 L 598.992188 47.949219 L 599.269531 45.199219 L 599.828125 39.902344 L 600.105469 37.375 L 600.382813 34.9375 L 600.941406 30.378906 L 601.21875 28.269531 L 601.496094 26.289063 L 601.777344 24.441406 L 602.054688 22.730469 L 602.332031 21.167969 L 602.609375 19.753906 L 602.890625 18.5 L 603.167969 17.402344 L 603.445313 16.472656 L 603.726563 15.710938 L 604.003906 15.121094 L 604.28125 14.703125 L 604.558594 14.457031 L 604.839844 14.390625 L 605.117188 14.5 L 605.394531 14.78125 L 605.675781 15.242188 L 605.953125 15.871094 L 606.230469 16.671875 L 606.507813 17.640625 L 606.78125 18.753906 L 607.054688 20.019531 L 607.328125 21.433594 L 607.601563 22.992188 L 607.875 24.691406 L 608.148438 26.523438 L 608.695313 30.5625 L 608.96875 32.757813 L 609.242188 35.054688 L 609.789063 39.933594 L 610.882813 50.582031 L 611.15625 53.375 L 611.429688 56.203125 L 611.976563 61.917969 L 613.070313 73.304688 L 613.34375 76.085938 L 613.617188 78.824219 L 614.164063 84.117188 L 614.4375 86.65625 L 614.710938 89.113281 L 615.257813 93.746094 L 615.53125 95.902344 L 615.804688 97.945313 L 616.074219 99.867188 L 616.347656 101.65625 L 616.621094 103.3125 L 616.894531 104.828125 L 617.167969 106.195313 L 617.441406 107.414063 L 617.714844 108.476563 L 617.988281 109.378906 L 618.261719 110.117188 L 618.535156 110.691406 L 618.808594 111.097656 L 619.082031 111.339844 L 619.355469 111.410156 L 619.628906 111.308594 L 619.902344 111.042969 L 620.175781 110.605469 L 620.449219 110.003906 L 620.722656 109.234375 L 620.996094 108.304688 L 621.269531 107.21875 L 621.542969 105.972656 L 621.816406 104.582031 L 622.089844 103.042969 L 622.363281 101.363281 L 622.910156 97.605469 L 623.183594 95.542969 L 623.457031 93.367188 L 624.003906 88.703125 L 624.257813 86.398438 L 624.511719 84.023438 L 625.023438 79.089844 L 626.042969 68.695313 L 626.296875 66.03125 L 626.550781 63.359375 L 627.0625 58.015625 L 628.082031 47.578125 L 628.335938 45.0625 L 628.59375 42.605469 L 629.101563 37.878906 L 629.355469 35.625 L 629.613281 33.457031 L 630.121094 29.394531 L 630.375 27.511719 L 630.632813 25.738281 L 630.886719 24.074219 L 631.140625 22.53125 L 631.398438 21.109375 L 631.652344 19.816406 L 631.90625 18.652344 L 632.160156 17.625 L 632.417969 16.734375 L 632.671875 15.984375 L 632.925781 15.375 L 633.179688 14.910156 L 633.4375 14.59375 L 633.691406 14.421875 L 633.945313 14.398438 L 634.199219 14.523438 L 634.457031 14.792969 L 634.710938 15.210938 L 634.964844 15.773438 L 635.222656 16.476563 L 635.476563 17.324219 L 635.730469 18.308594 L 635.984375 19.429688 L 636.242188 20.679688 L 636.496094 22.0625 L 636.75 23.566406 L 637.261719 26.929688 L 637.515625 28.78125 L 637.769531 30.730469 L 638.28125 34.921875 L 638.535156 37.148438 L 638.789063 39.453125 L 639.300781 44.269531 L 640.320313 54.519531 L 640.597656 57.390625 L 640.871094 60.28125 L 641.425781 66.078125 L 642.53125 77.453125 L 642.808594 80.195313 L 643.085938 82.871094 L 643.636719 88.003906 L 643.914063 90.4375 L 644.191406 92.777344 L 644.742188 97.121094 L 645.019531 99.117188 L 645.296875 100.980469 L 645.574219 102.707031 L 645.851563 104.292969 L 646.125 105.730469 L 646.402344 107.015625 L 646.679688 108.140625 L 646.957031 109.105469 L 647.230469 109.90625 L 647.507813 110.539063 L 647.785156 111 L 648.0625 111.289063 L 648.339844 111.40625 L 648.613281 111.351563 L 648.890625 111.121094 L 649.167969 110.71875 L 649.445313 110.144531 L 649.71875 109.402344 L 649.996094 108.496094 L 650.273438 107.425781 L 650.550781 106.195313 L 650.828125 104.808594 L 651.101563 103.273438 L 651.378906 101.597656 L 651.65625 99.777344 L 651.933594 97.828125 L 652.484375 93.5625 L 652.761719 91.261719 L 653.039063 88.859375 L 653.589844 83.785156 L 653.867188 81.132813 L 654.144531 78.414063 L 654.695313 72.820313 L 655.804688 61.289063 L 656.078125 58.394531 L 656.355469 55.515625 L 656.910156 49.847656 L 658.015625 39.152344 L 658.273438 36.828125 L 658.53125 34.585938 L 659.046875 30.375 L 659.304688 28.417969 L 659.5625 26.566406 L 660.078125 23.214844 L 660.335938 21.71875 L 660.597656 20.351563 L 660.855469 19.117188 L 661.113281 18.023438 L 661.371094 17.0625 L 661.628906 16.25 L 661.886719 15.578125 L 662.144531 15.058594 L 662.402344 14.683594 L 662.660156 14.460938 L 662.917969 14.390625 L 663.175781 14.46875 L 663.433594 14.699219 L 663.691406 15.078125 L 663.949219 15.609375 L 664.210938 16.285156 L 664.46875 17.105469 L 664.726563 18.070313 L 664.984375 19.171875 L 665.242188 20.414063 L 665.5 21.785156 L 665.757813 23.285156 L 666.273438 26.652344 L 666.53125 28.507813 L 666.789063 30.46875 L 667.304688 34.691406 L 668.339844 44.128906 L 668.597656 46.652344 L 668.855469 49.226563 L 669.371094 54.5 L 670.402344 65.285156 L 670.660156 67.984375 L 670.917969 70.667969 L 671.4375 75.953125 L 671.695313 78.539063 L 671.953125 81.078125 L 672.46875 85.976563 L 672.726563 88.320313 L 672.984375 90.585938 L 673.5 94.851563 L 673.757813 96.835938 L 674.015625 98.71875 L 674.53125 102.140625 L 674.785156 103.640625 L 675.039063 105.019531 L 675.292969 106.273438 L 675.546875 107.394531 L 675.796875 108.386719 L 676.050781 109.238281 L 676.304688 109.957031 L 676.558594 110.53125 L 676.808594 110.960938 L 677.0625 111.25 L 677.316406 111.394531 L 677.570313 111.390625 L 677.820313 111.242188 L 678.074219 110.953125 L 678.328125 110.515625 L 678.582031 109.9375 L 678.835938 109.21875 L 679.085938 108.363281 L 679.339844 107.367188 L 679.59375 106.242188 L 679.847656 104.984375 L 680.097656 103.601563 L 680.605469 100.476563 L 680.859375 98.742188 L 681.109375 96.902344 L 681.617188 92.917969 L 682.628906 83.929688 L 682.882813 81.507813 L 683.136719 79.027344 L 683.640625 73.9375 L 684.652344 63.417969 L 684.90625 60.761719 L 685.160156 58.117188 L 685.664063 52.871094 L 686.675781 42.804688 L 686.929688 40.421875 L 687.183594 38.105469 L 687.691406 33.699219 L 687.941406 31.625 L 688.195313 29.640625 L 688.703125 25.984375 L 688.953125 24.320313 L 689.207031 22.769531 L 689.460938 21.335938 L 689.714844 20.03125 L 689.964844 18.855469 L 690.21875 17.808594 L 690.472656 16.898438 L 690.726563 16.125 L 691 15.445313 L 691.273438 14.929688 L 691.550781 14.585938 L 691.824219 14.414063 L 692.097656 14.410156 L 692.371094 14.578125 L 692.648438 14.914063 L 692.921875 15.421875 L 693.195313 16.097656 L 693.472656 16.9375 L 693.746094 17.9375 L 694.019531 19.097656 L 694.292969 20.414063 L 694.570313 21.878906 L 694.84375 23.484375 L 695.117188 25.234375 L 695.394531 27.113281 L 695.667969 29.121094 L 696.214844 33.484375 L 696.492188 35.824219 L 696.765625 38.261719 L 697.316406 43.382813 L 697.589844 46.054688 L 697.863281 48.78125 L 698.414063 54.378906 L 699.511719 65.855469 L 699.785156 68.722656 L 700.058594 71.570313 L 700.609375 77.164063 L 700.882813 79.890625 L 701.160156 82.554688 L 701.707031 87.671875 L 701.980469 90.101563 L 702.257813 92.4375 L 702.53125 94.667969 L 702.804688 96.789063 L 703.078125 98.789063 L 703.355469 100.664063 L 703.628906 102.402344 L 703.902344 104.003906 L 704.179688 105.460938 L 704.453125 106.765625 L 704.726563 107.917969 L 705 108.910156 L 705.277344 109.742188 L 705.550781 110.40625 L 705.824219 110.90625 L 706.101563 111.234375 L 706.375 111.394531 L 706.648438 111.382813 L 706.921875 111.199219 L 707.199219 110.847656 L 707.472656 110.324219 L 707.746094 109.636719 L 708.023438 108.78125 L 708.296875 107.765625 L 708.550781 106.675781 L 708.808594 105.449219 L 709.066406 104.09375 L 709.320313 102.613281 L 709.578125 101.011719 L 709.832031 99.289063 L 710.34375 95.519531 L 710.601563 93.480469 L 710.859375 91.351563 L 711.371094 86.832031 L 712.394531 76.972656 L 712.652344 74.378906 L 712.90625 71.753906 L 713.417969 66.425781 L 714.445313 55.707031 L 714.699219 53.0625 L 714.957031 50.445313 L 715.46875 45.339844 L 716.492188 35.828125 L 716.75 33.640625 L 717.003906 31.542969 L 717.261719 29.542969 L 717.519531 27.644531 L 717.773438 25.855469 L 718.03125 24.175781 L 718.285156 22.617188 L 718.542969 21.183594 L 718.796875 19.875 L 719.054688 18.703125 L 719.3125 17.664063 L 719.566406 16.761719 L 719.824219 16.003906 L 720.078125 15.386719 L 720.335938 14.917969 L 720.589844 14.597656 L 720.847656 14.421875 L 721.105469 14.398438 L 721.359375 14.523438 L 721.617188 14.792969 L 721.871094 15.214844 L 722.128906 15.78125 L 722.382813 16.492188 L 722.640625 17.34375 L 722.898438 18.335938 L 723.152344 19.464844 L 723.410156 20.726563 L 723.664063 22.121094 L 723.921875 23.636719 L 724.179688 25.277344 L 724.691406 28.890625 L 724.96875 31.027344 L 725.246094 33.28125 L 725.800781 38.097656 L 726.910156 48.730469 L 727.1875 51.539063 L 727.46875 54.390625 L 728.023438 60.171875 L 729.132813 71.773438 L 729.410156 74.621094 L 729.6875 77.425781 L 730.242188 82.867188 L 730.519531 85.484375 L 730.800781 88.019531 L 731.355469 92.8125 L 731.632813 95.046875 L 731.910156 97.171875 L 732.1875 99.167969 L 732.464844 101.039063 L 732.742188 102.769531 L 733.019531 104.355469 L 733.296875 105.792969 L 733.574219 107.074219 L 733.855469 108.199219 L 734.132813 109.160156 L 734.410156 109.953125 L 734.6875 110.574219 L 734.964844 111.027344 L 735.242188 111.304688 L 735.519531 111.410156 L 735.796875 111.339844 L 736.074219 111.09375 L 736.351563 110.671875 L 736.628906 110.082031 L 736.90625 109.320313 L 737.1875 108.390625 L 737.464844 107.296875 L 737.742188 106.042969 L 738.019531 104.632813 L 738.296875 103.074219 L 738.574219 101.371094 L 739.128906 97.554688 L 739.40625 95.453125 L 739.683594 93.238281 L 740.242188 88.480469 L 740.519531 85.960938 L 740.796875 83.359375 L 741.351563 77.941406 L 742.460938 66.539063 L 742.722656 63.820313 L 742.980469 61.101563 L 743.5 55.6875 L 744.535156 45.199219 L 744.796875 42.695313 L 745.054688 40.253906 L 745.574219 35.59375 L 745.832031 33.390625 L 746.09375 31.28125 L 746.609375 27.359375 L 746.871094 25.566406 L 747.128906 23.890625 L 747.386719 22.335938 L 747.648438 20.90625 L 747.90625 19.613281 L 748.167969 18.453125 L 748.425781 17.433594 L 748.683594 16.558594 L 748.945313 15.828125 L 749.203125 15.242188 L 749.460938 14.8125 L 749.722656 14.527344 L 749.980469 14.398438 L 750.242188 14.421875 L 750.5 14.597656 L 750.757813 14.925781 L 751.019531 15.402344 L 751.277344 16.03125 L 751.535156 16.804688 L 751.796875 17.722656 L 752.054688 18.785156 L 752.316406 19.984375 L 752.574219 21.320313 L 752.832031 22.785156 L 753.09375 24.378906 L 753.351563 26.089844 L 753.871094 29.859375 L 754.128906 31.902344 L 754.390625 34.039063 L 754.90625 38.585938 L 755.167969 40.976563 L 755.425781 43.4375 L 755.945313 48.53125 L 756.980469 59.199219 L 757.242188 61.914063 L 757.5 64.632813 L 758.019531 70.050781 L 759.054688 80.542969 L 759.3125 83 L 759.566406 85.394531 L 760.074219 89.976563 L 760.328125 92.144531 L 760.582031 94.226563 L 761.089844 98.101563 L 761.34375 99.882813 L 761.597656 101.554688 L 761.851563 103.105469 L 762.105469 104.535156 L 762.363281 105.839844 L 762.617188 107.015625 L 762.871094 108.058594 L 763.125 108.964844 L 763.378906 109.730469 L 763.632813 110.355469 L 763.886719 110.835938 L 764.140625 111.171875 L 764.394531 111.363281 L 764.648438 111.40625 L 764.902344 111.304688 L 765.15625 111.054688 L 765.410156 110.660156 L 765.667969 110.125 L 765.921875 109.441406 L 766.175781 108.621094 L 766.429688 107.660156 L 766.683594 106.566406 L 766.9375 105.339844 L 767.191406 103.984375 L 767.445313 102.503906 L 767.699219 100.902344 L 768.207031 97.367188 L 768.460938 95.4375 L 768.714844 93.414063 L 769.226563 89.089844 L 769.480469 86.804688 L 769.734375 84.449219 L 770.242188 79.550781 L 771.257813 69.210938 L 771.511719 66.558594 L 771.765625 63.894531 L 772.277344 58.566406 L 773.292969 48.132813 L 773.546875 45.617188 L 773.800781 43.152344 L 774.308594 38.410156 L 774.5625 36.144531 L 774.816406 33.960938 L 775.324219 29.863281 L 775.601563 27.804688 L 775.878906 25.871094 L 776.152344 24.070313 L 776.429688 22.40625 L 776.703125 20.886719 L 776.980469 19.515625 L 777.257813 18.300781 L 777.53125 17.242188 L 777.808594 16.347656 L 778.082031 15.617188 L 778.359375 15.054688 L 778.636719 14.664063 L 778.910156 14.441406 L 779.1875 14.394531 L 779.460938 14.519531 L 779.738281 14.816406 L 780.015625 15.28125 L 780.289063 15.917969 L 780.566406 16.722656 L 780.839844 17.691406 L 781.117188 18.820313 L 781.390625 20.105469 L 781.667969 21.542969 L 781.945313 23.125 L 782.21875 24.851563 L 782.496094 26.714844 L 783.046875 30.8125 L 783.324219 33.039063 L 783.597656 35.371094 L 784.148438 40.320313 L 784.425781 42.917969 L 784.703125 45.589844 L 785.253906 51.101563 L 786.355469 62.554688 L 786.632813 65.445313 L 786.90625 68.328125 L 787.457031 74.027344 L 788.5625 84.867188 L 788.835938 87.40625 L 789.113281 89.859375 L 789.664063 94.464844 L 789.941406 96.605469 L 790.214844 98.625 L 790.769531 102.273438 L 791.042969 103.894531 L 791.320313 105.367188 L 791.59375 106.6875 L 791.871094 107.855469 L 792.144531 108.859375 L 792.421875 109.703125 L 792.699219 110.382813 L 792.972656 110.890625 L 793.230469 111.210938 L 793.488281 111.378906 L 793.746094 111.398438 L 794.003906 111.269531 L 794.261719 110.992188 L 794.519531 110.5625 L 794.773438 109.984375 L 795.03125 109.265625 L 795.289063 108.398438 L 795.546875 107.390625 L 795.804688 106.25 L 796.0625 104.96875 L 796.320313 103.5625 L 796.578125 102.027344 L 797.089844 98.597656 L 797.347656 96.714844 L 797.605469 94.730469 L 798.121094 90.464844 L 799.148438 80.972656 L 799.40625 78.441406 L 799.664063 75.859375 L 800.179688 70.585938 L 801.207031 59.820313 L 801.464844 57.132813 L 801.722656 54.464844 L 802.238281 49.207031 L 802.496094 46.640625 L 802.753906 44.125 L 803.269531 39.273438 L 803.523438 36.953125 L 803.78125 34.710938 L 804.296875 30.5 L 804.554688 28.542969 L 804.8125 26.691406 L 805.328125 23.328125 L 805.582031 21.828125 L 805.839844 20.457031 L 806.097656 19.214844 L 806.355469 18.109375 L 806.613281 17.144531 L 806.871094 16.316406 L 807.128906 15.636719 L 807.386719 15.101563 L 807.644531 14.714844 L 807.898438 14.476563 L 808.15625 14.390625 L 808.414063 14.453125 L 808.671875 14.667969 L 808.929688 15.027344 L 809.1875 15.539063 L 809.445313 16.195313 L 809.722656 17.070313 L 810 18.113281 L 810.28125 19.316406 L 810.558594 20.679688 L 810.839844 22.199219 L 811.117188 23.863281 L 811.675781 27.613281 L 811.953125 29.683594 L 812.234375 31.875 L 812.789063 36.585938 L 813.90625 47.085938 L 814.183594 49.878906 L 814.464844 52.71875 L 815.023438 58.5 L 816.136719 70.167969 L 816.417969 73.046875 L 816.695313 75.886719 L 817.253906 81.417969 L 817.53125 84.085938 L 817.8125 86.679688 L 818.367188 91.59375 L 818.648438 93.898438 L 818.925781 96.089844 L 819.203125 98.164063 L 819.484375 100.109375 L 819.761719 101.914063 L 820.042969 103.582031 L 820.320313 105.101563 L 820.597656 106.464844 L 820.878906 107.671875 L 821.15625 108.71875 L 821.4375 109.59375 L 821.714844 110.300781 L 821.992188 110.835938 L 822.273438 111.199219 L 822.550781 111.382813 L 822.832031 111.390625 L 823.109375 111.226563 L 823.386719 110.882813 L 823.667969 110.363281 L 823.945313 109.671875 L 824.226563 108.8125 L 824.503906 107.785156 L 824.78125 106.59375 L 825.0625 105.246094 L 825.339844 103.742188 L 825.621094 102.089844 L 825.898438 100.296875 L 826.175781 98.367188 L 826.457031 96.304688 L 826.734375 94.125 L 827.292969 89.429688 L 827.566406 86.980469 L 827.839844 84.445313 L 828.386719 79.160156 L 829.484375 67.984375 L 829.757813 65.117188 L 830.03125 62.246094 L 830.578125 56.519531 L 831.671875 45.414063 L 831.945313 42.769531 L 832.222656 40.191406 L 832.769531 35.285156 L 833.042969 32.972656 L 833.316406 30.765625 L 833.863281 26.699219 L 834.136719 24.851563 L 834.410156 23.136719 L 834.683594 21.5625 L 834.960938 20.132813 L 835.234375 18.851563 L 835.507813 17.726563 L 835.78125 16.757813 L 836.054688 15.953125 L 836.328125 15.3125 L 836.601563 14.839844 L 836.875 14.535156 L 837.148438 14.398438 L 837.421875 14.429688 L 837.695313 14.636719 L 837.972656 15.007813 L 838.246094 15.550781 L 838.519531 16.257813 L 838.792969 17.125 L 839.066406 18.15625 L 839.339844 19.34375 L 839.613281 20.683594 L 839.886719 22.171875 L 840.160156 23.804688 L 840.433594 25.574219 L 840.707031 27.472656 L 840.984375 29.496094 L 841.53125 33.882813 L 841.804688 36.234375 L 842.078125 38.679688 L 842.625 43.816406 L 842.898438 46.488281 L 843.171875 49.21875 L 843.71875 54.816406 L 844.816406 66.265625 L 845.070313 68.929688 L 845.328125 71.578125 L 845.835938 76.789063 L 846.09375 79.332031 L 846.347656 81.828125 L 846.859375 86.636719 L 847.113281 88.933594 L 847.371094 91.15625 L 847.878906 95.332031 L 848.136719 97.273438 L 848.390625 99.109375 L 848.902344 102.449219 L 849.15625 103.9375 L 849.414063 105.304688 L 849.667969 106.539063 L 849.925781 107.644531 L 850.179688 108.609375 L 850.433594 109.4375 L 850.691406 110.121094 L 850.945313 110.664063 L 851.199219 111.058594 L 851.457031 111.308594 L 851.710938 111.40625 L 851.96875 111.359375 L 852.222656 111.164063 L 852.476563 110.824219 L 852.734375 110.335938 L 852.988281 109.703125 L 853.246094 108.925781 L 853.5 108.011719 L 853.753906 106.957031 L 854.011719 105.769531 L 854.265625 104.449219 L 854.523438 103.003906 L 855.03125 99.75 L 855.289063 97.953125 L 855.542969 96.046875 L 856.054688 91.941406 L 857.074219 82.71875 L 857.332031 80.242188 L 857.585938 77.714844 L 858.097656 72.53125 L 859.117188 61.878906 L 859.375 59.203125 L 859.628906 56.539063 L 860.140625 51.277344 L 861.164063 41.238281 L 861.4375 38.675781 L 861.714844 36.207031 L 862.269531 31.554688 L 862.546875 29.394531 L 862.824219 27.355469 L 863.378906 23.667969 L 863.65625 22.027344 L 863.929688 20.539063 L 864.207031 19.199219 L 864.484375 18.015625 L 864.761719 16.996094 L 865.039063 16.140625 L 865.316406 15.449219 L 865.59375 14.929688 L 865.871094 14.585938 L 866.148438 14.410156 L 866.425781 14.410156 L 866.699219 14.585938 L 866.976563 14.933594 L 867.253906 15.453125 L 867.53125 16.144531 L 867.808594 17 L 868.085938 18.023438 L 868.363281 19.207031 L 868.640625 20.546875 L 868.917969 22.035156 L 869.195313 23.675781 L 869.46875 25.453125 L 870.023438 29.40625 L 870.300781 31.566406 L 870.578125 33.839844 L 871.132813 38.691406 L 872.238281 49.355469 L 872.515625 52.167969 L 872.792969 55.019531 L 873.347656 60.796875 L 874.457031 72.355469 L 874.730469 75.1875 L 875.007813 77.976563 L 875.5625 83.375 L 875.839844 85.972656 L 876.117188 88.484375 L 876.671875 93.226563 L 876.949219 95.4375 L 877.226563 97.535156 L 877.5 99.503906 L 877.777344 101.34375 L 878.054688 103.046875 L 878.332031 104.605469 L 878.609375 106.011719 L 878.886719 107.265625 L 879.144531 108.292969 L 879.402344 109.179688 L 879.664063 109.917969 L 879.921875 110.511719 L 880.179688 110.957031 L 880.4375 111.25 L 880.695313 111.394531 L 880.953125 111.386719 L 881.214844 111.226563 L 881.472656 110.914063 L 881.730469 110.453125 L 881.988281 109.84375 L 882.246094 109.089844 L 882.507813 108.1875 L 882.765625 107.144531 L 883.023438 105.964844 L 883.28125 104.648438 L 883.539063 103.203125 L 883.800781 101.632813 L 884.058594 99.941406 L 884.316406 98.132813 L 884.574219 96.210938 L 885.089844 92.070313 L 885.351563 89.855469 L 885.609375 87.5625 L 886.125 82.746094 L 887.160156 72.433594 L 887.417969 69.761719 L 887.675781 67.066406 L 888.195313 61.644531 L 889.230469 50.921875 L 889.488281 48.3125 L 889.746094 45.75 L 890.261719 40.792969 L 890.519531 38.414063 L 890.78125 36.113281 L 891.296875 31.765625 L 891.554688 29.734375 L 891.8125 27.808594 L 892.074219 25.992188 L 892.332031 24.289063 L 892.589844 22.710938 L 892.847656 21.253906 L 893.105469 19.929688 L 893.367188 18.738281 L 893.625 17.683594 L 893.882813 16.773438 L 894.140625 16.007813 L 894.398438 15.386719 L 894.65625 14.914063 L 894.917969 14.589844 L 895.175781 14.421875 L 895.433594 14.398438 L 895.6875 14.527344 L 895.941406 14.800781 L 896.195313 15.21875 L 896.449219 15.78125 L 896.699219 16.484375 L 896.953125 17.324219 L 897.207031 18.304688 L 897.460938 19.417969 L 897.714844 20.660156 L 897.96875 22.03125 L 898.222656 23.523438 L 898.476563 25.132813 L 898.730469 26.859375 L 898.980469 28.691406 L 899.488281 32.660156 L 899.742188 34.785156 L 899.996094 36.992188 L 900.503906 41.636719 L 901.515625 51.628906 L 903.542969 72.730469 L 903.796875 75.316406 L 904.050781 77.867188 L 904.558594 82.828125 L 904.8125 85.21875 L 905.066406 87.546875 L 905.574219 91.96875 L 905.824219 94.054688 L 906.078125 96.042969 L 906.332031 97.933594 L 906.585938 99.722656 L 906.839844 101.394531 L 907.09375 102.957031 L 907.347656 104.394531 L 907.601563 105.707031 L 907.855469 106.894531 L 908.105469 107.949219 L 908.359375 108.867188 L 908.613281 109.648438 L 908.867188 110.285156 L 909.121094 110.785156 L 909.375 111.136719 L 909.628906 111.347656 L 909.882813 111.410156 L 910.136719 111.328125 L 910.386719 111.097656 L 910.640625 110.726563 L 910.894531 110.210938 L 911.148438 109.550781 L 911.402344 108.753906 L 911.65625 107.816406 L 911.929688 106.648438 L 912.207031 105.324219 L 912.480469 103.851563 L 912.753906 102.234375 L 913.03125 100.476563 L 913.304688 98.585938 L 913.855469 94.433594 L 914.128906 92.1875 L 914.40625 89.835938 L 914.957031 84.859375 L 916.054688 74.046875 L 916.332031 71.222656 L 916.605469 68.367188 L 917.15625 62.605469 L 918.253906 51.183594 L 918.53125 48.40625 L 918.804688 45.679688 L 919.355469 40.421875 L 919.628906 37.90625 L 919.90625 35.480469 L 920.457031 30.925781 L 920.730469 28.8125 L 921.003906 26.820313 L 921.28125 24.957031 L 921.554688 23.226563 L 921.832031 21.640625 L 922.105469 20.195313 L 922.378906 18.902344 L 922.65625 17.765625 L 922.929688 16.789063 L 923.207031 15.976563 L 923.480469 15.328125 L 923.753906 14.847656 L 924.03125 14.539063 L 924.304688 14.398438 L 924.582031 14.429688 L 924.855469 14.632813 L 925.128906 15.007813 L 925.40625 15.554688 L 925.679688 16.265625 L 925.957031 17.140625 L 926.230469 18.179688 L 926.503906 19.375 L 926.78125 20.726563 L 927.054688 22.222656 L 927.332031 23.867188 L 927.605469 25.648438 L 928.15625 29.597656 L 928.429688 31.753906 L 928.707031 34.019531 L 929.253906 38.847656 L 929.511719 41.222656 L 929.769531 43.664063 L 930.28125 48.714844 L 931.308594 59.277344 L 931.566406 61.964844 L 931.820313 64.65625 L 932.335938 70.015625 L 933.363281 80.40625 L 933.617188 82.886719 L 933.875 85.308594 L 934.386719 89.9375 L 934.644531 92.128906 L 934.902344 94.230469 L 935.414063 98.140625 L 935.671875 99.933594 L 935.925781 101.617188 L 936.183594 103.175781 L 936.441406 104.617188 L 936.699219 105.925781 L 936.953125 107.101563 L 937.210938 108.140625 L 937.46875 109.042969 L 937.722656 109.800781 L 937.980469 110.417969 L 938.238281 110.886719 L 938.492188 111.207031 L 938.75 111.378906 L 939.007813 111.402344 L 939.261719 111.273438 L 939.519531 111 L 939.777344 110.574219 L 940.035156 110.003906 L 940.289063 109.289063 L 940.546875 108.429688 L 940.804688 107.433594 L 941.058594 106.296875 L 941.316406 105.027344 L 941.574219 103.628906 L 941.828125 102.105469 L 942.085938 100.460938 L 942.597656 96.828125 L 942.855469 94.851563 L 943.113281 92.777344 L 943.625 88.363281 L 943.882813 86.03125 L 944.140625 83.632813 L 944.652344 78.644531 L 945.679688 68.15625 L 945.964844 65.164063 L 946.25 62.15625 L 946.824219 56.167969 L 947.109375 53.207031 L 947.398438 50.285156 L 947.96875 44.59375 L 948.257813 41.847656 L 948.542969 39.179688 L 949.117188 34.132813 L 949.402344 31.769531 L 949.6875 29.527344 L 950.261719 25.429688 L 950.546875 23.59375 L 950.835938 21.910156 L 951.121094 20.382813 L 951.40625 19.019531 L 951.695313 17.824219 L 951.980469 16.800781 L 952.265625 15.953125 L 952.554688 15.285156 L 952.839844 14.804688 L 953.125 14.503906 L 953.414063 14.390625 L 953.699219 14.464844 L 953.984375 14.722656 L 954.273438 15.164063 L 954.558594 15.792969 L 954.84375 16.601563 L 955.132813 17.585938 L 955.417969 18.742188 L 955.703125 20.070313 L 955.992188 21.5625 L 956.277344 23.214844 L 956.5625 25.019531 L 957.136719 29.054688 L 957.421875 31.269531 L 957.710938 33.609375 L 958.28125 38.613281 L 959.429688 49.652344 L 959.714844 52.566406 L 960 55.523438 L 960.574219 61.503906 L 961.71875 73.4375 L 962.007813 76.351563 L 962.292969 79.210938 L 962.867188 84.730469 L 963.152344 87.371094 L 963.4375 89.917969 L 963.726563 92.359375 L 964.011719 94.691406 " transform="matrix(1,0,0,1,-112,-9)"/>
</g>
</g>
</svg>
