<?xml version="1.0" encoding="UTF-8" standalone="no"?>
<!DOCTYPE svg PUBLIC "-//W3C//DTD SVG 1.1//EN" "http://www.w3.org/Graphics/SVG/1.1/DTD/svg11.dtd">
<!-- 由 Microsoft Visio, SVG Export 生成 WO-1SlitDiffraction.svg Page-1 -->
<svg xmlns="http://www.w3.org/2000/svg" xmlns:xlink="http://www.w3.org/1999/xlink" xmlns:ev="http://www.w3.org/2001/xml-events"
		xmlns:v="http://schemas.microsoft.com/visio/2003/SVGExtensions/" width="3.15319in" height="3.53443in"
		viewBox="0 0 227.029 254.479" xml:space="preserve" color-interpolation-filters="sRGB" class="st15">
	<v:documentProperties v:langID="2052" v:metric="true" v:viewMarkup="false">
		<v:userDefs>
			<v:ud v:nameU="msvNoAutoConnect" v:val="VT0(1):26"/>
		</v:userDefs>
	</v:documentProperties>

	<style type="text/css">
	<![CDATA[
		.st1 {stroke:#000000;stroke-width:4.5}
		.st2 {marker-end:url(#mrkr5-12);stroke:#000000;stroke-linecap:round;stroke-linejoin:round;stroke-width:0.75}
		.st3 {fill:#000000;fill-opacity:1;stroke:#000000;stroke-opacity:1;stroke-width:0.22935779816514}
		.st4 {marker-start:url(#mrkr42-58);stroke:#000000;stroke-linecap:round;stroke-linejoin:round;stroke-width:0.75}
		.st5 {fill:#000000;fill-opacity:1;stroke:#000000;stroke-opacity:1;stroke-width:0.29411764705882}
		.st6 {stroke:#000000;stroke-linecap:round;stroke-linejoin:round;stroke-width:0.75}
		.st7 {stroke:#000000;stroke-dasharray:2.25,2.25;stroke-linecap:round;stroke-linejoin:round;stroke-width:0.75}
		.st8 {marker-end:url(#mrkr5-138);stroke:#000000;stroke-linecap:round;stroke-linejoin:round;stroke-width:0.75}
		.st9 {marker-start:url(#mrkr5-144);stroke:#000000;stroke-linecap:round;stroke-linejoin:round;stroke-width:0.75}
		.st10 {marker-end:url(#mrkr5-138);marker-start:url(#mrkr5-144);stroke:#000000;stroke-linecap:round;stroke-linejoin:round;stroke-width:0.75}
		.st11 {fill:none;stroke:none;stroke-linecap:round;stroke-linejoin:round;stroke-width:0.75}
		.st12 {fill:#000000;font-family:Times New Roman;font-size:1.00001em;font-style:italic}
		.st13 {font-size:1em;font-style:normal}
		.st14 {fill:#000000;font-family:Times New Roman;font-size:0.833336em;font-style:italic}
		.st15 {fill:none;fill-rule:evenodd;font-size:12px;overflow:visible;stroke-linecap:square;stroke-miterlimit:3}
	]]>
	</style>

	<defs id="Markers">
		<g id="lend5">
			<path d="M 2 1 L 0 0 L 1.98117 -0.993387 C 1.67173 -0.364515 1.67301 0.372641 1.98465 1.00043 " style="stroke:none"/>
		</g>
		<marker id="mrkr5-12" class="st3" v:arrowType="5" v:arrowSize="2" v:setback="7.63" refX="-7.63" orient="auto"
				markerUnits="strokeWidth" overflow="visible">
			<use xlink:href="#lend5" transform="scale(-4.36,-4.36) "/>
		</marker>
		<g id="lend42">
			<path
					d="M 0 0.75 C -0.414214 0.75 -0.75 0.414214 -0.75 0 -0.75 -0.414214 -0.414214 -0.75 0 -0.75 0.414214 -0.75 0.75 -0.414214 0.75 0 0.75 0.414214 0.414214 0.75 0 0.75 Z "
					style="stroke:none"/>
		</g>
		<marker id="mrkr42-58" class="st5" v:arrowType="42" v:arrowSize="1" v:setback="2.07" refX="2.07" orient="auto"
				markerUnits="strokeWidth" overflow="visible">
			<use xlink:href="#lend42" transform="scale(3.4) "/>
		</marker>
		<marker id="mrkr5-138" class="st5" v:arrowType="5" v:arrowSize="1" v:setback="5.95" refX="-5.95" orient="auto"
				markerUnits="strokeWidth" overflow="visible">
			<use xlink:href="#lend5" transform="scale(-3.4,-3.4) "/>
		</marker>
		<marker id="mrkr5-144" class="st5" v:arrowType="5" v:arrowSize="1" v:setback="5.47" refX="5.47" orient="auto"
				markerUnits="strokeWidth" overflow="visible">
			<use xlink:href="#lend5" transform="scale(3.4) "/>
		</marker>
	</defs>
	<g v:mID="0" v:index="1" v:groupContext="foregroundPage">
		<title>页-1</title>
		<v:pageProperties v:drawingScale="0.0393701" v:pageScale="0.0393701" v:drawingUnits="24" v:shadowOffsetX="8.50394"
				v:shadowOffsetY="-8.50394"/>
		<g id="shape1-1" v:mID="1" v:groupContext="shape" transform="translate(331.673,155.317) rotate(90)">
			<title>工作表.1</title>
			<path d="M0 254.48 L31.78 254.48" class="st1"/>
		</g>
		<g id="shape2-4" v:mID="2" v:groupContext="shape" transform="translate(331.673,22.5) rotate(90)">
			<title>工作表.2</title>
			<path d="M0 254.48 L32.69 254.48" class="st1"/>
		</g>
		<g id="shape3-7" v:mID="3" v:groupContext="shape" transform="translate(43.342,-212.548)">
			<title>工作表.3</title>
			<path d="M0 254.48 L25.58 254.48" class="st2"/>
		</g>
		<g id="shape4-13" v:mID="4" v:groupContext="shape" transform="translate(43.342,-196.958)">
			<title>工作表.4</title>
			<path d="M0 254.48 L25.58 254.48" class="st2"/>
		</g>
		<g id="shape5-18" v:mID="5" v:groupContext="shape" transform="translate(43.342,-180.8)">
			<title>工作表.5</title>
			<path d="M0 254.48 L25.58 254.48" class="st2"/>
		</g>
		<g id="shape6-23" v:mID="6" v:groupContext="shape" transform="translate(43.342,-165.21)">
			<title>工作表.6</title>
			<path d="M0 254.48 L25.58 254.48" class="st2"/>
		</g>
		<g id="shape7-28" v:mID="7" v:groupContext="shape" transform="translate(43.1781,-149.619)">
			<title>工作表.7</title>
			<path d="M0 254.48 L25.58 254.48" class="st2"/>
		</g>
		<g id="shape8-33" v:mID="8" v:groupContext="shape" transform="translate(43.1781,-134.029)">
			<title>工作表.8</title>
			<path d="M0 254.48 L25.58 254.48" class="st2"/>
		</g>
		<g id="shape9-38" v:mID="9" v:groupContext="shape" transform="translate(43.1781,-117.021)">
			<title>工作表.9</title>
			<path d="M0 254.48 L25.58 254.48" class="st2"/>
		</g>
		<g id="shape10-43" v:mID="10" v:groupContext="shape" transform="translate(43.1781,-101.43)">
			<title>工作表.10</title>
			<path d="M0 254.48 L25.58 254.48" class="st2"/>
		</g>
		<g id="shape11-48" v:mID="11" v:groupContext="shape" transform="translate(43.342,-85.8396)">
			<title>工作表.11</title>
			<path d="M0 254.48 L25.58 254.48" class="st2"/>
		</g>
		<g id="shape1000-53" v:mID="1000" v:groupContext="shape" transform="translate(19.3687,-190.301) rotate(-13.134)">
			<title>工作表.1000</title>
			<path d="M1.55 254.48 L1.91 254.48 L130.99 254.48" class="st4"/>
		</g>
		<g id="shape1001-59" v:mID="1001" v:groupContext="shape" transform="translate(19.3687,-174.143) rotate(-13.134)">
			<title>工作表.1001</title>
			<path d="M0 254.48 L130.99 254.48" class="st6"/>
		</g>
		<g id="shape1002-62" v:mID="1002" v:groupContext="shape" transform="translate(19.3687,-158.553) rotate(-13.134)">
			<title>工作表.1002</title>
			<path d="M1.55 254.48 L1.91 254.48 L130.99 254.48" class="st4"/>
		</g>
		<g id="shape1003-67" v:mID="1003" v:groupContext="shape" transform="translate(19.3687,-142.962) rotate(-13.134)">
			<title>工作表.1003</title>
			<path d="M0 254.48 L130.99 254.48" class="st6"/>
		</g>
		<g id="shape1004-70" v:mID="1004" v:groupContext="shape" transform="translate(19.3687,-127.088) rotate(-13.134)">
			<title>工作表.1004</title>
			<path d="M1.55 254.48 L1.91 254.48 L130.99 254.48" class="st4"/>
		</g>
		<g id="shape1005-75" v:mID="1005" v:groupContext="shape" transform="translate(19.3687,-110.931) rotate(-13.134)">
			<title>工作表.1005</title>
			<path d="M0 254.48 L130.99 254.48" class="st6"/>
		</g>
		<g id="shape1006-78" v:mID="1006" v:groupContext="shape" transform="translate(19.3687,-95.3402) rotate(-13.134)">
			<title>工作表.1006</title>
			<path d="M1.55 254.48 L1.91 254.48 L130.99 254.48" class="st4"/>
		</g>
		<g id="shape1007-83" v:mID="1007" v:groupContext="shape" transform="translate(19.3687,-190.301) rotate(-13.134)">
			<title>工作表.1007</title>
			<path d="M0 254.48 L58.09 254.48" class="st2"/>
		</g>
		<g id="shape1008-88" v:mID="1008" v:groupContext="shape" transform="translate(19.3687,-174.143) rotate(-13.134)">
			<title>工作表.1008</title>
			<path d="M0 254.48 L58.42 254.48" class="st2"/>
		</g>
		<g id="shape1009-93" v:mID="1009" v:groupContext="shape" transform="translate(19.3687,-158.553) rotate(-13.134)">
			<title>工作表.1009</title>
			<path d="M0 254.48 L57.95 254.48" class="st2"/>
		</g>
		<g id="shape1010-98" v:mID="1010" v:groupContext="shape" transform="translate(19.5631,-143.059) rotate(-13.0891)">
			<title>工作表.1010</title>
			<path d="M0 254.48 L58.3 254.48" class="st2"/>
		</g>
		<g id="shape1011-103" v:mID="1011" v:groupContext="shape" transform="translate(19.3687,-127.088) rotate(-13.134)">
			<title>工作表.1011</title>
			<path d="M0 254.48 L58.09 254.48" class="st2"/>
		</g>
		<g id="shape1012-108" v:mID="1012" v:groupContext="shape" transform="translate(19.3687,-110.931) rotate(-13.134)">
			<title>工作表.1012</title>
			<path d="M0 254.48 L58.09 254.48" class="st2"/>
		</g>
		<g id="shape1013-113" v:mID="1013" v:groupContext="shape" transform="translate(19.5897,-95.3918) rotate(-13.134)">
			<title>工作表.1013</title>
			<path d="M0 254.48 L58.09 254.48" class="st2"/>
		</g>
		<g id="shape1014-118" v:mID="1014" v:groupContext="shape" transform="translate(77.1939,-196.958)">
			<title>工作表.1014</title>
			<path d="M0 254.48 L45.35 254.48" class="st7"/>
		</g>
		<g id="shape1015-121" v:mID="1015" v:groupContext="shape" transform="translate(326.717,-0.303533) rotate(76.866)">
			<title>工作表.1015</title>
			<path d="M0 254.48 L160.2 254.48" class="st7"/>
		</g>
		<g id="shape1016-124" v:mID="1016" v:groupContext="shape" transform="translate(326.717,31.4445) rotate(76.866)">
			<title>工作表.1016</title>
			<path d="M0 254.48 L126.38 254.48" class="st7"/>
		</g>
		<g id="shape1017-127" v:mID="1017" v:groupContext="shape" transform="translate(326.717,62.9091) rotate(76.866)">
			<title>工作表.1017</title>
			<path d="M0 254.48 L96.44 254.48" class="st7"/>
		</g>
		<g id="shape1018-130" v:mID="1018" v:groupContext="shape" transform="translate(326.717,94.6055) rotate(76.866)">
			<title>工作表.1018</title>
			<path d="M0 254.48 L65.6 254.48" class="st7"/>
		</g>
		<g id="shape1019-133" v:mID="1019" v:groupContext="shape" transform="translate(19.0453,-38.049) rotate(-13.134)">
			<title>工作表.1019</title>
			<path d="M0 254.48 L10.54 254.48" class="st8"/>
		</g>
		<g id="shape1020-139" v:mID="1020" v:groupContext="shape" transform="translate(53.7527,-46.3683) rotate(-13.3316)">
			<title>工作表.1020</title>
			<path d="M4.1 254.48 L4.46 254.48 L36.7 254.48" class="st9"/>
		</g>
		<g id="shape1021-145" v:mID="1021" v:groupContext="shape" transform="translate(37.5089,312.001) rotate(180)">
			<title>工作表.1021</title>
			<path d="M0 254.48 L8.5 254.48" class="st6"/>
		</g>
		<g id="shape1022-148" v:mID="1022" v:groupContext="shape" transform="translate(37.5089,407.528) rotate(180)">
			<title>工作表.1022</title>
			<path d="M0 254.48 L8.5 254.48" class="st6"/>
		</g>
		<g id="shape1023-151" v:mID="1023" v:groupContext="shape" transform="translate(287.736,57.5216) rotate(90)">
			<title>工作表.1023</title>
			<path d="M4.1 254.48 L4.46 254.48 L91.07 254.48" class="st10"/>
		</g>
		<g id="shape1024-158" v:mID="1024" v:groupContext="shape" transform="translate(348.858,11.906) rotate(80.7658)">
			<title>工作表.1024</title>
			<path d="M0 254.48 a4.77933 0.777007 9.23 0 1 4.84208 0" class="st6"/>
		</g>
		<g id="shape1025-161" v:mID="1025" v:groupContext="shape" transform="translate(104.832,-191.288)">
			<title>工作表.1025</title>
			<desc>θ</desc>
			<v:textBlock v:margins="rect(4,4,4,4)" v:tabSpace="42.5197"/>
			<v:textRect cx="10.6299" cy="245.975" width="21.26" height="17.0079"/>
			<rect x="0" y="237.471" width="21.2598" height="17.0079" class="st11"/>
			<text x="7.68" y="249.62" class="st12" v:langID="2052"><v:paragraph v:horizAlign="1"/><v:tabList/>θ </text>		</g>
		<g id="group1028-164" transform="translate(57.6357,-43.217) rotate(-13.134)" v:mID="1028" v:groupContext="group">
			<title>工作表.1028</title>
			<g id="shape1026-165" v:mID="1026" v:groupContext="shape" transform="translate(-1.59872E-14,-1.70079)">
				<title>工作表.1026</title>
				<desc>asin</desc>
				<v:textBlock v:margins="rect(4,4,4,4)" v:tabSpace="42.5197"/>
				<v:textRect cx="14.0315" cy="245.975" width="28.07" height="17.0079"/>
				<rect x="0" y="237.471" width="28.063" height="17.0079" class="st11"/>
				<text x="4.03" y="249.62" class="st12" v:langID="2052"><v:paragraph v:horizAlign="1"/><v:tabList/>a<tspan
							class="st13">sin</tspan> </text>			</g>
			<g id="shape1027-169" v:mID="1027" v:groupContext="shape" transform="translate(16.7244,8.52651E-14)">
				<title>工作表.1027</title>
				<desc>θ</desc>
				<v:textBlock v:margins="rect(4,4,4,4)" v:tabSpace="42.5197"/>
				<v:textRect cx="10.6299" cy="245.975" width="21.26" height="17.0079"/>
				<rect x="0" y="237.471" width="21.2598" height="17.0079" class="st11"/>
				<text x="7.68" y="249.62" class="st12" v:langID="2052"><v:paragraph v:horizAlign="1"/><v:tabList/>θ </text>			</g>
		</g>
		<g id="shape1029-172" v:mID="1029" v:groupContext="shape" transform="translate(18.375,-141.682)">
			<title>工作表.1029</title>
			<desc>a</desc>
			<v:textBlock v:margins="rect(4,4,4,4)" v:tabSpace="42.5197"/>
			<v:textRect cx="10.6299" cy="245.975" width="21.26" height="17.0079"/>
			<rect x="0" y="237.471" width="21.2598" height="17.0079" class="st11"/>
			<text x="7.63" y="249.62" class="st12" v:langID="2052"><v:paragraph v:horizAlign="1"/><v:tabList/>a</text>		</g>
		<g id="group1033-175" transform="translate(33.8611,-11.6013) rotate(-13.134)" v:mID="1033" v:groupContext="group">
			<title>工作表.1033</title>
			<g id="shape1030-176" v:mID="1030" v:groupContext="shape" transform="translate(0,-10.772)">
				<title>工作表.1030</title>
				<desc>λ</desc>
				<v:textBlock v:margins="rect(4,4,4,4)" v:tabSpace="42.5197"/>
				<v:textRect cx="9.76689" cy="246.182" width="19.54" height="16.5946"/>
				<rect x="0" y="237.885" width="19.5338" height="16.5946" class="st11"/>
				<text x="7.6" y="249.78" class="st14" v:langID="2052"><v:paragraph v:horizAlign="1"/><v:tabList/>λ </text>			</g>
			<g id="shape1031-179" v:mID="1031" v:groupContext="shape" transform="translate(7.7848,-13.8288)">
				<title>工作表.1031</title>
				<path d="M0 254.48 L5.05 254.48" class="st6"/>
			</g>
			<g id="shape1032-182" v:mID="1032" v:groupContext="shape" transform="translate(0.51404,8.52651E-14)">
				<title>工作表.1032</title>
				<desc>2</desc>
				<v:textBlock v:margins="rect(4,4,4,4)" v:tabSpace="42.5197"/>
				<v:textRect cx="9.76689" cy="246.182" width="19.54" height="16.5946"/>
				<rect x="0" y="237.885" width="19.5338" height="16.5946" class="st11"/>
				<text x="7.27" y="249.22" class="st14" v:langID="2052"><v:paragraph v:horizAlign="1"/><v:tabList/>2</text>			</g>
		</g>
		<g id="group1034-185" transform="translate(40.9477,-13.2272) rotate(-13.134)" v:mID="1034" v:groupContext="group">
			<title>工作表.1034</title>
			<g id="shape1035-186" v:mID="1035" v:groupContext="shape" transform="translate(0,-10.772)">
				<title>工作表.1035</title>
				<desc>λ</desc>
				<v:textBlock v:margins="rect(4,4,4,4)" v:tabSpace="42.5197"/>
				<v:textRect cx="9.76689" cy="246.182" width="19.54" height="16.5946"/>
				<rect x="0" y="237.885" width="19.5338" height="16.5946" class="st11"/>
				<text x="7.6" y="249.78" class="st14" v:langID="2052"><v:paragraph v:horizAlign="1"/><v:tabList/>λ </text>			</g>
			<g id="shape1036-189" v:mID="1036" v:groupContext="shape" transform="translate(7.7848,-13.8288)">
				<title>工作表.1036</title>
				<path d="M0 254.48 L5.05 254.48" class="st6"/>
			</g>
			<g id="shape1037-192" v:mID="1037" v:groupContext="shape" transform="translate(0.51404,8.52651E-14)">
				<title>工作表.1037</title>
				<desc>2</desc>
				<v:textBlock v:margins="rect(4,4,4,4)" v:tabSpace="42.5197"/>
				<v:textRect cx="9.76689" cy="246.182" width="19.54" height="16.5946"/>
				<rect x="0" y="237.885" width="19.5338" height="16.5946" class="st11"/>
				<text x="7.27" y="249.22" class="st14" v:langID="2052"><v:paragraph v:horizAlign="1"/><v:tabList/>2</text>			</g>
		</g>
		<g id="group1038-195" transform="translate(48.0343,-14.6445) rotate(-13.134)" v:mID="1038" v:groupContext="group">
			<title>工作表.1038</title>
			<g id="shape1039-196" v:mID="1039" v:groupContext="shape" transform="translate(0,-10.772)">
				<title>工作表.1039</title>
				<desc>λ</desc>
				<v:textBlock v:margins="rect(4,4,4,4)" v:tabSpace="42.5197"/>
				<v:textRect cx="9.76689" cy="246.182" width="19.54" height="16.5946"/>
				<rect x="0" y="237.885" width="19.5338" height="16.5946" class="st11"/>
				<text x="7.6" y="249.78" class="st14" v:langID="2052"><v:paragraph v:horizAlign="1"/><v:tabList/>λ </text>			</g>
			<g id="shape1040-199" v:mID="1040" v:groupContext="shape" transform="translate(7.7848,-13.8288)">
				<title>工作表.1040</title>
				<path d="M0 254.48 L5.05 254.48" class="st6"/>
			</g>
			<g id="shape1041-202" v:mID="1041" v:groupContext="shape" transform="translate(0.51404,8.52651E-14)">
				<title>工作表.1041</title>
				<desc>2</desc>
				<v:textBlock v:margins="rect(4,4,4,4)" v:tabSpace="42.5197"/>
				<v:textRect cx="9.76689" cy="246.182" width="19.54" height="16.5946"/>
				<rect x="0" y="237.885" width="19.5338" height="16.5946" class="st11"/>
				<text x="7.27" y="249.22" class="st14" v:langID="2052"><v:paragraph v:horizAlign="1"/><v:tabList/>2</text>			</g>
		</g>
	</g>
</svg>
