<?xml version="1.0" encoding="UTF-8" standalone="no"?>
<!DOCTYPE svg PUBLIC "-//W3C//DTD SVG 1.1//EN" "http://www.w3.org/Graphics/SVG/1.1/DTD/svg11.dtd">
<!-- 由 Microsoft Visio, SVG Export 生成 WO-2SlitInterferenceCalcu.svg Page-1 -->
<svg xmlns="http://www.w3.org/2000/svg" xmlns:xlink="http://www.w3.org/1999/xlink" xmlns:ev="http://www.w3.org/2001/xml-events"
		xmlns:v="http://schemas.microsoft.com/visio/2003/SVGExtensions/" width="5.5301in" height="3.55022in"
		viewBox="0 0 398.167 255.616" xml:space="preserve" color-interpolation-filters="sRGB" class="st11">
	<v:documentProperties v:langID="2052" v:metric="true" v:viewMarkup="false">
		<v:userDefs>
			<v:ud v:nameU="msvNoAutoConnect" v:val="VT0(1):26"/>
		</v:userDefs>
	</v:documentProperties>

	<style type="text/css">
	<![CDATA[
		.st1 {stroke:#000000;stroke-linecap:round;stroke-linejoin:round;stroke-width:0.75}
		.st2 {stroke:#000000;stroke-linecap:round;stroke-linejoin:round;stroke-width:1.5}
		.st3 {marker-end:url(#mrkr13-93);marker-start:url(#mrkr13-91);stroke:#000000;stroke-linecap:round;stroke-linejoin:round;stroke-width:0.75}
		.st4 {fill:#000000;fill-opacity:1;stroke:#000000;stroke-opacity:1;stroke-width:0.22935779816514}
		.st5 {stroke:#000000;stroke-dasharray:5.25,3.75;stroke-linecap:round;stroke-linejoin:round;stroke-width:0.75}
		.st6 {marker-end:url(#mrkr5-126);marker-start:url(#mrkr5-124);stroke:#000000;stroke-linecap:round;stroke-linejoin:round;stroke-width:0.75}
		.st7 {fill:none;stroke:none;stroke-linecap:round;stroke-linejoin:round;stroke-width:0.75}
		.st8 {fill:#000000;font-family:Times New Roman;font-size:1.00001em;font-style:italic}
		.st9 {font-size:0.499989em}
		.st10 {stroke:#000000;stroke-linecap:round;stroke-linejoin:round;stroke-width:0.25}
		.st11 {fill:none;fill-rule:evenodd;font-size:12px;overflow:visible;stroke-linecap:square;stroke-miterlimit:3}
	]]>
	</style>

	<defs id="Markers">
		<g id="lend13">
			<path d="M 3 1 L 0 0 L 3 -1 L 3 1 " style="stroke:none"/>
		</g>
		<marker id="mrkr13-91" class="st4" v:arrowType="13" v:arrowSize="2" v:setback="12.6" refX="12.6" orient="auto"
				markerUnits="strokeWidth" overflow="visible">
			<use xlink:href="#lend13" transform="scale(4.36) "/>
		</marker>
		<marker id="mrkr13-93" class="st4" v:arrowType="13" v:arrowSize="2" v:setback="13.08" refX="-13.08" orient="auto"
				markerUnits="strokeWidth" overflow="visible">
			<use xlink:href="#lend13" transform="scale(-4.36,-4.36) "/>
		</marker>
		<g id="lend5">
			<path d="M 2 1 L 0 0 L 1.98117 -0.993387 C 1.67173 -0.364515 1.67301 0.372641 1.98465 1.00043 " style="stroke:none"/>
		</g>
		<marker id="mrkr5-124" class="st4" v:arrowType="5" v:arrowSize="2" v:setback="7.15" refX="7.15" orient="auto"
				markerUnits="strokeWidth" overflow="visible">
			<use xlink:href="#lend5" transform="scale(4.36) "/>
		</marker>
		<marker id="mrkr5-126" class="st4" v:arrowType="5" v:arrowSize="2" v:setback="7.63" refX="-7.63" orient="auto"
				markerUnits="strokeWidth" overflow="visible">
			<use xlink:href="#lend5" transform="scale(-4.36,-4.36) "/>
		</marker>
	</defs>
	<g v:mID="0" v:index="1" v:groupContext="foregroundPage">
		<title>页-1</title>
		<v:pageProperties v:drawingScale="0.0393701" v:pageScale="0.0393701" v:drawingUnits="24" v:shadowOffsetX="8.50394"
				v:shadowOffsetY="-8.50394"/>
		<g id="shape7-1" v:mID="7" v:groupContext="shape" transform="translate(50.2648,-110.368)">
			<title>工作表.7</title>
			<path d="M0 255.62 L286.48 255.62" class="st1"/>
		</g>
		<g id="group34-4" transform="translate(50.2648,-26.6558)" v:mID="34" v:groupContext="group">
			<title>工作表.34</title>
			<g id="shape1-5" v:mID="1" v:groupContext="shape" transform="translate(255.616,88.1919) rotate(90)">
				<title>工作表.1</title>
				<path d="M0 255.62 L48.37 255.62" class="st2"/>
			</g>
			<g id="shape2-8" v:mID="2" v:groupContext="shape" transform="translate(255.616,142.14) rotate(90)">
				<title>工作表.2</title>
				<path d="M0 255.62 L61.39 255.62" class="st2"/>
			</g>
			<g id="shape3-11" v:mID="3" v:groupContext="shape" transform="translate(255.616,209.109) rotate(90)">
				<title>工作表.3</title>
				<path d="M0 255.62 L46.51 255.62" class="st2"/>
			</g>
		</g>
		<g id="group35-14" transform="translate(336.746,-29.2993)" v:mID="35" v:groupContext="group">
			<title>工作表.35</title>
			<g id="group9-15" transform="translate(6.44642E-06,2.64356)" v:mID="9" v:groupContext="group">
				<title>工作表.9</title>
				<g id="shape8-16" v:mID="8" v:groupContext="shape">
					<title>工作表.8</title>
					<path d="M0 255.62 L0 173.51 L0 45.41" class="st2"/>
				</g>
			</g>
			<g id="shape10-19" v:mID="10" v:groupContext="shape" transform="translate(-180.748,-119.676) rotate(-45)">
				<title>工作表.10</title>
				<path d="M0 255.62 L18.42 255.62" class="st2"/>
			</g>
			<g id="shape11-22" v:mID="11" v:groupContext="shape" transform="translate(-180.748,-110.375) rotate(-45)">
				<title>工作表.11</title>
				<path d="M0 255.62 L18.42 255.62" class="st2"/>
			</g>
			<g id="shape12-25" v:mID="12" v:groupContext="shape" transform="translate(-180.748,-101.074) rotate(-45)">
				<title>工作表.12</title>
				<path d="M0 255.62 L18.42 255.62" class="st2"/>
			</g>
			<g id="shape13-28" v:mID="13" v:groupContext="shape" transform="translate(-180.748,-91.7725) rotate(-45)">
				<title>工作表.13</title>
				<path d="M0 255.62 L18.42 255.62" class="st2"/>
			</g>
			<g id="shape14-31" v:mID="14" v:groupContext="shape" transform="translate(-180.748,-82.4712) rotate(-45)">
				<title>工作表.14</title>
				<path d="M0 255.62 L18.42 255.62" class="st2"/>
			</g>
			<g id="shape15-34" v:mID="15" v:groupContext="shape" transform="translate(-180.748,-73.1698) rotate(-45)">
				<title>工作表.15</title>
				<path d="M0 255.62 L18.42 255.62" class="st2"/>
			</g>
			<g id="shape16-37" v:mID="16" v:groupContext="shape" transform="translate(-180.748,-63.8685) rotate(-45)">
				<title>工作表.16</title>
				<path d="M0 255.62 L18.42 255.62" class="st2"/>
			</g>
			<g id="shape17-40" v:mID="17" v:groupContext="shape" transform="translate(-180.748,-54.5672) rotate(-45)">
				<title>工作表.17</title>
				<path d="M0 255.62 L18.42 255.62" class="st2"/>
			</g>
			<g id="shape18-43" v:mID="18" v:groupContext="shape" transform="translate(-180.562,-46.382) rotate(-45)">
				<title>工作表.18</title>
				<path d="M0 255.62 L18.42 255.62" class="st2"/>
			</g>
			<g id="shape19-46" v:mID="19" v:groupContext="shape" transform="translate(-180.562,-37.0807) rotate(-45)">
				<title>工作表.19</title>
				<path d="M0 255.62 L18.42 255.62" class="st2"/>
			</g>
			<g id="shape20-49" v:mID="20" v:groupContext="shape" transform="translate(-180.562,-27.7793) rotate(-45)">
				<title>工作表.20</title>
				<path d="M0 255.62 L18.42 255.62" class="st2"/>
			</g>
			<g id="shape21-52" v:mID="21" v:groupContext="shape" transform="translate(-180.562,-18.478) rotate(-45)">
				<title>工作表.21</title>
				<path d="M0 255.62 L18.42 255.62" class="st2"/>
			</g>
			<g id="shape22-55" v:mID="22" v:groupContext="shape" transform="translate(-180.562,-9.17669) rotate(-45)">
				<title>工作表.22</title>
				<path d="M0 255.62 L18.42 255.62" class="st2"/>
			</g>
			<g id="shape23-58" v:mID="23" v:groupContext="shape" transform="translate(-180.562,0.124643) rotate(-45)">
				<title>工作表.23</title>
				<path d="M0 255.62 L18.42 255.62" class="st2"/>
			</g>
			<g id="shape24-61" v:mID="24" v:groupContext="shape" transform="translate(-180.562,9.42597) rotate(-45)">
				<title>工作表.24</title>
				<path d="M0 255.62 L18.42 255.62" class="st2"/>
			</g>
			<g id="shape25-64" v:mID="25" v:groupContext="shape" transform="translate(-180.562,18.7273) rotate(-45)">
				<title>工作表.25</title>
				<path d="M0 255.62 L18.42 255.62" class="st2"/>
			</g>
			<g id="shape26-67" v:mID="26" v:groupContext="shape" transform="translate(-180.748,27.2845) rotate(-45)">
				<title>工作表.26</title>
				<path d="M0 255.62 L18.42 255.62" class="st2"/>
			</g>
			<g id="shape27-70" v:mID="27" v:groupContext="shape" transform="translate(-180.748,36.5859) rotate(-45)">
				<title>工作表.27</title>
				<path d="M0 255.62 L18.42 255.62" class="st2"/>
			</g>
			<g id="shape28-73" v:mID="28" v:groupContext="shape" transform="translate(-180.748,45.8872) rotate(-45)">
				<title>工作表.28</title>
				<path d="M0 255.62 L18.42 255.62" class="st2"/>
			</g>
			<g id="shape29-76" v:mID="29" v:groupContext="shape" transform="translate(-180.748,55.1885) rotate(-45)">
				<title>工作表.29</title>
				<path d="M0 255.62 L18.42 255.62" class="st2"/>
			</g>
			<g id="shape30-79" v:mID="30" v:groupContext="shape" transform="translate(-180.748,64.4899) rotate(-45)">
				<title>工作表.30</title>
				<path d="M0 255.62 L18.42 255.62" class="st2"/>
			</g>
			<g id="shape31-82" v:mID="31" v:groupContext="shape" transform="translate(-180.748,73.7912) rotate(-45)">
				<title>工作表.31</title>
				<path d="M0 255.62 L18.42 255.62" class="st2"/>
			</g>
		</g>
		<g id="shape36-85" v:mID="36" v:groupContext="shape" transform="translate(50.2648,-41.5379)">
			<title>工作表.36</title>
			<path d="M9.45 255.62 L9.81 255.62 L276.67 255.62" class="st3"/>
		</g>
		<g id="shape37-94" v:mID="37" v:groupContext="shape" transform="translate(-22.894,-99.6749) rotate(-16.631)">
			<title>工作表.37</title>
			<path d="M0 255.62 L298.99 255.62" class="st5"/>
		</g>
		<g id="shape38-97" v:mID="38" v:groupContext="shape" transform="translate(383.592,310.962) rotate(169.44)">
			<title>工作表.38</title>
			<path d="M0 255.62 L291.42 255.62" class="st1"/>
		</g>
		<g id="shape39-100" v:mID="39" v:groupContext="shape" transform="translate(435.717,295.354) rotate(157.22)">
			<title>工作表.39</title>
			<path d="M0 255.62 L310.72 255.62" class="st1"/>
		</g>
		<g id="shape40-103" v:mID="40" v:groupContext="shape" transform="translate(285.943,14.1126) rotate(67.2205)">
			<title>工作表.40</title>
			<path d="M0 255.62 L61.68 255.62" class="st1"/>
		</g>
		<g id="shape42-106" v:mID="42" v:groupContext="shape" transform="translate(-27.4099,-69.6415) rotate(-21.7409)">
			<title>工作表.42</title>
			<path d="M0 255.62 L5.5 255.62" class="st1"/>
		</g>
		<g id="shape43-109" v:mID="43" v:groupContext="shape" transform="translate(-162.633,279.616) rotate(-114.894)">
			<title>工作表.43</title>
			<path d="M0 255.62 L4.66 255.62" class="st1"/>
		</g>
		<g id="shape44-112" v:mID="44" v:groupContext="shape" transform="translate(353.572,-110.368)">
			<title>工作表.44</title>
			<path d="M0 255.62 L14.17 255.62" class="st1"/>
		</g>
		<g id="shape45-115" v:mID="45" v:groupContext="shape" transform="translate(353.572,-195.94)">
			<title>工作表.45</title>
			<path d="M0 255.62 L14.17 255.62" class="st1"/>
		</g>
		<g id="shape46-118" v:mID="46" v:groupContext="shape" transform="translate(616.274,59.6759) rotate(90)">
			<title>工作表.46</title>
			<path d="M5.36 255.62 L5.72 255.62 L79.85 255.62" class="st6"/>
		</g>
		<g id="shape47-127" v:mID="47" v:groupContext="shape" transform="translate(29.0049,-75.0679)">
			<title>工作表.47</title>
			<path d="M0 255.62 L14.17 255.62" class="st1"/>
		</g>
		<g id="shape48-130" v:mID="48" v:groupContext="shape" transform="translate(29.0049,-143.267)">
			<title>工作表.48</title>
			<path d="M0 255.62 L14.17 255.62" class="st1"/>
		</g>
		<g id="shape49-133" v:mID="49" v:groupContext="shape" transform="translate(291.707,112.349) rotate(90)">
			<title>工作表.49</title>
			<path d="M5.36 255.62 L5.72 255.62 L62.48 255.62" class="st6"/>
		</g>
		<g id="shape50-140" v:mID="50" v:groupContext="shape" transform="translate(181.367,-19.6348)">
			<title>工作表.50</title>
			<desc>D</desc>
			<v:textBlock v:margins="rect(4,4,4,4)" v:tabSpace="42.5197"/>
			<v:textRect cx="10.6299" cy="245.616" width="21.26" height="20"/>
			<rect x="0" y="235.616" width="21.2598" height="20" class="st7"/>
			<text x="6.3" y="249.22" class="st8" v:langID="2052"><v:paragraph v:horizAlign="1"/><v:tabList/>D</text>		</g>
		<g id="shape52-143" v:mID="52" v:groupContext="shape" transform="translate(316.013,-18.375)">
			<title>工作表.52</title>
			<desc>E</desc>
			<v:textBlock v:margins="rect(4,4,4,4)" v:tabSpace="42.5197"/>
			<v:textRect cx="10.6299" cy="245.616" width="21.26" height="20"/>
			<rect x="0" y="235.616" width="21.2598" height="20" class="st7"/>
			<text x="6.97" y="249.22" class="st8" v:langID="2052"><v:paragraph v:horizAlign="1"/><v:tabList/>E</text>		</g>
		<g id="shape143-146" v:mID="143" v:groupContext="shape" transform="translate(358.532,-143.021)">
			<title>工作表.143</title>
			<desc>x</desc>
			<v:textBlock v:margins="rect(4,4,4,4)" v:tabSpace="42.5197"/>
			<v:textRect cx="10.6299" cy="245.616" width="21.26" height="20"/>
			<rect x="0" y="235.616" width="21.2598" height="20" class="st7"/>
			<text x="7.97" y="249.22" class="st8" v:langID="2052"><v:paragraph v:horizAlign="1"/><v:tabList/>x</text>		</g>
		<g id="shape144-149" v:mID="144" v:groupContext="shape" transform="translate(316.013,-89.2411)">
			<title>工作表.144</title>
			<desc>O</desc>
			<v:textBlock v:margins="rect(4,4,4,4)" v:tabSpace="42.5197"/>
			<v:textRect cx="10.6299" cy="245.616" width="21.26" height="20"/>
			<rect x="0" y="235.616" width="21.2598" height="20" class="st7"/>
			<text x="6.3" y="249.22" class="st8" v:langID="2052"><v:paragraph v:horizAlign="1"/><v:tabList/>O</text>		</g>
		<g id="shape145-152" v:mID="145" v:groupContext="shape" transform="translate(316.013,-196.8)">
			<title>工作表.145</title>
			<desc>P</desc>
			<v:textBlock v:margins="rect(4,4,4,4)" v:tabSpace="42.5197"/>
			<v:textRect cx="10.6299" cy="245.616" width="21.26" height="20"/>
			<rect x="0" y="235.616" width="21.2598" height="20" class="st7"/>
			<text x="6.97" y="249.22" class="st8" v:langID="2052"><v:paragraph v:horizAlign="1"/><v:tabList/>P</text>		</g>
		<g id="shape146-155" v:mID="146" v:groupContext="shape" transform="translate(18.375,-100.368)">
			<title>工作表.146</title>
			<desc>d</desc>
			<v:textBlock v:margins="rect(4,4,4,4)" v:tabSpace="42.5197"/>
			<v:textRect cx="10.6299" cy="245.616" width="21.26" height="20"/>
			<rect x="0" y="235.616" width="21.2598" height="20" class="st7"/>
			<text x="7.63" y="249.22" class="st8" v:langID="2052"><v:paragraph v:horizAlign="1"/><v:tabList/>d</text>		</g>
		<g id="shape147-158" v:mID="147" v:groupContext="shape" transform="translate(29.0049,-141.628)">
			<title>工作表.147</title>
			<desc>S1</desc>
			<v:textBlock v:margins="rect(4,4,4,4)" v:tabSpace="42.5197"/>
			<v:textRect cx="10.6299" cy="245.616" width="21.26" height="20"/>
			<rect x="0" y="235.616" width="21.2598" height="20" class="st7"/>
			<text x="6.13" y="249.22" class="st8" v:langID="2052"><v:paragraph v:horizAlign="1"/><v:tabList/>S<tspan class="st9">1</tspan></text>		</g>
		<g id="shape148-162" v:mID="148" v:groupContext="shape" transform="translate(29.0049,-55.0679)">
			<title>工作表.148</title>
			<desc>S2</desc>
			<v:textBlock v:margins="rect(4,4,4,4)" v:tabSpace="42.5197"/>
			<v:textRect cx="10.6299" cy="245.616" width="21.26" height="20"/>
			<rect x="0" y="235.616" width="21.2598" height="20" class="st7"/>
			<text x="6.13" y="249.22" class="st8" v:langID="2052"><v:paragraph v:horizAlign="1"/><v:tabList/>S<tspan class="st9">2</tspan></text>		</g>
		<g id="shape149-166" v:mID="149" v:groupContext="shape" transform="translate(177.824,-164.281)">
			<title>工作表.149</title>
			<desc>r1</desc>
			<v:textBlock v:margins="rect(4,4,4,4)" v:tabSpace="42.5197"/>
			<v:textRect cx="10.6299" cy="245.616" width="21.26" height="20"/>
			<rect x="0" y="235.616" width="21.2598" height="20" class="st7"/>
			<text x="6.8" y="249.22" class="st8" v:langID="2052"><v:paragraph v:horizAlign="1"/><v:tabList/>r<tspan class="st9">1</tspan></text>		</g>
		<g id="shape150-170" v:mID="150" v:groupContext="shape" transform="translate(184.91,-114.674)">
			<title>工作表.150</title>
			<desc>r2</desc>
			<v:textBlock v:margins="rect(4,4,4,4)" v:tabSpace="42.5197"/>
			<v:textRect cx="10.6299" cy="245.616" width="21.26" height="20"/>
			<rect x="0" y="235.616" width="21.2598" height="20" class="st7"/>
			<text x="6.8" y="249.22" class="st8" v:langID="2052"><v:paragraph v:horizAlign="1"/><v:tabList/>r<tspan class="st9">2</tspan></text>		</g>
		<g id="shape151-174" v:mID="151" v:groupContext="shape" transform="translate(327.588,86.7989) rotate(78.6141)">
			<title>工作表.151</title>
			<path d="M0 255.62 A7.98671 1.60835 11.39 0 1 8.15 255.62" class="st1"/>
		</g>
		<g id="shape152-177" v:mID="152" v:groupContext="shape" transform="translate(-49.0363,-108) rotate(-22.9341)">
			<title>工作表.152</title>
			<path d="M0 254.83 A4.85175 2.05286 -157.07 0 0 5.27 254.83" class="st1"/>
		</g>
		<g id="shape153-180" v:mID="153" v:groupContext="shape" transform="translate(53.0175,-114.981)">
			<title>工作表.153</title>
			<path d="M0 241.31 L25.59 236 L25.3 255.62" class="st10"/>
		</g>
		<g id="shape154-183" v:mID="154" v:groupContext="shape" transform="translate(71.5246,-125.934)">
			<title>工作表.154</title>
			<desc>θ</desc>
			<v:textBlock v:margins="rect(4,4,4,4)" v:tabSpace="42.5197"/>
			<v:textRect cx="10.6299" cy="245.616" width="21.26" height="20"/>
			<rect x="0" y="235.616" width="21.2598" height="20" class="st7"/>
			<text x="7.68" y="249.22" class="st8" v:langID="2052"><v:paragraph v:horizAlign="1"/><v:tabList/>θ </text>		</g>
		<g id="shape155-186" v:mID="155" v:groupContext="shape" transform="translate(44.5955,-94.1545)">
			<title>工作表.155</title>
			<desc>M</desc>
			<v:textBlock v:margins="rect(4,4,4,4)" v:tabSpace="42.5197"/>
			<v:textRect cx="10.6299" cy="245.616" width="21.26" height="20"/>
			<rect x="0" y="235.616" width="21.2598" height="20" class="st7"/>
			<text x="5.63" y="249.22" class="st8" v:langID="2052"><v:paragraph v:horizAlign="1"/><v:tabList/>M</text>		</g>
	</g>
</svg>
